<svg id="Layer_1" data-name="Layer 1" xmlns="http://www.w3.org/2000/svg" viewBox="0 0 204 73"><defs><style>.cls-1{fill:none;}.cls-2{fill:#232d71;}</style></defs><rect class="cls-1" width="204" height="73"/><path class="cls-1" d="M169.09,18.31q-1.28-3.9-2.1-7.52c-.23,1.21-.51,2.38-.83,3.52s-.62,2.24-1,3.42-.76,2.41-1.22,3.71-1,2.68-1.56,4.25l-6.79,18.4h22.56L172,26.61Q170.41,22.17,169.09,18.31Z"/><path class="cls-1" d="M103.58,18.31q-1.27-3.9-2.1-7.52c-.23,1.21-.5,2.38-.83,3.52s-.62,2.24-1,3.42-.76,2.41-1.22,3.71-1,2.68-1.56,4.25L90.1,44.09h22.56l-6.2-17.48Q104.9,22.17,103.58,18.31Z"/><path class="cls-2" d="M202.68,68.8a11.85,11.85,0,0,1-2.54-.24,5.44,5.44,0,0,1-1.9-.83,6.27,6.27,0,0,1-1.47-1.66,18.58,18.58,0,0,1-1.17-2.59L173,1.61h-7.81L143,61a38.75,38.75,0,0,1-1.71,3.9,9.22,9.22,0,0,1-1.56,2.4,4.56,4.56,0,0,1-1.85,1.22,8,8,0,0,1-1.69.25,11.56,11.56,0,0,1-1.57-.2,5.44,5.44,0,0,1-1.9-.83,6.24,6.24,0,0,1-1.46-1.66,17.42,17.42,0,0,1-1.18-2.59L107.49,1.61H99.67L77.51,61a41.18,41.18,0,0,1-1.71,3.9,9.49,9.49,0,0,1-1.57,2.4,4.56,4.56,0,0,1-1.85,1.22,9.46,9.46,0,0,1-2.49.29H68V73H92.4V68.8H90.1a8.79,8.79,0,0,1-5-1.17,4.29,4.29,0,0,1-1.61-3.71,9,9,0,0,1,.25-2,15.88,15.88,0,0,1,.68-2.34l3.81-10.5h26.27l4,11.18a18.29,18.29,0,0,1,.59,2A6.41,6.41,0,0,1,119.3,64q0,4.78-6,4.78H111V73h46.91V68.8h-2.3a8.77,8.77,0,0,1-5-1.17A4.29,4.29,0,0,1,149,63.92a9.54,9.54,0,0,1,.24-2,17.26,17.26,0,0,1,.69-2.34l3.81-10.5H180l4,11.18a18.29,18.29,0,0,1,.59,2,6.41,6.41,0,0,1,.24,1.71q0,4.78-6,4.78h-2.29V73H204V68.8ZM90.1,44.09l6.79-18.4c.59-1.57,1.11-3,1.56-4.25s.87-2.54,1.22-3.71.69-2.31,1-3.42.6-2.31.83-3.52q.83,3.62,2.1,7.52t2.88,8.3l6.2,17.48Zm65.51,0,6.79-18.4c.58-1.57,1.1-3,1.56-4.25s.86-2.54,1.22-3.71.68-2.31,1-3.42.6-2.31.83-3.52q.82,3.62,2.1,7.52t2.88,8.3l6.2,17.48Z"/></svg>