<svg id="Layer_1" data-name="Layer 1" xmlns="http://www.w3.org/2000/svg" viewBox="0 0 204 73"><defs><style>.cls-1{fill:none;}.cls-2{fill:#232d71;}</style></defs><rect class="cls-1" width="204" height="73"/><path class="cls-1" d="M101.1,18.31q-1.26-3.9-2.1-7.52a35.43,35.43,0,0,1-.83,3.52c-.29,1.11-.61,2.24-1,3.42s-.77,2.41-1.22,3.71-1,2.68-1.57,4.25l-6.78,18.4h22.56L104,26.61Q102.42,22.17,101.1,18.31Z"/><path class="cls-1" d="M35.6,18.31q-1.27-3.9-2.1-7.52c-.23,1.21-.51,2.38-.83,3.52s-.62,2.24-1,3.42-.77,2.41-1.22,3.71-1,2.68-1.56,4.25l-6.79,18.4H44.68l-6.2-17.48Q36.91,22.17,35.6,18.31Z"/><path class="cls-2" d="M134.7,68.8a11.72,11.72,0,0,1-2.54-.24,5.49,5.49,0,0,1-1.91-.83,6.24,6.24,0,0,1-1.46-1.66,18.58,18.58,0,0,1-1.17-2.59L105,1.61H97.2L75,61a41.18,41.18,0,0,1-1.71,3.9,9.77,9.77,0,0,1-1.56,2.4,4.6,4.6,0,0,1-1.86,1.22,8,8,0,0,1-1.68.25,11.36,11.36,0,0,1-1.57-.2,5.36,5.36,0,0,1-1.9-.83,6.1,6.1,0,0,1-1.47-1.66,18.58,18.58,0,0,1-1.17-2.59L39.5,1.61H31.69L9.52,61a41.18,41.18,0,0,1-1.71,3.9,9.77,9.77,0,0,1-1.56,2.4,4.53,4.53,0,0,1-1.86,1.22,9.35,9.35,0,0,1-2.49.29H0V73H24.41V68.8H22.12a8.77,8.77,0,0,1-5-1.17,4.29,4.29,0,0,1-1.61-3.71,9.54,9.54,0,0,1,.24-2,15.93,15.93,0,0,1,.69-2.34l3.8-10.5H46.48l4,11.18a18,18,0,0,1,.58,2A6.05,6.05,0,0,1,51.32,64q0,4.78-6,4.78H43V73h46.9V68.8H87.63a8.75,8.75,0,0,1-5-1.17A4.26,4.26,0,0,1,81,63.92a9.54,9.54,0,0,1,.24-2,15.88,15.88,0,0,1,.68-2.34l3.81-10.5H112l4,11.18a18,18,0,0,1,.58,2,6.05,6.05,0,0,1,.25,1.71c0,3.19-2,4.78-6,4.78h-2.29V73H136V68.8ZM22.12,44.09l6.79-18.4c.58-1.57,1.1-3,1.56-4.25s.86-2.54,1.22-3.71.68-2.31,1-3.42.6-2.31.83-3.52q.82,3.62,2.1,7.52t2.88,8.3l6.2,17.48Zm65.51,0,6.78-18.4c.59-1.57,1.11-3,1.57-4.25s.86-2.54,1.22-3.71.68-2.31,1-3.42A35.43,35.43,0,0,0,99,10.79q.84,3.62,2.1,7.52t2.88,8.3l6.21,17.48Z"/></svg>