<svg id="Layer_1" data-name="Layer 1" xmlns="http://www.w3.org/2000/svg" viewBox="0 0 204 73"><defs><style>.cls-1{fill:none;}.cls-2{fill:#232d71;}</style></defs><rect class="cls-1" width="204" height="73"/><path class="cls-2" d="M0,73V68.8H1.9a5.62,5.62,0,0,0,4.3-1.5Q7.7,65.8,9.5,61L31.7,1.6h7.8L62.1,63.5a8.68,8.68,0,0,0,2.6,4.2,7.92,7.92,0,0,0,4.5,1.1h1.3V73H43V68.8h2.3q6,0,6-4.8a8.09,8.09,0,0,0-.2-1.7,15,15,0,0,0-.6-2l-4-11.2H20.2L16.4,59.6a12.41,12.41,0,0,0-.9,4.3q0,4.91,6.6,4.9h2.3V73ZM22.1,44.1H44.7L38.5,26.6c-1.07-2.93-2-5.7-2.9-8.3a73.93,73.93,0,0,1-2.1-7.5,56.16,56.16,0,0,1-1.8,6.9c-.73,2.2-1.67,4.87-2.8,8Z"/></svg>