<svg id="Layer_1" data-name="Layer 1" xmlns="http://www.w3.org/2000/svg" viewBox="0 0 204 73"><defs><style>.cls-1{fill:none;}.cls-2{fill:#232d71;}</style></defs><rect class="cls-1" width="204" height="73"/><path class="cls-2" d="M133.5,73V68.8h1.9a5.62,5.62,0,0,0,4.3-1.5q1.5-1.5,3.3-6.3L165.2,1.6H173l22.6,61.9a8.68,8.68,0,0,0,2.6,4.2,7.92,7.92,0,0,0,4.5,1.1H204V73H176.5V68.8h2.3q6,0,6-4.8a8.09,8.09,0,0,0-.2-1.7,15,15,0,0,0-.6-2l-4-11.2H153.7l-3.8,10.5a12.41,12.41,0,0,0-.9,4.3q0,4.91,6.6,4.9h2.3V73Zm22.1-28.9h22.6L172,26.6c-1.07-2.93-2-5.7-2.9-8.3a73.93,73.93,0,0,1-2.1-7.5,56.16,56.16,0,0,1-1.8,6.9c-.73,2.2-1.67,4.87-2.8,8Z"/></svg>