<svg id="Layer_1" data-name="Layer 1" xmlns="http://www.w3.org/2000/svg" viewBox="0 0 204 73"><defs><style>.cls-1{fill:none;}.cls-2{fill:#232d71;}</style></defs><rect class="cls-1" width="204" height="73"/><path class="cls-1" d="M36.11,17.75A78.07,78.07,0,0,1,34,10.18a56,56,0,0,1-1.82,7q-1.11,3.33-2.83,8.08L22.48,43.81H45.3L39,26.14C38,23.17,37,20.38,36.11,17.75Z"/><path class="cls-1" d="M102.27,17.75a78.07,78.07,0,0,1-2.12-7.57,54.29,54.29,0,0,1-1.82,7q-1.11,3.33-2.82,8.08L88.64,43.81h22.83L105.2,26.14C104.12,23.17,103.15,20.38,102.27,17.75Z"/><path class="cls-1" d="M168.44,17.75a72.76,72.76,0,0,1-2.12-7.57,57.79,57.79,0,0,1-1.82,7c-.74,2.22-1.69,4.91-2.83,8.08L154.8,43.81h22.83l-6.26-17.67C170.29,23.17,169.31,20.38,168.44,17.75Z"/><path class="cls-2" d="M202.37,68.76a8,8,0,0,1-4.54-1.11,8.84,8.84,0,0,1-2.63-4.25L172.38.89H164.5l-22.42,60q-1.83,4.84-3.34,6.36a5.3,5.3,0,0,1-3.58,1.47,7.21,7.21,0,0,1-3.5-1.06A8.91,8.91,0,0,1,129,63.4L106.21.89H98.33l-22.42,60q-1.81,4.84-3.33,6.36A5.3,5.3,0,0,1,69,68.71a7.17,7.17,0,0,1-3.5-1.06,8.84,8.84,0,0,1-2.62-4.25L40.05.89H32.17l-22.42,60q-1.82,4.84-3.33,6.36a5.69,5.69,0,0,1-4.35,1.52H.15V73H24.8V68.76H22.48q-6.67,0-6.67-5a12.41,12.41,0,0,1,.91-4.34l3.84-10.61H47.12l4,11.31a17.62,17.62,0,0,1,.61,2,8.27,8.27,0,0,1,.2,1.72q0,4.84-6.06,4.85H43.58V73H91V68.76H88.64q-6.67,0-6.67-5a12.64,12.64,0,0,1,.91-4.34l3.84-10.61h26.56l4,11.31a17.62,17.62,0,0,1,.61,2,8.27,8.27,0,0,1,.2,1.72q0,4.84-6.06,4.85h-2.32V73h47.37V68.76H154.8q-6.66,0-6.66-5a12.61,12.61,0,0,1,.9-4.34l3.84-10.61h26.57l4,11.31a15.65,15.65,0,0,1,.6,2,7.64,7.64,0,0,1,.2,1.72q0,4.84-6.06,4.85h-2.32V73h27.78V68.76Zm-179.89-25,6.86-18.58q1.72-4.76,2.83-8.08a56,56,0,0,0,1.82-7,78.07,78.07,0,0,0,2.12,7.57C37,20.38,38,23.17,39,26.14L45.3,43.81Zm66.16,0,6.87-18.58q1.71-4.76,2.82-8.08a54.29,54.29,0,0,0,1.82-7,78.07,78.07,0,0,0,2.12,7.57c.88,2.63,1.85,5.42,2.93,8.39l6.27,17.67Zm66.16,0,6.87-18.58c1.14-3.17,2.09-5.86,2.83-8.08a57.79,57.79,0,0,0,1.82-7,72.76,72.76,0,0,0,2.12,7.57c.87,2.63,1.85,5.42,2.93,8.39l6.26,17.67Z"/></svg>