<svg width="38" height="31" fill="none" xmlns="http://www.w3.org/2000/svg">
  <path d="M29.53 30.266c-3.038 0-5.377-1.033-7.018-3.099-1.58-2.126-2.37-4.951-2.37-8.475 0-3.888 1.307-7.443 3.92-10.663C26.734 4.81 31.2 2.41 37.457.83v5.377c-2.43.972-4.314 1.822-5.65 2.552-1.276.729-1.914 1.974-1.914 3.736 0 .85.334 1.519 1.002 2.005.669.425 1.428.911 2.279 1.458.911.547 1.7 1.367 2.37 2.46.667 1.094 1.002 2.704 1.002 4.83 0 2.249-.669 3.98-2.005 5.195-1.337 1.215-3.008 1.823-5.013 1.823zm-19.685 0c-3.038 0-5.377-1.033-7.018-3.099-1.58-2.126-2.369-4.951-2.369-8.475 0-3.888 1.306-7.443 3.919-10.663C7.05 4.81 11.515 2.41 17.773.83v5.377c-2.43.972-4.313 1.822-5.65 2.552-1.276.729-1.914 1.974-1.914 3.736 0 .85.334 1.519 1.003 2.005.668.425 1.428.911 2.278 1.458.911.547 1.701 1.367 2.37 2.46.668 1.094 1.002 2.704 1.002 4.83 0 2.249-.668 3.98-2.005 5.195-1.337 1.215-3.007 1.823-5.012 1.823z" fill="#2f7851"/>
</svg>
