<svg width="217" height="254" viewBox="0 0 217 254" fill="none" xmlns="http://www.w3.org/2000/svg">
<path d="M204.9 233.217C204.9 237.237 204.06 240.777 202.38 243.837C200.7 246.897 198.06 249.327 194.46 251.127C190.8 252.867 186.03 253.737 180.15 253.737C173.73 253.737 168.69 252.867 165.03 251.127C161.31 249.327 158.7 246.927 157.2 243.927C155.64 240.927 154.86 237.507 154.86 233.667C154.86 231.147 155.19 228.687 155.85 226.287C156.51 223.887 157.53 221.907 158.91 220.347C160.29 218.787 162 218.007 164.04 218.007C166.08 218.007 167.55 218.697 168.45 220.077C169.29 221.397 169.71 223.377 169.71 226.017C166.89 226.017 164.46 226.557 162.42 227.637C160.38 228.657 159.36 230.667 159.36 233.667C159.36 235.947 159.96 237.957 161.16 239.697C162.36 241.377 164.46 242.697 167.46 243.657C170.46 244.557 174.66 245.007 180.06 245.007C186.42 245.007 191.19 243.957 194.37 241.857C197.49 239.697 199.05 236.217 199.05 231.417C199.05 228.597 198.48 226.167 197.34 224.127C196.14 222.027 194.61 220.467 192.75 219.447C193.59 218.427 194.76 217.917 196.26 217.917C197.64 217.917 198.99 218.487 200.31 219.627C201.63 220.767 202.74 222.477 203.64 224.757C204.48 226.977 204.9 229.797 204.9 233.217V233.217ZM204.9 188.561C204.9 195.041 202.83 200.141 198.69 203.861C194.55 207.581 188.25 209.441 179.79 209.441C171.39 209.441 165.15 207.671 161.07 204.131C156.93 200.531 154.86 195.251 154.86 188.291C154.86 181.811 156.93 176.711 161.07 172.991C165.15 169.271 171.39 167.411 179.79 167.411C188.25 167.411 194.55 169.211 198.69 172.811C202.83 176.411 204.9 181.661 204.9 188.561ZM200.22 188.381C200.22 183.881 198.51 180.731 195.09 178.931C191.61 177.071 186.51 176.141 179.79 176.141C173.07 176.141 168.03 177.071 164.67 178.931C161.31 180.791 159.63 183.971 159.63 188.471C159.63 192.971 161.31 196.151 164.67 198.011C168.03 199.811 173.07 200.711 179.79 200.711C186.51 200.711 191.61 199.781 195.09 197.921C198.51 196.061 200.22 192.881 200.22 188.381ZM204.9 139.137C204.9 145.077 202.92 149.637 198.96 152.817C194.94 155.937 188.61 157.497 179.97 157.497C171.27 157.497 164.91 155.937 160.89 152.817C156.87 149.637 154.86 145.077 154.86 139.137C154.86 135.657 155.61 132.837 157.11 130.677C158.55 128.457 160.44 126.687 162.78 125.367V124.827C161.28 125.007 159.63 125.157 157.83 125.277C155.97 125.337 154.32 125.367 152.88 125.367H145.5C142.86 125.367 141.18 126.117 140.46 127.617C139.74 129.057 139.38 130.767 139.38 132.747V133.467H135.6V116.907H194.1C196.74 116.907 198.42 116.187 199.14 114.747C199.86 113.247 200.22 111.507 200.22 109.527V108.807H204V124.017L195.9 125.007V125.367C198.66 126.687 200.85 128.427 202.47 130.587C204.09 132.747 204.9 135.597 204.9 139.137ZM199.14 137.607C199.14 132.927 197.58 129.717 194.46 127.977C191.28 126.237 186.45 125.367 179.97 125.367C173.73 125.367 168.96 126.237 165.66 127.977C162.3 129.717 160.62 132.957 160.62 137.697C160.62 141.657 162.3 144.507 165.66 146.247C168.96 147.927 173.76 148.767 180.06 148.767C186.42 148.767 191.19 147.927 194.37 146.247C197.55 144.507 199.14 141.627 199.14 137.607V137.607ZM204.9 81.3342C204.9 87.8742 202.74 93.0042 198.42 96.7242C194.1 100.384 188.04 102.214 180.24 102.214C171.84 102.214 165.51 100.504 161.25 97.0842C156.99 93.6042 154.86 88.6542 154.86 82.2342C154.86 76.4142 156.66 71.8542 160.26 68.5542C163.86 65.1942 169.23 63.5142 176.37 63.5142H180.51V93.4842C187.05 93.3642 191.82 92.1942 194.82 89.9742C197.76 87.6942 199.23 84.3942 199.23 80.0742C199.23 76.9542 198.6 74.3142 197.34 72.1542C196.02 69.9342 194.55 68.2842 192.93 67.2042C193.11 66.7842 193.47 66.3942 194.01 66.0342C194.55 65.6742 195.21 65.4942 195.99 65.4942C197.19 65.4942 198.48 66.0642 199.86 67.2042C201.24 68.3442 202.44 70.1142 203.46 72.5142C204.42 74.8542 204.9 77.7942 204.9 81.3342V81.3342ZM175.65 93.3042V72.6042C170.91 72.6042 167.07 73.3542 164.13 74.8542C161.19 76.2942 159.72 78.8142 159.72 82.4142C159.72 85.7142 161.1 88.2942 163.86 90.1542C166.56 91.9542 170.49 93.0042 175.65 93.3042V93.3042Z" fill="#707070"/>
<path d="M136.791 16.0001V0.952148H144.807L144.543 2.12815H138.279V7.52815H144.159V8.65615H138.279V14.8241H144.663L144.855 16.0001H136.791V16.0001ZM146.348 16.0001L150.092 8.29615L146.66 0.952148H148.196L151.148 7.26415L154.076 0.952148H155.444L152.108 8.29615L155.852 16.0001H154.364L151.148 9.32815L147.98 16.0001H146.348V16.0001ZM157.015 16.0001L161.719 0.952148H163.951L168.415 16.0001H166.903L165.775 12.1601H159.823L158.647 16.0001H157.015ZM160.183 11.0801H165.391L162.847 2.24815L160.183 11.0801ZM170.678 16.0001L171.854 0.952148H173.51L177.062 9.18415L180.494 0.952148H182.15L183.422 16.0001H182.054L180.926 3.11215L177.734 10.8641H176.39L173.078 3.08815L172.07 16.0001H170.678ZM186.783 0.952148H190.863C192.495 0.952148 193.719 1.28015 194.535 1.93615C195.367 2.59215 195.783 3.74415 195.783 5.39215C195.783 6.56015 195.551 7.45615 195.087 8.08015C194.623 8.70415 193.943 9.13615 193.047 9.37615C192.167 9.60015 190.999 9.71215 189.543 9.71215H188.271V16.0001H186.783V0.952148V0.952148ZM189.255 8.48815C190.599 8.48815 191.599 8.44015 192.255 8.34415C192.911 8.23215 193.407 7.96015 193.743 7.52815C194.095 7.08015 194.271 6.37615 194.271 5.41615C194.271 4.16815 194.007 3.31215 193.479 2.84815C192.967 2.36815 192.127 2.12815 190.959 2.12815H188.271V8.48815H189.255ZM198.268 16.0001V0.952148H199.756V14.8241H205.516L205.732 16.0001H198.268ZM207.947 16.0001V0.952148H215.963L215.699 2.12815H209.435V7.52815H215.315V8.65615H209.435V14.8241H215.819L216.011 16.0001H207.947V16.0001Z" fill="#96A98C"/>
<path d="M118 8.5H0" stroke="#96A98C"/>
</svg>
