<svg width="218" height="82" fill="none" xmlns="http://www.w3.org/2000/svg"><path d="M214.99 66.572c-6.12 0-12.03.18-17.73.54-5.7.36-10.8.78-15.3 1.26-4.56.48-8.19.96-10.89 1.44l-10.17-3.24 2.52 15.12h-7.74l2.34-15.12-21.42 2.34v-8.64l21.42 2.52-2.34-15.12h7.74l-2.52 15.12 10.17-3.42c2.64.48 6.24.99 10.8 1.53 4.5.54 9.6.99 15.3 1.35 5.7.36 11.64.54 17.82.54v3.78z" fill="#383838"/><path d="M99 8H0" stroke="#2F7851"/><path d="M113.369 16V.952h7.8l-.216 1.176h-6.096V7.84h5.352v1.104h-5.352V16h-1.488zM128.202 16.12c-1.376 0-2.448-.296-3.216-.888-.752-.592-1.28-1.44-1.584-2.544-.288-1.12-.432-2.544-.432-4.272 0-1.712.152-3.12.456-4.224.32-1.12.864-1.968 1.632-2.544.768-.592 1.816-.888 3.144-.888s2.376.296 3.144.888c.768.576 1.312 1.424 1.632 2.544.32 1.104.48 2.512.48 4.224 0 1.744-.152 3.168-.456 4.272-.288 1.104-.816 1.952-1.584 2.544-.768.592-1.84.888-3.216.888zm0-1.248c.976 0 1.736-.224 2.28-.672.544-.448.928-1.128 1.152-2.04.224-.928.336-2.168.336-3.72s-.12-2.792-.36-3.72c-.224-.928-.608-1.608-1.152-2.04-.544-.448-1.296-.672-2.256-.672-.96 0-1.712.224-2.256.672-.528.432-.912 1.112-1.152 2.04-.224.928-.336 2.168-.336 3.72s.112 2.792.336 3.72c.224.912.608 1.592 1.152 2.04.544.448 1.296.672 2.256.672zM141.42 16.12c-1.376 0-2.448-.296-3.216-.888-.752-.592-1.28-1.44-1.584-2.544-.288-1.12-.432-2.544-.432-4.272 0-1.712.152-3.12.456-4.224.32-1.12.864-1.968 1.632-2.544.768-.592 1.816-.888 3.144-.888s2.376.296 3.144.888c.768.576 1.312 1.424 1.632 2.544.32 1.104.48 2.512.48 4.224 0 1.744-.152 3.168-.456 4.272-.288 1.104-.816 1.952-1.584 2.544-.768.592-1.84.888-3.216.888zm0-1.248c.976 0 1.736-.224 2.28-.672.544-.448.928-1.128 1.152-2.04.224-.928.336-2.168.336-3.72s-.12-2.792-.36-3.72c-.224-.928-.608-1.608-1.152-2.04-.544-.448-1.296-.672-2.256-.672-.96 0-1.712.224-2.256.672-.528.432-.912 1.112-1.152 2.04-.224.928-.336 2.168-.336 3.72s.112 2.792.336 3.72c.224.912.608 1.592 1.152 2.04.544.448 1.296.672 2.256.672zM152.479 16V2.128h-4.032V.952h9.624v1.176h-4.08V16h-1.512zM160.221 16V.952h1.584l7.536 12.48V.952h1.368V16h-1.488l-7.584-12.672V16h-1.416zM179.061 16.12c-1.376 0-2.448-.296-3.216-.888-.752-.592-1.28-1.44-1.584-2.544-.288-1.12-.432-2.544-.432-4.272 0-1.712.152-3.12.456-4.224.32-1.12.864-1.968 1.632-2.544.768-.592 1.816-.888 3.144-.888s2.376.296 3.144.888c.768.576 1.312 1.424 1.632 2.544.32 1.104.48 2.512.48 4.224 0 1.744-.152 3.168-.456 4.272-.288 1.104-.816 1.952-1.584 2.544-.768.592-1.84.888-3.216.888zm0-1.248c.976 0 1.736-.224 2.28-.672.544-.448.928-1.128 1.152-2.04.224-.928.336-2.168.336-3.72s-.12-2.792-.36-3.72c-.224-.928-.608-1.608-1.152-2.04-.544-.448-1.296-.672-2.256-.672-.96 0-1.712.224-2.256.672-.528.432-.912 1.112-1.152 2.04-.224.928-.336 2.168-.336 3.72s.112 2.792.336 3.72c.224.912.608 1.592 1.152 2.04.544.448 1.296.672 2.256.672zM190.12 16V2.128h-4.032V.952h9.624v1.176h-4.08V16h-1.512zM197.861 16V.952h8.016l-.264 1.176h-6.264v5.4h5.88v1.128h-5.88v6.168h6.384l.192 1.176h-8.064zM212.434 16.12c-1.76 0-3.192-.304-4.296-.912l.336-1.224c.64.272 1.248.488 1.824.648.592.16 1.304.24 2.136.24 1.008 0 1.792-.248 2.352-.744.576-.496.864-1.256.864-2.28 0-.592-.104-1.056-.312-1.392a2.25 2.25 0 00-.888-.84c-.384-.208-.944-.432-1.68-.672l-1.44-.48c-1.056-.368-1.856-.84-2.4-1.416-.528-.592-.792-1.392-.792-2.4 0-1.344.424-2.328 1.272-2.952.848-.624 1.96-.936 3.336-.936 1.536 0 2.88.24 4.032.72l-.264 1.2a10.816 10.816 0 00-1.704-.48 8.417 8.417 0 00-1.872-.192c-2.192 0-3.288.864-3.288 2.592 0 .656.144 1.16.432 1.512.288.336.864.656 1.728.96l1.32.48c.992.352 1.72.648 2.184.888.48.24.904.632 1.272 1.176.368.544.552 1.296.552 2.256 0 1.36-.424 2.408-1.272 3.144-.848.736-1.992 1.104-3.432 1.104z" fill="#2F7851"/></svg>