<svg width="218" height="225" viewBox="0 0 218 225" fill="none" xmlns="http://www.w3.org/2000/svg">
<path d="M204.9 204.3C204.9 208.86 203.88 212.19 201.84 214.29C199.74 216.33 196.11 217.35 190.95 217.35H160.89V224.19H157.29C157.29 223.11 157.08 221.94 156.66 220.68C156.179 219.358 155.41 218.159 154.41 217.17C153.33 216.15 152.01 215.31 150.45 214.65C148.89 213.99 146.97 213.45 144.69 213.03V208.89H155.76V197.1H160.89V208.89H191.22C194.28 208.89 196.53 208.29 197.97 207.09C199.41 205.83 200.13 204.15 200.13 202.05C200.13 200.97 200.07 199.98 199.95 199.08C199.83 198.18 199.68 197.25 199.5 196.29H203.46C203.82 197.07 204.15 198.24 204.45 199.8C204.75 201.36 204.9 202.86 204.9 204.3V204.3ZM204 193.09H200.22V191.92C200.22 189.88 199.86 188.14 199.14 186.7C198.36 185.26 196.56 184.54 193.74 184.54H145.5C142.86 184.54 141.18 185.29 140.46 186.79C139.74 188.23 139.38 189.94 139.38 191.92V193.09H135.6V176.08H193.74C196.56 176.08 198.36 175.36 199.14 173.92C199.86 172.48 200.22 170.74 200.22 168.7V167.53H204V193.09V193.09ZM167.55 153.438C167.55 154.998 167.1 156.348 166.2 157.488C165.3 158.568 163.71 159.108 161.43 159.108C159.09 159.108 157.5 158.568 156.66 157.488C155.76 156.348 155.31 154.998 155.31 153.438C155.31 151.878 155.76 150.558 156.66 149.478C157.5 148.338 159.09 147.768 161.43 147.768C163.71 147.768 165.3 148.338 166.2 149.478C167.1 150.558 167.55 151.878 167.55 153.438ZM217.86 162.078H214.08C212.22 156.378 209.52 153.528 205.98 153.528C205.08 153.528 204.39 153.858 203.91 154.518C203.43 155.178 202.98 155.958 202.56 156.858C202.133 157.707 201.554 158.47 200.85 159.108C200.13 159.768 199.08 160.098 197.7 160.098C196.02 160.098 194.73 159.558 193.83 158.478C192.87 157.338 192.39 155.928 192.39 154.248C192.39 152.388 193.08 150.768 194.46 149.388C195.78 148.008 197.7 147.318 200.22 147.318C204.06 147.318 207.57 148.458 210.75 150.738C213.93 152.958 216.3 156.738 217.86 162.078ZM204.9 117.336C204.9 123.276 202.92 127.836 198.96 131.016C194.94 134.136 188.61 135.696 179.97 135.696C171.27 135.696 164.91 134.136 160.89 131.016C156.87 127.836 154.86 123.276 154.86 117.336C154.86 113.856 155.61 111.036 157.11 108.876C158.55 106.656 160.44 104.886 162.78 103.566V103.026C161.28 103.206 159.63 103.356 157.83 103.476C155.97 103.536 154.32 103.566 152.88 103.566H145.5C142.86 103.566 141.18 104.316 140.46 105.816C139.74 107.256 139.38 108.966 139.38 110.946V111.666H135.6V95.1062H194.1C196.74 95.1062 198.42 94.3862 199.14 92.9462C199.86 91.4462 200.22 89.7062 200.22 87.7262V87.0062H204V102.216L195.9 103.206V103.566C198.66 104.886 200.85 106.626 202.47 108.786C204.09 110.946 204.9 113.796 204.9 117.336V117.336ZM199.14 115.806C199.14 111.126 197.58 107.916 194.46 106.176C191.28 104.436 186.45 103.566 179.97 103.566C173.73 103.566 168.96 104.436 165.66 106.176C162.3 107.916 160.62 111.156 160.62 115.896C160.62 119.856 162.3 122.706 165.66 124.446C168.96 126.126 173.76 126.966 180.06 126.966C186.42 126.966 191.19 126.126 194.37 124.446C197.55 122.706 199.14 119.826 199.14 115.806ZM204 82.3932H200.22V82.1232C200.22 80.0832 199.86 78.3432 199.14 76.9032C198.36 75.4632 196.56 74.7432 193.74 74.7432H165.66C163.02 74.7432 161.34 75.4932 160.62 76.9932C159.9 78.4332 159.54 80.1432 159.54 82.1232V82.3932H155.76V68.5332L164.67 66.8232V66.3732C162.87 65.5932 161.25 64.7532 159.81 63.8532C158.31 62.9532 157.11 61.7532 156.21 60.2532C155.31 58.7532 154.86 56.6832 154.86 54.0432C154.86 50.7432 155.43 48.3132 156.57 46.7532C157.71 45.1332 159.33 44.3232 161.43 44.3232C163.29 44.3232 164.82 44.9832 166.02 46.3032C167.22 47.5632 167.82 49.6932 167.82 52.6932C165.36 52.6932 163.59 53.0532 162.51 53.7732C161.37 54.4932 160.8 55.7232 160.8 57.4632C160.8 59.1432 161.46 60.5532 162.78 61.6932C164.1 62.8332 165.78 63.7332 167.82 64.3932C169.86 65.0532 171.99 65.5332 174.21 65.8332C176.37 66.1332 178.32 66.2832 180.06 66.2832H194.19C196.83 66.2832 198.51 65.5632 199.23 64.1232C199.89 62.6232 200.22 60.8832 200.22 58.9032V56.3832H204V82.3932Z" fill="#707070"/>
<path d="M77.7001 16.1198C75.9401 16.1198 74.5081 15.8158 73.4041 15.2078L73.7401 13.9838C74.3801 14.2558 74.9881 14.4718 75.5641 14.6318C76.1561 14.7918 76.8681 14.8718 77.7001 14.8718C78.7081 14.8718 79.4921 14.6238 80.0521 14.1278C80.6281 13.6318 80.9161 12.8718 80.9161 11.8478C80.9161 11.2558 80.812 10.7918 80.604 10.4558C80.3912 10.0992 80.0839 9.80846 79.7161 9.61577C79.3321 9.40777 78.7721 9.18377 78.0361 8.94377L76.5961 8.46377C75.5401 8.09577 74.7401 7.62377 74.1961 7.04777C73.6681 6.45577 73.4041 5.65577 73.4041 4.64777C73.4041 3.30377 73.8281 2.31977 74.6761 1.69577C75.5241 1.07177 76.6361 0.759766 78.0121 0.759766C79.5481 0.759766 80.8921 0.999766 82.0441 1.47977L81.7801 2.67977C81.2261 2.47347 80.6562 2.31293 80.076 2.19977C79.4612 2.06599 78.8333 2.00159 78.2041 2.00777C76.0121 2.00777 74.9161 2.87177 74.9161 4.59977C74.9161 5.25577 75.0601 5.75977 75.3481 6.11177C75.6361 6.44777 76.212 6.76777 77.076 7.07177L78.3961 7.55177C79.3881 7.90377 80.1161 8.19976 80.5801 8.43976C81.0601 8.67976 81.4841 9.07177 81.8521 9.61577C82.2201 10.1598 82.4041 10.9118 82.4041 11.8718C82.4041 13.2318 81.9801 14.2798 81.1321 15.0158C80.2841 15.7518 79.1401 16.1198 77.7001 16.1198V16.1198ZM85.0181 15.9998V0.951766H86.5061V7.76777H93.298V0.951766H94.8101V15.9998H93.298V8.94377H86.5061V15.9998H85.0181ZM103.155 16.1198C101.779 16.1198 100.707 15.8238 99.9391 15.2318C99.1871 14.6398 98.6591 13.7918 98.3551 12.6878C98.0671 11.5678 97.923 10.1438 97.923 8.41577C97.923 6.70377 98.0751 5.29577 98.3791 4.19177C98.6991 3.07177 99.2431 2.22377 100.011 1.64777C100.779 1.05577 101.827 0.759766 103.155 0.759766C104.483 0.759766 105.531 1.05577 106.299 1.64777C107.067 2.22377 107.611 3.07177 107.931 4.19177C108.251 5.29577 108.411 6.70377 108.411 8.41577C108.411 10.1598 108.259 11.5838 107.955 12.6878C107.667 13.7918 107.139 14.6398 106.371 15.2318C105.603 15.8238 104.531 16.1198 103.155 16.1198V16.1198ZM103.155 14.8718C104.131 14.8718 104.891 14.6478 105.435 14.1998C105.979 13.7518 106.363 13.0718 106.587 12.1598C106.811 11.2318 106.923 9.99177 106.923 8.43976C106.923 6.88776 106.803 5.64777 106.563 4.71977C106.339 3.79177 105.955 3.11177 105.411 2.67977C104.867 2.23177 104.115 2.00777 103.155 2.00777C102.195 2.00777 101.443 2.23177 100.899 2.67977C100.371 3.11177 99.9871 3.79177 99.7471 4.71977C99.5231 5.64777 99.4111 6.88776 99.4111 8.43976C99.4111 9.99177 99.5231 11.2318 99.7471 12.1598C99.9711 13.0718 100.355 13.7518 100.899 14.1998C101.443 14.6478 102.195 14.8718 103.155 14.8718V14.8718ZM119.974 16.2878C119.269 15.1391 118.597 13.9706 117.958 12.7838C117.238 11.4558 116.662 10.2878 116.23 9.27977C115.654 9.32777 115.014 9.35177 114.31 9.35177H113.014V15.9998H111.526V0.951766H114.478C115.95 0.951766 117.102 1.05577 117.934 1.26377C118.782 1.47177 119.422 1.87977 119.854 2.48777C120.302 3.09577 120.526 3.99977 120.526 5.19977C120.526 6.33577 120.286 7.20777 119.806 7.81577C119.342 8.42377 118.614 8.83977 117.622 9.06377L121.198 15.4958L119.974 16.2878V16.2878ZM114.046 8.24777C115.39 8.24777 116.406 8.17576 117.094 8.03176C117.782 7.88776 118.27 7.60777 118.558 7.19177C118.862 6.75977 119.014 6.10377 119.014 5.22377C119.014 4.29577 118.846 3.61577 118.51 3.18377C118.19 2.73577 117.718 2.44777 117.094 2.31977C116.47 2.19177 115.574 2.12777 114.406 2.12777H113.014V8.24777H114.046ZM126.542 15.9998V2.12777H122.51V0.951766H132.134V2.12777H128.054V15.9998H126.542ZM141.054 15.9998L145.758 0.951766H147.99L152.454 15.9998H150.942L149.814 12.1598H143.862L142.686 15.9998H141.054ZM144.222 11.0798H149.43L146.886 2.24777L144.222 11.0798ZM154.861 15.9998V0.951766H156.445L163.981 13.4318V0.951766H165.35V15.9998H163.861L156.277 3.32777V15.9998H154.861ZM172.622 16.1198C170.862 16.1198 169.43 15.8158 168.326 15.2078L168.662 13.9838C169.302 14.2558 169.91 14.4718 170.486 14.6318C171.078 14.7918 171.79 14.8718 172.622 14.8718C173.63 14.8718 174.414 14.6238 174.974 14.1278C175.55 13.6318 175.838 12.8718 175.838 11.8478C175.838 11.2558 175.734 10.7918 175.526 10.4558C175.313 10.0992 175.006 9.80846 174.638 9.61577C174.254 9.40777 173.694 9.18377 172.958 8.94377L171.518 8.46377C170.462 8.09577 169.662 7.62377 169.118 7.04777C168.59 6.45577 168.326 5.65577 168.326 4.64777C168.326 3.30377 168.75 2.31977 169.598 1.69577C170.446 1.07177 171.558 0.759766 172.934 0.759766C174.47 0.759766 175.814 0.999766 176.966 1.47977L176.702 2.67977C176.148 2.47347 175.578 2.31293 174.998 2.19977C174.383 2.06599 173.755 2.00159 173.126 2.00777C170.934 2.00777 169.838 2.87177 169.838 4.59977C169.838 5.25577 169.982 5.75977 170.27 6.11177C170.558 6.44777 171.134 6.76777 171.998 7.07177L173.318 7.55177C174.31 7.90377 175.038 8.19976 175.502 8.43976C175.982 8.67976 176.406 9.07177 176.774 9.61577C177.142 10.1598 177.326 10.9118 177.326 11.8718C177.326 13.2318 176.902 14.2798 176.054 15.0158C175.206 15.7518 174.062 16.1198 172.622 16.1198V16.1198ZM181.548 15.9998L180.036 0.951766H181.404L182.748 13.8398L185.484 6.08777H186.828L189.684 13.8638L190.932 0.951766H192.3L190.908 15.9998H189.228L186.18 7.76777L183.18 15.9998H181.548V15.9998ZM195.619 15.9998V0.951766H203.635L203.371 2.12777H197.107V7.52777H202.987V8.65577H197.107V14.8238H203.491L203.683 15.9998H195.619ZM214.872 16.2878C214.167 15.1391 213.495 13.9706 212.856 12.7838C212.136 11.4558 211.56 10.2878 211.128 9.27977C210.552 9.32777 209.912 9.35177 209.208 9.35177H207.912V15.9998H206.424V0.951766H209.376C210.848 0.951766 212 1.05577 212.832 1.26377C213.68 1.47177 214.32 1.87977 214.752 2.48777C215.2 3.09577 215.424 3.99977 215.424 5.19977C215.424 6.33577 215.184 7.20777 214.704 7.81577C214.24 8.42377 213.512 8.83977 212.52 9.06377L216.096 15.4958L214.872 16.2878ZM208.944 8.24777C210.288 8.24777 211.304 8.17576 211.992 8.03176C212.68 7.88776 213.168 7.60777 213.456 7.19177C213.76 6.75977 213.912 6.10377 213.912 5.22377C213.912 4.29577 213.744 3.61577 213.408 3.18377C213.088 2.73577 212.616 2.44777 211.992 2.31977C211.368 2.19177 210.472 2.12777 209.304 2.12777H207.912V8.24777H208.944V8.24777Z" fill="#96A98C"/>
<path d="M60 6.5H0Z" fill="#96A98C"/>
<path d="M60 6.5H0" stroke="#96A98C"/>
</svg>
