<svg width="218" height="175" fill="none" xmlns="http://www.w3.org/2000/svg"><path d="M205.9 153.434c0 7.2-1.74 12.57-5.22 16.11-3.48 3.54-8.04 5.31-13.68 5.31-3.36 0-6.18-.6-8.46-1.8-2.28-1.2-4.2-2.88-5.76-5.04-1.56-2.16-2.97-4.68-4.23-7.56-2.7 2.28-5.22 4.02-7.56 5.22-2.34 1.14-4.98 1.71-7.92 1.71-3.96 0-7.14-1.32-9.54-3.96-2.46-2.7-3.69-7.05-3.69-13.05 0-3.84.6-6.93 1.8-9.27 1.14-2.34 2.7-4.02 4.68-5.04 1.92-1.08 4.02-1.62 6.3-1.62 2.58 0 4.8.51 6.66 1.53 1.86 1.02 3.54 2.64 5.04 4.86s3.03 5.16 4.59 8.82l17.37-16.38c-2.7-.84-5.43-1.38-8.19-1.62-2.76-.3-5.25-.45-7.47-.45h-3.51v-16.2h3.78v.81c0 2.04.33 3.93.99 5.67.66 1.74 2.37 3 5.13 3.78 1.92.54 4.02 1.17 6.3 1.89 2.22.66 4.47 1.5 6.75 2.52l8.91-8.37c.9-.84 1.5-1.83 1.8-2.97.3-1.2.45-3 .45-5.4v-.81H205v14.4l-7.92 7.47c2.46 2.16 4.56 4.8 6.3 7.92 1.68 3.12 2.52 6.96 2.52 11.52zm-40.41-.72c-1.5-3.54-3.21-6.15-5.13-7.83-1.92-1.68-4.47-2.52-7.65-2.52-2.4 0-4.41.63-6.03 1.89-1.62 1.26-2.43 3.42-2.43 6.48 0 2.64.78 4.68 2.34 6.12 1.56 1.44 3.63 2.16 6.21 2.16 2.28 0 4.35-.48 6.21-1.44 1.8-.96 3.96-2.58 6.48-4.86zm35.37-.09c0-3.54-.69-6.57-2.07-9.09-1.38-2.52-3.12-4.62-5.22-6.3l-21.33 19.89c1.56 2.76 3.48 4.95 5.76 6.57 2.28 1.56 5.37 2.34 9.27 2.34 4.38 0 7.74-1.23 10.08-3.69s3.51-5.7 3.51-9.72zM205.9 85.827c0 4.02-.84 7.56-2.52 10.62-1.68 3.06-4.32 5.49-7.92 7.29-3.66 1.74-8.43 2.61-14.31 2.61-6.42 0-11.46-.87-15.12-2.61-3.72-1.8-6.33-4.2-7.83-7.2-1.56-3-2.34-6.42-2.34-10.26 0-2.52.33-4.98.99-7.38.66-2.4 1.68-4.38 3.06-5.94 1.38-1.56 3.09-2.34 5.13-2.34s3.51.69 4.41 2.07c.84 1.32 1.26 3.3 1.26 5.94-2.82 0-5.25.54-7.29 1.62-2.04 1.02-3.06 3.03-3.06 6.03 0 2.28.6 4.29 1.8 6.03 1.2 1.68 3.3 3 6.3 3.96 3 .9 7.2 1.35 12.6 1.35 6.36 0 11.13-1.05 14.31-3.15 3.12-2.16 4.68-5.64 4.68-10.44 0-2.82-.57-5.25-1.71-7.29-1.2-2.1-2.73-3.66-4.59-4.68.84-1.02 2.01-1.53 3.51-1.53 1.38 0 2.73.57 4.05 1.71 1.32 1.14 2.43 2.85 3.33 5.13.84 2.22 1.26 5.04 1.26 8.46zM205.63 55.75c0 1.56-.45 2.91-1.35 4.05-.9 1.08-2.49 1.62-4.77 1.62-2.34 0-3.93-.54-4.77-1.62-.9-1.14-1.35-2.49-1.35-4.05 0-1.5.45-2.82 1.35-3.96.84-1.14 2.43-1.71 4.77-1.71 2.28 0 3.87.57 4.77 1.71.9 1.14 1.35 2.46 1.35 3.96z" fill="#383838"/><path d="M145 8H0" stroke="#2F7851"/><path d="M160.221 16V.952h1.584l7.536 12.48V.952h1.368V16h-1.488l-7.584-12.672V16h-1.416zM179.061 16.12c-1.376 0-2.448-.296-3.216-.888-.752-.592-1.28-1.44-1.584-2.544-.288-1.12-.432-2.544-.432-4.272 0-1.712.152-3.12.456-4.224.32-1.12.864-1.968 1.632-2.544.768-.592 1.816-.888 3.144-.888s2.376.296 3.144.888c.768.576 1.312 1.424 1.632 2.544.32 1.104.48 2.512.48 4.224 0 1.744-.152 3.168-.456 4.272-.288 1.104-.816 1.952-1.584 2.544-.768.592-1.84.888-3.216.888zm0-1.248c.976 0 1.736-.224 2.28-.672.544-.448.928-1.128 1.152-2.04.224-.928.336-2.168.336-3.72s-.12-2.792-.36-3.72c-.224-.928-.608-1.608-1.152-2.04-.544-.448-1.296-.672-2.256-.672-.96 0-1.712.224-2.256.672-.528.432-.912 1.112-1.152 2.04-.224.928-.336 2.168-.336 3.72s.112 2.792.336 3.72c.224.912.608 1.592 1.152 2.04.544.448 1.296.672 2.256.672zM190.12 16V2.128h-4.032V.952h9.624v1.176h-4.08V16h-1.512zM197.861 16V.952h8.016l-.264 1.176h-6.264v5.4h5.88v1.128h-5.88v6.168h6.384l.192 1.176h-8.064zM212.434 16.12c-1.76 0-3.192-.304-4.296-.912l.336-1.224c.64.272 1.248.488 1.824.648.592.16 1.304.24 2.136.24 1.008 0 1.792-.248 2.352-.744.576-.496.864-1.256.864-2.28 0-.592-.104-1.056-.312-1.392a2.25 2.25 0 0 0-.888-.84c-.384-.208-.944-.432-1.68-.672l-1.44-.48c-1.056-.368-1.856-.84-2.4-1.416-.528-.592-.792-1.392-.792-2.4 0-1.344.424-2.328 1.272-2.952.848-.624 1.96-.936 3.336-.936 1.536 0 2.88.24 4.032.72l-.264 1.2a10.816 10.816 0 0 0-1.704-.48 8.417 8.417 0 0 0-1.872-.192c-2.192 0-3.288.864-3.288 2.592 0 .656.144 1.16.432 1.512.288.336.864.656 1.728.96l1.32.48c.992.352 1.72.648 2.184.888.48.24.904.632 1.272 1.176.368.544.552 1.296.552 2.256 0 1.36-.424 2.408-1.272 3.144-.848.736-1.992 1.104-3.432 1.104z" fill="#2F7851"/></svg>