<svg width="217" height="175" viewBox="0 0 217 175" fill="none" xmlns="http://www.w3.org/2000/svg">
<path d="M205.9 153.434C205.9 160.634 204.16 166.004 200.68 169.544C197.2 173.084 192.64 174.854 187 174.854C183.64 174.854 180.82 174.254 178.54 173.054C176.26 171.854 174.34 170.174 172.78 168.014C171.22 165.854 169.81 163.334 168.55 160.454C165.85 162.734 163.33 164.474 160.99 165.674C158.65 166.814 156.01 167.384 153.07 167.384C149.11 167.384 145.93 166.064 143.53 163.424C141.07 160.724 139.84 156.374 139.84 150.374C139.84 146.534 140.44 143.444 141.64 141.104C142.78 138.764 144.34 137.084 146.32 136.064C148.24 134.984 150.34 134.444 152.62 134.444C155.2 134.444 157.42 134.954 159.28 135.974C161.14 136.994 162.82 138.614 164.32 140.834C165.82 143.054 167.35 145.994 168.91 149.654L186.28 133.274C183.58 132.434 180.85 131.894 178.09 131.654C175.33 131.354 172.84 131.204 170.62 131.204H167.11V115.004H170.89V115.814C170.89 117.854 171.22 119.744 171.88 121.484C172.54 123.224 174.25 124.484 177.01 125.264C178.93 125.804 181.03 126.434 183.31 127.154C185.53 127.814 187.78 128.654 190.06 129.674L198.97 121.304C199.87 120.464 200.47 119.474 200.77 118.334C201.07 117.134 201.22 115.334 201.22 112.934V112.124H205V126.524L197.08 133.994C199.54 136.154 201.64 138.794 203.38 141.914C205.06 145.034 205.9 148.874 205.9 153.434V153.434ZM165.49 152.714C163.99 149.174 162.28 146.564 160.36 144.884C158.44 143.204 155.89 142.364 152.71 142.364C150.31 142.364 148.3 142.994 146.68 144.254C145.06 145.514 144.25 147.674 144.25 150.734C144.25 153.374 145.03 155.414 146.59 156.854C148.15 158.294 150.22 159.014 152.8 159.014C155.08 159.014 157.15 158.534 159.01 157.574C160.81 156.614 162.97 154.994 165.49 152.714V152.714ZM200.86 152.624C200.86 149.084 200.17 146.054 198.79 143.534C197.41 141.014 195.67 138.914 193.57 137.234L172.24 157.124C173.8 159.884 175.72 162.074 178 163.694C180.28 165.254 183.37 166.034 187.27 166.034C191.65 166.034 195.01 164.804 197.35 162.344C199.69 159.884 200.86 156.644 200.86 152.624V152.624ZM205.9 85.8271C205.9 89.8471 205.06 93.3871 203.38 96.4471C201.7 99.5071 199.06 101.937 195.46 103.737C191.8 105.477 187.03 106.347 181.15 106.347C174.73 106.347 169.69 105.477 166.03 103.737C162.31 101.937 159.7 99.5371 158.2 96.5371C156.64 93.5371 155.86 90.1171 155.86 86.2771C155.86 83.7571 156.19 81.2971 156.85 78.8971C157.51 76.4971 158.53 74.5171 159.91 72.9571C161.29 71.3971 163 70.6171 165.04 70.6171C167.08 70.6171 168.55 71.3071 169.45 72.6871C170.29 74.0071 170.71 75.9871 170.71 78.6271C167.89 78.6271 165.46 79.1671 163.42 80.2471C161.38 81.2671 160.36 83.2771 160.36 86.2771C160.36 88.5571 160.96 90.5671 162.16 92.3071C163.36 93.9871 165.46 95.3071 168.46 96.2671C171.46 97.1671 175.66 97.6171 181.06 97.6171C187.42 97.6171 192.19 96.5671 195.37 94.4671C198.49 92.3071 200.05 88.8271 200.05 84.0271C200.05 81.2071 199.48 78.7771 198.34 76.7371C197.14 74.6371 195.61 73.0771 193.75 72.0571C194.59 71.0371 195.76 70.5271 197.26 70.5271C198.64 70.5271 199.99 71.0971 201.31 72.2371C202.63 73.3771 203.74 75.0871 204.64 77.3671C205.48 79.5871 205.9 82.4071 205.9 85.8271V85.8271ZM205.63 55.7501C205.63 57.3101 205.18 58.6601 204.28 59.8001C203.38 60.8801 201.79 61.4201 199.51 61.4201C197.17 61.4201 195.58 60.8801 194.74 59.8001C193.84 58.6601 193.39 57.3101 193.39 55.7501C193.39 54.2501 193.84 52.9301 194.74 51.7901C195.58 50.6501 197.17 50.0801 199.51 50.0801C201.79 50.0801 203.38 50.6501 204.28 51.7901C205.18 52.9301 205.63 54.2501 205.63 55.7501Z" fill="#707070"/>
<path d="M31 8H0" stroke="#96A98C"/>
<path d="M47.3159 7.83191H52.6599V8.93391H47.3159V15.9999H45.8159V0.952906H53.6329L53.4099 2.12491H47.3159V7.83191ZM59.1879 14.7459C59.5795 14.8372 59.9808 14.8805 60.3829 14.8749C60.785 14.8805 61.1863 14.8372 61.5779 14.7459C61.8803 14.6758 62.1719 14.5655 62.4449 14.4179C62.6869 14.2849 62.8909 14.0939 63.0549 13.8439C63.2189 13.5859 63.3439 13.3359 63.4299 13.0939C63.5229 12.8439 63.5939 12.5159 63.6399 12.1089C63.6949 11.7029 63.7269 11.3319 63.7339 10.9959C63.7499 10.6519 63.7579 10.2109 63.7579 9.67191V0.952906H65.2579V8.55991C65.2579 9.23091 65.2499 9.80591 65.2339 10.2819C65.2189 10.7509 65.1839 11.2509 65.1289 11.7819C65.095 12.2291 65.0204 12.6723 64.9059 13.1059C64.7996 13.4709 64.6666 13.8275 64.5079 14.1729C64.3519 14.5329 64.1519 14.8249 63.9099 15.0519C63.6499 15.291 63.363 15.4991 63.0549 15.6719C62.7269 15.8519 62.3399 15.9819 61.8949 16.0599C61.4489 16.1449 60.9449 16.1879 60.3829 16.1879C59.876 16.1931 59.3697 16.1502 58.8709 16.0599C58.4657 15.9952 58.0738 15.8645 57.7109 15.6729C57.4028 15.4998 57.1158 15.2914 56.8559 15.0519C56.5968 14.8014 56.3896 14.5024 56.2459 14.1719C56.0941 13.8253 55.9648 13.4692 55.8589 13.1059C55.7579 12.7469 55.6789 12.3059 55.6249 11.7819C55.58 11.2829 55.5486 10.7827 55.5309 10.2819C55.5141 9.70807 55.5064 9.13399 55.5079 8.55991V0.952906H57.0079V9.67191C57.0079 10.2109 57.0119 10.6519 57.0189 10.9959C57.0349 11.3319 57.0659 11.7029 57.1129 12.1089C57.1679 12.5159 57.2379 12.8439 57.3239 13.0939C57.4179 13.3359 57.5469 13.5859 57.7109 13.8439C57.8749 14.0939 58.0739 14.2849 58.3089 14.4179C58.5509 14.5509 58.8439 14.6599 59.1879 14.7459V14.7459ZM75.9569 5.21891C75.9569 4.81191 75.9219 4.45291 75.8519 4.14091C75.8013 3.86347 75.7104 3.59495 75.5819 3.34391C75.4687 3.12056 75.2991 2.93063 75.0899 2.79291C74.8898 2.65019 74.6732 2.53201 74.4449 2.44091C74.2349 2.34791 73.9489 2.27691 73.5899 2.23091C73.2299 2.18391 72.8899 2.15591 72.5699 2.14791C72.2499 2.13291 71.8439 2.12491 71.3519 2.12491H69.9569V8.24191H70.9769C71.6569 8.24191 72.2229 8.22991 72.6759 8.20691C73.1289 8.17591 73.5549 8.12091 73.9529 8.04291C74.3519 7.95691 74.6679 7.84791 74.9029 7.71491C75.1369 7.57491 75.3359 7.39091 75.4999 7.16491C75.6719 6.93691 75.7899 6.66791 75.8519 6.35491C75.928 5.98117 75.9632 5.60026 75.9569 5.21891V5.21891ZM78.1369 15.5189L76.9069 16.2929C75.2889 13.6209 74.0389 11.2849 73.1569 9.28491C72.5939 9.33191 71.9569 9.35491 71.2469 9.35491H69.9569V15.9999H68.4569V0.952906H71.4219C72.1409 0.952906 72.7539 0.972906 73.2619 1.01191C73.7689 1.05091 74.2659 1.12491 74.7499 1.23391C75.2339 1.33591 75.6329 1.48791 75.9449 1.69091C76.2579 1.88691 76.5309 2.14091 76.7649 2.45291C77.0079 2.75791 77.1839 3.14091 77.2929 3.60191C77.4029 4.05491 77.4569 4.58591 77.4569 5.19491C77.4569 6.34391 77.2189 7.22291 76.7419 7.83191C76.2729 8.43391 75.5429 8.84791 74.5509 9.07391C74.8709 9.80091 75.3279 10.7039 75.9209 11.7809C76.4237 12.6815 76.9438 13.5724 77.4809 14.4529L78.1369 15.5199V15.5189ZM79.4729 2.12491V0.952906H89.0929V2.12491H85.0029V15.9999H83.5029V2.12491H79.4729ZM99.5589 0.952906H101.059V15.9999H99.5589V8.94491H92.7619V15.9999H91.2619V0.952906H92.7619V7.76191H99.5589V0.952906ZM106.051 8.66391V14.8279H112.438L112.625 15.9999H104.551V0.952906H112.578L112.32 2.12491H106.051V7.53891H111.922V8.66391H106.051ZM122.855 5.21891C122.855 4.81191 122.82 4.45291 122.75 4.14091C122.7 3.86332 122.609 3.59471 122.48 3.34391C122.367 3.12043 122.197 2.93046 121.988 2.79291C121.788 2.65041 121.572 2.53225 121.344 2.44091C121.133 2.34791 120.848 2.27691 120.488 2.23091C120.15 2.18539 119.81 2.15769 119.469 2.14791C119.063 2.13068 118.656 2.12301 118.25 2.12491H116.855V8.24191H117.875C118.555 8.24191 119.121 8.22991 119.574 8.20691C120.027 8.17591 120.453 8.12091 120.852 8.04291C121.25 7.95691 121.566 7.84791 121.801 7.71491C122.035 7.57491 122.234 7.39091 122.398 7.16491C122.57 6.93691 122.688 6.66791 122.75 6.35491C122.82 6.04291 122.855 5.66491 122.855 5.21891V5.21891ZM125.035 15.5189L123.805 16.2929C122.188 13.6209 120.938 11.2849 120.055 9.28491C119.492 9.33191 118.855 9.35491 118.145 9.35491H116.855V15.9999H115.355V0.952906H118.32C119.039 0.952906 119.652 0.972906 120.16 1.01191C120.668 1.05091 121.164 1.12491 121.648 1.23391C122.133 1.33591 122.531 1.48791 122.844 1.69091C123.156 1.88691 123.43 2.14091 123.664 2.45291C123.906 2.75791 124.082 3.14091 124.191 3.60191C124.301 4.05491 124.355 4.58591 124.355 5.19491C124.355 6.34391 124.117 7.22291 123.641 7.83191C123.172 8.43391 122.441 8.84791 121.449 9.07391C121.77 9.80091 122.227 10.7039 122.82 11.7809C123.322 12.6815 123.842 13.5724 124.379 14.4529L125.035 15.5199V15.5189ZM143.152 5.21891C143.152 4.81191 143.117 4.45291 143.047 4.14091C142.996 3.86343 142.906 3.59489 142.777 3.34391C142.664 3.12043 142.494 2.93046 142.285 2.79291C142.085 2.65041 141.869 2.53225 141.641 2.44091C141.43 2.34791 141.145 2.27691 140.785 2.23091C140.447 2.18539 140.107 2.15769 139.766 2.14791C139.36 2.13068 138.953 2.12301 138.547 2.12491H137.152V8.24191H138.172C138.852 8.24191 139.418 8.22991 139.871 8.20691C140.3 8.17884 140.726 8.12407 141.148 8.04291C141.547 7.95691 141.863 7.84791 142.098 7.71491C142.332 7.57491 142.531 7.39091 142.695 7.16491C142.867 6.93691 142.984 6.66791 143.047 6.35491C143.117 6.04291 143.152 5.66491 143.152 5.21891V5.21891ZM145.332 15.5189L144.102 16.2929C142.484 13.6209 141.234 11.2849 140.352 9.28491C139.789 9.33191 139.152 9.35491 138.441 9.35491H137.152V15.9999H135.652V0.952906H138.617C139.336 0.952906 139.949 0.972906 140.457 1.01191C140.965 1.05091 141.461 1.12491 141.945 1.23391C142.43 1.33591 142.828 1.48791 143.141 1.69091C143.453 1.88691 143.727 2.14091 143.961 2.45291C144.203 2.75791 144.379 3.14091 144.488 3.60191C144.598 4.05491 144.652 4.58591 144.652 5.19491C144.652 6.34391 144.414 7.22291 143.938 7.83191C143.469 8.43391 142.738 8.84791 141.746 9.07391C142.066 9.80091 142.523 10.7039 143.117 11.7809C143.619 12.6815 144.139 13.5724 144.676 14.4529L145.332 15.5199V15.5189ZM149.504 8.66391V14.8279H155.891L156.078 15.9999H148.004V0.952906H156.031L155.773 2.12491H149.504V7.53891H155.375V8.66391H149.504ZM166.074 11.0779L163.508 2.24191L160.848 11.0779H166.074ZM167.574 15.9999L166.438 12.1559H160.496L159.324 15.9999H157.695L162.383 0.952906H164.621L169.098 15.9999H167.574ZM174.816 15.9999H171.488V0.952906H174.688C175.578 0.952906 176.355 1.01191 177.02 1.12891C177.684 1.24591 178.258 1.44091 178.742 1.71491C179.234 1.98791 179.637 2.31591 179.949 2.69891C180.27 3.08191 180.523 3.56991 180.711 4.16391C180.906 4.74991 181.043 5.39091 181.121 6.08591C181.199 6.78091 181.238 7.60191 181.238 8.54591C181.238 9.27291 181.215 9.91391 181.168 10.4689C181.129 11.0205 181.051 11.5685 180.934 12.1089C180.816 12.6489 180.656 13.1089 180.453 13.4919C180.242 13.8855 179.978 14.2482 179.668 14.5699C179.348 14.8979 178.961 15.1639 178.508 15.3669C177.996 15.5821 177.461 15.7394 176.914 15.8359C176.297 15.9459 175.598 15.9999 174.816 15.9999V15.9999ZM174.688 2.12491H172.988V14.8279H174.816C175.316 14.8279 175.766 14.8049 176.164 14.7579C176.57 14.7029 176.934 14.6329 177.254 14.5469C177.554 14.4623 177.838 14.3318 178.098 14.1599C178.34 13.9959 178.547 13.8239 178.719 13.6449C178.898 13.4569 179.047 13.2229 179.164 12.9409C179.289 12.6609 179.387 12.3829 179.457 12.1089C179.535 11.8289 179.594 11.4889 179.633 11.0889C179.672 10.6839 179.699 10.2929 179.715 9.91791C179.73 9.53491 179.738 9.07791 179.738 8.54691C179.738 7.71891 179.715 7.02291 179.668 6.46091C179.625 5.91509 179.535 5.37405 179.398 4.84391C179.273 4.32791 179.094 3.91391 178.859 3.60191C178.615 3.26485 178.303 2.98166 177.945 2.76991C177.57 2.53491 177.117 2.37091 176.586 2.27691C176.055 2.17591 175.422 2.12491 174.688 2.12491V2.12491ZM187.695 2.12491V14.8279H189.898V15.9999H183.922V14.8279H186.195V2.12491H183.922V0.952906H189.852V2.12491H187.695ZM202.062 0.952906H203.422V15.9999H201.945L194.363 3.33191V15.9999H192.934V0.952906H194.527L202.062 13.4329V0.952906ZM216.477 14.9219C216.237 15.0524 215.995 15.1775 215.75 15.2969C215.562 15.3829 215.266 15.5039 214.859 15.6599C214.43 15.8165 213.986 15.9304 213.535 15.9999C213.059 16.0779 212.555 16.1169 212.023 16.1169C210 16.1169 208.566 15.5069 207.723 14.2889C206.887 13.0629 206.469 11.0939 206.469 8.38291C206.469 5.68791 206.945 3.74291 207.898 2.54691C208.852 1.35191 210.285 0.753906 212.199 0.753906C213.582 0.753906 214.871 1.04691 216.066 1.63291V4.46891H214.789V2.43991C214.117 2.14391 213.297 1.99491 212.328 1.99491C211.766 1.99491 211.273 2.04491 210.852 2.14691C210.421 2.25644 210.015 2.44755 209.656 2.70991C209.273 2.98291 208.961 3.34991 208.719 3.81191C208.484 4.27191 208.293 4.87791 208.145 5.62791C208.004 6.37791 207.934 7.26091 207.934 8.27591C207.934 10.6509 208.238 12.3459 208.848 13.3619C209.457 14.3699 210.539 14.8739 212.094 14.8739C213.312 14.8739 214.32 14.6829 215.117 14.2999V9.35491H212.352V8.20691H216.477V14.9219V14.9219Z" fill="#96A98C"/>
</svg>
