<svg width="218" height="82" viewBox="0 0 218 82" fill="none" xmlns="http://www.w3.org/2000/svg">
<path d="M214.99 66.5719C208.87 66.5719 202.96 66.7519 197.26 67.1119C191.56 67.4719 186.46 67.8919 181.96 68.3719C177.4 68.8519 173.77 69.3319 171.07 69.8119L160.9 66.5719L163.42 81.6919H155.68L158.02 66.5719L136.6 68.9119V60.2719L158.02 62.7919L155.68 47.6719H163.42L160.9 62.7919L171.07 59.3719C173.71 59.8519 177.31 60.3619 181.87 60.9019C186.37 61.4419 191.47 61.8919 197.17 62.2519C202.87 62.6119 208.81 62.7919 214.99 62.7919V66.5719V66.5719Z" fill="#707070"/>
<path d="M99 8H0" stroke="#96A98C"/>
<path d="M113.369 15.9998V0.951766H121.169L120.953 2.12777H114.857V7.83977H120.209V8.94377H114.857V15.9998H113.369ZM128.202 16.1198C126.826 16.1198 125.754 15.8238 124.986 15.2318C124.234 14.6398 123.706 13.7918 123.402 12.6878C123.114 11.5678 122.97 10.1438 122.97 8.41577C122.97 6.70377 123.122 5.29577 123.426 4.19177C123.746 3.07177 124.29 2.22377 125.058 1.64777C125.826 1.05577 126.874 0.759766 128.202 0.759766C129.53 0.759766 130.578 1.05577 131.346 1.64777C132.114 2.22377 132.658 3.07177 132.978 4.19177C133.298 5.29577 133.458 6.70377 133.458 8.41577C133.458 10.1598 133.306 11.5838 133.002 12.6878C132.714 13.7918 132.186 14.6398 131.418 15.2318C130.65 15.8238 129.578 16.1198 128.202 16.1198ZM128.202 14.8718C129.178 14.8718 129.938 14.6478 130.482 14.1998C131.026 13.7518 131.41 13.0718 131.634 12.1598C131.858 11.2318 131.97 9.99177 131.97 8.43976C131.97 6.88776 131.85 5.64777 131.61 4.71977C131.386 3.79177 131.002 3.11177 130.458 2.67977C129.914 2.23177 129.162 2.00777 128.202 2.00777C127.242 2.00777 126.49 2.23177 125.946 2.67977C125.418 3.11177 125.034 3.79177 124.794 4.71977C124.57 5.64777 124.458 6.88776 124.458 8.43976C124.458 9.99177 124.57 11.2318 124.794 12.1598C125.018 13.0718 125.402 13.7518 125.946 14.1998C126.49 14.6478 127.242 14.8718 128.202 14.8718V14.8718ZM141.42 16.1198C140.044 16.1198 138.972 15.8238 138.204 15.2318C137.452 14.6398 136.924 13.7918 136.62 12.6878C136.332 11.5678 136.188 10.1438 136.188 8.41577C136.188 6.70377 136.34 5.29577 136.644 4.19177C136.964 3.07177 137.508 2.22377 138.276 1.64777C139.044 1.05577 140.092 0.759766 141.42 0.759766C142.748 0.759766 143.796 1.05577 144.564 1.64777C145.332 2.22377 145.876 3.07177 146.196 4.19177C146.516 5.29577 146.676 6.70377 146.676 8.41577C146.676 10.1598 146.524 11.5838 146.22 12.6878C145.932 13.7918 145.404 14.6398 144.636 15.2318C143.868 15.8238 142.796 16.1198 141.42 16.1198ZM141.42 14.8718C142.396 14.8718 143.156 14.6478 143.7 14.1998C144.244 13.7518 144.628 13.0718 144.852 12.1598C145.076 11.2318 145.188 9.99177 145.188 8.43976C145.188 6.88776 145.068 5.64777 144.828 4.71977C144.604 3.79177 144.22 3.11177 143.676 2.67977C143.132 2.23177 142.38 2.00777 141.42 2.00777C140.46 2.00777 139.708 2.23177 139.164 2.67977C138.636 3.11177 138.252 3.79177 138.012 4.71977C137.788 5.64777 137.676 6.88776 137.676 8.43976C137.676 9.99177 137.788 11.2318 138.012 12.1598C138.236 13.0718 138.62 13.7518 139.164 14.1998C139.708 14.6478 140.46 14.8718 141.42 14.8718V14.8718ZM152.479 15.9998V2.12777H148.447V0.951766H158.071V2.12777H153.991V15.9998H152.479V15.9998ZM160.221 15.9998V0.951766H161.805L169.341 13.4318V0.951766H170.709V15.9998H169.221L161.637 3.32777V15.9998H160.221ZM179.061 16.1198C177.685 16.1198 176.613 15.8238 175.845 15.2318C175.093 14.6398 174.565 13.7918 174.261 12.6878C173.973 11.5678 173.829 10.1438 173.829 8.41577C173.829 6.70377 173.981 5.29577 174.285 4.19177C174.605 3.07177 175.149 2.22377 175.917 1.64777C176.685 1.05577 177.733 0.759766 179.061 0.759766C180.389 0.759766 181.437 1.05577 182.205 1.64777C182.973 2.22377 183.517 3.07177 183.837 4.19177C184.157 5.29577 184.317 6.70377 184.317 8.41577C184.317 10.1598 184.165 11.5838 183.861 12.6878C183.573 13.7918 183.045 14.6398 182.277 15.2318C181.509 15.8238 180.437 16.1198 179.061 16.1198ZM179.061 14.8718C180.037 14.8718 180.797 14.6478 181.341 14.1998C181.885 13.7518 182.269 13.0718 182.493 12.1598C182.717 11.2318 182.829 9.99177 182.829 8.43976C182.829 6.88776 182.709 5.64777 182.469 4.71977C182.245 3.79177 181.861 3.11177 181.317 2.67977C180.773 2.23177 180.021 2.00777 179.061 2.00777C178.101 2.00777 177.349 2.23177 176.805 2.67977C176.277 3.11177 175.893 3.79177 175.653 4.71977C175.429 5.64777 175.317 6.88776 175.317 8.43976C175.317 9.99177 175.429 11.2318 175.653 12.1598C175.877 13.0718 176.261 13.7518 176.805 14.1998C177.349 14.6478 178.101 14.8718 179.061 14.8718V14.8718ZM190.12 15.9998V2.12777H186.088V0.951766H195.712V2.12777H191.632V15.9998H190.12V15.9998ZM197.861 15.9998V0.951766H205.877L205.613 2.12777H199.349V7.52777H205.229V8.65577H199.349V14.8238H205.733L205.925 15.9998H197.861V15.9998ZM212.434 16.1198C210.674 16.1198 209.242 15.8158 208.138 15.2078L208.474 13.9838C209.114 14.2558 209.722 14.4718 210.298 14.6318C210.89 14.7918 211.602 14.8718 212.434 14.8718C213.442 14.8718 214.226 14.6238 214.786 14.1278C215.362 13.6318 215.65 12.8718 215.65 11.8478C215.65 11.2558 215.546 10.7918 215.338 10.4558C215.125 10.0992 214.818 9.80846 214.45 9.61577C214.066 9.40777 213.506 9.18377 212.77 8.94377L211.33 8.46377C210.274 8.09577 209.474 7.62377 208.93 7.04777C208.402 6.45577 208.138 5.65577 208.138 4.64777C208.138 3.30377 208.562 2.31977 209.41 1.69577C210.258 1.07177 211.37 0.759766 212.746 0.759766C214.282 0.759766 215.626 0.999766 216.778 1.47977L216.514 2.67977C215.96 2.47347 215.39 2.31293 214.81 2.19977C214.195 2.06599 213.567 2.00159 212.938 2.00777C210.746 2.00777 209.65 2.87177 209.65 4.59977C209.65 5.25577 209.794 5.75977 210.082 6.11177C210.37 6.44777 210.946 6.76777 211.81 7.07177L213.13 7.55177C214.122 7.90377 214.85 8.19976 215.314 8.43976C215.794 8.67976 216.218 9.07177 216.586 9.61577C216.954 10.1598 217.138 10.9118 217.138 11.8718C217.138 13.2318 216.714 14.2798 215.866 15.0158C215.018 15.7518 213.874 16.1198 212.434 16.1198V16.1198Z" fill="#96A98C"/>
</svg>
