<svg width="217" height="175" xmlns="http://www.w3.org/2000/svg"><g fill="none" fill-rule="evenodd"><path d="M205.9 153.434c0 7.2-1.74 12.57-5.22 16.11-3.48 3.54-8.04 5.31-13.68 5.31-3.36 0-6.18-.6-8.46-1.8-2.28-1.2-4.2-2.88-5.76-5.04-1.56-2.16-2.97-4.68-4.23-7.56-2.7 2.28-5.22 4.02-7.56 5.22-2.34 1.14-4.98 1.71-7.92 1.71-3.96 0-7.14-1.32-9.54-3.96-2.46-2.7-3.69-7.05-3.69-13.05 0-3.84.6-6.93 1.8-9.27 1.14-2.34 2.7-4.02 4.68-5.04 1.92-1.08 4.02-1.62 6.3-1.62 2.58 0 4.8.51 6.66 1.53 1.86 1.02 3.54 2.64 5.04 4.86s3.03 5.16 4.59 8.82l17.37-16.38c-2.7-.84-5.43-1.38-8.19-1.62-2.76-.3-5.25-.45-7.47-.45h-3.51v-16.2h3.78v.81c0 2.04.33 3.93.99 5.67.66 1.74 2.37 3 5.13 3.78 1.92.54 4.02 1.17 6.3 1.89 2.22.66 4.47 1.5 6.75 2.52l8.91-8.37c.9-.84 1.5-1.83 1.8-2.97.3-1.2.45-3 .45-5.4v-.81H205v14.4l-7.92 7.47c2.46 2.16 4.56 4.8 6.3 7.92 1.68 3.12 2.52 6.96 2.52 11.52zm-40.41-.72c-1.5-3.54-3.21-6.15-5.13-7.83-1.92-1.68-4.47-2.52-7.65-2.52-2.4 0-4.41.63-6.03 1.89-1.62 1.26-2.43 3.42-2.43 6.48 0 2.64.78 4.68 2.34 6.12 1.56 1.44 3.63 2.16 6.21 2.16 2.28 0 4.35-.48 6.21-1.44 1.8-.96 3.96-2.58 6.48-4.86zm35.37-.09c0-3.54-.69-6.57-2.07-9.09-1.38-2.52-3.12-4.62-5.22-6.3l-21.33 19.89c1.56 2.76 3.48 4.95 5.76 6.57 2.28 1.56 5.37 2.34 9.27 2.34 4.38 0 7.74-1.23 10.08-3.69s3.51-5.7 3.51-9.72zM205.9 85.827c0 4.02-.84 7.56-2.52 10.62-1.68 3.06-4.32 5.49-7.92 7.29-3.66 1.74-8.43 2.61-14.31 2.61-6.42 0-11.46-.87-15.12-2.61-3.72-1.8-6.33-4.2-7.83-7.2-1.56-3-2.34-6.42-2.34-10.26 0-2.52.33-4.98.99-7.38.66-2.4 1.68-4.38 3.06-5.94 1.38-1.56 3.09-2.34 5.13-2.34s3.51.69 4.41 2.07c.84 1.32 1.26 3.3 1.26 5.94-2.82 0-5.25.54-7.29 1.62-2.04 1.02-3.06 3.03-3.06 6.03 0 2.28.6 4.29 1.8 6.03 1.2 1.68 3.3 3 6.3 3.96 3 .9 7.2 1.35 12.6 1.35 6.36 0 11.13-1.05 14.31-3.15 3.12-2.16 4.68-5.64 4.68-10.44 0-2.82-.57-5.25-1.71-7.29-1.2-2.1-2.73-3.66-4.59-4.68.84-1.02 2.01-1.53 3.51-1.53 1.38 0 2.73.57 4.05 1.71 1.32 1.14 2.43 2.85 3.33 5.13.84 2.22 1.26 5.04 1.26 8.46zM205.63 55.75c0 1.56-.45 2.91-1.35 4.05-.9 1.08-2.49 1.62-4.77 1.62-2.34 0-3.93-.54-4.77-1.62-.9-1.14-1.35-2.49-1.35-4.05 0-1.5.45-2.82 1.35-3.96.84-1.14 2.43-1.71 4.77-1.71 2.28 0 3.87.57 4.77 1.71.9 1.14 1.35 2.46 1.35 3.96z" fill="#383838" fill-rule="nonzero"/><path stroke="#2F7851" d="M31 8H0"/><path fill="#2F7851" fill-rule="nonzero" d="M47.316 7.832h5.344v1.102h-5.344V16h-1.5V.953h7.817l-.223 1.172h-6.094zM59.188 14.746a4.96 4.96 0 001.195.129 4.96 4.96 0 001.195-.129 3.47 3.47 0 00.867-.328c.242-.133.446-.324.61-.574.164-.258.289-.508.375-.75.093-.25.164-.578.21-.985.055-.406.087-.777.094-1.113.016-.344.024-.785.024-1.324V.953h1.5V8.56c0 .671-.008 1.246-.024 1.722-.015.469-.05.969-.105 1.5a7.368 7.368 0 01-.223 1.324 7.739 7.739 0 01-.398 1.067c-.156.36-.356.652-.598.879a4.552 4.552 0 01-.855.62c-.328.18-.715.31-1.16.388-.446.085-.95.128-1.512.128a8.025 8.025 0 01-1.512-.128 3.753 3.753 0 01-1.16-.387 4.551 4.551 0 01-.855-.621 2.748 2.748 0 01-.61-.88 8.791 8.791 0 01-.387-1.066c-.101-.359-.18-.8-.234-1.324a27.613 27.613 0 01-.094-1.5 53.814 53.814 0 01-.023-1.722V.953h1.5v8.719c0 .539.004.98.011 1.324.016.336.047.707.094 1.113.055.407.125.735.211.985.094.242.223.492.387.75.164.25.363.441.598.574.242.133.535.242.879.328zM75.957 5.219c0-.407-.035-.766-.105-1.078a2.886 2.886 0 00-.27-.797 1.439 1.439 0 00-.492-.551 3.072 3.072 0 00-.645-.352c-.21-.093-.496-.164-.855-.21-.36-.047-.7-.075-1.02-.083-.32-.015-.726-.023-1.218-.023h-1.395v6.117h1.02c.68 0 1.246-.012 1.699-.035.453-.031.879-.086 1.277-.164.399-.086.715-.195.95-.328.234-.14.433-.324.597-.55.172-.228.29-.497.352-.81a5.26 5.26 0 00.105-1.136zm2.18 10.3l-1.23.774c-1.618-2.672-2.868-5.008-3.75-7.008-.563.047-1.2.07-1.91.07h-1.29V16h-1.5V.953h2.965c.719 0 1.332.02 1.84.059.507.039 1.004.113 1.488.222.484.102.883.254 1.195.457.313.196.586.45.82.762.243.305.419.688.528 1.149.11.453.164.984.164 1.593 0 1.149-.238 2.028-.715 2.637-.469.602-1.199 1.016-2.191 1.242.32.727.777 1.63 1.37 2.707a80.057 80.057 0 001.56 2.672l.656 1.067zM79.473 2.125V.953h9.62v1.172h-4.09V16h-1.5V2.125zM99.559.953h1.5V16h-1.5V8.945h-6.797V16h-1.5V.953h1.5v6.809h6.797zM106.051 8.664v6.164h6.387l.187 1.172h-8.074V.953h8.027l-.258 1.172h-6.269v5.414h5.871v1.125zM122.855 5.219c0-.407-.035-.766-.105-1.078a2.843 2.843 0 00-.27-.797 1.434 1.434 0 00-.492-.551 3.091 3.091 0 00-.644-.352c-.211-.093-.496-.164-.856-.21a9.724 9.724 0 00-1.019-.083 25.912 25.912 0 00-1.219-.023h-1.395v6.117h1.02c.68 0 1.246-.012 1.699-.035.453-.031.879-.086 1.278-.164.398-.086.714-.195.949-.328.234-.14.433-.324.597-.55.172-.228.29-.497.352-.81.07-.312.105-.69.105-1.136zm2.18 10.3l-1.23.774c-1.617-2.672-2.867-5.008-3.75-7.008-.563.047-1.2.07-1.91.07h-1.29V16h-1.5V.953h2.965c.719 0 1.332.02 1.84.059.508.039 1.004.113 1.488.222.485.102.883.254 1.196.457.312.196.586.45.82.762.242.305.418.688.527 1.149.11.453.164.984.164 1.593 0 1.149-.238 2.028-.714 2.637-.469.602-1.2 1.016-2.192 1.242.321.727.778 1.63 1.371 2.707a79.979 79.979 0 001.559 2.672l.656 1.067zM143.152 5.219c0-.407-.035-.766-.105-1.078a2.875 2.875 0 00-.27-.797 1.434 1.434 0 00-.492-.551 3.091 3.091 0 00-.644-.352c-.211-.093-.496-.164-.856-.21a9.724 9.724 0 00-1.019-.083 25.912 25.912 0 00-1.219-.023h-1.395v6.117h1.02c.68 0 1.246-.012 1.699-.035a10.33 10.33 0 001.277-.164c.399-.086.715-.195.95-.328.234-.14.433-.324.597-.55.172-.228.289-.497.352-.81.07-.312.105-.69.105-1.136zm2.18 10.3l-1.23.774c-1.618-2.672-2.868-5.008-3.75-7.008-.563.047-1.2.07-1.911.07h-1.289V16h-1.5V.953h2.965c.719 0 1.332.02 1.84.059.508.039 1.004.113 1.488.222.485.102.883.254 1.196.457.312.196.586.45.82.762.242.305.418.688.527 1.149.11.453.164.984.164 1.593 0 1.149-.238 2.028-.714 2.637-.469.602-1.2 1.016-2.192 1.242.32.727.777 1.63 1.371 2.707a79.979 79.979 0 001.559 2.672l.656 1.067zM149.504 8.664v6.164h6.387l.187 1.172h-8.074V.953h8.027l-.258 1.172h-6.269v5.414h5.871v1.125zM166.074 11.078l-2.566-8.836-2.66 8.836h5.226zm1.5 4.922l-1.136-3.844h-5.942L159.324 16h-1.629L162.383.953h2.238L169.098 16h-1.524zM174.816 16h-3.328V.953h3.2c.89 0 1.667.059 2.332.176.664.117 1.238.312 1.722.586.492.273.895.601 1.207.984.321.383.574.871.762 1.465.195.586.332 1.227.41 1.922.078.695.117 1.516.117 2.46 0 .727-.023 1.368-.07 1.923a11.543 11.543 0 01-.234 1.64c-.118.54-.278 1-.481 1.383a4.873 4.873 0 01-.785 1.078c-.32.328-.707.594-1.16.797a7.458 7.458 0 01-1.594.469c-.617.11-1.316.164-2.098.164zm-.128-13.875h-1.7v12.703h1.828c.5 0 .95-.023 1.348-.07.406-.055.77-.125 1.09-.211a3.01 3.01 0 00.844-.387c.242-.164.449-.336.621-.515.179-.188.328-.422.445-.704.125-.28.223-.558.293-.832.078-.28.137-.62.176-1.02.039-.405.066-.796.082-1.171.015-.383.023-.84.023-1.371 0-.828-.023-1.524-.07-2.086a9.434 9.434 0 00-.27-1.617c-.125-.516-.304-.93-.539-1.242a3.037 3.037 0 00-.914-.832c-.375-.235-.828-.399-1.359-.493-.531-.101-1.164-.152-1.898-.152zM187.695 2.125v12.703h2.203V16h-5.976v-1.172h2.273V2.125h-2.273V.953h5.93v1.172zM202.062.953h1.36V16h-1.477l-7.582-12.668V16h-1.429V.953h1.593l7.535 12.48zM216.477 14.922a17.85 17.85 0 01-.727.375c-.188.086-.484.207-.891.363a6.95 6.95 0 01-1.324.34c-.476.078-.98.117-1.512.117-2.023 0-3.457-.61-4.3-1.828-.836-1.226-1.254-3.195-1.254-5.906 0-2.695.476-4.64 1.429-5.836.954-1.195 2.387-1.793 4.301-1.793 1.383 0 2.672.293 3.867.879v2.836h-1.277V2.44c-.672-.296-1.492-.445-2.461-.445-.562 0-1.055.05-1.476.152a3.48 3.48 0 00-1.196.563c-.383.273-.695.64-.937 1.102-.235.46-.426 1.066-.574 1.816-.141.75-.211 1.633-.211 2.648 0 2.375.304 4.07.914 5.086.609 1.008 1.691 1.512 3.246 1.512 1.218 0 2.226-.191 3.023-.574V9.355h-2.765V8.207h4.125v6.715z"/></g></svg>