<svg width="218" height="225" fill="none" xmlns="http://www.w3.org/2000/svg"><path d="M204.9 204.3c0 4.56-1.02 7.89-3.06 9.99-2.1 2.04-5.73 3.06-10.89 3.06h-30.06v6.84h-3.6c0-1.08-.21-2.25-.63-3.51a9.513 9.513 0 0 0-2.25-3.51c-1.08-1.02-2.4-1.86-3.96-2.52-1.56-.66-3.48-1.2-5.76-1.62v-4.14h11.07V197.1h5.13v11.79h30.33c3.06 0 5.31-.6 6.75-1.8 1.44-1.26 2.16-2.94 2.16-5.04 0-1.08-.06-2.07-.18-2.97-.12-.9-.27-1.83-.45-2.79h3.96c.36.78.69 1.95.99 3.51.3 1.56.45 3.06.45 4.5zM204 193.09h-3.78v-1.17c0-2.04-.36-3.78-1.08-5.22-.78-1.44-2.58-2.16-5.4-2.16H145.5c-2.64 0-4.32.75-5.04 2.25-.72 1.44-1.08 3.15-1.08 5.13v1.17h-3.78v-17.01h58.14c2.82 0 4.62-.72 5.4-2.16.72-1.44 1.08-3.18 1.08-5.22v-1.17H204v25.56zM167.55 153.438c0 1.56-.45 2.91-1.35 4.05-.9 1.08-2.49 1.62-4.77 1.62-2.34 0-3.93-.54-4.77-1.62-.9-1.14-1.35-2.49-1.35-4.05 0-1.56.45-2.88 1.35-3.96.84-1.14 2.43-1.71 4.77-1.71 2.28 0 3.87.57 4.77 1.71.9 1.08 1.35 2.4 1.35 3.96zm50.31 8.64h-3.78c-1.86-5.7-4.56-8.55-8.1-8.55-.9 0-1.59.33-2.07.99-.48.66-.93 1.44-1.35 2.34a7.72 7.72 0 0 1-1.71 2.25c-.72.66-1.77.99-3.15.99-1.68 0-2.97-.54-3.87-1.62-.96-1.14-1.44-2.55-1.44-4.23 0-1.86.69-3.48 2.07-4.86 1.32-1.38 3.24-2.07 5.76-2.07 3.84 0 7.35 1.14 10.53 3.42 3.18 2.22 5.55 6 7.11 11.34zM204.9 117.336c0 5.94-1.98 10.5-5.94 13.68-4.02 3.12-10.35 4.68-18.99 4.68-8.7 0-15.06-1.56-19.08-4.68-4.02-3.18-6.03-7.74-6.03-13.68 0-3.48.75-6.3 2.25-8.46 1.44-2.22 3.33-3.99 5.67-5.31v-.54c-1.5.18-3.15.33-4.95.45-1.86.06-3.51.09-4.95.09h-7.38c-2.64 0-4.32.75-5.04 2.25-.72 1.44-1.08 3.15-1.08 5.13v.72h-3.78v-16.56h58.5c2.64 0 4.32-.72 5.04-2.16.72-1.5 1.08-3.24 1.08-5.22v-.72H204v15.21l-8.1.99v.36c2.76 1.32 4.95 3.06 6.57 5.22 1.62 2.16 2.43 5.01 2.43 8.55zm-5.76-1.53c0-4.68-1.56-7.89-4.68-9.63-3.18-1.74-8.01-2.61-14.49-2.61-6.24 0-11.01.87-14.31 2.61-3.36 1.74-5.04 4.98-5.04 9.72 0 3.96 1.68 6.81 5.04 8.55 3.3 1.68 8.1 2.52 14.4 2.52 6.36 0 11.13-.84 14.31-2.52 3.18-1.74 4.77-4.62 4.77-8.64zM204 82.393h-3.78v-.27c0-2.04-.36-3.78-1.08-5.22-.78-1.44-2.58-2.16-5.4-2.16h-28.08c-2.64 0-4.32.75-5.04 2.25-.72 1.44-1.08 3.15-1.08 5.13v.27h-3.78v-13.86l8.91-1.71v-.45c-1.8-.78-3.42-1.62-4.86-2.52-1.5-.9-2.7-2.1-3.6-3.6-.9-1.5-1.35-3.57-1.35-6.21 0-3.3.57-5.73 1.71-7.29 1.14-1.62 2.76-2.43 4.86-2.43 1.86 0 3.39.66 4.59 1.98 1.2 1.26 1.8 3.39 1.8 6.39-2.46 0-4.23.36-5.31 1.08-1.14.72-1.71 1.95-1.71 3.69 0 1.68.66 3.09 1.98 4.23 1.32 1.14 3 2.04 5.04 2.7 2.04.66 4.17 1.14 6.39 1.44 2.16.3 4.11.45 5.85.45h14.13c2.64 0 4.32-.72 5.04-2.16.66-1.5.99-3.24.99-5.22v-2.52H204v26.01z" fill="#383838"/><path d="M77.7 16.12c-1.76 0-3.192-.304-4.296-.912l.336-1.224c.64.272 1.248.488 1.824.648.592.16 1.304.24 2.136.24 1.008 0 1.792-.248 2.352-.744.576-.496.864-1.256.864-2.28 0-.592-.104-1.056-.312-1.392a2.25 2.25 0 0 0-.888-.84c-.384-.208-.944-.432-1.68-.672l-1.44-.48c-1.056-.368-1.856-.84-2.4-1.416-.528-.592-.792-1.392-.792-2.4 0-1.344.424-2.328 1.272-2.952.848-.624 1.96-.936 3.336-.936 1.536 0 2.88.24 4.032.72l-.264 1.2a10.816 10.816 0 0 0-1.704-.48 8.417 8.417 0 0 0-1.872-.192c-2.192 0-3.288.864-3.288 2.592 0 .656.144 1.16.432 1.512.288.336.864.656 1.728.96l1.32.48c.992.352 1.72.648 2.184.888.48.24.904.632 1.272 1.176.368.544.552 1.296.552 2.256 0 1.36-.424 2.408-1.272 3.144-.848.736-1.992 1.104-3.432 1.104zM85.018 16V.952h1.488v6.816h6.792V.952h1.512V16h-1.512V8.944h-6.792V16h-1.488zM103.155 16.12c-1.376 0-2.448-.296-3.216-.888-.752-.592-1.28-1.44-1.584-2.544-.288-1.12-.432-2.544-.432-4.272 0-1.712.152-3.12.456-4.224.32-1.12.864-1.968 1.632-2.544.768-.592 1.816-.888 3.144-.888s2.376.296 3.144.888c.768.576 1.312 1.424 1.632 2.544.32 1.104.48 2.512.48 4.224 0 1.744-.152 3.168-.456 4.272-.288 1.104-.816 1.952-1.584 2.544-.768.592-1.84.888-3.216.888zm0-1.248c.976 0 1.736-.224 2.28-.672.544-.448.928-1.128 1.152-2.04.224-.928.336-2.168.336-3.72s-.12-2.792-.36-3.72c-.224-.928-.608-1.608-1.152-2.04-.544-.448-1.296-.672-2.256-.672-.96 0-1.712.224-2.256.672-.528.432-.912 1.112-1.152 2.04-.224.928-.336 2.168-.336 3.72s.112 2.792.336 3.72c.224.912.608 1.592 1.152 2.04.544.448 1.296.672 2.256.672zM119.974 16.288a71.083 71.083 0 0 1-2.016-3.504c-.72-1.328-1.296-2.496-1.728-3.504-.576.048-1.216.072-1.92.072h-1.296V16h-1.488V.952h2.952c1.472 0 2.624.104 3.456.312.848.208 1.488.616 1.92 1.224.448.608.672 1.512.672 2.712 0 1.136-.24 2.008-.72 2.616-.464.608-1.192 1.024-2.184 1.248l3.576 6.432-1.224.792zm-5.928-8.04c1.344 0 2.36-.072 3.048-.216.688-.144 1.176-.424 1.464-.84.304-.432.456-1.088.456-1.968 0-.928-.168-1.608-.504-2.04-.32-.448-.792-.736-1.416-.864-.624-.128-1.52-.192-2.688-.192h-1.392v6.12h1.032zM126.542 16V2.128h-4.032V.952h9.624v1.176h-4.08V16h-1.512zM141.054 16L145.758.952h2.232L152.454 16h-1.512l-1.128-3.84h-5.952L142.686 16h-1.632zm3.168-4.92h5.208l-2.544-8.832-2.664 8.832zM154.861 16V.952h1.584l7.536 12.48V.952h1.369V16h-1.489l-7.584-12.672V16h-1.416zM172.622 16.12c-1.76 0-3.192-.304-4.296-.912l.336-1.224c.64.272 1.248.488 1.824.648.592.16 1.304.24 2.136.24 1.008 0 1.792-.248 2.352-.744.576-.496.864-1.256.864-2.28 0-.592-.104-1.056-.312-1.392a2.25 2.25 0 0 0-.888-.84c-.384-.208-.944-.432-1.68-.672l-1.44-.48c-1.056-.368-1.856-.84-2.4-1.416-.528-.592-.792-1.392-.792-2.4 0-1.344.424-2.328 1.272-2.952.848-.624 1.96-.936 3.336-.936 1.536 0 2.88.24 4.032.72l-.264 1.2a10.816 10.816 0 0 0-1.704-.48 8.417 8.417 0 0 0-1.872-.192c-2.192 0-3.288.864-3.288 2.592 0 .656.144 1.16.432 1.512.288.336.864.656 1.728.96l1.32.48c.992.352 1.72.648 2.184.888.48.24.904.632 1.272 1.176.368.544.552 1.296.552 2.256 0 1.36-.424 2.408-1.272 3.144-.848.736-1.992 1.104-3.432 1.104zM181.548 16L180.036.952h1.368l1.344 12.888 2.736-7.752h1.344l2.856 7.776L190.932.952h1.368L190.908 16h-1.68l-3.048-8.232-3 8.232h-1.632zM195.619 16V.952h8.016l-.264 1.176h-6.264v5.4h5.88v1.128h-5.88v6.168h6.384l.192 1.176h-8.064zM214.872 16.288a71.083 71.083 0 0 1-2.016-3.504c-.72-1.328-1.296-2.496-1.728-3.504-.576.048-1.216.072-1.92.072h-1.296V16h-1.488V.952h2.952c1.472 0 2.624.104 3.456.312.848.208 1.488.616 1.92 1.224.448.608.672 1.512.672 2.712 0 1.136-.24 2.008-.72 2.616-.464.608-1.192 1.024-2.184 1.248l3.576 6.432-1.224.792zm-5.928-8.04c1.344 0 2.36-.072 3.048-.216.688-.144 1.176-.424 1.464-.84.304-.432.456-1.088.456-1.968 0-.928-.168-1.608-.504-2.04-.32-.448-.792-.736-1.416-.864-.624-.128-1.52-.192-2.688-.192h-1.392v6.12h1.032z" fill="#2F7851"/><path stroke="#2F7851" d="M60 6.5H0"/></svg>