<svg width="530" height="480" xmlns="http://www.w3.org/2000/svg" xmlns:xlink="http://www.w3.org/1999/xlink"><defs><linearGradient x1="50%" y1="0%" x2="50%" y2="100%" id="c"><stop stop-color="#FDFDFD" offset="0%"/><stop stop-color="#F1F1F1" offset="100%"/></linearGradient><rect id="b" width="200" height="200" rx="20"/><filter x="-3.5%" y="-2.5%" width="107%" height="109%" filterUnits="objectBoundingBox" id="a"><feMorphology radius="2" operator="dilate" in="SourceAlpha" result="shadowSpreadOuter1"/><feOffset dy="6" in="shadowSpreadOuter1" result="shadowOffsetOuter1"/><feComposite in="shadowOffsetOuter1" in2="SourceAlpha" operator="out" result="shadowOffsetOuter1"/><feColorMatrix values="0 0 0 0 0.5 0 0 0 0 0.5 0 0 0 0 0.5 0 0 0 1 0" in="shadowOffsetOuter1"/></filter><linearGradient x1="50%" y1="0%" x2="50%" y2="100%" id="f"><stop stop-color="#CC6CE8" offset="0%"/><stop stop-color="#B312DF" offset="100%"/></linearGradient><path d="M105.14 118.232L90.133 103.4l.177-.177c10.282-11.464 17.61-24.641 21.923-38.587h17.313V52.818H88.182V41H76.364v11.818H35v11.76h66.005A92.848 92.848 0 0 1 82.273 96.25a92.449 92.449 0 0 1-13.65-19.795H56.805c4.313 9.631 10.222 18.731 17.609 26.945l-30.078 29.664 8.391 8.39 29.546-29.545 18.377 18.377 4.49-12.054zm33.27-29.96h-11.82L100 159.183h11.818l6.618-17.727h28.069l6.677 17.727H165l-26.59-70.91zm-15.483 41.364l9.573-25.586 9.573 25.586h-19.146z" id="e"/><filter x="-.4%" y="-1.3%" width="100.8%" height="101.7%" filterUnits="objectBoundingBox" id="d"><feOffset dy="-1" in="SourceAlpha" result="shadowOffsetOuter1"/><feColorMatrix values="0 0 0 0 0.705882353 0 0 0 0 0.705882353 0 0 0 0 0.705882353 0 0 0 1 0" in="shadowOffsetOuter1"/></filter><filter x="-.4%" y="-1.3%" width="100.8%" height="101.7%" filterUnits="objectBoundingBox" id="g"><feOffset dy="1" in="SourceAlpha" result="shadowOffsetInner1"/><feComposite in="shadowOffsetInner1" in2="SourceAlpha" operator="arithmetic" k2="-1" k3="1" result="shadowInnerInner1"/><feColorMatrix values="0 0 0 0 0.466666667 0 0 0 0 0.176470588 0 0 0 0 0.545098039 0 0 0 1 0" in="shadowInnerInner1"/></filter></defs><g fill="none" fill-rule="evenodd"><path d="M10 12h350v350H10V12z" stroke="#B313DF" stroke-width="3" fill-opacity=".07" fill="#C85EE6" fill-rule="nonzero" stroke-dasharray="8,12"/><g fill-rule="nonzero" transform="translate(85 56)"><use fill="#000" filter="url(#a)" xlink:href="#b"/><use stroke="#B9B9B9" stroke-width="2" fill="url(#c)" xlink:href="#b"/></g><g fill-rule="nonzero" transform="translate(85 56)"><use fill="#000" filter="url(#d)" xlink:href="#e"/><use fill="url(#f)" xlink:href="#e"/><use fill="#000" filter="url(#g)" xlink:href="#e"/></g><path d="M107.404 294.296h20.808v3.888h-8.172V320h-4.5v-21.816h-8.136v-3.888zm20.658 7.092h3.852v3.6h.072c.12-.504.354-.996.702-1.476s.768-.918 1.26-1.314a6.367 6.367 0 0 1 1.638-.954c.6-.24 1.212-.36 1.836-.36.48 0 .81.012.99.036l.558.072v3.96a19.49 19.49 0 0 0-.882-.126 7.4 7.4 0 0 0-.882-.054c-.696 0-1.35.138-1.962.414a4.506 4.506 0 0 0-1.602 1.224c-.456.54-.816 1.206-1.08 1.998-.264.792-.396 1.704-.396 2.736V320h-4.104v-18.612zm29.01 14.472c0 .504.066.864.198 1.08.132.216.39.324.774.324h.432c.168 0 .36-.024.576-.072v2.844a12.024 12.024 0 0 1-1.26.324 7.449 7.449 0 0 1-1.332.144c-.84 0-1.536-.168-2.088-.504-.552-.336-.912-.924-1.08-1.764-.816.792-1.818 1.368-3.006 1.728-1.188.36-2.334.54-3.438.54a8.43 8.43 0 0 1-2.412-.342 6.33 6.33 0 0 1-2.034-1.008 4.83 4.83 0 0 1-1.404-1.692c-.348-.684-.522-1.482-.522-2.394 0-1.152.21-2.088.63-2.808.42-.72.972-1.284 1.656-1.692a7.479 7.479 0 0 1 2.304-.882 26.72 26.72 0 0 1 2.574-.414 21.06 21.06 0 0 1 2.124-.306 9.967 9.967 0 0 0 1.782-.306c.516-.144.924-.366 1.224-.666.3-.3.45-.75.45-1.35 0-.528-.126-.96-.378-1.296a2.537 2.537 0 0 0-.936-.774c-.372-.18-.786-.3-1.242-.36a9.953 9.953 0 0 0-1.296-.09c-1.152 0-2.1.24-2.844.72-.744.48-1.164 1.224-1.26 2.232h-4.104c.072-1.2.36-2.196.864-2.988a5.969 5.969 0 0 1 1.926-1.908 7.88 7.88 0 0 1 2.646-1.008 15.754 15.754 0 0 1 3.024-.288c.912 0 1.812.096 2.7.288a7.67 7.67 0 0 1 2.394.936c.708.432 1.278.99 1.71 1.674.432.684.648 1.518.648 2.502v9.576zm-4.104-5.184c-.624.408-1.392.654-2.304.738-.912.084-1.824.21-2.736.378a8.772 8.772 0 0 0-1.26.306 3.795 3.795 0 0 0-1.08.54 2.37 2.37 0 0 0-.738.9c-.18.372-.27.822-.27 1.35 0 .456.132.84.396 1.152.264.312.582.558.954.738.372.18.78.306 1.224.378.444.072.846.108 1.206.108.456 0 .948-.06 1.476-.18a4.909 4.909 0 0 0 1.494-.612 3.933 3.933 0 0 0 1.17-1.098c.312-.444.468-.99.468-1.638v-3.06zm9.282-9.288h3.888v2.736l.072.072a6.881 6.881 0 0 1 2.448-2.43c1.008-.588 2.124-.882 3.348-.882 2.04 0 3.648.528 4.824 1.584 1.176 1.056 1.764 2.64 1.764 4.752V320h-4.104v-11.7c-.048-1.464-.36-2.526-.936-3.186-.576-.66-1.476-.99-2.7-.99-.696 0-1.32.126-1.872.378a4.06 4.06 0 0 0-1.404 1.044 4.908 4.908 0 0 0-.9 1.566 5.59 5.59 0 0 0-.324 1.908V320h-4.104v-18.612zm24.51 12.636c.12 1.2.576 2.04 1.368 2.52.792.48 1.74.72 2.844.72.384 0 .822-.03 1.314-.09.492-.06.954-.174 1.386-.342a2.607 2.607 0 0 0 1.062-.738c.276-.324.402-.75.378-1.278-.024-.528-.216-.96-.576-1.296-.36-.336-.822-.606-1.386-.81a13.43 13.43 0 0 0-1.926-.522c-.72-.144-1.452-.3-2.196-.468a20.611 20.611 0 0 1-2.214-.612 7.145 7.145 0 0 1-1.908-.972 4.491 4.491 0 0 1-1.35-1.566c-.336-.636-.504-1.422-.504-2.358 0-1.008.246-1.854.738-2.538a5.657 5.657 0 0 1 1.872-1.656 8.151 8.151 0 0 1 2.52-.882 14.803 14.803 0 0 1 2.646-.252c.96 0 1.878.102 2.754.306a7.484 7.484 0 0 1 2.376.99 5.814 5.814 0 0 1 1.764 1.782c.468.732.762 1.614.882 2.646h-4.284c-.192-.984-.642-1.644-1.35-1.98-.708-.336-1.518-.504-2.43-.504-.288 0-.63.024-1.026.072a4.745 4.745 0 0 0-1.116.27 2.348 2.348 0 0 0-.882.576c-.24.252-.36.582-.36.99 0 .504.174.912.522 1.224.348.312.804.57 1.368.774a13.43 13.43 0 0 0 1.926.522c.72.144 1.464.3 2.232.468.744.168 1.476.372 2.196.612.72.24 1.362.564 1.926.972.564.408 1.02.924 1.368 1.548.348.624.522 1.392.522 2.304 0 1.104-.252 2.04-.756 2.808a5.978 5.978 0 0 1-1.962 1.872 8.924 8.924 0 0 1-2.682 1.044 13.57 13.57 0 0 1-2.916.324c-1.176 0-2.262-.132-3.258-.396s-1.86-.666-2.592-1.206a5.827 5.827 0 0 1-1.728-2.016c-.42-.804-.642-1.758-.666-2.862h4.104zm16.446-19.728h4.104V320h-4.104v-25.704zm24.906 21.564c0 .504.066.864.198 1.08.132.216.39.324.774.324h.432c.168 0 .36-.024.576-.072v2.844a12.024 12.024 0 0 1-1.26.324 7.449 7.449 0 0 1-1.332.144c-.84 0-1.536-.168-2.088-.504-.552-.336-.912-.924-1.08-1.764-.816.792-1.818 1.368-3.006 1.728-1.188.36-2.334.54-3.438.54a8.43 8.43 0 0 1-2.412-.342 6.33 6.33 0 0 1-2.034-1.008 4.83 4.83 0 0 1-1.404-1.692c-.348-.684-.522-1.482-.522-2.394 0-1.152.21-2.088.63-2.808.42-.72.972-1.284 1.656-1.692a7.479 7.479 0 0 1 2.304-.882 26.72 26.72 0 0 1 2.574-.414 21.06 21.06 0 0 1 2.124-.306 9.967 9.967 0 0 0 1.782-.306c.516-.144.924-.366 1.224-.666.3-.3.45-.75.45-1.35 0-.528-.126-.96-.378-1.296a2.537 2.537 0 0 0-.936-.774c-.372-.18-.786-.3-1.242-.36a9.953 9.953 0 0 0-1.296-.09c-1.152 0-2.1.24-2.844.72-.744.48-1.164 1.224-1.26 2.232H212.2c.072-1.2.36-2.196.864-2.988a5.969 5.969 0 0 1 1.926-1.908 7.88 7.88 0 0 1 2.646-1.008 15.754 15.754 0 0 1 3.024-.288c.912 0 1.812.096 2.7.288a7.67 7.67 0 0 1 2.394.936c.708.432 1.278.99 1.71 1.674.432.684.648 1.518.648 2.502v9.576zm-4.104-5.184c-.624.408-1.392.654-2.304.738-.912.084-1.824.21-2.736.378a8.772 8.772 0 0 0-1.26.306 3.795 3.795 0 0 0-1.08.54 2.37 2.37 0 0 0-.738.9c-.18.372-.27.822-.27 1.35 0 .456.132.84.396 1.152.264.312.582.558.954.738.372.18.78.306 1.224.378.444.072.846.108 1.206.108.456 0 .948-.06 1.476-.18a4.909 4.909 0 0 0 1.494-.612 3.933 3.933 0 0 0 1.17-1.098c.312-.444.468-.99.468-1.638v-3.06zm7.41-9.288h3.096v-5.58h4.104v5.58h3.708v3.06h-3.708v9.936c0 .432.018.804.054 1.116.036.312.12.576.252.792.132.216.33.378.594.486.264.108.624.162 1.08.162.288 0 .576-.006.864-.018.288-.012.576-.054.864-.126v3.168c-.456.048-.9.096-1.332.144-.432.048-.876.072-1.332.072-1.08 0-1.95-.102-2.61-.306-.66-.204-1.176-.504-1.548-.9-.372-.396-.624-.894-.756-1.494s-.21-1.284-.234-2.052v-10.98h-3.096v-3.06zm27.39 7.668a6.618 6.618 0 0 0-.414-1.872 4.988 4.988 0 0 0-.936-1.566 4.635 4.635 0 0 0-1.44-1.08c-.564-.276-1.194-.414-1.89-.414-.72 0-1.374.126-1.962.378-.588.252-1.092.6-1.512 1.044-.42.444-.756.966-1.008 1.566-.252.6-.39 1.248-.414 1.944h9.576zm-9.576 2.7c0 .72.102 1.416.306 2.088.204.672.51 1.26.918 1.764.408.504.924.906 1.548 1.206.624.3 1.368.45 2.232.45 1.2 0 2.166-.258 2.898-.774.732-.516 1.278-1.29 1.638-2.322h3.888a7.738 7.738 0 0 1-1.116 2.7 7.765 7.765 0 0 1-1.908 1.998 8.235 8.235 0 0 1-2.502 1.224c-.924.276-1.89.414-2.898.414-1.464 0-2.76-.24-3.888-.72a8.037 8.037 0 0 1-2.862-2.016c-.78-.864-1.368-1.896-1.764-3.096-.396-1.2-.594-2.52-.594-3.96 0-1.32.21-2.574.63-3.762a9.63 9.63 0 0 1 1.8-3.132 8.608 8.608 0 0 1 2.826-2.142c1.104-.528 2.352-.792 3.744-.792 1.464 0 2.778.306 3.942.918a8.65 8.65 0 0 1 2.898 2.43c.768 1.008 1.326 2.166 1.674 3.474.348 1.308.438 2.658.27 4.05h-13.68z" fill="#432A1E"/><path d="M432.618 150.53h3.672c.54 0 .99-.153 1.35-.459.36-.306.54-.747.54-1.323 0-.648-.162-1.104-.486-1.368-.324-.264-.792-.396-1.404-.396h-3.672v3.546zm-2.25-5.382h6.246c1.152 0 2.076.264 2.772.792.696.528 1.044 1.326 1.044 2.394 0 .648-.159 1.203-.477 1.665-.318.462-.771.819-1.359 1.071v.036c.792.168 1.392.543 1.8 1.125.408.582.612 1.311.612 2.187 0 .504-.09.975-.27 1.413a2.88 2.88 0 0 1-.846 1.134c-.384.318-.876.57-1.476.756-.6.186-1.314.279-2.142.279h-5.904v-12.852zm2.25 11.016h3.978c.684 0 1.215-.177 1.593-.531.378-.354.567-.855.567-1.503 0-.636-.189-1.125-.567-1.467-.378-.342-.909-.513-1.593-.513h-3.978v4.014zM451.174 158h-2.016v-1.296h-.036a2.818 2.818 0 0 1-1.125 1.125 3.054 3.054 0 0 1-1.521.423c-1.224 0-2.109-.303-2.655-.909-.546-.606-.819-1.521-.819-2.745v-5.904h2.052v5.706c0 .816.156 1.392.468 1.728.312.336.75.504 1.314.504.432 0 .792-.066 1.08-.198a1.91 1.91 0 0 0 .702-.531c.18-.222.309-.489.387-.801.078-.312.117-.648.117-1.008v-5.4h2.052V158zm1.474-9.306h1.548v-2.79h2.052v2.79h1.854v1.53h-1.854v4.968c0 .216.009.402.027.558.018.156.06.288.126.396a.602.602 0 0 0 .297.243c.132.054.312.081.54.081.144 0 .288-.003.432-.009.144-.006.288-.027.432-.063v1.584l-.666.072a6.028 6.028 0 0 1-.666.036c-.54 0-.975-.051-1.305-.153-.33-.102-.588-.252-.774-.45a1.553 1.553 0 0 1-.378-.747 5.621 5.621 0 0 1-.117-1.026v-5.49h-1.548v-1.53zm6.244 0h1.548v-2.79h2.052v2.79h1.854v1.53h-1.854v4.968c0 .216.009.402.027.558.018.156.06.288.126.396a.602.602 0 0 0 .297.243c.132.054.312.081.54.081.144 0 .288-.003.432-.009.144-.006.288-.027.432-.063v1.584l-.666.072a6.028 6.028 0 0 1-.666.036c-.54 0-.975-.051-1.305-.153-.33-.102-.588-.252-.774-.45a1.553 1.553 0 0 1-.378-.747 5.621 5.621 0 0 1-.117-1.026v-5.49h-1.548v-1.53zm11.446 9.558c-.744 0-1.407-.123-1.989-.369a4.242 4.242 0 0 1-1.476-1.017 4.35 4.35 0 0 1-.918-1.548c-.21-.6-.315-1.26-.315-1.98 0-.708.105-1.362.315-1.962.21-.6.516-1.116.918-1.548a4.242 4.242 0 0 1 1.476-1.017c.582-.246 1.245-.369 1.989-.369s1.407.123 1.989.369a4.242 4.242 0 0 1 1.476 1.017c.402.432.708.948.918 1.548.21.6.315 1.254.315 1.962 0 .72-.105 1.38-.315 1.98a4.35 4.35 0 0 1-.918 1.548 4.242 4.242 0 0 1-1.476 1.017c-.582.246-1.245.369-1.989.369zm0-1.62c.456 0 .852-.096 1.188-.288.336-.192.612-.444.828-.756a3.3 3.3 0 0 0 .477-1.053 4.711 4.711 0 0 0 0-2.385 3.184 3.184 0 0 0-.477-1.053 2.543 2.543 0 0 0-.828-.747c-.336-.192-.732-.288-1.188-.288-.456 0-.852.096-1.188.288a2.543 2.543 0 0 0-.828.747 3.184 3.184 0 0 0-.477 1.053 4.746 4.746 0 0 0 0 2.385 3.3 3.3 0 0 0 .477 1.053c.216.312.492.564.828.756.336.192.732.288 1.188.288zm6.658-7.938h1.944v1.368l.036.036a3.44 3.44 0 0 1 1.224-1.215 3.262 3.262 0 0 1 1.674-.441c1.02 0 1.824.264 2.412.792.588.528.882 1.32.882 2.376V158h-2.052v-5.85c-.024-.732-.18-1.263-.468-1.593-.288-.33-.738-.495-1.35-.495-.348 0-.66.063-.936.189s-.51.3-.702.522a2.454 2.454 0 0 0-.45.783c-.108.3-.162.618-.162.954V158h-2.052v-9.306zm-44.944 20.636c.047.01.089.014.126.014h.392c.252 0 .492-.035.721-.105.229-.07.43-.173.602-.308a1.48 1.48 0 0 0 .413-.511c.103-.205.154-.439.154-.7 0-.532-.168-.931-.504-1.197-.336-.266-.756-.399-1.26-.399-.317 0-.595.058-.833.175a1.67 1.67 0 0 0-.588.469 1.975 1.975 0 0 0-.343.686 2.993 2.993 0 0 0-.112.826h-1.19c.019-.476.096-.91.231-1.302s.329-.728.581-1.008c.252-.28.567-.5.945-.658.378-.159.814-.238 1.309-.238.43 0 .828.054 1.197.161.369.107.688.268.959.483.27.215.483.49.637.826.154.336.231.733.231 1.19 0 .448-.13.845-.392 1.19a2.507 2.507 0 0 1-.98.784v.028c.607.13 1.057.415 1.351.854.294.439.441.957.441 1.554 0 .495-.091.931-.273 1.309a2.735 2.735 0 0 1-.735.945c-.308.252-.67.441-1.085.567a4.534 4.534 0 0 1-1.323.189c-.504 0-.961-.07-1.372-.21-.41-.14-.76-.348-1.05-.623a2.726 2.726 0 0 1-.665-1.015 3.623 3.623 0 0 1-.217-1.372h1.19c.019.644.205 1.169.56 1.575.355.406.873.609 1.554.609.29 0 .565-.044.826-.133.261-.089.49-.215.686-.378a1.81 1.81 0 0 0 .469-.602c.117-.238.175-.506.175-.805a1.816 1.816 0 0 0-.616-1.421 1.805 1.805 0 0 0-.665-.364 2.808 2.808 0 0 0-.833-.119c-.252 0-.49.014-.714.042v-1.008zm5.598-.742c-.028-.504.023-.97.154-1.4.13-.43.334-.8.609-1.113a2.858 2.858 0 0 1 1.029-.735 3.5 3.5 0 0 1 1.4-.266c.43 0 .833.063 1.211.189.378.126.707.308.987.546.28.238.502.534.665.889.163.355.245.765.245 1.232 0 .439-.068.826-.203 1.162a3.312 3.312 0 0 1-.539.903c-.224.266-.48.506-.77.721-.29.215-.588.42-.896.616-.308.187-.616.371-.924.553a7.29 7.29 0 0 0-.847.581 3.848 3.848 0 0 0-.658.665 1.881 1.881 0 0 0-.357.819h5.096V175h-6.482c.047-.588.152-1.09.315-1.505.163-.415.371-.777.623-1.085.252-.308.537-.579.854-.812.317-.233.649-.453.994-.658.42-.261.789-.502 1.106-.721.317-.22.581-.441.791-.665a2.39 2.39 0 0 0 .476-.728c.107-.261.161-.565.161-.91 0-.27-.051-.516-.154-.735a1.78 1.78 0 0 0-1.022-.931 2.174 2.174 0 0 0-.742-.126c-.345 0-.642.072-.889.217-.247.145-.45.334-.609.567a2.368 2.368 0 0 0-.343.791c-.07.294-.1.59-.091.889h-1.19zm19.68-.574c-.15-.71-.478-1.241-.987-1.596s-1.113-.532-1.813-.532c-.597 0-1.108.112-1.533.336a3.026 3.026 0 0 0-1.05.903c-.275.378-.478.81-.609 1.295a5.79 5.79 0 0 0-.196 1.512c0 .57.065 1.108.196 1.617.13.509.334.952.609 1.33.275.378.628.679 1.057.903.43.224.943.336 1.54.336.439 0 .828-.072 1.169-.217.34-.145.635-.345.882-.602a2.77 2.77 0 0 0 .581-.917c.14-.355.224-.737.252-1.148h1.33c-.13 1.26-.565 2.24-1.302 2.94-.737.7-1.745 1.05-3.024 1.05-.775 0-1.451-.133-2.03-.399a3.987 3.987 0 0 1-1.442-1.099 4.721 4.721 0 0 1-.861-1.652 7.048 7.048 0 0 1-.287-2.044c0-.728.103-1.412.308-2.051.205-.64.506-1.197.903-1.673a4.21 4.21 0 0 1 1.484-1.127c.593-.275 1.272-.413 2.037-.413.523 0 1.017.07 1.484.21.467.14.882.345 1.246.616.364.27.667.609.91 1.015.243.406.401.875.476 1.407h-1.33zm9.112-.084c-.075-.719-.334-1.239-.777-1.561-.443-.322-1.01-.483-1.701-.483-.28 0-.555.028-.826.084-.27.056-.511.15-.721.28a1.47 1.47 0 0 0-.504.525c-.126.22-.189.492-.189.819 0 .308.091.558.273.749.182.191.425.348.728.469s.646.222 1.029.301c.383.08.772.166 1.169.259s.786.203 1.169.329.726.296 1.029.511c.303.215.546.485.728.812.182.327.273.737.273 1.232 0 .532-.119.987-.357 1.365a2.938 2.938 0 0 1-.917.924 3.99 3.99 0 0 1-1.253.518 6.077 6.077 0 0 1-2.968-.049c-.5-.14-.938-.352-1.316-.637a3.02 3.02 0 0 1-.896-1.092c-.22-.443-.329-.968-.329-1.575h1.26c0 .42.082.782.245 1.085.163.303.378.553.644.749.266.196.576.34.931.434.355.093.719.14 1.092.14.299 0 .6-.028.903-.084a2.66 2.66 0 0 0 .819-.287 1.63 1.63 0 0 0 .588-.553c.15-.233.224-.532.224-.896 0-.345-.091-.625-.273-.84a2.006 2.006 0 0 0-.728-.525 5.33 5.33 0 0 0-1.029-.329c-.383-.084-.772-.17-1.169-.259a15.903 15.903 0 0 1-1.169-.308 4.23 4.23 0 0 1-1.029-.462 2.213 2.213 0 0 1-.728-.742c-.182-.303-.273-.684-.273-1.141 0-.504.103-.94.308-1.309.205-.369.478-.672.819-.91.34-.238.728-.415 1.162-.532.434-.117.88-.175 1.337-.175.513 0 .99.06 1.428.182.439.121.824.313 1.155.574.331.261.593.59.784.987.191.397.296.87.315 1.421h-1.26zm9.322 0c-.075-.719-.334-1.239-.777-1.561-.443-.322-1.01-.483-1.701-.483-.28 0-.555.028-.826.084-.27.056-.511.15-.721.28a1.47 1.47 0 0 0-.504.525c-.126.22-.189.492-.189.819 0 .308.091.558.273.749.182.191.425.348.728.469s.646.222 1.029.301c.383.08.772.166 1.169.259s.786.203 1.169.329.726.296 1.029.511c.303.215.546.485.728.812.182.327.273.737.273 1.232 0 .532-.119.987-.357 1.365a2.938 2.938 0 0 1-.917.924 3.99 3.99 0 0 1-1.253.518 6.077 6.077 0 0 1-2.968-.049c-.5-.14-.938-.352-1.316-.637a3.02 3.02 0 0 1-.896-1.092c-.22-.443-.329-.968-.329-1.575h1.26c0 .42.082.782.245 1.085.163.303.378.553.644.749.266.196.576.34.931.434.355.093.719.14 1.092.14.299 0 .6-.028.903-.084a2.66 2.66 0 0 0 .819-.287 1.63 1.63 0 0 0 .588-.553c.15-.233.224-.532.224-.896 0-.345-.091-.625-.273-.84a2.006 2.006 0 0 0-.728-.525 5.33 5.33 0 0 0-1.029-.329c-.383-.084-.772-.17-1.169-.259a15.903 15.903 0 0 1-1.169-.308 4.23 4.23 0 0 1-1.029-.462 2.213 2.213 0 0 1-.728-.742c-.182-.303-.273-.684-.273-1.141 0-.504.103-.94.308-1.309.205-.369.478-.672.819-.91.34-.238.728-.415 1.162-.532.434-.117.88-.175 1.337-.175.513 0 .99.06 1.428.182.439.121.824.313 1.155.574.331.261.593.59.784.987.191.397.296.87.315 1.421h-1.26zm9.012 1.862h2.604c.756.01 1.309-.145 1.659-.462.35-.317.525-.775.525-1.372 0-.597-.175-1.052-.525-1.365-.35-.313-.903-.469-1.659-.469h-2.604v3.668zm-1.33-4.788h4.382c1.008 0 1.771.259 2.289.777.518.518.777 1.244.777 2.177s-.259 1.661-.777 2.184c-.518.523-1.281.78-2.289.77h-3.052V175h-1.33v-9.996zm10.386 1.456h-1.19v-1.456h1.19v1.456zm-1.19 1.302h1.19V175h-1.19v-7.238zm5.234 3.43l-2.52-3.43h1.526l1.736 2.534 1.806-2.534h1.428l-2.492 3.332 2.8 3.906h-1.526l-2.016-2.996-2.016 2.996h-1.442l2.716-3.808zm10.582-.504a2.435 2.435 0 0 0-.189-.798 2.04 2.04 0 0 0-.434-.651 2.036 2.036 0 0 0-1.463-.595c-.308 0-.586.054-.833.161-.247.107-.46.254-.637.441a2.11 2.11 0 0 0-.42.651 2.479 2.479 0 0 0-.182.791h4.158zm1.148 2.016c-.159.812-.509 1.423-1.05 1.834-.541.41-1.223.616-2.044.616-.579 0-1.08-.093-1.505-.28a2.967 2.967 0 0 1-1.071-.784 3.33 3.33 0 0 1-.651-1.204 5.802 5.802 0 0 1-.245-1.526c0-.55.084-1.055.252-1.512.168-.457.404-.854.707-1.19a3.208 3.208 0 0 1 2.443-1.064c.644 0 1.178.133 1.603.399a3.17 3.17 0 0 1 1.022 1.015c.257.41.434.859.532 1.344.098.485.138.947.119 1.386H504.3c-.01.317.028.618.112.903.084.285.22.537.406.756.187.22.425.394.714.525.29.13.63.196 1.022.196.504 0 .917-.117 1.239-.35.322-.233.534-.588.637-1.064h1.176zm1.664-7.7h1.19V175h-1.19v-9.996zm4.016 7.714c.01.261.07.483.182.665.112.182.259.327.441.434.182.107.387.184.616.231.229.047.464.07.707.07.187 0 .383-.014.588-.042.205-.028.394-.08.567-.154.173-.075.315-.184.427-.329a.877.877 0 0 0 .168-.553c0-.308-.117-.541-.35-.7a2.978 2.978 0 0 0-.875-.385c-.35-.098-.73-.187-1.141-.266a5.92 5.92 0 0 1-1.141-.336 2.362 2.362 0 0 1-.875-.609c-.233-.261-.35-.625-.35-1.092 0-.364.082-.677.245-.938.163-.261.373-.474.63-.637.257-.163.546-.285.868-.364.322-.08.642-.119.959-.119.41 0 .789.035 1.134.105.345.07.651.191.917.364s.478.406.637.7c.159.294.252.66.28 1.099h-1.19a1.205 1.205 0 0 0-.182-.581 1.192 1.192 0 0 0-.392-.371 1.78 1.78 0 0 0-.525-.203 2.702 2.702 0 0 0-.581-.063 3.54 3.54 0 0 0-.539.042 1.815 1.815 0 0 0-.497.147c-.15.07-.27.163-.364.28a.706.706 0 0 0-.14.455.67.67 0 0 0 .217.511c.145.135.329.247.553.336.224.089.476.163.756.224.28.06.56.124.84.189.299.065.59.145.875.238.285.093.537.217.756.371.22.154.397.348.532.581.135.233.203.523.203.868 0 .439-.091.803-.273 1.092-.182.29-.42.523-.714.7a2.985 2.985 0 0 1-.994.371 5.88 5.88 0 0 1-1.099.105c-.401 0-.784-.042-1.148-.126a2.816 2.816 0 0 1-.966-.413 2.106 2.106 0 0 1-.672-.756c-.168-.313-.261-.693-.28-1.141h1.19z" fill="#E00000"/><g fill-rule="nonzero"><path d="M306.713 55.5h92v1h-92v4l-9-4.5 9-4.5v4z" fill="#E00000"/><path d="M398.5 265V56" stroke="#E00000" stroke-linecap="square"/><path d="M306.713 264.5h92v1h-92v4l-9-4.5 9-4.5v4z" fill="#E00000"/></g><path d="M399 160.5h18" stroke="#E00000" stroke-linecap="square"/><g fill-rule="nonzero"><path d="M360.5 382.713v20.926h-1v-20.926h-4l4.5-9 4.5 9h-4z" fill="#E00000"/><path d="M10.5 403.139H360" stroke="#E00000" stroke-linecap="square"/><path d="M11 382.5v21.139h-1V382.5H6l4.5-9 4.5 9h-4z" fill="#E00000"/></g><path d="M185.5 404v18" stroke="#E00000" stroke-linecap="square"/><path d="M134.368 435.148h2.25V448h-2.25v-12.852zm4.966 3.546h1.944v1.368l.036.036a3.44 3.44 0 0 1 1.224-1.215 3.262 3.262 0 0 1 1.674-.441c1.02 0 1.824.264 2.412.792.588.528.882 1.32.882 2.376V448h-2.052v-5.85c-.024-.732-.18-1.263-.468-1.593-.288-.33-.738-.495-1.35-.495-.348 0-.66.063-.936.189s-.51.3-.702.522a2.454 2.454 0 0 0-.45.783c-.108.3-.162.618-.162.954V448h-2.052v-9.306zm9.646 0h1.548v-2.79h2.052v2.79h1.854v1.53h-1.854v4.968c0 .216.009.402.027.558.018.156.06.288.126.396a.602.602 0 0 0 .297.243c.132.054.312.081.54.081.144 0 .288-.003.432-.009.144-.006.288-.027.432-.063v1.584l-.666.072a6.028 6.028 0 0 1-.666.036c-.54 0-.975-.051-1.305-.153-.33-.102-.588-.252-.774-.45a1.553 1.553 0 0 1-.378-.747 5.621 5.621 0 0 1-.117-1.026v-5.49h-1.548v-1.53zm13.57 3.834a3.309 3.309 0 0 0-.207-.936c-.114-.3-.27-.561-.468-.783a2.318 2.318 0 0 0-.72-.54 2.121 2.121 0 0 0-.945-.207c-.36 0-.687.063-.981.189-.294.126-.546.3-.756.522-.21.222-.378.483-.504.783-.126.3-.195.624-.207.972h4.788zm-4.788 1.35c0 .36.051.708.153 1.044.102.336.255.63.459.882.204.252.462.453.774.603.312.15.684.225 1.116.225.6 0 1.083-.129 1.449-.387.366-.258.639-.645.819-1.161h1.944a3.87 3.87 0 0 1-1.512 2.349c-.372.27-.789.474-1.251.612a5.036 5.036 0 0 1-1.449.207c-.732 0-1.38-.12-1.944-.36a4.019 4.019 0 0 1-1.431-1.008 4.277 4.277 0 0 1-.882-1.548 6.288 6.288 0 0 1-.297-1.98c0-.66.105-1.287.315-1.881.21-.594.51-1.116.9-1.566.39-.45.861-.807 1.413-1.071.552-.264 1.176-.396 1.872-.396.732 0 1.389.153 1.971.459a4.325 4.325 0 0 1 1.449 1.215 4.92 4.92 0 0 1 .837 1.737c.174.654.219 1.329.135 2.025h-6.84zm8.656-5.184h1.926v1.8h.036c.06-.252.177-.498.351-.738s.384-.459.63-.657.519-.357.819-.477c.3-.12.606-.18.918-.18.24 0 .405.006.495.018l.279.036v1.98a9.745 9.745 0 0 0-.441-.063 3.7 3.7 0 0 0-.441-.027c-.348 0-.675.069-.981.207a2.253 2.253 0 0 0-.801.612 3 3 0 0 0-.54.999 4.323 4.323 0 0 0-.198 1.368V448h-2.052v-9.306zm14.38 7.236c0 .252.033.432.099.54.066.108.195.162.387.162h.216c.084 0 .18-.012.288-.036v1.422a6.012 6.012 0 0 1-.63.162 3.724 3.724 0 0 1-.666.072c-.42 0-.768-.084-1.044-.252-.276-.168-.456-.462-.54-.882a3.63 3.63 0 0 1-1.503.864c-.594.18-1.167.27-1.719.27-.42 0-.822-.057-1.206-.171a3.165 3.165 0 0 1-1.017-.504 2.415 2.415 0 0 1-.702-.846c-.174-.342-.261-.741-.261-1.197 0-.576.105-1.044.315-1.404.21-.36.486-.642.828-.846a3.74 3.74 0 0 1 1.152-.441c.426-.09.855-.159 1.287-.207a10.53 10.53 0 0 1 1.062-.153c.336-.03.633-.081.891-.153s.462-.183.612-.333c.15-.15.225-.375.225-.675 0-.264-.063-.48-.189-.648a1.268 1.268 0 0 0-.468-.387 2.022 2.022 0 0 0-.621-.18 4.977 4.977 0 0 0-.648-.045c-.576 0-1.05.12-1.422.36-.372.24-.582.612-.63 1.116h-2.052c.036-.6.18-1.098.432-1.494.252-.396.573-.714.963-.954a3.94 3.94 0 0 1 1.323-.504 7.877 7.877 0 0 1 1.512-.144c.456 0 .906.048 1.35.144.444.096.843.252 1.197.468.354.216.639.495.855.837.216.342.324.759.324 1.251v4.788zm-2.052-2.592c-.312.204-.696.327-1.152.369-.456.042-.912.105-1.368.189a4.386 4.386 0 0 0-.63.153 1.897 1.897 0 0 0-.54.27 1.185 1.185 0 0 0-.369.45c-.09.186-.135.411-.135.675 0 .228.066.42.198.576.132.156.291.279.477.369.186.09.39.153.612.189a3.8 3.8 0 0 0 .603.054c.228 0 .474-.03.738-.09s.513-.162.747-.306c.234-.144.429-.327.585-.549.156-.222.234-.495.234-.819v-1.53zm10.798-1.53c-.084-.576-.315-1.011-.693-1.305-.378-.294-.855-.441-1.431-.441a2.95 2.95 0 0 0-.846.135c-.3.09-.576.258-.828.504s-.462.588-.63 1.026c-.168.438-.252 1.011-.252 1.719 0 .384.045.768.135 1.152.09.384.234.726.432 1.026.198.3.453.543.765.729.312.186.69.279 1.134.279.6 0 1.095-.186 1.485-.558.39-.372.633-.894.729-1.566h2.052c-.192 1.212-.651 2.139-1.377 2.781-.726.642-1.689.963-2.889.963-.732 0-1.377-.123-1.935-.369a4.101 4.101 0 0 1-1.413-1.008 4.28 4.28 0 0 1-.873-1.521 5.943 5.943 0 0 1-.297-1.908c0-.696.096-1.35.288-1.962.192-.612.48-1.143.864-1.593.384-.45.861-.804 1.431-1.062.57-.258 1.239-.387 2.007-.387.54 0 1.053.069 1.539.207.486.138.918.345 1.296.621s.687.624.927 1.044c.24.42.384.918.432 1.494h-2.052zm3.04-3.114h1.548v-2.79h2.052v2.79h1.854v1.53h-1.854v4.968c0 .216.009.402.027.558.018.156.06.288.126.396a.602.602 0 0 0 .297.243c.132.054.312.081.54.081.144 0 .288-.003.432-.009.144-.006.288-.027.432-.063v1.584l-.666.072a6.028 6.028 0 0 1-.666.036c-.54 0-.975-.051-1.305-.153-.33-.102-.588-.252-.774-.45a1.553 1.553 0 0 1-.378-.747 5.621 5.621 0 0 1-.117-1.026v-5.49h-1.548v-1.53zm7.234-3.546h2.052v1.944h-2.052v-1.944zm0 3.546h2.052V448h-2.052v-9.306zm3.616 0h2.232l2.358 7.146h.036l2.268-7.146h2.124l-3.33 9.306h-2.304l-3.384-9.306zm16.9 3.834a3.309 3.309 0 0 0-.207-.936c-.114-.3-.27-.561-.468-.783a2.318 2.318 0 0 0-.72-.54 2.121 2.121 0 0 0-.945-.207c-.36 0-.687.063-.981.189-.294.126-.546.3-.756.522-.21.222-.378.483-.504.783-.126.3-.195.624-.207.972h4.788zm-4.788 1.35c0 .36.051.708.153 1.044.102.336.255.63.459.882.204.252.462.453.774.603.312.15.684.225 1.116.225.6 0 1.083-.129 1.449-.387.366-.258.639-.645.819-1.161h1.944a3.87 3.87 0 0 1-1.512 2.349c-.372.27-.789.474-1.251.612a5.036 5.036 0 0 1-1.449.207c-.732 0-1.38-.12-1.944-.36a4.019 4.019 0 0 1-1.431-1.008 4.277 4.277 0 0 1-.882-1.548 6.288 6.288 0 0 1-.297-1.98c0-.66.105-1.287.315-1.881.21-.594.51-1.116.9-1.566.39-.45.861-.807 1.413-1.071.552-.264 1.176-.396 1.872-.396.732 0 1.389.153 1.971.459a4.325 4.325 0 0 1 1.449 1.215 4.92 4.92 0 0 1 .837 1.737c.174.654.219 1.329.135 2.025h-6.84zm17.636-8.73h2.394l4.95 12.852h-2.412l-1.206-3.402h-5.13L230.572 448h-2.322l4.932-12.852zm-.792 7.74h3.924l-1.926-5.526h-.054l-1.944 5.526zm9.322-4.194h1.926v1.8h.036c.06-.252.177-.498.351-.738s.384-.459.63-.657.519-.357.819-.477c.3-.12.606-.18.918-.18.24 0 .405.006.495.018l.279.036v1.98a9.745 9.745 0 0 0-.441-.063 3.7 3.7 0 0 0-.441-.027c-.348 0-.675.069-.981.207a2.253 2.253 0 0 0-.801.612 3 3 0 0 0-.54.999 4.323 4.323 0 0 0-.198 1.368V448h-2.052v-9.306zm12.652 3.834a3.309 3.309 0 0 0-.207-.936c-.114-.3-.27-.561-.468-.783a2.318 2.318 0 0 0-.72-.54 2.121 2.121 0 0 0-.945-.207c-.36 0-.687.063-.981.189-.294.126-.546.3-.756.522-.21.222-.378.483-.504.783-.126.3-.195.624-.207.972h4.788zm-4.788 1.35c0 .36.051.708.153 1.044.102.336.255.63.459.882.204.252.462.453.774.603.312.15.684.225 1.116.225.6 0 1.083-.129 1.449-.387.366-.258.639-.645.819-1.161h1.944a3.87 3.87 0 0 1-1.512 2.349c-.372.27-.789.474-1.251.612a5.036 5.036 0 0 1-1.449.207c-.732 0-1.38-.12-1.944-.36a4.019 4.019 0 0 1-1.431-1.008 4.277 4.277 0 0 1-.882-1.548 6.288 6.288 0 0 1-.297-1.98c0-.66.105-1.287.315-1.881.21-.594.51-1.116.9-1.566.39-.45.861-.807 1.413-1.071.552-.264 1.176-.396 1.872-.396.732 0 1.389.153 1.971.459a4.325 4.325 0 0 1 1.449 1.215 4.92 4.92 0 0 1 .837 1.737c.174.654.219 1.329.135 2.025h-6.84zm16.45 2.052c0 .252.033.432.099.54.066.108.195.162.387.162h.216c.084 0 .18-.012.288-.036v1.422a6.012 6.012 0 0 1-.63.162 3.724 3.724 0 0 1-.666.072c-.42 0-.768-.084-1.044-.252-.276-.168-.456-.462-.54-.882a3.63 3.63 0 0 1-1.503.864c-.594.18-1.167.27-1.719.27-.42 0-.822-.057-1.206-.171a3.165 3.165 0 0 1-1.017-.504 2.415 2.415 0 0 1-.702-.846c-.174-.342-.261-.741-.261-1.197 0-.576.105-1.044.315-1.404.21-.36.486-.642.828-.846a3.74 3.74 0 0 1 1.152-.441c.426-.09.855-.159 1.287-.207a10.53 10.53 0 0 1 1.062-.153c.336-.03.633-.081.891-.153s.462-.183.612-.333c.15-.15.225-.375.225-.675 0-.264-.063-.48-.189-.648a1.268 1.268 0 0 0-.468-.387 2.022 2.022 0 0 0-.621-.18 4.977 4.977 0 0 0-.648-.045c-.576 0-1.05.12-1.422.36-.372.24-.582.612-.63 1.116h-2.052c.036-.6.18-1.098.432-1.494.252-.396.573-.714.963-.954a3.94 3.94 0 0 1 1.323-.504 7.877 7.877 0 0 1 1.512-.144c.456 0 .906.048 1.35.144.444.096.843.252 1.197.468.354.216.639.495.855.837.216.342.324.759.324 1.251v4.788zm-2.052-2.592c-.312.204-.696.327-1.152.369-.456.042-.912.105-1.368.189a4.386 4.386 0 0 0-.63.153 1.897 1.897 0 0 0-.54.27 1.185 1.185 0 0 0-.369.45c-.09.186-.135.411-.135.675 0 .228.066.42.198.576.132.156.291.279.477.369.186.09.39.153.612.189a3.8 3.8 0 0 0 .603.054c.228 0 .474-.03.738-.09s.513-.162.747-.306c.234-.144.429-.327.585-.549.156-.222.234-.495.234-.819v-1.53zm-126.228 18.288v-4.858h-.028l-3.304 4.858h3.332zm1.12 0h1.344v1.05h-1.344V465h-1.12v-2.324h-4.354v-1.148l4.522-6.454h.952v6.552zm6.914 0v-4.858h-.028l-3.304 4.858h3.332zm1.12 0h1.344v1.05H146.9V465h-1.12v-2.324h-4.354v-1.148l4.522-6.454h.952v6.552zm14.43-3.612c-.15-.71-.478-1.241-.987-1.596s-1.113-.532-1.813-.532c-.597 0-1.108.112-1.533.336a3.026 3.026 0 0 0-1.05.903c-.275.378-.478.81-.609 1.295a5.79 5.79 0 0 0-.196 1.512c0 .57.065 1.108.196 1.617.13.509.334.952.609 1.33.275.378.628.679 1.057.903.43.224.943.336 1.54.336.439 0 .828-.072 1.169-.217.34-.145.635-.345.882-.602a2.77 2.77 0 0 0 .581-.917c.14-.355.224-.737.252-1.148h1.33c-.13 1.26-.565 2.24-1.302 2.94-.737.7-1.745 1.05-3.024 1.05-.775 0-1.451-.133-2.03-.399a3.987 3.987 0 0 1-1.442-1.099 4.721 4.721 0 0 1-.861-1.652 7.048 7.048 0 0 1-.287-2.044c0-.728.103-1.412.308-2.051.205-.64.506-1.197.903-1.673a4.21 4.21 0 0 1 1.484-1.127c.593-.275 1.272-.413 2.037-.413.523 0 1.017.07 1.484.21.467.14.882.345 1.246.616.364.27.667.609.91 1.015.243.406.401.875.476 1.407h-1.33zm9.112-.084c-.075-.719-.334-1.239-.777-1.561-.443-.322-1.01-.483-1.701-.483-.28 0-.555.028-.826.084-.27.056-.511.15-.721.28a1.47 1.47 0 0 0-.504.525c-.126.22-.189.492-.189.819 0 .308.091.558.273.749.182.191.425.348.728.469s.646.222 1.029.301c.383.08.772.166 1.169.259s.786.203 1.169.329.726.296 1.029.511c.303.215.546.485.728.812.182.327.273.737.273 1.232 0 .532-.119.987-.357 1.365a2.938 2.938 0 0 1-.917.924 3.99 3.99 0 0 1-1.253.518 6.077 6.077 0 0 1-2.968-.049c-.5-.14-.938-.352-1.316-.637a3.02 3.02 0 0 1-.896-1.092c-.22-.443-.329-.968-.329-1.575h1.26c0 .42.082.782.245 1.085.163.303.378.553.644.749.266.196.576.34.931.434.355.093.719.14 1.092.14.299 0 .6-.028.903-.084a2.66 2.66 0 0 0 .819-.287 1.63 1.63 0 0 0 .588-.553c.15-.233.224-.532.224-.896 0-.345-.091-.625-.273-.84a2.006 2.006 0 0 0-.728-.525 5.33 5.33 0 0 0-1.029-.329c-.383-.084-.772-.17-1.169-.259a15.903 15.903 0 0 1-1.169-.308 4.23 4.23 0 0 1-1.029-.462 2.213 2.213 0 0 1-.728-.742c-.182-.303-.273-.684-.273-1.141 0-.504.103-.94.308-1.309.205-.369.478-.672.819-.91.34-.238.728-.415 1.162-.532.434-.117.88-.175 1.337-.175.513 0 .99.06 1.428.182.439.121.824.313 1.155.574.331.261.593.59.784.987.191.397.296.87.315 1.421h-1.26zm9.322 0c-.075-.719-.334-1.239-.777-1.561-.443-.322-1.01-.483-1.701-.483-.28 0-.555.028-.826.084-.27.056-.511.15-.721.28a1.47 1.47 0 0 0-.504.525c-.126.22-.189.492-.189.819 0 .308.091.558.273.749.182.191.425.348.728.469s.646.222 1.029.301c.383.08.772.166 1.169.259s.786.203 1.169.329.726.296 1.029.511c.303.215.546.485.728.812.182.327.273.737.273 1.232 0 .532-.119.987-.357 1.365a2.938 2.938 0 0 1-.917.924 3.99 3.99 0 0 1-1.253.518 6.077 6.077 0 0 1-2.968-.049c-.5-.14-.938-.352-1.316-.637a3.02 3.02 0 0 1-.896-1.092c-.22-.443-.329-.968-.329-1.575h1.26c0 .42.082.782.245 1.085.163.303.378.553.644.749.266.196.576.34.931.434.355.093.719.14 1.092.14.299 0 .6-.028.903-.084a2.66 2.66 0 0 0 .819-.287 1.63 1.63 0 0 0 .588-.553c.15-.233.224-.532.224-.896 0-.345-.091-.625-.273-.84a2.006 2.006 0 0 0-.728-.525 5.33 5.33 0 0 0-1.029-.329c-.383-.084-.772-.17-1.169-.259a15.903 15.903 0 0 1-1.169-.308 4.23 4.23 0 0 1-1.029-.462 2.213 2.213 0 0 1-.728-.742c-.182-.303-.273-.684-.273-1.141 0-.504.103-.94.308-1.309.205-.369.478-.672.819-.91.34-.238.728-.415 1.162-.532.434-.117.88-.175 1.337-.175.513 0 .99.06 1.428.182.439.121.824.313 1.155.574.331.261.593.59.784.987.191.397.296.87.315 1.421h-1.26zm9.012 1.862h2.604c.756.01 1.309-.145 1.659-.462.35-.317.525-.775.525-1.372 0-.597-.175-1.052-.525-1.365-.35-.313-.903-.469-1.659-.469h-2.604v3.668zm-1.33-4.788h4.382c1.008 0 1.771.259 2.289.777.518.518.777 1.244.777 2.177s-.259 1.661-.777 2.184c-.518.523-1.281.78-2.289.77h-3.052V465h-1.33v-9.996zm10.386 1.456h-1.19v-1.456h1.19v1.456zm-1.19 1.302h1.19V465h-1.19v-7.238zm5.234 3.43l-2.52-3.43h1.526l1.736 2.534 1.806-2.534h1.428l-2.492 3.332 2.8 3.906h-1.526l-2.016-2.996-2.016 2.996h-1.442l2.716-3.808zm10.582-.504a2.435 2.435 0 0 0-.189-.798 2.04 2.04 0 0 0-.434-.651 2.036 2.036 0 0 0-1.463-.595c-.308 0-.586.054-.833.161-.247.107-.46.254-.637.441a2.11 2.11 0 0 0-.42.651 2.479 2.479 0 0 0-.182.791h4.158zm1.148 2.016c-.159.812-.509 1.423-1.05 1.834-.541.41-1.223.616-2.044.616-.579 0-1.08-.093-1.505-.28a2.967 2.967 0 0 1-1.071-.784 3.33 3.33 0 0 1-.651-1.204 5.802 5.802 0 0 1-.245-1.526c0-.55.084-1.055.252-1.512.168-.457.404-.854.707-1.19a3.208 3.208 0 0 1 2.443-1.064c.644 0 1.178.133 1.603.399a3.17 3.17 0 0 1 1.022 1.015c.257.41.434.859.532 1.344.098.485.138.947.119 1.386H208.3c-.01.317.028.618.112.903.084.285.22.537.406.756.187.22.425.394.714.525.29.13.63.196 1.022.196.504 0 .917-.117 1.239-.35.322-.233.534-.588.637-1.064h1.176zm1.664-7.7h1.19V465h-1.19v-9.996zm4.016 7.714c.01.261.07.483.182.665.112.182.259.327.441.434.182.107.387.184.616.231.229.047.464.07.707.07.187 0 .383-.014.588-.042.205-.028.394-.08.567-.154.173-.075.315-.184.427-.329a.877.877 0 0 0 .168-.553c0-.308-.117-.541-.35-.7a2.978 2.978 0 0 0-.875-.385c-.35-.098-.73-.187-1.141-.266a5.92 5.92 0 0 1-1.141-.336 2.362 2.362 0 0 1-.875-.609c-.233-.261-.35-.625-.35-1.092 0-.364.082-.677.245-.938.163-.261.373-.474.63-.637.257-.163.546-.285.868-.364.322-.08.642-.119.959-.119.41 0 .789.035 1.134.105.345.07.651.191.917.364s.478.406.637.7c.159.294.252.66.28 1.099h-1.19a1.205 1.205 0 0 0-.182-.581 1.192 1.192 0 0 0-.392-.371 1.78 1.78 0 0 0-.525-.203 2.702 2.702 0 0 0-.581-.063 3.54 3.54 0 0 0-.539.042 1.815 1.815 0 0 0-.497.147c-.15.07-.27.163-.364.28a.706.706 0 0 0-.14.455.67.67 0 0 0 .217.511c.145.135.329.247.553.336.224.089.476.163.756.224.28.06.56.124.84.189.299.065.59.145.875.238.285.093.537.217.756.371.22.154.397.348.532.581.135.233.203.523.203.868 0 .439-.091.803-.273 1.092-.182.29-.42.523-.714.7a2.985 2.985 0 0 1-.994.371 5.88 5.88 0 0 1-1.099.105c-.401 0-.784-.042-1.148-.126a2.816 2.816 0 0 1-.966-.413 2.106 2.106 0 0 1-.672-.756c-.168-.313-.261-.693-.28-1.141h1.19z" fill="#E00000"/></g></svg>