<svg id="blog" xmlns="http://www.w3.org/2000/svg" viewBox="0 0 22 22"><defs><style>.cls-1{fill-rule:evenodd;}</style></defs><path class="cls-1" d="M18.15,2a1.87,1.87,0,0,0-.71.14,1.75,1.75,0,0,0-.6.4L3.41,16l-1,3.6,3.6-1L19.46,5.16a1.75,1.75,0,0,0,.4-.6A1.87,1.87,0,0,0,20,3.85a2,2,0,0,0-.14-.71,1.84,1.84,0,0,0-1-1A2,2,0,0,0,18.15,2ZM16.67.29a3.87,3.87,0,0,1,5,2.09,3.9,3.9,0,0,1,0,3,4,4,0,0,1-.84,1.25L7.25,20.19a.87.87,0,0,1-.44.26L1.26,22a1,1,0,0,1-1-.25,1,1,0,0,1-.25-1l1.51-5.55a.87.87,0,0,1,.26-.44L15.42,1.13A4,4,0,0,1,16.67.29Z"/></svg>
