<svg id="color-contrast" xmlns="http://www.w3.org/2000/svg" viewBox="0 0 22 22"><path d="M3.73,10.18a1,1,0,0,0,1-1V2.82a1,1,0,0,0-2,0V9.18A1,1,0,0,0,3.73,10.18Z"/><path d="M11,10a1,1,0,0,0-1,1v8.18a1,1,0,0,0,2,0V11A1,1,0,0,0,11,10Z"/><path d="M18.27,12a1,1,0,0,0,1-1V2.82a1,1,0,0,0-2,0V11A1,1,0,0,0,18.27,12Z"/><path d="M6.45,11.82H1a1,1,0,0,0,0,2H2.73v5.36a1,1,0,0,0,2,0V13.82H6.45a1,1,0,0,0,0-2Z"/><path d="M13.73,6.36H12V2.82a1,1,0,0,0-2,0V6.36H8.27a1,1,0,0,0,0,2h5.46a1,1,0,1,0,0-2Z"/><path d="M21,13.64H15.55a1,1,0,0,0,0,2h1.72v3.54a1,1,0,0,0,2,0V15.64H21a1,1,0,0,0,0-2Z"/></svg>
