<svg id="design" xmlns="http://www.w3.org/2000/svg" viewBox="0 0 22 22"><path d="M18.71,10.29a1,1,0,0,0-1.08-.22L16.48,4.3a1,1,0,0,0-.75-.77L1.23,0A1.2,1.2,0,0,0,1,0H1A1.28,1.28,0,0,0,.66.06L.59.1a1.17,1.17,0,0,0-.3.19A1.17,1.17,0,0,0,.1.59l0,.07A1.28,1.28,0,0,0,0,1V1a1.2,1.2,0,0,0,0,.2l3.5,14.5a1,1,0,0,0,.77.75l5.77,1.15a1,1,0,0,0,.22,1.08l3,3a1,1,0,0,0,1.42,0l7-7a1,1,0,0,0,0-1.42ZM5.32,14.64,2.81,4.22,7.3,8.71A3,3,0,0,0,7,10a3,3,0,1,0,3-3,3,3,0,0,0-1.29.3L4.22,2.81,14.64,5.32l1.27,6.35-4.24,4.24ZM9,10a1,1,0,0,1,.29-.71h0A1,1,0,1,1,9,10Zm5,9.59L12.41,18l.3-.29,5-5,.29-.3L19.59,14Z"/></svg>
