<svg id="featured" xmlns="http://www.w3.org/2000/svg" viewBox="0 0 22 22"><defs><style>.cls-1{fill-rule:evenodd;}</style></defs><path class="cls-1" d="M11,1a1,1,0,0,1,.95.7l2,6.21h6.54a1,1,0,0,1,.95.7,1,1,0,0,1-.36,1.11l-5.29,3.85,2,6.22a1,1,0,0,1-1.54,1.11L11,17,5.71,20.85a1,1,0,0,1-1.54-1.11l2-6.22L.9,9.67A1,1,0,0,1,.54,8.56a1,1,0,0,1,1-.7H8l2-6.21A1,1,0,0,1,11,1Zm0,4.24-1.29,4a1,1,0,0,1-1,.69H4.57L8,12.33a1,1,0,0,1,.36,1.11l-1.3,4L10.41,15a1,1,0,0,1,1.18,0L15,17.43l-1.3-4A1,1,0,0,1,14,12.33l3.39-2.47H13.25a1,1,0,0,1-1-.69Z"/></svg>
