<svg id="Layer_1" data-name="Layer 1" xmlns="http://www.w3.org/2000/svg" viewBox="0 0 22 22"><defs><style>.cls-1{fill:none;}</style></defs><path class="cls-1" d="M11,12.83a1.73,1.73,0,0,0,1.73-1.71V3.83a1.73,1.73,0,0,0-3.45-.27,1.22,1.22,0,0,0,0,.27V11.1A1.72,1.72,0,0,0,11,12.83Z"/><path d="M11,14.83a3.85,3.85,0,0,0,2.64-1.09,3.77,3.77,0,0,0,1.09-2.64V3.83a3.73,3.73,0,0,0-7.45-.39,2.54,2.54,0,0,0,0,.39V11.1A3.72,3.72,0,0,0,11,14.83Zm-1.72-11A1.72,1.72,0,0,1,10.87,2a1.74,1.74,0,0,1,1.86,1.59V11.1a1.73,1.73,0,0,1-3.45.26,1.13,1.13,0,0,1,0-.26Z"/><path d="M17.37,8.28a1,1,0,0,0-1,1V11.1a5.37,5.37,0,0,1-10.73,0V9.28a1,1,0,1,0-2,0V11.1A7.34,7.34,0,0,0,10,18.39V20.1H7.37a1,1,0,0,0,0,2h7.27a1,1,0,0,0,0-2H12V18.39a7.36,7.36,0,0,0,6.37-7.29V9.28A1,1,0,0,0,17.37,8.28Z"/></svg>