<svg id="Layer_1" data-name="Layer 1" xmlns="http://www.w3.org/2000/svg" viewBox="0 0 22 22"><defs><style>.cls-1{fill:none;}</style></defs><path class="cls-1" d="M11,10.78l8.89-6.22A1,1,0,0,0,19,4H3a1,1,0,0,0-.89.56Z"/><path class="cls-1" d="M11.57,12.82a1,1,0,0,1-1.14,0L2,6.92V17a1,1,0,0,0,1,1H19a1,1,0,0,0,1-1V6.92Z"/><path d="M19,2H3A3,3,0,0,0,0,5V17a3,3,0,0,0,3,3H19a3,3,0,0,0,3-3V5A3,3,0,0,0,19,2ZM3,4H19a1,1,0,0,1,.89.56L11,10.78,2.11,4.56A1,1,0,0,1,3,4ZM19,18H3a1,1,0,0,1-1-1V6.92l8.43,5.9a1,1,0,0,0,1.14,0L20,6.92V17A1,1,0,0,1,19,18Z"/></svg>