<svg id="Layer_1" data-name="Layer 1" xmlns="http://www.w3.org/2000/svg" viewBox="0 0 22 22"><defs><style>.cls-1{fill-rule:evenodd;}</style></defs><path class="cls-1" d="M10.55.11a1,1,0,0,1,.9,0l10,5a1,1,0,0,1,0,1.78l-10,5a1,1,0,0,1-.9,0l-10-5a1,1,0,0,1,0-1.78ZM3.24,6,11,9.88,18.76,6,11,2.12Z"/><path class="cls-1" d="M.11,15.55a1,1,0,0,1,1.34-.44L11,19.88l9.55-4.77a1,1,0,1,1,.9,1.78l-10,5a1,1,0,0,1-.9,0l-10-5A1,1,0,0,1,.11,15.55Z"/><path class="cls-1" d="M.11,10.55a1,1,0,0,1,1.34-.44L11,14.88l9.55-4.77a1,1,0,1,1,.9,1.78l-10,5a1,1,0,0,1-.9,0l-10-5A1,1,0,0,1,.11,10.55Z"/></svg>