<svg id="Layer_1" data-name="Layer 1" xmlns="http://www.w3.org/2000/svg" viewBox="0 0 22 22"><defs><style>.cls-1{fill:none;}</style></defs><path class="cls-1" d="M5.5,17a1.5,1.5,0,0,0,0,3H18V17Z"/><path class="cls-1" d="M5.5,15H18V2H5.5A1.5,1.5,0,0,0,4,3.5V15.35A3.51,3.51,0,0,1,5.5,15Z"/><path d="M19,0H5.5A3.52,3.52,0,0,0,2,3.5v15A3.52,3.52,0,0,0,5.5,22H19a1,1,0,0,0,1-1V1A1,1,0,0,0,19,0ZM4.44,2.44A1.5,1.5,0,0,1,5.5,2H18V15H5.5a3.51,3.51,0,0,0-1.5.35V3.5A1.5,1.5,0,0,1,4.44,2.44ZM5.5,20a1.5,1.5,0,0,1,0-3H18v3Z"/></svg>