<svg id="Layer_1" data-name="Layer 1" xmlns="http://www.w3.org/2000/svg" viewBox="0 0 22 22"><defs><style>.cls-1{fill:none;}</style></defs><path class="cls-1" d="M10,11a1,1,0,1,0-.71-1.71h0A1,1,0,0,0,10,11Z"/><path class="cls-1" d="M15.91,11.67,14.64,5.32,4.22,2.81,8.71,7.3A3,3,0,0,1,10,7a3,3,0,1,1-3,3,3,3,0,0,1,.3-1.29L2.81,4.22,5.32,14.64l6.35,1.27Z"/><polygon class="cls-1" points="17.71 12.71 12.71 17.71 12.41 18 14 19.59 19.59 14 18 12.41 17.71 12.71"/><path d="M21.71,13.29l-3-3a1,1,0,0,0-1.08-.22L16.48,4.3a1,1,0,0,0-.75-.77L1.23,0A1.2,1.2,0,0,0,1,0H1A1.28,1.28,0,0,0,.66.06L.59.1a1.17,1.17,0,0,0-.3.19A1.17,1.17,0,0,0,.1.59l0,.07A1.28,1.28,0,0,0,0,1V1a1.2,1.2,0,0,0,0,.2l3.5,14.5a1,1,0,0,0,.77.75l5.77,1.15a1,1,0,0,0,.22,1.08l3,3a1,1,0,0,0,1.42,0l7-7A1,1,0,0,0,21.71,13.29ZM2.81,4.22,7.3,8.71A3,3,0,0,0,7,10a3,3,0,1,0,3-3,3,3,0,0,0-1.29.3L4.22,2.81,14.64,5.32l1.27,6.35-4.24,4.24L5.32,14.64ZM9.29,9.29h0A1,1,0,1,1,9,10a1,1,0,0,1,.29-.71ZM14,19.59,12.41,18l.3-.29,5-5,.29-.3L19.59,14Z"/></svg>