<svg id="employment" fill="none" xmlns="http://www.w3.org/2000/svg" viewBox="0 0 22 20"><path fill-rule="evenodd" clip-rule="evenodd" d="M2.93333 5.86666C2.32582 5.86666 1.83333 6.35915 1.83333 6.96666V17.05C1.83333 17.6575 2.32582 18.15 2.93333 18.15H19.0667C19.6742 18.15 20.1667 17.6575 20.1667 17.05V6.96666C20.1667 6.35915 19.6742 5.86666 19.0667 5.86666H2.93333ZM0 6.96666C0 5.34662 1.3133 4.03333 2.93333 4.03333H19.0667C20.6867 4.03333 22 5.34662 22 6.96666V17.05C22 18.67 20.6867 19.9833 19.0667 19.9833H2.93333C1.3133 19.9833 0 18.67 0 17.05V6.96666Z"/><path fill-rule="evenodd" clip-rule="evenodd" d="M6.90945 0.859153C7.45955 0.309047 8.20566 0 8.98363 0H13.017C13.7949 0 14.541 0.309047 15.0911 0.859153C15.6412 1.40926 15.9503 2.15536 15.9503 2.93333V19.0667C15.9503 19.5729 15.5399 19.9833 15.0336 19.9833C14.5274 19.9833 14.117 19.5729 14.117 19.0667V2.93333C14.117 2.6416 14.0011 2.36181 13.7948 2.15552C13.5885 1.94923 13.3087 1.83333 13.017 1.83333H8.98363C8.69189 1.83333 8.4121 1.94923 8.20581 2.15552C7.99952 2.36181 7.88363 2.6416 7.88363 2.93333V19.0667C7.88363 19.5729 7.47322 19.9833 6.96696 19.9833C6.4607 19.9833 6.05029 19.5729 6.05029 19.0667V2.93333C6.05029 2.15536 6.35934 1.40926 6.90945 0.859153Z"/></svg>
