<svg id="Layer_1" data-name="Layer 1" xmlns="http://www.w3.org/2000/svg" viewBox="0 0 22 22"><defs><style>.cls-1{fill-rule:evenodd;}</style></defs><path class="cls-1" d="M14.94,2a2.87,2.87,0,0,0-2,.84L4,11.76a4.83,4.83,0,0,0,6.83,6.83l8.91-8.92a1,1,0,0,1,1.42,0,1,1,0,0,1,0,1.41L12.22,20a6.82,6.82,0,1,1-9.65-9.65l8.92-8.92a4.88,4.88,0,0,1,6.9,6.91L9.46,17.25a2.92,2.92,0,0,1-4.16,0,2.95,2.95,0,0,1,0-4.16l8.24-8.22A1,1,0,0,1,15,6.28L6.72,14.51a.92.92,0,0,0-.28.66,1,1,0,0,0,.28.67.92.92,0,0,0,.66.28,1,1,0,0,0,.67-.28L17,6.92h0a2.87,2.87,0,0,0,.84-2A2.87,2.87,0,0,0,14.94,2Z"/></svg>