<svg id="podcasts" xmlns="http://www.w3.org/2000/svg" viewBox="0 0 22 22"><defs><style>.cls-1{fill-rule:evenodd;}</style></defs><path class="cls-1" d="M11,10a1,1,0,1,0,1,1A1,1,0,0,0,11,10ZM8,11a3,3,0,1,1,3,3A3,3,0,0,1,8,11Z"/><path class="cls-1" d="M4.64,3.22a1,1,0,0,1,0,1.42,9,9,0,0,0,0,12.72,1,1,0,0,1-1.42,1.42,11,11,0,0,1,0-15.56A1,1,0,0,1,4.64,3.22Zm12.72,0a1,1,0,0,1,1.42,0,11,11,0,0,1,0,15.56,1,1,0,0,1-1.42-1.42,9,9,0,0,0,0-12.72A1,1,0,0,1,17.36,3.22ZM7.47,6a1,1,0,0,1,0,1.42A4.82,4.82,0,0,0,6.38,9.08a5,5,0,0,0,0,3.83,4.82,4.82,0,0,0,1.09,1.62A1,1,0,0,1,6.05,16,7,7,0,0,1,4.53,8.31,7.13,7.13,0,0,1,6.05,6,1,1,0,0,1,7.47,6Zm7.06,0a1,1,0,0,1,1.42,0,7,7,0,0,1,1.52,7.64A7.13,7.13,0,0,1,16,16a1,1,0,1,1-1.42-1.42,4.82,4.82,0,0,0,1.09-1.62,5,5,0,0,0,0-3.83,4.82,4.82,0,0,0-1.09-1.62A1,1,0,0,1,14.53,6.05Z"/></svg>
