<svg id="professional-help" xmlns="http://www.w3.org/2000/svg" viewBox="0 0 22 22"><path d="M19.64,4.09l-.56-.57-.6-.6-.77-.76L16.66,1.1a3,3,0,0,0-4.25,0L1.1,12.41a3,3,0,0,0,0,4.25l.72.72,1.1,1.1.6.6.57.56L5.34,20.9a3,3,0,0,0,4.25,0L20.9,9.59a3,3,0,0,0,0-4.25ZM9.37,18.28l-1.2,1.21a1,1,0,0,1-1.41,0L5.5,18.23l-.56-.56-.61-.61L3.24,16l-.73-.73a1,1,0,0,1,0-1.41l1.21-1.2.92-.92,5.65,5.65Zm2.37-2.36,0,0L6.05,10.29l0,0,4.21-4.21L16,11.71Zm7.75-7.75-2.13,2.12L11.71,4.64l2.12-2.13a1,1,0,0,1,1.41,0L16.3,3.57l.76.76.61.61.56.56,1.26,1.26A1,1,0,0,1,19.49,8.17Z"/></svg>
