<svg id="screen-readers" xmlns="http://www.w3.org/2000/svg" viewBox="0 0 22 22"><path d="M11,14.83h0a3.81,3.81,0,0,0,2.63-1.09,3.74,3.74,0,0,0,1.1-2.64V3.83a3.74,3.74,0,0,0-7.46-.39V11.1A3.73,3.73,0,0,0,11,14.83ZM9.27,11.1V3.56s0,0,0,0a1.16,1.16,0,0,1,0-.18l0-.16L9.41,3a1,1,0,0,0,.07-.15l.09-.14a1.13,1.13,0,0,1,.1-.13.63.63,0,0,1,.11-.12l.12-.12L10,2.27a.67.67,0,0,1,.14-.09.69.69,0,0,1,.15-.07.76.76,0,0,1,.16-.06l.15,0a1.08,1.08,0,0,1,.19,0h.34a1.08,1.08,0,0,1,.19,0l.15,0a.76.76,0,0,1,.16.06.69.69,0,0,1,.15.07.67.67,0,0,1,.14.09l.14.09.12.12a.63.63,0,0,1,.11.12,1.13,1.13,0,0,1,.1.13l.09.14a1,1,0,0,0,.07.15l.06.16,0,.16a1.16,1.16,0,0,1,0,.18s0,0,0,0v7.56h0a1.73,1.73,0,0,1-3.45.24Z"/><path d="M17.37,8.28a1,1,0,0,0-1,1V11.1a5.38,5.38,0,0,1-10.74,0V9.28a1,1,0,0,0-2,0V11.1A7.36,7.36,0,0,0,10,18.39V20.1H7.37a1,1,0,0,0,0,2h7.26a1,1,0,1,0,0-2H12V18.39a7.36,7.36,0,0,0,6.37-7.29V9.28A1,1,0,0,0,17.37,8.28Z"/></svg>
