<svg id="table-of-contents" viewBox="0 0 20 14" fill="none" xmlns="http://www.w3.org/2000/svg">
<path fill-rule="evenodd" clip-rule="evenodd" d="M0 5C0 4.44772 0.447715 4 1 4H15C15.5523 4 16 4.44772 16 5C16 5.55228 15.5523 6 15 6H1C0.447715 6 0 5.55228 0 5Z"/>
<path fill-rule="evenodd" clip-rule="evenodd" d="M0 1C0 0.447715 0.447715 0 1 0H19C19.5523 0 20 0.447715 20 1C20 1.55228 19.5523 2 19 2H1C0.447715 2 0 1.55228 0 1Z"/>
<path fill-rule="evenodd" clip-rule="evenodd" d="M0 9C0 8.44772 0.447715 8 1 8H19C19.5523 8 20 8.44772 20 9C20 9.55228 19.5523 10 19 10H1C0.447715 10 0 9.55228 0 9Z"/>
<path fill-rule="evenodd" clip-rule="evenodd" d="M0 13C0 12.4477 0.447715 12 1 12H15C15.5523 12 16 12.4477 16 13C16 13.5523 15.5523 14 15 14H1C0.447715 14 0 13.5523 0 13Z"/>
</svg>
