<svg id="vision-simulators" xmlns="http://www.w3.org/2000/svg" viewBox="0 0 22 22"><defs><style>.cls-1{fill:none;}</style></defs><path class="cls-1" d="M11,9.27A1.73,1.73,0,1,0,12.76,11h0A1.73,1.73,0,0,0,11,9.27Z"/><path d="M11,7.27A3.73,3.73,0,1,0,14.76,11h0A3.73,3.73,0,0,0,11,7.27Zm0,5.45A1.73,1.73,0,1,1,12.76,11h0A1.73,1.73,0,0,1,11,12.72Z"/><path d="M.14,10.55a.94.94,0,0,0,0,.89h0v.07l.14.26c.12.21.3.51.53.87a18.66,18.66,0,0,0,2.05,2.64,11.26,11.26,0,0,0,8.12,4,11.28,11.28,0,0,0,8.12-4,19.06,19.06,0,0,0,2.1-2.56c.23-.36.41-.66.53-.87l.14-.26v-.07h0a1,1,0,0,0,0-.9h0v-.07l-.14-.25c-.12-.21-.3-.52-.53-.88a20,20,0,0,0-2.05-2.7,11.28,11.28,0,0,0-8.12-4,11.26,11.26,0,0,0-8.12,4,19.69,19.69,0,0,0-2,2.64,7.37,7.37,0,0,0-.58.83l-.14.25v.07h0m19.38,1a16.73,16.73,0,0,1-1.83,2.36A9.35,9.35,0,0,1,11,17.27,9.34,9.34,0,0,1,4.37,14a16.73,16.73,0,0,1-1.83-2.36c-.15-.23-.27-.43-.37-.6l.37-.59A15.37,15.37,0,0,1,4.37,8,9.3,9.3,0,0,1,11,4.72,9.34,9.34,0,0,1,17.69,8a16.73,16.73,0,0,1,1.83,2.36l.37.59c-.1.17-.22.37-.37.6Z"/></svg>
