<svg id="Layer_1" data-name="Layer 1" xmlns="http://www.w3.org/2000/svg" viewBox="0 0 535.57 188.28"><defs><style>.cls-1{fill:#232d71}</style></defs><path class="cls-1" d="M60.92 18.89q5-.13 6.46 2.35l.18 1.16q.15 5-20.14 7.86h-5.77l-1.5.22a102.31 102.31 0 00-.74 14.62L41.46 71l.22 7.7c0 1.66-.31 2.66-1.07 3A19.67 19.67 0 0134 83.29q-3.55-9.78-4-25.1-.59-5.74-.73-10.95l-.15-14.87a15.9 15.9 0 00-6.07-.71L8.8 32.5l-2.53.07Q.08 32.75 0 30.82v-.88q-.08-2.78 3.51-5.27A156.69 156.69 0 0129.88 22a184.84 184.84 0 0025.63-2.85z"/><path class="cls-1" d="M65.08 22.54c1.67.7 2.5 1.27 2.52 1.72a226.93 226.93 0 00-1.36 33.38l.27 4.46q2.34-1.93 6.24-14.1c1.12-2.69 2.25-4 3.4-4.08a9.48 9.48 0 013.5-1.61h.71c1 0 1.93 1 2.62 3.16q1.92 4.34 4.37 17.46A39.36 39.36 0 0091 72.4a16.28 16.28 0 003.78 4.22v.14a10.09 10.09 0 01-3.73 3.66c-2 0-4.32-1.06-7.06-3.35a21.33 21.33 0 01-4-7.59L77.46 59q-2.1 2.88-6.23 14.32a31.28 31.28 0 01-5.08 8h-1q-1.38 0-3.73-2.29L60 78.36l.1-1.37a17.1 17.1 0 00-1.46-5.52q.36 0-.19-31 .48-11.7 1.51-15.84a2.44 2.44 0 002.45-1.72v-.14a5.27 5.27 0 002 .57q.36 0 .33-.78zM116.86 49.11a18.7 18.7 0 011 4.68q.21 7-10.6 11.67v.14q3.09 4.8 7.69 4.67 6.41-.19 13.31-10.59 4.32-5.11 6.64-5.18h.28l.29.31v1.44l-.12.57c0 .23.24.39.57.47.64 0 1-.53 1.19-1.55h.28v.14q.08 2.39-3.91 8a8.35 8.35 0 00-.94 2.8c-1.28.35-1.91.89-1.89 1.64a21.39 21.39 0 01-11.4 9.51 20.08 20.08 0 01-4.1.68h-1.44q-10.37.3-20.81-14.38l-1-11.37v-1.05q-.19-7 4.29-8.85 4.8-2.88 8.49-3 7.32-.19 12.18 9.25zm-13.63 10.56c1.06 0 2.67-.91 4.85-2.64a9.81 9.81 0 00.48-2.83 5.93 5.93 0 00-4-5.79l-1.1-.11c-1.45 0-2.16.52-2.14 1.43a8.64 8.64 0 00-.65 4.1q.16 4.17 2.56 5.84zM192 10.5q3.58-.11 8.86 4.88v1.34q.27 9.32 7.13 27.4l1.51.1 5.61-.45c1.79-.05 2.69.45 2.72 1.51q.57.12.57.33c.07 2.44-1.41 4.09-4.46 5l-2.93.82q6.41 15.09 11.38 20.36 3.79 3.33 3.88 6.5a2.65 2.65 0 01-1.68 2.58c0 .28-.68.56-2.05.83h-.88q-4.53.12-11.65-14.86a126.39 126.39 0 01-7.49-14.56l-4.33-.15q-18.94 1.7-18.87 4.06-1.07 1.13-5 10.45c-1.66 2.6-3.54 3.94-5.65 4h-.84c-2 .06-3.22-.43-3.6-1.48l-.34-2.24a38.2 38.2 0 011.1-6.78q0-.6-7.12-1.63c-1.4-.61-2.11-1.33-2.13-2.15a7.52 7.52 0 013.87-3.49l9.83-3.24c.72-.21 1.81-1.61 3.29-4.21a157.4 157.4 0 0010.82-21q1.54-3.91 3.33-10.09c1.08-2.49 2.65-3.77 4.71-3.82zm.87 20.31a117.43 117.43 0 00-7.9 15V46h.14q2.07-.06 11.15-2.5l2-.2q-2.81-9.42-4.3-11.41zM235 10.53c.94 0 1.66 1.05 2.17 3.24a1.3 1.3 0 01.48.76q0 1.49-3.2 24.26a40.15 40.15 0 00-.43 7.08l1.36 16.7q.28 9.76-4.07 12.57c0-.82-1-1.36-3-1.6q-1.69-5.13-2.06-17.74v-.67a167.78 167.78 0 01.22-18.08v-.28q0-1.23-3-4.7l-.16-.66v-.53q0-1.08 3.39-6.71a111.44 111.44 0 004.06-11.69c.27-.4 1.45-1.05 3.53-1.93zM253.39 10c.93 0 1.66 1.05 2.16 3.24a1.2 1.2 0 01.45.76q0 1.47-3.2 24.26a42 42 0 00-.43 7.08L253.76 62q.28 9.76-4.07 12.57c0-.82-1-1.36-3-1.6q-1.69-5.09-2.09-17.7v-.67a162.66 162.66 0 01.22-18.08v-.28c0-.82-1-2.39-3-4.7l-.16-.66v-.53c0-.73 1.11-3 3.4-6.71A113.89 113.89 0 00249.05 12c.27-.41 1.44-1 3.53-1.93zM298.75 0l1.45.49 2.18-.07A2.32 2.32 0 01305.06 3q2.34 9.4 6.07 33.49a203.15 203.15 0 014 33.72l.07 2.1q.39 13.6-8.05 25.88-5.91 7.52-14.62 7.77h-.35q-14.55.42-25.87-17.86a32.86 32.86 0 01-5.07-15.89v-1q-.18-6.6 4.54-9.63l.95-.1q.42 0 1.05 1h.7q.71 0 2 8c1.42 6.06 2.87 10.37 4.35 13q9.09 15.18 16.26 15 3.69-.1 8.55-5.88 6.47-9.18 6-26.48-1-16.24-2.62-17.65-1.09-3.9-3.17-17.1-.21 0-4.2 7.82-8.29 15.22-20.45 15.57-7.93.24-10.26-6a27.58 27.58 0 01-.86-6.38q-.27-9.37 6.14-24.9 2.82-5 6-5.13h.8a5 5 0 014.54 2.33l.32 1.57c0 1.15-.82 3.24-2.56 6.26a44.19 44.19 0 00-3.73 18 34.73 34.73 0 00.63 4.94q5.85-1.89 12-13.61a82.43 82.43 0 005-14.91 126 126 0 002.26-14.31 1.3 1.3 0 011.04-.62l2-2zm-24.13 7.34l.35-.15v.42l-.35-.13zM112.67 93.67a4.15 4.15 0 014.48 3q0 1.27 1.41 1.23a96.62 96.62 0 0124.44 8.3q9.84 4.56 10.08 12.76v.56q.27 9.32-8.51 17.06a84 84 0 01-14.92 9.29l-11.59 3q.33 11.39 1.57 16.66v1.3c.1 3.75-.86 6-2.9 6.87q-5.76.18-7.49-14.55c-.14-4.76-.48-7.51-1-8.27l-1.51.15c-.65-.48-1.21-1.72-1.69-3.72l-.4-.41v-.28q0-.53 3.8-3.52-.69-9.4-1.47-26.83l-.33-8.75q-6.82-1.41-6.86-2.54v-.88q1.31-4.57 1.8-4.59l5-1.66c1-2.68 2.73-4 5.26-4.12zm3.9 13.29q.23 10.44.44 17.71.36 12.62.72 15.32 11.51-3.57 17-7.11a19.53 19.53 0 008.47-11.18 6.62 6.62 0 00.16-1.9v-.14q-.21-7.77-26.79-12.66zM184.63 124.16c2.92-.08 4.41.54 4.45 1.88a6.38 6.38 0 001.6 3.08v.29q-12.33 6.68-17.55 21-2.44 7.62-2.31 12.34c-2.75 1.37-4.6 2.06-5.53 2.09 0-1.1-1.25-2.14-3.65-3.13q-.06-2.39-4.41-19a28.1 28.1 0 01-1.09-7l-.05-1.93q.57-2.34 4.17-2.86h.35c2.88-.09 4.7 1.88 5.45 5.89l-.11 2.32a104.07 104.07 0 009-10q4.89-4.82 9.28-5zM206.61 130.46q7.21-.21 10.24 8.5a15.76 15.76 0 011 5.14v1.3a19.65 19.65 0 01-7.16 16.35 15.06 15.06 0 01-7.34 2.71h-.49q-7.48.22-10.89-9.25a18.32 18.32 0 01-.85-5.08v-.73a38.24 38.24 0 011.51-12.15c.18-.33 1.32-1 3.43-1.89a21.38 21.38 0 002.47-3.24q2.28-1.5 8-1.67zm-6.41 12.84v6.72c.3 3.77 1.19 5.63 2.69 5.59a10.13 10.13 0 004.68-4.75 12.27 12.27 0 001.29-5.55v-.53a9.11 9.11 0 00-3.29-6.94c-1.55 0-2.94 1.07-4.17 3.07a4.09 4.09 0 01-1.27 1.24z"/><path class="cls-1" d="M231.77 123.47a151.34 151.34 0 012.37 25v3.7l.34.9q.6 20.88-2.23 25.14-3.9 9.85-12 10.09h-.14a16.68 16.68 0 01-12.53-5.13c-.53-.52-.82-1.59-.86-3.21q-5.47-6.84-5.55-9.3v-1.12a3.49 3.49 0 011.09-2.57h.42a7.46 7.46 0 012.72 1.57l.56.13h1a14.25 14.25 0 004.3 6.38 66.77 66.77 0 007.78 5.09 9.26 9.26 0 005.17-4.9q2.1-5.19 1.85-13.94l-.86-13.84.33-9.15-.55-9.48q-.21-7.07 3.87-7.18c1.88-.12 2.88.51 2.92 1.82zM229 109.62c2.07-.06 3.48.61 4.25 2l.32 1.29c0 2.06-1.92 3.41-5.94 4h-1c-2.79-.2-4.22-1.26-4.27-3.18-.07-2.3 1.77-3.67 5.5-4.13zM262.7 131.34a18.73 18.73 0 011 4.68q.21 7-10.6 11.67v.14q3.1 4.8 7.7 4.66 6.39-.18 13.31-10.58c2.87-3.41 5.09-5.14 6.63-5.19h.26l.3.3v1.44l-.13.57a.72.72 0 00.58.48c.63 0 1-.54 1.19-1.55h.28v.14q.08 2.4-3.92 8a8.63 8.63 0 00-.94 2.81c-1.28.34-1.91.89-1.89 1.64a21.39 21.39 0 01-11.4 9.51 20 20 0 01-4.09.68h-1.44q-10.37.3-20.82-14.38l-1-11.37v-1c-.13-4.67 1.29-7.61 4.28-8.85q4.82-2.88 8.5-3 7.32-.23 12.2 9.2zm-13.62 10.55q1.57 0 4.85-2.63a9.91 9.91 0 00.48-2.83 5.94 5.94 0 00-4-5.8l-1.09-.1c-1.45 0-2.17.52-2.14 1.43a8.62 8.62 0 00-.66 4.1c.11 2.79.96 4.73 2.56 5.83z"/><path class="cls-1" d="M295.3 124.94a9.55 9.55 0 015.35 1.43 3.11 3.11 0 00-.24 1.52l.79 1.77v.88c-.78 1.69-2.5 3-5.17 4s-4.46 2.07-5.24 3.53a14 14 0 00-1.36 5.38v.88q.12 4.08 4.92 4.75l2-.06q4.74-.14 16.12-5.67c3.27-1.48 5.4-2.23 6.41-2.26h.28c1.69 1.54 2.56 2.72 2.63 3.51-.07.54-1.45 2.14-4.11 4.8-.58 1.33-1.25 2-2 2q-12.81 8.14-22 8.41-9.87.28-13.52-9l-.38-3.23v-1.44q-.31-10.83 8.33-18.7a12.61 12.61 0 016.68-2.41z"/><path class="cls-1" d="M332.3 92.12a4.7 4.7 0 014.69 3.1q-2.31 17.4-2 27.42l.18 6 1.93.09a55.92 55.92 0 0013.76-2.34l2.38-.2q3.24-.11 3.33 3 .13 4.6-6 5.63-2.72.81-14.12 2c0 .18-.33.29-1 .31l1.15 9.25a6.68 6.68 0 01-.78 3.47 5.13 5.13 0 011.12 3.34v1.44c.09 3.23-.2 5-.87 5.23l-3.7-.17c-.42 0-.91.35-1.48 1q-3.84-1.54-4.15-12.12c-.18-6.38-.62-9.55-1.29-9.53q-1.35-1.33-9-1.11-3.45.09-5-3.55v-.42c1.07-2.57 3.65-3.91 7.72-4 2.16 0 3.24.1 3.25.33.72 0 1.23-.63 1.53-1.84l.45-.29h1.23l-.23-1.89a253.68 253.68 0 011.6-31.64 5.88 5.88 0 014.75-2.5zM425.12 94.82q5-.15 6.47 2.34l.17 1.16q.15 5-20.13 7.86h-5.77l-1.51.22a103.8 103.8 0 00-.74 14.62l2.05 25.89.23 7.7c0 1.66-.31 2.66-1.08 3a20.06 20.06 0 01-6.56 1.63q-3.56-9.78-4-25.11-.58-5.75-.74-11l-.15-14.87a15.71 15.71 0 00-6.07-.7l-14.29.83-2.53.07q-6.18.18-6.24-1.75v-.88q-.09-2.77 3.5-5.27A158 158 0 01394.09 98a184.88 184.88 0 0025.62-2.85z"/><path class="cls-1" d="M436.94 126.31a18.73 18.73 0 011 4.68q.21 7-10.6 11.67v.14q3.1 4.8 7.7 4.66 6.39-.18 13.31-10.58 4.32-5.12 6.63-5.19h.29l.29.3v1.44l-.13.57a.72.72 0 00.58.48c.63 0 1-.54 1.19-1.55h.28v.14q.08 2.4-3.92 8a8.63 8.63 0 00-.94 2.81c-1.28.34-1.91.89-1.88 1.64a21.44 21.44 0 01-11.39 9.48 20 20 0 01-4.09.68h-1.44q-10.36.3-20.82-14.38l-1-11.3v-1c-.13-4.67 1.29-7.61 4.28-8.85q4.81-2.88 8.5-3 7.28-.27 12.16 9.16zm-13.62 10.55q1.57 0 4.85-2.63a9.91 9.91 0 00.48-2.83 5.94 5.94 0 00-4-5.8l-1.09-.11c-1.45.05-2.17.52-2.14 1.44a8.62 8.62 0 00-.66 4.1c.11 2.79.96 4.73 2.56 5.83z"/><path class="cls-1" d="M475.29 114.75c1.82 0 3.1 1.46 3.82 4.53q.08 2.43 3.41 15.66a35.75 35.75 0 006.4 12.34q2.46 3.48 2.51 5.41v.88c0 1.1-.64 1.67-2 1.71a6.68 6.68 0 01-2.7 1.38q-3.94-1.32-7.17-6-1.68-3-6.11-13l-.91-1.07A113.39 113.39 0 01464 149a14.25 14.25 0 01-10.44 5.12q-5.68.17-7.58-5.69l-.18-2.43q-.23-8 9.73-20a63.73 63.73 0 0114.5-9.28 7.42 7.42 0 014.55-2zm-19.37 29.68h.14q3.38-.1 6.65-6.1 6.14-8 6-12.41l-.14-.14h-.32q-2.47.84-8.78 7.74a17.1 17.1 0 00-3.7 10.77z"/><path class="cls-1" d="M518.52 119.8c3.13.38 4.82 1 5.08 1.79q2.43 3.66 5.94 13.44a146.92 146.92 0 006 14.88c0 .37-.55 1.06-1.67 2.05 0 .49-.14.74-.47.75q-6.85.19-9.35-7.22-2.57-8.16-4.29-10.81h-.14q-5.92 18.73-8.88 18.83h-1.23q-5.34.15-6.5-10.82c-.76-5.79-1.32-8.68-1.7-8.67-1.15 1.32-2.43 4.75-3.81 10.27q-2.16 9.35-6.13 9.46a6.53 6.53 0 01-3.73-1.33l.15-.74v-.64l-.91-1a17.62 17.62 0 00.73-5.47l-.59-9.45.07-2.21c1 0 1.49-.91 1.44-2.65v-.77q0-.39 2.28-1.23c.22-.59.42-.89.61-.89l1.92.68q.56-.09 4.74-5.2a7.83 7.83 0 012-1.5q6.86-.21 9.71 8.72l.61 1.42h.28a58.94 58.94 0 002.73-7.57 8.86 8.86 0 012-2.88l1.27.14 1-1.4z"/></svg>