<svg width="536" height="189" viewBox="0 0 536 189" fill="none" xmlns="http://www.w3.org/2000/svg">
<g clip-path="url(#clip0_1939_176)">
<path d="M60.92 18.89C64.2534 18.8033 66.4067 19.5867 67.38 21.24L67.56 22.4C67.66 25.7333 60.9467 28.3533 47.42 30.26H41.65L40.15 30.48C39.5546 35.3294 39.3073 40.2153 39.41 45.1L41.46 71L41.68 78.7C41.68 80.36 41.37 81.36 40.61 81.7C38.5157 82.6096 36.279 83.1477 34 83.29C31.6334 76.77 30.3 68.4033 30 58.19C29.6067 54.3633 29.3634 50.7133 29.27 47.24L29.12 32.37C27.1616 31.7431 25.1002 31.5019 23.05 31.66L8.80004 32.5L6.27003 32.57C2.14337 32.69 0.0533682 32.1067 3.48842e-05 30.82V29.94C-0.0532984 28.0867 1.1167 26.33 3.51003 24.67C12.2089 23.0368 21.0304 22.1436 29.88 22C38.4793 21.6479 47.0435 20.6955 55.51 19.15L60.92 18.89Z" fill="#9299CE"/>
<path d="M65.08 22.54C66.75 23.24 67.5798 23.81 67.5998 24.26C66.327 35.3381 65.8724 46.495 66.2398 57.64L66.51 62.1C68.07 60.8133 70.15 56.1133 72.75 48C73.87 45.31 75 44 76.15 43.92C77.1941 43.1494 78.3854 42.6015 79.65 42.31H80.36C81.36 42.31 82.29 43.31 82.98 45.47C84.26 48.3633 85.7165 54.1833 87.3498 62.93C88.1527 66.231 89.3797 69.4141 91 72.4C92.0036 74.0168 93.283 75.4451 94.7799 76.62V76.76C93.8795 78.2864 92.5931 79.5487 91.05 80.42C89.05 80.42 86.7298 79.36 83.9898 77.07C82.1562 74.837 80.7953 72.2548 79.9898 69.48L77.4599 59C76.0599 60.92 73.9833 65.6933 71.23 73.32C69.9527 76.2292 68.2398 78.9268 66.15 81.32H65.15C64.23 81.32 62.9865 80.5567 61.4198 79.03L60 78.36L60.0998 76.99C59.926 75.0812 59.4325 73.2152 58.6399 71.47C58.8799 71.47 58.8166 61.1367 58.45 40.47C58.77 32.67 59.2733 27.39 59.9599 24.63C60.5014 24.6562 61.036 24.5013 61.4796 24.1899C61.9232 23.8784 62.2506 23.4281 62.41 22.91V22.77C63.0321 23.091 63.712 23.2847 64.41 23.34C64.65 23.34 64.7598 23.08 64.7398 22.56L65.08 22.54ZM116.86 49.11C117.392 50.6207 117.728 52.1936 117.86 53.79C118 58.4567 114.467 62.3467 107.26 65.46V65.6C109.32 68.8 111.883 70.3567 114.95 70.27C119.223 70.1433 123.66 66.6133 128.26 59.68C131.14 56.2733 133.353 54.5467 134.9 54.5H135.18L135.47 54.81V56.25L135.35 56.82C135.35 57.05 135.59 57.21 135.92 57.29C136.56 57.29 136.92 56.76 137.11 55.74H137.39V55.88C137.443 57.4733 136.14 60.14 133.48 63.88C133.003 64.7501 132.684 65.6982 132.54 66.68C131.26 67.03 130.63 67.57 130.65 68.32C128.107 72.7493 124.063 76.1227 119.25 77.83C117.91 78.1979 116.536 78.4258 115.15 78.51H113.71C106.797 78.71 99.86 73.9167 92.9 64.13L91.9 52.76V51.71C91.7733 47.0433 93.2033 44.0933 96.19 42.86C99.39 40.94 102.22 39.94 104.68 39.86C109.56 39.7333 113.62 42.8167 116.86 49.11ZM103.23 59.67C104.29 59.67 105.9 58.76 108.08 57.03C108.378 56.1153 108.54 55.1618 108.56 54.2C108.599 52.9343 108.231 51.6894 107.512 50.6475C106.792 49.6056 105.758 48.8215 104.56 48.41L103.46 48.3C102.01 48.3 101.3 48.82 101.32 49.73C100.773 51.0235 100.55 52.4308 100.67 53.83C100.777 56.61 101.63 58.5567 103.23 59.67ZM192 10.5C194.387 10.4267 197.34 12.0533 200.86 15.38V16.72C201.04 22.9333 203.417 32.0667 207.99 44.12L209.5 44.22L215.11 43.77C216.9 43.72 217.8 44.22 217.83 45.28C218.21 45.36 218.4 45.47 218.4 45.61C218.47 48.05 216.99 49.7 213.94 50.61L211.01 51.43C215.283 61.49 219.077 68.2767 222.39 71.79C224.917 74.01 226.21 76.1767 226.27 78.29C226.293 78.8414 226.144 79.3865 225.843 79.849C225.542 80.3115 225.104 80.6685 224.59 80.87C224.59 81.15 223.91 81.43 222.54 81.7H221.66C218.64 81.78 214.757 76.8267 210.01 66.84C207.201 62.1537 204.699 57.2901 202.52 52.28L198.19 52.13C185.563 53.2633 179.273 54.6167 179.32 56.19C178.607 56.9433 176.94 60.4267 174.32 66.64C172.66 69.24 170.78 70.58 168.67 70.64H167.83C165.83 70.7 164.61 70.21 164.23 69.16L163.89 66.92C164.052 64.6316 164.42 62.3624 164.99 60.14C164.99 59.74 162.617 59.1967 157.87 58.51C156.47 57.9 155.76 57.18 155.74 56.36C156.573 54.7726 157.945 53.5349 159.61 52.87L169.44 49.63C170.16 49.42 171.25 48.02 172.73 45.42C176.858 38.7009 180.474 31.6812 183.55 24.42C184.577 21.8133 185.687 18.45 186.88 14.33C187.96 11.84 189.53 10.56 191.59 10.51L192 10.5ZM192.87 30.81C189.879 35.6131 187.238 40.6262 184.97 45.81V46H185.11C186.49 45.96 190.207 45.1267 196.26 43.5L198.26 43.3C196.387 37.02 194.953 33.2167 193.96 31.89L192.87 30.81ZM235 10.53C235.94 10.53 236.66 11.58 237.17 13.77C237.415 13.9582 237.585 14.2276 237.65 14.53C237.65 15.5233 236.583 23.61 234.45 38.79C234.098 41.1327 233.954 43.5019 234.02 45.87L235.38 62.57C235.567 69.0767 234.21 73.2667 231.31 75.14C231.31 74.32 230.31 73.78 228.31 73.54C227.183 70.12 226.497 64.2067 226.25 55.8V55.13C225.998 49.1038 226.072 43.0683 226.47 37.05V36.77C226.47 35.95 225.47 34.3833 223.47 32.07L223.31 31.41V30.88C223.31 30.16 224.44 27.9233 226.7 24.17C228.269 20.3515 229.624 16.4489 230.76 12.48C231.03 12.08 232.21 11.43 234.29 10.55L235 10.53ZM253.39 10C254.32 10 255.05 11.05 255.55 13.24C255.791 13.4269 255.952 13.6987 256 14C256 14.98 254.933 23.0667 252.8 38.26C252.457 40.6037 252.313 42.9721 252.37 45.34L253.76 62C253.947 68.5067 252.59 72.6967 249.69 74.57C249.69 73.75 248.69 73.21 246.69 72.97C245.563 69.5767 244.867 63.6767 244.6 55.27V54.6C244.338 48.5739 244.411 42.5379 244.82 36.52V36.24C244.82 35.42 243.82 33.85 241.82 31.54L241.66 30.88V30.35C241.66 29.62 242.77 27.35 245.06 23.64C246.599 19.8347 247.931 15.9491 249.05 12C249.32 11.59 250.49 11 252.58 10.07L253.39 10ZM298.75 0L300.2 0.49L302.38 0.42C302.736 0.361081 303.102 0.386233 303.447 0.493452C303.792 0.60067 304.107 0.786992 304.367 1.03757C304.628 1.28815 304.826 1.59606 304.946 1.93676C305.066 2.27747 305.105 2.64155 305.06 3C306.62 9.26667 308.643 20.43 311.13 36.49C313.402 47.5987 314.74 58.8781 315.13 70.21L315.2 72.31C315.46 81.3767 312.777 90.0033 307.15 98.19C303.21 103.203 298.337 105.793 292.53 105.96H292.18C282.48 106.24 273.857 100.287 266.31 88.1C263.281 83.3275 261.535 77.8546 261.24 72.21V71.21C261.12 66.81 262.633 63.6 265.78 61.58L266.73 61.48C267.01 61.48 267.36 61.8133 267.78 62.48H268.48C268.953 62.48 269.62 65.1467 270.48 70.48C271.9 76.54 273.35 80.85 274.83 83.48C280.89 93.6 286.31 98.6 291.09 98.48C293.55 98.4133 296.4 96.4533 299.64 92.6C303.953 86.48 305.953 77.6533 305.64 66.12C304.973 55.2933 304.1 49.41 303.02 48.47C302.293 45.87 301.237 40.17 299.85 31.37C299.71 31.37 298.31 33.9767 295.65 39.19C290.123 49.3367 283.307 54.5267 275.2 54.76C269.913 54.92 266.493 52.92 264.94 48.76C264.405 46.6742 264.117 44.5329 264.08 42.38C263.9 36.1333 265.947 27.8333 270.22 17.48C272.1 14.1467 274.1 12.4367 276.22 12.35H277.02C277.916 12.2949 278.811 12.4822 279.61 12.8922C280.408 13.3022 281.082 13.9198 281.56 14.68L281.88 16.25C281.88 17.4 281.06 19.49 279.32 22.51C276.829 28.1822 275.558 34.3149 275.59 40.51C275.681 42.1696 275.892 43.8205 276.22 45.45C280.12 44.19 284.12 39.6533 288.22 31.84C290.358 27.0407 292.032 22.048 293.22 16.93C294.247 12.2073 295.002 7.4294 295.48 2.62C295.59 2.44003 295.742 2.28955 295.923 2.18153C296.105 2.07351 296.309 2.01121 296.52 2L298.52 0H298.75ZM274.62 7.34L274.97 7.19V7.61L274.62 7.48V7.34ZM112.67 93.67C113.652 93.5546 114.642 93.7934 115.464 94.3434C116.285 94.8933 116.883 95.7184 117.15 96.67C117.15 97.5167 117.62 97.9267 118.56 97.9C127.041 99.5612 135.261 102.353 143 106.2C149.56 109.24 152.92 113.493 153.08 118.96V119.52C153.26 125.733 150.423 131.42 144.57 136.58C139.935 140.19 134.934 143.304 129.65 145.87L118.06 148.87C118.28 156.463 118.803 162.017 119.63 165.53V166.83C119.73 170.58 118.77 172.83 116.73 173.7C112.89 173.82 110.393 168.97 109.24 159.15C109.1 154.39 108.76 151.64 108.24 150.88L106.73 151.03C106.08 150.55 105.52 149.31 105.04 147.31L104.64 146.9V146.62C104.64 146.267 105.907 145.093 108.44 143.1C107.98 136.833 107.49 127.89 106.97 116.27L106.64 107.52C102.093 106.58 99.8066 105.733 99.7799 104.98V104.1C100.653 101.053 101.253 99.5233 101.58 99.51L106.58 97.85C107.58 95.17 109.31 93.85 111.84 93.73L112.67 93.67ZM116.57 106.96C116.723 113.92 116.87 119.823 117.01 124.67C117.25 133.083 117.49 138.19 117.73 139.99C125.403 137.61 131.07 135.24 134.73 132.88C138.84 130.331 141.858 126.347 143.2 121.7C143.345 121.078 143.399 120.438 143.36 119.8V119.66C143.22 114.48 134.29 110.26 116.57 107V106.96ZM184.63 124.16C187.55 124.08 189.04 124.7 189.08 126.04C189.318 127.195 189.872 128.261 190.68 129.12V129.41C182.46 133.863 176.61 140.863 173.13 150.41C171.503 155.49 170.733 159.603 170.82 162.75C168.07 164.12 166.22 164.81 165.29 164.84C165.29 163.74 164.04 162.7 161.64 161.71C161.6 160.117 160.13 153.783 157.23 142.71C156.573 140.432 156.207 138.08 156.14 135.71L156.09 133.78C156.47 132.22 157.86 131.267 160.26 130.92H160.61C163.49 130.83 165.31 132.8 166.06 136.81L165.95 139.13C169.162 135.994 172.169 132.654 174.95 129.13C178.21 125.917 181.303 124.25 184.23 124.13L184.63 124.16ZM206.61 130.46C211.417 130.32 214.83 133.153 216.85 138.96C217.468 140.606 217.806 142.343 217.85 144.1V145.4C218.032 148.497 217.478 151.593 216.233 154.435C214.989 157.277 213.089 159.783 210.69 161.75C208.525 163.284 205.993 164.219 203.35 164.46H202.86C197.873 164.607 194.243 161.523 191.97 155.21C191.449 153.565 191.163 151.855 191.12 150.13V149.4C190.967 145.295 191.477 141.193 192.63 137.25C192.81 136.92 193.95 136.25 196.06 135.36C196.985 134.361 197.812 133.276 198.53 132.12C200.05 131.12 202.717 130.563 206.53 130.45L206.61 130.46ZM200.2 143.3V150.02C200.5 153.79 201.39 155.65 202.89 155.61C204.941 154.6 206.591 152.926 207.57 150.86C208.43 149.137 208.871 147.236 208.86 145.31V144.78C208.85 143.453 208.55 142.145 207.982 140.946C207.414 139.748 206.591 138.687 205.57 137.84C204.02 137.84 202.63 138.91 201.4 140.91C201.072 141.411 200.639 141.835 200.13 142.15L200.2 143.3Z" fill="#9299CE"/>
<path d="M231.77 123.47C233.251 131.723 234.044 140.085 234.14 148.47V152.17L234.48 153.07C234.88 166.99 234.137 175.37 232.25 178.21C229.65 184.777 225.65 188.14 220.25 188.3H220.11C217.779 188.368 215.459 187.947 213.301 187.064C211.143 186.18 209.194 184.854 207.58 183.17C207.05 182.65 206.76 181.58 206.72 179.96C203.073 175.4 201.223 172.3 201.17 170.66V169.54C201.165 169.06 201.259 168.583 201.447 168.141C201.635 167.699 201.911 167.3 202.26 166.97H202.68C203.688 167.294 204.615 167.83 205.4 168.54L205.96 168.67H206.96C207.781 171.151 209.269 173.358 211.26 175.05C213.732 176.925 216.332 178.626 219.04 180.14C220.183 179.705 221.228 179.048 222.115 178.207C223.002 177.366 223.714 176.358 224.21 175.24C225.61 171.78 226.227 167.133 226.06 161.3L225.2 147.46L225.53 138.31L224.98 128.83C224.84 124.117 226.13 121.723 228.85 121.65C230.73 121.53 231.73 122.16 231.77 123.47ZM229 109.62C231.07 109.56 232.48 110.23 233.25 111.62L233.57 112.91C233.57 114.97 231.65 116.32 227.63 116.91H226.63C223.84 116.71 222.41 115.65 222.36 113.73C222.29 111.43 224.13 110.06 227.86 109.6L229 109.62ZM262.7 131.34C263.232 132.851 263.568 134.424 263.7 136.02C263.84 140.687 260.307 144.577 253.1 147.69V147.83C255.167 151.03 257.733 152.583 260.8 152.49C265.06 152.37 269.497 148.843 274.11 141.91C276.98 138.5 279.2 136.77 280.74 136.72H281L281.3 137.02V138.46L281.17 139.03C281.213 139.156 281.29 139.267 281.392 139.352C281.495 139.437 281.619 139.491 281.75 139.51C282.38 139.51 282.75 138.97 282.94 137.96H283.22V138.1C283.273 139.7 281.967 142.367 279.3 146.1C278.827 146.975 278.509 147.926 278.36 148.91C277.08 149.25 276.45 149.8 276.47 150.55C273.927 154.979 269.884 158.353 265.07 160.06C263.734 160.428 262.363 160.656 260.98 160.74H259.54C252.627 160.94 245.687 156.147 238.72 146.36L237.72 134.99V133.99C237.59 129.32 239.01 126.38 242 125.14C245.213 123.22 248.047 122.22 250.5 122.14C255.38 121.987 259.447 125.053 262.7 131.34ZM249.08 141.89C250.127 141.89 251.743 141.013 253.93 139.26C254.227 138.345 254.388 137.392 254.41 136.43C254.45 135.163 254.083 133.916 253.363 132.873C252.643 131.829 251.608 131.043 250.41 130.63L249.32 130.53C247.87 130.53 247.15 131.05 247.18 131.96C246.629 133.252 246.403 134.66 246.52 136.06C246.63 138.85 247.48 140.79 249.08 141.89Z" fill="#9299CE"/>
<path d="M295.3 124.94C297.185 124.878 299.047 125.375 300.65 126.37C300.444 126.849 300.361 127.371 300.41 127.89L301.2 129.66V130.54C300.42 132.23 298.7 133.54 296.03 134.54C293.36 135.54 291.57 136.61 290.79 138.07C289.982 139.755 289.52 141.584 289.43 143.45V144.33C289.51 147.05 291.15 148.633 294.35 149.08L296.35 149.02C299.51 148.927 304.883 147.037 312.47 143.35C315.74 141.87 317.87 141.12 318.88 141.09H319.16C320.85 142.63 321.72 143.81 321.79 144.6C321.72 145.14 320.34 146.74 317.68 149.4C317.1 150.73 316.43 151.4 315.68 151.4C307.14 156.827 299.807 159.63 293.68 159.81C287.1 159.997 282.593 156.997 280.16 150.81L279.78 147.58V146.14C279.573 138.92 282.35 132.687 288.11 127.44C290.06 126.013 292.378 125.177 294.79 125.03L295.3 124.94Z" fill="#9299CE"/>
<path d="M332.3 92.12C333.311 92.0623 334.314 92.3328 335.16 92.8915C336.005 93.4501 336.647 94.2668 336.99 95.22C335.45 106.82 334.783 115.96 334.99 122.64L335.17 128.64L337.1 128.73C341.766 128.528 346.389 127.742 350.86 126.39L353.24 126.19C355.4 126.117 356.51 127.117 356.57 129.19C356.657 132.257 354.657 134.133 350.57 134.82C348.757 135.36 344.05 136.027 336.45 136.82C336.45 137 336.12 137.11 335.45 137.13L336.6 146.38C336.658 147.586 336.389 148.785 335.82 149.85C336.576 150.796 336.973 151.979 336.94 153.19V154.63C337.03 157.86 336.74 159.63 336.07 159.86L332.37 159.69C331.95 159.69 331.46 160.04 330.89 160.69C328.33 159.663 326.947 155.623 326.74 148.57C326.56 142.19 326.12 139.02 325.45 139.04C324.55 138.153 321.55 137.783 316.45 137.93C314.15 137.99 312.483 136.807 311.45 134.38V133.96C312.52 131.39 315.1 130.05 319.17 129.96C321.33 129.96 322.41 130.06 322.42 130.29C323.14 130.29 323.65 129.66 323.95 128.45L324.4 128.16H325.63L325.4 126.27C325.274 115.7 325.808 105.133 327 94.63C327.536 93.8662 328.247 93.2411 329.073 92.8064C329.899 92.3716 330.817 92.1398 331.75 92.13L332.3 92.12ZM425.12 94.82C428.453 94.72 430.61 95.5 431.59 97.16L431.76 98.32C431.86 101.653 425.15 104.273 411.63 106.18H405.86L404.35 106.4C403.76 111.25 403.512 116.135 403.61 121.02L405.66 146.91L405.89 154.61C405.89 156.27 405.58 157.27 404.81 157.61C402.731 158.52 400.513 159.072 398.25 159.24C395.877 152.72 394.543 144.35 394.25 134.13C393.863 130.297 393.617 126.63 393.51 123.13L393.36 108.26C391.402 107.632 389.34 107.394 387.29 107.56L373 108.39L370.47 108.46C366.35 108.58 364.27 107.997 364.23 106.71V105.83C364.17 103.983 365.337 102.227 367.73 100.56C376.429 98.9705 385.247 98.1141 394.09 98C402.686 97.6473 411.247 96.695 419.71 95.15L425.12 94.82Z" fill="#9299CE"/>
<path d="M436.94 126.31C437.472 127.821 437.808 129.394 437.94 130.99C438.08 135.657 434.547 139.547 427.34 142.66V142.8C429.407 146 431.973 147.553 435.04 147.46C439.3 147.34 443.737 143.813 448.35 136.88C451.23 133.467 453.44 131.737 454.98 131.69H455.27L455.56 131.99V133.43L455.43 134C455.473 134.126 455.55 134.237 455.652 134.322C455.754 134.407 455.878 134.461 456.01 134.48C456.64 134.48 457.01 133.94 457.2 132.93H457.48V133.07C457.533 134.67 456.227 137.337 453.56 141.07C453.087 141.945 452.769 142.896 452.62 143.88C451.34 144.22 450.71 144.77 450.74 145.52C448.191 149.933 444.153 153.294 439.35 155C438.014 155.368 436.643 155.596 435.26 155.68H433.82C426.913 155.88 419.973 151.087 413 141.3L412 130V129C411.87 124.33 413.29 121.39 416.28 120.15C419.487 118.23 422.32 117.23 424.78 117.15C429.633 116.97 433.687 120.023 436.94 126.31ZM423.32 136.86C424.367 136.86 425.983 135.983 428.17 134.23C428.466 133.315 428.628 132.362 428.65 131.4C428.689 130.133 428.322 128.886 427.603 127.843C426.883 126.799 425.848 126.013 424.65 125.6L423.56 125.49C422.11 125.54 421.39 126.01 421.42 126.93C420.869 128.222 420.642 129.63 420.76 131.03C420.87 133.82 421.72 135.76 423.32 136.86Z" fill="#9299CE"/>
<path d="M475.29 114.75C477.11 114.75 478.39 116.21 479.11 119.28C479.163 120.9 480.3 126.12 482.52 134.94C483.825 139.432 486 143.625 488.92 147.28C490.56 149.6 491.397 151.403 491.43 152.69V153.57C491.43 154.67 490.79 155.24 489.43 155.28C488.648 155.941 487.724 156.413 486.73 156.66C484.103 155.78 481.713 153.78 479.56 150.66C478.44 148.66 476.403 144.327 473.45 137.66L472.54 136.59C469.972 140.911 467.119 145.057 464 149C462.718 150.539 461.125 151.791 459.326 152.673C457.527 153.556 455.562 154.048 453.56 154.12C449.773 154.233 447.247 152.337 445.98 148.43L445.8 146C445.647 140.667 448.89 134 455.53 126C459.921 122.265 464.799 119.143 470.03 116.72C471.272 115.55 472.879 114.844 474.58 114.72L475.29 114.75ZM455.92 144.43H456.06C458.313 144.363 460.53 142.33 462.71 138.33C466.803 132.997 468.803 128.86 468.71 125.92L468.57 125.78H468.25C466.603 126.34 463.677 128.92 459.47 133.52C457.043 136.582 455.737 140.383 455.77 144.29L455.92 144.43Z" fill="#9299CE"/>
<path d="M518.52 119.8C521.65 120.18 523.34 120.8 523.6 121.59C525.22 124.03 527.2 128.51 529.54 135.03C531.267 140.096 533.27 145.063 535.54 149.91C535.54 150.28 534.99 150.97 533.87 151.96C533.87 152.45 533.73 152.7 533.4 152.71C528.833 152.837 525.717 150.43 524.05 145.49C522.337 140.05 520.907 136.447 519.76 134.68H519.62C515.673 147.167 512.713 153.443 510.74 153.51H509.51C505.95 153.61 503.783 150.003 503.01 142.69C502.25 136.9 501.69 134.01 501.31 134.02C500.16 135.34 498.88 138.77 497.5 144.29C496.06 150.523 494.017 153.677 491.37 153.75C490.019 153.703 488.716 153.239 487.64 152.42L487.79 151.68V151.04L486.88 150.04C487.409 148.266 487.655 146.42 487.61 144.57L487.02 135.12L487.09 132.91C488.09 132.91 488.58 132 488.53 130.26V129.49C488.53 129.23 489.29 128.82 490.81 128.26C491.03 127.67 491.23 127.37 491.42 127.37L493.34 128.05C493.713 127.99 495.293 126.257 498.08 122.85C498.662 122.246 499.337 121.74 500.08 121.35C504.653 121.21 507.89 124.117 509.79 130.07L510.4 131.49H510.68C511.761 129.032 512.673 126.503 513.41 123.92C513.878 122.836 514.558 121.857 515.41 121.04L516.68 121.18L517.68 119.78L518.52 119.8Z" fill="#9299CE"/>
</g>
<defs>
<clipPath id="clip0_1939_176">
<rect width="536" height="189" fill="white"/>
</clipPath>
</defs>
</svg>
