<svg viewBox="0 0 160 90" xmlns="http://www.w3.org/2000/svg" fill-rule="evenodd" clip-rule="evenodd" stroke-linejoin="round" stroke-miterlimit="2"><path fill="none" d="M0 0h160v90H0z"/><clipPath id="a"><path d="M0 0h160v90H0z"/></clipPath><g clip-path="url(#a)"><clipPath id="b"><path d="M-66.725-5.613H49.5v116.225H-66.725z"/></clipPath><g clip-path="url(#b)"><path fill="#380021" d="M-66.752-5.666H49.473v14.59H-66.752z"/><path fill="#fff4f7" d="M-66.752 8.924H49.473v5.688H-66.752z"/><path fill="#5c2e49" d="M-66.752 14.612H49.473v2.967H-66.752z"/><path fill="#380021" d="M-66.752 17.579H49.473v2.967H-66.752z"/><path fill="#fff4f7" d="M-66.752 20.547H49.473v2.967H-66.752z"/><path fill="#5c2e49" d="M-66.752 23.514H49.473v5.688H-66.752z"/><path fill="#cc284e" d="M-66.752 29.202H49.473v2.967H-66.752z"/><path fill="#5c2e49" d="M-66.752 32.169H49.473v5.688H-66.752z"/><path fill="#fff4f7" d="M-66.752 37.857H49.473v2.967H-66.752z"/><path fill="#cc284e" d="M-66.752 40.824H49.473v2.967H-66.752z"/><path fill="#5c2e49" d="M-66.752 43.792H49.473v2.967H-66.752z"/><path fill="#fff4f7" d="M-66.752 46.759H49.473v5.688H-66.752z"/><path fill="#cc284e" d="M-66.752 52.447H49.473v14.59H-66.752z"/><path fill="#fff4f7" d="M-66.752 67.037H49.473v5.688H-66.752z"/><path fill="#5c2e49" d="M-66.752 72.724H49.473v2.967H-66.752z"/><path fill="#cc284e" d="M-66.752 75.692H49.473v2.967H-66.752z"/><path fill="#fff4f7" d="M-66.752 78.659H49.473v2.967H-66.752z"/><path fill="#5c2e49" d="M-66.752 81.627H49.473v5.688H-66.752z"/><path fill="#380021" d="M-66.752 87.314H49.473v2.967H-66.752z"/><path fill="#5c2e49" d="M-66.752 90.282H49.473v5.688H-66.752z"/><g opacity=".5"><path d="M-8.639-5.666v116.225h14.59V-5.666h-14.59z" fill="#cc284e"/><path d="M5.951-5.666v116.225h5.687V-5.666H5.951z" fill="#fff4f7"/><path d="M11.638-5.666v116.225h2.968V-5.666h-2.968z" fill="#5c2e49"/><path d="M14.606-5.666v116.225h2.967V-5.666h-2.967z" fill="#cc284e"/><path d="M17.573-5.666v116.225h2.968V-5.666h-2.968z" fill="#fff4f7"/><path d="M20.541-5.666v116.225h5.687V-5.666h-5.687z" fill="#5c2e49"/><path d="M26.228-5.666v116.225h2.968V-5.666h-2.968z" fill="#380021"/><path d="M29.196-5.666v116.225h5.687V-5.666h-5.687z" fill="#5c2e49"/><path d="M34.883-5.666v116.225h2.968V-5.666h-2.968z" fill="#fff4f7"/><path d="M37.851-5.666v116.225h2.967V-5.666h-2.967z" fill="#380021"/><path d="M40.818-5.666v116.225h2.968V-5.666h-2.968z" fill="#5c2e49"/><path d="M43.786-5.666v116.225h5.687V-5.666h-5.687z" fill="#fff4f7"/></g><g opacity=".5"><path fill="#380021" d="M-66.752-5.666H49.473v14.59H-66.752z"/><path fill="#fff4f7" d="M-66.752 8.924H49.473v5.688H-66.752z"/><path fill="#5c2e49" d="M-66.752 14.612H49.473v2.967H-66.752z"/><path fill="#380021" d="M-66.752 17.579H49.473v2.967H-66.752z"/><path fill="#fff4f7" d="M-66.752 20.547H49.473v2.967H-66.752z"/><path fill="#5c2e49" d="M-66.752 23.514H49.473v5.688H-66.752z"/><path fill="#cc284e" d="M-66.752 29.202H49.473v2.967H-66.752z"/><path fill="#5c2e49" d="M-66.752 32.169H49.473v5.688H-66.752z"/><path fill="#fff4f7" d="M-66.752 37.857H49.473v2.967H-66.752z"/><path fill="#cc284e" d="M-66.752 40.824H49.473v2.967H-66.752z"/><path fill="#5c2e49" d="M-66.752 43.792H49.473v2.967H-66.752z"/><path fill="#fff4f7" d="M-66.752 46.759H49.473v5.688H-66.752z"/><path fill="#cc284e" d="M-66.752 52.447H49.473v14.59H-66.752z"/><path fill="#fff4f7" d="M-66.752 67.037H49.473v5.688H-66.752z"/><path fill="#5c2e49" d="M-66.752 72.724H49.473v2.967H-66.752z"/><path fill="#cc284e" d="M-66.752 75.692H49.473v2.967H-66.752z"/><path fill="#fff4f7" d="M-66.752 78.659H49.473v2.967H-66.752z"/><path fill="#5c2e49" d="M-66.752 81.627H49.473v5.688H-66.752z"/><path fill="#380021" d="M-66.752 87.314H49.473v2.967H-66.752z"/><path fill="#5c2e49" d="M-66.752 90.282H49.473v5.688H-66.752z"/></g><g opacity=".5"><path d="M-8.639-5.666v116.225h14.59V-5.666h-14.59z" fill="#cc284e"/><path d="M5.951-5.666v116.225h5.687V-5.666H5.951z" fill="#fff4f7"/><path d="M11.638-5.666v116.225h2.968V-5.666h-2.968z" fill="#5c2e49"/><path d="M14.606-5.666v116.225h2.967V-5.666h-2.967z" fill="#cc284e"/><path d="M17.573-5.666v116.225h2.968V-5.666h-2.968z" fill="#fff4f7"/><path d="M20.541-5.666v116.225h5.687V-5.666h-5.687z" fill="#5c2e49"/><path d="M26.228-5.666v116.225h2.968V-5.666h-2.968z" fill="#380021"/><path d="M29.196-5.666v116.225h5.687V-5.666h-5.687z" fill="#5c2e49"/><path d="M34.883-5.666v116.225h2.968V-5.666h-2.968z" fill="#fff4f7"/><path d="M37.851-5.666v116.225h2.967V-5.666h-2.967z" fill="#380021"/><path d="M40.818-5.666v116.225h2.968V-5.666h-2.968z" fill="#5c2e49"/><path d="M43.786-5.666v116.225h5.687V-5.666h-5.687z" fill="#fff4f7"/></g></g><clipPath id="c"><path d="M49.5-5.613h116.225v116.225H49.5z"/></clipPath><g clip-path="url(#c)"><path fill="#380021" d="M49.473-5.666h116.225v14.59H49.473z"/><path fill="#fff4f7" d="M49.473 8.924h116.225v5.688H49.473z"/><path fill="#5c2e49" d="M49.473 14.612h116.225v2.967H49.473z"/><path fill="#380021" d="M49.473 17.579h116.225v2.967H49.473z"/><path fill="#fff4f7" d="M49.473 20.547h116.225v2.967H49.473z"/><path fill="#5c2e49" d="M49.473 23.514h116.225v5.688H49.473z"/><path fill="#cc284e" d="M49.473 29.202h116.225v2.967H49.473z"/><path fill="#5c2e49" d="M49.473 32.169h116.225v5.688H49.473z"/><path fill="#fff4f7" d="M49.473 37.857h116.225v2.967H49.473z"/><path fill="#cc284e" d="M49.473 40.824h116.225v2.967H49.473z"/><path fill="#5c2e49" d="M49.473 43.792h116.225v2.967H49.473z"/><path fill="#fff4f7" d="M49.473 46.759h116.225v5.688H49.473z"/><path fill="#cc284e" d="M49.473 52.447h116.225v14.59H49.473z"/><path fill="#fff4f7" d="M49.473 67.037h116.225v5.688H49.473z"/><path fill="#5c2e49" d="M49.473 72.724h116.225v2.967H49.473z"/><path fill="#cc284e" d="M49.473 75.692h116.225v2.967H49.473z"/><path fill="#fff4f7" d="M49.473 78.659h116.225v2.967H49.473z"/><path fill="#5c2e49" d="M49.473 81.627h116.225v5.688H49.473z"/><path fill="#380021" d="M49.473 87.314h116.225v2.967H49.473z"/><path fill="#5c2e49" d="M49.473 90.282h116.225v5.688H49.473z"/><g opacity=".5"><path d="M49.473-5.666v116.225h14.59V-5.666h-14.59z" fill="#380021"/><path d="M64.063-5.666v116.225h5.688V-5.666h-5.688z" fill="#fff4f7"/><path d="M69.751-5.666v116.225h2.967V-5.666h-2.967z" fill="#5c2e49"/><path d="M72.718-5.666v116.225h2.968V-5.666h-2.968z" fill="#380021"/><path d="M75.686-5.666v116.225h2.967V-5.666h-2.967z" fill="#fff4f7"/><path d="M78.653-5.666v116.225h5.688V-5.666h-5.688z" fill="#5c2e49"/><path d="M84.341-5.666v116.225h2.967V-5.666h-2.967z" fill="#cc284e"/><path d="M87.308-5.666v116.225h5.688V-5.666h-5.688z" fill="#5c2e49"/><path d="M92.996-5.666v116.225h2.968V-5.666h-2.968z" fill="#fff4f7"/><path d="M95.964-5.666v116.225h2.967V-5.666h-2.967z" fill="#cc284e"/><path d="M98.931-5.666v116.225h2.967V-5.666h-2.967z" fill="#5c2e49"/><path d="M101.898-5.666v116.225h5.688V-5.666h-5.688z" fill="#fff4f7"/><path d="M107.586-5.666v116.225h14.59V-5.666h-14.59z" fill="#cc284e"/><path d="M122.176-5.666v116.225h5.688V-5.666h-5.688z" fill="#fff4f7"/><path d="M127.864-5.666v116.225h2.967V-5.666h-2.967z" fill="#5c2e49"/><path d="M130.831-5.666v116.225h2.968V-5.666h-2.968z" fill="#cc284e"/><path d="M133.799-5.666v116.225h2.967V-5.666h-2.967z" fill="#fff4f7"/><path d="M136.766-5.666v116.225h5.688V-5.666h-5.688z" fill="#5c2e49"/><path d="M142.454-5.666v116.225h2.967V-5.666h-2.967z" fill="#380021"/><path d="M145.421-5.666v116.225h5.688V-5.666h-5.688z" fill="#5c2e49"/><path d="M151.109-5.666v116.225h2.967V-5.666h-2.967z" fill="#fff4f7"/><path d="M154.076-5.666v116.225h2.968V-5.666h-2.968z" fill="#380021"/><path d="M157.044-5.666v116.225h2.967V-5.666h-2.967z" fill="#5c2e49"/><path d="M160.011-5.666v116.225h5.688V-5.666h-5.688z" fill="#fff4f7"/></g><g opacity=".5"><path fill="#380021" d="M49.473-5.666h116.225v14.59H49.473z"/><path fill="#fff4f7" d="M49.473 8.924h116.225v5.688H49.473z"/><path fill="#5c2e49" d="M49.473 14.612h116.225v2.967H49.473z"/><path fill="#380021" d="M49.473 17.579h116.225v2.967H49.473z"/><path fill="#fff4f7" d="M49.473 20.547h116.225v2.967H49.473z"/><path fill="#5c2e49" d="M49.473 23.514h116.225v5.688H49.473z"/><path fill="#cc284e" d="M49.473 29.202h116.225v2.967H49.473z"/><path fill="#5c2e49" d="M49.473 32.169h116.225v5.688H49.473z"/><path fill="#fff4f7" d="M49.473 37.857h116.225v2.967H49.473z"/><path fill="#cc284e" d="M49.473 40.824h116.225v2.967H49.473z"/><path fill="#5c2e49" d="M49.473 43.792h116.225v2.967H49.473z"/><path fill="#fff4f7" d="M49.473 46.759h116.225v5.688H49.473z"/><path fill="#cc284e" d="M49.473 52.447h116.225v14.59H49.473z"/><path fill="#fff4f7" d="M49.473 67.037h116.225v5.688H49.473z"/><path fill="#5c2e49" d="M49.473 72.724h116.225v2.967H49.473z"/><path fill="#cc284e" d="M49.473 75.692h116.225v2.967H49.473z"/><path fill="#fff4f7" d="M49.473 78.659h116.225v2.967H49.473z"/><path fill="#5c2e49" d="M49.473 81.627h116.225v5.688H49.473z"/><path fill="#380021" d="M49.473 87.314h116.225v2.967H49.473z"/><path fill="#5c2e49" d="M49.473 90.282h116.225v5.688H49.473z"/></g><g opacity=".5"><path d="M49.473-5.666v116.225h14.59V-5.666h-14.59z" fill="#380021"/><path d="M64.063-5.666v116.225h5.688V-5.666h-5.688z" fill="#fff4f7"/><path d="M69.751-5.666v116.225h2.967V-5.666h-2.967z" fill="#5c2e49"/><path d="M72.718-5.666v116.225h2.968V-5.666h-2.968z" fill="#380021"/><path d="M75.686-5.666v116.225h2.967V-5.666h-2.967z" fill="#fff4f7"/><path d="M78.653-5.666v116.225h5.688V-5.666h-5.688z" fill="#5c2e49"/><path d="M84.341-5.666v116.225h2.967V-5.666h-2.967z" fill="#cc284e"/><path d="M87.308-5.666v116.225h5.688V-5.666h-5.688z" fill="#5c2e49"/><path d="M92.996-5.666v116.225h2.968V-5.666h-2.968z" fill="#fff4f7"/><path d="M95.964-5.666v116.225h2.967V-5.666h-2.967z" fill="#cc284e"/><path d="M98.931-5.666v116.225h2.967V-5.666h-2.967z" fill="#5c2e49"/><path d="M101.898-5.666v116.225h5.688V-5.666h-5.688z" fill="#fff4f7"/><path d="M107.586-5.666v116.225h14.59V-5.666h-14.59z" fill="#cc284e"/><path d="M122.176-5.666v116.225h5.688V-5.666h-5.688z" fill="#fff4f7"/><path d="M127.864-5.666v116.225h2.967V-5.666h-2.967z" fill="#5c2e49"/><path d="M130.831-5.666v116.225h2.968V-5.666h-2.968z" fill="#cc284e"/><path d="M133.799-5.666v116.225h2.967V-5.666h-2.967z" fill="#fff4f7"/><path d="M136.766-5.666v116.225h5.688V-5.666h-5.688z" fill="#5c2e49"/><path d="M142.454-5.666v116.225h2.967V-5.666h-2.967z" fill="#380021"/><path d="M145.421-5.666v116.225h5.688V-5.666h-5.688z" fill="#5c2e49"/><path d="M151.109-5.666v116.225h2.967V-5.666h-2.967z" fill="#fff4f7"/><path d="M154.076-5.666v116.225h2.968V-5.666h-2.968z" fill="#380021"/><path d="M157.044-5.666v116.225h2.967V-5.666h-2.967z" fill="#5c2e49"/><path d="M160.011-5.666v116.225h5.688V-5.666h-5.688z" fill="#fff4f7"/></g></g><path fill="#fff" fill-opacity=".95" d="M2.5 2.5h155v85H2.5z"/><text x="5.92" y="37.737" font-family="'Rubik-Regular','Rubik'" font-size="8" fill="#340221">T<tspan x="10.448px 12.376px 15.256px 19.656px 24.336px 26.216px 30.68px 33.504px 35.216px 38.264px 41.16px 45.496px 49.832px" y="37.737px 37.737px 37.737px 37.737px 37.737px 37.737px 37.737px 37.737px 37.737px 37.737px 37.737px 37.737px 37.737px">ired of track</tspan>in<tspan x="60.576px 65.272px 67.152px 71.488px 76.224px 80.904px 82.76px 85.808px 89.808px" y="37.737px 37.737px 37.737px 37.737px 37.737px 37.737px 37.737px 37.737px 37.737px">g audits </tspan>in<tspan x="98.384px 100.264px 104.264px 108.952px 111.832px 116.232px 120.568px 125.248px 129.248px 134.04px 138.44px 142.816px 145.864px 149.832px" y="37.737px 37.737px 37.737px 37.737px 37.737px 37.737px 37.737px 37.737px 37.737px 37.737px 37.737px 37.737px 37.737px 37.737px"> spreadsheets?</tspan></text><g font-family="'Rubik-Medium','Rubik'" font-weight="500" font-size="18" fill="#340221"><text x="2163.17" y="1528.23" transform="matrix(.5 0 0 .5 -1064.29 -714.549)">F<tspan x="2173.63px 2184.11px 2194.21px 2205.2px 2214.6px 2218.54px 2229.02px 2240.07px 2243.62px 2258.2px 2269.34px 2279.35px 2286.89px 2290.83px 2298.03px 2308.24px 2318.33px 2322.92px 2327.51px 2337.2px 2341.14px 2357.2px 2367.2px 2374.75px 2382.29px 2392.49px 2399.82px 2409.22px" y="1528.23px 1528.23px 1528.23px 1528.23px 1528.23px 1528.23px 1528.23px 1528.23px 1528.23px 1528.23px 1528.23px 1528.23px 1528.23px 1528.23px 1528.23px 1528.23px 1528.23px 1528.23px 1528.23px 1528.23px 1528.23px 1528.23px 1528.23px 1528.23px 1528.23px 1528.23px 1528.23px 1528.23px">ocus on what really matters,</tspan></text><text x="2191.62" y="1546.23" transform="matrix(.5 0 0 .5 -1064.29 -714.549)">l<tspan x="2196.21px 2206.38px 2213.93px 2217.87px 2228.87px 2238.26px 2242.2px 2251.6px 2256.53px 2272.59px 2283.46px 2288.45px 2293.02px 2300.29px 2309.97px 2313.55px 2321.1px 2332.24px 2342.45px 2346.39px 2353.59px 2363.79px 2373.15px 2380.7px" y="1546.23px 1546.23px 1546.23px 1546.23px 1546.23px 1546.23px 1546.23px 1546.23px 1546.23px 1546.23px 1546.23px 1546.23px 1546.23px 1546.23px 1546.23px 1546.23px 1546.23px 1546.23px 1546.23px 1546.23px 1546.23px 1546.23px 1546.23px 1546.23px">et us simplify the rest.</tspan></text></g><path d="M126.5 69.809c0-.723-.586-1.309-1.309-1.309H33.809c-.723 0-1.309.586-1.309 1.309v10.382c0 .723.586 1.309 1.309 1.309h91.382c.723 0 1.309-.586 1.309-1.309V69.809z" fill="#cc284e"/><text x="40.868" y="77.37" font-family="'Rubik-Medium','Rubik'" font-weight="500" font-size="8" fill="#fff">T<tspan x="45.092px 48.348px 52.652px 54.404px 56.436px 59.788px 61.396px 64.628px 67.828px 72.364px 76.9px 78.508px 81.676px 86.332px 89.42px 91.172px 95.66px 97.236px 103.596px 108.132px 112.668px" y="77.37px 77.37px 77.37px 77.37px 77.37px 77.37px 77.37px 77.37px 77.37px 77.37px 77.37px 77.37px 77.37px 77.37px 77.37px 77.37px 77.37px 77.37px 77.37px 77.37px 77.37px">ry it free for a week</tspan>!</text><g><g fill="#340221" fill-rule="nonzero"><path d="M54.795 20.477a.35.35 0 01-.258-.106.351.351 0 01-.106-.257v-9.861a.37.37 0 01.106-.272.35.35 0 01.258-.106h4.392c.818 0 1.485.123 2 .371.515.247.896.588 1.143 1.022.248.434.372.939.372 1.515 0 .383-.069.719-.205 1.007a2.242 2.242 0 01-.5.704 2.772 2.772 0 01-.583.424c.394.182.742.485 1.045.909.303.424.455.929.455 1.515 0 .606-.137 1.146-.409 1.621-.273.474-.677.845-1.212 1.113-.535.268-1.197.401-1.984.401h-4.514zm1.742-1.605h2.529c.546 0 .96-.149 1.242-.447.283-.298.424-.659.424-1.083 0-.444-.143-.813-.431-1.106-.288-.293-.699-.439-1.235-.439h-2.529v3.075zm0-4.65h2.378c.535 0 .936-.129 1.204-.387.268-.257.401-.593.401-1.007 0-.424-.133-.757-.401-1-.268-.242-.669-.363-1.204-.363h-2.378v2.757zM66.852 20.629c-1.121 0-2.01-.323-2.666-.97-.656-.646-1.01-1.565-1.06-2.756a4.066 4.066 0 01-.015-.387c0-.156.005-.28.015-.371.04-.767.214-1.426.522-1.976a3.2 3.2 0 011.28-1.273c.545-.298 1.187-.447 1.924-.447.818 0 1.504.17 2.06.508.555.338.974.808 1.257 1.409.283.6.424 1.295.424 2.082v.318a.35.35 0 01-.106.258.368.368 0 01-.273.106h-5.028v.121c.01.353.078.679.204.977.126.298.313.538.561.72.247.181.542.272.886.272.282 0 .52-.043.712-.129a1.73 1.73 0 00.469-.295c.121-.111.207-.202.258-.273.091-.121.164-.194.219-.219a.638.638 0 01.25-.038h1.303c.101 0 .184.03.25.091.065.06.093.136.083.227-.01.162-.093.358-.25.591a2.936 2.936 0 01-.674.681 3.785 3.785 0 01-1.098.553c-.439.147-.942.22-1.507.22zm-1.666-4.771h3.347v-.046c0-.394-.066-.74-.197-1.037a1.567 1.567 0 00-.575-.697c-.253-.167-.556-.25-.909-.25-.354 0-.657.083-.909.25a1.522 1.522 0 00-.568.697 2.64 2.64 0 00-.189 1.037v.046zM73.85 20.477a.35.35 0 01-.258-.106.351.351 0 01-.106-.257v-9.876c0-.101.036-.187.106-.257a.35.35 0 01.258-.106h1.423c.112 0 .2.035.266.106.065.07.098.156.098.257v9.876a.365.365 0 01-.098.257.344.344 0 01-.266.106H73.85zM77.015 20.477a.349.349 0 01-.257-.106.347.347 0 01-.106-.257v-7.15c0-.1.035-.186.106-.257a.349.349 0 01.257-.106h1.242a.35.35 0 01.258.106.35.35 0 01.106.257v.622a3.216 3.216 0 011.007-.811c.409-.217.917-.326 1.522-.326.616 0 1.152.139 1.606.417.454.278.805.669 1.053 1.174.247.505.371 1.111.371 1.818v4.256a.347.347 0 01-.106.257.35.35 0 01-.258.106h-1.333a.349.349 0 01-.257-.106.347.347 0 01-.106-.257v-4.166c0-.585-.144-1.045-.432-1.378-.288-.333-.704-.5-1.249-.5-.526 0-.945.167-1.258.5-.313.333-.469.793-.469 1.378v4.166a.351.351 0 01-.106.257.35.35 0 01-.258.106h-1.333zM88.33 20.629c-.727 0-1.366-.137-1.916-.409a3.025 3.025 0 01-1.287-1.189c-.308-.52-.478-1.149-.508-1.886a9.48 9.48 0 01-.015-.598c0-.248.005-.452.015-.614.03-.737.2-1.365.508-1.886.308-.52.737-.916 1.287-1.189.55-.272 1.189-.409 1.916-.409.646 0 1.197.089 1.651.266.455.176.828.403 1.121.681.293.278.512.566.659.864.146.297.225.568.235.81a.295.295 0 01-.099.265.39.39 0 01-.265.098h-1.333a.34.34 0 01-.235-.075.805.805 0 01-.159-.228c-.151-.403-.351-.689-.598-.855-.247-.167-.563-.25-.947-.25-.504 0-.906.159-1.204.477-.298.318-.457.82-.477 1.507-.02.384-.02.737 0 1.06.02.697.179 1.202.477 1.515.298.313.7.47 1.204.47.394 0 .712-.084.955-.25.242-.167.439-.452.59-.856a.784.784 0 01.159-.227.336.336 0 01.235-.076h1.333c.101 0 .189.033.265.098a.295.295 0 01.099.265c-.01.182-.058.387-.144.614a2.677 2.677 0 01-.409.697 3.262 3.262 0 01-.705.651 3.596 3.596 0 01-1.022.477 4.786 4.786 0 01-1.386.182zM92.768 20.477a.347.347 0 01-.257-.106.347.347 0 01-.106-.257V10.087a.35.35 0 01.106-.258.347.347 0 01.257-.106h1.257a.35.35 0 01.258.106.35.35 0 01.106.258v10.027a.347.347 0 01-.106.257.35.35 0 01-.258.106h-1.257zM98.145 20.629c-.616 0-1.148-.139-1.598-.417a2.72 2.72 0 01-1.037-1.181c-.243-.51-.364-1.113-.364-1.81v-4.257c0-.1.036-.186.106-.257a.35.35 0 01.258-.106h1.333c.111 0 .199.035.265.106a.368.368 0 01.098.257v4.166c0 1.252.551 1.878 1.651 1.878.525 0 .942-.167 1.25-.5.308-.333.462-.792.462-1.378v-4.166c0-.1.035-.186.106-.257a.349.349 0 01.257-.106h1.333a.35.35 0 01.258.106c.07.071.106.157.106.257v7.15a.351.351 0 01-.106.257.35.35 0 01-.258.106h-1.227a.344.344 0 01-.265-.106.365.365 0 01-.098-.257v-.621a2.913 2.913 0 01-1.015.833c-.404.202-.909.303-1.515.303zM106.431 20.629c-.606 0-1.124-.071-1.553-.212-.429-.142-.78-.318-1.053-.53-.272-.212-.474-.424-.605-.637-.132-.212-.202-.388-.213-.53a.295.295 0 01.099-.265.376.376 0 01.25-.098h1.196c.041 0 .076.005.106.015.031.01.071.04.122.091.131.111.27.227.416.348.147.121.321.225.523.311s.454.128.757.128c.394 0 .725-.078.992-.234.268-.157.402-.382.402-.674a.744.744 0 00-.175-.515c-.116-.132-.33-.25-.643-.356-.313-.106-.758-.22-1.333-.341-.566-.131-1.035-.298-1.409-.5-.374-.202-.651-.454-.833-.757a2.022 2.022 0 01-.273-1.061c0-.393.119-.77.356-1.128.238-.359.591-.654 1.061-.886.469-.232 1.052-.349 1.749-.349.545 0 1.02.069 1.424.205.404.136.74.305 1.007.507.268.202.472.407.614.614.141.207.217.386.227.538a.303.303 0 01-.091.265.35.35 0 01-.242.098h-1.121a.306.306 0 01-.137-.03.858.858 0 01-.121-.076l-.363-.326a1.811 1.811 0 00-.477-.295c-.187-.081-.432-.121-.735-.121-.384 0-.677.083-.879.25a.78.78 0 00-.303.628c0 .172.048.321.144.447.096.126.291.245.584.356.292.111.737.227 1.332.349.677.121 1.215.3 1.614.537.398.238.681.51.848.818.166.308.25.649.25 1.023 0 .454-.134.863-.402 1.227-.267.363-.661.648-1.181.855-.52.207-1.164.311-1.931.311zM110.687 20.477a.35.35 0 01-.258-.106.351.351 0 01-.106-.257v-7.15c0-.1.036-.186.106-.257a.35.35 0 01.258-.106h1.257c.111 0 .2.035.265.106a.365.365 0 01.099.257v7.15a.361.361 0 01-.099.257.342.342 0 01-.265.106h-1.257zm-.061-9.179a.349.349 0 01-.257-.106.347.347 0 01-.106-.257V9.844c0-.101.035-.187.106-.257a.349.349 0 01.257-.106h1.379a.365.365 0 01.378.363v1.091a.365.365 0 01-.378.363h-1.379zM115.928 20.477c-.162 0-.28-.038-.356-.113a1.022 1.022 0 01-.19-.265l-2.832-7.028a.378.378 0 01-.03-.137c0-.091.033-.169.098-.235a.323.323 0 01.235-.098h1.227c.121 0 .212.033.272.098a.55.55 0 01.122.19l2.014 5.316 2.015-5.316a.532.532 0 01.121-.19c.061-.065.151-.098.273-.098h1.242c.08 0 .154.033.219.098a.32.32 0 01.099.235.714.714 0 01-.015.137l-2.848 7.028a.727.727 0 01-.182.265c-.081.075-.202.113-.363.113h-1.121zM123.759 20.629c-1.121 0-2.01-.323-2.666-.97-.657-.646-1.01-1.565-1.06-2.756a3.718 3.718 0 01-.016-.387c0-.156.005-.28.016-.371.04-.767.214-1.426.522-1.976a3.2 3.2 0 011.28-1.273c.545-.298 1.187-.447 1.924-.447.818 0 1.504.17 2.06.508.555.338.974.808 1.257 1.409.283.6.424 1.295.424 2.082v.318a.35.35 0 01-.106.258.37.37 0 01-.273.106h-5.028v.121c.01.353.078.679.204.977.126.298.313.538.56.72.248.181.543.272.887.272.282 0 .52-.043.711-.129.192-.085.349-.184.47-.295.121-.111.207-.202.258-.273.09-.121.164-.194.219-.219a.638.638 0 01.25-.038h1.303c.101 0 .184.03.25.091.065.06.093.136.083.227-.01.162-.093.358-.25.591a2.936 2.936 0 01-.674.681 3.785 3.785 0 01-1.098.553c-.439.147-.942.22-1.507.22zm-1.666-4.771h3.347v-.046c0-.394-.066-.74-.197-1.037a1.567 1.567 0 00-.575-.697c-.253-.167-.556-.25-.909-.25-.354 0-.657.083-.909.25a1.516 1.516 0 00-.568.697 2.64 2.64 0 00-.189 1.037v.046z"/></g><clipPath id="d"><circle cx="42.028" cy="16" r="9.528"/></clipPath><g clip-path="url(#d)"><clipPath id="e"><path d="M-1.497-2.485h61.266v61.266H-1.497z"/></clipPath><g clip-path="url(#e)"><path fill="#380021" d="M-1.511-2.513h61.266v7.691H-1.511z"/><path fill="#fff4f7" d="M-1.511 5.178h61.266v2.998H-1.511z"/><path fill="#5c2e49" d="M-1.511 8.176h61.266V9.74H-1.511z"/><path fill="#380021" d="M-1.511 9.741h61.266v1.564H-1.511z"/><path fill="#fff4f7" d="M-1.511 11.305h61.266v1.564H-1.511z"/><path fill="#5c2e49" d="M-1.511 12.869h61.266v2.998H-1.511z"/><path fill="#cc284e" d="M-1.511 15.867h61.266v1.564H-1.511z"/><path fill="#5c2e49" d="M-1.511 17.431h61.266v2.998H-1.511z"/><path fill="#fff4f7" d="M-1.511 20.429h61.266v1.564H-1.511z"/><path fill="#cc284e" d="M-1.511 21.994h61.266v1.564H-1.511z"/><path fill="#5c2e49" d="M-1.511 23.558h61.266v1.564H-1.511z"/><path fill="#fff4f7" d="M-1.511 25.122h61.266v2.998H-1.511z"/><path fill="#cc284e" d="M-1.511 28.12h61.266v7.691H-1.511z"/><path fill="#fff4f7" d="M-1.511 35.811h61.266v2.998H-1.511z"/><path fill="#5c2e49" d="M-1.511 38.809h61.266v1.564H-1.511z"/><path fill="#cc284e" d="M-1.511 40.374h61.266v1.564H-1.511z"/><path fill="#fff4f7" d="M-1.511 41.938h61.266v1.564H-1.511z"/><path fill="#5c2e49" d="M-1.511 43.502h61.266V46.5H-1.511z"/><path fill="#380021" d="M-1.511 46.5h61.266v1.564H-1.511z"/><path fill="#5c2e49" d="M-1.511 48.064h61.266v2.998H-1.511z"/><path fill="#fff4f7" d="M-1.511 51.063h61.266v1.564H-1.511z"/><path fill="#380021" d="M-1.511 52.627h61.266v1.564H-1.511z"/><path fill="#5c2e49" d="M-1.511 54.191h61.266v1.564H-1.511z"/><path fill="#fff4f7" d="M-1.511 55.755h61.266v2.998H-1.511z"/><g opacity=".5"><path d="M-1.511-2.513v61.266H6.18V-2.513h-7.691z" fill="#380021"/><path d="M6.18-2.513v61.266h2.998V-2.513H6.18z" fill="#fff4f7"/><path d="M9.178-2.513v61.266h1.564V-2.513H9.178z" fill="#5c2e49"/><path d="M10.742-2.513v61.266h1.565V-2.513h-1.565z" fill="#380021"/><path d="M12.307-2.513v61.266h1.564V-2.513h-1.564z" fill="#fff4f7"/><path d="M13.871-2.513v61.266h2.998V-2.513h-2.998z" fill="#5c2e49"/><path d="M16.869-2.513v61.266h1.564V-2.513h-1.564z" fill="#cc284e"/><path d="M18.433-2.513v61.266h2.998V-2.513h-2.998z" fill="#5c2e49"/><path d="M21.431-2.513v61.266h1.565V-2.513h-1.565z" fill="#fff4f7"/><path d="M22.996-2.513v61.266h1.564V-2.513h-1.564z" fill="#cc284e"/><path d="M24.56-2.513v61.266h1.564V-2.513H24.56z" fill="#5c2e49"/><path d="M26.124-2.513v61.266h2.998V-2.513h-2.998z" fill="#fff4f7"/><path d="M29.122-2.513v61.266h7.691V-2.513h-7.691z" fill="#cc284e"/><path d="M36.813-2.513v61.266h2.998V-2.513h-2.998z" fill="#fff4f7"/><path d="M39.811-2.513v61.266h1.564V-2.513h-1.564z" fill="#5c2e49"/><path d="M41.375-2.513v61.266h1.565V-2.513h-1.565z" fill="#cc284e"/><path d="M42.94-2.513v61.266h1.564V-2.513H42.94z" fill="#fff4f7"/><path d="M44.504-2.513v61.266h2.998V-2.513h-2.998z" fill="#5c2e49"/><path d="M47.502-2.513v61.266h1.564V-2.513h-1.564z" fill="#380021"/><path d="M49.066-2.513v61.266h2.998V-2.513h-2.998z" fill="#5c2e49"/><path d="M52.064-2.513v61.266h1.565V-2.513h-1.565z" fill="#fff4f7"/><path d="M53.629-2.513v61.266h1.564V-2.513h-1.564z" fill="#380021"/><path d="M55.193-2.513v61.266h1.564V-2.513h-1.564z" fill="#5c2e49"/><path d="M56.757-2.513v61.266h2.998V-2.513h-2.998z" fill="#fff4f7"/></g><g opacity=".5"><path fill="#380021" d="M-1.511-2.513h61.266v7.691H-1.511z"/><path fill="#fff4f7" d="M-1.511 5.178h61.266v2.998H-1.511z"/><path fill="#5c2e49" d="M-1.511 8.176h61.266V9.74H-1.511z"/><path fill="#380021" d="M-1.511 9.741h61.266v1.564H-1.511z"/><path fill="#fff4f7" d="M-1.511 11.305h61.266v1.564H-1.511z"/><path fill="#5c2e49" d="M-1.511 12.869h61.266v2.998H-1.511z"/><path fill="#cc284e" d="M-1.511 15.867h61.266v1.564H-1.511z"/><path fill="#5c2e49" d="M-1.511 17.431h61.266v2.998H-1.511z"/><path fill="#fff4f7" d="M-1.511 20.429h61.266v1.564H-1.511z"/><path fill="#cc284e" d="M-1.511 21.994h61.266v1.564H-1.511z"/><path fill="#5c2e49" d="M-1.511 23.558h61.266v1.564H-1.511z"/><path fill="#fff4f7" d="M-1.511 25.122h61.266v2.998H-1.511z"/><path fill="#cc284e" d="M-1.511 28.12h61.266v7.691H-1.511z"/><path fill="#fff4f7" d="M-1.511 35.811h61.266v2.998H-1.511z"/><path fill="#5c2e49" d="M-1.511 38.809h61.266v1.564H-1.511z"/><path fill="#cc284e" d="M-1.511 40.374h61.266v1.564H-1.511z"/><path fill="#fff4f7" d="M-1.511 41.938h61.266v1.564H-1.511z"/><path fill="#5c2e49" d="M-1.511 43.502h61.266V46.5H-1.511z"/><path fill="#380021" d="M-1.511 46.5h61.266v1.564H-1.511z"/><path fill="#5c2e49" d="M-1.511 48.064h61.266v2.998H-1.511z"/><path fill="#fff4f7" d="M-1.511 51.063h61.266v1.564H-1.511z"/><path fill="#380021" d="M-1.511 52.627h61.266v1.564H-1.511z"/><path fill="#5c2e49" d="M-1.511 54.191h61.266v1.564H-1.511z"/><path fill="#fff4f7" d="M-1.511 55.755h61.266v2.998H-1.511z"/></g><g opacity=".5"><path d="M-1.511-2.513v61.266H6.18V-2.513h-7.691z" fill="#380021"/><path d="M6.18-2.513v61.266h2.998V-2.513H6.18z" fill="#fff4f7"/><path d="M9.178-2.513v61.266h1.564V-2.513H9.178z" fill="#5c2e49"/><path d="M10.742-2.513v61.266h1.565V-2.513h-1.565z" fill="#380021"/><path d="M12.307-2.513v61.266h1.564V-2.513h-1.564z" fill="#fff4f7"/><path d="M13.871-2.513v61.266h2.998V-2.513h-2.998z" fill="#5c2e49"/><path d="M16.869-2.513v61.266h1.564V-2.513h-1.564z" fill="#cc284e"/><path d="M18.433-2.513v61.266h2.998V-2.513h-2.998z" fill="#5c2e49"/><path d="M21.431-2.513v61.266h1.565V-2.513h-1.565z" fill="#fff4f7"/><path d="M22.996-2.513v61.266h1.564V-2.513h-1.564z" fill="#cc284e"/><path d="M24.56-2.513v61.266h1.564V-2.513H24.56z" fill="#5c2e49"/><path d="M26.124-2.513v61.266h2.998V-2.513h-2.998z" fill="#fff4f7"/><path d="M29.122-2.513v61.266h7.691V-2.513h-7.691z" fill="#cc284e"/><path d="M36.813-2.513v61.266h2.998V-2.513h-2.998z" fill="#fff4f7"/><path d="M39.811-2.513v61.266h1.564V-2.513h-1.564z" fill="#5c2e49"/><path d="M41.375-2.513v61.266h1.565V-2.513h-1.565z" fill="#cc284e"/><path d="M42.94-2.513v61.266h1.564V-2.513H42.94z" fill="#fff4f7"/><path d="M44.504-2.513v61.266h2.998V-2.513h-2.998z" fill="#5c2e49"/><path d="M47.502-2.513v61.266h1.564V-2.513h-1.564z" fill="#380021"/><path d="M49.066-2.513v61.266h2.998V-2.513h-2.998z" fill="#5c2e49"/><path d="M52.064-2.513v61.266h1.565V-2.513h-1.565z" fill="#fff4f7"/><path d="M53.629-2.513v61.266h1.564V-2.513h-1.564z" fill="#380021"/><path d="M55.193-2.513v61.266h1.564V-2.513h-1.564z" fill="#5c2e49"/><path d="M56.757-2.513v61.266h2.998V-2.513h-2.998z" fill="#fff4f7"/></g></g></g><circle cx="42.028" cy="16" r="8.656" fill="#fff" fill-opacity=".95"/><g fill="#340221"><path d="M37.116 19.529a.282.282 0 01-.206-.087.282.282 0 01-.087-.206v-7.023c0-.08.029-.149.087-.207a.282.282 0 01.206-.087h3.609c1.029 0 1.789.189 2.278.566.489.377.734.949.734 1.717 0 .312-.091.589-.272.832a1.71 1.71 0 01-.598.527c.29.116.534.321.734.614.199.294.299.615.299.962 0 .805-.261 1.405-.783 1.8s-1.283.592-2.283.592h-3.718zm3.338-4.75c.145 0 .255-.049.331-.147a.543.543 0 00.114-.343.567.567 0 00-.114-.348.389.389 0 00-.331-.152h-.914v.99h.914zm.097 2.88c.167 0 .292-.054.375-.163a.587.587 0 00-.01-.739.45.45 0 00-.365-.163H39.54v1.065h1.011zM44.362 19.529a.283.283 0 01-.207-.087.282.282 0 01-.087-.206v-7.023c0-.08.029-.149.087-.207a.283.283 0 01.207-.087h2.217c.08 0 .149.029.207.087a.283.283 0 01.087.207v7.023a.282.282 0 01-.087.206.283.283 0 01-.207.087h-2.217z"/></g></g></g></svg>