<svg viewBox="0 0 160 90" xmlns="http://www.w3.org/2000/svg" fill-rule="evenodd" clip-rule="evenodd" stroke-linejoin="round" stroke-miterlimit="2"><path fill="none" d="M0 0h160v90H0z"/><clipPath id="a"><path d="M0 0h160v90H0z"/></clipPath><g clip-path="url(#a)"><clipPath id="b"><path d="M-66.725-5.613H49.5v116.225H-66.725z"/></clipPath><g clip-path="url(#b)"><path fill="#380021" d="M-66.752-5.666H49.473v14.59H-66.752z"/><path fill="#fff4f7" d="M-66.752 8.924H49.473v5.688H-66.752z"/><path fill="#5c2e49" d="M-66.752 14.612H49.473v2.967H-66.752z"/><path fill="#380021" d="M-66.752 17.579H49.473v2.967H-66.752z"/><path fill="#fff4f7" d="M-66.752 20.547H49.473v2.967H-66.752z"/><path fill="#5c2e49" d="M-66.752 23.514H49.473v5.688H-66.752z"/><path fill="#cc284e" d="M-66.752 29.202H49.473v2.967H-66.752z"/><path fill="#5c2e49" d="M-66.752 32.169H49.473v5.688H-66.752z"/><path fill="#fff4f7" d="M-66.752 37.857H49.473v2.967H-66.752z"/><path fill="#cc284e" d="M-66.752 40.824H49.473v2.967H-66.752z"/><path fill="#5c2e49" d="M-66.752 43.792H49.473v2.967H-66.752z"/><path fill="#fff4f7" d="M-66.752 46.759H49.473v5.688H-66.752z"/><path fill="#cc284e" d="M-66.752 52.447H49.473v14.59H-66.752z"/><path fill="#fff4f7" d="M-66.752 67.037H49.473v5.688H-66.752z"/><path fill="#5c2e49" d="M-66.752 72.724H49.473v2.967H-66.752z"/><path fill="#cc284e" d="M-66.752 75.692H49.473v2.967H-66.752z"/><path fill="#fff4f7" d="M-66.752 78.659H49.473v2.967H-66.752z"/><path fill="#5c2e49" d="M-66.752 81.627H49.473v5.688H-66.752z"/><path fill="#380021" d="M-66.752 87.314H49.473v2.967H-66.752z"/><path fill="#5c2e49" d="M-66.752 90.282H49.473v5.688H-66.752z"/><g opacity=".5"><path d="M-8.639-5.666v116.225h14.59V-5.666h-14.59z" fill="#cc284e"/><path d="M5.951-5.666v116.225h5.687V-5.666H5.951z" fill="#fff4f7"/><path d="M11.638-5.666v116.225h2.968V-5.666h-2.968z" fill="#5c2e49"/><path d="M14.606-5.666v116.225h2.967V-5.666h-2.967z" fill="#cc284e"/><path d="M17.573-5.666v116.225h2.968V-5.666h-2.968z" fill="#fff4f7"/><path d="M20.541-5.666v116.225h5.687V-5.666h-5.687z" fill="#5c2e49"/><path d="M26.228-5.666v116.225h2.968V-5.666h-2.968z" fill="#380021"/><path d="M29.196-5.666v116.225h5.687V-5.666h-5.687z" fill="#5c2e49"/><path d="M34.883-5.666v116.225h2.968V-5.666h-2.968z" fill="#fff4f7"/><path d="M37.851-5.666v116.225h2.967V-5.666h-2.967z" fill="#380021"/><path d="M40.818-5.666v116.225h2.968V-5.666h-2.968z" fill="#5c2e49"/><path d="M43.786-5.666v116.225h5.687V-5.666h-5.687z" fill="#fff4f7"/></g><g opacity=".5"><path fill="#380021" d="M-66.752-5.666H49.473v14.59H-66.752z"/><path fill="#fff4f7" d="M-66.752 8.924H49.473v5.688H-66.752z"/><path fill="#5c2e49" d="M-66.752 14.612H49.473v2.967H-66.752z"/><path fill="#380021" d="M-66.752 17.579H49.473v2.967H-66.752z"/><path fill="#fff4f7" d="M-66.752 20.547H49.473v2.967H-66.752z"/><path fill="#5c2e49" d="M-66.752 23.514H49.473v5.688H-66.752z"/><path fill="#cc284e" d="M-66.752 29.202H49.473v2.967H-66.752z"/><path fill="#5c2e49" d="M-66.752 32.169H49.473v5.688H-66.752z"/><path fill="#fff4f7" d="M-66.752 37.857H49.473v2.967H-66.752z"/><path fill="#cc284e" d="M-66.752 40.824H49.473v2.967H-66.752z"/><path fill="#5c2e49" d="M-66.752 43.792H49.473v2.967H-66.752z"/><path fill="#fff4f7" d="M-66.752 46.759H49.473v5.688H-66.752z"/><path fill="#cc284e" d="M-66.752 52.447H49.473v14.59H-66.752z"/><path fill="#fff4f7" d="M-66.752 67.037H49.473v5.688H-66.752z"/><path fill="#5c2e49" d="M-66.752 72.724H49.473v2.967H-66.752z"/><path fill="#cc284e" d="M-66.752 75.692H49.473v2.967H-66.752z"/><path fill="#fff4f7" d="M-66.752 78.659H49.473v2.967H-66.752z"/><path fill="#5c2e49" d="M-66.752 81.627H49.473v5.688H-66.752z"/><path fill="#380021" d="M-66.752 87.314H49.473v2.967H-66.752z"/><path fill="#5c2e49" d="M-66.752 90.282H49.473v5.688H-66.752z"/></g><g opacity=".5"><path d="M-8.639-5.666v116.225h14.59V-5.666h-14.59z" fill="#cc284e"/><path d="M5.951-5.666v116.225h5.687V-5.666H5.951z" fill="#fff4f7"/><path d="M11.638-5.666v116.225h2.968V-5.666h-2.968z" fill="#5c2e49"/><path d="M14.606-5.666v116.225h2.967V-5.666h-2.967z" fill="#cc284e"/><path d="M17.573-5.666v116.225h2.968V-5.666h-2.968z" fill="#fff4f7"/><path d="M20.541-5.666v116.225h5.687V-5.666h-5.687z" fill="#5c2e49"/><path d="M26.228-5.666v116.225h2.968V-5.666h-2.968z" fill="#380021"/><path d="M29.196-5.666v116.225h5.687V-5.666h-5.687z" fill="#5c2e49"/><path d="M34.883-5.666v116.225h2.968V-5.666h-2.968z" fill="#fff4f7"/><path d="M37.851-5.666v116.225h2.967V-5.666h-2.967z" fill="#380021"/><path d="M40.818-5.666v116.225h2.968V-5.666h-2.968z" fill="#5c2e49"/><path d="M43.786-5.666v116.225h5.687V-5.666h-5.687z" fill="#fff4f7"/></g></g><clipPath id="c"><path d="M49.5-5.613h116.225v116.225H49.5z"/></clipPath><g clip-path="url(#c)"><path fill="#380021" d="M49.473-5.666h116.225v14.59H49.473z"/><path fill="#fff4f7" d="M49.473 8.924h116.225v5.688H49.473z"/><path fill="#5c2e49" d="M49.473 14.612h116.225v2.967H49.473z"/><path fill="#380021" d="M49.473 17.579h116.225v2.967H49.473z"/><path fill="#fff4f7" d="M49.473 20.547h116.225v2.967H49.473z"/><path fill="#5c2e49" d="M49.473 23.514h116.225v5.688H49.473z"/><path fill="#cc284e" d="M49.473 29.202h116.225v2.967H49.473z"/><path fill="#5c2e49" d="M49.473 32.169h116.225v5.688H49.473z"/><path fill="#fff4f7" d="M49.473 37.857h116.225v2.967H49.473z"/><path fill="#cc284e" d="M49.473 40.824h116.225v2.967H49.473z"/><path fill="#5c2e49" d="M49.473 43.792h116.225v2.967H49.473z"/><path fill="#fff4f7" d="M49.473 46.759h116.225v5.688H49.473z"/><path fill="#cc284e" d="M49.473 52.447h116.225v14.59H49.473z"/><path fill="#fff4f7" d="M49.473 67.037h116.225v5.688H49.473z"/><path fill="#5c2e49" d="M49.473 72.724h116.225v2.967H49.473z"/><path fill="#cc284e" d="M49.473 75.692h116.225v2.967H49.473z"/><path fill="#fff4f7" d="M49.473 78.659h116.225v2.967H49.473z"/><path fill="#5c2e49" d="M49.473 81.627h116.225v5.688H49.473z"/><path fill="#380021" d="M49.473 87.314h116.225v2.967H49.473z"/><path fill="#5c2e49" d="M49.473 90.282h116.225v5.688H49.473z"/><g opacity=".5"><path d="M49.473-5.666v116.225h14.59V-5.666h-14.59z" fill="#380021"/><path d="M64.063-5.666v116.225h5.688V-5.666h-5.688z" fill="#fff4f7"/><path d="M69.751-5.666v116.225h2.967V-5.666h-2.967z" fill="#5c2e49"/><path d="M72.718-5.666v116.225h2.968V-5.666h-2.968z" fill="#380021"/><path d="M75.686-5.666v116.225h2.967V-5.666h-2.967z" fill="#fff4f7"/><path d="M78.653-5.666v116.225h5.688V-5.666h-5.688z" fill="#5c2e49"/><path d="M84.341-5.666v116.225h2.967V-5.666h-2.967z" fill="#cc284e"/><path d="M87.308-5.666v116.225h5.688V-5.666h-5.688z" fill="#5c2e49"/><path d="M92.996-5.666v116.225h2.968V-5.666h-2.968z" fill="#fff4f7"/><path d="M95.964-5.666v116.225h2.967V-5.666h-2.967z" fill="#cc284e"/><path d="M98.931-5.666v116.225h2.967V-5.666h-2.967z" fill="#5c2e49"/><path d="M101.898-5.666v116.225h5.688V-5.666h-5.688z" fill="#fff4f7"/><path d="M107.586-5.666v116.225h14.59V-5.666h-14.59z" fill="#cc284e"/><path d="M122.176-5.666v116.225h5.688V-5.666h-5.688z" fill="#fff4f7"/><path d="M127.864-5.666v116.225h2.967V-5.666h-2.967z" fill="#5c2e49"/><path d="M130.831-5.666v116.225h2.968V-5.666h-2.968z" fill="#cc284e"/><path d="M133.799-5.666v116.225h2.967V-5.666h-2.967z" fill="#fff4f7"/><path d="M136.766-5.666v116.225h5.688V-5.666h-5.688z" fill="#5c2e49"/><path d="M142.454-5.666v116.225h2.967V-5.666h-2.967z" fill="#380021"/><path d="M145.421-5.666v116.225h5.688V-5.666h-5.688z" fill="#5c2e49"/><path d="M151.109-5.666v116.225h2.967V-5.666h-2.967z" fill="#fff4f7"/><path d="M154.076-5.666v116.225h2.968V-5.666h-2.968z" fill="#380021"/><path d="M157.044-5.666v116.225h2.967V-5.666h-2.967z" fill="#5c2e49"/><path d="M160.011-5.666v116.225h5.688V-5.666h-5.688z" fill="#fff4f7"/></g><g opacity=".5"><path fill="#380021" d="M49.473-5.666h116.225v14.59H49.473z"/><path fill="#fff4f7" d="M49.473 8.924h116.225v5.688H49.473z"/><path fill="#5c2e49" d="M49.473 14.612h116.225v2.967H49.473z"/><path fill="#380021" d="M49.473 17.579h116.225v2.967H49.473z"/><path fill="#fff4f7" d="M49.473 20.547h116.225v2.967H49.473z"/><path fill="#5c2e49" d="M49.473 23.514h116.225v5.688H49.473z"/><path fill="#cc284e" d="M49.473 29.202h116.225v2.967H49.473z"/><path fill="#5c2e49" d="M49.473 32.169h116.225v5.688H49.473z"/><path fill="#fff4f7" d="M49.473 37.857h116.225v2.967H49.473z"/><path fill="#cc284e" d="M49.473 40.824h116.225v2.967H49.473z"/><path fill="#5c2e49" d="M49.473 43.792h116.225v2.967H49.473z"/><path fill="#fff4f7" d="M49.473 46.759h116.225v5.688H49.473z"/><path fill="#cc284e" d="M49.473 52.447h116.225v14.59H49.473z"/><path fill="#fff4f7" d="M49.473 67.037h116.225v5.688H49.473z"/><path fill="#5c2e49" d="M49.473 72.724h116.225v2.967H49.473z"/><path fill="#cc284e" d="M49.473 75.692h116.225v2.967H49.473z"/><path fill="#fff4f7" d="M49.473 78.659h116.225v2.967H49.473z"/><path fill="#5c2e49" d="M49.473 81.627h116.225v5.688H49.473z"/><path fill="#380021" d="M49.473 87.314h116.225v2.967H49.473z"/><path fill="#5c2e49" d="M49.473 90.282h116.225v5.688H49.473z"/></g><g opacity=".5"><path d="M49.473-5.666v116.225h14.59V-5.666h-14.59z" fill="#380021"/><path d="M64.063-5.666v116.225h5.688V-5.666h-5.688z" fill="#fff4f7"/><path d="M69.751-5.666v116.225h2.967V-5.666h-2.967z" fill="#5c2e49"/><path d="M72.718-5.666v116.225h2.968V-5.666h-2.968z" fill="#380021"/><path d="M75.686-5.666v116.225h2.967V-5.666h-2.967z" fill="#fff4f7"/><path d="M78.653-5.666v116.225h5.688V-5.666h-5.688z" fill="#5c2e49"/><path d="M84.341-5.666v116.225h2.967V-5.666h-2.967z" fill="#cc284e"/><path d="M87.308-5.666v116.225h5.688V-5.666h-5.688z" fill="#5c2e49"/><path d="M92.996-5.666v116.225h2.968V-5.666h-2.968z" fill="#fff4f7"/><path d="M95.964-5.666v116.225h2.967V-5.666h-2.967z" fill="#cc284e"/><path d="M98.931-5.666v116.225h2.967V-5.666h-2.967z" fill="#5c2e49"/><path d="M101.898-5.666v116.225h5.688V-5.666h-5.688z" fill="#fff4f7"/><path d="M107.586-5.666v116.225h14.59V-5.666h-14.59z" fill="#cc284e"/><path d="M122.176-5.666v116.225h5.688V-5.666h-5.688z" fill="#fff4f7"/><path d="M127.864-5.666v116.225h2.967V-5.666h-2.967z" fill="#5c2e49"/><path d="M130.831-5.666v116.225h2.968V-5.666h-2.968z" fill="#cc284e"/><path d="M133.799-5.666v116.225h2.967V-5.666h-2.967z" fill="#fff4f7"/><path d="M136.766-5.666v116.225h5.688V-5.666h-5.688z" fill="#5c2e49"/><path d="M142.454-5.666v116.225h2.967V-5.666h-2.967z" fill="#380021"/><path d="M145.421-5.666v116.225h5.688V-5.666h-5.688z" fill="#5c2e49"/><path d="M151.109-5.666v116.225h2.967V-5.666h-2.967z" fill="#fff4f7"/><path d="M154.076-5.666v116.225h2.968V-5.666h-2.968z" fill="#380021"/><path d="M157.044-5.666v116.225h2.967V-5.666h-2.967z" fill="#5c2e49"/><path d="M160.011-5.666v116.225h5.688V-5.666h-5.688z" fill="#fff4f7"/></g></g><path fill="#fff" fill-opacity=".95" d="M2.5 2.5h155v85H2.5z"/><path d="M8.024 37.737a.179.179 0 01-.184-.184v-4.704H6.304a.179.179 0 01-.184-.184v-.336c0-.059.017-.105.052-.14a.179.179 0 01.132-.052h3.856c.059 0 .105.017.14.052a.188.188 0 01.052.14v.336a.179.179 0 01-.052.132.188.188 0 01-.14.052H8.632v4.704a.179.179 0 01-.052.132.188.188 0 01-.14.052h-.416zM11.224 37.737a.179.179 0 01-.184-.184v-3.792a.179.179 0 01.184-.184h.384a.179.179 0 01.184.184v3.792a.179.179 0 01-.184.184h-.384zm-.064-4.936a.179.179 0 01-.184-.184v-.432c0-.053.017-.099.052-.136a.174.174 0 01.132-.056h.504c.053 0 .099.019.136.056a.186.186 0 01.056.136v.432a.174.174 0 01-.056.132.191.191 0 01-.136.052h-.504zM13.152 37.737a.179.179 0 01-.184-.184v-3.784c0-.053.017-.099.052-.136a.174.174 0 01.132-.056h.368c.053 0 .099.019.136.056a.186.186 0 01.056.136v.352a1.02 1.02 0 01.44-.408c.187-.091.413-.136.68-.136h.312a.179.179 0 01.184.184v.328a.165.165 0 01-.052.128.188.188 0 01-.132.048h-.48c-.288 0-.515.084-.68.252-.165.168-.248.396-.248.684v2.352a.174.174 0 01-.056.132.191.191 0 01-.136.052h-.392zM17.512 37.817c-.555 0-.995-.169-1.32-.508-.325-.339-.504-.801-.536-1.388a3.824 3.824 0 01-.008-.268c0-.109.003-.199.008-.268.021-.379.109-.711.264-.996.155-.285.367-.505.636-.66.269-.155.585-.232.948-.232.405 0 .745.085 1.02.256.275.171.484.413.628.728.144.315.216.683.216 1.104v.136c0 .059-.017.104-.052.136a.188.188 0 01-.132.048h-2.768v.072c.011.219.059.423.144.612.085.189.209.343.372.46a.954.954 0 00.572.176 1.147 1.147 0 00.952-.456.407.407 0 01.112-.116.309.309 0 01.128-.02h.392c.048 0 .089.015.124.044.035.029.049.071.044.124a.618.618 0 01-.128.292c-.08.115-.193.228-.34.34a1.862 1.862 0 01-.544.276c-.216.072-.46.108-.732.108zm-1.096-2.464h2.192v-.024c0-.24-.044-.453-.132-.64a1.063 1.063 0 00-.38-.444 1.051 1.051 0 00-.592-.164c-.229 0-.425.055-.588.164a1.038 1.038 0 00-.372.444 1.53 1.53 0 00-.128.64v.024zM21.768 37.817c-.293 0-.547-.052-.76-.156a1.439 1.439 0 01-.524-.424 1.867 1.867 0 01-.304-.612 3.052 3.052 0 01-.116-.728 4.118 4.118 0 010-.48c.011-.251.049-.491.116-.72.067-.229.168-.435.304-.616.136-.181.311-.324.524-.428.213-.104.467-.156.76-.156.315 0 .576.056.784.168.208.112.379.251.512.416v-1.84a.179.179 0 01.184-.184h.384a.179.179 0 01.184.184v5.312a.179.179 0 01-.184.184h-.36c-.059 0-.104-.017-.136-.052a.188.188 0 01-.048-.132v-.336a1.623 1.623 0 01-.52.428c-.213.115-.48.172-.8.172zm.168-.648c.267 0 .48-.061.64-.184.16-.123.28-.279.36-.468.08-.189.123-.383.128-.58a5.32 5.32 0 000-.616 1.404 1.404 0 00-.132-.552 1.113 1.113 0 00-.368-.448c-.163-.117-.372-.176-.628-.176-.272 0-.488.06-.648.18a.988.988 0 00-.344.472 2.194 2.194 0 00-.12.628 7.178 7.178 0 000 .464c.011.224.051.433.12.628a.988.988 0 00.344.472c.16.12.376.18.648.18zM28.512 37.817c-.405 0-.744-.077-1.016-.232a1.56 1.56 0 01-.624-.644 2.217 2.217 0 01-.24-.94 6.495 6.495 0 010-.688c.016-.357.097-.672.244-.944.147-.272.356-.485.628-.64.272-.155.608-.232 1.008-.232s.736.077 1.008.232c.272.155.481.368.628.64.147.272.228.587.244.944a6.495 6.495 0 010 .688 2.217 2.217 0 01-.24.94 1.56 1.56 0 01-.624.644c-.272.155-.611.232-1.016.232zm0-.616c.331 0 .595-.105.792-.316.197-.211.304-.519.32-.924.005-.08.008-.181.008-.304s-.003-.224-.008-.304c-.016-.405-.123-.713-.32-.924-.197-.211-.461-.316-.792-.316s-.596.105-.796.316c-.2.211-.305.519-.316.924-.005.08-.008.181-.008.304s.003.224.008.304c.011.405.116.713.316.924.2.211.465.316.796.316zM31.872 37.737a.179.179 0 01-.184-.184v-3.336h-.68a.179.179 0 01-.184-.184v-.272a.179.179 0 01.184-.184h.68v-.4c0-.272.045-.511.136-.716a.997.997 0 01.436-.476c.2-.112.468-.168.804-.168h.48a.179.179 0 01.184.184v.272a.179.179 0 01-.184.184h-.464c-.251 0-.421.065-.512.196-.091.131-.136.319-.136.564v.36h1.032a.179.179 0 01.184.184v.272a.179.179 0 01-.184.184h-1.032v3.336a.179.179 0 01-.184.184h-.376zM37.432 37.737c-.299 0-.541-.057-.728-.172a.99.99 0 01-.408-.488 1.995 1.995 0 01-.128-.748v-2.112h-.624a.179.179 0 01-.184-.184v-.272a.179.179 0 01.184-.184h.624v-1.336a.179.179 0 01.184-.184h.376a.179.179 0 01.184.184v1.336h.992c.059 0 .104.017.136.052a.188.188 0 01.048.132v.272a.188.188 0 01-.048.132c-.032.035-.077.052-.136.052h-.992v2.056c0 .251.043.448.128.592.085.144.237.216.456.216h.488a.179.179 0 01.184.184v.288a.179.179 0 01-.184.184h-.552zM39.04 37.737a.179.179 0 01-.184-.184v-3.784c0-.053.017-.099.052-.136a.174.174 0 01.132-.056h.368c.053 0 .099.019.136.056a.186.186 0 01.056.136v.352a1.02 1.02 0 01.44-.408c.187-.091.413-.136.68-.136h.312a.179.179 0 01.184.184v.328a.165.165 0 01-.052.128.188.188 0 01-.132.048h-.48c-.288 0-.515.084-.68.252-.165.168-.248.396-.248.684v2.352a.174.174 0 01-.056.132.191.191 0 01-.136.052h-.392zM42.912 37.817c-.267 0-.509-.053-.728-.16a1.409 1.409 0 01-.528-.432 1.016 1.016 0 01-.2-.616c0-.368.149-.661.448-.88.299-.219.688-.363 1.168-.432l1.192-.168v-.232c0-.256-.073-.456-.22-.6-.147-.144-.385-.216-.716-.216-.235 0-.427.048-.576.144a.773.773 0 00-.312.368c-.032.08-.088.12-.168.12h-.36c-.059 0-.103-.017-.132-.052a.188.188 0 01-.044-.124c0-.08.031-.179.092-.296.061-.117.156-.232.284-.344a1.63 1.63 0 01.492-.284c.2-.077.444-.116.732-.116.32 0 .589.041.808.124.219.083.391.193.516.332s.216.296.272.472c.056.176.084.355.084.536v2.592a.179.179 0 01-.184.184h-.368c-.059 0-.104-.017-.136-.052a.188.188 0 01-.048-.132v-.344a1.463 1.463 0 01-.72.516 1.994 1.994 0 01-.648.092zm.168-.6c.219 0 .419-.047.6-.14a.997.997 0 00.428-.436c.104-.197.156-.445.156-.744v-.224l-.928.136c-.379.053-.664.143-.856.268-.192.125-.288.284-.288.476a.54.54 0 00.132.372c.088.099.2.172.336.22.136.048.276.072.42.072zM47.768 37.817c-.379 0-.705-.073-.98-.22a1.526 1.526 0 01-.636-.632c-.149-.275-.229-.604-.24-.988a5.32 5.32 0 01-.008-.32c0-.133.003-.24.008-.32.011-.384.091-.713.24-.988s.361-.485.636-.632c.275-.147.601-.22.98-.22.309 0 .575.043.796.128.221.085.404.195.548.328.144.133.252.277.324.432.072.155.111.301.116.44a.142.142 0 01-.048.128.202.202 0 01-.136.048h-.384c-.053 0-.093-.012-.12-.036a.378.378 0 01-.08-.124c-.096-.261-.227-.445-.392-.552a1.111 1.111 0 00-.616-.16c-.32 0-.58.099-.78.296-.2.197-.308.515-.324.952-.005.192-.005.379 0 .56.016.443.124.761.324.956.2.195.46.292.78.292.245 0 .451-.053.616-.16.165-.107.296-.291.392-.552a.443.443 0 01.08-.128c.027-.027.067-.04.12-.04h.384c.053 0 .099.017.136.052a.153.153 0 01.048.132 1.144 1.144 0 01-.072.344 1.47 1.47 0 01-.552.676 1.785 1.785 0 01-.496.224 2.376 2.376 0 01-.664.084zM50.616 37.737a.179.179 0 01-.184-.184v-5.312a.179.179 0 01.184-.184h.376a.179.179 0 01.184.184v2.784l1.576-1.312c.064-.053.113-.089.148-.108a.382.382 0 01.172-.028h.424a.163.163 0 01.168.168.171.171 0 01-.02.072.234.234 0 01-.076.08l-1.848 1.536 2.048 1.992c.064.053.096.101.096.144a.163.163 0 01-.168.168h-.416a.408.408 0 01-.176-.028.755.755 0 01-.144-.108l-1.784-1.704v1.656a.179.179 0 01-.184.184h-.376zM54.656 37.737a.179.179 0 01-.184-.184v-3.792a.179.179 0 01.184-.184h.384a.179.179 0 01.184.184v3.792a.179.179 0 01-.184.184h-.384zm-.064-4.936a.179.179 0 01-.184-.184v-.432c0-.053.017-.099.052-.136a.174.174 0 01.132-.056h.504c.053 0 .099.019.136.056a.186.186 0 01.056.136v.432a.174.174 0 01-.056.132.191.191 0 01-.136.052h-.504zM56.584 37.737a.179.179 0 01-.184-.184v-3.792a.179.179 0 01.184-.184h.376a.179.179 0 01.184.184v.352a1.64 1.64 0 01.524-.444c.211-.115.481-.172.812-.172.347 0 .641.076.884.228.243.152.427.363.552.632.125.269.188.583.188.94v2.256a.179.179 0 01-.184.184h-.4a.179.179 0 01-.184-.184v-2.216c0-.373-.091-.665-.272-.876-.181-.211-.448-.316-.8-.316-.331 0-.596.105-.796.316-.2.211-.3.503-.3.876v2.216a.179.179 0 01-.184.184h-.4zM62.872 39.497c-.363 0-.66-.048-.892-.144a1.586 1.586 0 01-.544-.348 1.326 1.326 0 01-.28-.408 1.101 1.101 0 01-.092-.324.157.157 0 01.052-.136.191.191 0 01.132-.056h.384c.048 0 .088.011.12.032s.059.067.08.136c.032.08.08.169.144.268a.788.788 0 00.296.256c.133.072.32.108.56.108.251 0 .461-.035.632-.104a.745.745 0 00.388-.352c.088-.165.132-.395.132-.688v-.544a1.52 1.52 0 01-.504.412c-.208.109-.469.164-.784.164-.299 0-.555-.052-.768-.156a1.439 1.439 0 01-.524-.424 1.867 1.867 0 01-.304-.612 3.026 3.026 0 01-.116-.72 6.455 6.455 0 010-.44c.011-.251.049-.491.116-.72.067-.229.168-.435.304-.616.136-.181.311-.324.524-.428.213-.104.469-.156.768-.156.32 0 .585.059.796.176.211.117.383.264.516.44v-.344c0-.053.017-.099.052-.136a.174.174 0 01.132-.056h.368c.053 0 .099.019.136.056a.186.186 0 01.056.136v3.88c0 .357-.06.675-.18.952-.12.277-.317.496-.592.656-.275.16-.644.24-1.108.24zm-.016-2.368c.267 0 .481-.061.644-.184.163-.123.283-.277.36-.464a1.59 1.59 0 00.124-.568 4.213 4.213 0 000-.552 1.59 1.59 0 00-.124-.568 1.093 1.093 0 00-.36-.464c-.163-.123-.377-.184-.644-.184s-.48.06-.64.18a.988.988 0 00-.344.472 2.194 2.194 0 00-.12.628c-.005.139-.005.28 0 .424.011.224.051.433.12.628a.988.988 0 00.344.472c.16.12.373.18.64.18zM68.904 37.817c-.267 0-.509-.053-.728-.16a1.409 1.409 0 01-.528-.432 1.016 1.016 0 01-.2-.616c0-.368.149-.661.448-.88.299-.219.688-.363 1.168-.432l1.192-.168v-.232c0-.256-.073-.456-.22-.6-.147-.144-.385-.216-.716-.216-.235 0-.427.048-.576.144a.773.773 0 00-.312.368c-.032.08-.088.12-.168.12h-.36c-.059 0-.103-.017-.132-.052a.188.188 0 01-.044-.124c0-.08.031-.179.092-.296.061-.117.156-.232.284-.344a1.63 1.63 0 01.492-.284c.2-.077.444-.116.732-.116.32 0 .589.041.808.124.219.083.391.193.516.332s.216.296.272.472c.056.176.084.355.084.536v2.592a.179.179 0 01-.184.184h-.368c-.059 0-.104-.017-.136-.052a.188.188 0 01-.048-.132v-.344a1.463 1.463 0 01-.72.516 1.994 1.994 0 01-.648.092zm.168-.6c.219 0 .419-.047.6-.14a.997.997 0 00.428-.436c.104-.197.156-.445.156-.744v-.224l-.928.136c-.379.053-.664.143-.856.268-.192.125-.288.284-.288.476a.54.54 0 00.132.372c.088.099.2.172.336.22.136.048.276.072.42.072zM73.632 37.817c-.341 0-.631-.076-.868-.228a1.44 1.44 0 01-.54-.636 2.25 2.25 0 01-.184-.936v-2.256a.179.179 0 01.184-.184h.4a.179.179 0 01.184.184v2.216c0 .795.347 1.192 1.04 1.192.331 0 .596-.105.796-.316.2-.211.3-.503.3-.876v-2.216a.179.179 0 01.184-.184h.4c.053 0 .096.017.128.052a.188.188 0 01.048.132v3.792a.188.188 0 01-.048.132.165.165 0 01-.128.052h-.376a.179.179 0 01-.184-.184v-.352a1.657 1.657 0 01-.524.448c-.205.112-.476.168-.812.168zM78.336 37.817c-.293 0-.547-.052-.76-.156a1.439 1.439 0 01-.524-.424 1.867 1.867 0 01-.304-.612 3.052 3.052 0 01-.116-.728 4.118 4.118 0 010-.48c.011-.251.049-.491.116-.72.067-.229.168-.435.304-.616.136-.181.311-.324.524-.428.213-.104.467-.156.76-.156.315 0 .576.056.784.168.208.112.379.251.512.416v-1.84a.179.179 0 01.184-.184h.384a.179.179 0 01.184.184v5.312a.179.179 0 01-.184.184h-.36c-.059 0-.104-.017-.136-.052a.188.188 0 01-.048-.132v-.336a1.623 1.623 0 01-.52.428c-.213.115-.48.172-.8.172zm.168-.648c.267 0 .48-.061.64-.184.16-.123.28-.279.36-.468.08-.189.123-.383.128-.58a5.32 5.32 0 000-.616 1.404 1.404 0 00-.132-.552 1.113 1.113 0 00-.368-.448c-.163-.117-.372-.176-.628-.176-.272 0-.488.06-.648.18a.988.988 0 00-.344.472 2.194 2.194 0 00-.12.628 7.178 7.178 0 000 .464c.011.224.051.433.12.628a.988.988 0 00.344.472c.16.12.376.18.648.18zM81.68 37.737a.179.179 0 01-.184-.184v-3.792a.179.179 0 01.184-.184h.384a.179.179 0 01.184.184v3.792a.179.179 0 01-.184.184h-.384zm-.064-4.936a.179.179 0 01-.184-.184v-.432c0-.053.017-.099.052-.136a.174.174 0 01.132-.056h.504c.053 0 .099.019.136.056a.186.186 0 01.056.136v.432a.174.174 0 01-.056.132.191.191 0 01-.136.052h-.504zM84.976 37.737c-.299 0-.541-.057-.728-.172a.99.99 0 01-.408-.488 1.995 1.995 0 01-.128-.748v-2.112h-.624a.179.179 0 01-.184-.184v-.272a.179.179 0 01.184-.184h.624v-1.336a.179.179 0 01.184-.184h.376a.179.179 0 01.184.184v1.336h.992c.059 0 .104.017.136.052a.188.188 0 01.048.132v.272a.188.188 0 01-.048.132c-.032.035-.077.052-.136.052h-.992v2.056c0 .251.043.448.128.592.085.144.237.216.456.216h.488a.179.179 0 01.184.184v.288a.179.179 0 01-.184.184h-.552zM87.84 37.817c-.299 0-.555-.037-.768-.112a1.758 1.758 0 01-.52-.272 1.333 1.333 0 01-.3-.32.626.626 0 01-.108-.256c-.005-.059.013-.104.056-.136a.213.213 0 01.128-.048h.36c.027 0 .049.004.068.012a.258.258 0 01.076.068c.069.075.147.149.232.224.085.075.191.136.316.184.125.048.281.072.468.072.272 0 .496-.052.672-.156a.502.502 0 00.264-.46.46.46 0 00-.108-.32c-.072-.08-.2-.152-.384-.216a6.702 6.702 0 00-.756-.2 2.8 2.8 0 01-.76-.276 1.006 1.006 0 01-.4-.392 1.09 1.09 0 01.056-1.088c.117-.184.289-.335.516-.452.227-.117.511-.176.852-.176.277 0 .515.035.712.104.197.069.36.156.488.26.128.104.224.207.288.308a.594.594 0 01.104.256.153.153 0 01-.048.132.18.18 0 01-.128.052h-.336a.163.163 0 01-.092-.024.45.45 0 01-.068-.056 1.86 1.86 0 00-.188-.208.843.843 0 00-.28-.172 1.258 1.258 0 00-.452-.068c-.267 0-.467.056-.6.168a.53.53 0 00-.2.424c0 .101.029.192.088.272.059.08.171.152.336.216s.411.133.736.208c.352.069.629.163.832.28.203.117.347.253.432.408.085.155.128.333.128.536 0 .224-.064.429-.192.616s-.32.335-.576.444c-.256.109-.571.164-.944.164zM92.464 37.737a.179.179 0 01-.184-.184v-3.792a.179.179 0 01.184-.184h.384a.179.179 0 01.184.184v3.792a.179.179 0 01-.184.184h-.384zm-.064-4.936a.179.179 0 01-.184-.184v-.432c0-.053.017-.099.052-.136a.174.174 0 01.132-.056h.504c.053 0 .099.019.136.056a.186.186 0 01.056.136v.432a.174.174 0 01-.056.132.191.191 0 01-.136.052H92.4zM94.392 37.737a.179.179 0 01-.184-.184v-3.792a.179.179 0 01.184-.184h.376a.179.179 0 01.184.184v.352a1.64 1.64 0 01.524-.444c.211-.115.481-.172.812-.172.347 0 .641.076.884.228.243.152.427.363.552.632.125.269.188.583.188.94v2.256a.179.179 0 01-.184.184h-.4a.179.179 0 01-.184-.184v-2.216c0-.373-.091-.665-.272-.876-.181-.211-.448-.316-.8-.316-.331 0-.596.105-.796.316-.2.211-.3.503-.3.876v2.216a.179.179 0 01-.184.184h-.4zM102.296 37.817c-.299 0-.555-.037-.768-.112a1.758 1.758 0 01-.52-.272 1.333 1.333 0 01-.3-.32.626.626 0 01-.108-.256c-.005-.059.013-.104.056-.136a.213.213 0 01.128-.048h.36c.027 0 .049.004.068.012a.258.258 0 01.076.068c.069.075.147.149.232.224.085.075.191.136.316.184.125.048.281.072.468.072.272 0 .496-.052.672-.156a.502.502 0 00.264-.46.46.46 0 00-.108-.32c-.072-.08-.2-.152-.384-.216a6.702 6.702 0 00-.756-.2 2.8 2.8 0 01-.76-.276 1.006 1.006 0 01-.4-.392 1.09 1.09 0 01.056-1.088c.117-.184.289-.335.516-.452.227-.117.511-.176.852-.176.277 0 .515.035.712.104.197.069.36.156.488.26.128.104.224.207.288.308a.594.594 0 01.104.256.153.153 0 01-.048.132.18.18 0 01-.128.052h-.336a.163.163 0 01-.092-.024.45.45 0 01-.068-.056 1.86 1.86 0 00-.188-.208.843.843 0 00-.28-.172 1.258 1.258 0 00-.452-.068c-.267 0-.467.056-.6.168a.53.53 0 00-.2.424c0 .101.029.192.088.272.059.08.171.152.336.216s.411.133.736.208c.352.069.629.163.832.28.203.117.347.253.432.408.085.155.128.333.128.536 0 .224-.064.429-.192.616s-.32.335-.576.444c-.256.109-.571.164-.944.164zM105.048 39.257a.179.179 0 01-.184-.184v-5.312a.179.179 0 01.184-.184h.368a.179.179 0 01.184.184v.352c.128-.176.299-.323.512-.44.213-.117.48-.176.8-.176.299 0 .553.051.764.152.211.101.384.24.52.416s.239.376.308.6c.069.224.109.464.12.72a4.635 4.635 0 010 .544 2.883 2.883 0 01-.12.716 1.814 1.814 0 01-.308.6 1.486 1.486 0 01-.52.416 1.712 1.712 0 01-.764.156c-.309 0-.569-.057-.78-.172a1.629 1.629 0 01-.516-.428v1.856a.188.188 0 01-.048.132.165.165 0 01-.128.052h-.392zm1.696-2.088c.277 0 .495-.06.652-.18a1 1 0 00.34-.472c.069-.195.109-.404.12-.628a7.178 7.178 0 000-.464 2.194 2.194 0 00-.12-.628 1 1 0 00-.34-.472c-.157-.12-.375-.18-.652-.18-.261 0-.473.061-.636.184a1.092 1.092 0 00-.36.468 1.796 1.796 0 00-.132.58 5.247 5.247 0 000 .616c.005.187.049.371.132.552.083.181.207.331.372.448.165.117.373.176.624.176zM109.728 37.737a.179.179 0 01-.184-.184v-3.784c0-.053.017-.099.052-.136a.174.174 0 01.132-.056h.368c.053 0 .099.019.136.056a.186.186 0 01.056.136v.352a1.02 1.02 0 01.44-.408c.187-.091.413-.136.68-.136h.312a.179.179 0 01.184.184v.328a.165.165 0 01-.052.128.188.188 0 01-.132.048h-.48c-.288 0-.515.084-.68.252-.165.168-.248.396-.248.684v2.352a.174.174 0 01-.056.132.191.191 0 01-.136.052h-.392zM114.088 37.817c-.555 0-.995-.169-1.32-.508-.325-.339-.504-.801-.536-1.388a3.824 3.824 0 01-.008-.268c0-.109.003-.199.008-.268.021-.379.109-.711.264-.996.155-.285.367-.505.636-.66.269-.155.585-.232.948-.232.405 0 .745.085 1.02.256.275.171.484.413.628.728.144.315.216.683.216 1.104v.136c0 .059-.017.104-.052.136a.188.188 0 01-.132.048h-2.768v.072c.011.219.059.423.144.612.085.189.209.343.372.46a.954.954 0 00.572.176 1.147 1.147 0 00.952-.456.407.407 0 01.112-.116.309.309 0 01.128-.02h.392c.048 0 .089.015.124.044.035.029.049.071.044.124a.618.618 0 01-.128.292c-.08.115-.193.228-.34.34a1.862 1.862 0 01-.544.276c-.216.072-.46.108-.732.108zm-1.096-2.464h2.192v-.024c0-.24-.044-.453-.132-.64a1.063 1.063 0 00-.38-.444 1.051 1.051 0 00-.592-.164c-.229 0-.425.055-.588.164a1.038 1.038 0 00-.372.444 1.53 1.53 0 00-.128.64v.024zM117.984 37.817c-.267 0-.509-.053-.728-.16a1.409 1.409 0 01-.528-.432 1.016 1.016 0 01-.2-.616c0-.368.149-.661.448-.88.299-.219.688-.363 1.168-.432l1.192-.168v-.232c0-.256-.073-.456-.22-.6-.147-.144-.385-.216-.716-.216-.235 0-.427.048-.576.144a.773.773 0 00-.312.368c-.032.08-.088.12-.168.12h-.36c-.059 0-.103-.017-.132-.052a.188.188 0 01-.044-.124c0-.08.031-.179.092-.296.061-.117.156-.232.284-.344a1.63 1.63 0 01.492-.284c.2-.077.444-.116.732-.116.32 0 .589.041.808.124.219.083.391.193.516.332s.216.296.272.472c.056.176.084.355.084.536v2.592a.179.179 0 01-.184.184h-.368c-.059 0-.104-.017-.136-.052a.188.188 0 01-.048-.132v-.344a1.463 1.463 0 01-.72.516 1.994 1.994 0 01-.648.092zm.168-.6c.219 0 .419-.047.6-.14a.997.997 0 00.428-.436c.104-.197.156-.445.156-.744v-.224l-.928.136c-.379.053-.664.143-.856.268-.192.125-.288.284-.288.476a.54.54 0 00.132.372c.088.099.2.172.336.22.136.048.276.072.42.072zM122.68 37.817c-.293 0-.547-.052-.76-.156a1.439 1.439 0 01-.524-.424 1.867 1.867 0 01-.304-.612 3.052 3.052 0 01-.116-.728 4.118 4.118 0 010-.48c.011-.251.049-.491.116-.72.067-.229.168-.435.304-.616.136-.181.311-.324.524-.428.213-.104.467-.156.76-.156.315 0 .576.056.784.168.208.112.379.251.512.416v-1.84a.179.179 0 01.184-.184h.384a.179.179 0 01.184.184v5.312a.179.179 0 01-.184.184h-.36c-.059 0-.104-.017-.136-.052a.188.188 0 01-.048-.132v-.336a1.623 1.623 0 01-.52.428c-.213.115-.48.172-.8.172zm.168-.648c.267 0 .48-.061.64-.184.16-.123.28-.279.36-.468.08-.189.123-.383.128-.58a5.32 5.32 0 000-.616 1.404 1.404 0 00-.132-.552 1.113 1.113 0 00-.368-.448c-.163-.117-.372-.176-.628-.176-.272 0-.488.06-.648.18a.988.988 0 00-.344.472 2.194 2.194 0 00-.12.628 7.178 7.178 0 000 .464c.011.224.051.433.12.628a.988.988 0 00.344.472c.16.12.376.18.648.18zM127.28 37.817c-.299 0-.555-.037-.768-.112a1.758 1.758 0 01-.52-.272 1.333 1.333 0 01-.3-.32.626.626 0 01-.108-.256c-.005-.059.013-.104.056-.136a.213.213 0 01.128-.048h.36c.027 0 .049.004.068.012a.258.258 0 01.076.068c.069.075.147.149.232.224.085.075.191.136.316.184.125.048.281.072.468.072.272 0 .496-.052.672-.156a.502.502 0 00.264-.46.46.46 0 00-.108-.32c-.072-.08-.2-.152-.384-.216a6.702 6.702 0 00-.756-.2 2.8 2.8 0 01-.76-.276 1.006 1.006 0 01-.4-.392 1.09 1.09 0 01.056-1.088c.117-.184.289-.335.516-.452.227-.117.511-.176.852-.176.277 0 .515.035.712.104.197.069.36.156.488.26.128.104.224.207.288.308a.594.594 0 01.104.256.153.153 0 01-.048.132.18.18 0 01-.128.052h-.336a.163.163 0 01-.092-.024.45.45 0 01-.068-.056 1.86 1.86 0 00-.188-.208.843.843 0 00-.28-.172 1.258 1.258 0 00-.452-.068c-.267 0-.467.056-.6.168a.53.53 0 00-.2.424c0 .101.029.192.088.272.059.08.171.152.336.216s.411.133.736.208c.352.069.629.163.832.28.203.117.347.253.432.408.085.155.128.333.128.536 0 .224-.064.429-.192.616s-.32.335-.576.444c-.256.109-.571.164-.944.164zM130.032 37.737a.179.179 0 01-.184-.184v-5.312a.179.179 0 01.184-.184h.4c.059 0 .104.017.136.052a.188.188 0 01.048.132v1.864c.144-.181.32-.328.528-.44.208-.112.472-.168.792-.168.347 0 .641.076.884.228.243.152.427.363.552.632.125.269.188.583.188.94v2.256a.188.188 0 01-.048.132c-.032.035-.077.052-.136.052h-.4a.179.179 0 01-.184-.184v-2.216c0-.373-.091-.665-.272-.876-.181-.211-.448-.316-.8-.316-.331 0-.597.105-.8.316-.203.211-.304.503-.304.876v2.216a.188.188 0 01-.048.132c-.032.035-.077.052-.136.052h-.4zM136.296 37.817c-.555 0-.995-.169-1.32-.508-.325-.339-.504-.801-.536-1.388a3.824 3.824 0 01-.008-.268c0-.109.003-.199.008-.268.021-.379.109-.711.264-.996.155-.285.367-.505.636-.66.269-.155.585-.232.948-.232.405 0 .745.085 1.02.256.275.171.484.413.628.728.144.315.216.683.216 1.104v.136c0 .059-.017.104-.052.136a.188.188 0 01-.132.048H135.2v.072c.011.219.059.423.144.612.085.189.209.343.372.46a.954.954 0 00.572.176 1.147 1.147 0 00.952-.456.407.407 0 01.112-.116.309.309 0 01.128-.02h.392c.048 0 .089.015.124.044.035.029.049.071.044.124a.618.618 0 01-.128.292c-.08.115-.193.228-.34.34a1.862 1.862 0 01-.544.276c-.216.072-.46.108-.732.108zm-1.096-2.464h2.192v-.024c0-.24-.044-.453-.132-.64a1.063 1.063 0 00-.38-.444 1.051 1.051 0 00-.592-.164c-.229 0-.425.055-.588.164a1.038 1.038 0 00-.372.444 1.53 1.53 0 00-.128.64v.024zM140.696 37.817c-.555 0-.995-.169-1.32-.508-.325-.339-.504-.801-.536-1.388a3.824 3.824 0 01-.008-.268c0-.109.003-.199.008-.268.021-.379.109-.711.264-.996.155-.285.367-.505.636-.66.269-.155.585-.232.948-.232.405 0 .745.085 1.02.256.275.171.484.413.628.728.144.315.216.683.216 1.104v.136c0 .059-.017.104-.052.136a.188.188 0 01-.132.048H139.6v.072c.011.219.059.423.144.612.085.189.209.343.372.46a.954.954 0 00.572.176 1.147 1.147 0 00.952-.456.407.407 0 01.112-.116.309.309 0 01.128-.02h.392c.048 0 .089.015.124.044.035.029.049.071.044.124a.618.618 0 01-.128.292c-.08.115-.193.228-.34.34a1.862 1.862 0 01-.544.276c-.216.072-.46.108-.732.108zm-1.096-2.464h2.192v-.024c0-.24-.044-.453-.132-.64a1.063 1.063 0 00-.38-.444 1.051 1.051 0 00-.592-.164c-.229 0-.425.055-.588.164a1.038 1.038 0 00-.372.444 1.53 1.53 0 00-.128.64v.024zM145.032 37.737c-.299 0-.541-.057-.728-.172a.99.99 0 01-.408-.488 1.995 1.995 0 01-.128-.748v-2.112h-.624a.179.179 0 01-.184-.184v-.272a.179.179 0 01.184-.184h.624v-1.336a.179.179 0 01.184-.184h.376a.179.179 0 01.184.184v1.336h.992c.059 0 .104.017.136.052a.188.188 0 01.048.132v.272a.188.188 0 01-.048.132c-.032.035-.077.052-.136.052h-.992v2.056c0 .251.043.448.128.592.085.144.237.216.456.216h.488a.179.179 0 01.184.184v.288a.179.179 0 01-.184.184h-.552zM147.896 37.817c-.299 0-.555-.037-.768-.112a1.758 1.758 0 01-.52-.272 1.333 1.333 0 01-.3-.32.626.626 0 01-.108-.256c-.005-.059.013-.104.056-.136a.213.213 0 01.128-.048h.36c.027 0 .049.004.068.012a.258.258 0 01.076.068c.069.075.147.149.232.224.085.075.191.136.316.184.125.048.281.072.468.072.272 0 .496-.052.672-.156a.502.502 0 00.264-.46.46.46 0 00-.108-.32c-.072-.08-.2-.152-.384-.216a6.702 6.702 0 00-.756-.2 2.8 2.8 0 01-.76-.276 1.006 1.006 0 01-.4-.392 1.09 1.09 0 01.056-1.088c.117-.184.289-.335.516-.452.227-.117.511-.176.852-.176.277 0 .515.035.712.104.197.069.36.156.488.26.128.104.224.207.288.308a.594.594 0 01.104.256.153.153 0 01-.048.132.18.18 0 01-.128.052h-.336a.163.163 0 01-.092-.024.45.45 0 01-.068-.056 1.86 1.86 0 00-.188-.208.843.843 0 00-.28-.172 1.258 1.258 0 00-.452-.068c-.267 0-.467.056-.6.168a.53.53 0 00-.2.424c0 .101.029.192.088.272.059.08.171.152.336.216s.411.133.736.208c.352.069.629.163.832.28.203.117.347.253.432.408.085.155.128.333.128.536 0 .224-.064.429-.192.616s-.32.335-.576.444c-.256.109-.571.164-.944.164zM151.776 36.425a.172.172 0 01-.12-.044.16.16 0 01-.048-.124v-.32c.011-.229.061-.432.152-.608s.201-.336.332-.48c.131-.144.263-.281.396-.412.133-.131.247-.263.34-.396a.973.973 0 00.172-.424.666.666 0 00-.112-.484.907.907 0 00-.392-.3 1.316 1.316 0 00-.512-.104c-.283 0-.524.073-.724.22-.2.147-.332.393-.396.74a.23.23 0 01-.08.136.212.212 0 01-.128.04h-.384a.177.177 0 01-.124-.048.165.165 0 01-.052-.128 1.557 1.557 0 01.532-1.144 1.92 1.92 0 01.6-.356c.232-.088.492-.132.78-.132.325 0 .604.044.836.132.232.088.419.205.56.352.141.147.244.308.308.484s.091.352.08.528a1.409 1.409 0 01-.16.572c-.091.168-.2.323-.328.464-.128.141-.257.28-.388.416a2.531 2.531 0 00-.332.424 1.082 1.082 0 00-.16.476 5.547 5.547 0 00-.016.336.251.251 0 01-.064.136c-.032.032-.077.048-.136.048h-.432zm-.064 1.312a.179.179 0 01-.184-.184v-.488a.179.179 0 01.184-.184h.52c.059 0 .105.017.14.052a.179.179 0 01.052.132v.488a.179.179 0 01-.052.132.188.188 0 01-.14.052h-.52zM18.213 49.566a.197.197 0 01-.153-.063.197.197 0 01-.063-.153v-5.859c0-.063.018-.117.063-.162a.197.197 0 01.153-.063h3.906c.063 0 .117.018.162.063a.217.217 0 01.063.162v.63c0 .063-.018.117-.063.153a.217.217 0 01-.162.063H19.23v1.71h2.709c.063 0 .117.018.162.063a.217.217 0 01.063.162v.63a.197.197 0 01-.063.153.217.217 0 01-.162.063H19.23v2.232a.197.197 0 01-.063.153.217.217 0 01-.162.063h-.792zM25.189 49.656c-.477 0-.882-.081-1.206-.252a1.731 1.731 0 01-.747-.711 2.52 2.52 0 01-.297-1.071c-.009-.108-.009-.243-.009-.396 0-.153 0-.288.009-.396.027-.414.126-.774.306-1.071.171-.306.423-.54.756-.711.324-.171.72-.252 1.188-.252.468 0 .864.081 1.197.252.324.171.576.405.747.711.18.297.279.657.306 1.071.009.108.009.243.009.396 0 .153 0 .288-.009.396-.027.405-.117.765-.297 1.071-.171.306-.414.54-.747.711-.324.171-.729.252-1.206.252zm0-.891c.315 0 .567-.099.738-.297.171-.207.27-.504.288-.891.009-.09.009-.207.009-.351s0-.261-.009-.351c-.018-.387-.117-.684-.288-.891-.171-.198-.423-.297-.738-.297s-.567.099-.738.306c-.171.198-.27.495-.288.882-.009.09-.009.207-.009.351s0 .261.009.351c.018.387.117.684.288.891.171.198.423.297.738.297zM30.384 49.656c-.432 0-.81-.081-1.134-.243a1.722 1.722 0 01-.765-.711c-.189-.306-.288-.675-.306-1.116-.009-.09-.009-.207-.009-.36 0-.144 0-.261.009-.36.018-.441.117-.81.306-1.125.18-.306.432-.54.765-.702.324-.162.702-.243 1.134-.243.387 0 .711.054.981.162.27.099.495.234.666.396.171.171.306.342.387.513.09.18.135.342.144.486.009.063-.018.117-.063.162a.227.227 0 01-.153.054h-.792a.229.229 0 01-.144-.045.435.435 0 01-.09-.135c-.09-.243-.207-.405-.36-.504-.144-.108-.333-.153-.558-.153-.297 0-.54.099-.72.288-.171.189-.27.486-.279.891a7.34 7.34 0 000 .63c.009.414.108.711.279.9.18.189.423.279.72.279.234 0 .423-.045.567-.144.144-.099.261-.27.351-.513a.329.329 0 01.099-.135c.027-.027.072-.045.135-.045h.792c.063 0 .108.018.153.063.045.036.072.09.063.153a1.289 1.289 0 01-.09.369 1.34 1.34 0 01-.243.414c-.108.135-.243.27-.414.387a2.137 2.137 0 01-.612.279 2.779 2.779 0 01-.819.108zM35.146 49.656c-.369 0-.684-.081-.954-.252a1.615 1.615 0 01-.612-.702c-.144-.297-.216-.657-.216-1.071v-2.529c0-.063.018-.108.063-.153a.197.197 0 01.153-.063h.792c.063 0 .117.018.153.063.045.045.063.09.063.153v2.475c0 .747.324 1.116.981 1.116.315 0 .558-.099.747-.297.18-.198.27-.468.27-.819v-2.475c0-.063.018-.108.063-.153a.197.197 0 01.153-.063h.792c.063 0 .108.018.153.063s.063.09.063.153v4.248a.197.197 0 01-.063.153.197.197 0 01-.153.063h-.729a.217.217 0 01-.162-.063.227.227 0 01-.054-.153v-.369a1.7 1.7 0 01-.603.495c-.243.117-.54.18-.9.18zM40.677 49.656a3.12 3.12 0 01-.927-.126 2.006 2.006 0 01-.621-.315 1.55 1.55 0 01-.36-.378.758.758 0 01-.126-.315.163.163 0 01.063-.153.192.192 0 01.144-.063h.711c.027 0 .045 0 .063.009a.295.295 0 01.072.054c.081.063.162.135.243.207.09.072.198.135.315.189.117.045.27.072.45.072.234 0 .432-.045.594-.135a.464.464 0 00.234-.405.438.438 0 00-.108-.306c-.063-.081-.189-.144-.378-.207a5.675 5.675 0 00-.792-.207 3.745 3.745 0 01-.837-.297 1.211 1.211 0 01-.495-.45 1.193 1.193 0 01-.162-.63c0-.234.072-.459.207-.675.144-.207.351-.387.63-.522s.63-.207 1.044-.207c.324 0 .603.045.846.126s.441.18.594.297c.162.117.288.243.369.36a.777.777 0 01.135.324.181.181 0 01-.054.162.22.22 0 01-.144.054h-.666a.263.263 0 01-.081-.018c-.027-.009-.045-.027-.072-.045-.063-.063-.135-.126-.216-.198a1.108 1.108 0 00-.288-.171 1.134 1.134 0 00-.432-.072c-.225 0-.405.054-.522.153a.476.476 0 00-.099.639c.063.072.18.144.351.207.171.063.441.135.792.207.405.072.72.18.954.324.243.135.405.297.504.486.108.18.153.378.153.603 0 .27-.081.513-.243.729-.153.216-.387.387-.702.513-.306.117-.684.18-1.143.18zM47.644 49.656c-.477 0-.882-.081-1.206-.252a1.731 1.731 0 01-.747-.711 2.52 2.52 0 01-.297-1.071c-.009-.108-.009-.243-.009-.396 0-.153 0-.288.009-.396.027-.414.126-.774.306-1.071.171-.306.423-.54.756-.711.324-.171.72-.252 1.188-.252.468 0 .864.081 1.197.252.324.171.576.405.747.711.18.297.279.657.306 1.071.009.108.009.243.009.396 0 .153 0 .288-.009.396-.027.405-.117.765-.297 1.071-.171.306-.414.54-.747.711-.324.171-.729.252-1.206.252zm0-.891c.315 0 .567-.099.738-.297.171-.207.27-.504.288-.891.009-.09.009-.207.009-.351s0-.261-.009-.351c-.018-.387-.117-.684-.288-.891-.171-.198-.423-.297-.738-.297s-.567.099-.738.306c-.171.198-.27.495-.288.882-.009.09-.009.207-.009.351s0 .261.009.351c.018.387.117.684.288.891.171.198.423.297.738.297zM51.03 49.566a.197.197 0 01-.153-.063.197.197 0 01-.063-.153v-4.248c0-.063.018-.108.063-.153a.197.197 0 01.153-.063h.738c.063 0 .108.018.153.063s.063.09.063.153v.369c.153-.189.36-.351.603-.486.243-.126.54-.189.9-.189.369 0 .684.081.954.243.27.171.477.405.63.702.144.297.216.657.216 1.08v2.529a.197.197 0 01-.063.153.197.197 0 01-.153.063h-.792a.197.197 0 01-.153-.063.197.197 0 01-.063-.153v-2.475c0-.351-.081-.621-.252-.819-.171-.198-.423-.297-.747-.297-.315 0-.558.099-.747.297-.189.198-.279.468-.279.819v2.475a.197.197 0 01-.063.153.197.197 0 01-.153.063h-.792zM59.392 49.566c-.081 0-.144-.018-.189-.063a.51.51 0 01-.108-.162l-1.287-4.176c-.009-.027-.009-.054-.009-.081 0-.054.018-.099.054-.135a.188.188 0 01.135-.063h.666c.072 0 .126.018.171.063a.19.19 0 01.072.108l.882 2.979.936-2.952c.009-.045.036-.081.081-.126a.258.258 0 01.189-.072h.45c.081 0 .144.027.189.072.045.045.072.081.081.126l.936 2.952.882-2.979a.226.226 0 01.234-.171h.666c.054 0 .099.018.135.063a.162.162 0 01.063.135.263.263 0 01-.018.081l-1.287 4.176a.36.36 0 01-.09.162.29.29 0 01-.198.063h-.585c-.081 0-.144-.018-.189-.063a.324.324 0 01-.108-.162l-.936-2.844-.936 2.844a.49.49 0 01-.099.162c-.045.045-.117.063-.207.063h-.576zM65.629 49.566a.197.197 0 01-.153-.063.197.197 0 01-.063-.153v-5.958c0-.063.018-.108.063-.153a.197.197 0 01.153-.063h.801c.063 0 .117.018.162.063.036.045.054.09.054.153v2.052c.162-.189.36-.351.594-.468.234-.117.522-.18.864-.18.369 0 .684.081.963.252.27.162.477.396.63.693.153.297.225.657.225 1.08v2.529a.197.197 0 01-.063.153.197.197 0 01-.153.063h-.81a.197.197 0 01-.153-.063.197.197 0 01-.063-.153v-2.475c0-.351-.081-.621-.252-.819-.171-.198-.423-.297-.747-.297-.315 0-.558.099-.747.297-.189.198-.288.468-.288.819v2.475a.227.227 0 01-.054.153.217.217 0 01-.162.063h-.801zM72.333 49.656c-.315 0-.594-.063-.846-.189a1.557 1.557 0 01-.603-.495 1.173 1.173 0 01-.216-.693c0-.423.171-.756.513-.999.342-.252.792-.423 1.341-.504l1.233-.18v-.189c0-.252-.063-.45-.189-.585-.126-.135-.342-.207-.648-.207a.917.917 0 00-.522.135.752.752 0 00-.306.342.22.22 0 01-.207.117h-.711c-.063 0-.117-.018-.144-.054a.19.19 0 01-.054-.144.833.833 0 01.126-.351c.072-.135.189-.27.342-.396.153-.135.351-.243.594-.333.243-.09.54-.135.891-.135.378 0 .702.045.963.144.261.09.468.216.621.369.153.153.27.342.342.549.072.207.108.432.108.666v2.826a.197.197 0 01-.063.153.197.197 0 01-.153.063h-.729c-.063 0-.117-.018-.153-.063a.197.197 0 01-.063-.153v-.351a1.49 1.49 0 01-.315.315 1.708 1.708 0 01-.477.252c-.189.063-.414.09-.675.09zm.306-.855c.207 0 .405-.045.576-.135a.948.948 0 00.405-.414c.099-.189.144-.432.144-.72v-.189l-.9.144c-.351.054-.621.144-.792.261-.171.117-.261.27-.261.441 0 .135.045.243.126.342a.74.74 0 00.306.207c.126.045.261.063.396.063zM78.094 49.566c-.36 0-.666-.063-.909-.189a1.199 1.199 0 01-.549-.567c-.117-.243-.18-.558-.18-.927V45.84h-.711a.197.197 0 01-.153-.063.217.217 0 01-.063-.162v-.513c0-.063.018-.108.063-.153a.197.197 0 01.153-.063h.711v-1.494c0-.063.018-.108.063-.153.036-.045.09-.063.153-.063h.729c.063 0 .108.018.153.063s.063.09.063.153v1.494h1.125c.063 0 .108.018.153.063s.063.09.063.153v.513a.217.217 0 01-.063.162.197.197 0 01-.153.063h-1.125v1.953c0 .243.045.441.135.576.081.135.234.207.45.207h.621c.063 0 .108.018.153.063s.063.09.063.153v.558a.197.197 0 01-.063.153.197.197 0 01-.153.063h-.729zM81.935 49.566a.197.197 0 01-.153-.063.197.197 0 01-.063-.153v-4.239c0-.063.018-.117.063-.162a.197.197 0 01.153-.063h.729c.063 0 .117.018.162.063a.217.217 0 01.063.162v.369c.135-.189.315-.342.531-.441.225-.099.477-.153.765-.153h.369c.063 0 .117.018.162.063.036.045.054.09.054.153v.648a.197.197 0 01-.063.153c-.036.045-.09.063-.153.063h-.702c-.288 0-.513.081-.666.234-.162.162-.243.387-.243.675v2.475a.197.197 0 01-.063.153.217.217 0 01-.162.063h-.783zM87.335 49.656c-.666 0-1.197-.189-1.584-.576-.387-.387-.603-.927-.63-1.638-.009-.063-.009-.135-.009-.234 0-.09 0-.162.009-.216.027-.459.126-.846.315-1.17.18-.333.432-.585.756-.765a2.408 2.408 0 011.143-.261c.486 0 .891.099 1.224.306.333.198.576.477.747.828.171.36.252.774.252 1.242v.189a.197.197 0 01-.063.153.217.217 0 01-.162.063h-2.988v.072c.009.207.045.405.126.585a.96.96 0 00.333.423.84.84 0 00.522.162c.171 0 .306-.027.423-.072a1.15 1.15 0 00.279-.18.8.8 0 00.153-.162c.054-.072.099-.117.135-.126a.291.291 0 01.144-.027h.774a.19.19 0 01.144.054.135.135 0 01.054.135.782.782 0 01-.144.351c-.099.135-.234.27-.405.405a2.136 2.136 0 01-.657.333 2.956 2.956 0 01-.891.126zm-.99-2.835h1.989v-.027c0-.234-.036-.441-.117-.612a.917.917 0 00-.882-.567.917.917 0 00-.882.567 1.583 1.583 0 00-.108.612v.027zM91.783 49.656c-.315 0-.594-.063-.846-.189a1.557 1.557 0 01-.603-.495 1.173 1.173 0 01-.216-.693c0-.423.171-.756.513-.999.342-.252.792-.423 1.341-.504l1.233-.18v-.189c0-.252-.063-.45-.189-.585-.126-.135-.342-.207-.648-.207a.917.917 0 00-.522.135.752.752 0 00-.306.342.22.22 0 01-.207.117h-.711c-.063 0-.117-.018-.144-.054a.19.19 0 01-.054-.144.833.833 0 01.126-.351c.072-.135.189-.27.342-.396.153-.135.351-.243.594-.333.243-.09.54-.135.891-.135.378 0 .702.045.963.144.261.09.468.216.621.369.153.153.27.342.342.549.072.207.108.432.108.666v2.826a.197.197 0 01-.063.153.197.197 0 01-.153.063h-.729c-.063 0-.117-.018-.153-.063a.197.197 0 01-.063-.153v-.351a1.49 1.49 0 01-.315.315 1.708 1.708 0 01-.477.252c-.189.063-.414.09-.675.09zm.306-.855c.207 0 .405-.045.576-.135a.948.948 0 00.405-.414c.099-.189.144-.432.144-.72v-.189l-.9.144c-.351.054-.621.144-.792.261-.171.117-.261.27-.261.441 0 .135.045.243.126.342a.74.74 0 00.306.207c.126.045.261.063.396.063zM95.694 49.566a.197.197 0 01-.153-.063.197.197 0 01-.063-.153v-5.958c0-.063.018-.108.063-.153a.197.197 0 01.153-.063h.747c.063 0 .108.018.153.063s.063.09.063.153v5.958a.197.197 0 01-.063.153.197.197 0 01-.153.063h-.747zM97.989 49.566a.197.197 0 01-.153-.063.197.197 0 01-.063-.153v-5.958c0-.063.018-.108.063-.153a.197.197 0 01.153-.063h.747c.063 0 .108.018.153.063s.063.09.063.153v5.958a.197.197 0 01-.063.153.197.197 0 01-.153.063h-.747zM100.905 51.276a.178.178 0 01-.126-.054.178.178 0 01-.054-.126c0-.027 0-.045.009-.063 0-.027.009-.054.027-.081l.702-1.665-1.728-4.077a.339.339 0 01-.036-.126.237.237 0 01.063-.135.162.162 0 01.135-.063h.729c.072 0 .126.018.162.054a.342.342 0 01.081.117L102.066 48l1.233-2.943a.274.274 0 01.081-.117c.036-.036.09-.054.162-.054h.72c.045 0 .09.018.126.054a.157.157 0 01.063.126.367.367 0 01-.036.144l-2.547 5.895c-.027.045-.054.09-.09.117-.036.036-.09.054-.162.054h-.711zM107.09 49.566a.197.197 0 01-.153-.063.197.197 0 01-.063-.153v-4.248c0-.063.018-.108.063-.153a.197.197 0 01.153-.063h.702c.063 0 .108.018.153.063s.063.09.063.153v.306c.126-.171.297-.315.504-.432.216-.117.468-.171.765-.18.684-.009 1.161.252 1.431.801.135-.243.333-.432.603-.585.261-.144.549-.216.864-.216.315 0 .594.072.855.216.252.144.45.36.603.657.144.288.216.657.216 1.098v2.583a.197.197 0 01-.063.153.197.197 0 01-.153.063h-.738a.197.197 0 01-.153-.063.197.197 0 01-.063-.153v-2.511c0-.27-.036-.486-.117-.648-.081-.153-.18-.27-.315-.333a1.023 1.023 0 00-.441-.099.92.92 0 00-.396.099.727.727 0 00-.324.333c-.081.162-.126.378-.126.648v2.511a.197.197 0 01-.063.153.197.197 0 01-.153.063h-.738a.197.197 0 01-.153-.063.197.197 0 01-.063-.153v-2.511c0-.27-.045-.486-.126-.648a.727.727 0 00-.324-.333.974.974 0 00-.423-.099.958.958 0 00-.405.099.796.796 0 00-.324.342c-.081.153-.126.369-.126.639v2.511a.197.197 0 01-.063.153.197.197 0 01-.153.063h-.756zM116.263 49.656c-.315 0-.594-.063-.846-.189a1.557 1.557 0 01-.603-.495 1.173 1.173 0 01-.216-.693c0-.423.171-.756.513-.999.342-.252.792-.423 1.341-.504l1.233-.18v-.189c0-.252-.063-.45-.189-.585-.126-.135-.342-.207-.648-.207a.917.917 0 00-.522.135.752.752 0 00-.306.342.22.22 0 01-.207.117h-.711c-.063 0-.117-.018-.144-.054a.19.19 0 01-.054-.144.833.833 0 01.126-.351c.072-.135.189-.27.342-.396.153-.135.351-.243.594-.333.243-.09.54-.135.891-.135.378 0 .702.045.963.144.261.09.468.216.621.369.153.153.27.342.342.549.072.207.108.432.108.666v2.826a.197.197 0 01-.063.153.197.197 0 01-.153.063h-.729c-.063 0-.117-.018-.153-.063a.197.197 0 01-.063-.153v-.351a1.49 1.49 0 01-.315.315 1.708 1.708 0 01-.477.252c-.189.063-.414.09-.675.09zm.306-.855c.207 0 .405-.045.576-.135a.948.948 0 00.405-.414c.099-.189.144-.432.144-.72v-.189l-.9.144c-.351.054-.621.144-.792.261-.171.117-.261.27-.261.441 0 .135.045.243.126.342a.74.74 0 00.306.207c.126.045.261.063.396.063zM122.019 49.566c-.36 0-.666-.063-.909-.189a1.199 1.199 0 01-.549-.567c-.117-.243-.18-.558-.18-.927V45.84h-.711a.197.197 0 01-.153-.063.217.217 0 01-.063-.162v-.513c0-.063.018-.108.063-.153a.197.197 0 01.153-.063h.711v-1.494c0-.063.018-.108.063-.153.036-.045.09-.063.153-.063h.729c.063 0 .108.018.153.063s.063.09.063.153v1.494h1.125c.063 0 .108.018.153.063s.063.09.063.153v.513a.217.217 0 01-.063.162.197.197 0 01-.153.063h-1.125v1.953c0 .243.045.441.135.576.081.135.234.207.45.207h.621c.063 0 .108.018.153.063s.063.09.063.153v.558a.197.197 0 01-.063.153.197.197 0 01-.153.063h-.729zM125.794 49.566c-.36 0-.666-.063-.909-.189a1.199 1.199 0 01-.549-.567c-.117-.243-.18-.558-.18-.927V45.84h-.711a.197.197 0 01-.153-.063.217.217 0 01-.063-.162v-.513c0-.063.018-.108.063-.153a.197.197 0 01.153-.063h.711v-1.494c0-.063.018-.108.063-.153.036-.045.09-.063.153-.063h.729c.063 0 .108.018.153.063s.063.09.063.153v1.494h1.125c.063 0 .108.018.153.063s.063.09.063.153v.513a.217.217 0 01-.063.162.197.197 0 01-.153.063h-1.125v1.953c0 .243.045.441.135.576.081.135.234.207.45.207h.621c.063 0 .108.018.153.063s.063.09.063.153v.558a.197.197 0 01-.063.153.197.197 0 01-.153.063h-.729zM129.465 49.656c-.666 0-1.197-.189-1.584-.576-.387-.387-.603-.927-.63-1.638-.009-.063-.009-.135-.009-.234 0-.09 0-.162.009-.216.027-.459.126-.846.315-1.17.18-.333.432-.585.756-.765a2.408 2.408 0 011.143-.261c.486 0 .891.099 1.224.306.333.198.576.477.747.828.171.36.252.774.252 1.242v.189a.197.197 0 01-.063.153.217.217 0 01-.162.063h-2.988v.072c.009.207.045.405.126.585a.96.96 0 00.333.423.84.84 0 00.522.162c.171 0 .306-.027.423-.072a1.15 1.15 0 00.279-.18.8.8 0 00.153-.162c.054-.072.099-.117.135-.126a.291.291 0 01.144-.027h.774a.19.19 0 01.144.054.135.135 0 01.054.135.782.782 0 01-.144.351c-.099.135-.234.27-.405.405a2.136 2.136 0 01-.657.333 2.956 2.956 0 01-.891.126zm-.99-2.835h1.989v-.027c0-.234-.036-.441-.117-.612a.917.917 0 00-.882-.567.917.917 0 00-.882.567 1.583 1.583 0 00-.108.612v.027zM132.765 49.566a.197.197 0 01-.153-.063.197.197 0 01-.063-.153v-4.239c0-.063.018-.117.063-.162a.197.197 0 01.153-.063h.729c.063 0 .117.018.162.063a.217.217 0 01.063.162v.369c.135-.189.315-.342.531-.441.225-.099.477-.153.765-.153h.369c.063 0 .117.018.162.063.036.045.054.09.054.153v.648a.197.197 0 01-.063.153c-.036.045-.09.063-.153.063h-.702c-.288 0-.513.081-.666.234-.162.162-.243.387-.243.675v2.475a.197.197 0 01-.063.153.217.217 0 01-.162.063h-.783zM137.987 49.656a3.12 3.12 0 01-.927-.126 2.006 2.006 0 01-.621-.315 1.55 1.55 0 01-.36-.378.758.758 0 01-.126-.315.163.163 0 01.063-.153.192.192 0 01.144-.063h.711c.027 0 .045 0 .063.009a.295.295 0 01.072.054c.081.063.162.135.243.207.09.072.198.135.315.189.117.045.27.072.45.072.234 0 .432-.045.594-.135a.464.464 0 00.234-.405.438.438 0 00-.108-.306c-.063-.081-.189-.144-.378-.207a5.675 5.675 0 00-.792-.207 3.745 3.745 0 01-.837-.297 1.211 1.211 0 01-.495-.45 1.193 1.193 0 01-.162-.63c0-.234.072-.459.207-.675.144-.207.351-.387.63-.522s.63-.207 1.044-.207c.324 0 .603.045.846.126s.441.18.594.297c.162.117.288.243.369.36a.777.777 0 01.135.324.181.181 0 01-.054.162.22.22 0 01-.144.054h-.666a.263.263 0 01-.081-.018c-.027-.009-.045-.027-.072-.045-.063-.063-.135-.126-.216-.198a1.108 1.108 0 00-.288-.171 1.134 1.134 0 00-.432-.072c-.225 0-.405.054-.522.153a.476.476 0 00-.099.639c.063.072.18.144.351.207.171.063.441.135.792.207.405.072.72.18.954.324.243.135.405.297.504.486.108.18.153.378.153.603 0 .27-.081.513-.243.729-.153.216-.387.387-.702.513-.306.117-.684.18-1.143.18zM140.86 50.241c-.054 0-.099-.018-.126-.054a.172.172 0 01-.036-.135l.243-1.53a.367.367 0 01.09-.198c.045-.063.108-.09.198-.09h.828c.045 0 .09.018.117.054a.171.171 0 01.045.117.25.25 0 01-.027.117l-.576 1.494a.603.603 0 01-.099.162.325.325 0 01-.198.063h-.459zM32.339 58.566a.197.197 0 01-.153-.063.197.197 0 01-.063-.153v-5.958c0-.063.018-.108.063-.153a.197.197 0 01.153-.063h.747c.063 0 .108.018.153.063s.063.09.063.153v5.958a.197.197 0 01-.063.153.197.197 0 01-.153.063h-.747zM36.425 58.656c-.666 0-1.197-.189-1.584-.576-.387-.387-.603-.927-.63-1.638-.009-.063-.009-.135-.009-.234 0-.09 0-.162.009-.216.027-.459.126-.846.315-1.17.18-.333.432-.585.756-.765a2.408 2.408 0 011.143-.261c.486 0 .891.099 1.224.306.333.198.576.477.747.828.171.36.252.774.252 1.242v.189a.197.197 0 01-.063.153.217.217 0 01-.162.063h-2.988v.072c.009.207.045.405.126.585a.96.96 0 00.333.423.84.84 0 00.522.162c.171 0 .306-.027.423-.072a1.15 1.15 0 00.279-.18.8.8 0 00.153-.162c.054-.072.099-.117.135-.126a.291.291 0 01.144-.027h.774a.19.19 0 01.144.054.135.135 0 01.054.135.782.782 0 01-.144.351c-.099.135-.234.27-.405.405a2.136 2.136 0 01-.657.333 2.956 2.956 0 01-.891.126zm-.99-2.835h1.989v-.027c0-.234-.036-.441-.117-.612a.917.917 0 00-.882-.567.917.917 0 00-.882.567 1.583 1.583 0 00-.108.612v.027zM41.609 58.566c-.36 0-.666-.063-.909-.189a1.199 1.199 0 01-.549-.567c-.117-.243-.18-.558-.18-.927V54.84h-.711a.197.197 0 01-.153-.063.217.217 0 01-.063-.162v-.513c0-.063.018-.108.063-.153a.197.197 0 01.153-.063h.711v-1.494c0-.063.018-.108.063-.153.036-.045.09-.063.153-.063h.729c.063 0 .108.018.153.063s.063.09.063.153v1.494h1.125c.063 0 .108.018.153.063s.063.09.063.153v.513a.217.217 0 01-.063.162.197.197 0 01-.153.063h-1.125v1.953c0 .243.045.441.135.576.081.135.234.207.45.207h.621c.063 0 .108.018.153.063s.063.09.063.153v.558a.197.197 0 01-.063.153.197.197 0 01-.153.063h-.729zM46.976 58.656c-.369 0-.684-.081-.954-.252a1.615 1.615 0 01-.612-.702c-.144-.297-.216-.657-.216-1.071v-2.529c0-.063.018-.108.063-.153a.197.197 0 01.153-.063h.792c.063 0 .117.018.153.063.045.045.063.09.063.153v2.475c0 .747.324 1.116.981 1.116.315 0 .558-.099.747-.297.18-.198.27-.468.27-.819v-2.475c0-.063.018-.108.063-.153a.197.197 0 01.153-.063h.792c.063 0 .108.018.153.063s.063.09.063.153v4.248a.197.197 0 01-.063.153.197.197 0 01-.153.063h-.729a.217.217 0 01-.162-.063.227.227 0 01-.054-.153v-.369a1.7 1.7 0 01-.603.495c-.243.117-.54.18-.9.18zM52.507 58.656a3.12 3.12 0 01-.927-.126 2.006 2.006 0 01-.621-.315 1.55 1.55 0 01-.36-.378.758.758 0 01-.126-.315.163.163 0 01.063-.153.192.192 0 01.144-.063h.711c.027 0 .045 0 .063.009a.295.295 0 01.072.054c.081.063.162.135.243.207.09.072.198.135.315.189.117.045.27.072.45.072.234 0 .432-.045.594-.135a.464.464 0 00.234-.405.438.438 0 00-.108-.306c-.063-.081-.189-.144-.378-.207a5.675 5.675 0 00-.792-.207 3.745 3.745 0 01-.837-.297 1.211 1.211 0 01-.495-.45 1.193 1.193 0 01-.162-.63c0-.234.072-.459.207-.675.144-.207.351-.387.63-.522s.63-.207 1.044-.207c.324 0 .603.045.846.126s.441.18.594.297c.162.117.288.243.369.36a.777.777 0 01.135.324.181.181 0 01-.054.162.22.22 0 01-.144.054h-.666a.263.263 0 01-.081-.018c-.027-.009-.045-.027-.072-.045-.063-.063-.135-.126-.216-.198a1.108 1.108 0 00-.288-.171 1.134 1.134 0 00-.432-.072c-.225 0-.405.054-.522.153a.476.476 0 00-.099.639c.063.072.18.144.351.207.171.063.441.135.792.207.405.072.72.18.954.324.243.135.405.297.504.486.108.18.153.378.153.603 0 .27-.081.513-.243.729-.153.216-.387.387-.702.513-.306.117-.684.18-1.143.18zM59.177 58.656a3.12 3.12 0 01-.927-.126 2.006 2.006 0 01-.621-.315 1.55 1.55 0 01-.36-.378.758.758 0 01-.126-.315.163.163 0 01.063-.153.192.192 0 01.144-.063h.711c.027 0 .045 0 .063.009a.295.295 0 01.072.054c.081.063.162.135.243.207.09.072.198.135.315.189.117.045.27.072.45.072.234 0 .432-.045.594-.135a.464.464 0 00.234-.405.438.438 0 00-.108-.306c-.063-.081-.189-.144-.378-.207a5.675 5.675 0 00-.792-.207 3.745 3.745 0 01-.837-.297 1.211 1.211 0 01-.495-.45 1.193 1.193 0 01-.162-.63c0-.234.072-.459.207-.675.144-.207.351-.387.63-.522s.63-.207 1.044-.207c.324 0 .603.045.846.126s.441.18.594.297c.162.117.288.243.369.36a.777.777 0 01.135.324.181.181 0 01-.054.162.22.22 0 01-.144.054h-.666a.263.263 0 01-.081-.018c-.027-.009-.045-.027-.072-.045-.063-.063-.135-.126-.216-.198a1.108 1.108 0 00-.288-.171 1.134 1.134 0 00-.432-.072c-.225 0-.405.054-.522.153a.476.476 0 00-.099.639c.063.072.18.144.351.207.171.063.441.135.792.207.405.072.72.18.954.324.243.135.405.297.504.486.108.18.153.378.153.603 0 .27-.081.513-.243.729-.153.216-.387.387-.702.513-.306.117-.684.18-1.143.18zM62.32 58.566a.197.197 0 01-.153-.063.197.197 0 01-.063-.153v-4.248c0-.063.018-.108.063-.153a.197.197 0 01.153-.063h.747c.063 0 .117.018.162.063.036.045.054.09.054.153v4.248a.197.197 0 01-.063.153c-.036.045-.09.063-.153.063h-.747zm-.036-5.454a.197.197 0 01-.153-.063.197.197 0 01-.063-.153v-.648c0-.063.018-.108.063-.153a.197.197 0 01.153-.063h.819c.063 0 .117.018.162.063s.063.09.063.153v.648a.197.197 0 01-.063.153.217.217 0 01-.162.063h-.819zM64.785 58.566a.197.197 0 01-.153-.063.197.197 0 01-.063-.153v-4.248c0-.063.018-.108.063-.153a.197.197 0 01.153-.063h.702c.063 0 .108.018.153.063s.063.09.063.153v.306c.126-.171.297-.315.504-.432.216-.117.468-.171.765-.18.684-.009 1.161.252 1.431.801.135-.243.333-.432.603-.585.261-.144.549-.216.864-.216.315 0 .594.072.855.216.252.144.45.36.603.657.144.288.216.657.216 1.098v2.583a.197.197 0 01-.063.153.197.197 0 01-.153.063h-.738a.197.197 0 01-.153-.063.197.197 0 01-.063-.153v-2.511c0-.27-.036-.486-.117-.648-.081-.153-.18-.27-.315-.333a1.023 1.023 0 00-.441-.099.92.92 0 00-.396.099.727.727 0 00-.324.333c-.081.162-.126.378-.126.648v2.511a.197.197 0 01-.063.153.197.197 0 01-.153.063h-.738a.197.197 0 01-.153-.063.197.197 0 01-.063-.153v-2.511c0-.27-.045-.486-.126-.648a.727.727 0 00-.324-.333.974.974 0 00-.423-.099.958.958 0 00-.405.099.796.796 0 00-.324.342c-.081.153-.126.369-.126.639v2.511a.197.197 0 01-.063.153.197.197 0 01-.153.063h-.756zM72.824 60.276a.197.197 0 01-.153-.063.197.197 0 01-.063-.153v-5.958c0-.063.018-.108.063-.153a.197.197 0 01.153-.063h.711c.063 0 .117.018.162.063.036.045.054.09.054.153v.36c.144-.189.333-.351.567-.477.234-.126.522-.189.873-.189.315 0 .594.054.828.153.234.099.432.243.585.432.153.198.279.414.36.675.081.261.135.54.144.855.009.099.009.207.009.315 0 .108 0 .216-.009.324a3.132 3.132 0 01-.135.837 2.064 2.064 0 01-.36.666 1.71 1.71 0 01-.594.441 1.97 1.97 0 01-.828.162c-.324 0-.603-.054-.828-.171a1.669 1.669 0 01-.558-.468v2.043a.227.227 0 01-.054.153.217.217 0 01-.162.063h-.765zm2.034-2.583c.261 0 .459-.054.603-.162a.974.974 0 00.315-.441c.063-.18.108-.378.117-.594.009-.18.009-.36 0-.54a2.048 2.048 0 00-.117-.594.903.903 0 00-.315-.432c-.144-.117-.342-.171-.603-.171-.243 0-.441.054-.594.171a.948.948 0 00-.333.441 1.578 1.578 0 00-.126.54c-.009.108-.009.225-.009.342 0 .117 0 .234.009.351.009.18.045.351.126.522.081.162.189.297.342.405.153.108.342.162.585.162zM78.259 58.566a.197.197 0 01-.153-.063.197.197 0 01-.063-.153v-5.958c0-.063.018-.108.063-.153a.197.197 0 01.153-.063h.747c.063 0 .108.018.153.063s.063.09.063.153v5.958a.197.197 0 01-.063.153.197.197 0 01-.153.063h-.747zM80.74 58.566a.197.197 0 01-.153-.063.197.197 0 01-.063-.153v-4.248c0-.063.018-.108.063-.153a.197.197 0 01.153-.063h.747c.063 0 .117.018.162.063.036.045.054.09.054.153v4.248a.197.197 0 01-.063.153c-.036.045-.09.063-.153.063h-.747zm-.036-5.454a.197.197 0 01-.153-.063.197.197 0 01-.063-.153v-.648c0-.063.018-.108.063-.153a.197.197 0 01.153-.063h.819c.063 0 .117.018.162.063s.063.09.063.153v.648a.197.197 0 01-.063.153.217.217 0 01-.162.063h-.819zM83.534 58.566a.197.197 0 01-.153-.063.197.197 0 01-.063-.153v-3.51h-.729a.197.197 0 01-.153-.063.217.217 0 01-.063-.162v-.513c0-.063.018-.108.063-.153a.197.197 0 01.153-.063h.729v-.369c0-.36.063-.657.198-.891a1.22 1.22 0 01.585-.54c.261-.117.585-.18.981-.18h.612c.063 0 .117.018.162.063.036.045.054.09.054.153v.513a.217.217 0 01-.063.162c-.036.045-.09.063-.153.063h-.576c-.243 0-.405.063-.495.18-.09.117-.135.297-.135.522v.324h1.116c.063 0 .117.018.162.063.036.045.054.09.054.153v.513a.217.217 0 01-.063.162c-.036.045-.09.063-.153.063h-1.116v3.51a.197.197 0 01-.063.153.197.197 0 01-.153.063h-.738zM87.295 60.276a.178.178 0 01-.126-.054.178.178 0 01-.054-.126c0-.027 0-.045.009-.063 0-.027.009-.054.027-.081l.702-1.665-1.728-4.077a.339.339 0 01-.036-.126.237.237 0 01.063-.135.162.162 0 01.135-.063h.729c.072 0 .126.018.162.054a.342.342 0 01.081.117L88.456 57l1.233-2.943a.274.274 0 01.081-.117c.036-.036.09-.054.162-.054h.72c.045 0 .09.018.126.054a.157.157 0 01.063.126.367.367 0 01-.036.144l-2.547 5.895c-.027.045-.054.09-.09.117-.036.036-.09.054-.162.054h-.711zM95.194 58.566c-.36 0-.666-.063-.909-.189a1.199 1.199 0 01-.549-.567c-.117-.243-.18-.558-.18-.927V54.84h-.711a.197.197 0 01-.153-.063.217.217 0 01-.063-.162v-.513c0-.063.018-.108.063-.153a.197.197 0 01.153-.063h.711v-1.494c0-.063.018-.108.063-.153.036-.045.09-.063.153-.063h.729c.063 0 .108.018.153.063s.063.09.063.153v1.494h1.125c.063 0 .108.018.153.063s.063.09.063.153v.513a.217.217 0 01-.063.162.197.197 0 01-.153.063h-1.125v1.953c0 .243.045.441.135.576.081.135.234.207.45.207h.621c.063 0 .108.018.153.063s.063.09.063.153v.558a.197.197 0 01-.063.153.197.197 0 01-.153.063h-.729zM97.079 58.566a.197.197 0 01-.153-.063.197.197 0 01-.063-.153v-5.958c0-.063.018-.108.063-.153a.197.197 0 01.153-.063h.801c.063 0 .117.018.162.063.036.045.054.09.054.153v2.052c.162-.189.36-.351.594-.468.234-.117.522-.18.864-.18.369 0 .684.081.963.252.27.162.477.396.63.693.153.297.225.657.225 1.08v2.529a.197.197 0 01-.063.153.197.197 0 01-.153.063h-.81a.197.197 0 01-.153-.063.197.197 0 01-.063-.153v-2.475c0-.351-.081-.621-.252-.819-.171-.198-.423-.297-.747-.297-.315 0-.558.099-.747.297-.189.198-.288.468-.288.819v2.475a.227.227 0 01-.054.153.217.217 0 01-.162.063h-.801zM104.44 58.656c-.666 0-1.197-.189-1.584-.576-.387-.387-.603-.927-.63-1.638-.009-.063-.009-.135-.009-.234 0-.09 0-.162.009-.216.027-.459.126-.846.315-1.17.18-.333.432-.585.756-.765a2.408 2.408 0 011.143-.261c.486 0 .891.099 1.224.306.333.198.576.477.747.828.171.36.252.774.252 1.242v.189a.197.197 0 01-.063.153.217.217 0 01-.162.063h-2.988v.072c.009.207.045.405.126.585a.96.96 0 00.333.423.84.84 0 00.522.162c.171 0 .306-.027.423-.072a1.15 1.15 0 00.279-.18.8.8 0 00.153-.162c.054-.072.099-.117.135-.126a.291.291 0 01.144-.027h.774a.19.19 0 01.144.054.135.135 0 01.054.135.782.782 0 01-.144.351c-.099.135-.234.27-.405.405a2.136 2.136 0 01-.657.333 2.956 2.956 0 01-.891.126zm-.99-2.835h1.989v-.027c0-.234-.036-.441-.117-.612a.917.917 0 00-.882-.567.917.917 0 00-.882.567 1.583 1.583 0 00-.108.612v.027zM109.715 58.566a.197.197 0 01-.153-.063.197.197 0 01-.063-.153v-4.239c0-.063.018-.117.063-.162a.197.197 0 01.153-.063h.729c.063 0 .117.018.162.063a.217.217 0 01.063.162v.369c.135-.189.315-.342.531-.441.225-.099.477-.153.765-.153h.369c.063 0 .117.018.162.063.036.045.054.09.054.153v.648a.197.197 0 01-.063.153c-.036.045-.09.063-.153.063h-.702c-.288 0-.513.081-.666.234-.162.162-.243.387-.243.675v2.475a.197.197 0 01-.063.153.217.217 0 01-.162.063h-.783zM115.115 58.656c-.666 0-1.197-.189-1.584-.576-.387-.387-.603-.927-.63-1.638-.009-.063-.009-.135-.009-.234 0-.09 0-.162.009-.216.027-.459.126-.846.315-1.17.18-.333.432-.585.756-.765a2.408 2.408 0 011.143-.261c.486 0 .891.099 1.224.306.333.198.576.477.747.828.171.36.252.774.252 1.242v.189a.197.197 0 01-.063.153.217.217 0 01-.162.063h-2.988v.072c.009.207.045.405.126.585a.96.96 0 00.333.423.84.84 0 00.522.162c.171 0 .306-.027.423-.072a1.15 1.15 0 00.279-.18.8.8 0 00.153-.162c.054-.072.099-.117.135-.126a.291.291 0 01.144-.027h.774a.19.19 0 01.144.054.135.135 0 01.054.135.782.782 0 01-.144.351c-.099.135-.234.27-.405.405a2.136 2.136 0 01-.657.333 2.956 2.956 0 01-.891.126zm-.99-2.835h1.989v-.027c0-.234-.036-.441-.117-.612a.917.917 0 00-.882-.567.917.917 0 00-.882.567 1.583 1.583 0 00-.108.612v.027zM119.972 58.656a3.12 3.12 0 01-.927-.126 2.006 2.006 0 01-.621-.315 1.55 1.55 0 01-.36-.378.758.758 0 01-.126-.315.163.163 0 01.063-.153.192.192 0 01.144-.063h.711c.027 0 .045 0 .063.009a.295.295 0 01.072.054c.081.063.162.135.243.207.09.072.198.135.315.189.117.045.27.072.45.072.234 0 .432-.045.594-.135a.464.464 0 00.234-.405.438.438 0 00-.108-.306c-.063-.081-.189-.144-.378-.207a5.675 5.675 0 00-.792-.207 3.745 3.745 0 01-.837-.297 1.211 1.211 0 01-.495-.45 1.193 1.193 0 01-.162-.63c0-.234.072-.459.207-.675.144-.207.351-.387.63-.522s.63-.207 1.044-.207c.324 0 .603.045.846.126s.441.18.594.297c.162.117.288.243.369.36a.777.777 0 01.135.324.181.181 0 01-.054.162.22.22 0 01-.144.054h-.666a.263.263 0 01-.081-.018c-.027-.009-.045-.027-.072-.045-.063-.063-.135-.126-.216-.198a1.108 1.108 0 00-.288-.171 1.134 1.134 0 00-.432-.072c-.225 0-.405.054-.522.153a.476.476 0 00-.099.639c.063.072.18.144.351.207.171.063.441.135.792.207.405.072.72.18.954.324.243.135.405.297.504.486.108.18.153.378.153.603 0 .27-.081.513-.243.729-.153.216-.387.387-.702.513-.306.117-.684.18-1.143.18zM124.994 58.566c-.36 0-.666-.063-.909-.189a1.199 1.199 0 01-.549-.567c-.117-.243-.18-.558-.18-.927V54.84h-.711a.197.197 0 01-.153-.063.217.217 0 01-.063-.162v-.513c0-.063.018-.108.063-.153a.197.197 0 01.153-.063h.711v-1.494c0-.063.018-.108.063-.153.036-.045.09-.063.153-.063h.729c.063 0 .108.018.153.063s.063.09.063.153v1.494h1.125c.063 0 .108.018.153.063s.063.09.063.153v.513a.217.217 0 01-.063.162.197.197 0 01-.153.063h-1.125v1.953c0 .243.045.441.135.576.081.135.234.207.45.207h.621c.063 0 .108.018.153.063s.063.09.063.153v.558a.197.197 0 01-.063.153.197.197 0 01-.153.063h-.729zM126.811 58.566a.197.197 0 01-.153-.063.197.197 0 01-.063-.153v-.891c0-.063.018-.117.063-.162a.197.197 0 01.153-.063h.9c.063 0 .108.018.153.063a.217.217 0 01.063.162v.891a.197.197 0 01-.063.153.197.197 0 01-.153.063h-.9z" fill="#340221" fill-rule="nonzero"/><g><path d="M126.5 69.809c0-.723-.586-1.309-1.309-1.309H33.809c-.723 0-1.309.586-1.309 1.309v10.382c0 .723.586 1.309 1.309 1.309h91.382c.723 0 1.309-.586 1.309-1.309V69.809z" fill="#cc284e"/><path d="M42.916 77.37a.186.186 0 01-.136-.056.186.186 0 01-.056-.136v-4.424h-1.48a.186.186 0 01-.136-.056.186.186 0 01-.056-.136v-.592c0-.059.019-.107.056-.144a.186.186 0 01.136-.056h4.08c.059 0 .107.019.144.056a.195.195 0 01.056.144v.592a.186.186 0 01-.056.136.195.195 0 01-.144.056h-1.472v4.424a.186.186 0 01-.056.136.195.195 0 01-.144.056h-.736zM45.812 77.37a.186.186 0 01-.136-.056.186.186 0 01-.056-.136V73.41c0-.059.019-.107.056-.144a.186.186 0 01.136-.056h.648a.2.2 0 01.14.056c.04.037.06.085.06.144v.328c.123-.171.281-.301.476-.392.195-.091.42-.136.676-.136h.328c.059 0 .105.019.14.056a.191.191 0 01.052.136v.576a.191.191 0 01-.052.136.183.183 0 01-.14.056h-.624c-.256 0-.455.071-.596.212-.141.141-.212.34-.212.596v2.2a.186.186 0 01-.056.136.195.195 0 01-.144.056h-.696zM49.628 78.89a.153.153 0 01-.112-.048.153.153 0 01-.048-.112.2.2 0 01.032-.128l.624-1.48-1.536-3.624a.377.377 0 01-.032-.112.212.212 0 01.056-.124.155.155 0 01.12-.052h.648c.064 0 .112.016.144.048a.336.336 0 01.072.104l1.064 2.616 1.096-2.616a.27.27 0 01.072-.108c.032-.029.08-.044.144-.044h.64c.043 0 .081.016.116.048a.146.146 0 01.052.112.375.375 0 01-.032.128l-2.264 5.24a.354.354 0 01-.08.108c-.032.029-.08.044-.144.044h-.632zM55.124 77.37a.186.186 0 01-.136-.056.186.186 0 01-.056-.136v-3.776c0-.053.019-.099.056-.136a.186.186 0 01.136-.056h.664c.059 0 .105.019.14.056a.191.191 0 01.052.136v3.776a.191.191 0 01-.052.136.183.183 0 01-.14.056h-.664zm-.032-4.848a.186.186 0 01-.136-.056.186.186 0 01-.056-.136v-.576c0-.053.019-.099.056-.136a.186.186 0 01.136-.056h.728c.059 0 .107.019.144.056a.186.186 0 01.056.136v.576a.186.186 0 01-.056.136.195.195 0 01-.144.056h-.728zM58.844 77.37c-.32 0-.589-.056-.808-.168a1.07 1.07 0 01-.488-.5c-.107-.221-.16-.497-.16-.828v-1.816h-.632a.186.186 0 01-.136-.056.195.195 0 01-.056-.144v-.456c0-.053.019-.099.056-.136a.186.186 0 01.136-.056h.632v-1.328c0-.053.017-.099.052-.136a.183.183 0 01.14-.056h.648c.053 0 .099.019.136.056a.186.186 0 01.056.136v1.328h1c.053 0 .099.019.136.056a.186.186 0 01.056.136v.456a.195.195 0 01-.056.144.186.186 0 01-.136.056h-1v1.736c0 .219.039.389.116.512.077.123.212.184.404.184h.552c.053 0 .099.019.136.056a.186.186 0 01.056.136v.496a.186.186 0 01-.056.136.186.186 0 01-.136.056h-.648zM62.564 77.37a.186.186 0 01-.136-.056.186.186 0 01-.056-.136v-3.12h-.648a.186.186 0 01-.136-.056.195.195 0 01-.056-.144v-.456c0-.053.019-.099.056-.136a.186.186 0 01.136-.056h.648v-.328c0-.32.059-.585.176-.796.117-.211.291-.369.52-.476.229-.107.52-.16.872-.16h.544c.059 0 .105.019.14.056a.191.191 0 01.052.136v.456a.2.2 0 01-.052.144.183.183 0 01-.14.056h-.512c-.213 0-.36.053-.44.16-.08.107-.12.261-.12.464v.288h.992c.059 0 .105.019.14.056a.191.191 0 01.052.136v.456a.2.2 0 01-.052.144.183.183 0 01-.14.056h-.992v3.12a.186.186 0 01-.056.136.186.186 0 01-.136.056h-.656zM65.348 77.37a.186.186 0 01-.136-.056.186.186 0 01-.056-.136V73.41c0-.059.019-.107.056-.144a.186.186 0 01.136-.056h.648a.2.2 0 01.14.056c.04.037.06.085.06.144v.328c.123-.171.281-.301.476-.392.195-.091.42-.136.676-.136h.328c.059 0 .105.019.14.056a.191.191 0 01.052.136v.576a.191.191 0 01-.052.136.183.183 0 01-.14.056h-.624c-.256 0-.455.071-.596.212-.141.141-.212.34-.212.596v2.2a.186.186 0 01-.056.136.195.195 0 01-.144.056h-.696zM70.148 77.45c-.592 0-1.061-.171-1.408-.512-.347-.341-.533-.827-.56-1.456a2.225 2.225 0 010-.4c.021-.405.113-.753.276-1.044.163-.291.388-.515.676-.672a2.092 2.092 0 011.016-.236c.432 0 .795.089 1.088.268a1.7 1.7 0 01.664.744c.149.317.224.684.224 1.1v.168a.186.186 0 01-.056.136.195.195 0 01-.144.056h-2.656v.064c.005.187.041.359.108.516a.895.895 0 00.296.38.77.77 0 00.468.144.926.926 0 00.376-.068.91.91 0 00.248-.156c.064-.059.109-.107.136-.144a.38.38 0 01.116-.116.338.338 0 01.132-.02h.688c.053 0 .097.016.132.048a.135.135 0 01.044.12.668.668 0 01-.132.312 1.545 1.545 0 01-.356.36 2.004 2.004 0 01-.58.292 2.522 2.522 0 01-.796.116zm-.88-2.52h1.768v-.024c0-.208-.035-.391-.104-.548a.831.831 0 00-.304-.368.85.85 0 00-.48-.132.85.85 0 00-.48.132.81.81 0 00-.3.368c-.067.157-.1.34-.1.548v.024zM74.684 77.45c-.592 0-1.061-.171-1.408-.512-.347-.341-.533-.827-.56-1.456a2.225 2.225 0 010-.4c.021-.405.113-.753.276-1.044.163-.291.388-.515.676-.672a2.092 2.092 0 011.016-.236c.432 0 .795.089 1.088.268a1.7 1.7 0 01.664.744c.149.317.224.684.224 1.1v.168a.186.186 0 01-.056.136.195.195 0 01-.144.056h-2.656v.064c.005.187.041.359.108.516a.895.895 0 00.296.38.77.77 0 00.468.144.926.926 0 00.376-.068.91.91 0 00.248-.156c.064-.059.109-.107.136-.144a.38.38 0 01.116-.116.338.338 0 01.132-.02h.688c.053 0 .097.016.132.048a.135.135 0 01.044.12.668.668 0 01-.132.312 1.545 1.545 0 01-.356.36 2.004 2.004 0 01-.58.292 2.522 2.522 0 01-.796.116zm-.88-2.52h1.768v-.024c0-.208-.035-.391-.104-.548a.831.831 0 00-.304-.368.85.85 0 00-.48-.132.85.85 0 00-.48.132.81.81 0 00-.3.368c-.067.157-.1.34-.1.548v.024zM79.676 77.37a.186.186 0 01-.136-.056.186.186 0 01-.056-.136v-3.12h-.648a.186.186 0 01-.136-.056.195.195 0 01-.056-.144v-.456c0-.053.019-.099.056-.136a.186.186 0 01.136-.056h.648v-.328c0-.32.059-.585.176-.796.117-.211.291-.369.52-.476.229-.107.52-.16.872-.16h.544c.059 0 .105.019.14.056a.191.191 0 01.052.136v.456a.2.2 0 01-.052.144.183.183 0 01-.14.056h-.512c-.213 0-.36.053-.44.16-.08.107-.12.261-.12.464v.288h.992c.059 0 .105.019.14.056a.191.191 0 01.052.136v.456a.2.2 0 01-.052.144.183.183 0 01-.14.056h-.992v3.12a.186.186 0 01-.056.136.186.186 0 01-.136.056h-.656zM84.044 77.45c-.427 0-.785-.075-1.076-.224a1.55 1.55 0 01-.664-.632 2.184 2.184 0 01-.26-.952 6.859 6.859 0 010-.704 2.11 2.11 0 01.268-.956c.157-.269.381-.479.672-.628.291-.149.644-.224 1.06-.224.416 0 .769.075 1.06.224.291.149.515.359.672.628.157.269.247.588.268.956a6.859 6.859 0 010 .704c-.021.363-.108.68-.26.952a1.55 1.55 0 01-.664.632c-.291.149-.649.224-1.076.224zm0-.792c.283 0 .501-.089.656-.268.155-.179.24-.441.256-.788.005-.08.008-.184.008-.312s-.003-.232-.008-.312c-.016-.347-.101-.609-.256-.788-.155-.179-.373-.268-.656-.268-.283 0-.501.089-.656.268-.155.179-.24.441-.256.788-.005.08-.008.184-.008.312s.003.232.008.312c.016.347.101.609.256.788.155.179.373.268.656.268zM87.052 77.37a.186.186 0 01-.136-.056.186.186 0 01-.056-.136V73.41c0-.059.019-.107.056-.144a.186.186 0 01.136-.056h.648a.2.2 0 01.14.056c.04.037.06.085.06.144v.328c.123-.171.281-.301.476-.392.195-.091.42-.136.676-.136h.328c.059 0 .105.019.14.056a.191.191 0 01.052.136v.576a.191.191 0 01-.052.136.183.183 0 01-.14.056h-.624c-.256 0-.455.071-.596.212-.141.141-.212.34-.212.596v2.2a.186.186 0 01-.056.136.195.195 0 01-.144.056h-.696zM92.908 77.45c-.277 0-.528-.055-.752-.164a1.378 1.378 0 01-.532-.44 1.044 1.044 0 01-.196-.62c0-.373.152-.671.456-.892.304-.221.701-.369 1.192-.444l1.096-.16v-.168c0-.224-.056-.397-.168-.52-.112-.123-.304-.184-.576-.184a.854.854 0 00-.468.116.714.714 0 00-.268.308.205.205 0 01-.184.104h-.632c-.059 0-.103-.016-.132-.048a.184.184 0 01-.044-.128.783.783 0 01.108-.312c.067-.123.168-.241.304-.356.136-.115.313-.212.532-.292.219-.08.483-.12.792-.12.336 0 .62.041.852.124.232.083.417.193.556.332.139.139.24.301.304.488s.096.384.096.592v2.512a.186.186 0 01-.056.136.186.186 0 01-.136.056h-.648a.183.183 0 01-.14-.056.191.191 0 01-.052-.136v-.312a1.397 1.397 0 01-.708.5 1.892 1.892 0 01-.596.084zm.272-.76c.187 0 .356-.04.508-.12a.853.853 0 00.36-.372c.088-.168.132-.38.132-.636v-.168l-.8.128c-.315.048-.549.125-.704.232-.155.107-.232.237-.232.392 0 .117.036.217.108.3a.643.643 0 00.276.184c.112.04.229.06.352.06zM98.9 77.37c-.075 0-.131-.019-.168-.056a.489.489 0 01-.096-.144l-1.144-3.712a.405.405 0 01-.008-.072c0-.048.017-.089.052-.124a.16.16 0 01.116-.052h.592c.064 0 .115.017.152.052.037.035.059.068.064.1l.784 2.648.832-2.624a.304.304 0 01.072-.116c.037-.04.093-.06.168-.06h.4c.075 0 .131.02.168.06.037.04.061.079.072.116l.832 2.624.784-2.648a.19.19 0 01.06-.1c.035-.035.084-.052.148-.052h.592c.048 0 .089.017.124.052a.169.169 0 01.052.124.193.193 0 01-.016.072l-1.144 3.712a.297.297 0 01-.084.144c-.04.037-.097.056-.172.056h-.52a.263.263 0 01-.172-.056.275.275 0 01-.092-.144l-.832-2.528-.832 2.528a.354.354 0 01-.092.144c-.04.037-.1.056-.18.056H98.9zM105.916 77.45c-.592 0-1.061-.171-1.408-.512-.347-.341-.533-.827-.56-1.456a2.225 2.225 0 010-.4c.021-.405.113-.753.276-1.044.163-.291.388-.515.676-.672a2.092 2.092 0 011.016-.236c.432 0 .795.089 1.088.268a1.7 1.7 0 01.664.744c.149.317.224.684.224 1.1v.168a.186.186 0 01-.056.136.195.195 0 01-.144.056h-2.656v.064c.005.187.041.359.108.516a.895.895 0 00.296.38.77.77 0 00.468.144.926.926 0 00.376-.068.91.91 0 00.248-.156c.064-.059.109-.107.136-.144a.38.38 0 01.116-.116.338.338 0 01.132-.02h.688c.053 0 .097.016.132.048a.135.135 0 01.044.12.668.668 0 01-.132.312 1.545 1.545 0 01-.356.36 2.004 2.004 0 01-.58.292 2.522 2.522 0 01-.796.116zm-.88-2.52h1.768v-.024c0-.208-.035-.391-.104-.548a.831.831 0 00-.304-.368.85.85 0 00-.48-.132.85.85 0 00-.48.132.81.81 0 00-.3.368c-.067.157-.1.34-.1.548v.024zM110.452 77.45c-.592 0-1.061-.171-1.408-.512-.347-.341-.533-.827-.56-1.456a2.225 2.225 0 010-.4c.021-.405.113-.753.276-1.044.163-.291.388-.515.676-.672a2.092 2.092 0 011.016-.236c.432 0 .795.089 1.088.268a1.7 1.7 0 01.664.744c.149.317.224.684.224 1.1v.168a.186.186 0 01-.056.136.195.195 0 01-.144.056h-2.656v.064c.005.187.041.359.108.516a.895.895 0 00.296.38.77.77 0 00.468.144.926.926 0 00.376-.068.91.91 0 00.248-.156c.064-.059.109-.107.136-.144a.38.38 0 01.116-.116.338.338 0 01.132-.02h.688c.053 0 .097.016.132.048a.135.135 0 01.044.12.668.668 0 01-.132.312 1.545 1.545 0 01-.356.36 2.004 2.004 0 01-.58.292 2.522 2.522 0 01-.796.116zm-.88-2.52h1.768v-.024c0-.208-.035-.391-.104-.548a.831.831 0 00-.304-.368.85.85 0 00-.48-.132.85.85 0 00-.48.132.81.81 0 00-.3.368c-.067.157-.1.34-.1.548v.024zM113.396 77.37a.186.186 0 01-.136-.056.186.186 0 01-.056-.136v-5.296c0-.053.019-.099.056-.136a.186.186 0 01.136-.056h.648c.059 0 .105.019.14.056a.191.191 0 01.052.136v2.736l1.344-1.272a2.11 2.11 0 01.132-.1.293.293 0 01.164-.036h.744c.053 0 .096.016.128.048a.174.174 0 01.048.128.193.193 0 01-.016.072.16.16 0 01-.064.072l-1.648 1.544 1.848 1.984c.053.053.08.099.08.136a.165.165 0 01-.052.128.177.177 0 01-.124.048h-.76c-.08 0-.137-.012-.172-.036a1.264 1.264 0 01-.124-.1l-1.528-1.608v1.552a.191.191 0 01-.052.136.183.183 0 01-.14.056h-.648zM117.732 75.818a.191.191 0 01-.136-.052.183.183 0 01-.056-.14v-3.664c0-.053.019-.099.056-.136a.186.186 0 01.136-.056h.648c.059 0 .105.019.14.056a.191.191 0 01.052.136v3.664a.188.188 0 01-.052.14.188.188 0 01-.14.052h-.648zm-.048 1.552a.186.186 0 01-.136-.056.186.186 0 01-.056-.136v-.744c0-.059.019-.107.056-.144a.186.186 0 01.136-.056h.744c.059 0 .107.019.144.056a.195.195 0 01.056.144v.744a.186.186 0 01-.056.136.195.195 0 01-.144.056h-.744z" fill="#fff" fill-rule="nonzero"/></g><g><g fill="#340221"><path d="M54.795 20.477a.35.35 0 01-.258-.106.351.351 0 01-.106-.257v-9.861a.37.37 0 01.106-.272.35.35 0 01.258-.106h4.392c.818 0 1.485.123 2 .371.515.247.896.588 1.143 1.022.248.434.372.939.372 1.515 0 .383-.069.719-.205 1.007a2.242 2.242 0 01-.5.704 2.772 2.772 0 01-.583.424c.394.182.742.485 1.045.909.303.424.455.929.455 1.515 0 .606-.137 1.146-.409 1.621-.273.474-.677.845-1.212 1.113-.535.268-1.197.401-1.984.401h-4.514zm1.742-1.605h2.529c.546 0 .96-.149 1.242-.447.283-.298.424-.659.424-1.083 0-.444-.143-.813-.431-1.106-.288-.293-.699-.439-1.235-.439h-2.529v3.075zm0-4.65h2.378c.535 0 .936-.129 1.204-.387.268-.257.401-.593.401-1.007 0-.424-.133-.757-.401-1-.268-.242-.669-.363-1.204-.363h-2.378v2.757zM66.852 20.629c-1.121 0-2.01-.323-2.666-.97-.656-.646-1.01-1.565-1.06-2.756a4.066 4.066 0 01-.015-.387c0-.156.005-.28.015-.371.04-.767.214-1.426.522-1.976a3.2 3.2 0 011.28-1.273c.545-.298 1.187-.447 1.924-.447.818 0 1.504.17 2.06.508.555.338.974.808 1.257 1.409.283.6.424 1.295.424 2.082v.318a.35.35 0 01-.106.258.368.368 0 01-.273.106h-5.028v.121c.01.353.078.679.204.977.126.298.313.538.561.72.247.181.542.272.886.272.282 0 .52-.043.712-.129a1.73 1.73 0 00.469-.295c.121-.111.207-.202.258-.273.091-.121.164-.194.219-.219a.638.638 0 01.25-.038h1.303c.101 0 .184.03.25.091.065.06.093.136.083.227-.01.162-.093.358-.25.591a2.936 2.936 0 01-.674.681 3.785 3.785 0 01-1.098.553c-.439.147-.942.22-1.507.22zm-1.666-4.771h3.347v-.046c0-.394-.066-.74-.197-1.037a1.567 1.567 0 00-.575-.697c-.253-.167-.556-.25-.909-.25-.354 0-.657.083-.909.25a1.522 1.522 0 00-.568.697 2.64 2.64 0 00-.189 1.037v.046zM73.85 20.477a.35.35 0 01-.258-.106.351.351 0 01-.106-.257v-9.876c0-.101.036-.187.106-.257a.35.35 0 01.258-.106h1.423c.112 0 .2.035.266.106.065.07.098.156.098.257v9.876a.365.365 0 01-.098.257.344.344 0 01-.266.106H73.85zM77.015 20.477a.349.349 0 01-.257-.106.347.347 0 01-.106-.257v-7.15c0-.1.035-.186.106-.257a.349.349 0 01.257-.106h1.242a.35.35 0 01.258.106.35.35 0 01.106.257v.622a3.216 3.216 0 011.007-.811c.409-.217.917-.326 1.522-.326.616 0 1.152.139 1.606.417.454.278.805.669 1.053 1.174.247.505.371 1.111.371 1.818v4.256a.347.347 0 01-.106.257.35.35 0 01-.258.106h-1.333a.349.349 0 01-.257-.106.347.347 0 01-.106-.257v-4.166c0-.585-.144-1.045-.432-1.378-.288-.333-.704-.5-1.249-.5-.526 0-.945.167-1.258.5-.313.333-.469.793-.469 1.378v4.166a.351.351 0 01-.106.257.35.35 0 01-.258.106h-1.333zM88.33 20.629c-.727 0-1.366-.137-1.916-.409a3.025 3.025 0 01-1.287-1.189c-.308-.52-.478-1.149-.508-1.886a9.48 9.48 0 01-.015-.598c0-.248.005-.452.015-.614.03-.737.2-1.365.508-1.886.308-.52.737-.916 1.287-1.189.55-.272 1.189-.409 1.916-.409.646 0 1.197.089 1.651.266.455.176.828.403 1.121.681.293.278.512.566.659.864.146.297.225.568.235.81a.295.295 0 01-.099.265.39.39 0 01-.265.098h-1.333a.34.34 0 01-.235-.075.805.805 0 01-.159-.228c-.151-.403-.351-.689-.598-.855-.247-.167-.563-.25-.947-.25-.504 0-.906.159-1.204.477-.298.318-.457.82-.477 1.507-.02.384-.02.737 0 1.06.02.697.179 1.202.477 1.515.298.313.7.47 1.204.47.394 0 .712-.084.955-.25.242-.167.439-.452.59-.856a.784.784 0 01.159-.227.336.336 0 01.235-.076h1.333c.101 0 .189.033.265.098a.295.295 0 01.099.265c-.01.182-.058.387-.144.614a2.677 2.677 0 01-.409.697 3.262 3.262 0 01-.705.651 3.596 3.596 0 01-1.022.477 4.786 4.786 0 01-1.386.182zM92.768 20.477a.347.347 0 01-.257-.106.347.347 0 01-.106-.257V10.087a.35.35 0 01.106-.258.347.347 0 01.257-.106h1.257a.35.35 0 01.258.106.35.35 0 01.106.258v10.027a.347.347 0 01-.106.257.35.35 0 01-.258.106h-1.257zM98.145 20.629c-.616 0-1.148-.139-1.598-.417a2.72 2.72 0 01-1.037-1.181c-.243-.51-.364-1.113-.364-1.81v-4.257c0-.1.036-.186.106-.257a.35.35 0 01.258-.106h1.333c.111 0 .199.035.265.106a.368.368 0 01.098.257v4.166c0 1.252.551 1.878 1.651 1.878.525 0 .942-.167 1.25-.5.308-.333.462-.792.462-1.378v-4.166c0-.1.035-.186.106-.257a.349.349 0 01.257-.106h1.333a.35.35 0 01.258.106c.07.071.106.157.106.257v7.15a.351.351 0 01-.106.257.35.35 0 01-.258.106h-1.227a.344.344 0 01-.265-.106.365.365 0 01-.098-.257v-.621a2.913 2.913 0 01-1.015.833c-.404.202-.909.303-1.515.303zM106.431 20.629c-.606 0-1.124-.071-1.553-.212-.429-.142-.78-.318-1.053-.53-.272-.212-.474-.424-.605-.637-.132-.212-.202-.388-.213-.53a.295.295 0 01.099-.265.376.376 0 01.25-.098h1.196c.041 0 .076.005.106.015.031.01.071.04.122.091.131.111.27.227.416.348.147.121.321.225.523.311s.454.128.757.128c.394 0 .725-.078.992-.234.268-.157.402-.382.402-.674a.744.744 0 00-.175-.515c-.116-.132-.33-.25-.643-.356-.313-.106-.758-.22-1.333-.341-.566-.131-1.035-.298-1.409-.5-.374-.202-.651-.454-.833-.757a2.022 2.022 0 01-.273-1.061c0-.393.119-.77.356-1.128.238-.359.591-.654 1.061-.886.469-.232 1.052-.349 1.749-.349.545 0 1.02.069 1.424.205.404.136.74.305 1.007.507.268.202.472.407.614.614.141.207.217.386.227.538a.303.303 0 01-.091.265.35.35 0 01-.242.098h-1.121a.306.306 0 01-.137-.03.858.858 0 01-.121-.076l-.363-.326a1.811 1.811 0 00-.477-.295c-.187-.081-.432-.121-.735-.121-.384 0-.677.083-.879.25a.78.78 0 00-.303.628c0 .172.048.321.144.447.096.126.291.245.584.356.292.111.737.227 1.332.349.677.121 1.215.3 1.614.537.398.238.681.51.848.818.166.308.25.649.25 1.023 0 .454-.134.863-.402 1.227-.267.363-.661.648-1.181.855-.52.207-1.164.311-1.931.311zM110.687 20.477a.35.35 0 01-.258-.106.351.351 0 01-.106-.257v-7.15c0-.1.036-.186.106-.257a.35.35 0 01.258-.106h1.257c.111 0 .2.035.265.106a.365.365 0 01.099.257v7.15a.361.361 0 01-.099.257.342.342 0 01-.265.106h-1.257zm-.061-9.179a.349.349 0 01-.257-.106.347.347 0 01-.106-.257V9.844c0-.101.035-.187.106-.257a.349.349 0 01.257-.106h1.379a.365.365 0 01.378.363v1.091a.365.365 0 01-.378.363h-1.379zM115.928 20.477c-.162 0-.28-.038-.356-.113a1.022 1.022 0 01-.19-.265l-2.832-7.028a.378.378 0 01-.03-.137c0-.091.033-.169.098-.235a.323.323 0 01.235-.098h1.227c.121 0 .212.033.272.098a.55.55 0 01.122.19l2.014 5.316 2.015-5.316a.532.532 0 01.121-.19c.061-.065.151-.098.273-.098h1.242c.08 0 .154.033.219.098a.32.32 0 01.099.235.714.714 0 01-.015.137l-2.848 7.028a.727.727 0 01-.182.265c-.081.075-.202.113-.363.113h-1.121zM123.759 20.629c-1.121 0-2.01-.323-2.666-.97-.657-.646-1.01-1.565-1.06-2.756a3.718 3.718 0 01-.016-.387c0-.156.005-.28.016-.371.04-.767.214-1.426.522-1.976a3.2 3.2 0 011.28-1.273c.545-.298 1.187-.447 1.924-.447.818 0 1.504.17 2.06.508.555.338.974.808 1.257 1.409.283.6.424 1.295.424 2.082v.318a.35.35 0 01-.106.258.37.37 0 01-.273.106h-5.028v.121c.01.353.078.679.204.977.126.298.313.538.56.72.248.181.543.272.887.272.282 0 .52-.043.711-.129.192-.085.349-.184.47-.295.121-.111.207-.202.258-.273.09-.121.164-.194.219-.219a.638.638 0 01.25-.038h1.303c.101 0 .184.03.25.091.065.06.093.136.083.227-.01.162-.093.358-.25.591a2.936 2.936 0 01-.674.681 3.785 3.785 0 01-1.098.553c-.439.147-.942.22-1.507.22zm-1.666-4.771h3.347v-.046c0-.394-.066-.74-.197-1.037a1.567 1.567 0 00-.575-.697c-.253-.167-.556-.25-.909-.25-.354 0-.657.083-.909.25a1.516 1.516 0 00-.568.697 2.64 2.64 0 00-.189 1.037v.046z"/></g><clipPath id="d"><circle cx="42.028" cy="16" r="9.528"/></clipPath><g clip-path="url(#d)"><clipPath id="e"><path d="M-1.497-2.485h61.266v61.266H-1.497z"/></clipPath><g clip-path="url(#e)"><path fill="#380021" d="M-1.511-2.513h61.266v7.691H-1.511z"/><path fill="#fff4f7" d="M-1.511 5.178h61.266v2.998H-1.511z"/><path fill="#5c2e49" d="M-1.511 8.176h61.266V9.74H-1.511z"/><path fill="#380021" d="M-1.511 9.741h61.266v1.564H-1.511z"/><path fill="#fff4f7" d="M-1.511 11.305h61.266v1.564H-1.511z"/><path fill="#5c2e49" d="M-1.511 12.869h61.266v2.998H-1.511z"/><path fill="#cc284e" d="M-1.511 15.867h61.266v1.564H-1.511z"/><path fill="#5c2e49" d="M-1.511 17.431h61.266v2.998H-1.511z"/><path fill="#fff4f7" d="M-1.511 20.429h61.266v1.564H-1.511z"/><path fill="#cc284e" d="M-1.511 21.994h61.266v1.564H-1.511z"/><path fill="#5c2e49" d="M-1.511 23.558h61.266v1.564H-1.511z"/><path fill="#fff4f7" d="M-1.511 25.122h61.266v2.998H-1.511z"/><path fill="#cc284e" d="M-1.511 28.12h61.266v7.691H-1.511z"/><path fill="#fff4f7" d="M-1.511 35.811h61.266v2.998H-1.511z"/><path fill="#5c2e49" d="M-1.511 38.809h61.266v1.564H-1.511z"/><path fill="#cc284e" d="M-1.511 40.374h61.266v1.564H-1.511z"/><path fill="#fff4f7" d="M-1.511 41.938h61.266v1.564H-1.511z"/><path fill="#5c2e49" d="M-1.511 43.502h61.266V46.5H-1.511z"/><path fill="#380021" d="M-1.511 46.5h61.266v1.564H-1.511z"/><path fill="#5c2e49" d="M-1.511 48.064h61.266v2.998H-1.511z"/><path fill="#fff4f7" d="M-1.511 51.063h61.266v1.564H-1.511z"/><path fill="#380021" d="M-1.511 52.627h61.266v1.564H-1.511z"/><path fill="#5c2e49" d="M-1.511 54.191h61.266v1.564H-1.511z"/><path fill="#fff4f7" d="M-1.511 55.755h61.266v2.998H-1.511z"/><g opacity=".5"><path d="M-1.511-2.513v61.266H6.18V-2.513h-7.691z" fill="#380021"/><path d="M6.18-2.513v61.266h2.998V-2.513H6.18z" fill="#fff4f7"/><path d="M9.178-2.513v61.266h1.564V-2.513H9.178z" fill="#5c2e49"/><path d="M10.742-2.513v61.266h1.565V-2.513h-1.565z" fill="#380021"/><path d="M12.307-2.513v61.266h1.564V-2.513h-1.564z" fill="#fff4f7"/><path d="M13.871-2.513v61.266h2.998V-2.513h-2.998z" fill="#5c2e49"/><path d="M16.869-2.513v61.266h1.564V-2.513h-1.564z" fill="#cc284e"/><path d="M18.433-2.513v61.266h2.998V-2.513h-2.998z" fill="#5c2e49"/><path d="M21.431-2.513v61.266h1.565V-2.513h-1.565z" fill="#fff4f7"/><path d="M22.996-2.513v61.266h1.564V-2.513h-1.564z" fill="#cc284e"/><path d="M24.56-2.513v61.266h1.564V-2.513H24.56z" fill="#5c2e49"/><path d="M26.124-2.513v61.266h2.998V-2.513h-2.998z" fill="#fff4f7"/><path d="M29.122-2.513v61.266h7.691V-2.513h-7.691z" fill="#cc284e"/><path d="M36.813-2.513v61.266h2.998V-2.513h-2.998z" fill="#fff4f7"/><path d="M39.811-2.513v61.266h1.564V-2.513h-1.564z" fill="#5c2e49"/><path d="M41.375-2.513v61.266h1.565V-2.513h-1.565z" fill="#cc284e"/><path d="M42.94-2.513v61.266h1.564V-2.513H42.94z" fill="#fff4f7"/><path d="M44.504-2.513v61.266h2.998V-2.513h-2.998z" fill="#5c2e49"/><path d="M47.502-2.513v61.266h1.564V-2.513h-1.564z" fill="#380021"/><path d="M49.066-2.513v61.266h2.998V-2.513h-2.998z" fill="#5c2e49"/><path d="M52.064-2.513v61.266h1.565V-2.513h-1.565z" fill="#fff4f7"/><path d="M53.629-2.513v61.266h1.564V-2.513h-1.564z" fill="#380021"/><path d="M55.193-2.513v61.266h1.564V-2.513h-1.564z" fill="#5c2e49"/><path d="M56.757-2.513v61.266h2.998V-2.513h-2.998z" fill="#fff4f7"/></g><g opacity=".5"><path fill="#380021" d="M-1.511-2.513h61.266v7.691H-1.511z"/><path fill="#fff4f7" d="M-1.511 5.178h61.266v2.998H-1.511z"/><path fill="#5c2e49" d="M-1.511 8.176h61.266V9.74H-1.511z"/><path fill="#380021" d="M-1.511 9.741h61.266v1.564H-1.511z"/><path fill="#fff4f7" d="M-1.511 11.305h61.266v1.564H-1.511z"/><path fill="#5c2e49" d="M-1.511 12.869h61.266v2.998H-1.511z"/><path fill="#cc284e" d="M-1.511 15.867h61.266v1.564H-1.511z"/><path fill="#5c2e49" d="M-1.511 17.431h61.266v2.998H-1.511z"/><path fill="#fff4f7" d="M-1.511 20.429h61.266v1.564H-1.511z"/><path fill="#cc284e" d="M-1.511 21.994h61.266v1.564H-1.511z"/><path fill="#5c2e49" d="M-1.511 23.558h61.266v1.564H-1.511z"/><path fill="#fff4f7" d="M-1.511 25.122h61.266v2.998H-1.511z"/><path fill="#cc284e" d="M-1.511 28.12h61.266v7.691H-1.511z"/><path fill="#fff4f7" d="M-1.511 35.811h61.266v2.998H-1.511z"/><path fill="#5c2e49" d="M-1.511 38.809h61.266v1.564H-1.511z"/><path fill="#cc284e" d="M-1.511 40.374h61.266v1.564H-1.511z"/><path fill="#fff4f7" d="M-1.511 41.938h61.266v1.564H-1.511z"/><path fill="#5c2e49" d="M-1.511 43.502h61.266V46.5H-1.511z"/><path fill="#380021" d="M-1.511 46.5h61.266v1.564H-1.511z"/><path fill="#5c2e49" d="M-1.511 48.064h61.266v2.998H-1.511z"/><path fill="#fff4f7" d="M-1.511 51.063h61.266v1.564H-1.511z"/><path fill="#380021" d="M-1.511 52.627h61.266v1.564H-1.511z"/><path fill="#5c2e49" d="M-1.511 54.191h61.266v1.564H-1.511z"/><path fill="#fff4f7" d="M-1.511 55.755h61.266v2.998H-1.511z"/></g><g opacity=".5"><path d="M-1.511-2.513v61.266H6.18V-2.513h-7.691z" fill="#380021"/><path d="M6.18-2.513v61.266h2.998V-2.513H6.18z" fill="#fff4f7"/><path d="M9.178-2.513v61.266h1.564V-2.513H9.178z" fill="#5c2e49"/><path d="M10.742-2.513v61.266h1.565V-2.513h-1.565z" fill="#380021"/><path d="M12.307-2.513v61.266h1.564V-2.513h-1.564z" fill="#fff4f7"/><path d="M13.871-2.513v61.266h2.998V-2.513h-2.998z" fill="#5c2e49"/><path d="M16.869-2.513v61.266h1.564V-2.513h-1.564z" fill="#cc284e"/><path d="M18.433-2.513v61.266h2.998V-2.513h-2.998z" fill="#5c2e49"/><path d="M21.431-2.513v61.266h1.565V-2.513h-1.565z" fill="#fff4f7"/><path d="M22.996-2.513v61.266h1.564V-2.513h-1.564z" fill="#cc284e"/><path d="M24.56-2.513v61.266h1.564V-2.513H24.56z" fill="#5c2e49"/><path d="M26.124-2.513v61.266h2.998V-2.513h-2.998z" fill="#fff4f7"/><path d="M29.122-2.513v61.266h7.691V-2.513h-7.691z" fill="#cc284e"/><path d="M36.813-2.513v61.266h2.998V-2.513h-2.998z" fill="#fff4f7"/><path d="M39.811-2.513v61.266h1.564V-2.513h-1.564z" fill="#5c2e49"/><path d="M41.375-2.513v61.266h1.565V-2.513h-1.565z" fill="#cc284e"/><path d="M42.94-2.513v61.266h1.564V-2.513H42.94z" fill="#fff4f7"/><path d="M44.504-2.513v61.266h2.998V-2.513h-2.998z" fill="#5c2e49"/><path d="M47.502-2.513v61.266h1.564V-2.513h-1.564z" fill="#380021"/><path d="M49.066-2.513v61.266h2.998V-2.513h-2.998z" fill="#5c2e49"/><path d="M52.064-2.513v61.266h1.565V-2.513h-1.565z" fill="#fff4f7"/><path d="M53.629-2.513v61.266h1.564V-2.513h-1.564z" fill="#380021"/><path d="M55.193-2.513v61.266h1.564V-2.513h-1.564z" fill="#5c2e49"/><path d="M56.757-2.513v61.266h2.998V-2.513h-2.998z" fill="#fff4f7"/></g></g></g><circle cx="42.028" cy="16" r="8.656" fill="#fff" fill-opacity=".95"/><g fill="#340221"><path d="M37.116 19.529a.282.282 0 01-.206-.087.282.282 0 01-.087-.206v-7.023c0-.08.029-.149.087-.207a.282.282 0 01.206-.087h3.609c1.029 0 1.789.189 2.278.566.489.377.734.949.734 1.717 0 .312-.091.589-.272.832a1.71 1.71 0 01-.598.527c.29.116.534.321.734.614.199.294.299.615.299.962 0 .805-.261 1.405-.783 1.8s-1.283.592-2.283.592h-3.718zm3.338-4.75c.145 0 .255-.049.331-.147a.543.543 0 00.114-.343.567.567 0 00-.114-.348.389.389 0 00-.331-.152h-.914v.99h.914zm.097 2.88c.167 0 .292-.054.375-.163a.587.587 0 00-.01-.739.45.45 0 00-.365-.163H39.54v1.065h1.011zM44.362 19.529a.283.283 0 01-.207-.087.282.282 0 01-.087-.206v-7.023c0-.08.029-.149.087-.207a.283.283 0 01.207-.087h2.217c.08 0 .149.029.207.087a.283.283 0 01.087.207v7.023a.282.282 0 01-.087.206.283.283 0 01-.207.087h-2.217z"/></g></g></g></svg>