<?xml version="1.0" encoding="UTF-8"?>
<svg width="320px" height="180px" viewBox="0 0 320 180" version="1.1" xmlns="http://www.w3.org/2000/svg" xmlns:xlink="http://www.w3.org/1999/xlink">
    <title>go-make-things copy</title>
    <g id="go-make-things-copy" stroke="none" stroke-width="1" fill="none" fill-rule="evenodd">
        <rect fill="#FFFFFF" x="0" y="0" width="320" height="180"></rect>
        <g id="Group" transform="translate(32.000000, 44.000000)">
            <path d="M25.48,13.192 C25.7466667,13.192 26.0506667,13.1653333 26.392,13.112 C26.7333333,13.0586667 27.0746667,12.9893333 27.416,12.904 C27.7573333,12.8186667 28.0826667,12.7226667 28.392,12.616 C28.7013333,12.5093333 28.9626667,12.4026667 29.176,12.296 L29.176,12.296 L29.176,8.712 C29.4213333,8.65866667 29.624,8.592 29.784,8.512 C29.944,8.432 30.072,8.344 30.168,8.248 L30.168,8.248 L30.168,7.64 L25.8,7.64 L25.8,8.248 C26.0133333,8.36533333 26.2426667,8.46666667 26.488,8.552 C26.7333333,8.63733333 26.9946667,8.69066667 27.272,8.712 L27.272,8.712 L27.272,11.72 C27.2293333,11.7626667 27.152,11.8106667 27.04,11.864 C26.928,11.9173333 26.7973333,11.9653333 26.648,12.008 C26.4986667,12.0506667 26.3386667,12.0853333 26.168,12.112 C25.9973333,12.1386667 25.832,12.152 25.672,12.152 C25.1706667,12.152 24.712,12.0346667 24.296,11.8 C23.88,11.5653333 23.5226667,11.24 23.224,10.824 C22.9253333,10.408 22.6933333,9.90933333 22.528,9.328 C22.3626667,8.74666667 22.28,8.104 22.28,7.4 C22.28,6.536 22.3706667,5.80266667 22.552,5.2 C22.7333333,4.59733333 22.9786667,4.10666667 23.288,3.728 C23.5973333,3.34933333 23.9546667,3.07466667 24.36,2.904 C24.7653333,2.73333333 25.1866667,2.648 25.624,2.648 C25.8586667,2.648 26.0933333,2.66133333 26.328,2.688 C26.5626667,2.71466667 26.7386667,2.75466667 26.856,2.808 L26.856,2.808 L27.752,5.24 L28.408,5.24 C28.472,5.00533333 28.528,4.744 28.576,4.456 C28.624,4.168 28.664,3.88 28.696,3.592 C28.728,3.304 28.752,3.03466667 28.768,2.784 C28.784,2.53333333 28.792,2.328 28.792,2.168 C28.4293333,1.98666667 27.9386667,1.848 27.32,1.752 C26.7013333,1.656 26.04,1.608 25.336,1.608 C24.6213333,1.608 23.9226667,1.71466667 23.24,1.928 C22.5573333,2.14133333 21.9466667,2.48 21.408,2.944 C20.8693333,3.408 20.4373333,4.00533333 20.112,4.736 C19.7866667,5.46666667 19.624,6.35466667 19.624,7.4 C19.624,8.36 19.7573333,9.20266667 20.024,9.928 C20.2906667,10.6533333 20.6773333,11.2586667 21.184,11.744 C21.6906667,12.2293333 22.304,12.592 23.024,12.832 C23.744,13.072 24.5626667,13.192 25.48,13.192 Z M35.096,13.192 C35.7573333,13.192 36.352,13.096 36.88,12.904 C37.408,12.712 37.856,12.4346667 38.224,12.072 C38.592,11.7093333 38.872,11.2693333 39.064,10.752 C39.256,10.2346667 39.352,9.65066667 39.352,9 C39.352,8.392 39.272,7.82933333 39.112,7.312 C38.952,6.79466667 38.6986667,6.352 38.352,5.984 C38.0053333,5.616 37.5626667,5.328 37.024,5.12 C36.4853333,4.912 35.8426667,4.808 35.096,4.808 C34.4346667,4.808 33.8426667,4.904 33.32,5.096 C32.7973333,5.288 32.352,5.56533333 31.984,5.928 C31.616,6.29066667 31.3333333,6.73066667 31.136,7.248 C30.9386667,7.76533333 30.84,8.34933333 30.84,9 C30.84,9.608 30.9253333,10.1706667 31.096,10.688 C31.2666667,11.2053333 31.528,11.648 31.88,12.016 C32.232,12.384 32.6746667,12.672 33.208,12.88 C33.7413333,13.088 34.3706667,13.192 35.096,13.192 Z M35.32,12.216 C34.9146667,12.216 34.584,12.1386667 34.328,11.984 C34.072,11.8293333 33.8693333,11.6133333 33.72,11.336 C33.5706667,11.0586667 33.4666667,10.72 33.408,10.32 C33.3493333,9.92 33.32,9.48 33.32,9 C33.32,8.40266667 33.3546667,7.89866667 33.424,7.488 C33.4933333,7.07733333 33.5973333,6.74666667 33.736,6.496 C33.8746667,6.24533333 34.0453333,6.064 34.248,5.952 C34.4506667,5.84 34.6906667,5.784 34.968,5.784 C35.3413333,5.784 35.6506667,5.86133333 35.896,6.016 C36.1413333,6.17066667 36.336,6.38666667 36.48,6.664 C36.624,6.94133333 36.7253333,7.27733333 36.784,7.672 C36.8426667,8.06666667 36.872,8.50933333 36.872,9 C36.872,9.59733333 36.8373333,10.1013333 36.768,10.512 C36.6986667,10.9226667 36.5946667,11.2533333 36.456,11.504 C36.3173333,11.7546667 36.152,11.936 35.96,12.048 C35.768,12.16 35.5546667,12.216 35.32,12.216 Z M48.392,13 L48.392,12.392 C48.1786667,12.2746667 47.9493333,12.168 47.704,12.072 C47.4586667,11.976 47.2346667,11.9066667 47.032,11.864 L47.032,11.864 L47.032,5.304 L47.016,3.272 L47.16,3.272 L47.736,5.144 L50.808,13 L51.544,13 L54.632,5.08 L55.16,3.368 L55.288,3.368 L55.208,5.24 L55.208,11.928 C54.9733333,11.9813333 54.7546667,12.0453333 54.552,12.12 C54.3493333,12.1946667 54.1413333,12.2853333 53.928,12.392 L53.928,12.392 L53.928,13 L58.712,13 L58.712,12.392 C58.552,12.3066667 58.368,12.2213333 58.16,12.136 C57.952,12.0506667 57.736,11.9866667 57.512,11.944 L57.512,11.944 L57.512,2.872 C57.7253333,2.82933333 57.936,2.768 58.144,2.688 C58.352,2.608 58.5466667,2.51466667 58.728,2.408 L58.728,2.408 L58.728,1.8 L54.76,1.8 L52.264,8.28 L51.784,9.848 L51.768,9.848 L51.304,8.312 L48.856,1.8 L44.52,1.8 L44.52,2.408 C44.7013333,2.52533333 44.912,2.62133333 45.152,2.696 C45.392,2.77066667 45.6186667,2.82933333 45.832,2.872 L45.832,2.872 L45.832,11.848 C45.608,11.8906667 45.3706667,11.9706667 45.12,12.088 C44.8693333,12.2053333 44.6586667,12.3066667 44.488,12.392 L44.488,12.392 L44.488,13 L48.392,13 Z M61.96,13.192 C62.2906667,13.192 62.5893333,13.144 62.856,13.048 C63.1226667,12.952 63.3546667,12.8266667 63.552,12.672 C63.7493333,12.5173333 63.912,12.3413333 64.04,12.144 C64.168,11.9466667 64.2586667,11.7413333 64.312,11.528 L64.312,11.528 L64.392,11.528 C64.4026667,11.88 64.4186667,12.1786667 64.44,12.424 C64.4613333,12.6693333 64.5253333,12.9146667 64.632,13.16 L64.632,13.16 L65.176,13.16 C65.3573333,13.1386667 65.5653333,13.1093333 65.8,13.072 C66.0346667,13.0346667 66.272,12.9866667 66.512,12.928 C66.752,12.8693333 66.9813333,12.808 67.2,12.744 C67.4186667,12.68 67.592,12.616 67.72,12.552 L67.72,12.552 L67.72,11.992 L66.616,11.832 C66.5946667,11.64 66.5813333,11.4586667 66.576,11.288 C66.5706667,11.1173333 66.568,10.9146667 66.568,10.68 C66.568,10.136 66.5813333,9.60533333 66.608,9.088 C66.6346667,8.57066667 66.648,7.992 66.648,7.352 C66.648,7 66.6053333,6.66933333 66.52,6.36 C66.4346667,6.05066667 66.2826667,5.78133333 66.064,5.552 C65.8453333,5.32266667 65.544,5.14133333 65.16,5.008 C64.776,4.87466667 64.28,4.808 63.672,4.808 C62.9573333,4.808 62.28,4.888 61.64,5.048 C61,5.208 60.4773333,5.42666667 60.072,5.704 C60.0933333,5.88533333 60.128,6.072 60.176,6.264 C60.224,6.456 60.2826667,6.64533333 60.352,6.832 C60.4213333,7.01866667 60.496,7.19466667 60.576,7.36 C60.656,7.52533333 60.7386667,7.672 60.824,7.8 L60.824,7.8 L61.528,7.8 L62.28,5.88 C62.5573333,5.77333333 62.8613333,5.72 63.192,5.72 C63.7253333,5.72 64.072,5.93333333 64.232,6.36 C64.392,6.78666667 64.4293333,7.45866667 64.344,8.376 C63.4693333,8.41866667 62.7253333,8.488 62.112,8.584 C61.4986667,8.68 60.9973333,8.82666667 60.608,9.024 C60.2186667,9.22133333 59.9333333,9.47466667 59.752,9.784 C59.5706667,10.0933333 59.48,10.488 59.48,10.968 C59.48,11.3093333 59.544,11.616 59.672,11.888 C59.8,12.16 59.976,12.392 60.2,12.584 C60.424,12.776 60.6853333,12.9253333 60.984,13.032 C61.2826667,13.1386667 61.608,13.192 61.96,13.192 Z M62.968,11.912 C62.6266667,11.912 62.36,11.8 62.168,11.576 C61.976,11.352 61.88,11.0373333 61.88,10.632 C61.88,10.3653333 61.9146667,10.1386667 61.984,9.952 C62.0533333,9.76533333 62.1786667,9.61066667 62.36,9.488 C62.5413333,9.36533333 62.792,9.27733333 63.112,9.224 C63.432,9.17066667 63.8426667,9.13866667 64.344,9.128 L64.344,9.128 L64.344,10.728 C64.312,10.8346667 64.2666667,10.9573333 64.208,11.096 C64.1493333,11.2346667 64.064,11.3626667 63.952,11.48 C63.84,11.5973333 63.704,11.6986667 63.544,11.784 C63.384,11.8693333 63.192,11.912 62.968,11.912 Z M72.6,13 L72.6,12.376 C72.4293333,12.28 72.2693333,12.2 72.12,12.136 C71.9706667,12.072 71.8053333,12.024 71.624,11.992 L71.624,11.992 L71.624,9.176 L72.152,9.336 C72.2906667,9.58133333 72.4293333,9.82933333 72.568,10.08 C72.7066667,10.3306667 72.8506667,10.5893333 73,10.856 C73.1493333,11.1226667 73.3173333,11.4 73.504,11.688 C73.6906667,11.976 73.9066667,12.2853333 74.152,12.616 L74.152,12.616 L74.584,13 L77.288,13 L77.288,12.376 L76.472,11.992 C76.1946667,11.6826667 75.92,11.3546667 75.648,11.008 C75.376,10.6613333 75.1173333,10.32 74.872,9.984 C74.6266667,9.648 74.3973333,9.33066667 74.184,9.032 C73.9706667,8.73333333 73.784,8.47733333 73.624,8.264 C73.7626667,8.12533333 73.9173333,7.968 74.088,7.792 C74.2586667,7.616 74.4373333,7.432 74.624,7.24 C74.8106667,7.048 74.9973333,6.848 75.184,6.64 C75.3706667,6.432 75.544,6.22133333 75.704,6.008 C75.9173333,5.96533333 76.112,5.912 76.288,5.848 C76.464,5.784 76.6533333,5.70933333 76.856,5.624 L76.856,5.624 L76.856,5 L73.112,5 L73.112,5.624 C73.2293333,5.70933333 73.344,5.784 73.456,5.848 C73.568,5.912 73.6933333,5.96533333 73.832,6.008 C73.5973333,6.38133333 73.328,6.792 73.024,7.24 C72.72,7.688 72.392,8.09866667 72.04,8.472 L72.04,8.472 L71.624,8.472 L71.624,0.968 L71.08,0.968 C70.888,0.989333333 70.6533333,1.01866667 70.376,1.056 C70.0986667,1.09333333 69.816,1.136 69.528,1.184 C69.24,1.232 68.968,1.288 68.712,1.352 C68.456,1.416 68.2533333,1.48 68.104,1.544 L68.104,1.544 L68.104,2.168 L69.32,2.296 L69.32,11.992 C68.968,12.0773333 68.616,12.2053333 68.264,12.376 L68.264,12.376 L68.264,13 L72.6,13 Z M81.864,13.192 C82.28,13.192 82.6666667,13.1466667 83.024,13.056 C83.3813333,12.9653333 83.696,12.848 83.968,12.704 C84.24,12.56 84.4693333,12.3946667 84.656,12.208 C84.8426667,12.0213333 84.9786667,11.8373333 85.064,11.656 L85.064,11.656 L84.76,11.336 C84.5466667,11.5066667 84.2506667,11.6453333 83.872,11.752 C83.4933333,11.8586667 83.128,11.912 82.776,11.912 C81.9546667,11.912 81.3333333,11.6613333 80.912,11.16 C80.4906667,10.6586667 80.2746667,9.98666667 80.264,9.144 L80.264,9.144 L85.176,9.144 C85.3146667,8.344 85.3226667,7.66666667 85.2,7.112 C85.0773333,6.55733333 84.8586667,6.10933333 84.544,5.768 C84.2293333,5.42666667 83.8346667,5.18133333 83.36,5.032 C82.8853333,4.88266667 82.376,4.808 81.832,4.808 C80.5626667,4.808 79.5706667,5.16533333 78.856,5.88 C78.1413333,6.59466667 77.784,7.63466667 77.784,9 C77.784,9.64 77.872,10.216 78.048,10.728 C78.224,11.24 78.4826667,11.68 78.824,12.048 C79.1653333,12.416 79.592,12.6986667 80.104,12.896 C80.616,13.0933333 81.2026667,13.192 81.864,13.192 Z M82.888,8.312 L80.312,8.312 C80.344,7.8 80.3973333,7.376 80.472,7.04 C80.5466667,6.704 80.6453333,6.43733333 80.768,6.24 C80.8906667,6.04266667 81.0346667,5.90666667 81.2,5.832 C81.3653333,5.75733333 81.5546667,5.72 81.768,5.72 C82.248,5.72 82.5733333,5.944 82.744,6.392 C82.9146667,6.84 82.9626667,7.48 82.888,8.312 L82.888,8.312 Z M98.28,13 L98.28,12.392 C98.0666667,12.2853333 97.824,12.1946667 97.552,12.12 C97.28,12.0453333 97.0053333,11.9813333 96.728,11.928 L96.728,11.928 L96.728,2.84 L98.584,2.84 L99.608,5.576 L100.264,5.576 C100.306667,5.352 100.349333,5.07733333 100.392,4.752 C100.434667,4.42666667 100.472,4.088 100.504,3.736 C100.536,3.384 100.562667,3.03733333 100.584,2.696 C100.605333,2.35466667 100.616,2.056 100.616,1.8 L100.616,1.8 L90.44,1.8 C90.44,2.04533333 90.4506667,2.34133333 90.472,2.688 C90.4933333,3.03466667 90.52,3.384 90.552,3.736 C90.584,4.088 90.6213333,4.42933333 90.664,4.76 C90.7066667,5.09066667 90.7493333,5.36266667 90.792,5.576 L90.792,5.576 L91.448,5.576 L92.472,2.84 L94.328,2.84 L94.328,11.928 C94.0506667,11.9706667 93.776,12.0373333 93.504,12.128 C93.232,12.2186667 92.9893333,12.3066667 92.776,12.392 L92.776,12.392 L92.776,13 L98.28,13 Z M105.4,13 L105.4,12.376 C105.250667,12.2693333 105.109333,12.1893333 104.976,12.136 C104.842667,12.0826667 104.690667,12.0346667 104.52,11.992 L104.52,11.992 L104.52,7.544 C104.648,7.16 104.861333,6.82133333 105.16,6.528 C105.458667,6.23466667 105.821333,6.088 106.248,6.088 C106.76,6.088 107.104,6.304 107.28,6.736 C107.456,7.168 107.544,7.84266667 107.544,8.76 L107.544,8.76 L107.544,11.992 C107.362667,12.0453333 107.202667,12.104 107.064,12.168 C106.925333,12.232 106.792,12.3013333 106.664,12.376 L106.664,12.376 L106.664,13 L110.904,13 L110.904,12.376 C110.744,12.2693333 110.573333,12.1893333 110.392,12.136 C110.210667,12.0826667 110.029333,12.0346667 109.848,11.992 L109.848,11.992 L109.848,8.168 C109.848,7.50666667 109.789333,6.96 109.672,6.528 C109.554667,6.096 109.384,5.752 109.16,5.496 C108.936,5.24 108.656,5.06133333 108.32,4.96 C107.984,4.85866667 107.602667,4.808 107.176,4.808 C106.877333,4.808 106.594667,4.856 106.328,4.952 C106.061333,5.048 105.813333,5.17866667 105.584,5.344 C105.354667,5.50933333 105.149333,5.70133333 104.968,5.92 C104.786667,6.13866667 104.642667,6.37066667 104.536,6.616 L104.536,6.616 L104.52,6.616 L104.52,0.968 L103.976,0.968 C103.762667,0.989333333 103.517333,1.01866667 103.24,1.056 C102.962667,1.09333333 102.685333,1.136 102.408,1.184 C102.130667,1.232 101.866667,1.288 101.616,1.352 C101.365333,1.416 101.16,1.48 101,1.544 L101,1.544 L101,2.168 L102.216,2.296 L102.216,11.992 C101.842667,12.0773333 101.490667,12.2053333 101.16,12.376 L101.16,12.376 L101.16,13 L105.4,13 Z M113.752,3.56 C114.157333,3.56 114.488,3.45333333 114.744,3.24 C115,3.02666667 115.128,2.73866667 115.128,2.376 C115.128,2.00266667 115,1.70933333 114.744,1.496 C114.488,1.28266667 114.157333,1.176 113.752,1.176 C113.346667,1.176 113.016,1.28266667 112.76,1.496 C112.504,1.70933333 112.376,2.00266667 112.376,2.376 C112.376,2.73866667 112.504,3.02666667 112.76,3.24 C113.016,3.45333333 113.346667,3.56 113.752,3.56 Z M116.008,13 L116.008,12.376 C115.858667,12.2906667 115.698667,12.2186667 115.528,12.16 C115.357333,12.1013333 115.165333,12.0453333 114.952,11.992 L114.952,11.992 L114.952,4.808 L114.408,4.808 C114.216,4.82933333 113.992,4.85866667 113.736,4.896 C113.48,4.93333333 113.218667,4.976 112.952,5.024 C112.685333,5.072 112.432,5.128 112.192,5.192 C111.952,5.256 111.752,5.32 111.592,5.384 L111.592,5.384 L111.592,6.008 L112.648,6.136 L112.648,11.992 C112.445333,12.0453333 112.258667,12.1013333 112.088,12.16 C111.917333,12.2186667 111.752,12.2906667 111.592,12.376 L111.592,12.376 L111.592,13 L116.008,13 Z M121.016,13 L121.016,12.376 C120.866667,12.28 120.725333,12.2026667 120.592,12.144 C120.458667,12.0853333 120.306667,12.0346667 120.136,11.992 L120.136,11.992 L120.136,7.544 C120.285333,7.096 120.506667,6.74133333 120.8,6.48 C121.093333,6.21866667 121.442667,6.088 121.848,6.088 C122.338667,6.088 122.68,6.27733333 122.872,6.656 C123.064,7.03466667 123.16,7.56 123.16,8.232 L123.16,8.232 L123.16,11.992 C122.978667,12.056 122.821333,12.1173333 122.688,12.176 C122.554667,12.2346667 122.418667,12.3013333 122.28,12.376 L122.28,12.376 L122.28,13 L126.52,13 L126.52,12.376 C126.242667,12.1946667 125.890667,12.0666667 125.464,11.992 L125.464,11.992 L125.464,8.168 C125.464,7.50666667 125.402667,6.96 125.28,6.528 C125.157333,6.096 124.981333,5.752 124.752,5.496 C124.522667,5.24 124.242667,5.06133333 123.912,4.96 C123.581333,4.85866667 123.208,4.808 122.792,4.808 C122.152,4.808 121.608,4.97066667 121.16,5.296 C120.712,5.62133333 120.376,6.008 120.152,6.456 L120.152,6.456 L120.136,6.456 L120.136,4.808 L119.592,4.808 C119.368,4.82933333 119.12,4.85866667 118.848,4.896 C118.576,4.93333333 118.309333,4.97866667 118.048,5.032 C117.786667,5.08533333 117.544,5.14133333 117.32,5.2 C117.096,5.25866667 116.914667,5.32 116.776,5.384 L116.776,5.384 L116.776,6.008 L117.832,6.136 L117.832,11.992 C117.394667,12.1093333 117.042667,12.2373333 116.776,12.376 L116.776,12.376 L116.776,13 L121.016,13 Z M130.872,16.392 C131.469333,16.392 132.032,16.3306667 132.56,16.208 C133.088,16.0853333 133.546667,15.9093333 133.936,15.68 C134.325333,15.4506667 134.632,15.1706667 134.856,14.84 C135.08,14.5093333 135.186667,14.1306667 135.176,13.704 C135.165333,13.256 135.026667,12.8906667 134.76,12.608 C134.493333,12.3253333 134.162667,12.096 133.768,11.92 C133.373333,11.744 132.949333,11.6026667 132.496,11.496 C132.042667,11.3893333 131.618667,11.2933333 131.224,11.208 C130.829333,11.1226667 130.504,11.0266667 130.248,10.92 C129.992,10.8133333 129.864,10.6693333 129.864,10.488 C129.864,10.4026667 129.888,10.3146667 129.936,10.224 C129.984,10.1333333 130.029333,10.056 130.072,9.992 C130.178667,10.0133333 130.304,10.0266667 130.448,10.032 C130.592,10.0373333 130.754667,10.04 130.936,10.04 C131.554667,10.04 132.096,9.97066667 132.56,9.832 C133.024,9.69333333 133.408,9.504 133.712,9.264 C134.016,9.024 134.242667,8.74933333 134.392,8.44 C134.541333,8.13066667 134.616,7.8 134.616,7.448 C134.616,7.11733333 134.565333,6.832 134.464,6.592 C134.362667,6.352 134.253333,6.15733333 134.136,6.008 L134.136,6.008 L135.816,6.008 L136.024,5.624 C136.024,5.54933333 136.008,5.45333333 135.976,5.336 C135.944,5.21866667 135.901333,5.10133333 135.848,4.984 C135.794667,4.86666667 135.730667,4.75733333 135.656,4.656 C135.581333,4.55466667 135.506667,4.47733333 135.432,4.424 C134.781333,4.63733333 134.205333,5.016 133.704,5.56 C133.469333,5.34666667 133.122667,5.168 132.664,5.024 C132.205333,4.88 131.629333,4.808 130.936,4.808 C129.805333,4.808 128.909333,5.032 128.248,5.48 C127.586667,5.928 127.256,6.552 127.256,7.352 C127.256,8.024 127.453333,8.576 127.848,9.008 C128.242667,9.44 128.776,9.73066667 129.448,9.88 C129.288,9.944 129.128,10.0213333 128.968,10.112 C128.808,10.2026667 128.658667,10.304 128.52,10.416 C128.381333,10.528 128.269333,10.6506667 128.184,10.784 C128.098667,10.9173333 128.056,11.0533333 128.056,11.192 C128.056,11.352 128.093333,11.4933333 128.168,11.616 C128.242667,11.7386667 128.338667,11.8453333 128.456,11.936 C128.573333,12.0266667 128.706667,12.104 128.856,12.168 C129.005333,12.232 129.16,12.2853333 129.32,12.328 C128.978667,12.4133333 128.666667,12.5093333 128.384,12.616 C128.101333,12.7226667 127.853333,12.856 127.64,13.016 C127.426667,13.176 127.261333,13.3626667 127.144,13.576 C127.026667,13.7893333 126.968,14.0453333 126.968,14.344 C126.968,14.6106667 127.04,14.8666667 127.184,15.112 C127.328,15.3573333 127.554667,15.576 127.864,15.768 C128.173333,15.96 128.576,16.112 129.072,16.224 C129.568,16.336 130.168,16.392 130.872,16.392 Z M130.936,9.128 C130.392,9.128 130.026667,8.984 129.84,8.696 C129.653333,8.408 129.56,7.98666667 129.56,7.432 C129.56,6.84533333 129.656,6.41333333 129.848,6.136 C130.04,5.85866667 130.402667,5.72 130.936,5.72 C131.448,5.72 131.805333,5.86133333 132.008,6.144 C132.210667,6.42666667 132.312,6.856 132.312,7.432 C132.312,7.976 132.213333,8.39466667 132.016,8.688 C131.818667,8.98133333 131.458667,9.128 130.936,9.128 Z M131.192,15.48 C130.584,15.48 130.112,15.344 129.776,15.072 C129.44,14.8 129.272,14.4186667 129.272,13.928 C129.272,13.6293333 129.330667,13.3733333 129.448,13.16 C129.565333,12.9466667 129.762667,12.7333333 130.04,12.52 C130.381333,12.6266667 130.725333,12.72 131.072,12.8 C131.418667,12.88 131.730667,12.976 132.008,13.088 C132.285333,13.2 132.512,13.344 132.688,13.52 C132.864,13.696 132.952,13.928 132.952,14.216 C132.952,14.5573333 132.808,14.8533333 132.52,15.104 C132.232,15.3546667 131.789333,15.48 131.192,15.48 Z M139.192,13.192 C140.194667,13.192 140.994667,12.9813333 141.592,12.56 C142.189333,12.1386667 142.488,11.56 142.488,10.824 C142.488,10.408 142.389333,10.0506667 142.192,9.752 C141.994667,9.45333333 141.749333,9.19466667 141.456,8.976 C141.162667,8.75733333 140.842667,8.56266667 140.496,8.392 C140.149333,8.22133333 139.829333,8.05066667 139.536,7.88 C139.242667,7.70933333 138.997333,7.52533333 138.8,7.328 C138.602667,7.13066667 138.504,6.89866667 138.504,6.632 C138.504,6.39733333 138.586667,6.18666667 138.752,6 C138.917333,5.81333333 139.16,5.72 139.48,5.72 C139.650667,5.72 139.805333,5.728 139.944,5.744 C140.082667,5.76 140.216,5.79466667 140.344,5.848 L140.344,5.848 L141.016,7.48 L141.56,7.48 C141.677333,7.16 141.8,6.80533333 141.928,6.416 C142.056,6.02666667 142.141333,5.66133333 142.184,5.32 C141.810667,5.16 141.376,5.03466667 140.88,4.944 C140.384,4.85333333 139.848,4.808 139.272,4.808 C138.856,4.808 138.469333,4.85866667 138.112,4.96 C137.754667,5.06133333 137.448,5.20266667 137.192,5.384 C136.936,5.56533333 136.733333,5.78666667 136.584,6.048 C136.434667,6.30933333 136.36,6.6 136.36,6.92 C136.36,7.368 136.458667,7.74666667 136.656,8.056 C136.853333,8.36533333 137.098667,8.63466667 137.392,8.864 C137.685333,9.09333333 138.005333,9.29333333 138.352,9.464 C138.698667,9.63466667 139.018667,9.80533333 139.312,9.976 C139.605333,10.1466667 139.850667,10.3333333 140.048,10.536 C140.245333,10.7386667 140.344,10.9786667 140.344,11.256 C140.344,11.576 140.216,11.8266667 139.96,12.008 C139.704,12.1893333 139.421333,12.28 139.112,12.28 C138.984,12.28 138.848,12.272 138.704,12.256 C138.56,12.24 138.429333,12.1893333 138.312,12.104 L138.312,12.104 L137.528,10.36 L136.984,10.36 C136.802667,10.6693333 136.632,11.0213333 136.472,11.416 C136.312,11.8106667 136.221333,12.2 136.2,12.584 C136.594667,12.776 137.064,12.9253333 137.608,13.032 C138.152,13.1386667 138.68,13.192 139.192,13.192 Z" id="GoMakeThings" fill="#272727" fill-rule="nonzero"></path>
            <path d="M26.448,33 C26.4573333,32.7946667 26.462,32.5613333 26.462,32.3 C26.462,32.0386667 26.455,31.7703333 26.441,31.495 C26.427,31.2196667 26.4083333,30.9536667 26.385,30.697 C26.3616667,30.4403333 26.336,30.214 26.308,30.018 L26.308,30.018 L25.944,30.018 L25.118,32.272 L21.898,32.272 L21.898,23.956 C22.122,23.928 22.346,23.8836667 22.57,23.823 C22.794,23.7623333 23.018,23.69 23.242,23.606 L23.242,23.606 L23.242,23.2 L19.406,23.2 L19.406,23.606 C19.5646667,23.6806667 19.742,23.7483333 19.938,23.809 C20.134,23.8696667 20.3393333,23.9186667 20.554,23.956 L20.554,23.956 L20.554,32.258 C20.386,32.286 20.2086667,32.3233333 20.022,32.37 C19.8353333,32.4166667 19.63,32.4913333 19.406,32.594 L19.406,32.594 L19.406,33 L26.448,33 Z M30.62,33.168 C30.872,33.168 31.1193333,33.1376667 31.362,33.077 C31.6046667,33.0163333 31.8286667,32.9346667 32.034,32.832 C32.2393333,32.7293333 32.4213333,32.608 32.58,32.468 C32.7386667,32.328 32.8553333,32.1786667 32.93,32.02 L32.93,32.02 L32.734,31.796 C32.566,31.9453333 32.314,32.0666667 31.978,32.16 C31.642,32.2533333 31.3106667,32.3 30.984,32.3 C30.5826667,32.3 30.2326667,32.2276667 29.934,32.083 C29.6353333,31.9383333 29.388,31.74 29.192,31.488 C28.996,31.236 28.849,30.9396667 28.751,30.599 C28.653,30.2583333 28.604,29.892 28.604,29.5 L28.604,29.5 L32.972,29.5 C33.0093333,29.3133333 33.035,29.1383333 33.049,28.975 C33.063,28.8116667 33.07,28.6506667 33.07,28.492 C33.07,27.988 32.993,27.5656667 32.839,27.225 C32.685,26.8843333 32.4843333,26.6113333 32.237,26.406 C31.9896667,26.2006667 31.7073333,26.0536667 31.39,25.965 C31.0726667,25.8763333 30.7506667,25.832 30.424,25.832 C29.416,25.832 28.6366667,26.1446667 28.086,26.77 C27.5353333,27.3953333 27.26,28.3053333 27.26,29.5 C27.26,30.06 27.3323333,30.564 27.477,31.012 C27.6216667,31.46 27.834,31.845 28.114,32.167 C28.394,32.489 28.744,32.7363333 29.164,32.909 C29.584,33.0816667 30.0693333,33.168 30.62,33.168 Z M31.726,28.884 L28.646,28.884 C28.702,27.9786667 28.87,27.3463333 29.15,26.987 C29.43,26.6276667 29.836,26.448 30.368,26.448 C30.844,26.448 31.194,26.6253333 31.418,26.98 C31.642,27.3346667 31.754,27.8106667 31.754,28.408 C31.754,28.4826667 31.7516667,28.5596667 31.747,28.639 C31.7423333,28.7183333 31.7353333,28.8 31.726,28.884 L31.726,28.884 Z M36.206,33.168 C36.5046667,33.168 36.7706667,33.1213333 37.004,33.028 C37.2373333,32.9346667 37.4403333,32.8133333 37.613,32.664 C37.7856667,32.5146667 37.9256667,32.3443333 38.033,32.153 C38.1403333,31.9616667 38.2126667,31.7726667 38.25,31.586 L38.25,31.586 L38.32,31.586 C38.3293333,31.894 38.3433333,32.1763333 38.362,32.433 C38.3806667,32.6896667 38.4366667,32.9253333 38.53,33.14 L38.53,33.14 L38.88,33.14 C39.1413333,33.0933333 39.4143333,33.0233333 39.699,32.93 C39.9836667,32.8366667 40.2426667,32.7293333 40.476,32.608 L40.476,32.608 L40.476,32.314 L39.51,32.174 C39.5006667,32.006 39.4913333,31.8473333 39.482,31.698 C39.4726667,31.5486667 39.468,31.3713333 39.468,31.166 C39.468,30.69 39.4796667,30.193 39.503,29.675 C39.5263333,29.157 39.538,28.618 39.538,28.058 C39.538,27.7966667 39.5146667,27.5353333 39.468,27.274 C39.4213333,27.0126667 39.3233333,26.7746667 39.174,26.56 C39.0246667,26.3453333 38.8076667,26.1703333 38.523,26.035 C38.2383333,25.8996667 37.858,25.832 37.382,25.832 C36.85,25.832 36.367,25.8926667 35.933,26.014 C35.499,26.1353333 35.1046667,26.3033333 34.75,26.518 C34.7686667,26.8073333 34.813,27.1013333 34.883,27.4 C34.953,27.6986667 35.0346667,27.988 35.128,28.268 L35.128,28.268 L35.492,28.268 L36.15,26.588 C36.3086667,26.5226667 36.4696667,26.483 36.633,26.469 C36.7963333,26.455 36.9433333,26.448 37.074,26.448 C37.354,26.448 37.5803333,26.511 37.753,26.637 C37.9256667,26.763 38.0563333,26.9403333 38.145,27.169 C38.2336667,27.3976667 38.285,27.673 38.299,27.995 C38.313,28.317 38.3013333,28.6786667 38.264,29.08 C37.6106667,29.1173333 37.0366667,29.171 36.542,29.241 C36.0473333,29.311 35.632,29.4253333 35.296,29.584 C34.96,29.7426667 34.7056667,29.9596667 34.533,30.235 C34.3603333,30.5103333 34.274,30.8626667 34.274,31.292 C34.274,31.852 34.4536667,32.3046667 34.813,32.65 C35.1723333,32.9953333 35.6366667,33.168 36.206,33.168 Z M36.766,32.3 C36.4113333,32.3 36.1313333,32.1903333 35.926,31.971 C35.7206667,31.7516667 35.618,31.4413333 35.618,31.04 C35.618,30.8066667 35.6553333,30.599 35.73,30.417 C35.8046667,30.235 35.94,30.0833333 36.136,29.962 C36.332,29.8406667 36.6026667,29.752 36.948,29.696 C37.2933333,29.64 37.7366667,29.612 38.278,29.612 L38.278,29.612 L38.278,31.082 C38.25,31.1753333 38.1986667,31.2896667 38.124,31.425 C38.0493333,31.5603333 37.9513333,31.6933333 37.83,31.824 C37.7086667,31.9546667 37.5593333,32.0666667 37.382,32.16 C37.2046667,32.2533333 36.9993333,32.3 36.766,32.3 Z M44.536,33 L44.536,32.65 C44.3493333,32.5473333 44.1626667,32.4703333 43.976,32.419 C43.7893333,32.3676667 43.6026667,32.3326667 43.416,32.314 L43.416,32.314 L43.416,28.156 C43.5373333,27.82 43.675,27.5656667 43.829,27.393 C43.983,27.2203333 44.1113333,27.106 44.214,27.05 L44.214,27.05 L46.076,27.05 L46.076,26.686 C46.0293333,26.5273333 45.9803333,26.3756667 45.929,26.231 C45.8776667,26.0863333 45.8193333,25.9533333 45.754,25.832 C45.502,25.804 45.257,25.8296667 45.019,25.909 C44.781,25.9883333 44.5616667,26.1026667 44.361,26.252 C44.1603333,26.4013333 43.983,26.5693333 43.829,26.756 C43.675,26.9426667 43.556,27.1293333 43.472,27.316 L43.472,27.316 L43.416,27.316 L43.416,25.832 L43.066,25.832 C42.7766667,25.8786667 42.4733333,25.9416667 42.156,26.021 C41.8386667,26.1003333 41.5306667,26.2053333 41.232,26.336 L41.232,26.336 L41.232,26.7 L42.156,26.812 L42.156,32.314 C42.0066667,32.3513333 41.8573333,32.3933333 41.708,32.44 C41.5586667,32.4866667 41.4,32.5566667 41.232,32.65 L41.232,32.65 L41.232,33 L44.536,33 Z M49.632,33 L49.632,32.65 C49.3613333,32.482 49.0813333,32.37 48.792,32.314 L48.792,32.314 L48.792,28.226 C48.8573333,28.03 48.946,27.841 49.058,27.659 C49.17,27.477 49.303,27.3136667 49.457,27.169 C49.611,27.0243333 49.7883333,26.91 49.989,26.826 C50.1896667,26.742 50.4066667,26.7 50.64,26.7 C51.1813333,26.7 51.5546667,26.9053333 51.76,27.316 C51.9653333,27.7266667 52.068,28.2866667 52.068,28.996 L52.068,28.996 L52.068,32.314 C51.7693333,32.4073333 51.494,32.5193333 51.242,32.65 L51.242,32.65 L51.242,33 L54.252,33 L54.252,32.65 C54.0093333,32.4913333 53.7013333,32.3793333 53.328,32.314 L53.328,32.314 L53.328,28.772 C53.328,28.1933333 53.2766667,27.715 53.174,27.337 C53.0713333,26.959 52.922,26.658 52.726,26.434 C52.53,26.21 52.285,26.0536667 51.991,25.965 C51.697,25.8763333 51.3633333,25.832 50.99,25.832 C50.4673333,25.832 50.0216667,25.986 49.653,26.294 C49.2843333,26.602 49.002,26.9706667 48.806,27.4 L48.806,27.4 L48.792,27.4 L48.792,25.832 L48.442,25.832 C48.0966667,25.8973333 47.7653333,25.972 47.448,26.056 C47.1306667,26.14 46.8506667,26.2333333 46.608,26.336 L46.608,26.336 L46.608,26.7 L47.532,26.812 L47.532,32.314 C47.1493333,32.4166667 46.8413333,32.5286667 46.608,32.65 L46.608,32.65 L46.608,33 L49.632,33 Z M61.224,33.168 L61.854,33 L64.332,26.7 C64.5,26.6533333 64.6516667,26.602 64.787,26.546 C64.9223333,26.49 65.0366667,26.4293333 65.13,26.364 L65.13,26.364 L65.13,26 L62.75,26 L62.75,26.364 C62.862,26.4386667 62.981,26.504 63.107,26.56 C63.233,26.616 63.3706667,26.6626667 63.52,26.7 L63.52,26.7 L62.022,30.9 L61.812,31.782 L61.784,31.782 L61.504,30.914 L59.88,26.7 C60.0386667,26.6533333 60.181,26.5996667 60.307,26.539 C60.433,26.4783333 60.5566667,26.4153333 60.678,26.35 L60.678,26.35 L60.678,26 L57.752,26 L57.752,26.364 C57.976,26.4946667 58.2233333,26.6066667 58.494,26.7 L58.494,26.7 L61.224,33.168 Z M67.468,33.168 C67.7666667,33.168 68.0326667,33.1213333 68.266,33.028 C68.4993333,32.9346667 68.7023333,32.8133333 68.875,32.664 C69.0476667,32.5146667 69.1876667,32.3443333 69.295,32.153 C69.4023333,31.9616667 69.4746667,31.7726667 69.512,31.586 L69.512,31.586 L69.582,31.586 C69.5913333,31.894 69.6053333,32.1763333 69.624,32.433 C69.6426667,32.6896667 69.6986667,32.9253333 69.792,33.14 L69.792,33.14 L70.142,33.14 C70.4033333,33.0933333 70.6763333,33.0233333 70.961,32.93 C71.2456667,32.8366667 71.5046667,32.7293333 71.738,32.608 L71.738,32.608 L71.738,32.314 L70.772,32.174 C70.7626667,32.006 70.7533333,31.8473333 70.744,31.698 C70.7346667,31.5486667 70.73,31.3713333 70.73,31.166 C70.73,30.69 70.7416667,30.193 70.765,29.675 C70.7883333,29.157 70.8,28.618 70.8,28.058 C70.8,27.7966667 70.7766667,27.5353333 70.73,27.274 C70.6833333,27.0126667 70.5853333,26.7746667 70.436,26.56 C70.2866667,26.3453333 70.0696667,26.1703333 69.785,26.035 C69.5003333,25.8996667 69.12,25.832 68.644,25.832 C68.112,25.832 67.629,25.8926667 67.195,26.014 C66.761,26.1353333 66.3666667,26.3033333 66.012,26.518 C66.0306667,26.8073333 66.075,27.1013333 66.145,27.4 C66.215,27.6986667 66.2966667,27.988 66.39,28.268 L66.39,28.268 L66.754,28.268 L67.412,26.588 C67.5706667,26.5226667 67.7316667,26.483 67.895,26.469 C68.0583333,26.455 68.2053333,26.448 68.336,26.448 C68.616,26.448 68.8423333,26.511 69.015,26.637 C69.1876667,26.763 69.3183333,26.9403333 69.407,27.169 C69.4956667,27.3976667 69.547,27.673 69.561,27.995 C69.575,28.317 69.5633333,28.6786667 69.526,29.08 C68.8726667,29.1173333 68.2986667,29.171 67.804,29.241 C67.3093333,29.311 66.894,29.4253333 66.558,29.584 C66.222,29.7426667 65.9676667,29.9596667 65.795,30.235 C65.6223333,30.5103333 65.536,30.8626667 65.536,31.292 C65.536,31.852 65.7156667,32.3046667 66.075,32.65 C66.4343333,32.9953333 66.8986667,33.168 67.468,33.168 Z M68.028,32.3 C67.6733333,32.3 67.3933333,32.1903333 67.188,31.971 C66.9826667,31.7516667 66.88,31.4413333 66.88,31.04 C66.88,30.8066667 66.9173333,30.599 66.992,30.417 C67.0666667,30.235 67.202,30.0833333 67.398,29.962 C67.594,29.8406667 67.8646667,29.752 68.21,29.696 C68.5553333,29.64 68.9986667,29.612 69.54,29.612 L69.54,29.612 L69.54,31.082 C69.512,31.1753333 69.4606667,31.2896667 69.386,31.425 C69.3113333,31.5603333 69.2133333,31.6933333 69.092,31.824 C68.9706667,31.9546667 68.8213333,32.0666667 68.644,32.16 C68.4666667,32.2533333 68.2613333,32.3 68.028,32.3 Z M75.518,33 L75.518,32.65 C75.2473333,32.482 74.9673333,32.37 74.678,32.314 L74.678,32.314 L74.678,28.226 C74.7433333,28.03 74.832,27.841 74.944,27.659 C75.056,27.477 75.189,27.3136667 75.343,27.169 C75.497,27.0243333 75.6743333,26.91 75.875,26.826 C76.0756667,26.742 76.2926667,26.7 76.526,26.7 C77.0673333,26.7 77.4406667,26.9053333 77.646,27.316 C77.8513333,27.7266667 77.954,28.2866667 77.954,28.996 L77.954,28.996 L77.954,32.314 C77.6553333,32.4073333 77.38,32.5193333 77.128,32.65 L77.128,32.65 L77.128,33 L80.138,33 L80.138,32.65 C79.8953333,32.4913333 79.5873333,32.3793333 79.214,32.314 L79.214,32.314 L79.214,28.772 C79.214,28.1933333 79.1626667,27.715 79.06,27.337 C78.9573333,26.959 78.808,26.658 78.612,26.434 C78.416,26.21 78.171,26.0536667 77.877,25.965 C77.583,25.8763333 77.2493333,25.832 76.876,25.832 C76.3533333,25.832 75.9076667,25.986 75.539,26.294 C75.1703333,26.602 74.888,26.9706667 74.692,27.4 L74.692,27.4 L74.678,27.4 L74.678,25.832 L74.328,25.832 C73.9826667,25.8973333 73.6513333,25.972 73.334,26.056 C73.0166667,26.14 72.7366667,26.2333333 72.494,26.336 L72.494,26.336 L72.494,26.7 L73.418,26.812 L73.418,32.314 C73.0353333,32.4166667 72.7273333,32.5286667 72.494,32.65 L72.494,32.65 L72.494,33 L75.518,33 Z M82.504,24.432 C82.7746667,24.432 82.9893333,24.3596667 83.148,24.215 C83.3066667,24.0703333 83.386,23.872 83.386,23.62 C83.386,23.368 83.3066667,23.1673333 83.148,23.018 C82.9893333,22.8686667 82.7746667,22.794 82.504,22.794 C82.2333333,22.794 82.0163333,22.8686667 81.853,23.018 C81.6896667,23.1673333 81.608,23.368 81.608,23.62 C81.608,23.872 81.6896667,24.0703333 81.853,24.215 C82.0163333,24.3596667 82.2333333,24.432 82.504,24.432 Z M84.058,33 L84.058,32.65 C83.9273333,32.5753333 83.7873333,32.5123333 83.638,32.461 C83.4886667,32.4096667 83.3206667,32.3606667 83.134,32.314 L83.134,32.314 L83.134,25.832 L82.784,25.832 C82.4666667,25.888 82.1493333,25.958 81.832,26.042 C81.5146667,26.126 81.2206667,26.224 80.95,26.336 L80.95,26.336 L80.95,26.7 L81.874,26.812 L81.874,32.314 C81.6966667,32.3606667 81.5333333,32.4096667 81.384,32.461 C81.2346667,32.5123333 81.09,32.5753333 80.95,32.65 L80.95,32.65 L80.95,33 L84.058,33 Z M88.272,33 L88.272,32.65 C87.964,32.5006667 87.656,32.3886667 87.348,32.314 L87.348,32.314 L87.348,22.472 L86.998,22.472 C86.6526667,22.528 86.298,22.598 85.934,22.682 C85.57,22.766 85.2666667,22.864 85.024,22.976 L85.024,22.976 L85.024,23.34 L86.088,23.452 L86.088,32.314 C85.78,32.3886667 85.472,32.5006667 85.164,32.65 L85.164,32.65 L85.164,33 L88.272,33 Z M92.486,33 L92.486,32.65 C92.178,32.5006667 91.87,32.3886667 91.562,32.314 L91.562,32.314 L91.562,22.472 L91.212,22.472 C90.8666667,22.528 90.512,22.598 90.148,22.682 C89.784,22.766 89.4806667,22.864 89.238,22.976 L89.238,22.976 L89.238,23.34 L90.302,23.452 L90.302,32.314 C89.994,32.3886667 89.686,32.5006667 89.378,32.65 L89.378,32.65 L89.378,33 L92.486,33 Z M95.496,33.168 C95.7946667,33.168 96.0606667,33.1213333 96.294,33.028 C96.5273333,32.9346667 96.7303333,32.8133333 96.903,32.664 C97.0756667,32.5146667 97.2156667,32.3443333 97.323,32.153 C97.4303333,31.9616667 97.5026667,31.7726667 97.54,31.586 L97.54,31.586 L97.61,31.586 C97.6193333,31.894 97.6333333,32.1763333 97.652,32.433 C97.6706667,32.6896667 97.7266667,32.9253333 97.82,33.14 L97.82,33.14 L98.17,33.14 C98.4313333,33.0933333 98.7043333,33.0233333 98.989,32.93 C99.2736667,32.8366667 99.5326667,32.7293333 99.766,32.608 L99.766,32.608 L99.766,32.314 L98.8,32.174 C98.7906667,32.006 98.7813333,31.8473333 98.772,31.698 C98.7626667,31.5486667 98.758,31.3713333 98.758,31.166 C98.758,30.69 98.7696667,30.193 98.793,29.675 C98.8163333,29.157 98.828,28.618 98.828,28.058 C98.828,27.7966667 98.8046667,27.5353333 98.758,27.274 C98.7113333,27.0126667 98.6133333,26.7746667 98.464,26.56 C98.3146667,26.3453333 98.0976667,26.1703333 97.813,26.035 C97.5283333,25.8996667 97.148,25.832 96.672,25.832 C96.14,25.832 95.657,25.8926667 95.223,26.014 C94.789,26.1353333 94.3946667,26.3033333 94.04,26.518 C94.0586667,26.8073333 94.103,27.1013333 94.173,27.4 C94.243,27.6986667 94.3246667,27.988 94.418,28.268 L94.418,28.268 L94.782,28.268 L95.44,26.588 C95.5986667,26.5226667 95.7596667,26.483 95.923,26.469 C96.0863333,26.455 96.2333333,26.448 96.364,26.448 C96.644,26.448 96.8703333,26.511 97.043,26.637 C97.2156667,26.763 97.3463333,26.9403333 97.435,27.169 C97.5236667,27.3976667 97.575,27.673 97.589,27.995 C97.603,28.317 97.5913333,28.6786667 97.554,29.08 C96.9006667,29.1173333 96.3266667,29.171 95.832,29.241 C95.3373333,29.311 94.922,29.4253333 94.586,29.584 C94.25,29.7426667 93.9956667,29.9596667 93.823,30.235 C93.6503333,30.5103333 93.564,30.8626667 93.564,31.292 C93.564,31.852 93.7436667,32.3046667 94.103,32.65 C94.4623333,32.9953333 94.9266667,33.168 95.496,33.168 Z M96.056,32.3 C95.7013333,32.3 95.4213333,32.1903333 95.216,31.971 C95.0106667,31.7516667 94.908,31.4413333 94.908,31.04 C94.908,30.8066667 94.9453333,30.599 95.02,30.417 C95.0946667,30.235 95.23,30.0833333 95.426,29.962 C95.622,29.8406667 95.8926667,29.752 96.238,29.696 C96.5833333,29.64 97.0266667,29.612 97.568,29.612 L97.568,29.612 L97.568,31.082 C97.54,31.1753333 97.4886667,31.2896667 97.414,31.425 C97.3393333,31.5603333 97.2413333,31.6933333 97.12,31.824 C96.9986667,31.9546667 96.8493333,32.0666667 96.672,32.16 C96.4946667,32.2533333 96.2893333,32.3 96.056,32.3 Z M104.372,35.24 C104.577333,35.1933333 104.803667,35.1093333 105.051,34.988 C105.298333,34.8666667 105.531667,34.6776667 105.751,34.421 C105.970333,34.1643333 106.154667,33.826 106.304,33.406 C106.453333,32.986 106.528,32.4493333 106.528,31.796 L106.528,31.796 L106.528,23.956 C106.714667,23.9186667 106.896667,23.8696667 107.074,23.809 C107.251333,23.7483333 107.424,23.6806667 107.592,23.606 L107.592,23.606 L107.592,23.2 L104.036,23.2 L104.036,23.606 C104.204,23.6806667 104.386,23.746 104.582,23.802 C104.778,23.858 104.978667,23.9093333 105.184,23.956 L105.184,23.956 L105.184,31.95 C105.184,32.4353333 105.160667,32.846 105.114,33.182 C105.067333,33.518 104.999667,33.8026667 104.911,34.036 C104.822333,34.2693333 104.719667,34.463 104.603,34.617 C104.486333,34.771 104.358,34.9086667 104.218,35.03 L104.218,35.03 L104.372,35.24 Z M110.742,33.168 C111.040667,33.168 111.306667,33.1213333 111.54,33.028 C111.773333,32.9346667 111.976333,32.8133333 112.149,32.664 C112.321667,32.5146667 112.461667,32.3443333 112.569,32.153 C112.676333,31.9616667 112.748667,31.7726667 112.786,31.586 L112.786,31.586 L112.856,31.586 C112.865333,31.894 112.879333,32.1763333 112.898,32.433 C112.916667,32.6896667 112.972667,32.9253333 113.066,33.14 L113.066,33.14 L113.416,33.14 C113.677333,33.0933333 113.950333,33.0233333 114.235,32.93 C114.519667,32.8366667 114.778667,32.7293333 115.012,32.608 L115.012,32.608 L115.012,32.314 L114.046,32.174 C114.036667,32.006 114.027333,31.8473333 114.018,31.698 C114.008667,31.5486667 114.004,31.3713333 114.004,31.166 C114.004,30.69 114.015667,30.193 114.039,29.675 C114.062333,29.157 114.074,28.618 114.074,28.058 C114.074,27.7966667 114.050667,27.5353333 114.004,27.274 C113.957333,27.0126667 113.859333,26.7746667 113.71,26.56 C113.560667,26.3453333 113.343667,26.1703333 113.059,26.035 C112.774333,25.8996667 112.394,25.832 111.918,25.832 C111.386,25.832 110.903,25.8926667 110.469,26.014 C110.035,26.1353333 109.640667,26.3033333 109.286,26.518 C109.304667,26.8073333 109.349,27.1013333 109.419,27.4 C109.489,27.6986667 109.570667,27.988 109.664,28.268 L109.664,28.268 L110.028,28.268 L110.686,26.588 C110.844667,26.5226667 111.005667,26.483 111.169,26.469 C111.332333,26.455 111.479333,26.448 111.61,26.448 C111.89,26.448 112.116333,26.511 112.289,26.637 C112.461667,26.763 112.592333,26.9403333 112.681,27.169 C112.769667,27.3976667 112.821,27.673 112.835,27.995 C112.849,28.317 112.837333,28.6786667 112.8,29.08 C112.146667,29.1173333 111.572667,29.171 111.078,29.241 C110.583333,29.311 110.168,29.4253333 109.832,29.584 C109.496,29.7426667 109.241667,29.9596667 109.069,30.235 C108.896333,30.5103333 108.81,30.8626667 108.81,31.292 C108.81,31.852 108.989667,32.3046667 109.349,32.65 C109.708333,32.9953333 110.172667,33.168 110.742,33.168 Z M111.302,32.3 C110.947333,32.3 110.667333,32.1903333 110.462,31.971 C110.256667,31.7516667 110.154,31.4413333 110.154,31.04 C110.154,30.8066667 110.191333,30.599 110.266,30.417 C110.340667,30.235 110.476,30.0833333 110.672,29.962 C110.868,29.8406667 111.138667,29.752 111.484,29.696 C111.829333,29.64 112.272667,29.612 112.814,29.612 L112.814,29.612 L112.814,31.082 C112.786,31.1753333 112.734667,31.2896667 112.66,31.425 C112.585333,31.5603333 112.487333,31.6933333 112.366,31.824 C112.244667,31.9546667 112.095333,32.0666667 111.918,32.16 C111.740667,32.2533333 111.535333,32.3 111.302,32.3 Z M118.666,33.168 L119.296,33 L121.774,26.7 C121.942,26.6533333 122.093667,26.602 122.229,26.546 C122.364333,26.49 122.478667,26.4293333 122.572,26.364 L122.572,26.364 L122.572,26 L120.192,26 L120.192,26.364 C120.304,26.4386667 120.423,26.504 120.549,26.56 C120.675,26.616 120.812667,26.6626667 120.962,26.7 L120.962,26.7 L119.464,30.9 L119.254,31.782 L119.226,31.782 L118.946,30.914 L117.322,26.7 C117.480667,26.6533333 117.623,26.5996667 117.749,26.539 C117.875,26.4783333 117.998667,26.4153333 118.12,26.35 L118.12,26.35 L118.12,26 L115.194,26 L115.194,26.364 C115.418,26.4946667 115.665333,26.6066667 115.936,26.7 L115.936,26.7 L118.666,33.168 Z M124.91,33.168 C125.208667,33.168 125.474667,33.1213333 125.708,33.028 C125.941333,32.9346667 126.144333,32.8133333 126.317,32.664 C126.489667,32.5146667 126.629667,32.3443333 126.737,32.153 C126.844333,31.9616667 126.916667,31.7726667 126.954,31.586 L126.954,31.586 L127.024,31.586 C127.033333,31.894 127.047333,32.1763333 127.066,32.433 C127.084667,32.6896667 127.140667,32.9253333 127.234,33.14 L127.234,33.14 L127.584,33.14 C127.845333,33.0933333 128.118333,33.0233333 128.403,32.93 C128.687667,32.8366667 128.946667,32.7293333 129.18,32.608 L129.18,32.608 L129.18,32.314 L128.214,32.174 C128.204667,32.006 128.195333,31.8473333 128.186,31.698 C128.176667,31.5486667 128.172,31.3713333 128.172,31.166 C128.172,30.69 128.183667,30.193 128.207,29.675 C128.230333,29.157 128.242,28.618 128.242,28.058 C128.242,27.7966667 128.218667,27.5353333 128.172,27.274 C128.125333,27.0126667 128.027333,26.7746667 127.878,26.56 C127.728667,26.3453333 127.511667,26.1703333 127.227,26.035 C126.942333,25.8996667 126.562,25.832 126.086,25.832 C125.554,25.832 125.071,25.8926667 124.637,26.014 C124.203,26.1353333 123.808667,26.3033333 123.454,26.518 C123.472667,26.8073333 123.517,27.1013333 123.587,27.4 C123.657,27.6986667 123.738667,27.988 123.832,28.268 L123.832,28.268 L124.196,28.268 L124.854,26.588 C125.012667,26.5226667 125.173667,26.483 125.337,26.469 C125.500333,26.455 125.647333,26.448 125.778,26.448 C126.058,26.448 126.284333,26.511 126.457,26.637 C126.629667,26.763 126.760333,26.9403333 126.849,27.169 C126.937667,27.3976667 126.989,27.673 127.003,27.995 C127.017,28.317 127.005333,28.6786667 126.968,29.08 C126.314667,29.1173333 125.740667,29.171 125.246,29.241 C124.751333,29.311 124.336,29.4253333 124,29.584 C123.664,29.7426667 123.409667,29.9596667 123.237,30.235 C123.064333,30.5103333 122.978,30.8626667 122.978,31.292 C122.978,31.852 123.157667,32.3046667 123.517,32.65 C123.876333,32.9953333 124.340667,33.168 124.91,33.168 Z M125.47,32.3 C125.115333,32.3 124.835333,32.1903333 124.63,31.971 C124.424667,31.7516667 124.322,31.4413333 124.322,31.04 C124.322,30.8066667 124.359333,30.599 124.434,30.417 C124.508667,30.235 124.644,30.0833333 124.84,29.962 C125.036,29.8406667 125.306667,29.752 125.652,29.696 C125.997333,29.64 126.440667,29.612 126.982,29.612 L126.982,29.612 L126.982,31.082 C126.954,31.1753333 126.902667,31.2896667 126.828,31.425 C126.753333,31.5603333 126.655333,31.6933333 126.534,31.824 C126.412667,31.9546667 126.263333,32.0666667 126.086,32.16 C125.908667,32.2533333 125.703333,32.3 125.47,32.3 Z M132.89,33.168 C133.422,33.168 133.898,33.1026667 134.318,32.972 C134.738,32.8413333 135.092667,32.6546667 135.382,32.412 C135.671333,32.1693333 135.893,31.8753333 136.047,31.53 C136.201,31.1846667 136.278,30.802 136.278,30.382 C136.278,29.8686667 136.163667,29.4393333 135.935,29.094 C135.706333,28.7486667 135.419333,28.45 135.074,28.198 C134.728667,27.946 134.357667,27.7243333 133.961,27.533 C133.564333,27.3416667 133.193333,27.1433333 132.848,26.938 C132.502667,26.7326667 132.215667,26.4993333 131.987,26.238 C131.758333,25.9766667 131.644,25.6546667 131.644,25.272 C131.644,24.796 131.788667,24.425 132.078,24.159 C132.367333,23.893 132.75,23.76 133.226,23.76 C133.515333,23.76 133.788333,23.7786667 134.045,23.816 C134.301667,23.8533333 134.514,23.9093333 134.682,23.984 L134.682,23.984 L135.242,25.902 L135.606,25.902 C135.643333,25.7433333 135.680667,25.559 135.718,25.349 C135.755333,25.139 135.790333,24.922 135.823,24.698 C135.855667,24.474 135.883667,24.257 135.907,24.047 C135.930333,23.837 135.942,23.6526667 135.942,23.494 C135.671333,23.3633333 135.300333,23.2536667 134.829,23.165 C134.357667,23.0763333 133.837333,23.032 133.268,23.032 C132.829333,23.032 132.432667,23.0903333 132.078,23.207 C131.723333,23.3236667 131.417667,23.4893333 131.161,23.704 C130.904333,23.9186667 130.706,24.18 130.566,24.488 C130.426,24.796 130.356,25.146 130.356,25.538 C130.356,26.0793333 130.470333,26.5296667 130.699,26.889 C130.927667,27.2483333 131.212333,27.5563333 131.553,27.813 C131.893667,28.0696667 132.264667,28.2913333 132.666,28.478 C133.067333,28.6646667 133.438333,28.856 133.779,29.052 C134.119667,29.248 134.404333,29.472 134.633,29.724 C134.861667,29.976 134.976,30.2886667 134.976,30.662 C134.976,30.942 134.92,31.1916667 134.808,31.411 C134.696,31.6303333 134.544333,31.817 134.353,31.971 C134.161667,32.125 133.935333,32.2416667 133.674,32.321 C133.412667,32.4003333 133.132667,32.44 132.834,32.44 C132.479333,32.44 132.213333,32.4003333 132.036,32.321 C131.858667,32.2416667 131.714,32.146 131.602,32.034 L131.602,32.034 L131.028,29.976 L130.664,29.976 C130.626667,30.1346667 130.589333,30.326 130.552,30.55 C130.514667,30.774 130.479667,31.005 130.447,31.243 C130.414333,31.481 130.386333,31.712 130.363,31.936 C130.339667,32.16 130.323333,32.3513333 130.314,32.51 C130.51,32.6686667 130.841333,32.818 131.308,32.958 C131.774667,33.098 132.302,33.168 132.89,33.168 Z M140.842,33.168 C141.346,33.168 141.787,33.0583333 142.165,32.839 C142.543,32.6196667 142.816,32.3466667 142.984,32.02 L142.984,32.02 L142.802,31.824 C142.634,31.9546667 142.428667,32.0666667 142.186,32.16 C141.943333,32.2533333 141.658667,32.3 141.332,32.3 C140.930667,32.3 140.578333,32.2206667 140.275,32.062 C139.971667,31.9033333 139.719667,31.691 139.519,31.425 C139.318333,31.159 139.169,30.858 139.071,30.522 C138.973,30.186 138.924,29.8406667 138.924,29.486 C138.924,28.3846667 139.096667,27.603 139.442,27.141 C139.787333,26.679 140.277333,26.448 140.912,26.448 C141.108,26.448 141.248,26.4596667 141.332,26.483 C141.416,26.5063333 141.490667,26.5413333 141.556,26.588 L141.556,26.588 L142.144,28.254 L142.522,28.254 C142.634,28.002 142.727333,27.6846667 142.802,27.302 C142.876667,26.9193333 142.928,26.574 142.956,26.266 C142.704,26.1353333 142.398333,26.0303333 142.039,25.951 C141.679667,25.8716667 141.271333,25.832 140.814,25.832 C139.815333,25.832 139.026667,26.147 138.448,26.777 C137.869333,27.407 137.58,28.3146667 137.58,29.5 C137.58,30.0506667 137.647667,30.5523333 137.783,31.005 C137.918333,31.4576667 138.121333,31.845 138.392,32.167 C138.662667,32.489 139.001,32.7363333 139.407,32.909 C139.813,33.0816667 140.291333,33.168 140.842,33.168 Z M147.268,33 L147.268,32.65 C147.081333,32.5473333 146.894667,32.4703333 146.708,32.419 C146.521333,32.3676667 146.334667,32.3326667 146.148,32.314 L146.148,32.314 L146.148,28.156 C146.269333,27.82 146.407,27.5656667 146.561,27.393 C146.715,27.2203333 146.843333,27.106 146.946,27.05 L146.946,27.05 L148.808,27.05 L148.808,26.686 C148.761333,26.5273333 148.712333,26.3756667 148.661,26.231 C148.609667,26.0863333 148.551333,25.9533333 148.486,25.832 C148.234,25.804 147.989,25.8296667 147.751,25.909 C147.513,25.9883333 147.293667,26.1026667 147.093,26.252 C146.892333,26.4013333 146.715,26.5693333 146.561,26.756 C146.407,26.9426667 146.288,27.1293333 146.204,27.316 L146.204,27.316 L146.148,27.316 L146.148,25.832 L145.798,25.832 C145.508667,25.8786667 145.205333,25.9416667 144.888,26.021 C144.570667,26.1003333 144.262667,26.2053333 143.964,26.336 L143.964,26.336 L143.964,26.7 L144.888,26.812 L144.888,32.314 C144.738667,32.3513333 144.589333,32.3933333 144.44,32.44 C144.290667,32.4866667 144.132,32.5566667 143.964,32.65 L143.964,32.65 L143.964,33 L147.268,33 Z M151.034,24.432 C151.304667,24.432 151.519333,24.3596667 151.678,24.215 C151.836667,24.0703333 151.916,23.872 151.916,23.62 C151.916,23.368 151.836667,23.1673333 151.678,23.018 C151.519333,22.8686667 151.304667,22.794 151.034,22.794 C150.763333,22.794 150.546333,22.8686667 150.383,23.018 C150.219667,23.1673333 150.138,23.368 150.138,23.62 C150.138,23.872 150.219667,24.0703333 150.383,24.215 C150.546333,24.3596667 150.763333,24.432 151.034,24.432 Z M152.588,33 L152.588,32.65 C152.457333,32.5753333 152.317333,32.5123333 152.168,32.461 C152.018667,32.4096667 151.850667,32.3606667 151.664,32.314 L151.664,32.314 L151.664,25.832 L151.314,25.832 C150.996667,25.888 150.679333,25.958 150.362,26.042 C150.044667,26.126 149.750667,26.224 149.48,26.336 L149.48,26.336 L149.48,26.7 L150.404,26.812 L150.404,32.314 C150.226667,32.3606667 150.063333,32.4096667 149.914,32.461 C149.764667,32.5123333 149.62,32.5753333 149.48,32.65 L149.48,32.65 L149.48,33 L152.588,33 Z M156.662,35.8 L156.662,35.45 C156.494,35.3473333 156.335333,35.2703333 156.186,35.219 C156.036667,35.1676667 155.887333,35.1326667 155.738,35.114 L155.738,35.114 L155.738,32.888 C155.971333,32.9906667 156.186,33.063 156.382,33.105 C156.578,33.147 156.848667,33.168 157.194,33.168 C157.688667,33.168 158.139,33.0793333 158.545,32.902 C158.951,32.7246667 159.296333,32.4726667 159.581,32.146 C159.865667,31.8193333 160.085,31.418 160.239,30.942 C160.393,30.466 160.47,29.934 160.47,29.346 C160.47,28.1046667 160.241333,27.2086667 159.784,26.658 C159.326667,26.1073333 158.682667,25.832 157.852,25.832 C157.310667,25.832 156.872,25.9743333 156.536,26.259 C156.2,26.5436667 155.938667,26.924 155.752,27.4 L155.752,27.4 L155.738,27.4 L155.738,25.832 L155.388,25.832 C155.089333,25.8786667 154.783667,25.9416667 154.471,26.021 C154.158333,26.1003333 153.852667,26.2053333 153.554,26.336 L153.554,26.336 L153.554,26.7 L154.478,26.812 L154.478,35.114 C154.179333,35.1886667 153.871333,35.3006667 153.554,35.45 L153.554,35.45 L153.554,35.8 L156.662,35.8 Z M157.124,32.552 C156.788,32.552 156.515,32.5263333 156.305,32.475 C156.095,32.4236667 155.906,32.3466667 155.738,32.244 L155.738,32.244 L155.738,28.324 C155.85,27.82 156.041333,27.4233333 156.312,27.134 C156.582667,26.8446667 156.946667,26.7 157.404,26.7 C157.721333,26.7 157.989667,26.7653333 158.209,26.896 C158.428333,27.0266667 158.605667,27.211 158.741,27.449 C158.876333,27.687 158.974333,27.967 159.035,28.289 C159.095667,28.611 159.126,28.9633333 159.126,29.346 C159.126,29.8126667 159.079333,30.2396667 158.986,30.627 C158.892667,31.0143333 158.759667,31.3526667 158.587,31.642 C158.414333,31.9313333 158.204333,32.1553333 157.957,32.314 C157.709667,32.4726667 157.432,32.552 157.124,32.552 Z M164.096,33.168 C164.310667,33.168 164.520667,33.14 164.726,33.084 C164.931333,33.028 165.120333,32.958 165.293,32.874 C165.465667,32.79 165.619667,32.7013333 165.755,32.608 C165.890333,32.5146667 165.995333,32.426 166.07,32.342 L166.07,32.342 L165.972,32.132 C165.794667,32.1973333 165.58,32.2416667 165.328,32.265 C165.076,32.2883333 164.866,32.3 164.698,32.3 C164.343333,32.3 164.077333,32.1833333 163.9,31.95 C163.722667,31.7166667 163.634,31.32 163.634,30.76 L163.634,30.76 L163.634,26.7 L165.734,26.7 L165.734,26 L163.634,26 L163.634,24.166 L163.284,24.166 C163.125333,24.2313333 162.964333,24.3083333 162.801,24.397 C162.637667,24.4856667 162.495333,24.5766667 162.374,24.67 L162.374,24.67 L162.374,25.86 C161.982,25.9533333 161.608667,26.112 161.254,26.336 L161.254,26.336 L161.254,26.7 L162.374,26.7 L162.374,31.152 C162.374,31.8613333 162.521,32.3746667 162.815,32.692 C163.109,33.0093333 163.536,33.168 164.096,33.168 Z" id="LearnvanillaJavaScript" fill="#272727" fill-rule="nonzero"></path>
            <rect id="Rectangle" fill="#ED2F37" x="19" y="63" width="175" height="32"></rect>
            <path d="M37.8,83.144 C38,83.144 38.214,83.122 38.442,83.078 C38.67,83.034 38.898,82.978 39.126,82.91 C39.354,82.842 39.57,82.766 39.774,82.682 C39.978,82.598 40.156,82.512 40.308,82.424 L40.308,82.424 L40.308,79.676 C40.5,79.636 40.652,79.592 40.764,79.544 C40.876,79.496 40.972,79.444 41.052,79.388 L41.052,79.388 L41.052,79.04 L38.112,79.04 L38.112,79.388 C38.296,79.452 38.482,79.512 38.67,79.568 C38.858,79.624 39.056,79.66 39.264,79.676 L39.264,79.676 L39.264,82.1 C39.232,82.132 39.174,82.172 39.09,82.22 C39.006,82.268 38.9,82.314 38.772,82.358 C38.644,82.402 38.504,82.44 38.352,82.472 C38.2,82.504 38.044,82.52 37.884,82.52 C37.452,82.52 37.05,82.432 36.678,82.256 C36.306,82.08 35.982,81.83 35.706,81.506 C35.43,81.182 35.214,80.792 35.058,80.336 C34.902,79.88 34.824,79.368 34.824,78.8 C34.824,78.168 34.904,77.618 35.064,77.15 C35.224,76.682 35.438,76.294 35.706,75.986 C35.974,75.678 36.288,75.45 36.648,75.302 C37.008,75.154 37.388,75.08 37.788,75.08 C37.988,75.08 38.192,75.088 38.4,75.104 C38.608,75.12 38.756,75.152 38.844,75.2 L38.844,75.2 L39.468,76.928 L39.78,76.928 C39.804,76.784 39.828,76.618 39.852,76.43 C39.876,76.242 39.896,76.052 39.912,75.86 C39.928,75.668 39.94,75.484 39.948,75.308 C39.956,75.132 39.96,74.984 39.96,74.864 C39.688,74.728 39.37,74.626 39.006,74.558 C38.642,74.49 38.196,74.456 37.668,74.456 C37.164,74.456 36.67,74.534 36.186,74.69 C35.702,74.846 35.27,75.098 34.89,75.446 C34.51,75.794 34.206,76.244 33.978,76.796 C33.75,77.348 33.636,78.016 33.636,78.8 C33.636,79.552 33.734,80.2 33.93,80.744 C34.126,81.288 34.404,81.738 34.764,82.094 C35.124,82.45 35.56,82.714 36.072,82.886 C36.584,83.058 37.16,83.144 37.8,83.144 Z M44.628,83.144 C44.844,83.144 45.056,83.118 45.264,83.066 C45.472,83.014 45.664,82.944 45.84,82.856 C46.016,82.768 46.172,82.664 46.308,82.544 C46.444,82.424 46.544,82.296 46.608,82.16 L46.608,82.16 L46.44,81.968 C46.296,82.096 46.08,82.2 45.792,82.28 C45.504,82.36 45.22,82.4 44.94,82.4 C44.596,82.4 44.296,82.338 44.04,82.214 C43.784,82.09 43.572,81.92 43.404,81.704 C43.236,81.488 43.11,81.234 43.026,80.942 C42.942,80.65 42.9,80.336 42.9,80 L42.9,80 L46.644,80 C46.676,79.84 46.698,79.69 46.71,79.55 C46.722,79.41 46.728,79.272 46.728,79.136 C46.728,78.704 46.662,78.342 46.53,78.05 C46.398,77.758 46.226,77.524 46.014,77.348 C45.802,77.172 45.56,77.046 45.288,76.97 C45.016,76.894 44.74,76.856 44.46,76.856 C43.596,76.856 42.928,77.124 42.456,77.66 C41.984,78.196 41.748,78.976 41.748,80 C41.748,80.48 41.81,80.912 41.934,81.296 C42.058,81.68 42.24,82.01 42.48,82.286 C42.72,82.562 43.02,82.774 43.38,82.922 C43.74,83.07 44.156,83.144 44.628,83.144 Z M45.576,79.472 L42.936,79.472 C42.984,78.696 43.128,78.154 43.368,77.846 C43.608,77.538 43.956,77.384 44.412,77.384 C44.82,77.384 45.12,77.536 45.312,77.84 C45.504,78.144 45.6,78.552 45.6,79.064 C45.6,79.128 45.598,79.194 45.594,79.262 C45.59,79.33 45.584,79.4 45.576,79.472 L45.576,79.472 Z M49.908,83.144 C50.092,83.144 50.272,83.12 50.448,83.072 C50.624,83.024 50.786,82.964 50.934,82.892 C51.082,82.82 51.214,82.744 51.33,82.664 C51.446,82.584 51.536,82.508 51.6,82.436 L51.6,82.436 L51.516,82.256 C51.364,82.312 51.18,82.35 50.964,82.37 C50.748,82.39 50.568,82.4 50.424,82.4 C50.12,82.4 49.892,82.3 49.74,82.1 C49.588,81.9 49.512,81.56 49.512,81.08 L49.512,81.08 L49.512,77.6 L51.312,77.6 L51.312,77 L49.512,77 L49.512,75.428 L49.212,75.428 C49.076,75.484 48.938,75.55 48.798,75.626 C48.658,75.702 48.536,75.78 48.432,75.86 L48.432,75.86 L48.432,76.88 C48.096,76.96 47.776,77.096 47.472,77.288 L47.472,77.288 L47.472,77.6 L48.432,77.6 L48.432,81.416 C48.432,82.024 48.558,82.464 48.81,82.736 C49.062,83.008 49.428,83.144 49.908,83.144 Z M58.044,83.108 C58.812,83.108 59.478,82.996 60.042,82.772 C60.606,82.548 61.072,82.24 61.44,81.848 C61.808,81.456 62.082,80.99 62.262,80.45 C62.442,79.91 62.532,79.324 62.532,78.692 C62.532,77.356 62.166,76.324 61.434,75.596 C60.702,74.868 59.656,74.504 58.296,74.504 C58.176,74.504 58.026,74.51 57.846,74.522 C57.666,74.534 57.478,74.546 57.282,74.558 C57.086,74.57 56.896,74.58 56.712,74.588 C56.528,74.596 56.368,74.6 56.232,74.6 L56.232,74.6 L55.008,74.6 L55.008,74.948 C55.144,75.004 55.296,75.058 55.464,75.11 C55.632,75.162 55.808,75.208 55.992,75.248 L55.992,75.248 L55.992,82.364 C55.616,82.428 55.288,82.524 55.008,82.652 L55.008,82.652 L55.008,83 L56.16,83 C56.312,83 56.474,83.006 56.646,83.018 C56.818,83.03 56.988,83.042 57.156,83.054 C57.324,83.066 57.484,83.078 57.636,83.09 C57.788,83.102 57.924,83.108 58.044,83.108 Z M58.2,82.484 L57.966,82.484 C57.858,82.484 57.744,82.482 57.624,82.478 C57.504,82.474 57.392,82.47 57.288,82.466 C57.184,82.462 57.112,82.456 57.072,82.448 L57.072,82.448 L57.072,75.176 C57.184,75.152 57.336,75.138 57.528,75.134 C57.72,75.13 57.92,75.128 58.128,75.128 C58.704,75.128 59.192,75.24 59.592,75.464 C59.992,75.688 60.314,75.974 60.558,76.322 C60.802,76.67 60.978,77.054 61.086,77.474 C61.194,77.894 61.248,78.3 61.248,78.692 C61.248,79.196 61.192,79.676 61.08,80.132 C60.968,80.588 60.79,80.99 60.546,81.338 C60.302,81.686 59.988,81.964 59.604,82.172 C59.22,82.38 58.752,82.484 58.2,82.484 L58.2,82.484 Z M65.28,83.144 C65.536,83.144 65.764,83.104 65.964,83.024 C66.164,82.944 66.338,82.84 66.486,82.712 C66.634,82.584 66.754,82.438 66.846,82.274 C66.938,82.11 67,81.948 67.032,81.788 L67.032,81.788 L67.092,81.788 C67.1,82.052 67.112,82.294 67.128,82.514 C67.144,82.734 67.192,82.936 67.272,83.12 L67.272,83.12 L67.572,83.12 C67.796,83.08 68.03,83.02 68.274,82.94 C68.518,82.86 68.74,82.768 68.94,82.664 L68.94,82.664 L68.94,82.412 L68.112,82.292 C68.104,82.148 68.096,82.012 68.088,81.884 C68.08,81.756 68.076,81.604 68.076,81.428 C68.076,81.02 68.086,80.594 68.106,80.15 C68.126,79.706 68.136,79.244 68.136,78.764 C68.136,78.54 68.116,78.316 68.076,78.092 C68.036,77.868 67.952,77.664 67.824,77.48 C67.696,77.296 67.51,77.146 67.266,77.03 C67.022,76.914 66.696,76.856 66.288,76.856 C65.832,76.856 65.418,76.908 65.046,77.012 C64.674,77.116 64.336,77.26 64.032,77.444 C64.048,77.692 64.086,77.944 64.146,78.2 C64.206,78.456 64.276,78.704 64.356,78.944 L64.356,78.944 L64.668,78.944 L65.232,77.504 C65.368,77.448 65.506,77.414 65.646,77.402 C65.786,77.39 65.912,77.384 66.024,77.384 C66.264,77.384 66.458,77.438 66.606,77.546 C66.754,77.654 66.866,77.806 66.942,78.002 C67.018,78.198 67.062,78.434 67.074,78.71 C67.086,78.986 67.076,79.296 67.044,79.64 C66.484,79.672 65.992,79.718 65.568,79.778 C65.144,79.838 64.788,79.936 64.5,80.072 C64.212,80.208 63.994,80.394 63.846,80.63 C63.698,80.866 63.624,81.168 63.624,81.536 C63.624,82.016 63.778,82.404 64.086,82.7 C64.394,82.996 64.792,83.144 65.28,83.144 Z M65.76,82.4 C65.456,82.4 65.216,82.306 65.04,82.118 C64.864,81.93 64.776,81.664 64.776,81.32 C64.776,81.12 64.808,80.942 64.872,80.786 C64.936,80.63 65.052,80.5 65.22,80.396 C65.388,80.292 65.62,80.216 65.916,80.168 C66.212,80.12 66.592,80.096 67.056,80.096 L67.056,80.096 L67.056,81.356 C67.032,81.436 66.988,81.534 66.924,81.65 C66.86,81.766 66.776,81.88 66.672,81.992 C66.568,82.104 66.44,82.2 66.288,82.28 C66.136,82.36 65.96,82.4 65.76,82.4 Z M71.04,75.656 C71.272,75.656 71.456,75.594 71.592,75.47 C71.728,75.346 71.796,75.176 71.796,74.96 C71.796,74.744 71.728,74.572 71.592,74.444 C71.456,74.316 71.272,74.252 71.04,74.252 C70.808,74.252 70.622,74.316 70.482,74.444 C70.342,74.572 70.272,74.744 70.272,74.96 C70.272,75.176 70.342,75.346 70.482,75.47 C70.622,75.594 70.808,75.656 71.04,75.656 Z M72.372,83 L72.372,82.7 C72.26,82.636 72.14,82.582 72.012,82.538 C71.884,82.494 71.74,82.452 71.58,82.412 L71.58,82.412 L71.58,76.856 L71.28,76.856 C71.008,76.904 70.736,76.964 70.464,77.036 C70.192,77.108 69.94,77.192 69.708,77.288 L69.708,77.288 L69.708,77.6 L70.5,77.696 L70.5,82.412 C70.348,82.452 70.208,82.494 70.08,82.538 C69.952,82.582 69.828,82.636 69.708,82.7 L69.708,82.7 L69.708,83 L72.372,83 Z M75.984,83 L75.984,82.7 C75.72,82.572 75.456,82.476 75.192,82.412 L75.192,82.412 L75.192,73.976 L74.892,73.976 C74.596,74.024 74.292,74.084 73.98,74.156 C73.668,74.228 73.408,74.312 73.2,74.408 L73.2,74.408 L73.2,74.72 L74.112,74.816 L74.112,82.412 C73.848,82.476 73.584,82.572 73.32,82.7 L73.32,82.7 L73.32,83 L75.984,83 Z M77.904,85.58 C78.112,85.54 78.306,85.478 78.486,85.394 C78.666,85.31 78.842,85.176 79.014,84.992 C79.186,84.808 79.358,84.558 79.53,84.242 C79.702,83.926 79.884,83.512 80.076,83 L80.076,83 L81.948,77.6 C82.236,77.52 82.464,77.424 82.632,77.312 L82.632,77.312 L82.632,77 L80.58,77 L80.58,77.312 C80.78,77.456 81,77.552 81.24,77.6 L81.24,77.6 L80.1,81.14 L79.92,81.896 L79.896,81.896 L79.668,81.152 L78.132,77.6 C78.42,77.512 78.648,77.412 78.816,77.3 L78.816,77.3 L78.816,77 L76.308,77 L76.308,77.312 C76.412,77.376 76.514,77.432 76.614,77.48 C76.714,77.528 76.824,77.568 76.944,77.6 L76.944,77.6 L79.44,83 C79.376,83.208 79.32,83.38 79.272,83.516 C79.224,83.652 79.18,83.764 79.14,83.852 C79.1,83.94 79.062,84.014 79.026,84.074 C78.99,84.134 78.948,84.196 78.9,84.26 L78.9,84.26 L77.652,84.26 L77.496,84.548 C77.544,84.716 77.602,84.892 77.67,85.076 C77.738,85.26 77.816,85.428 77.904,85.58 Z M88.8,83.108 C89.568,83.108 90.234,82.996 90.798,82.772 C91.362,82.548 91.828,82.24 92.196,81.848 C92.564,81.456 92.838,80.99 93.018,80.45 C93.198,79.91 93.288,79.324 93.288,78.692 C93.288,77.356 92.922,76.324 92.19,75.596 C91.458,74.868 90.412,74.504 89.052,74.504 C88.932,74.504 88.782,74.51 88.602,74.522 C88.422,74.534 88.234,74.546 88.038,74.558 C87.842,74.57 87.652,74.58 87.468,74.588 C87.284,74.596 87.124,74.6 86.988,74.6 L86.988,74.6 L85.764,74.6 L85.764,74.948 C85.9,75.004 86.052,75.058 86.22,75.11 C86.388,75.162 86.564,75.208 86.748,75.248 L86.748,75.248 L86.748,82.364 C86.372,82.428 86.044,82.524 85.764,82.652 L85.764,82.652 L85.764,83 L86.916,83 C87.068,83 87.23,83.006 87.402,83.018 C87.574,83.03 87.744,83.042 87.912,83.054 C88.08,83.066 88.24,83.078 88.392,83.09 C88.544,83.102 88.68,83.108 88.8,83.108 Z M88.956,82.484 L88.722,82.484 C88.614,82.484 88.5,82.482 88.38,82.478 C88.26,82.474 88.148,82.47 88.044,82.466 C87.94,82.462 87.868,82.456 87.828,82.448 L87.828,82.448 L87.828,75.176 C87.94,75.152 88.092,75.138 88.284,75.134 C88.476,75.13 88.676,75.128 88.884,75.128 C89.46,75.128 89.948,75.24 90.348,75.464 C90.748,75.688 91.07,75.974 91.314,76.322 C91.558,76.67 91.734,77.054 91.842,77.474 C91.95,77.894 92.004,78.3 92.004,78.692 C92.004,79.196 91.948,79.676 91.836,80.132 C91.724,80.588 91.546,80.99 91.302,81.338 C91.058,81.686 90.744,81.964 90.36,82.172 C89.976,82.38 89.508,82.484 88.956,82.484 L88.956,82.484 Z M97.284,83.144 C97.5,83.144 97.712,83.118 97.92,83.066 C98.128,83.014 98.32,82.944 98.496,82.856 C98.672,82.768 98.828,82.664 98.964,82.544 C99.1,82.424 99.2,82.296 99.264,82.16 L99.264,82.16 L99.096,81.968 C98.952,82.096 98.736,82.2 98.448,82.28 C98.16,82.36 97.876,82.4 97.596,82.4 C97.252,82.4 96.952,82.338 96.696,82.214 C96.44,82.09 96.228,81.92 96.06,81.704 C95.892,81.488 95.766,81.234 95.682,80.942 C95.598,80.65 95.556,80.336 95.556,80 L95.556,80 L99.3,80 C99.332,79.84 99.354,79.69 99.366,79.55 C99.378,79.41 99.384,79.272 99.384,79.136 C99.384,78.704 99.318,78.342 99.186,78.05 C99.054,77.758 98.882,77.524 98.67,77.348 C98.458,77.172 98.216,77.046 97.944,76.97 C97.672,76.894 97.396,76.856 97.116,76.856 C96.252,76.856 95.584,77.124 95.112,77.66 C94.64,78.196 94.404,78.976 94.404,80 C94.404,80.48 94.466,80.912 94.59,81.296 C94.714,81.68 94.896,82.01 95.136,82.286 C95.376,82.562 95.676,82.774 96.036,82.922 C96.396,83.07 96.812,83.144 97.284,83.144 Z M98.232,79.472 L95.592,79.472 C95.64,78.696 95.784,78.154 96.024,77.846 C96.264,77.538 96.612,77.384 97.068,77.384 C97.476,77.384 97.776,77.536 97.968,77.84 C98.16,78.144 98.256,78.552 98.256,79.064 C98.256,79.128 98.254,79.194 98.25,79.262 C98.246,79.33 98.24,79.4 98.232,79.472 L98.232,79.472 Z M102.804,83.144 L103.344,83 L105.468,77.6 C105.612,77.56 105.742,77.516 105.858,77.468 C105.974,77.42 106.072,77.368 106.152,77.312 L106.152,77.312 L106.152,77 L104.112,77 L104.112,77.312 C104.208,77.376 104.31,77.432 104.418,77.48 C104.526,77.528 104.644,77.568 104.772,77.6 L104.772,77.6 L103.488,81.2 L103.308,81.956 L103.284,81.956 L103.044,81.212 L101.652,77.6 C101.788,77.56 101.91,77.514 102.018,77.462 C102.126,77.41 102.232,77.356 102.336,77.3 L102.336,77.3 L102.336,77 L99.828,77 L99.828,77.312 C100.02,77.424 100.232,77.52 100.464,77.6 L100.464,77.6 L102.804,83.144 Z M109.404,83.144 C109.62,83.144 109.832,83.118 110.04,83.066 C110.248,83.014 110.44,82.944 110.616,82.856 C110.792,82.768 110.948,82.664 111.084,82.544 C111.22,82.424 111.32,82.296 111.384,82.16 L111.384,82.16 L111.216,81.968 C111.072,82.096 110.856,82.2 110.568,82.28 C110.28,82.36 109.996,82.4 109.716,82.4 C109.372,82.4 109.072,82.338 108.816,82.214 C108.56,82.09 108.348,81.92 108.18,81.704 C108.012,81.488 107.886,81.234 107.802,80.942 C107.718,80.65 107.676,80.336 107.676,80 L107.676,80 L111.42,80 C111.452,79.84 111.474,79.69 111.486,79.55 C111.498,79.41 111.504,79.272 111.504,79.136 C111.504,78.704 111.438,78.342 111.306,78.05 C111.174,77.758 111.002,77.524 110.79,77.348 C110.578,77.172 110.336,77.046 110.064,76.97 C109.792,76.894 109.516,76.856 109.236,76.856 C108.372,76.856 107.704,77.124 107.232,77.66 C106.76,78.196 106.524,78.976 106.524,80 C106.524,80.48 106.586,80.912 106.71,81.296 C106.834,81.68 107.016,82.01 107.256,82.286 C107.496,82.562 107.796,82.774 108.156,82.922 C108.516,83.07 108.932,83.144 109.404,83.144 Z M110.352,79.472 L107.712,79.472 C107.76,78.696 107.904,78.154 108.144,77.846 C108.384,77.538 108.732,77.384 109.188,77.384 C109.596,77.384 109.896,77.536 110.088,77.84 C110.28,78.144 110.376,78.552 110.376,79.064 C110.376,79.128 110.374,79.194 110.37,79.262 C110.366,79.33 110.36,79.4 110.352,79.472 L110.352,79.472 Z M115.224,83 L115.224,82.7 C114.96,82.572 114.696,82.476 114.432,82.412 L114.432,82.412 L114.432,73.976 L114.132,73.976 C113.836,74.024 113.532,74.084 113.22,74.156 C112.908,74.228 112.648,74.312 112.44,74.408 L112.44,74.408 L112.44,74.72 L113.352,74.816 L113.352,82.412 C113.088,82.476 112.824,82.572 112.56,82.7 L112.56,82.7 L112.56,83 L115.224,83 Z M118.992,83.144 C119.856,83.144 120.544,82.872 121.056,82.328 C121.568,81.784 121.824,81.008 121.824,80 C121.824,79.528 121.77,79.1 121.662,78.716 C121.554,78.332 121.386,78.002 121.158,77.726 C120.93,77.45 120.636,77.236 120.276,77.084 C119.916,76.932 119.488,76.856 118.992,76.856 C118.568,76.856 118.182,76.926 117.834,77.066 C117.486,77.206 117.188,77.41 116.94,77.678 C116.692,77.946 116.502,78.274 116.37,78.662 C116.238,79.05 116.172,79.496 116.172,80 C116.172,80.472 116.23,80.902 116.346,81.29 C116.462,81.678 116.636,82.01 116.868,82.286 C117.1,82.562 117.392,82.774 117.744,82.922 C118.096,83.07 118.512,83.144 118.992,83.144 Z M119.196,82.616 C118.86,82.616 118.572,82.548 118.332,82.412 C118.092,82.276 117.898,82.09 117.75,81.854 C117.602,81.618 117.494,81.34 117.426,81.02 C117.358,80.7 117.324,80.36 117.324,80 C117.324,79.104 117.468,78.444 117.756,78.02 C118.044,77.596 118.424,77.384 118.896,77.384 C119.208,77.384 119.476,77.452 119.7,77.588 C119.924,77.724 120.108,77.91 120.252,78.146 C120.396,78.382 120.502,78.658 120.57,78.974 C120.638,79.29 120.672,79.632 120.672,80 C120.672,80.896 120.534,81.556 120.258,81.98 C119.982,82.404 119.628,82.616 119.196,82.616 Z M125.352,85.4 L125.352,85.1 C125.208,85.012 125.072,84.946 124.944,84.902 C124.816,84.858 124.688,84.828 124.56,84.812 L124.56,84.812 L124.56,82.904 C124.76,82.992 124.944,83.054 125.112,83.09 C125.28,83.126 125.512,83.144 125.808,83.144 C126.232,83.144 126.618,83.068 126.966,82.916 C127.314,82.764 127.61,82.548 127.854,82.268 C128.098,81.988 128.286,81.644 128.418,81.236 C128.55,80.828 128.616,80.372 128.616,79.868 C128.616,78.804 128.42,78.036 128.028,77.564 C127.636,77.092 127.084,76.856 126.372,76.856 C125.908,76.856 125.532,76.978 125.244,77.222 C124.956,77.466 124.732,77.792 124.572,78.2 L124.572,78.2 L124.56,78.2 L124.56,76.856 L124.26,76.856 C124.004,76.896 123.742,76.95 123.474,77.018 C123.206,77.086 122.944,77.176 122.688,77.288 L122.688,77.288 L122.688,77.6 L123.48,77.696 L123.48,84.812 C123.224,84.876 122.96,84.972 122.688,85.1 L122.688,85.1 L122.688,85.4 L125.352,85.4 Z M125.748,82.616 C125.46,82.616 125.226,82.594 125.046,82.55 C124.866,82.506 124.704,82.44 124.56,82.352 L124.56,82.352 L124.56,78.992 C124.656,78.56 124.82,78.22 125.052,77.972 C125.284,77.724 125.596,77.6 125.988,77.6 C126.26,77.6 126.49,77.656 126.678,77.768 C126.866,77.88 127.018,78.038 127.134,78.242 C127.25,78.446 127.334,78.686 127.386,78.962 C127.438,79.238 127.464,79.54 127.464,79.868 C127.464,80.268 127.424,80.634 127.344,80.966 C127.264,81.298 127.15,81.588 127.002,81.836 C126.854,82.084 126.674,82.276 126.462,82.412 C126.25,82.548 126.012,82.616 125.748,82.616 Z M132.48,83.144 C132.696,83.144 132.908,83.118 133.116,83.066 C133.324,83.014 133.516,82.944 133.692,82.856 C133.868,82.768 134.024,82.664 134.16,82.544 C134.296,82.424 134.396,82.296 134.46,82.16 L134.46,82.16 L134.292,81.968 C134.148,82.096 133.932,82.2 133.644,82.28 C133.356,82.36 133.072,82.4 132.792,82.4 C132.448,82.4 132.148,82.338 131.892,82.214 C131.636,82.09 131.424,81.92 131.256,81.704 C131.088,81.488 130.962,81.234 130.878,80.942 C130.794,80.65 130.752,80.336 130.752,80 L130.752,80 L134.496,80 C134.528,79.84 134.55,79.69 134.562,79.55 C134.574,79.41 134.58,79.272 134.58,79.136 C134.58,78.704 134.514,78.342 134.382,78.05 C134.25,77.758 134.078,77.524 133.866,77.348 C133.654,77.172 133.412,77.046 133.14,76.97 C132.868,76.894 132.592,76.856 132.312,76.856 C131.448,76.856 130.78,77.124 130.308,77.66 C129.836,78.196 129.6,78.976 129.6,80 C129.6,80.48 129.662,80.912 129.786,81.296 C129.91,81.68 130.092,82.01 130.332,82.286 C130.572,82.562 130.872,82.774 131.232,82.922 C131.592,83.07 132.008,83.144 132.48,83.144 Z M133.428,79.472 L130.788,79.472 C130.836,78.696 130.98,78.154 131.22,77.846 C131.46,77.538 131.808,77.384 132.264,77.384 C132.672,77.384 132.972,77.536 133.164,77.84 C133.356,78.144 133.452,78.552 133.452,79.064 C133.452,79.128 133.45,79.194 133.446,79.262 C133.442,79.33 133.436,79.4 133.428,79.472 L133.428,79.472 Z M138.348,83 L138.348,82.7 C138.188,82.612 138.028,82.546 137.868,82.502 C137.708,82.458 137.548,82.428 137.388,82.412 L137.388,82.412 L137.388,78.848 C137.492,78.56 137.61,78.342 137.742,78.194 C137.874,78.046 137.984,77.948 138.072,77.9 L138.072,77.9 L139.668,77.9 L139.668,77.588 C139.628,77.452 139.586,77.322 139.542,77.198 C139.498,77.074 139.448,76.96 139.392,76.856 C139.176,76.832 138.966,76.854 138.762,76.922 C138.558,76.99 138.37,77.088 138.198,77.216 C138.026,77.344 137.874,77.488 137.742,77.648 C137.61,77.808 137.508,77.968 137.436,78.128 L137.436,78.128 L137.388,78.128 L137.388,76.856 L137.088,76.856 C136.84,76.896 136.58,76.95 136.308,77.018 C136.036,77.086 135.772,77.176 135.516,77.288 L135.516,77.288 L135.516,77.6 L136.308,77.696 L136.308,82.412 C136.18,82.444 136.052,82.48 135.924,82.52 C135.796,82.56 135.66,82.62 135.516,82.7 L135.516,82.7 L135.516,83 L138.348,83 Z M148.068,83 L148.068,82.652 C147.9,82.58 147.726,82.524 147.546,82.484 C147.366,82.444 147.172,82.404 146.964,82.364 L146.964,82.364 L146.964,75.224 L148.8,75.224 L149.424,76.94 L149.736,76.94 C149.76,76.772 149.778,76.586 149.79,76.382 C149.802,76.178 149.814,75.97 149.826,75.758 C149.838,75.546 149.848,75.34 149.856,75.14 C149.864,74.94 149.868,74.76 149.868,74.6 L149.868,74.6 L142.896,74.6 C142.896,74.76 142.9,74.942 142.908,75.146 C142.916,75.35 142.926,75.558 142.938,75.77 C142.95,75.982 142.964,76.19 142.98,76.394 C142.996,76.598 143.016,76.78 143.04,76.94 L143.04,76.94 L143.34,76.94 L143.976,75.224 L145.812,75.224 L145.812,82.364 C145.604,82.396 145.41,82.436 145.23,82.484 C145.05,82.532 144.872,82.588 144.696,82.652 L144.696,82.652 L144.696,83 L148.068,83 Z M151.92,75.656 C152.152,75.656 152.336,75.594 152.472,75.47 C152.608,75.346 152.676,75.176 152.676,74.96 C152.676,74.744 152.608,74.572 152.472,74.444 C152.336,74.316 152.152,74.252 151.92,74.252 C151.688,74.252 151.502,74.316 151.362,74.444 C151.222,74.572 151.152,74.744 151.152,74.96 C151.152,75.176 151.222,75.346 151.362,75.47 C151.502,75.594 151.688,75.656 151.92,75.656 Z M153.252,83 L153.252,82.7 C153.14,82.636 153.02,82.582 152.892,82.538 C152.764,82.494 152.62,82.452 152.46,82.412 L152.46,82.412 L152.46,76.856 L152.16,76.856 C151.888,76.904 151.616,76.964 151.344,77.036 C151.072,77.108 150.82,77.192 150.588,77.288 L150.588,77.288 L150.588,77.6 L151.38,77.696 L151.38,82.412 C151.228,82.452 151.088,82.494 150.96,82.538 C150.832,82.582 150.708,82.636 150.588,82.7 L150.588,82.7 L150.588,83 L153.252,83 Z M156.744,85.4 L156.744,85.1 C156.6,85.012 156.464,84.946 156.336,84.902 C156.208,84.858 156.08,84.828 155.952,84.812 L155.952,84.812 L155.952,82.904 C156.152,82.992 156.336,83.054 156.504,83.09 C156.672,83.126 156.904,83.144 157.2,83.144 C157.624,83.144 158.01,83.068 158.358,82.916 C158.706,82.764 159.002,82.548 159.246,82.268 C159.49,81.988 159.678,81.644 159.81,81.236 C159.942,80.828 160.008,80.372 160.008,79.868 C160.008,78.804 159.812,78.036 159.42,77.564 C159.028,77.092 158.476,76.856 157.764,76.856 C157.3,76.856 156.924,76.978 156.636,77.222 C156.348,77.466 156.124,77.792 155.964,78.2 L155.964,78.2 L155.952,78.2 L155.952,76.856 L155.652,76.856 C155.396,76.896 155.134,76.95 154.866,77.018 C154.598,77.086 154.336,77.176 154.08,77.288 L154.08,77.288 L154.08,77.6 L154.872,77.696 L154.872,84.812 C154.616,84.876 154.352,84.972 154.08,85.1 L154.08,85.1 L154.08,85.4 L156.744,85.4 Z M157.14,82.616 C156.852,82.616 156.618,82.594 156.438,82.55 C156.258,82.506 156.096,82.44 155.952,82.352 L155.952,82.352 L155.952,78.992 C156.048,78.56 156.212,78.22 156.444,77.972 C156.676,77.724 156.988,77.6 157.38,77.6 C157.652,77.6 157.882,77.656 158.07,77.768 C158.258,77.88 158.41,78.038 158.526,78.242 C158.642,78.446 158.726,78.686 158.778,78.962 C158.83,79.238 158.856,79.54 158.856,79.868 C158.856,80.268 158.816,80.634 158.736,80.966 C158.656,81.298 158.542,81.588 158.394,81.836 C158.246,82.084 158.066,82.276 157.854,82.412 C157.642,82.548 157.404,82.616 157.14,82.616 Z M162.9,83.144 C163.204,83.144 163.49,83.102 163.758,83.018 C164.026,82.934 164.262,82.816 164.466,82.664 C164.67,82.512 164.83,82.328 164.946,82.112 C165.062,81.896 165.12,81.652 165.12,81.38 C165.12,81.084 165.05,80.83 164.91,80.618 C164.77,80.406 164.592,80.22 164.376,80.06 C164.16,79.9 163.93,79.756 163.686,79.628 C163.442,79.5 163.212,79.37 162.996,79.238 C162.78,79.106 162.602,78.962 162.462,78.806 C162.322,78.65 162.252,78.464 162.252,78.248 C162.252,78.144 162.272,78.04 162.312,77.936 C162.352,77.832 162.41,77.74 162.486,77.66 C162.562,77.58 162.654,77.514 162.762,77.462 C162.87,77.41 162.996,77.384 163.14,77.384 C163.268,77.384 163.392,77.39 163.512,77.402 C163.632,77.414 163.74,77.44 163.836,77.48 L163.836,77.48 L164.292,78.704 L164.592,78.704 C164.672,78.432 164.734,78.166 164.778,77.906 C164.822,77.646 164.86,77.388 164.892,77.132 C164.636,77.044 164.37,76.976 164.094,76.928 C163.818,76.88 163.464,76.856 163.032,76.856 C162.776,76.856 162.536,76.894 162.312,76.97 C162.088,77.046 161.892,77.15 161.724,77.282 C161.556,77.414 161.422,77.572 161.322,77.756 C161.222,77.94 161.172,78.14 161.172,78.356 C161.172,78.684 161.242,78.96 161.382,79.184 C161.522,79.408 161.7,79.606 161.916,79.778 C162.132,79.95 162.362,80.1 162.606,80.228 C162.85,80.356 163.08,80.488 163.296,80.624 C163.512,80.76 163.69,80.906 163.83,81.062 C163.97,81.218 164.04,81.408 164.04,81.632 C164.04,81.904 163.932,82.136 163.716,82.328 C163.5,82.52 163.216,82.616 162.864,82.616 C162.76,82.616 162.646,82.612 162.522,82.604 C162.398,82.596 162.292,82.56 162.204,82.496 L162.204,82.496 L161.676,81.188 L161.376,81.188 C161.288,81.436 161.216,81.694 161.16,81.962 C161.104,82.23 161.068,82.508 161.052,82.796 C161.364,82.908 161.664,82.994 161.952,83.054 C162.24,83.114 162.556,83.144 162.9,83.144 Z M176.270203,81.3066406 L179.785828,79.8183594 L179.785828,78.9101562 L176.270203,77.421875 L176.006531,78.03125 L178.461609,79.0273438 L169.285828,79.0273438 L169.285828,79.7011719 L178.461609,79.7011719 L176.006531,80.6972656 L176.270203,81.3066406 Z" id="GetDailyDeveloperTips" fill="#FFFFFF" fill-rule="nonzero"></path>
            <path d="M10.5,7.74925067 L10.5,9.29875067 C9.5565,10.2625007 8.238,11.1932507 6.75,11.4377507 L6.75,7.00000033 L9,7.00000033 L9,6.25000067 L6.75,5.37175067 C7.78189912,5.00533511 8.40035155,3.94943501 8.21519861,2.87017853 C8.03004568,1.79092205 7.09502229,1.00153007 6,1.00000033 C4.90369463,0.999407545 3.96654945,1.78903702 3.78117971,2.86955721 C3.59580998,3.9500774 4.21618372,5.00690861 5.25,5.37175067 L3,6.25000067 L3,7.00000033 L5.25,7.00000033 L5.25,11.4377507 C3.762,11.1932507 2.4435,10.2625007 1.5,9.29875067 L1.5,7.74925067 L0,7.74925067 L0,8.49925067 C0,9.99925067 3,12.9992507 6,12.9992507 C9,12.9992507 12,9.99925067 12,8.49925067 L12,7.74925067 L10.5,7.74925067 Z M6.75,3.24925067 C6.75,3.66346423 6.41421356,3.99925067 6,3.99925067 C5.58578644,3.99925067 5.25,3.66346423 5.25,3.24925067 C5.25,2.83503711 5.58578644,2.49925067 6,2.49925067 C6.41421356,2.49925067 6.75,2.83503711 6.75,3.24925067 L6.75,3.24925067 Z" id="Shape" fill="#000000" fill-rule="nonzero"></path>
        </g>
    </g>
</svg>