<?xml version="1.0" encoding="UTF-8"?>
<svg width="320px" height="180px" viewBox="0 0 320 180" version="1.1" xmlns="http://www.w3.org/2000/svg" xmlns:xlink="http://www.w3.org/1999/xlink">
    <title>Artboard</title>
    <defs>
        <path d="M211.8,112 L212.82,109.432 L216.252,109.432 L217.284,112 L217.656,112 L214.704,104.632 L214.38,104.632 L211.428,112 L211.8,112 Z M216.108,109.072 L212.964,109.072 L214.536,105.148 L216.108,109.072 Z M219.312,112 L219.312,108.652 L221.532,108.652 C222.948,108.652 223.788,107.968 223.788,106.636 C223.788,105.328 222.948,104.632 221.532,104.632 L218.94,104.632 L218.94,112 L219.312,112 Z M221.52,108.292 L219.312,108.292 L219.312,104.992 L221.52,104.992 C222.756,104.992 223.416,105.58 223.416,106.636 C223.416,107.704 222.756,108.292 221.52,108.292 Z M225.588,112 L225.588,108.652 L227.808,108.652 C229.224,108.652 230.064,107.968 230.064,106.636 C230.064,105.328 229.224,104.632 227.808,104.632 L225.216,104.632 L225.216,112 L225.588,112 Z M227.796,108.292 L225.588,108.292 L225.588,104.992 L227.796,104.992 C229.032,104.992 229.692,105.58 229.692,106.636 C229.692,107.704 229.032,108.292 227.796,108.292 Z M236.04,112 L236.04,111.64 L231.864,111.64 L231.864,104.632 L231.492,104.632 L231.492,112 L236.04,112 Z M238.86,112 L238.86,108.784 L241.548,104.632 L241.14,104.632 L238.68,108.436 L236.22,104.632 L235.8,104.632 L238.488,108.784 L238.488,112 L238.86,112 Z M245.796,112 L245.796,105.22 L250.572,112 L250.776,112 L250.776,104.632 L250.416,104.632 L250.416,111.16 L245.796,104.632 L245.436,104.632 L245.436,112 L245.796,112 Z M255.456,112.096 C257.292,112.096 258.66,110.596 258.66,108.316 C258.66,106.036 257.292,104.536 255.456,104.536 C253.632,104.536 252.252,106.036 252.252,108.316 C252.252,110.596 253.632,112.096 255.456,112.096 Z M255.456,111.736 C253.8,111.736 252.636,110.344 252.636,108.316 C252.636,106.288 253.8,104.896 255.456,104.896 C257.124,104.896 258.276,106.288 258.276,108.316 C258.276,110.344 257.124,111.736 255.456,111.736 Z M261.804,112 L263.652,105.34 L265.512,112 L265.836,112 L267.888,104.632 L267.516,104.632 L265.668,111.316 L263.808,104.632 L263.496,104.632 L261.648,111.316 L259.8,104.632 L259.428,104.632 L261.48,112 L261.804,112 Z" id="path-1"></path>
    </defs>
    <g id="Artboard" stroke="none" stroke-width="1" fill="none" fill-rule="evenodd">
        <g id="invision-design-forward-fund" fill-rule="nonzero">
            <rect id="Rectangle" fill="#FFFFFF" x="0" y="0" width="320" height="180"></rect>
            <polygon id="Path" fill="#F5F5F5" points="320 0 320 90 320 180 140 0"></polygon>
            <g id="logo" transform="translate(66.000000, 50.000000)" fill="#000000">
                <path d="M0.39055,19.1416 L0.39055,1.5708 L6.34195,1.5708 C12.43505,1.5708 15.765,5.18415 15.765,10.3562 C15.765,15.52825 12.43505,19.1416 6.34195,19.1416 L0.39055,19.1416 Z M6.2711,4.2631 L3.36625,4.2631 L3.36625,16.3076 L6.2711,16.3076 C10.59295,16.3076 12.57675,13.96955 12.57675,10.3562 C12.57675,6.74285 10.59295,4.2631 6.2711,4.2631 Z M20.51195,13.54445 C20.79535,15.5991 21.9998,16.8744 24.1253,16.8744 C25.47145,16.8744 26.6759,16.1659 27.101,15.0323 L30.0767,15.0323 C29.29735,17.5829 27.03015,19.425 23.9836,19.425 C20.08685,19.425 17.53625,16.52015 17.53625,12.69425 C17.53625,8.9392 20.08685,6.03435 23.9836,6.03435 C27.73865,6.03435 30.28925,8.9392 30.28925,12.69425 L30.28925,13.54445 L20.51195,13.54445 L20.51195,13.54445 Z M20.5828,11.41895 L27.45525,11.41895 C27.17185,9.6477 25.9674,8.44325 24.05445,8.44325 C22.1415,8.44325 20.8662,9.6477 20.5828,11.41895 Z M31.7771,15.0323 L34.6111,15.0323 C34.68195,16.1659 35.603,17.08695 37.4451,17.08695 C38.93295,17.08695 39.78315,16.591 39.78315,15.5991 C39.78315,12.9068 32.41475,15.3157 32.41475,10.0728 C32.41475,7.87645 34.3277,6.03435 37.51595,6.03435 C41.20015,6.03435 42.4046,8.58495 42.61715,10.28535 L39.78315,10.28535 C39.7123,9.43515 39.0038,8.44325 37.51595,8.44325 C36.0281,8.44325 35.3196,9.0809 35.3196,9.9311 C35.3196,12.41085 42.688,10.2145 42.688,15.4574 C42.688,17.65375 40.91675,19.49585 37.3034,19.49585 C33.40665,19.425 31.84795,17.37035 31.7771,15.0323 L31.7771,15.0323 Z M44.60095,2.35015 C44.60095,1.2874 45.3803,0.50805 46.44305,0.50805 C47.5058,0.50805 48.28515,1.2874 48.28515,2.35015 C48.28515,3.4129 47.5058,4.19225 46.44305,4.19225 C45.3803,4.1214 44.60095,3.4129 44.60095,2.35015 Z M44.9552,6.31775 L47.9309,6.31775 L47.9309,19.1416 L44.9552,19.1416 L44.9552,6.31775 L44.9552,6.31775 Z M60.61305,6.31775 L63.30535,6.31775 L63.30535,18.64565 C63.30535,22.04645 61.109,24.59705 57.1414,24.59705 C53.24465,24.59705 51.54425,22.1173 51.26085,20.1335 L54.23655,20.1335 C54.51995,21.1254 55.37015,22.04645 57.21225,22.04645 C59.2669,22.04645 60.4005,20.842 60.4005,18.9999 L60.4005,16.94525 C59.692,18.07885 58.275,18.9999 56.36205,18.9999 C52.67785,18.9999 50.4815,16.0242 50.4815,12.4817 C50.4815,8.9392 52.7487,5.9635 56.36205,5.9635 C58.4167,5.9635 59.76285,6.74285 60.6839,8.089 L60.6839,6.31775 L60.61305,6.31775 L60.61305,6.31775 Z M56.858,8.58495 C54.7325,8.58495 53.24465,10.28535 53.24465,12.4817 C53.24465,14.67805 54.66165,16.37845 56.858,16.37845 C59.05435,16.37845 60.47135,14.67805 60.47135,12.4817 C60.47135,10.14365 59.05435,8.58495 56.858,8.58495 Z M69.25675,7.9473 C69.7527,6.88455 71.09885,5.89265 73.22435,5.89265 C76.4126,5.89265 77.9713,8.01815 77.9713,10.99385 L77.9713,19.07075 L75.06645,19.07075 L75.06645,11.41895 C75.06645,9.6477 74.2871,8.5141 72.51585,8.5141 C70.67375,8.5141 69.54015,9.6477 69.54015,11.70235 L69.54015,19.1416 L66.56445,19.1416 L66.56445,6.31775 L69.25675,6.31775 L69.25675,7.9473 L69.25675,7.9473 Z M0.39055,45.4978 L0.39055,27.927 L11.86825,27.927 L11.86825,30.761 L3.36625,30.761 L3.36625,35.22455 L11.44315,35.22455 L11.44315,38.05855 L3.36625,38.05855 L3.36625,45.4978 L0.39055,45.4978 L0.39055,45.4978 Z M12.7893,39.05045 C12.7893,35.4371 15.3399,32.3197 19.4492,32.3197 C23.5585,32.3197 26.1091,35.50795 26.1091,39.05045 C26.1091,42.59295 23.5585,45.71035 19.4492,45.71035 C15.3399,45.7812 12.7893,42.6638 12.7893,39.05045 Z M19.4492,43.2306 C21.64555,43.2306 23.20425,41.5302 23.20425,39.1213 C23.20425,36.64155 21.64555,35.012 19.4492,35.012 C17.3237,35.012 15.765,36.7124 15.765,39.1213 C15.69415,41.5302 17.25285,43.2306 19.4492,43.2306 Z M35.53215,35.2954 C35.53215,35.2954 35.1779,35.22455 34.82365,35.22455 C32.69815,35.22455 31.4937,36.2873 31.4937,38.8379 L31.4937,45.4978 L28.518,45.4978 L28.518,32.67395 L31.2103,32.67395 L31.2103,34.4452 C31.6354,33.66585 32.769,32.53225 34.96535,32.53225 L35.39045,32.53225 L35.39045,35.36625 L35.53215,35.36625 L35.53215,35.2954 Z M46.15965,36.7124 L43.18395,45.4978 L40.34995,45.4978 L35.8864,32.67395 L38.93295,32.67395 L41.8378,41.88445 L44.8135,32.67395 L47.5058,32.67395 L50.41065,41.88445 L53.3155,32.67395 L56.2912,32.67395 L51.8985,45.4978 L49.0645,45.4978 L46.15965,36.7124 L46.15965,36.7124 Z M69.8944,32.67395 L69.8944,45.4978 L67.2021,45.4978 L67.2021,43.6557 C66.42275,45.00185 64.9349,45.7812 62.88025,45.7812 C59.1252,45.7812 56.92885,42.73465 56.92885,39.1213 C56.92885,35.4371 59.1252,32.4614 62.88025,32.4614 C64.9349,32.4614 66.42275,33.24075 67.2021,34.5869 L67.2021,32.7448 C67.2021,32.67395 69.8944,32.67395 69.8944,32.67395 Z M63.44705,43.2306 C65.71425,43.2306 67.0604,41.3885 67.0604,39.1213 C67.0604,36.8541 65.71425,35.012 63.44705,35.012 C61.2507,35.012 59.8337,36.8541 59.8337,39.1213 C59.90455,41.3885 61.2507,43.2306 63.44705,43.2306 Z M80.16765,35.2954 C80.16765,35.2954 79.8134,35.22455 79.45915,35.22455 C77.33365,35.22455 76.1292,36.2873 76.1292,38.8379 L76.1292,45.4978 L73.1535,45.4978 L73.1535,32.67395 L75.8458,32.67395 L75.8458,34.4452 C76.2709,33.66585 77.4045,32.53225 79.60085,32.53225 L80.02595,32.53225 L80.02595,35.36625 L80.16765,35.36625 L80.16765,35.2954 Z M90.7243,26.9351 L93.7,26.9351 L93.7,45.4978 L91.0077,45.4978 L91.0077,43.6557 C90.22835,45.00185 88.7405,45.7812 86.68585,45.7812 C82.9308,45.7812 80.73445,42.73465 80.73445,39.1213 C80.73445,35.4371 82.9308,32.39055 86.68585,32.39055 C88.7405,32.39055 90.08665,33.24075 90.79515,34.4452 L90.79515,26.9351 L90.7243,26.9351 L90.7243,26.9351 Z M87.1818,34.94115 C84.98545,34.94115 83.56845,36.7124 83.56845,39.05045 C83.56845,41.31765 84.98545,43.15975 87.1818,43.15975 C89.449,43.15975 90.79515,41.31765 90.79515,39.05045 C90.866,36.7124 89.449,34.94115 87.1818,34.94115 Z M0.39055,71.854 L0.39055,54.2832 L11.86825,54.2832 L11.86825,57.1172 L3.36625,57.1172 L3.36625,61.58075 L11.44315,61.58075 L11.44315,64.41475 L3.36625,64.41475 L3.36625,71.9957 L0.39055,71.9957 L0.39055,71.854 Z M22.21235,66.6111 L22.21235,59.03015 L25.18805,59.03015 L25.18805,66.39855 C25.18805,69.65765 23.7002,72.1374 19.4492,72.1374 C15.3399,72.1374 13.71035,69.65765 13.71035,66.39855 L13.71035,59.03015 L16.68605,59.03015 L16.68605,66.6111 C16.68605,68.66575 17.67795,69.5868 19.37835,69.5868 C21.22045,69.5868 22.21235,68.52405 22.21235,66.6111 L22.21235,66.6111 Z M31.0686,60.6597 C31.56455,59.59695 32.9107,58.60505 35.0362,58.60505 C38.22445,58.60505 39.78315,60.73055 39.78315,63.70625 L39.78315,71.854 L36.80745,71.854 L36.80745,64.13135 C36.80745,62.3601 36.0281,61.2265 34.25685,61.2265 C32.41475,61.2265 31.28115,62.3601 31.28115,64.41475 L31.28115,71.854 L28.30545,71.854 L28.30545,59.03015 L30.99775,59.03015 L30.99775,60.73055 L31.0686,60.73055 L31.0686,60.6597 Z M52.25275,53.2913 L55.22845,53.2913 L55.22845,71.854 L52.53615,71.854 L52.53615,70.0119 C51.7568,71.35805 50.26895,72.1374 48.2143,72.1374 C44.45925,72.1374 42.2629,69.09085 42.2629,65.4775 C42.2629,61.7933 44.45925,58.74675 48.2143,58.74675 C50.26895,58.74675 51.6151,59.59695 52.3236,60.8014 L52.3236,53.2913 L52.25275,53.2913 L52.25275,53.2913 Z M48.71025,61.29735 C46.5139,61.29735 45.0969,63.0686 45.0969,65.40665 C45.0969,67.67385 46.5139,69.51595 48.71025,69.51595 C50.97745,69.51595 52.3236,67.67385 52.3236,65.40665 C52.3236,63.0686 50.9066,61.29735 48.71025,61.29735 Z M1.38245,93.17985 L1.38245,93.8175 L0.24885,93.8175 L0.24885,85.0321 L1.38245,85.0321 L1.38245,88.0078 C1.80755,87.5827 2.4452,87.22845 3.1537,87.22845 C4.8541,87.22845 6.05855,88.64545 6.05855,90.5584 C6.05855,92.61305 4.8541,93.88835 3.22455,93.88835 C2.4452,93.9592 1.7367,93.60495 1.38245,93.17985 L1.38245,93.17985 Z M4.8541,90.5584 C4.8541,89.1414 4.1456,88.2912 3.08285,88.2912 C2.09095,88.2912 1.3116,88.9997 1.3116,89.9916 L1.3116,91.1252 C1.3116,92.1171 2.0201,92.89645 3.012,92.89645 C4.21645,92.8256 4.8541,91.9754 4.8541,90.5584 Z M8.8217,93.2507 L6.34195,87.37015 L7.5464,87.37015 L9.3885,91.90455 L11.2306,87.37015 L12.43505,87.37015 L8.68,96.43895 L7.47555,96.43895 L8.8217,93.2507 Z M17.0403,85.38635 L18.24475,85.38635 L18.24475,93.8175 L17.0403,93.8175 L17.0403,85.38635 Z M20.08685,87.37015 L21.22045,87.37015 L21.22045,87.8661 C21.5747,87.441 22.2832,87.1576 22.9917,87.1576 C24.47955,87.1576 25.32975,88.1495 25.32975,89.63735 L25.32975,93.74665 L24.19615,93.74665 L24.19615,89.77905 C24.19615,88.78715 23.7002,88.2912 22.7083,88.2912 C21.8581,88.2912 21.22045,88.92885 21.22045,89.77905 L21.22045,93.74665 L20.08685,93.74665 L20.08685,87.37015 L20.08685,87.37015 Z M26.2508,85.38635 L27.59695,85.38635 L29.935,92.1171 L32.27305,85.38635 L33.6192,85.38635 L30.6435,93.8175 L29.29735,93.8175 L26.2508,85.38635 Z M34.39855,85.10295 L35.7447,85.10295 L35.7447,86.3074 L34.39855,86.3074 L34.39855,85.10295 Z M34.39855,87.37015 L35.53215,87.37015 L35.53215,93.8175 L34.39855,93.8175 L34.39855,87.37015 Z M36.8783,91.62115 L38.0119,91.33775 C38.1536,92.4005 38.7204,92.8256 39.78315,92.8256 C40.5625,92.8256 40.9876,92.5422 40.9876,92.04625 C40.9876,91.4086 40.5625,91.2669 39.2872,90.91265 C37.8702,90.48755 37.09085,90.06245 37.09085,89.07055 C37.09085,88.0078 38.08275,87.22845 39.35805,87.22845 C40.7042,87.22845 41.62525,87.93695 41.90865,89.07055 L40.77505,89.4248 C40.63335,88.64545 40.06655,88.2912 39.35805,88.2912 C38.64955,88.2912 38.22445,88.64545 38.22445,89.07055 C38.22445,89.49565 38.64955,89.7082 39.64145,89.92075 C41.20015,90.34585 41.9795,90.91265 41.9795,92.04625 C41.9795,93.17985 40.9876,93.88835 39.49975,93.88835 C38.0119,93.9592 37.02,93.109 36.8783,91.62115 Z M43.2548,85.10295 L44.60095,85.10295 L44.60095,86.3074 L43.2548,86.3074 L43.2548,85.10295 Z M43.3965,87.37015 L44.5301,87.37015 L44.5301,93.8175 L43.3965,93.8175 L43.3965,87.37015 Z M45.8054,90.5584 C45.8054,88.50375 47.00985,87.22845 48.85195,87.22845 C50.69405,87.22845 51.8985,88.5746 51.8985,90.5584 C51.8985,92.5422 50.69405,93.88835 48.85195,93.88835 C47.0807,93.9592 45.8054,92.61305 45.8054,90.5584 Z M50.7649,90.5584 C50.7649,89.1414 50.0564,88.2912 48.9228,88.2912 C47.7892,88.2912 47.0807,89.1414 47.0807,90.5584 C47.0807,91.9754 47.7892,92.8256 48.9228,92.8256 C50.0564,92.8256 50.7649,91.9754 50.7649,90.5584 Z M53.3155,87.37015 L54.4491,87.37015 L54.4491,87.8661 C54.80335,87.441 55.51185,87.1576 56.22035,87.1576 C57.7082,87.1576 58.5584,88.1495 58.5584,89.63735 L58.5584,93.74665 L57.4248,93.74665 L57.4248,89.77905 C57.4248,88.78715 56.92885,88.2912 55.93695,88.2912 C55.08675,88.2912 54.4491,88.92885 54.4491,89.77905 L54.4491,93.74665 L53.3155,93.74665 L53.3155,87.37015 Z" id="Shape"></path>
            </g>
            <polygon id="Path" fill="#FF0063" points="18 34 35.5708 34 35.5708 51.5708"></polygon>
            <polygon id="Path" fill="#FF0063" points="35.5708 34 53.1416 34 53.1416 51.5708"></polygon>
            <polygon id="Path" fill="#FF0063" points="18 51.5708 35.5708 51.5708 35.5708 69.1416"></polygon>
            <polygon id="Path" fill="#FF0063" points="18 69.1416 35.5708 69.1416 35.5708 86.7124"></polygon>
            <polygon id="Path" fill="#FF0063" points="35.5708 51.5708 53.1416 51.5708 53.1416 69.1416"></polygon>
            <rect id="Rectangle" fill="#000000" x="190" y="95" width="100" height="27" rx="13.5"></rect>
            <g id="APPLYNOW">
                <use fill="#000000" xlink:href="#path-1"></use>
                <use fill="#FFFFFF" xlink:href="#path-1"></use>
            </g>
        </g>
    </g>
</svg>