<svg width="320" height="180" xmlns="http://www.w3.org/2000/svg"><g fill="none" fill-rule="evenodd"><path fill="#FFF" d="M0 0h320v180H0z"/><path fill="#F5F5F5" d="M320 0v180L140 0z"/><path d="M66.39 69.142V51.57h5.952c6.093 0 9.423 3.613 9.423 8.785 0 5.172-3.33 8.786-9.423 8.786h-5.951zm5.881-14.879h-2.905v12.045h2.905c4.322 0 6.306-2.338 6.306-5.952 0-3.613-1.984-6.093-6.306-6.093zm14.241 9.281c.283 2.055 1.488 3.33 3.613 3.33 1.346 0 2.55-.708 2.976-1.842h2.976c-.78 2.55-3.047 4.393-6.093 4.393-3.897 0-6.448-2.905-6.448-6.73 0-3.756 2.55-6.66 6.448-6.66 3.755 0 6.305 2.904 6.305 6.66v.85h-9.777zm.07-2.125h6.873c-.283-1.771-1.488-2.976-3.4-2.976-1.914 0-3.189 1.205-3.472 2.976zm11.195 3.613h2.834c.07 1.134.992 2.055 2.834 2.055 1.488 0 2.338-.496 2.338-1.488 0-2.692-7.368-.283-7.368-5.526 0-2.197 1.913-4.039 5.1-4.039 3.685 0 4.89 2.55 5.102 4.251h-2.834c-.07-.85-.78-1.842-2.267-1.842-1.488 0-2.196.638-2.196 1.488 0 2.48 7.368.283 7.368 5.526 0 2.197-1.771 4.039-5.385 4.039-3.896-.071-5.455-2.126-5.526-4.464zm12.824-12.682c0-1.063.78-1.842 1.842-1.842 1.063 0 1.842.78 1.842 1.842 0 1.063-.78 1.842-1.842 1.842-1.063-.07-1.842-.78-1.842-1.842zm.354 3.968h2.976v12.824h-2.976V56.318zm15.658 0h2.692v12.328c0 3.4-2.196 5.951-6.164 5.951-3.896 0-5.597-2.48-5.88-4.463h2.976c.283.991 1.133 1.912 2.975 1.912 2.055 0 3.188-1.204 3.188-3.046v-2.055c-.708 1.134-2.125 2.055-4.038 2.055-3.684 0-5.88-2.976-5.88-6.518 0-3.543 2.267-6.519 5.88-6.519 2.055 0 3.4.78 4.322 2.126v-1.771h-.071zm-3.755 2.267c-2.126 0-3.613 1.7-3.613 3.897 0 2.196 1.417 3.896 3.613 3.896 2.196 0 3.613-1.7 3.613-3.896 0-2.338-1.417-3.897-3.613-3.897zm12.399-.638c.496-1.062 1.842-2.054 3.967-2.054 3.189 0 4.747 2.125 4.747 5.1v8.078h-2.905v-7.652c0-1.771-.779-2.905-2.55-2.905-1.842 0-2.976 1.134-2.976 3.188v7.44h-2.976V56.318h2.693v1.63zM66.39 95.497v-17.57h11.477v2.834h-8.502v4.464h8.077v2.834h-8.077v7.439h-2.975zm12.398-6.447c0-3.613 2.55-6.73 6.66-6.73s6.66 3.188 6.66 6.73c0 3.543-2.55 6.66-6.66 6.66-4.11.071-6.66-3.046-6.66-6.66zm6.66 4.18c2.197 0 3.755-1.7 3.755-4.109 0-2.48-1.558-4.109-3.755-4.109-2.125 0-3.684 1.7-3.684 4.11-.07 2.408 1.488 4.109 3.684 4.109zm16.083-7.935s-.354-.07-.708-.07c-2.126 0-3.33 1.062-3.33 3.613v6.66h-2.976V82.674h2.692v1.771c.425-.78 1.559-1.913 3.755-1.913h.425v2.834h.142v-.07zm10.628 1.417l-2.976 8.786h-2.834l-4.464-12.824h3.047l2.905 9.21 2.975-9.21h2.693l2.905 9.21 2.904-9.21h2.976l-4.393 12.824h-2.834l-2.904-8.786zm23.734-4.038v12.824h-2.692v-1.842c-.78 1.346-2.267 2.125-4.322 2.125-3.755 0-5.951-3.046-5.951-6.66 0-3.684 2.196-6.66 5.951-6.66 2.055 0 3.543.78 4.322 2.126v-1.842c0-.071 2.692-.071 2.692-.071zm-6.447 10.557c2.267 0 3.613-1.843 3.613-4.11 0-2.267-1.346-4.109-3.613-4.109-2.196 0-3.613 1.842-3.613 4.11.07 2.266 1.417 4.109 3.613 4.109zm16.72-7.936s-.354-.07-.708-.07c-2.125 0-3.33 1.062-3.33 3.613v6.66h-2.976V82.674h2.693v1.771c.425-.78 1.558-1.913 3.755-1.913h.425v2.834h.142v-.07zm10.557-8.36h2.976v18.563h-2.692v-1.842c-.78 1.346-2.268 2.125-4.322 2.125-3.755 0-5.952-3.046-5.952-6.66 0-3.684 2.197-6.73 5.952-6.73 2.055 0 3.4.85 4.11 2.054v-7.51h-.072zm-3.542 8.006c-2.197 0-3.614 1.771-3.614 4.11 0 2.267 1.417 4.109 3.614 4.109 2.267 0 3.613-1.842 3.613-4.11.071-2.338-1.346-4.109-3.613-4.109zM66.39 121.854v-17.57h11.477v2.833h-8.502v4.464h8.077v2.834h-8.077v7.58h-2.975v-.141zm21.821-5.243v-7.58h2.976v7.368c0 3.259-1.488 5.738-5.739 5.738-4.11 0-5.739-2.48-5.739-5.738v-7.369h2.976v7.581c0 2.055.992 2.976 2.692 2.976 1.842 0 2.834-1.063 2.834-2.976zm8.857-5.951c.496-1.063 1.842-2.055 3.967-2.055 3.188 0 4.747 2.126 4.747 5.101v8.148h-2.976v-7.723c0-1.77-.779-2.905-2.55-2.905-1.842 0-2.976 1.134-2.976 3.189v7.439h-2.976V109.03h2.693v1.7h.07v-.07zm21.184-7.369h2.975v18.563h-2.692v-1.842c-.78 1.346-2.267 2.125-4.322 2.125-3.755 0-5.951-3.046-5.951-6.66 0-3.684 2.196-6.73 5.951-6.73 2.055 0 3.401.85 4.11 2.054v-7.51h-.071zm-3.543 8.006c-2.196 0-3.613 1.772-3.613 4.11 0 2.267 1.417 4.109 3.613 4.109 2.267 0 3.614-1.842 3.614-4.11 0-2.337-1.417-4.109-3.614-4.109zM67.382 143.18v.637H66.25v-8.785h1.133v2.976c.426-.425 1.063-.78 1.772-.78 1.7 0 2.905 1.417 2.905 3.33 0 2.055-1.205 3.33-2.834 3.33-.78.071-1.488-.283-1.843-.708zm3.472-2.622c0-1.417-.708-2.267-1.771-2.267-.992 0-1.771.709-1.771 1.7v1.134c0 .992.708 1.771 1.7 1.771 1.204-.07 1.842-.92 1.842-2.338zm3.968 2.693l-2.48-5.88h1.204l1.842 4.534 1.843-4.535h1.204l-3.755 9.069h-1.204l1.346-3.188zm8.218-7.865h1.205v8.431H83.04v-8.43zm3.047 1.984h1.133v.496c.355-.425 1.063-.708 1.772-.708 1.488 0 2.338.992 2.338 2.48v4.109h-1.134v-3.968c0-.992-.496-1.488-1.488-1.488-.85 0-1.488.638-1.488 1.488v3.968h-1.133v-6.377zm6.164-1.984h1.346l2.338 6.731 2.338-6.73h1.346l-2.976 8.43h-1.346l-3.046-8.43zm8.148-.283h1.346v1.204h-1.346v-1.204zm0 2.267h1.133v6.448H100.4v-6.448zm2.48 4.251l1.133-.283c.142 1.063.708 1.488 1.771 1.488.78 0 1.205-.284 1.205-.78 0-.637-.426-.78-1.7-1.133-1.418-.425-2.197-.85-2.197-1.842 0-1.063.992-1.843 2.267-1.843 1.346 0 2.267.709 2.55 1.843l-1.133.354c-.142-.78-.708-1.134-1.417-1.134-.708 0-1.134.354-1.134.78 0 .425.426.637 1.417.85 1.56.425 2.338.992 2.338 2.125 0 1.134-.991 1.842-2.48 1.842-1.487.071-2.479-.779-2.62-2.267zm6.376-6.518h1.346v1.204h-1.346v-1.204zm.141 2.267h1.134v6.448h-1.134v-6.448zm2.41 3.188c0-2.054 1.204-3.33 3.046-3.33 1.842 0 3.046 1.347 3.046 3.33 0 1.984-1.204 3.33-3.046 3.33-1.771.071-3.047-1.275-3.047-3.33zm4.959 0c0-1.417-.709-2.267-1.842-2.267-1.134 0-1.842.85-1.842 2.267 0 1.417.708 2.268 1.842 2.268 1.133 0 1.842-.85 1.842-2.268zm2.55-3.188h1.134v.496c.354-.425 1.063-.708 1.771-.708 1.488 0 2.338.992 2.338 2.48v4.109h-1.133v-3.968c0-.992-.496-1.488-1.488-1.488-.85 0-1.488.638-1.488 1.488v3.968h-1.134v-6.377z" fill="#000" fill-rule="nonzero"/><path fill="#FF0063" fill-rule="nonzero" d="M18 34h17.57v17.57zM35.57 34h17.572v17.57zM18 51.57h17.57v17.572zM18 69.142h17.57v17.57zM35.57 51.57h17.572v17.572z"/><rect fill="#000" x="190" y="95" width="100" height="27" rx="13.5"/><path d="M211.722 112l.756-2.04h2.82l.756 2.04h1.272l-2.832-7.368h-1.2L210.462 112h1.26zm3.168-3.12h-2.016l1.008-2.724 1.008 2.724zm4.74 3.12v-2.748h1.596c1.524 0 2.52-.804 2.52-2.304 0-1.524-.996-2.316-2.52-2.316h-2.844V112h1.248zm1.572-3.828h-1.572v-2.46h1.572c.864 0 1.308.504 1.308 1.236 0 .708-.444 1.224-1.308 1.224zM226.17 112v-2.748h1.596c1.524 0 2.52-.804 2.52-2.304 0-1.524-.996-2.316-2.52-2.316h-2.844V112h1.248zm1.572-3.828h-1.572v-2.46h1.572c.864 0 1.308.504 1.308 1.236 0 .708-.444 1.224-1.308 1.224zM236.25 112v-1.116h-3.54v-6.252h-1.248V112h4.788zm3.576 0v-2.94l2.676-4.428h-1.32l-1.944 3.3-1.956-3.3h-1.356l2.664 4.428V112h1.236zm7.524 0v-5.364l3.768 5.364h.96v-7.368h-1.2v5.112l-3.552-5.112h-1.176V112h1.2zm9.36.12c1.992 0 3.408-1.608 3.408-3.804 0-2.208-1.416-3.804-3.408-3.804s-3.396 1.596-3.396 3.804c0 2.196 1.404 3.804 3.396 3.804zm0-1.116c-1.296 0-2.136-1.128-2.136-2.688 0-1.56.84-2.688 2.136-2.688 1.296 0 2.148 1.128 2.148 2.688 0 1.56-.852 2.688-2.148 2.688zm7.008.996l1.416-5.268 1.392 5.268h1.152l1.896-7.368h-1.2l-1.332 5.424-1.392-5.424h-1.008l-1.404 5.424-1.332-5.424h-1.224l1.896 7.368h1.14z" fill="#FFF" fill-rule="nonzero"/></g></svg>