<svg width="320" height="180" xmlns="http://www.w3.org/2000/svg"><g fill="none" fill-rule="evenodd"><path fill="#00270D" d="M0 0h320v180H0z"/><g fill-rule="nonzero"><path d="M126.228 50.088c1.054 0 1.892-.277 2.513-.83.621-.554.932-1.341.932-2.36 0-.3-.03-.576-.088-.831a3.632 3.632 0 00-.207-.65 1.732 1.732 0 00-.356-.51 4.074 4.074 0 00-.421-.383 3.105 3.105 0 00-.523-.303 7.188 7.188 0 00-.536-.237c-.132-.05-.327-.119-.585-.207l-.17-.061-.12-.044-1.002-.36c-.644-.235-1.075-.482-1.292-.743-.217-.26-.325-.632-.325-1.112 0-1.307.823-1.96 2.47-1.96.884 0 1.778.17 2.68.51l.202-.897c-.879-.363-1.89-.545-3.032-.545-.492 0-.939.053-1.34.159-.402.105-.763.27-1.086.492a2.215 2.215 0 00-.751.91c-.179.383-.268.836-.268 1.357 0 .762.2 1.363.602 1.802.401.44.995.791 1.78 1.055l1.08.36c.329.112.587.205.774.281.188.077.384.175.589.295.205.12.357.247.457.382.1.135.182.305.246.51.065.205.097.442.097.712 0 .762-.214 1.331-.642 1.71-.427.377-1.016.566-1.766.566-.434 0-.857-.04-1.27-.123a6.299 6.299 0 01-.923-.237 20.672 20.672 0 01-.778-.317l-.246.923c.85.457 1.951.686 3.305.686zm8.166-.088v-4.71h.94c.645 0 1.197-.027 1.657-.08a6.12 6.12 0 001.292-.286c.402-.137.724-.326.967-.567.243-.24.432-.552.567-.936.135-.383.202-.842.202-1.375 0-.633-.083-1.169-.25-1.608-.167-.44-.416-.784-.747-1.033a3.106 3.106 0 00-1.143-.532c-.43-.105-.945-.158-1.542-.158h-3.068V50h1.125zm.962-5.625h-.962v-4.781h2.013c.873 0 1.506.176 1.898.527.393.352.59 1 .59 1.942 0 .446-.056.813-.168 1.104-.111.29-.246.517-.404.68-.158.165-.42.285-.787.361a6.94 6.94 0 01-1.015.14c-.31.018-.773.027-1.389.027h.224zm11.82 5.713c.626 0 1.168-.087 1.625-.26a3.021 3.021 0 001.13-.72c.295-.308.531-.706.707-1.195.176-.49.299-1.021.37-1.596.07-.574.105-1.245.105-2.012 0-.762-.039-1.431-.115-2.009a7.185 7.185 0 00-.386-1.59c-.182-.484-.422-.878-.721-1.183a3.007 3.007 0 00-1.13-.707c-.454-.167-.982-.25-1.586-.25-.603 0-1.134.084-1.59.254a2.968 2.968 0 00-1.126.703c-.299.305-.539.7-.72 1.183a7.185 7.185 0 00-.387 1.59 15.533 15.533 0 00-.114 2.009c0 .767.035 1.438.105 2.012.07.575.193 1.106.37 1.596.175.489.41.887.707 1.195.296.308.672.548 1.13.72.456.173.998.26 1.625.26zm0-.932c-1.067 0-1.803-.369-2.207-1.107-.404-.744-.606-1.984-.606-3.718 0-1.74.203-2.98.61-3.722.408-.741 1.142-1.112 2.202-1.112s1.795.37 2.202 1.112c.407.741.61 1.982.61 3.722 0 1.734-.202 2.972-.606 3.713-.404.742-1.14 1.112-2.206 1.112zm8.974.844v-9.501L161.837 50h1.107V38.715h-1.02v9.36l-5.65-9.36h-1.196V50h1.072zm13.968.088c1.054 0 1.892-.277 2.513-.83.621-.554.932-1.341.932-2.36 0-.3-.03-.576-.088-.831a3.632 3.632 0 00-.206-.65 1.732 1.732 0 00-.356-.51 4.074 4.074 0 00-.422-.383 3.105 3.105 0 00-.523-.303 7.188 7.188 0 00-.536-.237c-.132-.05-.327-.119-.585-.207l-.29-.105-1.002-.36c-.644-.235-1.075-.482-1.292-.743-.217-.26-.325-.632-.325-1.112 0-1.307.823-1.96 2.47-1.96.885 0 1.778.17 2.68.51l.203-.897c-.88-.363-1.89-.545-3.033-.545-.492 0-.939.053-1.34.159-.401.105-.763.27-1.085.492a2.215 2.215 0 00-.752.91c-.179.383-.268.836-.268 1.357 0 .762.2 1.363.602 1.802.401.44.995.791 1.78 1.055l1.08.36c.329.112.587.205.774.281.188.077.384.175.59.295.204.12.357.247.456.382.1.135.182.305.246.51.065.205.097.442.097.712 0 .762-.214 1.331-.642 1.71-.427.377-1.016.566-1.766.566-.434 0-.857-.04-1.27-.123a6.299 6.299 0 01-.923-.237 20.673 20.673 0 01-.778-.317l-.246.923c.85.457 1.951.686 3.305.686zm10.689 0c.627 0 1.169-.087 1.626-.26a3.021 3.021 0 001.13-.72c.295-.308.53-.706.707-1.195.175-.49.299-1.021.369-1.596.07-.574.105-1.245.105-2.012 0-.762-.038-1.431-.114-2.009a7.185 7.185 0 00-.387-1.59c-.181-.484-.422-.878-.72-1.183a3.007 3.007 0 00-1.13-.707c-.454-.167-.983-.25-1.586-.25-.604 0-1.134.084-1.591.254a2.968 2.968 0 00-1.125.703c-.299.305-.54.7-.72 1.183a7.185 7.185 0 00-.387 1.59 15.533 15.533 0 00-.115 2.009c0 .767.035 1.438.106 2.012.07.575.193 1.106.369 1.596.176.489.412.887.707 1.195.296.308.673.548 1.13.72.457.173.999.26 1.626.26zm0-.932c-1.067 0-1.802-.369-2.206-1.107-.405-.744-.607-1.984-.607-3.718 0-1.74.204-2.98.611-3.722.407-.741 1.141-1.112 2.202-1.112 1.06 0 1.794.37 2.201 1.112.408.741.611 1.982.611 3.722 0 1.734-.202 2.972-.606 3.713-.404.742-1.14 1.112-2.206 1.112zm14.24 1.064l.923-.58-.493-.8a54.335 54.335 0 01-1.164-2.008 25.477 25.477 0 01-1.033-2.026c.744-.17 1.294-.482 1.648-.936.355-.454.532-1.112.532-1.974 0-.457-.041-.856-.123-1.2a2.245 2.245 0 00-.391-.86 2.433 2.433 0 00-.62-.572 2.755 2.755 0 00-.896-.343 8.194 8.194 0 00-1.117-.162c-.38-.03-.84-.044-1.38-.044h-2.223V50h1.125v-4.983h.967c.533 0 1.01-.018 1.432-.053.662 1.5 1.6 3.252 2.813 5.256zm-4.448-6.038h-.764v-4.588h1.046c.369 0 .674.004.914.013s.495.03.764.066c.27.035.485.086.646.154.162.067.323.156.484.268.16.111.284.249.369.413.085.164.152.363.202.597.05.235.075.504.075.81 0 .333-.025.617-.075.852a1.502 1.502 0 01-.716 1.015 2.385 2.385 0 01-.712.246 6.778 6.778 0 01-.958.123c-.34.02-.765.03-1.275.03z" fill="#FFF"/><path d="M52.828 85v-1.26h-.688c-.332 0-.65-.024-.953-.073a1.893 1.893 0 01-.783-.3 1.575 1.575 0 01-.528-.652c-.131-.283-.197-.66-.197-1.128V65.078h2.915c.449 0 .825.066 1.128.198.302.132.547.31.732.535.186.224.327.485.425.783.098.298.166.613.205.945l.146 1.29h1.553l-.146-5.245h-16.89l-.146 5.244h1.552l.161-1.289c.04-.332.105-.647.198-.945.093-.298.235-.559.425-.783.19-.225.435-.403.732-.535.298-.132.667-.198 1.106-.198h2.871v16.655c0 .44-.065.794-.197 1.062-.132.269-.31.472-.535.608a2.072 2.072 0 01-.784.271 6.474 6.474 0 01-.944.066h-.689V85h9.331zm13.17 0v-1.26h-.089c-.332 0-.647-.022-.945-.066a2.072 2.072 0 01-.783-.27 1.422 1.422 0 01-.535-.609c-.132-.268-.198-.622-.198-1.062v-6.328c0-.732.073-1.399.22-2 .146-.6.369-1.113.666-1.537a3.028 3.028 0 011.128-.982c.455-.23.994-.344 1.62-.344.605 0 1.117.09 1.537.271.42.18.76.447 1.018.798.259.352.447.782.564 1.29.117.507.176 1.088.176 1.743V85h5.215v-1.26h-.088a5.44 5.44 0 01-.923-.073 1.7 1.7 0 01-.732-.3 1.497 1.497 0 01-.484-.652c-.117-.283-.176-.66-.176-1.128v-7.09c0-1.025-.117-1.91-.351-2.651-.234-.742-.576-1.35-1.025-1.824a4.114 4.114 0 00-1.663-1.055c-.66-.23-1.414-.344-2.263-.344-2.041 0-3.511.908-4.41 2.725h-.146l.059-.865c.02-.254.034-.53.044-.827.01-.298.014-.584.014-.857v-6.592h-5.522v1.26h.234c.332 0 .647.022.945.066.298.044.56.139.784.285.224.147.403.354.534.623.132.268.198.622.198 1.062v16.084c0 .469-.066.845-.198 1.128-.131.283-.307.5-.527.652-.22.151-.479.251-.776.3a5.936 5.936 0 01-.96.073h-.234V85h8.071zm19.042.293c.889 0 1.663-.098 2.322-.293.659-.195 1.208-.44 1.648-.732.44-.293.766-.613.981-.96.215-.347.322-.671.322-.974 0-.254-.06-.474-.183-.66-.122-.185-.251-.307-.388-.365a3.86 3.86 0 01-.681.783 4.988 4.988 0 01-.96.667 5.46 5.46 0 01-1.208.469 5.644 5.644 0 01-1.443.175c-.713 0-1.343-.12-1.89-.359a3.402 3.402 0 01-1.384-1.12c-.376-.508-.664-1.155-.864-1.941-.2-.786-.31-1.726-.33-2.82h9.99v-1.377c0-1.182-.143-2.22-.431-3.113-.289-.893-.701-1.64-1.238-2.24a5.084 5.084 0 00-1.963-1.356c-.772-.303-1.64-.454-2.608-.454-2.128 0-3.77.708-4.921 2.124-1.153 1.416-1.729 3.525-1.729 6.328 0 1.299.159 2.459.476 3.48.317 1.02.774 1.882 1.37 2.585a5.786 5.786 0 002.19 1.604c.864.366 1.838.549 2.922.549zm2.9-9.741h-6.899c.107-1.739.461-3.06 1.062-3.963.6-.903 1.458-1.355 2.57-1.355.606 0 1.117.127 1.532.381a2.8 2.8 0 011.003 1.084c.254.469.44 1.03.557 1.685.117.654.175 1.377.175 2.168zM107.6 85v-1.26h-.689c-.674 0-1.174-.117-1.501-.351-.327-.235-.491-.606-.491-1.114 0-.166.024-.363.073-.593.049-.23.117-.461.205-.696l1.143-3.15h7.88l1.202 3.355c.078.225.14.425.183.601.044.176.066.347.066.513 0 .957-.6 1.435-1.802 1.435h-.688V85h8.247v-1.26h-.396c-.293 0-.547-.024-.761-.073a1.521 1.521 0 01-.572-.256 1.637 1.637 0 01-.432-.491 4.9 4.9 0 01-.359-.776l-6.782-18.56h-2.344l-6.65 17.812c-.186.479-.354.87-.506 1.172-.15.303-.31.542-.476.718a1.286 1.286 0 01-.556.359 2.55 2.55 0 01-.747.095h-.572V85h7.325zm6.079-8.672h-6.768l2.036-5.522c.176-.47.332-.896.469-1.282.137-.386.259-.754.366-1.106.108-.352.208-.696.3-1.033.093-.337.174-.686.242-1.047a24.4 24.4 0 00.637 2.248c.26.777.545 1.61.857 2.498l1.86 5.244zM135.738 85v-1.26h-1.465c-.341 0-.661-.024-.959-.073a1.946 1.946 0 01-.784-.3 1.503 1.503 0 01-.527-.652c-.127-.283-.19-.66-.19-1.128v-18.12h-1.92l-2.109 1.553c-.498.36-.95.67-1.355.93-.405.258-.781.478-1.128.659-.346.18-.674.327-.981.44a9.84 9.84 0 01-.916.285c0 .479.142.867.425 1.165.283.297.645.446 1.084.446.293 0 .588-.075.886-.227a4.52 4.52 0 00.916-.637c.312-.273.64-.6.981-.981.342-.381.703-.806 1.084-1.275v15.762c0 .469-.066.845-.197 1.128-.132.283-.308.5-.528.652-.22.151-.478.251-.776.3a5.936 5.936 0 01-.96.073h-2.007V85h11.426zm16.773 0v-1.26h-1.465c-.342 0-.662-.024-.96-.073a1.946 1.946 0 01-.783-.3 1.503 1.503 0 01-.528-.652c-.127-.283-.19-.66-.19-1.128v-18.12h-1.919l-2.11 1.553c-.497.36-.95.67-1.354.93-.406.258-.782.478-1.128.659-.347.18-.674.327-.982.44a9.84 9.84 0 01-.915.285c0 .479.141.867.425 1.165.283.297.644.446 1.084.446.293 0 .588-.075.886-.227a4.52 4.52 0 00.915-.637c.313-.273.64-.6.982-.981.342-.381.703-.806 1.084-1.275v15.762c0 .469-.066.845-.198 1.128-.132.283-.308.5-.527.652-.22.151-.479.251-.777.3a5.936 5.936 0 01-.96.073h-2.006V85h11.426zm16.567 0v-1.26h-.703c-.332 0-.647-.024-.945-.073a1.946 1.946 0 01-.784-.3 1.503 1.503 0 01-.527-.652c-.127-.283-.19-.66-.19-1.128v-5.523l5.039-8.891c.254-.45.486-.823.696-1.12.21-.299.412-.538.607-.719.196-.18.389-.307.58-.38.19-.074.392-.11.607-.11h.352v-1.26h-7.325v1.26h.88c.575 0 1.02.11 1.332.33.313.22.469.549.469.988 0 .244-.041.52-.124.828a4.176 4.176 0 01-.418.974l-1.919 3.442a164.054 164.054 0 00-1.033 1.868c-.16.298-.307.579-.44.842-.13.264-.24.503-.329.718a38.072 38.072 0 00-.615-1.604c-.244-.6-.542-1.209-.893-1.824l-2.212-4.013a9.061 9.061 0 01-.36-.747 2.131 2.131 0 01-.182-.85c0-.127.017-.25.05-.366.035-.117.101-.22.199-.308.097-.088.232-.156.402-.205a2.49 2.49 0 01.667-.073h1.113v-1.26h-8.247v1.26h.381c.254 0 .479.029.674.088a1.6 1.6 0 01.535.278c.16.127.314.29.461.49.146.2.303.443.469.726l5.551 9.638v5.67c0 .439-.065.793-.197 1.061-.132.269-.31.472-.535.608a2.072 2.072 0 01-.784.271 6.474 6.474 0 01-.944.066h-.689V85h9.331zm22.91 0v-1.26h-.996c-.332 0-.647-.022-.945-.066a2.072 2.072 0 01-.783-.27 1.422 1.422 0 01-.535-.609c-.132-.268-.198-.622-.198-1.062v-5.068h1.89c1.484 0 2.74-.188 3.765-.564 1.025-.376 1.855-.879 2.49-1.509a5.54 5.54 0 001.37-2.175c.278-.82.417-1.675.417-2.563 0-.977-.149-1.851-.447-2.623a5.041 5.041 0 00-1.355-1.97c-.605-.542-1.372-.957-2.3-1.245-.927-.288-2.021-.432-3.28-.432h-8.424v1.26h.381c.332 0 .647.022.945.066.298.044.559.139.784.285.224.147.402.354.534.623.132.268.198.622.198 1.062v14.707c0 .469-.063.845-.19 1.128-.127.283-.303.5-.528.652a1.946 1.946 0 01-.783.3 5.936 5.936 0 01-.96.073h-.38V85h9.33zm-1.86-9.756h-1.597V65.02h2.036c.85 0 1.57.1 2.161.3.59.2 1.072.505 1.443.915.371.41.64.926.806 1.546.166.62.249 1.35.249 2.19 0 .947-.096 1.755-.286 2.424-.19.669-.49 1.216-.9 1.64-.411.425-.938.733-1.583.923-.644.19-1.42.286-2.33.286zM209.288 85v-1.26h-.835c-.332 0-.647-.022-.945-.066a2.072 2.072 0 01-.783-.27 1.422 1.422 0 01-.535-.609c-.132-.268-.198-.622-.198-1.062v-4.716c0-.381.02-.806.059-1.275.039-.469.105-.94.198-1.413.092-.474.214-.935.366-1.385.151-.449.337-.847.556-1.194.22-.346.476-.625.77-.834.292-.21.624-.315.996-.315.585 0 .996.183 1.23.549.234.366.352.964.352 1.794.507 0 .937-.05 1.289-.153.351-.103.64-.25.864-.44.224-.19.388-.417.49-.681.103-.264.154-.552.154-.864 0-.694-.266-1.23-.798-1.612-.532-.38-1.345-.571-2.439-.571-.664 0-1.216.085-1.655.256-.44.171-.808.406-1.106.704-.298.297-.55.644-.755 1.04-.205.395-.405.817-.6 1.267h-.147l-.57-2.974h-4.615v1.26h.088c.332 0 .647.024.945.073.297.049.559.147.783.293.225.146.403.354.535.623.132.268.198.622.198 1.062v9.36c0 .469-.066.845-.198 1.128-.132.283-.308.5-.527.652-.22.151-.479.251-.777.3a5.936 5.936 0 01-.96.073h-.087V85h8.657zm13.096.293c2.304 0 4.055-.689 5.251-2.065 1.197-1.377 1.795-3.477 1.795-6.3 0-1.406-.159-2.629-.476-3.669-.318-1.04-.777-1.904-1.377-2.592a5.552 5.552 0 00-2.19-1.539c-.86-.336-1.831-.505-2.915-.505-2.325 0-4.08.684-5.266 2.05-1.187 1.368-1.78 3.453-1.78 6.256 0 1.406.158 2.634.476 3.684.317 1.05.776 1.921 1.377 2.615.6.693 1.33 1.21 2.19 1.552.86.342 1.83.513 2.915.513zm.058-1.553c-.752 0-1.389-.146-1.911-.44-.523-.292-.948-.724-1.275-1.296-.327-.57-.564-1.281-.71-2.131-.147-.85-.22-1.831-.22-2.944 0-1.114.073-2.09.22-2.93.146-.84.38-1.54.703-2.102.322-.562.742-.984 1.26-1.267.517-.283 1.152-.425 1.904-.425s1.39.142 1.912.425c.522.283.945.705 1.267 1.267.322.561.556 1.262.703 2.102.146.84.22 1.816.22 2.93 0 1.113-.071 2.094-.213 2.944-.141.85-.373 1.56-.696 2.131-.322.572-.742 1.004-1.26 1.297-.517.293-1.152.44-1.904.44zm13.17-17.827c.234 0 .456-.032.666-.095.21-.064.39-.169.542-.315.151-.147.273-.337.366-.571.093-.235.14-.528.14-.88 0-.35-.047-.644-.14-.878a1.601 1.601 0 00-.366-.571 1.248 1.248 0 00-.542-.308 2.469 2.469 0 00-.667-.088c-.234 0-.456.03-.666.088-.21.059-.39.161-.542.308a1.525 1.525 0 00-.36.57c-.087.235-.13.528-.13.88 0 .351.043.644.13.879.089.234.208.424.36.57.151.147.332.252.542.316.21.063.432.095.666.095zm-4.41 26.294c.87 0 1.668-.112 2.395-.337a4.46 4.46 0 001.882-1.135c.528-.532.938-1.245 1.231-2.139.293-.893.44-2.014.44-3.362V68.916h-5.377v1.26h.088c.332 0 .647.024.945.073.298.049.56.147.784.293.224.146.403.354.535.623.131.268.197.622.197 1.062v13.037c0 1.054-.075 1.936-.227 2.644-.151.708-.37 1.274-.659 1.699-.288.425-.642.727-1.062.908-.42.18-.898.271-1.436.271h-.22v1.421h.484zm17.49-6.914c.89 0 1.663-.098 2.322-.293.66-.195 1.209-.44 1.648-.732.44-.293.767-.613.982-.96.214-.347.322-.671.322-.974 0-.254-.061-.474-.183-.66-.122-.185-.252-.307-.388-.365a3.86 3.86 0 01-.682.783 4.988 4.988 0 01-.96.667 5.46 5.46 0 01-1.208.469 5.644 5.644 0 01-1.442.175c-.713 0-1.343-.12-1.89-.359a3.402 3.402 0 01-1.384-1.12c-.376-.508-.664-1.155-.865-1.941-.2-.786-.31-1.726-.33-2.82h9.991v-1.377c0-1.182-.144-2.22-.432-3.113-.288-.893-.7-1.64-1.238-2.24a5.084 5.084 0 00-1.963-1.356c-.771-.303-1.64-.454-2.607-.454-2.13 0-3.77.708-4.922 2.124-1.152 1.416-1.729 3.525-1.729 6.328 0 1.299.16 2.459.476 3.48.318 1.02.774 1.882 1.37 2.585a5.786 5.786 0 002.19 1.604c.864.366 1.838.549 2.922.549zm2.9-9.741h-6.899c.108-1.739.462-3.06 1.062-3.963.601-.903 1.458-1.355 2.571-1.355.606 0 1.116.127 1.53.381a2.8 2.8 0 011.004 1.084c.254.469.44 1.03.557 1.685.117.654.176 1.377.176 2.168zm13.038 9.741c.85 0 1.592-.085 2.226-.256.635-.171 1.165-.393 1.59-.667.425-.273.744-.58.96-.923.214-.342.322-.683.322-1.025 0-.274-.05-.508-.147-.703a1.377 1.377 0 00-.366-.469c-.342.615-.86 1.118-1.553 1.509-.693.39-1.504.586-2.432.586-1.61 0-2.77-.523-3.479-1.568-.708-1.045-1.062-2.631-1.062-4.76 0-1.338.088-2.452.264-3.34.176-.889.43-1.597.762-2.124.332-.528.73-.899 1.194-1.114a3.669 3.669 0 011.56-.322c.508 0 .925.09 1.252.271.327.18.586.43.777.747.19.318.324.686.402 1.106.079.42.118.864.118 1.333.888 0 1.557-.141 2.006-.425.45-.283.674-.771.674-1.464 0-.518-.156-.97-.469-1.355a3.698 3.698 0 00-1.215-.96 6.394 6.394 0 00-1.678-.564 9.648 9.648 0 00-1.867-.183c-.948 0-1.829.137-2.644.41a5.008 5.008 0 00-2.124 1.392c-.6.654-1.07 1.52-1.407 2.6-.336 1.079-.505 2.42-.505 4.02 0 1.476.169 2.733.505 3.773.337 1.04.809 1.892 1.414 2.556a5.413 5.413 0 002.168 1.458c.84.307 1.758.461 2.754.461zm13.476 0a8.534 8.534 0 001.501-.14c.24-.043.462-.094.667-.153.205-.059.372-.117.498-.176v-1.318c-.312.058-.62.107-.922.146-.303.04-.635.059-.996.059-.694 0-1.248-.24-1.663-.718-.415-.478-.623-1.23-.623-2.256V70.63h3.926v-1.714h-3.926v-3.691h-1.377c-.156.771-.339 1.413-.549 1.926a4.39 4.39 0 01-.828 1.326 2.86 2.86 0 01-1.15.732c-.434.146-.832.22-1.193.22v1.2h2.285v10.02c0 .86.085 1.587.256 2.183.171.596.432 1.074.784 1.436.351.36.8.622 1.348.783.546.161 1.2.242 1.962.242z" fill="#F9C9E8"/></g><path stroke="#FFF" stroke-width="4" fill="#F9C9E8" d="M41 115h239v35H41z"/><path d="M127.373 137l-.116-.684h-3.363v-8.093h-.875V137h4.354zm7.268 0l-.11-.684h-3.725v-3.595h3.425v-.657h-3.425v-3.158h3.657l.15-.683h-4.682V137h4.71zm3.16 0l.683-2.242h3.466l.663 2.242h.889l-2.612-8.777h-1.305L136.85 137h.95zm3.937-2.871h-3.049l1.552-5.154 1.497 5.154zm9.353 3.042l.717-.451-.382-.622a42.26 42.26 0 01-.906-1.562 19.815 19.815 0 01-.803-1.576c.578-.132 1.006-.375 1.281-.728.276-.353.414-.865.414-1.535a4.04 4.04 0 00-.096-.933 1.746 1.746 0 00-.786-1.114 2.142 2.142 0 00-.697-.267 6.373 6.373 0 00-.868-.126 14.3 14.3 0 00-1.074-.034h-1.73V137h.876v-3.876h.752c.415 0 .786-.014 1.114-.041.515 1.167 1.244 2.53 2.188 4.088zm-3.46-4.696h-.594v-3.569h1.02c.196.002.364.005.504.01.187.007.385.024.595.052.21.027.377.067.503.12.125.052.25.121.375.208a.879.879 0 01.288.321c.066.128.118.283.157.465.039.182.058.392.058.629 0 .26-.02.48-.058.663a1.168 1.168 0 01-.557.79c-.137.08-.322.143-.554.191-.232.048-.48.08-.745.096-.264.016-.595.024-.991.024zm7.836 4.525v-7.39l4.423 7.39h.861v-8.777h-.793v7.28l-4.395-7.28h-.93V137h.834zm15.37 0v-4.115h3.964V137h.875v-8.777h-.875v3.971h-3.964v-3.971h-.875V137h.875zm10.986.068c.488 0 .91-.067 1.265-.201a2.35 2.35 0 00.878-.56c.23-.24.414-.55.55-.93.137-.381.233-.795.288-1.241.054-.447.082-.969.082-1.566 0-.592-.03-1.113-.09-1.562a5.589 5.589 0 00-.3-1.237 2.596 2.596 0 00-.56-.92 2.34 2.34 0 00-.879-.55 3.569 3.569 0 00-1.234-.195c-.47 0-.882.067-1.237.199-.351.127-.643.31-.875.547-.233.237-.42.543-.56.919a5.589 5.589 0 00-.301 1.237c-.06.45-.09.97-.09 1.562 0 .597.028 1.12.083 1.566.054.446.15.86.287 1.24.137.381.32.69.55.93.23.24.523.426.879.56.355.135.777.202 1.264.202zm0-.724c-.83 0-1.401-.287-1.716-.862-.314-.578-.471-1.542-.471-2.891 0-1.354.158-2.319.475-2.895.316-.577.887-.865 1.712-.865s1.396.288 1.713.865c.316.576.475 1.541.475 2.895 0 1.349-.158 2.312-.472 2.888-.314.577-.886.865-1.716.865zm8.047.656l1.737-4.799 1.79 4.799h.971l.82-8.777h-.806l-.725 7.526-1.66-4.532h-.787l-1.593 4.518-.786-7.512h-.806l.881 8.777h.964z" fill="#000" fill-rule="nonzero"/></g></svg>