<?xml version="1.0" encoding="UTF-8"?>
<svg width="320px" height="180px" viewBox="0 0 320 180" version="1.1" xmlns="http://www.w3.org/2000/svg" xmlns:xlink="http://www.w3.org/1999/xlink">
    <title>sponsor-the-a11y-project copy</title>
    <g id="sponsor-the-a11y-project-copy" stroke="none" stroke-width="1" fill="none" fill-rule="evenodd">
        <rect fill="#00270D" x="0" y="0" width="320" height="180"></rect>
        <g id="Group" transform="translate(39.000000, 38.000000)" fill-rule="nonzero">
            <path d="M87.2275391,12.0878906 C88.2822266,12.0878906 89.1201172,11.8110352 89.7412109,11.2573242 C90.3623047,10.7036133 90.6728516,9.91699219 90.6728516,8.89746094 C90.6728516,8.59863281 90.6435547,8.32177734 90.5849609,8.06689453 C90.5263672,7.81201172 90.4575195,7.59521484 90.378418,7.41650391 C90.2993164,7.23779297 90.1806641,7.06787109 90.0224609,6.90673828 C89.8642578,6.74560547 89.7236328,6.61816406 89.6005859,6.52441406 C89.4775391,6.43066406 89.3032227,6.32958984 89.0776367,6.22119141 C88.8520508,6.11279297 88.6733398,6.03369141 88.5415039,5.98388672 C88.409668,5.93408203 88.2148438,5.86523438 87.9570312,5.77734375 C87.8925781,5.75390625 87.8361816,5.73339844 87.7878418,5.71582031 L87.6669922,5.671875 L86.6650391,5.31152344 C86.0205078,5.07714844 85.5898438,4.82958984 85.3730469,4.56884766 C85.15625,4.30810547 85.0478516,3.9375 85.0478516,3.45703125 C85.0478516,2.15039062 85.8710938,1.49707031 87.5175781,1.49707031 C88.4023438,1.49707031 89.2958984,1.66699219 90.1982422,2.00683594 L90.1982422,2.00683594 L90.4003906,1.11035156 C89.5214844,0.747070312 88.5107422,0.565429688 87.3681641,0.565429688 C86.8759766,0.565429688 86.4291992,0.618164062 86.027832,0.723632812 C85.6264648,0.829101562 85.2646484,0.993164062 84.9423828,1.21582031 C84.6201172,1.43847656 84.3696289,1.74169922 84.190918,2.12548828 C84.012207,2.50927734 83.9228516,2.96191406 83.9228516,3.48339844 C83.9228516,4.24511719 84.1235352,4.84570312 84.5249023,5.28515625 C84.9262695,5.72460938 85.5195312,6.07617188 86.3046875,6.33984375 L86.3046875,6.33984375 L87.3857422,6.70019531 C87.7138672,6.81152344 87.9716797,6.90527344 88.1591797,6.98144531 C88.3466797,7.05761719 88.5429688,7.15576172 88.7480469,7.27587891 C88.953125,7.39599609 89.1054688,7.5234375 89.2050781,7.65820312 C89.3046875,7.79296875 89.3867188,7.96289062 89.4511719,8.16796875 C89.515625,8.37304688 89.5478516,8.61035156 89.5478516,8.87988281 C89.5478516,9.64160156 89.3339844,10.2114258 88.90625,10.5893555 C88.4785156,10.9672852 87.8896484,11.15625 87.1396484,11.15625 C86.7060547,11.15625 86.2827148,11.1152344 85.8696289,11.0332031 C85.456543,10.9511719 85.1489258,10.8720703 84.9467773,10.7958984 C84.7446289,10.7197266 84.4853516,10.6142578 84.1689453,10.4794922 L84.1689453,10.4794922 L83.9228516,11.4023438 C84.7724609,11.859375 85.8740234,12.0878906 87.2275391,12.0878906 Z M95.3941761,12 L95.3941761,7.2890625 L96.3346058,7.2890625 C96.9791371,7.2890625 97.5313832,7.26269531 97.9913441,7.20996094 C98.451305,7.15722656 98.8819691,7.06201172 99.2833363,6.92431641 C99.6847035,6.78662109 100.006969,6.59765625 100.250133,6.35742188 C100.493297,6.1171875 100.682262,5.80517578 100.817028,5.42138672 C100.951793,5.03759766 101.019176,4.57910156 101.019176,4.04589844 C101.019176,3.41308594 100.93568,2.87695312 100.768688,2.4375 C100.601696,1.99804688 100.352672,1.65380859 100.021618,1.40478516 C99.6905629,1.15576172 99.3097035,0.978515625 98.8790394,0.873046875 C98.4483754,0.767578125 97.9342152,0.71484375 97.3365589,0.71484375 L97.3365589,0.71484375 L94.2691761,0.71484375 L94.2691761,12 L95.3941761,12 Z M96.3560292,6.37458801 L95.3941761,6.375 L95.3941761,1.59375 L97.4068714,1.59375 C98.2799183,1.59375 98.9127308,1.76953125 99.3053089,2.12109375 C99.6978871,2.47265625 99.8941761,3.12011719 99.8941761,4.06347656 C99.8941761,4.50878906 99.8385121,4.87646484 99.7271839,5.16650391 C99.6158558,5.45654297 99.4810902,5.68359375 99.3228871,5.84765625 C99.1646839,6.01171875 98.9024769,6.13183594 98.536266,6.20800781 C98.170055,6.28417969 97.8316761,6.33105469 97.5211293,6.34863281 C97.2105824,6.36621094 96.7476918,6.375 96.1324574,6.375 L96.3560292,6.37458801 Z M108.175071,12.0878906 C108.802024,12.0878906 109.344016,12.0014648 109.801048,11.8286133 C110.258079,11.6557617 110.634544,11.4155273 110.930442,11.1079102 C111.226341,10.800293 111.46218,10.4018555 111.637962,9.91259766 C111.813743,9.42333984 111.93679,8.89160156 112.007102,8.31738281 C112.077415,7.74316406 112.112571,7.07226562 112.112571,6.3046875 C112.112571,5.54296875 112.074485,4.87353516 111.998313,4.29638672 C111.922141,3.71923828 111.793235,3.18896484 111.611594,2.70556641 C111.429954,2.22216797 111.189719,1.828125 110.890891,1.5234375 C110.592063,1.21875 110.215598,0.982910156 109.761497,0.815917969 C109.307395,0.648925781 108.778587,0.565429688 108.175071,0.565429688 C107.571555,0.565429688 107.041282,0.650390625 106.584251,0.8203125 C106.133079,0.984375 105.758079,1.21875 105.459251,1.5234375 C105.160423,1.828125 104.920188,2.22216797 104.738548,2.70556641 C104.556907,3.18896484 104.428001,3.71923828 104.351829,4.29638672 C104.275657,4.87353516 104.237571,5.54296875 104.237571,6.3046875 C104.237571,7.07226562 104.272727,7.74316406 104.34304,8.31738281 C104.413352,8.89160156 104.536399,9.42333984 104.71218,9.91259766 C104.887962,10.4018555 105.123801,10.800293 105.4197,11.1079102 C105.715598,11.4155273 106.092063,11.6557617 106.549094,11.8286133 C107.006126,12.0014648 107.548118,12.0878906 108.175071,12.0878906 Z M108.175071,11.15625 C107.108665,11.15625 106.373313,10.7871094 105.969016,10.0488281 C105.564719,9.3046875 105.362571,8.06542969 105.362571,6.33105469 C105.362571,4.59082031 105.566184,3.35009766 105.973411,2.60888672 C106.380637,1.86767578 107.114524,1.49707031 108.175071,1.49707031 C109.235618,1.49707031 109.969505,1.86767578 110.376731,2.60888672 C110.783958,3.35009766 110.987571,4.59082031 110.987571,6.33105469 C110.987571,8.06542969 110.785423,9.30322266 110.381126,10.0444336 C109.976829,10.7856445 109.241477,11.15625 108.175071,11.15625 Z M117.150302,12 L117.150302,2.49902344 L122.836825,12 L123.944247,12 L123.944247,0.71484375 L122.924716,0.71484375 L122.924716,10.0751953 L117.273349,0.71484375 L116.078036,0.71484375 L116.078036,12 L117.150302,12 Z M131.11772,12.0878906 C132.172408,12.0878906 133.010298,11.8110352 133.631392,11.2573242 C134.252486,10.7036133 134.563033,9.91699219 134.563033,8.89746094 C134.563033,8.59863281 134.533736,8.32177734 134.475142,8.06689453 C134.416548,7.81201172 134.347701,7.59521484 134.268599,7.41650391 C134.189498,7.23779297 134.070845,7.06787109 133.912642,6.90673828 C133.754439,6.74560547 133.613814,6.61816406 133.490767,6.52441406 C133.36772,6.43066406 133.193404,6.32958984 132.967818,6.22119141 C132.742232,6.11279297 132.563521,6.03369141 132.431685,5.98388672 C132.299849,5.93408203 132.105025,5.86523438 131.847212,5.77734375 C131.718306,5.73046875 131.621626,5.6953125 131.557173,5.671875 L131.557173,5.671875 L130.55522,5.31152344 C129.910689,5.07714844 129.480025,4.82958984 129.263228,4.56884766 C129.046431,4.30810547 128.938033,3.9375 128.938033,3.45703125 C128.938033,2.15039062 129.761275,1.49707031 131.407759,1.49707031 C132.292525,1.49707031 133.18608,1.66699219 134.088423,2.00683594 L134.088423,2.00683594 L134.290572,1.11035156 C133.411665,0.747070312 132.400923,0.565429688 131.258345,0.565429688 C130.766158,0.565429688 130.31938,0.618164062 129.918013,0.723632812 C129.516646,0.829101562 129.15483,0.993164062 128.832564,1.21582031 C128.510298,1.43847656 128.25981,1.74169922 128.081099,2.12548828 C127.902388,2.50927734 127.813033,2.96191406 127.813033,3.48339844 C127.813033,4.24511719 128.013716,4.84570312 128.415083,5.28515625 C128.816451,5.72460938 129.409712,6.07617188 130.194869,6.33984375 L130.194869,6.33984375 L131.275923,6.70019531 C131.604048,6.81152344 131.861861,6.90527344 132.049361,6.98144531 C132.236861,7.05761719 132.43315,7.15576172 132.638228,7.27587891 C132.843306,7.39599609 132.99565,7.5234375 133.095259,7.65820312 C133.194869,7.79296875 133.2769,7.96289062 133.341353,8.16796875 C133.405806,8.37304688 133.438033,8.61035156 133.438033,8.87988281 C133.438033,9.64160156 133.224165,10.2114258 132.796431,10.5893555 C132.368697,10.9672852 131.77983,11.15625 131.02983,11.15625 C130.596236,11.15625 130.172896,11.1152344 129.75981,11.0332031 C129.346724,10.9511719 129.039107,10.8720703 128.836958,10.7958984 C128.63481,10.7197266 128.375533,10.6142578 128.059126,10.4794922 L128.059126,10.4794922 L127.813033,11.4023438 C128.662642,11.859375 129.764205,12.0878906 131.11772,12.0878906 Z M141.806818,12.0878906 C142.433771,12.0878906 142.975763,12.0014648 143.432795,11.8286133 C143.889826,11.6557617 144.266291,11.4155273 144.562189,11.1079102 C144.858088,10.800293 145.093928,10.4018555 145.269709,9.91259766 C145.44549,9.42333984 145.568537,8.89160156 145.638849,8.31738281 C145.709162,7.74316406 145.744318,7.07226562 145.744318,6.3046875 C145.744318,5.54296875 145.706232,4.87353516 145.63006,4.29638672 C145.553888,3.71923828 145.424982,3.18896484 145.243342,2.70556641 C145.061701,2.22216797 144.821467,1.828125 144.522638,1.5234375 C144.22381,1.21875 143.847346,0.982910156 143.393244,0.815917969 C142.939142,0.648925781 142.410334,0.565429688 141.806818,0.565429688 C141.203303,0.565429688 140.673029,0.650390625 140.215998,0.8203125 C139.764826,0.984375 139.389826,1.21875 139.090998,1.5234375 C138.79217,1.828125 138.551935,2.22216797 138.370295,2.70556641 C138.188654,3.18896484 138.059748,3.71923828 137.983576,4.29638672 C137.907404,4.87353516 137.869318,5.54296875 137.869318,6.3046875 C137.869318,7.07226562 137.904474,7.74316406 137.974787,8.31738281 C138.045099,8.89160156 138.168146,9.42333984 138.343928,9.91259766 C138.519709,10.4018555 138.755549,10.800293 139.051447,11.1079102 C139.347346,11.4155273 139.72381,11.6557617 140.180842,11.8286133 C140.637873,12.0014648 141.179865,12.0878906 141.806818,12.0878906 Z M141.806818,11.15625 C140.740412,11.15625 140.00506,10.7871094 139.600763,10.0488281 C139.196467,9.3046875 138.994318,8.06542969 138.994318,6.33105469 C138.994318,4.59082031 139.197931,3.35009766 139.605158,2.60888672 C140.012385,1.86767578 140.746271,1.49707031 141.806818,1.49707031 C142.867365,1.49707031 143.601252,1.86767578 144.008478,2.60888672 C144.415705,3.35009766 144.619318,4.59082031 144.619318,6.33105469 C144.619318,8.06542969 144.41717,9.30322266 144.012873,10.0444336 C143.608576,10.7856445 142.873224,11.15625 141.806818,11.15625 Z M156.046697,12.2197266 L156.969549,11.6396484 L156.477362,10.8398438 C156.149237,10.3066406 155.761053,9.63720703 155.312811,8.83154297 C154.864569,8.02587891 154.52033,7.35058594 154.280096,6.80566406 C155.024237,6.63574219 155.573553,6.32373047 155.928045,5.86962891 C156.282537,5.41552734 156.459783,4.7578125 156.459783,3.89648438 C156.459783,3.43945312 156.418768,3.03955078 156.336737,2.69677734 C156.254705,2.35400391 156.124334,2.06689453 155.945623,1.83544922 C155.766912,1.60400391 155.560369,1.41357422 155.325994,1.26416016 C155.091619,1.11474609 154.792791,1.00048828 154.42951,0.921386719 C154.066229,0.842285156 153.694158,0.788085938 153.313299,0.758789062 C152.93244,0.729492188 152.472479,0.71484375 151.933416,0.71484375 L151.933416,0.71484375 L149.709783,0.71484375 L149.709783,12 L150.834783,12 L150.834783,7.01660156 L151.80158,7.01660156 C152.334783,7.01660156 152.812322,6.99902344 153.234197,6.96386719 C153.896307,8.46386719 154.833807,10.2158203 156.046697,12.2197266 L156.046697,12.2197266 Z M151.599432,6.18164062 L150.834783,6.18164062 L150.834783,1.59375 L151.880682,1.59375 C152.249822,1.59375 152.55451,1.59814453 152.794744,1.60693359 C153.034979,1.61572266 153.289862,1.63769531 153.559393,1.67285156 C153.828924,1.70800781 154.044256,1.75927734 154.205389,1.82666016 C154.366522,1.89404297 154.527654,1.98339844 154.688787,2.09472656 C154.84992,2.20605469 154.972967,2.34375 155.057928,2.5078125 C155.142889,2.671875 155.210272,2.87109375 155.260076,3.10546875 C155.309881,3.33984375 155.334783,3.609375 155.334783,3.9140625 C155.334783,4.24804688 155.309881,4.53222656 155.260076,4.76660156 C155.210272,5.00097656 155.122381,5.203125 154.996404,5.37304688 C154.870428,5.54296875 154.719549,5.67919922 154.543768,5.78173828 C154.367987,5.88427734 154.130682,5.96630859 153.831854,6.02783203 C153.533026,6.08935547 153.21369,6.13037109 152.873846,6.15087891 C152.534002,6.17138672 152.109197,6.18164062 151.599432,6.18164062 L151.599432,6.18164062 Z" id="SPONSOR" fill="#FFFFFF"></path>
            <path d="M13.828125,47 L13.828125,45.7402344 L13.1396484,45.7402344 C12.8076172,45.7402344 12.4902344,45.7158203 12.1875,45.6669922 C11.8847656,45.6181641 11.6235352,45.5180664 11.4038086,45.3666992 C11.184082,45.215332 11.0083008,44.9980469 10.8764648,44.7148438 C10.7446289,44.4316406 10.6787109,44.0556641 10.6787109,43.5869141 L10.6787109,43.5869141 L10.6787109,27.078125 L13.59375,27.078125 C14.0429688,27.078125 14.4189453,27.144043 14.7216797,27.2758789 C15.0244141,27.4077148 15.2685547,27.5859375 15.4541016,27.8105469 C15.6396484,28.0351562 15.78125,28.2963867 15.8789062,28.5942383 C15.9765625,28.8920898 16.0449219,29.2070312 16.0839844,29.5390625 L16.0839844,29.5390625 L16.2304688,30.828125 L17.7832031,30.828125 L17.6367188,25.5839844 L0.747070312,25.5839844 L0.600585938,30.828125 L2.15332031,30.828125 L2.31445312,29.5390625 C2.35351562,29.2070312 2.41943359,28.8920898 2.51220703,28.5942383 C2.60498047,28.2963867 2.74658203,28.0351562 2.93701172,27.8105469 C3.12744141,27.5859375 3.37158203,27.4077148 3.66943359,27.2758789 C3.96728516,27.144043 4.3359375,27.078125 4.77539062,27.078125 L4.77539062,27.078125 L7.64648438,27.078125 L7.64648438,43.7333984 C7.64648438,44.1728516 7.58056641,44.5268555 7.44873047,44.7954102 C7.31689453,45.0639648 7.13867188,45.2666016 6.9140625,45.4033203 C6.68945312,45.5400391 6.42822266,45.6303711 6.13037109,45.6743164 C5.83251953,45.7182617 5.51757812,45.7402344 5.18554688,45.7402344 L5.18554688,45.7402344 L4.49707031,45.7402344 L4.49707031,47 L13.828125,47 Z M26.9970703,47 L26.9970703,45.7402344 L26.9091797,45.7402344 C26.5771484,45.7402344 26.262207,45.7182617 25.9643555,45.6743164 C25.6665039,45.6303711 25.4052734,45.5400391 25.1806641,45.4033203 C24.9560547,45.2666016 24.777832,45.0639648 24.6459961,44.7954102 C24.5141602,44.5268555 24.4482422,44.1728516 24.4482422,43.7333984 L24.4482422,43.7333984 L24.4482422,37.4052734 C24.4482422,36.6728516 24.5214844,36.0063477 24.6679688,35.4057617 C24.8144531,34.8051758 25.0366211,34.2924805 25.3344727,33.8676758 C25.6323242,33.4428711 26.0083008,33.1157227 26.4624023,32.8862305 C26.9165039,32.6567383 27.4560547,32.5419922 28.0810547,32.5419922 C28.6865234,32.5419922 29.1992188,32.6323242 29.6191406,32.8129883 C30.0390625,32.9936523 30.378418,33.2597656 30.637207,33.6113281 C30.8959961,33.9628906 31.0839844,34.3925781 31.2011719,34.9003906 C31.3183594,35.4082031 31.3769531,35.9892578 31.3769531,36.6435547 L31.3769531,36.6435547 L31.3769531,47 L36.5917969,47 L36.5917969,45.7402344 L36.5039062,45.7402344 C36.171875,45.7402344 35.8642578,45.7158203 35.5810547,45.6669922 C35.2978516,45.6181641 35.0537109,45.5180664 34.8486328,45.3666992 C34.6435547,45.215332 34.4824219,44.9980469 34.3652344,44.7148438 C34.2480469,44.4316406 34.1894531,44.0556641 34.1894531,43.5869141 L34.1894531,43.5869141 L34.1894531,36.4970703 C34.1894531,35.4716797 34.0722656,34.5878906 33.8378906,33.8457031 C33.6035156,33.1035156 33.2617188,32.4956055 32.8125,32.0219727 C32.3632812,31.5483398 31.809082,31.1967773 31.1499023,30.9672852 C30.4907227,30.737793 29.7363281,30.6230469 28.8867188,30.6230469 C26.8457031,30.6230469 25.3759766,31.53125 24.4775391,33.3476562 L24.4775391,33.3476562 L24.3310547,33.3476562 C24.3505859,33.0644531 24.3701172,32.7763672 24.3896484,32.4833984 C24.4091797,32.2294922 24.4238281,31.9536133 24.4335938,31.6557617 C24.4433594,31.3579102 24.4482422,31.0722656 24.4482422,30.7988281 L24.4482422,30.7988281 L24.4482422,24.2070312 L18.9257812,24.2070312 L18.9257812,25.4667969 L19.1601562,25.4667969 C19.4921875,25.4667969 19.8071289,25.4887695 20.1049805,25.5327148 C20.402832,25.5766602 20.6640625,25.671875 20.8886719,25.8183594 C21.1132812,25.9648438 21.2915039,26.1723633 21.4233398,26.440918 C21.5551758,26.7094727 21.6210938,27.0634766 21.6210938,27.5029297 L21.6210938,27.5029297 L21.6210938,43.5869141 C21.6210938,44.0556641 21.5551758,44.4316406 21.4233398,44.7148438 C21.2915039,44.9980469 21.1157227,45.215332 20.8959961,45.3666992 C20.6762695,45.5180664 20.4174805,45.6181641 20.1196289,45.6669922 C19.8217773,45.7158203 19.5019531,45.7402344 19.1601562,45.7402344 L19.1601562,45.7402344 L18.9257812,45.7402344 L18.9257812,47 L26.9970703,47 Z M46.0400391,47.2929688 C46.9287109,47.2929688 47.7026367,47.1953125 48.3618164,47 C49.0209961,46.8046875 49.5703125,46.5605469 50.0097656,46.2675781 C50.4492188,45.9746094 50.7763672,45.6547852 50.9912109,45.3081055 C51.2060547,44.9614258 51.3134766,44.6367188 51.3134766,44.3339844 C51.3134766,44.0800781 51.2524414,43.8603516 51.1303711,43.6748047 C51.0083008,43.4892578 50.8789062,43.3671875 50.7421875,43.3085938 C50.5664062,43.5820312 50.3393555,43.8432617 50.0610352,44.0922852 C49.7827148,44.3413086 49.4628906,44.5634766 49.1015625,44.7587891 C48.7402344,44.9541016 48.3374023,45.1103516 47.8930664,45.2275391 C47.4487305,45.3447266 46.9677734,45.4033203 46.4501953,45.4033203 C45.7373047,45.4033203 45.1074219,45.2836914 44.5605469,45.0444336 C44.0136719,44.8051758 43.5522461,44.4316406 43.1762695,43.9238281 C42.800293,43.4160156 42.512207,42.769043 42.3120117,41.9829102 C42.1118164,41.1967773 42.0019531,40.2568359 41.9824219,39.1630859 L41.9824219,39.1630859 L51.9726562,39.1630859 L51.9726562,37.7861328 C51.9726562,36.6044922 51.8286133,35.5668945 51.5405273,34.6733398 C51.2524414,33.7797852 50.8398438,33.0327148 50.3027344,32.4321289 C49.765625,31.831543 49.1113281,31.3798828 48.3398438,31.0771484 C47.5683594,30.7744141 46.6992188,30.6230469 45.7324219,30.6230469 C43.6035156,30.6230469 41.9628906,31.3310547 40.8105469,32.7470703 C39.6582031,34.1630859 39.0820312,36.2724609 39.0820312,39.0751953 C39.0820312,40.3740234 39.2407227,41.5336914 39.5581055,42.5541992 C39.8754883,43.574707 40.3320312,44.4365234 40.9277344,45.1396484 C41.5234375,45.8427734 42.253418,46.3774414 43.1176758,46.7436523 C43.9819336,47.1098633 44.9560547,47.2929688 46.0400391,47.2929688 Z M48.9404297,37.5517578 L42.0410156,37.5517578 C42.1484375,35.8134766 42.5024414,34.4926758 43.1030273,33.5893555 C43.7036133,32.6860352 44.5605469,32.234375 45.6738281,32.234375 C46.2792969,32.234375 46.7895508,32.3613281 47.2045898,32.6152344 C47.6196289,32.8691406 47.9541016,33.2304688 48.2080078,33.6992188 C48.4619141,34.1679688 48.6474609,34.7294922 48.7646484,35.3837891 C48.8818359,36.0380859 48.9404297,36.7607422 48.9404297,37.5517578 L48.9404297,37.5517578 Z M68.5986328,47 L68.5986328,45.7402344 L67.9101562,45.7402344 C67.2363281,45.7402344 66.7358398,45.6230469 66.4086914,45.3886719 C66.081543,45.1542969 65.9179688,44.7832031 65.9179688,44.2753906 C65.9179688,44.109375 65.9423828,43.9116211 65.9912109,43.6821289 C66.0400391,43.4526367 66.1083984,43.2207031 66.1962891,42.9863281 L66.1962891,42.9863281 L67.3388672,39.8369141 L75.2197266,39.8369141 L76.4208984,43.1914062 C76.4990234,43.4160156 76.5600586,43.6162109 76.6040039,43.7919922 C76.6479492,43.9677734 76.6699219,44.1386719 76.6699219,44.3046875 C76.6699219,45.2617188 76.0693359,45.7402344 74.8681641,45.7402344 L74.8681641,45.7402344 L74.1796875,45.7402344 L74.1796875,47 L82.4267578,47 L82.4267578,45.7402344 L82.03125,45.7402344 C81.7382812,45.7402344 81.484375,45.7158203 81.2695312,45.6669922 C81.0546875,45.6181641 80.8642578,45.5327148 80.6982422,45.4106445 C80.5322266,45.2885742 80.3881836,45.125 80.2661133,44.9199219 C80.144043,44.7148438 80.0244141,44.4560547 79.9072266,44.1435547 L79.9072266,44.1435547 L73.125,25.5839844 L70.78125,25.5839844 L64.1308594,43.3964844 C63.9453125,43.875 63.7768555,44.265625 63.6254883,44.5683594 C63.4741211,44.8710938 63.3154297,45.1103516 63.1494141,45.2861328 C62.9833984,45.4619141 62.7978516,45.581543 62.5927734,45.6450195 C62.3876953,45.7084961 62.1386719,45.7402344 61.8457031,45.7402344 L61.8457031,45.7402344 L61.2744141,45.7402344 L61.2744141,47 L68.5986328,47 Z M74.6777344,38.328125 L67.9101562,38.328125 L69.9462891,32.8056641 C70.1220703,32.3369141 70.2783203,31.909668 70.4150391,31.5239258 C70.5517578,31.1381836 70.6738281,30.7695312 70.78125,30.4179688 C70.8886719,30.0664062 70.9887695,29.722168 71.081543,29.3852539 C71.1743164,29.0483398 71.2548828,28.6992188 71.3232422,28.3378906 C71.4892578,29.0605469 71.7016602,29.8100586 71.9604492,30.5864258 C72.2192383,31.362793 72.5048828,32.1953125 72.8173828,33.0839844 L72.8173828,33.0839844 L74.6777344,38.328125 Z M96.7382812,47 L96.7382812,45.7402344 L95.2734375,45.7402344 C94.9316406,45.7402344 94.6118164,45.7158203 94.3139648,45.6669922 C94.0161133,45.6181641 93.7548828,45.5180664 93.5302734,45.3666992 C93.3056641,45.215332 93.1298828,44.9980469 93.0029297,44.7148438 C92.8759766,44.4316406 92.8125,44.0556641 92.8125,43.5869141 L92.8125,43.5869141 L92.8125,25.4667969 L90.8935547,25.4667969 L88.7841797,27.0195312 C88.2861328,27.3808594 87.8344727,27.690918 87.4291992,27.949707 C87.0239258,28.2084961 86.6479492,28.4282227 86.3012695,28.6088867 C85.9545898,28.7895508 85.6274414,28.9360352 85.3198242,29.0483398 C85.012207,29.1606445 84.7070312,29.2558594 84.4042969,29.3339844 C84.4042969,29.8125 84.5458984,30.2006836 84.8291016,30.4985352 C85.1123047,30.7963867 85.4736328,30.9453125 85.9130859,30.9453125 C86.2060547,30.9453125 86.5014648,30.8696289 86.7993164,30.7182617 C87.097168,30.5668945 87.4023438,30.3544922 87.7148438,30.0810547 C88.0273438,29.8076172 88.3544922,29.4804688 88.6962891,29.0996094 C89.0380859,28.71875 89.3994141,28.2939453 89.7802734,27.8251953 L89.7802734,27.8251953 L89.7802734,43.5869141 C89.7802734,44.0556641 89.7143555,44.4316406 89.5825195,44.7148438 C89.4506836,44.9980469 89.2749023,45.215332 89.0551758,45.3666992 C88.8354492,45.5180664 88.5766602,45.6181641 88.2788086,45.6669922 C87.980957,45.7158203 87.6611328,45.7402344 87.3193359,45.7402344 L87.3193359,45.7402344 L85.3125,45.7402344 L85.3125,47 L96.7382812,47 Z M113.510742,47 L113.510742,45.7402344 L112.045898,45.7402344 C111.704102,45.7402344 111.384277,45.7158203 111.086426,45.6669922 C110.788574,45.6181641 110.527344,45.5180664 110.302734,45.3666992 C110.078125,45.215332 109.902344,44.9980469 109.775391,44.7148438 C109.648438,44.4316406 109.584961,44.0556641 109.584961,43.5869141 L109.584961,43.5869141 L109.584961,25.4667969 L107.666016,25.4667969 L105.556641,27.0195312 C105.058594,27.3808594 104.606934,27.690918 104.20166,27.949707 C103.796387,28.2084961 103.42041,28.4282227 103.07373,28.6088867 C102.727051,28.7895508 102.399902,28.9360352 102.092285,29.0483398 C101.784668,29.1606445 101.479492,29.2558594 101.176758,29.3339844 C101.176758,29.8125 101.318359,30.2006836 101.601562,30.4985352 C101.884766,30.7963867 102.246094,30.9453125 102.685547,30.9453125 C102.978516,30.9453125 103.273926,30.8696289 103.571777,30.7182617 C103.869629,30.5668945 104.174805,30.3544922 104.487305,30.0810547 C104.799805,29.8076172 105.126953,29.4804688 105.46875,29.0996094 C105.810547,28.71875 106.171875,28.2939453 106.552734,27.8251953 L106.552734,27.8251953 L106.552734,43.5869141 C106.552734,44.0556641 106.486816,44.4316406 106.35498,44.7148438 C106.223145,44.9980469 106.047363,45.215332 105.827637,45.3666992 C105.60791,45.5180664 105.349121,45.6181641 105.05127,45.6669922 C104.753418,45.7158203 104.433594,45.7402344 104.091797,45.7402344 L104.091797,45.7402344 L102.084961,45.7402344 L102.084961,47 L113.510742,47 Z M130.078125,47 L130.078125,45.7402344 L129.375,45.7402344 C129.042969,45.7402344 128.728027,45.7158203 128.430176,45.6669922 C128.132324,45.6181641 127.871094,45.5180664 127.646484,45.3666992 C127.421875,45.215332 127.246094,44.9980469 127.119141,44.7148438 C126.992188,44.4316406 126.928711,44.0556641 126.928711,43.5869141 L126.928711,43.5869141 L126.928711,38.0644531 L131.967773,29.1728516 C132.22168,28.7236328 132.453613,28.3500977 132.663574,28.0522461 C132.873535,27.7543945 133.076172,27.5151367 133.271484,27.3344727 C133.466797,27.1538086 133.659668,27.0268555 133.850098,26.9536133 C134.040527,26.8803711 134.243164,26.84375 134.458008,26.84375 L134.458008,26.84375 L134.80957,26.84375 L134.80957,25.5839844 L127.485352,25.5839844 L127.485352,26.84375 L128.364258,26.84375 C128.94043,26.84375 129.384766,26.9536133 129.697266,27.1733398 C130.009766,27.3930664 130.166016,27.7226562 130.166016,28.1621094 C130.166016,28.40625 130.124512,28.6821289 130.041504,28.9897461 C129.958496,29.2973633 129.819336,29.6220703 129.624023,29.9638672 L129.624023,29.9638672 L127.705078,33.40625 C127.529297,33.71875 127.353516,34.0336914 127.177734,34.3510742 C127.001953,34.668457 126.833496,34.9760742 126.672363,35.2739258 C126.51123,35.5717773 126.364746,35.8525391 126.23291,36.1162109 C126.101074,36.3798828 125.991211,36.6191406 125.90332,36.8339844 C125.737305,36.3652344 125.532227,35.8305664 125.288086,35.2299805 C125.043945,34.6293945 124.746094,34.0214844 124.394531,33.40625 L124.394531,33.40625 L122.182617,29.3925781 C122.06543,29.1777344 121.945801,28.9287109 121.82373,28.6455078 C121.70166,28.3623047 121.640625,28.0791016 121.640625,27.7958984 C121.640625,27.6689453 121.657715,27.546875 121.691895,27.4296875 C121.726074,27.3125 121.791992,27.2099609 121.889648,27.1220703 C121.987305,27.0341797 122.121582,26.9658203 122.29248,26.9169922 C122.463379,26.8681641 122.685547,26.84375 122.958984,26.84375 L122.958984,26.84375 L124.072266,26.84375 L124.072266,25.5839844 L115.825195,25.5839844 L115.825195,26.84375 L116.206055,26.84375 C116.459961,26.84375 116.68457,26.8730469 116.879883,26.9316406 C117.075195,26.9902344 117.253418,27.0830078 117.414551,27.2099609 C117.575684,27.3369141 117.729492,27.5004883 117.875977,27.7006836 C118.022461,27.9008789 118.178711,28.1425781 118.344727,28.4257812 L118.344727,28.4257812 L123.896484,38.0644531 L123.896484,43.7333984 C123.896484,44.1728516 123.830566,44.5268555 123.69873,44.7954102 C123.566895,45.0639648 123.388672,45.2666016 123.164062,45.4033203 C122.939453,45.5400391 122.678223,45.6303711 122.380371,45.6743164 C122.08252,45.7182617 121.767578,45.7402344 121.435547,45.7402344 L121.435547,45.7402344 L120.74707,45.7402344 L120.74707,47 L130.078125,47 Z M152.988281,47 L152.988281,45.7402344 L151.992188,45.7402344 C151.660156,45.7402344 151.345215,45.7182617 151.047363,45.6743164 C150.749512,45.6303711 150.488281,45.5400391 150.263672,45.4033203 C150.039062,45.2666016 149.86084,45.0639648 149.729004,44.7954102 C149.597168,44.5268555 149.53125,44.1728516 149.53125,43.7333984 L149.53125,43.7333984 L149.53125,38.6650391 L151.420898,38.6650391 C152.905273,38.6650391 154.160156,38.4770508 155.185547,38.1010742 C156.210938,37.7250977 157.041016,37.222168 157.675781,36.5922852 C158.310547,35.9624023 158.76709,35.2373047 159.04541,34.4169922 C159.32373,33.5966797 159.462891,32.7421875 159.462891,31.8535156 C159.462891,30.8769531 159.313965,30.0029297 159.016113,29.2314453 C158.718262,28.4599609 158.266602,27.8032227 157.661133,27.2612305 C157.055664,26.7192383 156.289062,26.3041992 155.361328,26.0161133 C154.433594,25.7280273 153.339844,25.5839844 152.080078,25.5839844 L152.080078,25.5839844 L143.657227,25.5839844 L143.657227,26.84375 L144.038086,26.84375 C144.370117,26.84375 144.685059,26.8657227 144.98291,26.909668 C145.280762,26.9536133 145.541992,27.0488281 145.766602,27.1953125 C145.991211,27.3417969 146.169434,27.5493164 146.30127,27.8178711 C146.433105,28.0864258 146.499023,28.4404297 146.499023,28.8798828 L146.499023,28.8798828 L146.499023,43.5869141 C146.499023,44.0556641 146.435547,44.4316406 146.308594,44.7148438 C146.181641,44.9980469 146.005859,45.215332 145.78125,45.3666992 C145.556641,45.5180664 145.29541,45.6181641 144.997559,45.6669922 C144.699707,45.7158203 144.379883,45.7402344 144.038086,45.7402344 L144.038086,45.7402344 L143.657227,45.7402344 L143.657227,47 L152.988281,47 Z M151.12793,37.2441406 L149.53125,37.2441406 L149.53125,27.0195312 L151.567383,27.0195312 C152.416992,27.0195312 153.137207,27.1196289 153.728027,27.3198242 C154.318848,27.5200195 154.799805,27.8251953 155.170898,28.2353516 C155.541992,28.6455078 155.810547,29.1606445 155.976562,29.7807617 C156.142578,30.4008789 156.225586,31.1308594 156.225586,31.9707031 C156.225586,32.9179688 156.130371,33.7260742 155.939941,34.3950195 C155.749512,35.0639648 155.449219,35.6108398 155.039062,36.0356445 C154.628906,36.4604492 154.101562,36.7680664 153.457031,36.9584961 C152.8125,37.1489258 152.036133,37.2441406 151.12793,37.2441406 L151.12793,37.2441406 Z M170.288086,47 L170.288086,45.7402344 L169.453125,45.7402344 C169.121094,45.7402344 168.806152,45.7182617 168.508301,45.6743164 C168.210449,45.6303711 167.949219,45.5400391 167.724609,45.4033203 C167.5,45.2666016 167.321777,45.0639648 167.189941,44.7954102 C167.058105,44.5268555 166.992188,44.1728516 166.992188,43.7333984 L166.992188,43.7333984 L166.992188,39.0166016 C166.992188,38.6357422 167.011719,38.2109375 167.050781,37.7421875 C167.089844,37.2734375 167.155762,36.8022461 167.248535,36.3286133 C167.341309,35.8549805 167.463379,35.3935547 167.614746,34.9443359 C167.766113,34.4951172 167.95166,34.097168 168.171387,33.7504883 C168.391113,33.4038086 168.647461,33.1254883 168.94043,32.9155273 C169.233398,32.7055664 169.56543,32.6005859 169.936523,32.6005859 C170.522461,32.6005859 170.932617,32.7836914 171.166992,33.1499023 C171.401367,33.5161133 171.518555,34.1142578 171.518555,34.9443359 C172.026367,34.9443359 172.456055,34.8930664 172.807617,34.7905273 C173.15918,34.6879883 173.447266,34.5415039 173.671875,34.3510742 C173.896484,34.1606445 174.060059,33.9335938 174.162598,33.6699219 C174.265137,33.40625 174.316406,33.1181641 174.316406,32.8056641 C174.316406,32.1123047 174.050293,31.5751953 173.518066,31.1943359 C172.98584,30.8134766 172.172852,30.6230469 171.079102,30.6230469 C170.415039,30.6230469 169.863281,30.7084961 169.423828,30.8793945 C168.984375,31.050293 168.615723,31.284668 168.317871,31.5825195 C168.02002,31.8803711 167.768555,32.2270508 167.563477,32.6225586 C167.358398,33.0180664 167.158203,33.4404297 166.962891,33.8896484 L166.962891,33.8896484 L166.816406,33.8896484 L166.245117,30.9160156 L161.630859,30.9160156 L161.630859,32.1757812 L161.71875,32.1757812 C162.050781,32.1757812 162.365723,32.2001953 162.663574,32.2490234 C162.961426,32.2978516 163.222656,32.3955078 163.447266,32.5419922 C163.671875,32.6884766 163.850098,32.8959961 163.981934,33.1645508 C164.11377,33.4331055 164.179688,33.7871094 164.179688,34.2265625 L164.179688,34.2265625 L164.179688,43.5869141 C164.179688,44.0556641 164.11377,44.4316406 163.981934,44.7148438 C163.850098,44.9980469 163.674316,45.215332 163.45459,45.3666992 C163.234863,45.5180664 162.976074,45.6181641 162.678223,45.6669922 C162.380371,45.7158203 162.060547,45.7402344 161.71875,45.7402344 L161.71875,45.7402344 L161.630859,45.7402344 L161.630859,47 L170.288086,47 Z M183.383789,47.2929688 C185.688477,47.2929688 187.438965,46.6044922 188.635254,45.2275391 C189.831543,43.8505859 190.429688,41.7509766 190.429688,38.9287109 C190.429688,37.5224609 190.270996,36.2993164 189.953613,35.2592773 C189.63623,34.2192383 189.177246,33.3549805 188.57666,32.6665039 C187.976074,31.9780273 187.246094,31.465332 186.386719,31.128418 C185.527344,30.7915039 184.555664,30.6230469 183.47168,30.6230469 C181.147461,30.6230469 179.39209,31.3066406 178.205566,32.6738281 C177.019043,34.0410156 176.425781,36.1259766 176.425781,38.9287109 C176.425781,40.3349609 176.584473,41.5629883 176.901855,42.612793 C177.219238,43.6625977 177.678223,44.5341797 178.278809,45.2275391 C178.879395,45.9208984 179.609375,46.4384766 180.46875,46.7802734 C181.328125,47.1220703 182.299805,47.2929688 183.383789,47.2929688 Z M183.442383,45.7402344 C182.69043,45.7402344 182.053223,45.59375 181.530762,45.3007812 C181.008301,45.0078125 180.583496,44.5756836 180.256348,44.0043945 C179.929199,43.4331055 179.692383,42.7226562 179.545898,41.8730469 C179.399414,41.0234375 179.326172,40.0419922 179.326172,38.9287109 C179.326172,37.8154297 179.399414,36.8388672 179.545898,35.9990234 C179.692383,35.1591797 179.926758,34.4584961 180.249023,33.8969727 C180.571289,33.3354492 180.991211,32.9130859 181.508789,32.6298828 C182.026367,32.3466797 182.661133,32.2050781 183.413086,32.2050781 C184.165039,32.2050781 184.802246,32.3466797 185.324707,32.6298828 C185.847168,32.9130859 186.269531,33.3354492 186.591797,33.8969727 C186.914062,34.4584961 187.148438,35.1591797 187.294922,35.9990234 C187.441406,36.8388672 187.514648,37.8154297 187.514648,38.9287109 C187.514648,40.0419922 187.443848,41.0234375 187.302246,41.8730469 C187.160645,42.7226562 186.928711,43.4331055 186.606445,44.0043945 C186.28418,44.5756836 185.864258,45.0078125 185.34668,45.3007812 C184.829102,45.59375 184.194336,45.7402344 183.442383,45.7402344 Z M196.611328,27.9130859 C196.845703,27.9130859 197.067871,27.8813477 197.277832,27.8178711 C197.487793,27.7543945 197.668457,27.6494141 197.819824,27.5029297 C197.971191,27.3564453 198.093262,27.1660156 198.186035,26.9316406 C198.278809,26.6972656 198.325195,26.4042969 198.325195,26.0527344 C198.325195,25.7011719 198.278809,25.4082031 198.186035,25.1738281 C198.093262,24.9394531 197.971191,24.7490234 197.819824,24.6025391 C197.668457,24.4560547 197.487793,24.3535156 197.277832,24.2949219 C197.067871,24.2363281 196.845703,24.2070312 196.611328,24.2070312 C196.376953,24.2070312 196.154785,24.2363281 195.944824,24.2949219 C195.734863,24.3535156 195.554199,24.4560547 195.402832,24.6025391 C195.251465,24.7490234 195.131836,24.9394531 195.043945,25.1738281 C194.956055,25.4082031 194.912109,25.7011719 194.912109,26.0527344 C194.912109,26.4042969 194.956055,26.6972656 195.043945,26.9316406 C195.131836,27.1660156 195.251465,27.3564453 195.402832,27.5029297 C195.554199,27.6494141 195.734863,27.7543945 195.944824,27.8178711 C196.154785,27.8813477 196.376953,27.9130859 196.611328,27.9130859 Z M192.202148,54.2070312 C193.071289,54.2070312 193.869629,54.0947266 194.597168,53.8701172 C195.324707,53.6455078 195.952148,53.2670898 196.479492,52.7348633 C197.006836,52.2026367 197.416992,51.4897461 197.709961,50.5961914 C198.00293,49.7026367 198.149414,48.5820312 198.149414,47.234375 L198.149414,47.234375 L198.149414,30.9160156 L192.773438,30.9160156 L192.773438,32.1757812 L192.861328,32.1757812 C193.193359,32.1757812 193.508301,32.2001953 193.806152,32.2490234 C194.104004,32.2978516 194.365234,32.3955078 194.589844,32.5419922 C194.814453,32.6884766 194.992676,32.8959961 195.124512,33.1645508 C195.256348,33.4331055 195.322266,33.7871094 195.322266,34.2265625 L195.322266,34.2265625 L195.322266,47.2636719 C195.322266,48.3183594 195.246582,49.199707 195.095215,49.9077148 C194.943848,50.6157227 194.724121,51.1821289 194.436035,51.6069336 C194.147949,52.0317383 193.793945,52.3344727 193.374023,52.5151367 C192.954102,52.6958008 192.475586,52.7861328 191.938477,52.7861328 L191.938477,52.7861328 L191.71875,52.7861328 L191.71875,54.2070312 L192.202148,54.2070312 Z M209.692383,47.2929688 C210.581055,47.2929688 211.35498,47.1953125 212.01416,47 C212.67334,46.8046875 213.222656,46.5605469 213.662109,46.2675781 C214.101562,45.9746094 214.428711,45.6547852 214.643555,45.3081055 C214.858398,44.9614258 214.96582,44.6367188 214.96582,44.3339844 C214.96582,44.0800781 214.904785,43.8603516 214.782715,43.6748047 C214.660645,43.4892578 214.53125,43.3671875 214.394531,43.3085938 C214.21875,43.5820312 213.991699,43.8432617 213.713379,44.0922852 C213.435059,44.3413086 213.115234,44.5634766 212.753906,44.7587891 C212.392578,44.9541016 211.989746,45.1103516 211.54541,45.2275391 C211.101074,45.3447266 210.620117,45.4033203 210.102539,45.4033203 C209.389648,45.4033203 208.759766,45.2836914 208.212891,45.0444336 C207.666016,44.8051758 207.20459,44.4316406 206.828613,43.9238281 C206.452637,43.4160156 206.164551,42.769043 205.964355,41.9829102 C205.76416,41.1967773 205.654297,40.2568359 205.634766,39.1630859 L205.634766,39.1630859 L215.625,39.1630859 L215.625,37.7861328 C215.625,36.6044922 215.480957,35.5668945 215.192871,34.6733398 C214.904785,33.7797852 214.492188,33.0327148 213.955078,32.4321289 C213.417969,31.831543 212.763672,31.3798828 211.992188,31.0771484 C211.220703,30.7744141 210.351562,30.6230469 209.384766,30.6230469 C207.255859,30.6230469 205.615234,31.3310547 204.462891,32.7470703 C203.310547,34.1630859 202.734375,36.2724609 202.734375,39.0751953 C202.734375,40.3740234 202.893066,41.5336914 203.210449,42.5541992 C203.527832,43.574707 203.984375,44.4365234 204.580078,45.1396484 C205.175781,45.8427734 205.905762,46.3774414 206.77002,46.7436523 C207.634277,47.1098633 208.608398,47.2929688 209.692383,47.2929688 Z M212.592773,37.5517578 L205.693359,37.5517578 C205.800781,35.8134766 206.154785,34.4926758 206.755371,33.5893555 C207.355957,32.6860352 208.212891,32.234375 209.326172,32.234375 C209.931641,32.234375 210.441895,32.3613281 210.856934,32.6152344 C211.271973,32.8691406 211.606445,33.2304688 211.860352,33.6992188 C212.114258,34.1679688 212.299805,34.7294922 212.416992,35.3837891 C212.53418,36.0380859 212.592773,36.7607422 212.592773,37.5517578 L212.592773,37.5517578 Z M225.629883,47.2929688 C226.479492,47.2929688 227.22168,47.2075195 227.856445,47.0366211 C228.491211,46.8657227 229.020996,46.6435547 229.445801,46.3701172 C229.870605,46.0966797 230.19043,45.7890625 230.405273,45.4472656 C230.620117,45.1054688 230.727539,44.7636719 230.727539,44.421875 C230.727539,44.1484375 230.678711,43.9140625 230.581055,43.71875 C230.483398,43.5234375 230.361328,43.3671875 230.214844,43.25 C229.873047,43.8652344 229.355469,44.3681641 228.662109,44.7587891 C227.96875,45.1494141 227.158203,45.3447266 226.230469,45.3447266 C224.619141,45.3447266 223.459473,44.8222656 222.751465,43.7773438 C222.043457,42.7324219 221.689453,41.1455078 221.689453,39.0166016 C221.689453,37.6787109 221.777344,36.5654297 221.953125,35.6767578 C222.128906,34.7880859 222.382812,34.0800781 222.714844,33.5527344 C223.046875,33.0253906 223.444824,32.6542969 223.908691,32.4394531 C224.372559,32.2246094 224.892578,32.1171875 225.46875,32.1171875 C225.976562,32.1171875 226.394043,32.2075195 226.721191,32.3881836 C227.04834,32.5688477 227.307129,32.8178711 227.497559,33.1352539 C227.687988,33.4526367 227.822266,33.8212891 227.900391,34.2412109 C227.978516,34.6611328 228.017578,35.1054688 228.017578,35.5742188 C228.90625,35.5742188 229.575195,35.4326172 230.024414,35.1494141 C230.473633,34.8662109 230.698242,34.3779297 230.698242,33.6845703 C230.698242,33.1669922 230.541992,32.715332 230.229492,32.3295898 C229.916992,31.9438477 229.511719,31.6240234 229.013672,31.3701172 C228.515625,31.1162109 227.956543,30.9282227 227.336426,30.8061523 C226.716309,30.684082 226.09375,30.6230469 225.46875,30.6230469 C224.521484,30.6230469 223.640137,30.7597656 222.824707,31.0332031 C222.009277,31.3066406 221.30127,31.7705078 220.700684,32.4248047 C220.100098,33.0791016 219.631348,33.9458008 219.294434,35.0249023 C218.95752,36.1040039 218.789062,37.4443359 218.789062,39.0458984 C218.789062,40.5205078 218.95752,41.777832 219.294434,42.8178711 C219.631348,43.8579102 220.102539,44.7099609 220.708008,45.3740234 C221.313477,46.0380859 222.036133,46.5239258 222.875977,46.831543 C223.71582,47.1391602 224.633789,47.2929688 225.629883,47.2929688 Z M239.106445,47.2929688 C239.34082,47.2929688 239.589844,47.2807617 239.853516,47.2563477 C240.117188,47.2319336 240.368652,47.1977539 240.60791,47.1538086 C240.847168,47.1098633 241.069336,47.0585938 241.274414,47 C241.479492,46.9414062 241.645508,46.8828125 241.772461,46.8242188 L241.772461,46.8242188 L241.772461,45.5058594 C241.459961,45.5644531 241.152344,45.6132812 240.849609,45.6523438 C240.546875,45.6914062 240.214844,45.7109375 239.853516,45.7109375 C239.160156,45.7109375 238.605957,45.4716797 238.190918,44.9931641 C237.775879,44.5146484 237.568359,43.7626953 237.568359,42.7373047 L237.568359,42.7373047 L237.568359,32.6298828 L241.494141,32.6298828 L241.494141,30.9160156 L237.568359,30.9160156 L237.568359,27.2246094 L236.191406,27.2246094 C236.035156,27.9960938 235.852051,28.6381836 235.64209,29.1508789 C235.432129,29.6635742 235.15625,30.1054688 234.814453,30.4765625 C234.482422,30.8183594 234.099121,31.0625 233.664551,31.2089844 C233.22998,31.3554688 232.832031,31.4287109 232.470703,31.4287109 L232.470703,31.4287109 L232.470703,32.6298828 L234.755859,32.6298828 L234.755859,42.6494141 C234.755859,43.5087891 234.841309,44.2363281 235.012207,44.8320312 C235.183105,45.4277344 235.444336,45.90625 235.795898,46.2675781 C236.147461,46.6289062 236.59668,46.8901367 237.143555,47.0512695 C237.69043,47.2124023 238.344727,47.2929688 239.106445,47.2929688 Z" id="TheA11YProject" fill="#F9C9E8"></path>
        </g>
        <g id="Group-2" transform="translate(39.000000, 113.000000)">
            <rect id="Rectangle" stroke="#FFFFFF" stroke-width="4" fill="#F9C9E8" x="2" y="2" width="239" height="35"></rect>
            <path d="M93.6054688,24 L93.5058594,23.4140625 L90.6230469,23.4140625 L90.6230469,16.4765625 L89.8730469,16.4765625 L89.8730469,24 L93.6054688,24 Z M99.8350497,24 L99.7412997,23.4140625 L96.5479403,23.4140625 L96.5479403,20.3320312 L99.4834872,20.3320312 L99.4834872,19.7695312 L96.5479403,19.7695312 L96.5479403,17.0625 L99.682706,17.0625 L99.8116122,16.4765625 L95.7979403,16.4765625 L95.7979403,24 L99.8350497,24 Z M102.543146,24 L103.129084,22.078125 L106.099787,22.078125 L106.668146,24 L107.429865,24 L105.191584,16.4765625 L104.072443,16.4765625 L101.728693,24 L102.543146,24 Z M105.918146,21.5390625 L103.304865,21.5390625 L104.634943,17.1210938 L105.918146,21.5390625 Z M113.934837,24.1464844 L114.550071,23.7597656 L114.221946,23.2265625 C114.003196,22.8710938 113.744407,22.4248047 113.445579,21.8876953 C113.146751,21.3505859 112.917259,20.9003906 112.757102,20.5371094 C113.253196,20.4238281 113.619407,20.2158203 113.855735,19.9130859 C114.092063,19.6103516 114.210227,19.171875 114.210227,18.5976562 C114.210227,18.2929688 114.182884,18.0263672 114.128196,17.7978516 C114.073509,17.5693359 113.986594,17.3779297 113.867454,17.2236328 C113.748313,17.0693359 113.610618,16.9423828 113.454368,16.8427734 C113.298118,16.7431641 113.098899,16.6669922 112.856712,16.6142578 C112.614524,16.5615234 112.366477,16.5253906 112.112571,16.5058594 C111.858665,16.4863281 111.552024,16.4765625 111.192649,16.4765625 L111.192649,16.4765625 L109.710227,16.4765625 L109.710227,24 L110.460227,24 L110.460227,20.6777344 L111.104759,20.6777344 C111.460227,20.6777344 111.778587,20.6660156 112.059837,20.6425781 C112.501243,21.6425781 113.126243,22.8105469 113.934837,24.1464844 L113.934837,24.1464844 Z M110.969993,20.1210938 L110.460227,20.1210938 L110.460227,17.0625 L111.157493,17.0625 C111.403587,17.0625 111.606712,17.0654297 111.766868,17.0712891 C111.927024,17.0771484 112.096946,17.0917969 112.276634,17.1152344 C112.456321,17.1386719 112.599876,17.1728516 112.707298,17.2177734 C112.814719,17.2626953 112.922141,17.3222656 113.029563,17.3964844 C113.136985,17.4707031 113.219016,17.5625 113.275657,17.671875 C113.332298,17.78125 113.377219,17.9140625 113.410423,18.0703125 C113.443626,18.2265625 113.460227,18.40625 113.460227,18.609375 C113.460227,18.8320312 113.443626,19.0214844 113.410423,19.1777344 C113.377219,19.3339844 113.318626,19.46875 113.234641,19.5820312 C113.150657,19.6953125 113.050071,19.7861328 112.932884,19.8544922 C112.815696,19.9228516 112.657493,19.9775391 112.458274,20.0185547 C112.259055,20.0595703 112.046165,20.0869141 111.819602,20.1005859 C111.59304,20.1142578 111.309837,20.1210938 110.969993,20.1210938 L110.969993,20.1210938 Z M117.685902,24 L117.685902,17.6660156 L121.476918,24 L122.215199,24 L122.215199,16.4765625 L121.535511,16.4765625 L121.535511,22.7167969 L117.767933,16.4765625 L116.971058,16.4765625 L116.971058,24 L117.685902,24 Z M130.859908,24 L130.859908,20.4726562 L134.258345,20.4726562 L134.258345,24 L135.008345,24 L135.008345,16.4765625 L134.258345,16.4765625 L134.258345,19.8808594 L130.859908,19.8808594 L130.859908,16.4765625 L130.109908,16.4765625 L130.109908,24 L130.859908,24 Z M140.276989,24.0585938 C140.694957,24.0585938 141.056286,24.0009766 141.360973,23.8857422 C141.665661,23.7705078 141.916637,23.6103516 142.113903,23.4052734 C142.311168,23.2001953 142.468395,22.9345703 142.585582,22.6083984 C142.70277,22.2822266 142.784801,21.9277344 142.831676,21.5449219 C142.878551,21.1621094 142.901989,20.7148438 142.901989,20.203125 C142.901989,19.6953125 142.876598,19.2490234 142.825817,18.8642578 C142.775036,18.4794922 142.689098,18.1259766 142.568004,17.8037109 C142.446911,17.4814453 142.286754,17.21875 142.087536,17.015625 C141.888317,16.8125 141.63734,16.6552734 141.334606,16.5439453 C141.031871,16.4326172 140.679332,16.3769531 140.276989,16.3769531 C139.874645,16.3769531 139.521129,16.4335938 139.216442,16.546875 C138.915661,16.65625 138.665661,16.8125 138.466442,17.015625 C138.267223,17.21875 138.107067,17.4814453 137.985973,17.8037109 C137.864879,18.1259766 137.778942,18.4794922 137.728161,18.8642578 C137.677379,19.2490234 137.651989,19.6953125 137.651989,20.203125 C137.651989,20.7148438 137.675426,21.1621094 137.722301,21.5449219 C137.769176,21.9277344 137.851207,22.2822266 137.968395,22.6083984 C138.085582,22.9345703 138.242809,23.2001953 138.440075,23.4052734 C138.63734,23.6103516 138.888317,23.7705078 139.193004,23.8857422 C139.497692,24.0009766 139.85902,24.0585938 140.276989,24.0585938 Z M140.276989,23.4375 C139.566051,23.4375 139.075817,23.1914062 138.806286,22.6992188 C138.536754,22.203125 138.401989,21.3769531 138.401989,20.2207031 C138.401989,19.0605469 138.537731,18.2333984 138.809215,17.7392578 C139.0807,17.2451172 139.569957,16.9980469 140.276989,16.9980469 C140.98402,16.9980469 141.473278,17.2451172 141.744762,17.7392578 C142.016246,18.2333984 142.151989,19.0605469 142.151989,20.2207031 C142.151989,21.3769531 142.017223,22.2021484 141.747692,22.6962891 C141.478161,23.1904297 140.987926,23.4375 140.276989,23.4375 Z M147.174538,24 L148.66282,19.8867188 L150.197976,24 L151.030007,24 L151.733132,16.4765625 L151.041726,16.4765625 L150.420632,22.9277344 L148.996804,19.0429688 L148.322976,19.0429688 L146.957741,22.9160156 L146.283913,16.4765625 L145.592507,16.4765625 L146.348366,24 L147.174538,24 Z" id="LEARNHOW" fill="#000000" fill-rule="nonzero"></path>
        </g>
    </g>
</svg>