<?xml version="1.0" encoding="UTF-8"?>
<svg width="320px" height="180px" viewBox="0 0 320 180" version="1.1" xmlns="http://www.w3.org/2000/svg" xmlns:xlink="http://www.w3.org/1999/xlink">
    <title>sponsor-the-a11y-project copy</title>
    <g id="sponsor-the-a11y-project-copy" stroke="none" stroke-width="1" fill="none" fill-rule="evenodd">
        <rect fill="#00270D" x="0" y="0" width="320" height="180"></rect>
        <g id="Group" transform="translate(39.000000, 33.000000)" fill-rule="nonzero">
            <path d="M87.2275391,17.0878906 C88.2822266,17.0878906 89.1201172,16.8110352 89.7412109,16.2573242 C90.3623047,15.7036133 90.6728516,14.9169922 90.6728516,13.8974609 C90.6728516,13.5986328 90.6435547,13.3217773 90.5849609,13.0668945 C90.5263672,12.8120117 90.4575195,12.5952148 90.378418,12.4165039 C90.2993164,12.237793 90.1806641,12.0678711 90.0224609,11.9067383 C89.8642578,11.7456055 89.7236328,11.6181641 89.6005859,11.5244141 C89.4775391,11.4306641 89.3032227,11.3295898 89.0776367,11.2211914 C88.8520508,11.112793 88.6733398,11.0336914 88.5415039,10.9838867 C88.409668,10.934082 88.2148438,10.8652344 87.9570312,10.7773438 C87.8925781,10.7539062 87.8361816,10.7333984 87.7878418,10.7158203 L87.6669922,10.671875 L86.6650391,10.3115234 C86.0205078,10.0771484 85.5898438,9.82958984 85.3730469,9.56884766 C85.15625,9.30810547 85.0478516,8.9375 85.0478516,8.45703125 C85.0478516,7.15039062 85.8710938,6.49707031 87.5175781,6.49707031 C88.4023438,6.49707031 89.2958984,6.66699219 90.1982422,7.00683594 L90.1982422,7.00683594 L90.4003906,6.11035156 C89.5214844,5.74707031 88.5107422,5.56542969 87.3681641,5.56542969 C86.8759766,5.56542969 86.4291992,5.61816406 86.027832,5.72363281 C85.6264648,5.82910156 85.2646484,5.99316406 84.9423828,6.21582031 C84.6201172,6.43847656 84.3696289,6.74169922 84.190918,7.12548828 C84.012207,7.50927734 83.9228516,7.96191406 83.9228516,8.48339844 C83.9228516,9.24511719 84.1235352,9.84570312 84.5249023,10.2851562 C84.9262695,10.7246094 85.5195312,11.0761719 86.3046875,11.3398438 L86.3046875,11.3398438 L87.3857422,11.7001953 C87.7138672,11.8115234 87.9716797,11.9052734 88.1591797,11.9814453 C88.3466797,12.0576172 88.5429688,12.1557617 88.7480469,12.2758789 C88.953125,12.3959961 89.1054688,12.5234375 89.2050781,12.6582031 C89.3046875,12.7929688 89.3867188,12.9628906 89.4511719,13.1679688 C89.515625,13.3730469 89.5478516,13.6103516 89.5478516,13.8798828 C89.5478516,14.6416016 89.3339844,15.2114258 88.90625,15.5893555 C88.4785156,15.9672852 87.8896484,16.15625 87.1396484,16.15625 C86.7060547,16.15625 86.2827148,16.1152344 85.8696289,16.0332031 C85.456543,15.9511719 85.1489258,15.8720703 84.9467773,15.7958984 C84.7446289,15.7197266 84.4853516,15.6142578 84.1689453,15.4794922 L84.1689453,15.4794922 L83.9228516,16.4023438 C84.7724609,16.859375 85.8740234,17.0878906 87.2275391,17.0878906 Z M95.3941761,17 L95.3941761,12.2890625 L96.3346058,12.2890625 C96.9791371,12.2890625 97.5313832,12.2626953 97.9913441,12.2099609 C98.451305,12.1572266 98.8819691,12.0620117 99.2833363,11.9243164 C99.6847035,11.7866211 100.006969,11.5976562 100.250133,11.3574219 C100.493297,11.1171875 100.682262,10.8051758 100.817028,10.4213867 C100.951793,10.0375977 101.019176,9.57910156 101.019176,9.04589844 C101.019176,8.41308594 100.93568,7.87695312 100.768688,7.4375 C100.601696,6.99804688 100.352672,6.65380859 100.021618,6.40478516 C99.6905629,6.15576172 99.3097035,5.97851562 98.8790394,5.87304688 C98.4483754,5.76757812 97.9342152,5.71484375 97.3365589,5.71484375 L97.3365589,5.71484375 L94.2691761,5.71484375 L94.2691761,17 L95.3941761,17 Z M96.3560292,11.374588 L95.3941761,11.375 L95.3941761,6.59375 L97.4068714,6.59375 C98.2799183,6.59375 98.9127308,6.76953125 99.3053089,7.12109375 C99.6978871,7.47265625 99.8941761,8.12011719 99.8941761,9.06347656 C99.8941761,9.50878906 99.8385121,9.87646484 99.7271839,10.1665039 C99.6158558,10.456543 99.4810902,10.6835938 99.3228871,10.8476562 C99.1646839,11.0117188 98.9024769,11.1318359 98.536266,11.2080078 C98.170055,11.2841797 97.8316761,11.3310547 97.5211293,11.3486328 C97.2105824,11.3662109 96.7476918,11.375 96.1324574,11.375 L96.3560292,11.374588 Z M108.175071,17.0878906 C108.802024,17.0878906 109.344016,17.0014648 109.801048,16.8286133 C110.258079,16.6557617 110.634544,16.4155273 110.930442,16.1079102 C111.226341,15.800293 111.46218,15.4018555 111.637962,14.9125977 C111.813743,14.4233398 111.93679,13.8916016 112.007102,13.3173828 C112.077415,12.7431641 112.112571,12.0722656 112.112571,11.3046875 C112.112571,10.5429688 112.074485,9.87353516 111.998313,9.29638672 C111.922141,8.71923828 111.793235,8.18896484 111.611594,7.70556641 C111.429954,7.22216797 111.189719,6.828125 110.890891,6.5234375 C110.592063,6.21875 110.215598,5.98291016 109.761497,5.81591797 C109.307395,5.64892578 108.778587,5.56542969 108.175071,5.56542969 C107.571555,5.56542969 107.041282,5.65039062 106.584251,5.8203125 C106.133079,5.984375 105.758079,6.21875 105.459251,6.5234375 C105.160423,6.828125 104.920188,7.22216797 104.738548,7.70556641 C104.556907,8.18896484 104.428001,8.71923828 104.351829,9.29638672 C104.275657,9.87353516 104.237571,10.5429688 104.237571,11.3046875 C104.237571,12.0722656 104.272727,12.7431641 104.34304,13.3173828 C104.413352,13.8916016 104.536399,14.4233398 104.71218,14.9125977 C104.887962,15.4018555 105.123801,15.800293 105.4197,16.1079102 C105.715598,16.4155273 106.092063,16.6557617 106.549094,16.8286133 C107.006126,17.0014648 107.548118,17.0878906 108.175071,17.0878906 Z M108.175071,16.15625 C107.108665,16.15625 106.373313,15.7871094 105.969016,15.0488281 C105.564719,14.3046875 105.362571,13.0654297 105.362571,11.3310547 C105.362571,9.59082031 105.566184,8.35009766 105.973411,7.60888672 C106.380637,6.86767578 107.114524,6.49707031 108.175071,6.49707031 C109.235618,6.49707031 109.969505,6.86767578 110.376731,7.60888672 C110.783958,8.35009766 110.987571,9.59082031 110.987571,11.3310547 C110.987571,13.0654297 110.785423,14.3032227 110.381126,15.0444336 C109.976829,15.7856445 109.241477,16.15625 108.175071,16.15625 Z M117.150302,17 L117.150302,7.49902344 L122.836825,17 L123.944247,17 L123.944247,5.71484375 L122.924716,5.71484375 L122.924716,15.0751953 L117.273349,5.71484375 L116.078036,5.71484375 L116.078036,17 L117.150302,17 Z M131.11772,17.0878906 C132.172408,17.0878906 133.010298,16.8110352 133.631392,16.2573242 C134.252486,15.7036133 134.563033,14.9169922 134.563033,13.8974609 C134.563033,13.5986328 134.533736,13.3217773 134.475142,13.0668945 C134.416548,12.8120117 134.347701,12.5952148 134.268599,12.4165039 C134.189498,12.237793 134.070845,12.0678711 133.912642,11.9067383 C133.754439,11.7456055 133.613814,11.6181641 133.490767,11.5244141 C133.36772,11.4306641 133.193404,11.3295898 132.967818,11.2211914 C132.742232,11.112793 132.563521,11.0336914 132.431685,10.9838867 C132.299849,10.934082 132.105025,10.8652344 131.847212,10.7773438 C131.718306,10.7304688 131.621626,10.6953125 131.557173,10.671875 L131.557173,10.671875 L130.55522,10.3115234 C129.910689,10.0771484 129.480025,9.82958984 129.263228,9.56884766 C129.046431,9.30810547 128.938033,8.9375 128.938033,8.45703125 C128.938033,7.15039062 129.761275,6.49707031 131.407759,6.49707031 C132.292525,6.49707031 133.18608,6.66699219 134.088423,7.00683594 L134.088423,7.00683594 L134.290572,6.11035156 C133.411665,5.74707031 132.400923,5.56542969 131.258345,5.56542969 C130.766158,5.56542969 130.31938,5.61816406 129.918013,5.72363281 C129.516646,5.82910156 129.15483,5.99316406 128.832564,6.21582031 C128.510298,6.43847656 128.25981,6.74169922 128.081099,7.12548828 C127.902388,7.50927734 127.813033,7.96191406 127.813033,8.48339844 C127.813033,9.24511719 128.013716,9.84570312 128.415083,10.2851562 C128.816451,10.7246094 129.409712,11.0761719 130.194869,11.3398438 L130.194869,11.3398438 L131.275923,11.7001953 C131.604048,11.8115234 131.861861,11.9052734 132.049361,11.9814453 C132.236861,12.0576172 132.43315,12.1557617 132.638228,12.2758789 C132.843306,12.3959961 132.99565,12.5234375 133.095259,12.6582031 C133.194869,12.7929688 133.2769,12.9628906 133.341353,13.1679688 C133.405806,13.3730469 133.438033,13.6103516 133.438033,13.8798828 C133.438033,14.6416016 133.224165,15.2114258 132.796431,15.5893555 C132.368697,15.9672852 131.77983,16.15625 131.02983,16.15625 C130.596236,16.15625 130.172896,16.1152344 129.75981,16.0332031 C129.346724,15.9511719 129.039107,15.8720703 128.836958,15.7958984 C128.63481,15.7197266 128.375533,15.6142578 128.059126,15.4794922 L128.059126,15.4794922 L127.813033,16.4023438 C128.662642,16.859375 129.764205,17.0878906 131.11772,17.0878906 Z M141.806818,17.0878906 C142.433771,17.0878906 142.975763,17.0014648 143.432795,16.8286133 C143.889826,16.6557617 144.266291,16.4155273 144.562189,16.1079102 C144.858088,15.800293 145.093928,15.4018555 145.269709,14.9125977 C145.44549,14.4233398 145.568537,13.8916016 145.638849,13.3173828 C145.709162,12.7431641 145.744318,12.0722656 145.744318,11.3046875 C145.744318,10.5429688 145.706232,9.87353516 145.63006,9.29638672 C145.553888,8.71923828 145.424982,8.18896484 145.243342,7.70556641 C145.061701,7.22216797 144.821467,6.828125 144.522638,6.5234375 C144.22381,6.21875 143.847346,5.98291016 143.393244,5.81591797 C142.939142,5.64892578 142.410334,5.56542969 141.806818,5.56542969 C141.203303,5.56542969 140.673029,5.65039062 140.215998,5.8203125 C139.764826,5.984375 139.389826,6.21875 139.090998,6.5234375 C138.79217,6.828125 138.551935,7.22216797 138.370295,7.70556641 C138.188654,8.18896484 138.059748,8.71923828 137.983576,9.29638672 C137.907404,9.87353516 137.869318,10.5429688 137.869318,11.3046875 C137.869318,12.0722656 137.904474,12.7431641 137.974787,13.3173828 C138.045099,13.8916016 138.168146,14.4233398 138.343928,14.9125977 C138.519709,15.4018555 138.755549,15.800293 139.051447,16.1079102 C139.347346,16.4155273 139.72381,16.6557617 140.180842,16.8286133 C140.637873,17.0014648 141.179865,17.0878906 141.806818,17.0878906 Z M141.806818,16.15625 C140.740412,16.15625 140.00506,15.7871094 139.600763,15.0488281 C139.196467,14.3046875 138.994318,13.0654297 138.994318,11.3310547 C138.994318,9.59082031 139.197931,8.35009766 139.605158,7.60888672 C140.012385,6.86767578 140.746271,6.49707031 141.806818,6.49707031 C142.867365,6.49707031 143.601252,6.86767578 144.008478,7.60888672 C144.415705,8.35009766 144.619318,9.59082031 144.619318,11.3310547 C144.619318,13.0654297 144.41717,14.3032227 144.012873,15.0444336 C143.608576,15.7856445 142.873224,16.15625 141.806818,16.15625 Z M156.046697,17.2197266 L156.969549,16.6396484 L156.477362,15.8398438 C156.149237,15.3066406 155.761053,14.637207 155.312811,13.831543 C154.864569,13.0258789 154.52033,12.3505859 154.280096,11.8056641 C155.024237,11.6357422 155.573553,11.3237305 155.928045,10.8696289 C156.282537,10.4155273 156.459783,9.7578125 156.459783,8.89648438 C156.459783,8.43945312 156.418768,8.03955078 156.336737,7.69677734 C156.254705,7.35400391 156.124334,7.06689453 155.945623,6.83544922 C155.766912,6.60400391 155.560369,6.41357422 155.325994,6.26416016 C155.091619,6.11474609 154.792791,6.00048828 154.42951,5.92138672 C154.066229,5.84228516 153.694158,5.78808594 153.313299,5.75878906 C152.93244,5.72949219 152.472479,5.71484375 151.933416,5.71484375 L151.933416,5.71484375 L149.709783,5.71484375 L149.709783,17 L150.834783,17 L150.834783,12.0166016 L151.80158,12.0166016 C152.334783,12.0166016 152.812322,11.9990234 153.234197,11.9638672 C153.896307,13.4638672 154.833807,15.2158203 156.046697,17.2197266 L156.046697,17.2197266 Z M151.599432,11.1816406 L150.834783,11.1816406 L150.834783,6.59375 L151.880682,6.59375 C152.249822,6.59375 152.55451,6.59814453 152.794744,6.60693359 C153.034979,6.61572266 153.289862,6.63769531 153.559393,6.67285156 C153.828924,6.70800781 154.044256,6.75927734 154.205389,6.82666016 C154.366522,6.89404297 154.527654,6.98339844 154.688787,7.09472656 C154.84992,7.20605469 154.972967,7.34375 155.057928,7.5078125 C155.142889,7.671875 155.210272,7.87109375 155.260076,8.10546875 C155.309881,8.33984375 155.334783,8.609375 155.334783,8.9140625 C155.334783,9.24804688 155.309881,9.53222656 155.260076,9.76660156 C155.210272,10.0009766 155.122381,10.203125 154.996404,10.3730469 C154.870428,10.5429688 154.719549,10.6791992 154.543768,10.7817383 C154.367987,10.8842773 154.130682,10.9663086 153.831854,11.027832 C153.533026,11.0893555 153.21369,11.1303711 152.873846,11.1508789 C152.534002,11.1713867 152.109197,11.1816406 151.599432,11.1816406 L151.599432,11.1816406 Z" id="SPONSOR" fill="#FFFFFF"></path>
            <path d="M13.828125,52 L13.828125,50.7402344 L13.1396484,50.7402344 C12.8076172,50.7402344 12.4902344,50.7158203 12.1875,50.6669922 C11.8847656,50.6181641 11.6235352,50.5180664 11.4038086,50.3666992 C11.184082,50.215332 11.0083008,49.9980469 10.8764648,49.7148438 C10.7446289,49.4316406 10.6787109,49.0556641 10.6787109,48.5869141 L10.6787109,48.5869141 L10.6787109,32.078125 L13.59375,32.078125 C14.0429688,32.078125 14.4189453,32.144043 14.7216797,32.2758789 C15.0244141,32.4077148 15.2685547,32.5859375 15.4541016,32.8105469 C15.6396484,33.0351562 15.78125,33.2963867 15.8789062,33.5942383 C15.9765625,33.8920898 16.0449219,34.2070312 16.0839844,34.5390625 L16.0839844,34.5390625 L16.2304688,35.828125 L17.7832031,35.828125 L17.6367188,30.5839844 L0.747070312,30.5839844 L0.600585938,35.828125 L2.15332031,35.828125 L2.31445312,34.5390625 C2.35351562,34.2070312 2.41943359,33.8920898 2.51220703,33.5942383 C2.60498047,33.2963867 2.74658203,33.0351562 2.93701172,32.8105469 C3.12744141,32.5859375 3.37158203,32.4077148 3.66943359,32.2758789 C3.96728516,32.144043 4.3359375,32.078125 4.77539062,32.078125 L4.77539062,32.078125 L7.64648438,32.078125 L7.64648438,48.7333984 C7.64648438,49.1728516 7.58056641,49.5268555 7.44873047,49.7954102 C7.31689453,50.0639648 7.13867188,50.2666016 6.9140625,50.4033203 C6.68945312,50.5400391 6.42822266,50.6303711 6.13037109,50.6743164 C5.83251953,50.7182617 5.51757812,50.7402344 5.18554688,50.7402344 L5.18554688,50.7402344 L4.49707031,50.7402344 L4.49707031,52 L13.828125,52 Z M26.9970703,52 L26.9970703,50.7402344 L26.9091797,50.7402344 C26.5771484,50.7402344 26.262207,50.7182617 25.9643555,50.6743164 C25.6665039,50.6303711 25.4052734,50.5400391 25.1806641,50.4033203 C24.9560547,50.2666016 24.777832,50.0639648 24.6459961,49.7954102 C24.5141602,49.5268555 24.4482422,49.1728516 24.4482422,48.7333984 L24.4482422,48.7333984 L24.4482422,42.4052734 C24.4482422,41.6728516 24.5214844,41.0063477 24.6679688,40.4057617 C24.8144531,39.8051758 25.0366211,39.2924805 25.3344727,38.8676758 C25.6323242,38.4428711 26.0083008,38.1157227 26.4624023,37.8862305 C26.9165039,37.6567383 27.4560547,37.5419922 28.0810547,37.5419922 C28.6865234,37.5419922 29.1992188,37.6323242 29.6191406,37.8129883 C30.0390625,37.9936523 30.378418,38.2597656 30.637207,38.6113281 C30.8959961,38.9628906 31.0839844,39.3925781 31.2011719,39.9003906 C31.3183594,40.4082031 31.3769531,40.9892578 31.3769531,41.6435547 L31.3769531,41.6435547 L31.3769531,52 L36.5917969,52 L36.5917969,50.7402344 L36.5039062,50.7402344 C36.171875,50.7402344 35.8642578,50.7158203 35.5810547,50.6669922 C35.2978516,50.6181641 35.0537109,50.5180664 34.8486328,50.3666992 C34.6435547,50.215332 34.4824219,49.9980469 34.3652344,49.7148438 C34.2480469,49.4316406 34.1894531,49.0556641 34.1894531,48.5869141 L34.1894531,48.5869141 L34.1894531,41.4970703 C34.1894531,40.4716797 34.0722656,39.5878906 33.8378906,38.8457031 C33.6035156,38.1035156 33.2617188,37.4956055 32.8125,37.0219727 C32.3632812,36.5483398 31.809082,36.1967773 31.1499023,35.9672852 C30.4907227,35.737793 29.7363281,35.6230469 28.8867188,35.6230469 C26.8457031,35.6230469 25.3759766,36.53125 24.4775391,38.3476562 L24.4775391,38.3476562 L24.3310547,38.3476562 C24.3505859,38.0644531 24.3701172,37.7763672 24.3896484,37.4833984 C24.4091797,37.2294922 24.4238281,36.9536133 24.4335938,36.6557617 C24.4433594,36.3579102 24.4482422,36.0722656 24.4482422,35.7988281 L24.4482422,35.7988281 L24.4482422,29.2070312 L18.9257812,29.2070312 L18.9257812,30.4667969 L19.1601562,30.4667969 C19.4921875,30.4667969 19.8071289,30.4887695 20.1049805,30.5327148 C20.402832,30.5766602 20.6640625,30.671875 20.8886719,30.8183594 C21.1132812,30.9648438 21.2915039,31.1723633 21.4233398,31.440918 C21.5551758,31.7094727 21.6210938,32.0634766 21.6210938,32.5029297 L21.6210938,32.5029297 L21.6210938,48.5869141 C21.6210938,49.0556641 21.5551758,49.4316406 21.4233398,49.7148438 C21.2915039,49.9980469 21.1157227,50.215332 20.8959961,50.3666992 C20.6762695,50.5180664 20.4174805,50.6181641 20.1196289,50.6669922 C19.8217773,50.7158203 19.5019531,50.7402344 19.1601562,50.7402344 L19.1601562,50.7402344 L18.9257812,50.7402344 L18.9257812,52 L26.9970703,52 Z M46.0400391,52.2929688 C46.9287109,52.2929688 47.7026367,52.1953125 48.3618164,52 C49.0209961,51.8046875 49.5703125,51.5605469 50.0097656,51.2675781 C50.4492188,50.9746094 50.7763672,50.6547852 50.9912109,50.3081055 C51.2060547,49.9614258 51.3134766,49.6367188 51.3134766,49.3339844 C51.3134766,49.0800781 51.2524414,48.8603516 51.1303711,48.6748047 C51.0083008,48.4892578 50.8789062,48.3671875 50.7421875,48.3085938 C50.5664062,48.5820312 50.3393555,48.8432617 50.0610352,49.0922852 C49.7827148,49.3413086 49.4628906,49.5634766 49.1015625,49.7587891 C48.7402344,49.9541016 48.3374023,50.1103516 47.8930664,50.2275391 C47.4487305,50.3447266 46.9677734,50.4033203 46.4501953,50.4033203 C45.7373047,50.4033203 45.1074219,50.2836914 44.5605469,50.0444336 C44.0136719,49.8051758 43.5522461,49.4316406 43.1762695,48.9238281 C42.800293,48.4160156 42.512207,47.769043 42.3120117,46.9829102 C42.1118164,46.1967773 42.0019531,45.2568359 41.9824219,44.1630859 L41.9824219,44.1630859 L51.9726562,44.1630859 L51.9726562,42.7861328 C51.9726562,41.6044922 51.8286133,40.5668945 51.5405273,39.6733398 C51.2524414,38.7797852 50.8398438,38.0327148 50.3027344,37.4321289 C49.765625,36.831543 49.1113281,36.3798828 48.3398438,36.0771484 C47.5683594,35.7744141 46.6992188,35.6230469 45.7324219,35.6230469 C43.6035156,35.6230469 41.9628906,36.3310547 40.8105469,37.7470703 C39.6582031,39.1630859 39.0820312,41.2724609 39.0820312,44.0751953 C39.0820312,45.3740234 39.2407227,46.5336914 39.5581055,47.5541992 C39.8754883,48.574707 40.3320312,49.4365234 40.9277344,50.1396484 C41.5234375,50.8427734 42.253418,51.3774414 43.1176758,51.7436523 C43.9819336,52.1098633 44.9560547,52.2929688 46.0400391,52.2929688 Z M48.9404297,42.5517578 L42.0410156,42.5517578 C42.1484375,40.8134766 42.5024414,39.4926758 43.1030273,38.5893555 C43.7036133,37.6860352 44.5605469,37.234375 45.6738281,37.234375 C46.2792969,37.234375 46.7895508,37.3613281 47.2045898,37.6152344 C47.6196289,37.8691406 47.9541016,38.2304688 48.2080078,38.6992188 C48.4619141,39.1679688 48.6474609,39.7294922 48.7646484,40.3837891 C48.8818359,41.0380859 48.9404297,41.7607422 48.9404297,42.5517578 L48.9404297,42.5517578 Z M68.5986328,52 L68.5986328,50.7402344 L67.9101562,50.7402344 C67.2363281,50.7402344 66.7358398,50.6230469 66.4086914,50.3886719 C66.081543,50.1542969 65.9179688,49.7832031 65.9179688,49.2753906 C65.9179688,49.109375 65.9423828,48.9116211 65.9912109,48.6821289 C66.0400391,48.4526367 66.1083984,48.2207031 66.1962891,47.9863281 L66.1962891,47.9863281 L67.3388672,44.8369141 L75.2197266,44.8369141 L76.4208984,48.1914062 C76.4990234,48.4160156 76.5600586,48.6162109 76.6040039,48.7919922 C76.6479492,48.9677734 76.6699219,49.1386719 76.6699219,49.3046875 C76.6699219,50.2617188 76.0693359,50.7402344 74.8681641,50.7402344 L74.8681641,50.7402344 L74.1796875,50.7402344 L74.1796875,52 L82.4267578,52 L82.4267578,50.7402344 L82.03125,50.7402344 C81.7382812,50.7402344 81.484375,50.7158203 81.2695312,50.6669922 C81.0546875,50.6181641 80.8642578,50.5327148 80.6982422,50.4106445 C80.5322266,50.2885742 80.3881836,50.125 80.2661133,49.9199219 C80.144043,49.7148438 80.0244141,49.4560547 79.9072266,49.1435547 L79.9072266,49.1435547 L73.125,30.5839844 L70.78125,30.5839844 L64.1308594,48.3964844 C63.9453125,48.875 63.7768555,49.265625 63.6254883,49.5683594 C63.4741211,49.8710938 63.3154297,50.1103516 63.1494141,50.2861328 C62.9833984,50.4619141 62.7978516,50.581543 62.5927734,50.6450195 C62.3876953,50.7084961 62.1386719,50.7402344 61.8457031,50.7402344 L61.8457031,50.7402344 L61.2744141,50.7402344 L61.2744141,52 L68.5986328,52 Z M74.6777344,43.328125 L67.9101562,43.328125 L69.9462891,37.8056641 C70.1220703,37.3369141 70.2783203,36.909668 70.4150391,36.5239258 C70.5517578,36.1381836 70.6738281,35.7695312 70.78125,35.4179688 C70.8886719,35.0664062 70.9887695,34.722168 71.081543,34.3852539 C71.1743164,34.0483398 71.2548828,33.6992188 71.3232422,33.3378906 C71.4892578,34.0605469 71.7016602,34.8100586 71.9604492,35.5864258 C72.2192383,36.362793 72.5048828,37.1953125 72.8173828,38.0839844 L72.8173828,38.0839844 L74.6777344,43.328125 Z M96.7382812,52 L96.7382812,50.7402344 L95.2734375,50.7402344 C94.9316406,50.7402344 94.6118164,50.7158203 94.3139648,50.6669922 C94.0161133,50.6181641 93.7548828,50.5180664 93.5302734,50.3666992 C93.3056641,50.215332 93.1298828,49.9980469 93.0029297,49.7148438 C92.8759766,49.4316406 92.8125,49.0556641 92.8125,48.5869141 L92.8125,48.5869141 L92.8125,30.4667969 L90.8935547,30.4667969 L88.7841797,32.0195312 C88.2861328,32.3808594 87.8344727,32.690918 87.4291992,32.949707 C87.0239258,33.2084961 86.6479492,33.4282227 86.3012695,33.6088867 C85.9545898,33.7895508 85.6274414,33.9360352 85.3198242,34.0483398 C85.012207,34.1606445 84.7070312,34.2558594 84.4042969,34.3339844 C84.4042969,34.8125 84.5458984,35.2006836 84.8291016,35.4985352 C85.1123047,35.7963867 85.4736328,35.9453125 85.9130859,35.9453125 C86.2060547,35.9453125 86.5014648,35.8696289 86.7993164,35.7182617 C87.097168,35.5668945 87.4023438,35.3544922 87.7148438,35.0810547 C88.0273438,34.8076172 88.3544922,34.4804688 88.6962891,34.0996094 C89.0380859,33.71875 89.3994141,33.2939453 89.7802734,32.8251953 L89.7802734,32.8251953 L89.7802734,48.5869141 C89.7802734,49.0556641 89.7143555,49.4316406 89.5825195,49.7148438 C89.4506836,49.9980469 89.2749023,50.215332 89.0551758,50.3666992 C88.8354492,50.5180664 88.5766602,50.6181641 88.2788086,50.6669922 C87.980957,50.7158203 87.6611328,50.7402344 87.3193359,50.7402344 L87.3193359,50.7402344 L85.3125,50.7402344 L85.3125,52 L96.7382812,52 Z M113.510742,52 L113.510742,50.7402344 L112.045898,50.7402344 C111.704102,50.7402344 111.384277,50.7158203 111.086426,50.6669922 C110.788574,50.6181641 110.527344,50.5180664 110.302734,50.3666992 C110.078125,50.215332 109.902344,49.9980469 109.775391,49.7148438 C109.648438,49.4316406 109.584961,49.0556641 109.584961,48.5869141 L109.584961,48.5869141 L109.584961,30.4667969 L107.666016,30.4667969 L105.556641,32.0195312 C105.058594,32.3808594 104.606934,32.690918 104.20166,32.949707 C103.796387,33.2084961 103.42041,33.4282227 103.07373,33.6088867 C102.727051,33.7895508 102.399902,33.9360352 102.092285,34.0483398 C101.784668,34.1606445 101.479492,34.2558594 101.176758,34.3339844 C101.176758,34.8125 101.318359,35.2006836 101.601562,35.4985352 C101.884766,35.7963867 102.246094,35.9453125 102.685547,35.9453125 C102.978516,35.9453125 103.273926,35.8696289 103.571777,35.7182617 C103.869629,35.5668945 104.174805,35.3544922 104.487305,35.0810547 C104.799805,34.8076172 105.126953,34.4804688 105.46875,34.0996094 C105.810547,33.71875 106.171875,33.2939453 106.552734,32.8251953 L106.552734,32.8251953 L106.552734,48.5869141 C106.552734,49.0556641 106.486816,49.4316406 106.35498,49.7148438 C106.223145,49.9980469 106.047363,50.215332 105.827637,50.3666992 C105.60791,50.5180664 105.349121,50.6181641 105.05127,50.6669922 C104.753418,50.7158203 104.433594,50.7402344 104.091797,50.7402344 L104.091797,50.7402344 L102.084961,50.7402344 L102.084961,52 L113.510742,52 Z M130.078125,52 L130.078125,50.7402344 L129.375,50.7402344 C129.042969,50.7402344 128.728027,50.7158203 128.430176,50.6669922 C128.132324,50.6181641 127.871094,50.5180664 127.646484,50.3666992 C127.421875,50.215332 127.246094,49.9980469 127.119141,49.7148438 C126.992188,49.4316406 126.928711,49.0556641 126.928711,48.5869141 L126.928711,48.5869141 L126.928711,43.0644531 L131.967773,34.1728516 C132.22168,33.7236328 132.453613,33.3500977 132.663574,33.0522461 C132.873535,32.7543945 133.076172,32.5151367 133.271484,32.3344727 C133.466797,32.1538086 133.659668,32.0268555 133.850098,31.9536133 C134.040527,31.8803711 134.243164,31.84375 134.458008,31.84375 L134.458008,31.84375 L134.80957,31.84375 L134.80957,30.5839844 L127.485352,30.5839844 L127.485352,31.84375 L128.364258,31.84375 C128.94043,31.84375 129.384766,31.9536133 129.697266,32.1733398 C130.009766,32.3930664 130.166016,32.7226562 130.166016,33.1621094 C130.166016,33.40625 130.124512,33.6821289 130.041504,33.9897461 C129.958496,34.2973633 129.819336,34.6220703 129.624023,34.9638672 L129.624023,34.9638672 L127.705078,38.40625 C127.529297,38.71875 127.353516,39.0336914 127.177734,39.3510742 C127.001953,39.668457 126.833496,39.9760742 126.672363,40.2739258 C126.51123,40.5717773 126.364746,40.8525391 126.23291,41.1162109 C126.101074,41.3798828 125.991211,41.6191406 125.90332,41.8339844 C125.737305,41.3652344 125.532227,40.8305664 125.288086,40.2299805 C125.043945,39.6293945 124.746094,39.0214844 124.394531,38.40625 L124.394531,38.40625 L122.182617,34.3925781 C122.06543,34.1777344 121.945801,33.9287109 121.82373,33.6455078 C121.70166,33.3623047 121.640625,33.0791016 121.640625,32.7958984 C121.640625,32.6689453 121.657715,32.546875 121.691895,32.4296875 C121.726074,32.3125 121.791992,32.2099609 121.889648,32.1220703 C121.987305,32.0341797 122.121582,31.9658203 122.29248,31.9169922 C122.463379,31.8681641 122.685547,31.84375 122.958984,31.84375 L122.958984,31.84375 L124.072266,31.84375 L124.072266,30.5839844 L115.825195,30.5839844 L115.825195,31.84375 L116.206055,31.84375 C116.459961,31.84375 116.68457,31.8730469 116.879883,31.9316406 C117.075195,31.9902344 117.253418,32.0830078 117.414551,32.2099609 C117.575684,32.3369141 117.729492,32.5004883 117.875977,32.7006836 C118.022461,32.9008789 118.178711,33.1425781 118.344727,33.4257812 L118.344727,33.4257812 L123.896484,43.0644531 L123.896484,48.7333984 C123.896484,49.1728516 123.830566,49.5268555 123.69873,49.7954102 C123.566895,50.0639648 123.388672,50.2666016 123.164062,50.4033203 C122.939453,50.5400391 122.678223,50.6303711 122.380371,50.6743164 C122.08252,50.7182617 121.767578,50.7402344 121.435547,50.7402344 L121.435547,50.7402344 L120.74707,50.7402344 L120.74707,52 L130.078125,52 Z M152.988281,52 L152.988281,50.7402344 L151.992188,50.7402344 C151.660156,50.7402344 151.345215,50.7182617 151.047363,50.6743164 C150.749512,50.6303711 150.488281,50.5400391 150.263672,50.4033203 C150.039062,50.2666016 149.86084,50.0639648 149.729004,49.7954102 C149.597168,49.5268555 149.53125,49.1728516 149.53125,48.7333984 L149.53125,48.7333984 L149.53125,43.6650391 L151.420898,43.6650391 C152.905273,43.6650391 154.160156,43.4770508 155.185547,43.1010742 C156.210938,42.7250977 157.041016,42.222168 157.675781,41.5922852 C158.310547,40.9624023 158.76709,40.2373047 159.04541,39.4169922 C159.32373,38.5966797 159.462891,37.7421875 159.462891,36.8535156 C159.462891,35.8769531 159.313965,35.0029297 159.016113,34.2314453 C158.718262,33.4599609 158.266602,32.8032227 157.661133,32.2612305 C157.055664,31.7192383 156.289062,31.3041992 155.361328,31.0161133 C154.433594,30.7280273 153.339844,30.5839844 152.080078,30.5839844 L152.080078,30.5839844 L143.657227,30.5839844 L143.657227,31.84375 L144.038086,31.84375 C144.370117,31.84375 144.685059,31.8657227 144.98291,31.909668 C145.280762,31.9536133 145.541992,32.0488281 145.766602,32.1953125 C145.991211,32.3417969 146.169434,32.5493164 146.30127,32.8178711 C146.433105,33.0864258 146.499023,33.4404297 146.499023,33.8798828 L146.499023,33.8798828 L146.499023,48.5869141 C146.499023,49.0556641 146.435547,49.4316406 146.308594,49.7148438 C146.181641,49.9980469 146.005859,50.215332 145.78125,50.3666992 C145.556641,50.5180664 145.29541,50.6181641 144.997559,50.6669922 C144.699707,50.7158203 144.379883,50.7402344 144.038086,50.7402344 L144.038086,50.7402344 L143.657227,50.7402344 L143.657227,52 L152.988281,52 Z M151.12793,42.2441406 L149.53125,42.2441406 L149.53125,32.0195312 L151.567383,32.0195312 C152.416992,32.0195312 153.137207,32.1196289 153.728027,32.3198242 C154.318848,32.5200195 154.799805,32.8251953 155.170898,33.2353516 C155.541992,33.6455078 155.810547,34.1606445 155.976562,34.7807617 C156.142578,35.4008789 156.225586,36.1308594 156.225586,36.9707031 C156.225586,37.9179688 156.130371,38.7260742 155.939941,39.3950195 C155.749512,40.0639648 155.449219,40.6108398 155.039062,41.0356445 C154.628906,41.4604492 154.101562,41.7680664 153.457031,41.9584961 C152.8125,42.1489258 152.036133,42.2441406 151.12793,42.2441406 L151.12793,42.2441406 Z M170.288086,52 L170.288086,50.7402344 L169.453125,50.7402344 C169.121094,50.7402344 168.806152,50.7182617 168.508301,50.6743164 C168.210449,50.6303711 167.949219,50.5400391 167.724609,50.4033203 C167.5,50.2666016 167.321777,50.0639648 167.189941,49.7954102 C167.058105,49.5268555 166.992188,49.1728516 166.992188,48.7333984 L166.992188,48.7333984 L166.992188,44.0166016 C166.992188,43.6357422 167.011719,43.2109375 167.050781,42.7421875 C167.089844,42.2734375 167.155762,41.8022461 167.248535,41.3286133 C167.341309,40.8549805 167.463379,40.3935547 167.614746,39.9443359 C167.766113,39.4951172 167.95166,39.097168 168.171387,38.7504883 C168.391113,38.4038086 168.647461,38.1254883 168.94043,37.9155273 C169.233398,37.7055664 169.56543,37.6005859 169.936523,37.6005859 C170.522461,37.6005859 170.932617,37.7836914 171.166992,38.1499023 C171.401367,38.5161133 171.518555,39.1142578 171.518555,39.9443359 C172.026367,39.9443359 172.456055,39.8930664 172.807617,39.7905273 C173.15918,39.6879883 173.447266,39.5415039 173.671875,39.3510742 C173.896484,39.1606445 174.060059,38.9335938 174.162598,38.6699219 C174.265137,38.40625 174.316406,38.1181641 174.316406,37.8056641 C174.316406,37.1123047 174.050293,36.5751953 173.518066,36.1943359 C172.98584,35.8134766 172.172852,35.6230469 171.079102,35.6230469 C170.415039,35.6230469 169.863281,35.7084961 169.423828,35.8793945 C168.984375,36.050293 168.615723,36.284668 168.317871,36.5825195 C168.02002,36.8803711 167.768555,37.2270508 167.563477,37.6225586 C167.358398,38.0180664 167.158203,38.4404297 166.962891,38.8896484 L166.962891,38.8896484 L166.816406,38.8896484 L166.245117,35.9160156 L161.630859,35.9160156 L161.630859,37.1757812 L161.71875,37.1757812 C162.050781,37.1757812 162.365723,37.2001953 162.663574,37.2490234 C162.961426,37.2978516 163.222656,37.3955078 163.447266,37.5419922 C163.671875,37.6884766 163.850098,37.8959961 163.981934,38.1645508 C164.11377,38.4331055 164.179688,38.7871094 164.179688,39.2265625 L164.179688,39.2265625 L164.179688,48.5869141 C164.179688,49.0556641 164.11377,49.4316406 163.981934,49.7148438 C163.850098,49.9980469 163.674316,50.215332 163.45459,50.3666992 C163.234863,50.5180664 162.976074,50.6181641 162.678223,50.6669922 C162.380371,50.7158203 162.060547,50.7402344 161.71875,50.7402344 L161.71875,50.7402344 L161.630859,50.7402344 L161.630859,52 L170.288086,52 Z M183.383789,52.2929688 C185.688477,52.2929688 187.438965,51.6044922 188.635254,50.2275391 C189.831543,48.8505859 190.429688,46.7509766 190.429688,43.9287109 C190.429688,42.5224609 190.270996,41.2993164 189.953613,40.2592773 C189.63623,39.2192383 189.177246,38.3549805 188.57666,37.6665039 C187.976074,36.9780273 187.246094,36.465332 186.386719,36.128418 C185.527344,35.7915039 184.555664,35.6230469 183.47168,35.6230469 C181.147461,35.6230469 179.39209,36.3066406 178.205566,37.6738281 C177.019043,39.0410156 176.425781,41.1259766 176.425781,43.9287109 C176.425781,45.3349609 176.584473,46.5629883 176.901855,47.612793 C177.219238,48.6625977 177.678223,49.5341797 178.278809,50.2275391 C178.879395,50.9208984 179.609375,51.4384766 180.46875,51.7802734 C181.328125,52.1220703 182.299805,52.2929688 183.383789,52.2929688 Z M183.442383,50.7402344 C182.69043,50.7402344 182.053223,50.59375 181.530762,50.3007812 C181.008301,50.0078125 180.583496,49.5756836 180.256348,49.0043945 C179.929199,48.4331055 179.692383,47.7226562 179.545898,46.8730469 C179.399414,46.0234375 179.326172,45.0419922 179.326172,43.9287109 C179.326172,42.8154297 179.399414,41.8388672 179.545898,40.9990234 C179.692383,40.1591797 179.926758,39.4584961 180.249023,38.8969727 C180.571289,38.3354492 180.991211,37.9130859 181.508789,37.6298828 C182.026367,37.3466797 182.661133,37.2050781 183.413086,37.2050781 C184.165039,37.2050781 184.802246,37.3466797 185.324707,37.6298828 C185.847168,37.9130859 186.269531,38.3354492 186.591797,38.8969727 C186.914062,39.4584961 187.148438,40.1591797 187.294922,40.9990234 C187.441406,41.8388672 187.514648,42.8154297 187.514648,43.9287109 C187.514648,45.0419922 187.443848,46.0234375 187.302246,46.8730469 C187.160645,47.7226562 186.928711,48.4331055 186.606445,49.0043945 C186.28418,49.5756836 185.864258,50.0078125 185.34668,50.3007812 C184.829102,50.59375 184.194336,50.7402344 183.442383,50.7402344 Z M196.611328,32.9130859 C196.845703,32.9130859 197.067871,32.8813477 197.277832,32.8178711 C197.487793,32.7543945 197.668457,32.6494141 197.819824,32.5029297 C197.971191,32.3564453 198.093262,32.1660156 198.186035,31.9316406 C198.278809,31.6972656 198.325195,31.4042969 198.325195,31.0527344 C198.325195,30.7011719 198.278809,30.4082031 198.186035,30.1738281 C198.093262,29.9394531 197.971191,29.7490234 197.819824,29.6025391 C197.668457,29.4560547 197.487793,29.3535156 197.277832,29.2949219 C197.067871,29.2363281 196.845703,29.2070312 196.611328,29.2070312 C196.376953,29.2070312 196.154785,29.2363281 195.944824,29.2949219 C195.734863,29.3535156 195.554199,29.4560547 195.402832,29.6025391 C195.251465,29.7490234 195.131836,29.9394531 195.043945,30.1738281 C194.956055,30.4082031 194.912109,30.7011719 194.912109,31.0527344 C194.912109,31.4042969 194.956055,31.6972656 195.043945,31.9316406 C195.131836,32.1660156 195.251465,32.3564453 195.402832,32.5029297 C195.554199,32.6494141 195.734863,32.7543945 195.944824,32.8178711 C196.154785,32.8813477 196.376953,32.9130859 196.611328,32.9130859 Z M192.202148,59.2070312 C193.071289,59.2070312 193.869629,59.0947266 194.597168,58.8701172 C195.324707,58.6455078 195.952148,58.2670898 196.479492,57.7348633 C197.006836,57.2026367 197.416992,56.4897461 197.709961,55.5961914 C198.00293,54.7026367 198.149414,53.5820312 198.149414,52.234375 L198.149414,52.234375 L198.149414,35.9160156 L192.773438,35.9160156 L192.773438,37.1757812 L192.861328,37.1757812 C193.193359,37.1757812 193.508301,37.2001953 193.806152,37.2490234 C194.104004,37.2978516 194.365234,37.3955078 194.589844,37.5419922 C194.814453,37.6884766 194.992676,37.8959961 195.124512,38.1645508 C195.256348,38.4331055 195.322266,38.7871094 195.322266,39.2265625 L195.322266,39.2265625 L195.322266,52.2636719 C195.322266,53.3183594 195.246582,54.199707 195.095215,54.9077148 C194.943848,55.6157227 194.724121,56.1821289 194.436035,56.6069336 C194.147949,57.0317383 193.793945,57.3344727 193.374023,57.5151367 C192.954102,57.6958008 192.475586,57.7861328 191.938477,57.7861328 L191.938477,57.7861328 L191.71875,57.7861328 L191.71875,59.2070312 L192.202148,59.2070312 Z M209.692383,52.2929688 C210.581055,52.2929688 211.35498,52.1953125 212.01416,52 C212.67334,51.8046875 213.222656,51.5605469 213.662109,51.2675781 C214.101562,50.9746094 214.428711,50.6547852 214.643555,50.3081055 C214.858398,49.9614258 214.96582,49.6367188 214.96582,49.3339844 C214.96582,49.0800781 214.904785,48.8603516 214.782715,48.6748047 C214.660645,48.4892578 214.53125,48.3671875 214.394531,48.3085938 C214.21875,48.5820312 213.991699,48.8432617 213.713379,49.0922852 C213.435059,49.3413086 213.115234,49.5634766 212.753906,49.7587891 C212.392578,49.9541016 211.989746,50.1103516 211.54541,50.2275391 C211.101074,50.3447266 210.620117,50.4033203 210.102539,50.4033203 C209.389648,50.4033203 208.759766,50.2836914 208.212891,50.0444336 C207.666016,49.8051758 207.20459,49.4316406 206.828613,48.9238281 C206.452637,48.4160156 206.164551,47.769043 205.964355,46.9829102 C205.76416,46.1967773 205.654297,45.2568359 205.634766,44.1630859 L205.634766,44.1630859 L215.625,44.1630859 L215.625,42.7861328 C215.625,41.6044922 215.480957,40.5668945 215.192871,39.6733398 C214.904785,38.7797852 214.492188,38.0327148 213.955078,37.4321289 C213.417969,36.831543 212.763672,36.3798828 211.992188,36.0771484 C211.220703,35.7744141 210.351562,35.6230469 209.384766,35.6230469 C207.255859,35.6230469 205.615234,36.3310547 204.462891,37.7470703 C203.310547,39.1630859 202.734375,41.2724609 202.734375,44.0751953 C202.734375,45.3740234 202.893066,46.5336914 203.210449,47.5541992 C203.527832,48.574707 203.984375,49.4365234 204.580078,50.1396484 C205.175781,50.8427734 205.905762,51.3774414 206.77002,51.7436523 C207.634277,52.1098633 208.608398,52.2929688 209.692383,52.2929688 Z M212.592773,42.5517578 L205.693359,42.5517578 C205.800781,40.8134766 206.154785,39.4926758 206.755371,38.5893555 C207.355957,37.6860352 208.212891,37.234375 209.326172,37.234375 C209.931641,37.234375 210.441895,37.3613281 210.856934,37.6152344 C211.271973,37.8691406 211.606445,38.2304688 211.860352,38.6992188 C212.114258,39.1679688 212.299805,39.7294922 212.416992,40.3837891 C212.53418,41.0380859 212.592773,41.7607422 212.592773,42.5517578 L212.592773,42.5517578 Z M225.629883,52.2929688 C226.479492,52.2929688 227.22168,52.2075195 227.856445,52.0366211 C228.491211,51.8657227 229.020996,51.6435547 229.445801,51.3701172 C229.870605,51.0966797 230.19043,50.7890625 230.405273,50.4472656 C230.620117,50.1054688 230.727539,49.7636719 230.727539,49.421875 C230.727539,49.1484375 230.678711,48.9140625 230.581055,48.71875 C230.483398,48.5234375 230.361328,48.3671875 230.214844,48.25 C229.873047,48.8652344 229.355469,49.3681641 228.662109,49.7587891 C227.96875,50.1494141 227.158203,50.3447266 226.230469,50.3447266 C224.619141,50.3447266 223.459473,49.8222656 222.751465,48.7773438 C222.043457,47.7324219 221.689453,46.1455078 221.689453,44.0166016 C221.689453,42.6787109 221.777344,41.5654297 221.953125,40.6767578 C222.128906,39.7880859 222.382812,39.0800781 222.714844,38.5527344 C223.046875,38.0253906 223.444824,37.6542969 223.908691,37.4394531 C224.372559,37.2246094 224.892578,37.1171875 225.46875,37.1171875 C225.976562,37.1171875 226.394043,37.2075195 226.721191,37.3881836 C227.04834,37.5688477 227.307129,37.8178711 227.497559,38.1352539 C227.687988,38.4526367 227.822266,38.8212891 227.900391,39.2412109 C227.978516,39.6611328 228.017578,40.1054688 228.017578,40.5742188 C228.90625,40.5742188 229.575195,40.4326172 230.024414,40.1494141 C230.473633,39.8662109 230.698242,39.3779297 230.698242,38.6845703 C230.698242,38.1669922 230.541992,37.715332 230.229492,37.3295898 C229.916992,36.9438477 229.511719,36.6240234 229.013672,36.3701172 C228.515625,36.1162109 227.956543,35.9282227 227.336426,35.8061523 C226.716309,35.684082 226.09375,35.6230469 225.46875,35.6230469 C224.521484,35.6230469 223.640137,35.7597656 222.824707,36.0332031 C222.009277,36.3066406 221.30127,36.7705078 220.700684,37.4248047 C220.100098,38.0791016 219.631348,38.9458008 219.294434,40.0249023 C218.95752,41.1040039 218.789062,42.4443359 218.789062,44.0458984 C218.789062,45.5205078 218.95752,46.777832 219.294434,47.8178711 C219.631348,48.8579102 220.102539,49.7099609 220.708008,50.3740234 C221.313477,51.0380859 222.036133,51.5239258 222.875977,51.831543 C223.71582,52.1391602 224.633789,52.2929688 225.629883,52.2929688 Z M239.106445,52.2929688 C239.34082,52.2929688 239.589844,52.2807617 239.853516,52.2563477 C240.117188,52.2319336 240.368652,52.1977539 240.60791,52.1538086 C240.847168,52.1098633 241.069336,52.0585938 241.274414,52 C241.479492,51.9414062 241.645508,51.8828125 241.772461,51.8242188 L241.772461,51.8242188 L241.772461,50.5058594 C241.459961,50.5644531 241.152344,50.6132812 240.849609,50.6523438 C240.546875,50.6914062 240.214844,50.7109375 239.853516,50.7109375 C239.160156,50.7109375 238.605957,50.4716797 238.190918,49.9931641 C237.775879,49.5146484 237.568359,48.7626953 237.568359,47.7373047 L237.568359,47.7373047 L237.568359,37.6298828 L241.494141,37.6298828 L241.494141,35.9160156 L237.568359,35.9160156 L237.568359,32.2246094 L236.191406,32.2246094 C236.035156,32.9960938 235.852051,33.6381836 235.64209,34.1508789 C235.432129,34.6635742 235.15625,35.1054688 234.814453,35.4765625 C234.482422,35.8183594 234.099121,36.0625 233.664551,36.2089844 C233.22998,36.3554688 232.832031,36.4287109 232.470703,36.4287109 L232.470703,36.4287109 L232.470703,37.6298828 L234.755859,37.6298828 L234.755859,47.6494141 C234.755859,48.5087891 234.841309,49.2363281 235.012207,49.8320312 C235.183105,50.4277344 235.444336,50.90625 235.795898,51.2675781 C236.147461,51.6289062 236.59668,51.8901367 237.143555,52.0512695 C237.69043,52.2124023 238.344727,52.2929688 239.106445,52.2929688 Z" id="TheA11YProject" fill="#F9C9E8"></path>
        </g>
        <g id="Group-2" transform="translate(39.000000, 113.000000)">
            <rect id="Rectangle" stroke="#FFFFFF" stroke-width="4" fill="#F9C9E8" x="2" y="2" width="239" height="35"></rect>
            <path d="M88.3730469,24 L88.2568359,23.3164062 L84.8935547,23.3164062 L84.8935547,15.2226562 L84.0185547,15.2226562 L84.0185547,24 L88.3730469,24 Z M95.6408913,24 L95.5315163,23.3164062 L91.8059304,23.3164062 L91.8059304,19.7207031 L95.2307351,19.7207031 L95.2307351,19.0644531 L91.8059304,19.0644531 L91.8059304,15.90625 L95.463157,15.90625 L95.6135476,15.2226562 L90.9309304,15.2226562 L90.9309304,24 L95.6408913,24 Z M98.8003374,24 L99.4839311,21.7578125 L102.949751,21.7578125 L103.612837,24 L104.501509,24 L101.890181,15.2226562 L100.584517,15.2226562 L97.850142,24 L98.8003374,24 Z M102.737837,21.1289062 L99.6890092,21.1289062 L101.240767,15.9746094 L102.737837,21.1289062 Z M112.090643,24.1708984 L112.808416,23.7197266 L112.425604,23.0976562 C112.170395,22.6829427 111.868475,22.1622721 111.519842,21.5356445 C111.171209,20.9090169 110.903468,20.3837891 110.716619,19.9599609 C111.295395,19.8277995 111.722641,19.5851237 111.998358,19.2319336 C112.274074,18.8787435 112.411932,18.3671875 112.411932,17.6972656 C112.411932,17.3417969 112.380031,17.0307617 112.316229,16.7641602 C112.252427,16.4975586 112.151027,16.2742513 112.012029,16.0942383 C111.873032,15.9142253 111.712388,15.7661133 111.530096,15.6499023 C111.347804,15.5336914 111.115382,15.4448242 110.83283,15.3833008 C110.550278,15.3217773 110.26089,15.2796224 109.964666,15.2568359 C109.668442,15.2340495 109.310695,15.2226562 108.891424,15.2226562 L108.891424,15.2226562 L107.161932,15.2226562 L107.161932,24 L108.036932,24 L108.036932,20.1240234 L108.788885,20.1240234 C109.203598,20.1240234 109.575018,20.1103516 109.903143,20.0830078 C110.418117,21.2496745 111.147283,22.6123047 112.090643,24.1708984 L112.090643,24.1708984 Z M108.631658,19.4746094 L108.036932,19.4746094 L108.036932,15.90625 L109.056341,15.9068909 C109.252874,15.9081726 109.421209,15.911377 109.561346,15.9165039 C109.748195,15.9233398 109.946437,15.9404297 110.156072,15.9677734 C110.365708,15.9951172 110.533188,16.0349935 110.658514,16.0874023 C110.783839,16.1398112 110.909165,16.2093099 111.03449,16.2958984 C111.159816,16.382487 111.255519,16.4895833 111.3216,16.6171875 C111.387681,16.7447917 111.440089,16.8997396 111.478826,17.0820312 C111.517563,17.2643229 111.536932,17.4739583 111.536932,17.7109375 C111.536932,17.9707031 111.517563,18.1917318 111.478826,18.3740234 C111.440089,18.5563151 111.37173,18.7135417 111.273748,18.8457031 C111.175766,18.9778646 111.058416,19.0838216 110.921697,19.1635742 C110.784979,19.2433268 110.600408,19.3071289 110.367987,19.3549805 C110.135565,19.402832 109.887192,19.4347331 109.622869,19.4506836 C109.358546,19.4666341 109.028143,19.4746094 108.631658,19.4746094 L108.631658,19.4746094 Z M116.466886,24 L116.466886,16.6103516 L120.889737,24 L121.751065,24 L121.751065,15.2226562 L120.958097,15.2226562 L120.958097,22.5029297 L116.562589,15.2226562 L115.632901,15.2226562 L115.632901,24 L116.466886,24 Z M131.836559,24 L131.836559,19.8847656 L135.801403,19.8847656 L135.801403,24 L136.676403,24 L136.676403,15.2226562 L135.801403,15.2226562 L135.801403,19.1943359 L131.836559,19.1943359 L131.836559,15.2226562 L130.961559,15.2226562 L130.961559,24 L131.836559,24 Z M142.823153,24.0683594 C143.310784,24.0683594 143.732333,24.0011393 144.087802,23.8666992 C144.443271,23.7322591 144.736077,23.5454102 144.96622,23.3061523 C145.196363,23.0668945 145.379794,22.7569987 145.516513,22.3764648 C145.653232,21.995931 145.748935,21.5823568 145.803622,21.1357422 C145.85831,20.6891276 145.885653,20.1673177 145.885653,19.5703125 C145.885653,18.9778646 145.856031,18.457194 145.796786,18.0083008 C145.737541,17.5594076 145.637281,17.1469727 145.496005,16.7709961 C145.354729,16.3950195 145.16788,16.0885417 144.935458,15.8515625 C144.703036,15.6145833 144.41023,15.4311523 144.05704,15.3012695 C143.70385,15.1713867 143.292554,15.1064453 142.823153,15.1064453 C142.353752,15.1064453 141.941317,15.172526 141.585849,15.3046875 C141.234937,15.4322917 140.943271,15.6145833 140.710849,15.8515625 C140.478427,16.0885417 140.291578,16.3950195 140.150302,16.7709961 C140.009026,17.1469727 139.908765,17.5594076 139.849521,18.0083008 C139.790276,18.457194 139.760653,18.9778646 139.760653,19.5703125 C139.760653,20.1673177 139.787997,20.6891276 139.842685,21.1357422 C139.897372,21.5823568 139.993075,21.995931 140.129794,22.3764648 C140.266513,22.7569987 140.449944,23.0668945 140.680087,23.3061523 C140.91023,23.5454102 141.203036,23.7322591 141.558505,23.8666992 C141.913974,24.0011393 142.335523,24.0683594 142.823153,24.0683594 Z M142.823153,23.34375 C141.993726,23.34375 141.421786,23.0566406 141.107333,22.4824219 C140.79288,21.9036458 140.635653,20.9397786 140.635653,19.5908203 C140.635653,18.2373047 140.794019,17.2722982 141.110751,16.6958008 C141.427483,16.1193034 141.998284,15.8310547 142.823153,15.8310547 C143.648023,15.8310547 144.218824,16.1193034 144.535556,16.6958008 C144.852288,17.2722982 145.010653,18.2373047 145.010653,19.5908203 C145.010653,20.9397786 144.853427,21.9025065 144.538974,22.4790039 C144.224521,23.0555013 143.65258,23.34375 142.823153,23.34375 Z M150.870295,24 L152.606623,19.2011719 L154.397638,24 L155.368342,24 L156.188654,15.2226562 L155.382013,15.2226562 L154.657404,22.7490234 L152.996271,18.2167969 L152.210138,18.2167969 L150.617365,22.7353516 L149.831232,15.2226562 L149.024592,15.2226562 L149.906428,24 L150.870295,24 Z" id="LEARNHOW" fill="#000000" fill-rule="nonzero"></path>
        </g>
    </g>
</svg>