<svg width="217" height="254" fill="none" xmlns="http://www.w3.org/2000/svg"><path d="M204.9 233.217c0 4.02-.84 7.56-2.52 10.62-1.68 3.06-4.32 5.49-7.92 7.29-3.66 1.74-8.43 2.61-14.31 2.61-6.42 0-11.46-.87-15.12-2.61-3.72-1.8-6.33-4.2-7.83-7.2-1.56-3-2.34-6.42-2.34-10.26 0-2.52.33-4.98.99-7.38.66-2.4 1.68-4.38 3.06-5.94 1.38-1.56 3.09-2.34 5.13-2.34s3.51.69 4.41 2.07c.84 1.32 1.26 3.3 1.26 5.94-2.82 0-5.25.54-7.29 1.62-2.04 1.02-3.06 3.03-3.06 6.03 0 2.28.6 4.29 1.8 6.03 1.2 1.68 3.3 3 6.3 3.96 3 .9 7.2 1.35 12.6 1.35 6.36 0 11.13-1.05 14.31-3.15 3.12-2.16 4.68-5.64 4.68-10.44 0-2.82-.57-5.25-1.71-7.29-1.2-2.1-2.73-3.66-4.59-4.68.84-1.02 2.01-1.53 3.51-1.53 1.38 0 2.73.57 4.05 1.71 1.32 1.14 2.43 2.85 3.33 5.13.84 2.22 1.26 5.04 1.26 8.46zM204.9 188.561c0 6.48-2.07 11.58-6.21 15.3-4.14 3.72-10.44 5.58-18.9 5.58-8.4 0-14.64-1.77-18.72-5.31-4.14-3.6-6.21-8.88-6.21-15.84 0-6.48 2.07-11.58 6.21-15.3 4.08-3.72 10.32-5.58 18.72-5.58 8.46 0 14.76 1.8 18.9 5.4 4.14 3.6 6.21 8.85 6.21 15.75zm-4.68-.18c0-4.5-1.71-7.65-5.13-9.45-3.48-1.86-8.58-2.79-15.3-2.79-6.72 0-11.76.93-15.12 2.79-3.36 1.86-5.04 5.04-5.04 9.54 0 4.5 1.68 7.68 5.04 9.54 3.36 1.8 8.4 2.7 15.12 2.7 6.72 0 11.82-.93 15.3-2.79 3.42-1.86 5.13-5.04 5.13-9.54zM204.9 139.137c0 5.94-1.98 10.5-5.94 13.68-4.02 3.12-10.35 4.68-18.99 4.68-8.7 0-15.06-1.56-19.08-4.68-4.02-3.18-6.03-7.74-6.03-13.68 0-3.48.75-6.3 2.25-8.46 1.44-2.22 3.33-3.99 5.67-5.31v-.54c-1.5.18-3.15.33-4.95.45-1.86.06-3.51.09-4.95.09h-7.38c-2.64 0-4.32.75-5.04 2.25-.72 1.44-1.08 3.15-1.08 5.13v.72h-3.78v-16.56h58.5c2.64 0 4.32-.72 5.04-2.16.72-1.5 1.08-3.24 1.08-5.22v-.72H204v15.21l-8.1.99v.36c2.76 1.32 4.95 3.06 6.57 5.22 1.62 2.16 2.43 5.01 2.43 8.55zm-5.76-1.53c0-4.68-1.56-7.89-4.68-9.63-3.18-1.74-8.01-2.61-14.49-2.61-6.24 0-11.01.87-14.31 2.61-3.36 1.74-5.04 4.98-5.04 9.72 0 3.96 1.68 6.81 5.04 8.55 3.3 1.68 8.1 2.52 14.4 2.52 6.36 0 11.13-.84 14.31-2.52 3.18-1.74 4.77-4.62 4.77-8.64zM204.9 81.334c0 6.54-2.16 11.67-6.48 15.39-4.32 3.66-10.38 5.49-18.18 5.49-8.4 0-14.73-1.71-18.99-5.13-4.26-3.48-6.39-8.43-6.39-14.85 0-5.82 1.8-10.38 5.4-13.68 3.6-3.36 8.97-5.04 16.11-5.04h4.14v29.97c6.54-.12 11.31-1.29 14.31-3.51 2.94-2.28 4.41-5.58 4.41-9.9 0-3.12-.63-5.76-1.89-7.92-1.32-2.22-2.79-3.87-4.41-4.95.18-.42.54-.81 1.08-1.17.54-.36 1.2-.54 1.98-.54 1.2 0 2.49.57 3.87 1.71 1.38 1.14 2.58 2.91 3.6 5.31.96 2.34 1.44 5.28 1.44 8.82zm-29.25 11.97v-20.7c-4.74 0-8.58.75-11.52 2.25-2.94 1.44-4.41 3.96-4.41 7.56 0 3.3 1.38 5.88 4.14 7.74 2.7 1.8 6.63 2.85 11.79 3.15z" fill="#383838"/><path d="M136.791 16V.952h8.016l-.264 1.176h-6.264v5.4h5.88v1.128h-5.88v6.168h6.384l.192 1.176h-8.064zM146.348 16l3.744-7.704L146.66.952h1.536l2.952 6.312 2.928-6.312h1.368l-3.336 7.344L155.852 16h-1.488l-3.216-6.672L147.98 16h-1.632zM157.015 16L161.719.952h2.232L168.415 16h-1.512l-1.128-3.84h-5.952L158.647 16h-1.632zm3.168-4.92h5.208l-2.544-8.832-2.664 8.832zM170.678 16L171.854.952h1.656l3.552 8.232 3.432-8.232h1.656L183.422 16h-1.368l-1.128-12.888-3.192 7.752h-1.344l-3.312-7.776L172.07 16h-1.392zM186.783.952h4.08c1.632 0 2.856.328 3.672.984.832.656 1.248 1.808 1.248 3.456 0 1.168-.232 2.064-.696 2.688-.464.624-1.144 1.056-2.04 1.296-.88.224-2.048.336-3.504.336h-1.272V16h-1.488V.952zm2.472 7.536c1.344 0 2.344-.048 3-.144.656-.112 1.152-.384 1.488-.816.352-.448.528-1.152.528-2.112 0-1.248-.264-2.104-.792-2.568-.512-.48-1.352-.72-2.52-.72h-2.688v6.36h.984zM198.268 16V.952h1.488v13.872h5.76l.216 1.176h-7.464zM207.947 16V.952h8.016l-.264 1.176h-6.264v5.4h5.88v1.128h-5.88v6.168h6.384l.192 1.176h-8.064z" fill="#2F7851"/><path stroke="#2F7851" d="M118 8.5H0"/></svg>