<svg id="level-aaa" xmlns="http://www.w3.org/2000/svg" viewBox="0 0 204 73"><defs><style>.cls-1{fill:#232d71;}</style></defs><path class="cls-1" d="M.15,73V68.76H2.07a5.69,5.69,0,0,0,4.35-1.52q1.51-1.51,3.33-6.36L32.17.89h7.88L62.88,63.4a8.84,8.84,0,0,0,2.62,4.25,8,8,0,0,0,4.55,1.11h1.31V73H43.58V68.76h2.33q6.06,0,6.06-4.85a8.27,8.27,0,0,0-.2-1.72,17.62,17.62,0,0,0-.61-2l-4-11.31H20.56L16.72,59.47a12.41,12.41,0,0,0-.91,4.34q0,4.95,6.67,5H24.8V73ZM22.48,43.81H45.3L39,26.14c-1.08-3-2-5.76-2.93-8.39A78.07,78.07,0,0,1,34,10.18a55.53,55.53,0,0,1-1.82,7q-1.11,3.33-2.83,8.08Z"/><path class="cls-1" d="M66.32,73V68.76h1.92a5.67,5.67,0,0,0,4.34-1.52q1.52-1.51,3.33-6.36L98.33.89h7.88L129,63.4a8.84,8.84,0,0,0,2.62,4.25,8,8,0,0,0,4.55,1.11h1.31V73H109.75V68.76h2.32q6.06,0,6.06-4.85a8.27,8.27,0,0,0-.2-1.72,17.62,17.62,0,0,0-.61-2l-4-11.31H86.72L82.88,59.47A12.64,12.64,0,0,0,82,63.81q0,4.95,6.67,5H91V73ZM88.64,43.81h22.82L105.2,26.14c-1.08-3-2-5.76-2.93-8.39a78.07,78.07,0,0,1-2.12-7.57,53.86,53.86,0,0,1-1.82,7q-1.11,3.33-2.82,8.08Z"/><path class="cls-1" d="M132.48,73V68.76h1.92a5.67,5.67,0,0,0,4.34-1.52q1.51-1.51,3.34-6.36L164.5.89h7.88L195.2,63.4a8.84,8.84,0,0,0,2.63,4.25,7.93,7.93,0,0,0,4.54,1.11h1.32V73H175.91V68.76h2.32q6.06,0,6.06-4.85a7.64,7.64,0,0,0-.2-1.72,15.65,15.65,0,0,0-.6-2l-4-11.31H152.88L149,59.47a12.61,12.61,0,0,0-.9,4.34q0,4.95,6.66,5h2.32V73ZM154.8,43.81h22.83l-6.26-17.67c-1.08-3-2.06-5.76-2.93-8.39a72.76,72.76,0,0,1-2.12-7.57,57.31,57.31,0,0,1-1.82,7c-.74,2.22-1.69,4.91-2.83,8.08Z"/></svg>
