<svg id="level-aa" xmlns="http://www.w3.org/2000/svg" viewBox="0 0 204 73"><defs><style>.cls-1{fill:#232d71;}</style></defs><path class="cls-1" d="M88.2,48.32,84.39,58.81a16.36,16.36,0,0,0-.68,2.35,9,9,0,0,0-.25,2,4.29,4.29,0,0,0,1.61,3.71,8.79,8.79,0,0,0,5,1.17h2.3v4.2H68V68h1.91a9.06,9.06,0,0,0,2.49-.29,4.47,4.47,0,0,0,1.85-1.22,9.42,9.42,0,0,0,1.57-2.39,41.52,41.52,0,0,0,1.71-3.91L99.67.81h7.82l22.6,61.86a17,17,0,0,0,1.18,2.59,6.09,6.09,0,0,0,1.46,1.66,5.26,5.26,0,0,0,1.9.83,11.85,11.85,0,0,0,2.54.24h1.32v4.2H111V68h2.3q6,0,6-4.78a6.52,6.52,0,0,0-.24-1.71,18.18,18.18,0,0,0-.59-2l-4-11.18Zm18.26-22.51c-1-3-2-5.73-2.88-8.3S102,12.4,101.48,10c-.23,1.2-.5,2.37-.83,3.51s-.62,2.25-1,3.42-.76,2.41-1.22,3.71-1,2.69-1.56,4.25L90.1,43.29h22.56Z"/><path class="cls-1" d="M153.71,48.32,149.9,58.81a17.82,17.82,0,0,0-.69,2.35,9.53,9.53,0,0,0-.24,2,4.29,4.29,0,0,0,1.61,3.71,8.77,8.77,0,0,0,5,1.17h2.3v4.2H133.49V68h1.91a9.06,9.06,0,0,0,2.49-.29,4.47,4.47,0,0,0,1.85-1.22,9.15,9.15,0,0,0,1.56-2.39A39.06,39.06,0,0,0,143,60.18L165.18.81H173L195.6,62.67a18.06,18.06,0,0,0,1.17,2.59,6.12,6.12,0,0,0,1.47,1.66,5.26,5.26,0,0,0,1.9.83,11.85,11.85,0,0,0,2.54.24H204v4.2H176.51V68h2.29q6,0,6-4.78a6.52,6.52,0,0,0-.24-1.71,18.18,18.18,0,0,0-.59-2l-4-11.18ZM172,25.81c-1-3-2-5.73-2.88-8.3S167.54,12.4,167,10c-.23,1.2-.51,2.37-.83,3.51s-.62,2.25-1,3.42-.76,2.41-1.22,3.71-1,2.69-1.56,4.25l-6.79,18.41h22.56Z"/></svg>
