<svg width="352" height="25" xmlns="http://www.w3.org/2000/svg"><g fill="#FB37FF" fill-rule="evenodd"><path d="M118.92 24v-1.78c0-.067-.02-.12-.06-.16a.216.216 0 00-.16-.06h-2.94V10.02a.255.255 0 00-.013-.089l-.017-.031a.348.348 0 00-.07-.07c-.027-.02-.067-.03-.12-.03h-2.1c-.133.107-.297.24-.49.4a87.574 87.574 0 01-1.23 1l-.87.71-.87.71v2.1c0 .04.007.077.02.11a.126.126 0 00.06.07c.027.013.053.02.08.02.053 0 .14-.037.26-.11.12-.073.28-.193.48-.36.2-.167.44-.363.72-.59.293-.267.547-.503.76-.71a5.5 5.5 0 00.6-.69 6.55 6.55 0 00.343-.52l.012-.02h.325V22h-3.96v1.78c0 .027.007.053.02.08l.04.08.08.04c.027.013.053.02.08.02h9.02zm12 0v-1.78c0-.067-.02-.12-.06-.16a.216.216 0 00-.16-.06h-2.941l.001-11.98a.255.255 0 00-.013-.089l-.017-.031a.348.348 0 00-.07-.07c-.027-.02-.067-.03-.12-.03h-2.1c-.133.107-.297.24-.49.4a87.574 87.574 0 01-1.23 1l-.87.71-.87.71v2.1c0 .04.007.077.02.11a.126.126 0 00.06.07c.027.013.053.02.08.02.053 0 .14-.037.26-.11.12-.073.28-.193.48-.36.2-.167.44-.363.72-.59.293-.267.547-.503.76-.71a5.5 5.5 0 00.6-.69 6.55 6.55 0 00.343-.52l.012-.02h.325V22h-3.96v1.78c0 .027.007.053.02.08l.04.08.08.04c.027.013.053.02.08.02h9.02zm13.22.22c.52 0 .97-.033 1.35-.1.38-.067.687-.15.92-.25.233-.1.39-.19.47-.27a.177.177 0 00.05-.08.329.329 0 00.01-.08v-1.76h-.34c-.213.107-.443.2-.69.28-.247.08-.513.143-.8.19a6.22 6.22 0 01-.99.07c-.413 0-.783-.053-1.11-.16a2.055 2.055 0 01-.83-.5 2.107 2.107 0 01-.54-.86 3.733 3.733 0 01-.18-1.22v-1.52c0-.64.107-1.173.32-1.6.213-.427.52-.743.92-.95.4-.207.873-.31 1.42-.31.533 0 1 .057 1.4.17.4.113.76.257 1.08.43h.34v-1.74a.533.533 0 00-.01-.12.248.248 0 00-.07-.1c-.08-.08-.237-.17-.47-.27a4.61 4.61 0 00-.92-.26 7.091 7.091 0 00-1.33-.11c-.947 0-1.783.193-2.51.58a4.31 4.31 0 00-1.72 1.65c-.42.713-.63 1.57-.63 2.57v1.68c0 .733.107 1.39.32 1.97.213.58.53 1.07.95 1.47.42.4.93.7 1.53.9.6.2 1.287.3 2.06.3zm7.74-15c0-.053-.01-.093-.03-.12a.348.348 0 00-.07-.07c-.027-.02-.067-.03-.12-.03h-1.9v14.78c0 .053.01.093.03.12.02.027.047.05.08.07.033.02.07.03.11.03h1.9v-7.23l.102-.113c.071-.074.142-.145.214-.213l.214-.194a5.78 5.78 0 01.86-.62c.287-.167.573-.29.86-.37.287-.08.557-.12.81-.12.44 0 .773.117 1 .35.227.233.34.59.34 1.07v7.22c0 .053.01.093.03.12.02.027.047.05.08.07.033.02.07.03.11.03h1.9v-7.88c0-.44-.063-.847-.19-1.22a2.829 2.829 0 00-.55-.97 2.298 2.298 0 00-.88-.62c-.347-.14-.74-.21-1.18-.21a3.522 3.522 0 00-1.9.54 4.37 4.37 0 00-.79.63 8.45 8.45 0 00-.71.81h-.32V9.22zm12.46 14.98c.52 0 .993-.073 1.42-.22a3.34 3.34 0 001.13-.65c.327-.287.59-.63.79-1.03h.28c.014.068.03.132.049.193l.061.177a2.023 2.023 0 001.2 1.18c.273.1.583.15.93.15h.84c.067 0 .12-.02.16-.06.04-.04.06-.093.06-.16v-1.64h-.52a1.06 1.06 0 01-.31-.04.688.688 0 01-.23-.12.79.79 0 01-.13-.26 1.361 1.361 0 01-.05-.4v-4.28c0-.707-.087-1.307-.26-1.8a2.797 2.797 0 00-.8-1.21c-.36-.313-.82-.543-1.38-.69-.56-.147-1.227-.22-2-.22-.533 0-1.05.04-1.55.12-.5.08-.923.173-1.27.28-.347.107-.56.2-.64.28a.233.233 0 00-.04.06.279.279 0 00-.02.12v1.66h.34c.347-.12.69-.22 1.03-.3.34-.08.687-.14 1.04-.18.353-.04.723-.06 1.11-.06.587 0 1.047.057 1.38.17.333.113.573.307.72.58.147.273.22.65.22 1.13v.86h-3.46c-.384 0-.738.043-1.062.128l-.238.072a2.838 2.838 0 00-.99.57 2.49 2.49 0 00-.63.89c-.147.347-.22.74-.22 1.18v.66c0 .587.123 1.093.37 1.52a2.51 2.51 0 001.05.99c.453.233.993.35 1.62.35zm.693-1.906l-.253.006c-.453 0-.793-.103-1.02-.31-.227-.207-.34-.503-.34-.89v-.64a1.236 1.236 0 01.32-.86c.12-.12.263-.207.43-.26.167-.053.37-.08.61-.08h3.12v1.693l-.016.016a6.224 6.224 0 01-.576.497l-.188.134c-.373.253-.75.433-1.13.54-.38.107-.783.16-1.21.16l.253-.006zm10.947-8.754c0-.053-.01-.093-.03-.12a.348.348 0 00-.07-.07c-.027-.02-.067-.03-.12-.03h-2v10.46c0 .04.003.073.01.1.007.027.02.05.04.07.02.02.043.033.07.04a.42.42 0 00.1.01h2v-6.671l.094-.154c.147-.23.295-.434.445-.614l.151-.171c.353-.38.727-.657 1.12-.83.393-.173.823-.26 1.29-.26.227 0 .427.013.6.04.173.027.353.067.54.12h.34v-1.88a.36.36 0 00-.03-.16.329.329 0 00-.13-.12 1.32 1.32 0 00-.38-.13c-.16-.033-.36-.05-.6-.05-.453 0-.87.077-1.25.23-.38.153-.72.393-1.02.72-.3.327-.577.763-.83 1.31h-.34v-1.84zm9.36 10.66c.52 0 .993-.073 1.42-.22a3.34 3.34 0 001.13-.65c.327-.287.59-.63.79-1.03h.28c.014.068.03.132.049.193l.061.177a2.023 2.023 0 001.2 1.18c.273.1.583.15.93.15h.84c.067 0 .12-.02.16-.06.04-.04.06-.093.06-.16v-1.64h-.52a1.06 1.06 0 01-.31-.04.688.688 0 01-.23-.12.79.79 0 01-.13-.26 1.361 1.361 0 01-.05-.4v-4.28c0-.707-.087-1.307-.26-1.8a2.797 2.797 0 00-.8-1.21c-.36-.313-.82-.543-1.38-.69-.56-.147-1.227-.22-2-.22-.533 0-1.05.04-1.55.12-.5.08-.923.173-1.27.28-.347.107-.56.2-.64.28a.233.233 0 00-.04.06.279.279 0 00-.02.12v1.66h.34c.347-.12.69-.22 1.03-.3.34-.08.687-.14 1.04-.18.353-.04.723-.06 1.11-.06.587 0 1.047.057 1.38.17.333.113.573.307.72.58.147.273.22.65.22 1.13v.86h-3.46c-.384 0-.738.043-1.062.128l-.238.072a2.838 2.838 0 00-.99.57 2.49 2.49 0 00-.63.89c-.147.347-.22.74-.22 1.18v.66c0 .587.123 1.093.37 1.52a2.51 2.51 0 001.05.99c.453.233.993.35 1.62.35zm.693-1.906l-.253.006c-.453 0-.793-.103-1.02-.31-.227-.207-.34-.503-.34-.89v-.64a1.236 1.236 0 01.32-.86c.12-.12.263-.207.43-.26.167-.053.37-.08.61-.08h3.12v1.693l-.016.016a6.224 6.224 0 01-.576.497l-.188.134c-.373.253-.75.433-1.13.54-.38.107-.783.16-1.21.16l.253-.006zm13.107 1.926c.52 0 .97-.033 1.35-.1.38-.067.687-.15.92-.25.233-.1.39-.19.47-.27a.177.177 0 00.05-.08.329.329 0 00.01-.08v-1.76h-.34c-.213.107-.443.2-.69.28-.247.08-.513.143-.8.19a6.22 6.22 0 01-.99.07c-.413 0-.783-.053-1.11-.16a2.055 2.055 0 01-.83-.5 2.107 2.107 0 01-.54-.86 3.733 3.733 0 01-.18-1.22v-1.52c0-.64.107-1.173.32-1.6.213-.427.52-.743.92-.95.4-.207.873-.31 1.42-.31.533 0 1 .057 1.4.17.4.113.76.257 1.08.43h.34v-1.74a.533.533 0 00-.01-.12.248.248 0 00-.07-.1c-.08-.08-.237-.17-.47-.27a4.61 4.61 0 00-.92-.26 7.091 7.091 0 00-1.33-.11c-.947 0-1.783.193-2.51.58a4.31 4.31 0 00-1.72 1.65c-.42.713-.63 1.57-.63 2.57v1.68c0 .733.107 1.39.32 1.97.213.58.53 1.07.95 1.47.42.4.93.7 1.53.9.6.2 1.287.3 2.06.3zM211.5 24c.067 0 .12-.02.16-.06.04-.04.06-.093.06-.16v-1.8h-1.7a3.66 3.66 0 01-.92-.1 1.48 1.48 0 01-.64-.34 1.743 1.743 0 01-.42-.73c-.093-.3-.14-.677-.14-1.13V15.3h3.82v-1.76c0-.067-.02-.12-.06-.16-.04-.04-.1-.06-.18-.06h-3.58v-3.1c0-.02-.002-.04-.007-.058l-.023-.052a.23.23 0 00-.08-.08.21.21 0 00-.11-.03h-1.9v3.32h-1.9v1.76c0 .027.007.053.02.08a.235.235 0 00.13.12c.033.013.063.02.09.02h1.66v4.58c0 .617.069 1.16.206 1.631l.074.229c.187.52.457.947.81 1.28.353.333.787.58 1.3.74.513.16 1.103.24 1.77.24h1.56zm8.04.22c.573 0 1.11-.04 1.61-.12.5-.08.93-.183 1.29-.31s.6-.25.72-.37a.313.313 0 00.06-.08.178.178 0 00.02-.08v-1.58h-.34c-.32.147-.64.27-.96.37-.32.1-.663.177-1.03.23-.367.053-.797.08-1.29.08-.547 0-1.02-.06-1.42-.18-.4-.12-.727-.307-.98-.56a2.161 2.161 0 01-.46-.78 3.222 3.222 0 01-.16-1.06v-.46h6.62a.374.374 0 00.089-.009l.031-.011a.21.21 0 00.1-.18v-1.54c0-.987-.193-1.81-.58-2.47a3.819 3.819 0 00-1.57-1.5c-.66-.34-1.41-.51-2.25-.51-.64 0-1.24.097-1.8.29-.56.193-1.047.48-1.46.86-.413.38-.733.853-.96 1.42-.227.567-.34 1.217-.34 1.95v2.16c0 .72.113 1.357.34 1.91a3.61 3.61 0 00.99 1.39c.433.373.967.657 1.6.85.633.193 1.343.29 2.13.29zm-2.94-6.64c0-.947.21-1.627.63-2.04.42-.413 1.023-.62 1.81-.62.373 0 .7.043.98.13.28.087.513.23.7.43.227.2.39.473.49.82.1.347.15.76.15 1.24v.36h-4.76v-.32zm12.38-4.04c0-.053-.01-.093-.03-.12a.348.348 0 00-.07-.07c-.027-.02-.067-.03-.12-.03h-2v10.46c0 .04.003.073.01.1.007.027.02.05.04.07.02.02.043.033.07.04a.42.42 0 00.1.01h2v-6.671l.094-.154c.147-.23.295-.434.445-.614l.151-.171c.353-.38.727-.657 1.12-.83.393-.173.823-.26 1.29-.26.227 0 .427.013.6.04.173.027.353.067.54.12h.34v-1.88a.36.36 0 00-.03-.16.329.329 0 00-.13-.12 1.32 1.32 0 00-.38-.13c-.16-.033-.36-.05-.6-.05-.453 0-.87.077-1.25.23-.38.153-.72.393-1.02.72-.3.327-.577.763-.83 1.31h-.34v-1.84zm10.38 10.64c.96 0 1.78-.137 2.46-.41.68-.273 1.2-.663 1.56-1.17.36-.507.54-1.1.54-1.78 0-.547-.117-1.02-.35-1.42-.233-.4-.563-.73-.99-.99-.427-.26-.94-.437-1.54-.53l-1.96-.38c-.4-.08-.71-.167-.93-.26-.22-.093-.373-.21-.46-.35a.95.95 0 01-.13-.51c0-.213.083-.41.25-.59.167-.18.427-.327.78-.44.353-.113.803-.17 1.35-.17.427 0 .81.013 1.15.04.34.027.667.077.98.15.313.073.643.17.99.29h.32v-1.72c0-.08-.003-.143-.01-.19a.207.207 0 00-.06-.12.455.455 0 00-.19-.09 5.637 5.637 0 00-.7-.19 9.63 9.63 0 00-.98-.15 11.92 11.92 0 00-1.26-.06c-.773 0-1.453.08-2.04.24-.587.16-1.08.387-1.48.68a2.96 2.96 0 00-.91 1.05c-.207.407-.31.85-.31 1.33 0 .493.1.927.3 1.3.2.373.51.683.93.93.42.247.957.437 1.61.57l2 .36c.387.067.693.157.92.27.227.113.387.25.48.41.093.16.14.347.14.56 0 .373-.187.683-.56.93-.373.247-1.013.37-1.92.37-.4 0-.777-.017-1.13-.05a8.365 8.365 0 01-.99-.15 5.723 5.723 0 01-.89-.27 7.835 7.835 0 01-.87-.41h-.32v1.84c0 .093.01.153.03.18.02.027.057.06.11.1.2.107.433.21.7.31.267.1.57.187.91.26.34.073.717.13 1.13.17.413.04.86.06 1.34.06z" fill-rule="nonzero"/><path d="M0 0h2v18H0z"/><path d="M-.5 18.5v-2h94v2zM258 18v-2h94v2z"/><path d="M350 0h2v18h-2z"/></g></svg>