<svg id="404" xmlns="http://www.w3.org/2000/svg" viewBox="0 0 1440 755.9"><defs><style>.cls-1{fill:#c49e1f;}</style></defs><path class="cls-1" d="M1388.15,690q-11.07-8-18.11-22.63-6.54-14.58-6.54-38.73V544.17H1440V486.33h-76.5V10.56h-97.56L958.78,484.64a800.26,800.26,0,0,0,6.83-107.44q0-86-15.09-155.41-14.6-69.9-44.76-119.19T830.32,26.66Q785.56,0,725.21,0,661.33,0,615.06,26.66q-45.76,26.65-75.44,75.94-29.16,49.29-43.25,118.69t-14.08,154.9a866.14,866.14,0,0,0,6.62,110.14H375.59V10.56H278L0,439.67v104.5H277v84.49q0,24.15-7,38.73Q263.43,682,251.87,690q-11.07,7.54-26.66,10.06a198.66,198.66,0,0,1-32.69,2.51H163.35v43.26H473.66V702.59H460.08a204.81,204.81,0,0,1-32.69-2.51A69.35,69.35,0,0,1,400.23,690q-11.06-8-18.1-22.63-6.54-14.58-6.54-38.73V544.17H499Q513,606.35,539.62,651.8q29.68,49.79,75.44,77T724.2,755.9q60.85,0,106.12-27.15t75.44-77q27.53-45.43,42.07-107.63h317.1v84.49q0,24.15-7,38.73Q1251.35,682,1239.78,690q-11.05,7.54-26.65,10.06a198.83,198.83,0,0,1-32.69,2.51h-29.17v43.26H1440v-43.4a198.88,198.88,0,0,1-24.69-2.37A69.29,69.29,0,0,1,1388.15,690ZM280.54,134.79q-1,27.66-2,55.82-.5,28.17-1,55.32t-.5,49.79V486.33H33.6L191.52,240.9q6-9,14.08-22.12,8-13.59,17.1-28.67,9.56-15.6,18.61-31.69,9.56-16.09,17.6-30.68,8.55-14.58,15.09-26.15,6.54-12.06,10.06-19.11Q282.05,106.61,280.54,134.79ZM851.44,514q-6.54,59.85-22.63,101.6-15.6,41.24-41.24,63.37-25.65,21.62-63.37,21.62-37.22,0-63.37-21.62-25.65-22.14-41.74-63.37-15.6-41.74-22.63-101.6-7.05-60.35-7.05-136.79t7.05-136.3q7-59.84,23.13-101.08t41.74-62.37q26.16-21.63,63.88-21.62,37.21,0,62.36,21.62,25.65,21.12,41.24,62.37,16.1,41.24,22.63,101.08,7,59.85,7,136.3T851.44,514Zm417-379.2q-1,27.66-2,55.82-.51,28.17-1,55.32t-.5,49.79V486.33H1021.51L1179.43,240.9q6-9,14.08-22.12,8.06-13.59,17.1-28.67,9.56-15.6,18.61-31.69,9.55-16.09,17.6-30.68,8.55-14.58,15.09-26.15,6.54-12.06,10.06-19.11Q1270,106.61,1268.45,134.79Z"/></svg>
