<svg id="404" xmlns="http://www.w3.org/2000/svg" viewBox="0 0 1531.58 755.9"><defs><style>.cls-1{fill:none}</style></defs><path class="cls-1" d="M299.24 127.74q-8 14.6-17.6 30.68-9 16.1-18.61 31.69l-17.1 28.67q-8 13.07-14.08 22.12L73.93 486.33h243.42V295.72q0-22.62.5-49.79t1-55.32q1-28.16 2-55.82 1.5-28.17 3.52-52.31-3.52 7-10.06 19.11-6.52 11.57-15.07 26.15zM869.14 139.82q-15.58-41.25-41.24-62.37-25.14-21.63-62.36-21.62-37.72 0-63.87 21.62-25.67 21.12-41.75 62.37T636.79 240.9q-7 59.85-7 136.3t7 136.79q7 59.85 22.63 101.6 16.1 41.24 41.74 63.37 26.16 21.62 63.37 21.62 37.72 0 63.37-21.62 25.65-22.14 41.24-63.37 16.1-41.74 22.63-101.6 7.05-60.35 7.05-136.79t-7.05-136.3q-6.53-59.83-22.63-101.08zM1287.15 127.74q-8 14.6-17.6 30.68-9 16.1-18.61 31.69l-17.1 28.67q-8 13.07-14.08 22.12l-157.92 245.43h243.42V295.72q0-22.62.5-49.79t1-55.32q1-28.16 2-55.82 1.52-28.17 3.52-52.31-3.52 7-10.06 19.11-6.52 11.57-15.07 26.15z"/><path d="M1480.33 544.17h51.25v-57.84h-127.75V10.56h-97.56L999.11 484.64a800.26 800.26 0 006.83-107.44q0-86-15.09-155.41-14.58-69.9-44.76-119.19t-75.44-75.94Q825.89 0 765.54 0 701.67 0 655.4 26.66 609.64 53.32 580 102.6q-29.18 49.29-43.25 118.69t-14.09 154.9a864.24 864.24 0 006.63 110.14H415.92V10.56h-97.57l-278 429.11L0 501.92v42.25h317.35v84.49q0 24.15-7 38.73Q303.77 682 292.2 690q-11.06 7.54-26.65 10.06a198.83 198.83 0 01-32.69 2.51h-29.17v43.26H514v-43.24h-13.59a204.9 204.9 0 01-32.69-2.51A69.3 69.3 0 01440.57 690q-11.07-8-18.11-22.63-6.54-14.58-6.54-38.73v-84.47H539.3q14.06 62.18 40.7 107.63 29.67 49.79 75.44 77t109.09 27.1q60.86 0 106.12-27.15t75.44-77q27.54-45.43 42.07-107.63h317.1v84.49q0 24.15-7 38.73-6.58 14.66-18.15 22.66-11.05 7.54-26.65 10.06a198.83 198.83 0 01-32.69 2.51h-29.17v43.26h310.31v-43.24h-13.58q-4 0-8-.14a199.07 199.07 0 01-24.69-2.37 69.29 69.29 0 01-27.16-10.08q-11.07-8-18.11-22.63-6.54-14.58-6.54-38.73v-84.47zM320.87 134.79q-1 27.66-2 55.82l-1 55.32q-.49 27.15-.5 49.79v190.61H73.93L231.85 240.9q6-9 14.08-22.12Q254 205.19 263 190.11q9.56-15.6 18.61-31.69 9.56-16.09 17.6-30.68 8.55-14.58 15.09-26.15 6.54-12.06 10.06-19.11-1.98 24.13-3.49 52.31zM891.77 514q-6.53 59.85-22.63 101.6-15.58 41.23-41.24 63.4-25.65 21.62-63.37 21.62-37.21 0-63.37-21.62-25.65-22.14-41.74-63.37-15.58-41.78-22.63-101.63-7-60.35-7-136.79t7-136.3q7-59.84 23.13-101.08t41.75-62.37q26.15-21.63 63.87-21.62 37.22 0 62.36 21.62 25.65 21.12 41.24 62.37 16.1 41.24 22.63 101.08 7.05 59.85 7.05 136.3T891.77 514zm417-379.2q-1 27.66-2 55.82l-1 55.32q-.49 27.15-.5 49.79v190.6h-243.43l157.92-245.43q6-9 14.08-22.12 8.06-13.59 17.1-28.67 9.55-15.6 18.61-31.69 9.56-16.09 17.6-30.68 8.55-14.58 15.09-26.15 6.54-12.06 10.06-19.11-2.01 24.13-3.52 52.31z" fill="#c49e1f"/></svg>
