<svg width="1440" height="825" viewBox="0 0 1440 825" fill="none" xmlns="http://www.w3.org/2000/svg">
<g clip-path="url(#clip0_1934_151)">
<path d="M37.08 626.6C-1.33397 626.6 -33.154 615.42 -58.38 593.06C-83.607 570.7 -96.22 536.013 -96.22 489C-96.22 443.133 -80.167 409.307 -48.06 387.52C-15.38 365.733 33.926 353.693 99.86 351.4L171.24 348.82V297.22C171.24 276.58 169.52 258.52 166.08 243.04C162.64 226.987 155.186 214.373 143.72 205.2C132.253 196.027 114.766 191.44 91.26 191.44C69.473 191.44 52.846 195.453 41.38 203.48C29.913 211.507 22.173 222.687 18.16 237.02C14.72 250.78 13 266.833 13 285.18C-11.08 285.18 -29.427 281.167 -42.04 273.14C-54.08 264.54 -60.1 250.493 -60.1 231C-60.1 210.933 -53.22 194.88 -39.46 182.84C-25.127 170.8 -6.20697 162.2 17.3 157.04C40.806 151.307 66.606 148.44 94.7 148.44C147.446 148.44 186.72 159.62 212.52 181.98C238.893 204.34 252.08 242.753 252.08 297.22V519.96C252.08 544.04 256.093 560.38 264.12 568.98C272.146 577.58 285.906 581.88 305.4 581.88H307.98V618H191.88L178.12 544.04H171.24C159.2 560.093 147.446 574.427 135.98 587.04C124.513 599.08 111.04 608.827 95.56 616.28C80.653 623.16 61.16 626.6 37.08 626.6V626.6ZM56.86 573.28C91.833 573.28 119.64 562.673 140.28 541.46C160.92 519.673 171.24 490.433 171.24 453.74V384.08L116.2 386.66C67.466 388.953 33.64 398.987 14.72 416.76C-3.62697 433.96 -12.8 459.473 -12.8 493.3C-12.8 546.62 10.42 573.28 56.86 573.28V573.28ZM359.13 618V581.88H416.75C436.243 581.88 452.87 578.44 466.63 571.56C480.39 564.107 487.27 546.907 487.27 519.96V68.46C465.483 94.833 445.703 116.333 427.93 132.96C410.73 149.587 393.53 157.9 376.33 157.9C363.716 157.9 353.396 153.6 345.37 145C337.343 136.4 333.33 125.22 333.33 111.46C350.53 106.873 368.59 99.993 387.51 90.82C407.003 81.647 430.796 66.453 458.89 45.24L519.09 0.52002H574.13V519.96C574.13 546.907 581.01 564.107 594.77 571.56C608.53 578.44 625.156 581.88 644.65 581.88H686.79V618H359.13ZM770.72 618V581.88H828.34C847.833 581.88 864.46 578.44 878.22 571.56C891.98 564.107 898.86 546.907 898.86 519.96V68.46C877.074 94.833 857.294 116.333 839.52 132.96C822.32 149.587 805.12 157.9 787.92 157.9C775.307 157.9 764.987 153.6 756.96 145C748.933 136.4 744.92 125.22 744.92 111.46C762.12 106.873 780.18 99.993 799.1 90.82C818.593 81.647 842.387 66.453 870.48 45.24L930.68 0.52002H985.72V519.96C985.72 546.907 992.6 564.107 1006.36 571.56C1020.12 578.44 1036.75 581.88 1056.24 581.88H1098.38V618H770.72ZM1132.43 824.4V783.98C1171.42 783.98 1203.24 776.527 1227.89 761.62C1253.12 746.713 1273.47 726.36 1288.95 700.56C1304.43 675.333 1316.76 646.667 1325.93 614.56L1166.83 238.74C1159.38 220.967 1151.35 208.927 1142.75 202.62C1134.72 196.313 1122.4 193.16 1105.77 193.16H1103.19V157.04H1309.59V193.16H1307.01C1272.61 193.16 1255.41 206.92 1255.41 234.44C1255.41 244.187 1257.7 254.793 1262.29 266.26L1325.07 419.34C1330.8 432.527 1336.25 447.147 1341.41 463.2C1347.14 478.68 1352.3 493.587 1356.89 507.92C1361.48 522.253 1364.63 534.293 1366.35 544.04C1370.36 527.413 1375.52 510.213 1381.83 492.44C1388.71 474.667 1395.02 457.18 1400.75 439.98L1458.37 272.28C1463.53 258.52 1466.11 246.193 1466.11 235.3C1466.11 207.207 1447.19 193.16 1409.35 193.16H1406.77V157.04H1585.65V193.16H1583.07C1566.44 193.16 1553.83 197.46 1545.23 206.06C1536.63 214.66 1527.46 232.72 1517.71 260.24L1386.99 621.44C1372.08 663.293 1357.75 697.407 1343.99 723.78C1330.23 750.153 1314.75 770.507 1297.55 784.84C1280.92 799.747 1260 810.067 1234.77 815.8C1209.54 821.533 1178.01 824.4 1140.17 824.4H1132.43V824.4Z" fill="#480049"/>
</g>
<defs>
<clipPath id="clip0_1934_151">
<rect width="1440" height="825" fill="white"/>
</clipPath>
</defs>
</svg>
