<svg width="1440" height="825" fill="none" xmlns="http://www.w3.org/2000/svg">
  <path d="M37.08 626.6c-38.414 0-70.234-11.18-95.46-33.54C-83.607 570.7-96.22 536.013-96.22 489c0-45.867 16.053-79.693 48.16-101.48 32.68-21.787 81.986-33.827 147.92-36.12l71.38-2.58v-51.6c0-20.64-1.72-38.7-5.16-54.18-3.44-16.053-10.894-28.667-22.36-37.84-11.467-9.173-28.954-13.76-52.46-13.76-21.787 0-38.414 4.013-49.88 12.04-11.467 8.027-19.207 19.207-23.22 33.54-3.44 13.76-5.16 29.813-5.16 48.16-24.08 0-42.427-4.013-55.04-12.04-12.04-8.6-18.06-22.647-18.06-42.14 0-20.067 6.88-36.12 20.64-48.16 14.333-12.04 33.253-20.64 56.76-25.8 23.506-5.733 49.306-8.6 77.4-8.6 52.746 0 92.02 11.18 117.82 33.54 26.373 22.36 39.56 60.773 39.56 115.24v222.74c0 24.08 4.013 40.42 12.04 49.02 8.026 8.6 21.786 12.9 41.28 12.9h2.58V618h-116.1l-13.76-73.96h-6.88c-12.04 16.053-23.794 30.387-35.26 43-11.467 12.04-24.94 21.787-40.42 29.24-14.907 6.88-34.4 10.32-58.48 10.32zm19.78-53.32c34.973 0 62.78-10.607 83.42-31.82 20.64-21.787 30.96-51.027 30.96-87.72v-69.66l-55.04 2.58c-48.734 2.293-82.56 12.327-101.48 30.1-18.347 17.2-27.52 42.713-27.52 76.54 0 53.32 23.22 79.98 69.66 79.98zM359.13 618v-36.12h57.62c19.493 0 36.12-3.44 49.88-10.32 13.76-7.453 20.64-24.653 20.64-51.6V68.46c-21.787 26.373-41.567 47.873-59.34 64.5-17.2 16.627-34.4 24.94-51.6 24.94-12.614 0-22.934-4.3-30.96-12.9-8.027-8.6-12.04-19.78-12.04-33.54 17.2-4.587 35.26-11.467 54.18-20.64 19.493-9.173 43.286-24.367 71.38-45.58L519.09.52h55.04v519.44c0 26.947 6.88 44.147 20.64 51.6 13.76 6.88 30.386 10.32 49.88 10.32h42.14V618H359.13zm411.59 0v-36.12h57.62c19.493 0 36.12-3.44 49.88-10.32 13.76-7.453 20.64-24.653 20.64-51.6V68.46c-21.786 26.373-41.566 47.873-59.34 64.5-17.2 16.627-34.4 24.94-51.6 24.94-12.613 0-22.933-4.3-30.96-12.9-8.027-8.6-12.04-19.78-12.04-33.54 17.2-4.587 35.26-11.467 54.18-20.64 19.493-9.173 43.287-24.367 71.38-45.58L930.68.52h55.04v519.44c0 26.947 6.88 44.147 20.64 51.6 13.76 6.88 30.39 10.32 49.88 10.32h42.14V618H770.72zm361.71 206.4v-40.42c38.99 0 70.81-7.453 95.46-22.36 25.23-14.907 45.58-35.26 61.06-61.06 15.48-25.227 27.81-53.893 36.98-86l-159.1-375.82c-7.45-17.773-15.48-29.813-24.08-36.12-8.03-6.307-20.35-9.46-36.98-9.46h-2.58v-36.12h206.4v36.12h-2.58c-34.4 0-51.6 13.76-51.6 41.28 0 9.747 2.29 20.353 6.88 31.82l62.78 153.08c5.73 13.187 11.18 27.807 16.34 43.86 5.73 15.48 10.89 30.387 15.48 44.72 4.59 14.333 7.74 26.373 9.46 36.12 4.01-16.627 9.17-33.827 15.48-51.6 6.88-17.773 13.19-35.26 18.92-52.46l57.62-167.7c5.16-13.76 7.74-26.087 7.74-36.98 0-28.093-18.92-42.14-56.76-42.14h-2.58v-36.12h178.88v36.12h-2.58c-16.63 0-29.24 4.3-37.84 12.9-8.6 8.6-17.77 26.66-27.52 54.18l-130.72 361.2c-14.91 41.853-29.24 75.967-43 102.34-13.76 26.373-29.24 46.727-46.44 61.06-16.63 14.907-37.55 25.227-62.78 30.96-25.23 5.733-56.76 8.6-94.6 8.6h-7.74z" fill="#FB37FF"/>
</svg>
