<svg width="1441" height="455" viewBox="0 0 1441 455" fill="none" xmlns="http://www.w3.org/2000/svg">
<g clip-path="url(#clip0_1934_97)">
<path d="M623.82 165.65C614.106 152.581 601.077 142.345 586.08 136C571.1 129.467 553.913 126.2 534.52 126.2C523.988 126.058 513.495 127.515 503.4 130.52C494.538 133.04 486.164 137.036 478.63 142.34C471.249 147.407 464.732 153.63 459.33 160.77C453.534 168.419 448.51 176.622 444.33 185.26H442C442.38 175.467 442.763 165.96 443.15 156.74C443.537 148.673 443.827 140.32 444.02 131.68C444.213 122.84 444.31 115.06 444.31 108.34V0H335.74V24.78H340.35C346.523 24.7518 352.687 25.2334 358.78 26.22C364.316 26.834 369.638 28.7049 374.34 31.69C378.91 34.7442 382.508 39.0439 384.71 44.08C387.377 49.26 388.71 56.1733 388.71 64.82V381.14C388.71 390.36 387.377 397.753 384.71 403.32C382.526 408.531 378.935 413.032 374.34 416.32C369.742 419.354 364.525 421.325 359.07 422.09C357.29 422.38 355.45 422.62 353.58 422.82C352.16 422.62 350.8 422.38 349.52 422.09C345.488 421.212 341.668 419.547 338.28 417.19C334.827 414.476 331.899 411.155 329.64 407.39C326.941 402.492 324.63 397.39 322.73 392.13L189.34 27.13H143.25L12.46 377.39C9.49794 385.241 6.13348 392.935 2.38 400.44C1.6 402.053 0.806667 403.573 0 405V448.28H100.33V423.49H86.79C73.53 423.49 63.6367 421.183 57.11 416.57C50.77 411.957 47.6 404.66 47.6 394.68C47.6775 390.8 48.1635 386.938 49.05 383.16C50.0266 378.454 51.3639 373.831 53.05 369.33L75.52 307.39H230.52L254.14 373.39C255.519 377.257 256.674 381.2 257.6 385.2C258.534 388.479 259.019 391.87 259.04 395.28C259.04 414.113 247.23 423.527 223.61 423.52H210.09V448.29H430.23L440.6 402.2H444.35C448.466 409.715 453.392 416.757 459.04 423.2C470.908 436.456 486.45 445.882 503.69 450.28C513.757 452.876 524.124 454.126 534.52 454C553.913 454 571.1 450.833 586.08 444.5C601.062 437.964 614.073 427.621 623.82 414.5C634 401.047 641.667 383.953 646.82 363.22C652.2 342.473 654.89 317.89 654.89 289.47C654.89 261.23 652.2 236.837 646.82 216.29C641.66 195.783 633.993 178.903 623.82 165.65V165.65ZM86.82 277.72L126.82 169.11C130.273 159.89 133.35 151.52 136.05 144C138.717 136.32 141.117 129.023 143.25 122.11C145.383 115.197 147.3 108.493 149 102C150.92 95.28 152.553 88.3667 153.9 81.26C157.16 95.4733 161.29 110.263 166.29 125.63C171.47 140.803 177.137 157.137 183.29 174.63L219.88 277.77L86.82 277.72ZM593.57 344C590.903 359.74 586.57 372.99 580.57 383.75C574.81 394.51 567.32 402.673 558.1 408.24C549.073 413.62 538.03 416.307 524.97 416.3C509.41 416.3 496.447 413.613 486.08 408.24C475.73 402.505 467.157 394.032 461.3 383.75C455.16 373.003 450.743 359.753 448.05 344C445.55 328.253 444.303 310.103 444.31 289.55C444.31 268.217 445.557 249.683 448.05 233.95C450.717 218.203 455.133 205.143 461.3 194.77C466.992 184.825 475.518 176.8 485.79 171.72C496.163 166.533 509.03 163.94 524.39 163.94C537.45 163.94 548.59 166.533 557.81 171.72C567.27 176.9 574.87 184.66 580.61 195C586.557 205.38 590.89 218.44 593.61 234.18C596.277 249.74 597.61 267.987 597.61 288.92C597.61 309.68 596.263 328.04 593.57 344ZM911.67 166.51C900.118 152.994 885.357 142.596 868.74 136.27C851.84 129.537 832.73 126.173 811.41 126.18C765.703 126.18 731.133 139.623 707.7 166.51C684.46 193.403 672.84 234.403 672.84 289.51C672.84 317.163 675.913 341.36 682.06 362.1C688.4 382.653 697.427 399.747 709.14 413.38C720.874 426.896 735.702 437.373 752.36 443.92C769.26 450.64 788.367 454 809.68 454C855.013 454 889.393 440.46 912.82 413.38C936.44 386.3 948.25 345.01 948.25 289.51C948.25 261.85 945.083 237.85 938.75 217.51C932.603 196.963 923.577 179.963 911.67 166.51V166.51ZM886.6 347.43C883.933 364.143 879.42 378.163 873.06 389.49C866.733 400.63 858.477 409.08 848.29 414.84C838.103 420.6 825.62 423.483 810.84 423.49C796.047 423.49 783.467 420.607 773.1 414.84C762.92 409.08 754.553 400.63 748 389.49C741.673 378.157 737.067 364.137 734.18 347.43C731.293 330.723 729.853 311.423 729.86 289.53C729.86 267.63 731.3 248.423 734.18 231.91C737.06 215.397 741.667 201.663 748 190.71C754.34 179.57 762.6 171.217 772.78 165.65C782.96 160.083 795.443 157.297 810.23 157.29C825.017 157.29 837.5 160.077 847.68 165.65C858.053 171.217 866.41 179.57 872.75 190.71C879.083 201.657 883.69 215.39 886.57 231.91C889.45 248.43 890.893 267.637 890.9 289.53C890.92 311.423 889.487 330.723 886.6 347.43V347.43ZM1274.13 422.33C1268.74 421.507 1263.55 419.65 1258.86 416.86C1254.28 413.994 1250.58 409.903 1248.2 405.05C1245.7 399.67 1244.45 392.67 1244.45 384.05V131.94H1139V156.72H1140.73C1147 156.685 1153.27 157.166 1159.46 158.16C1164.96 158.94 1170.19 161.014 1174.73 164.21C1179.14 167.09 1182.6 171.423 1185.1 177.21C1187.77 182.783 1189.1 190.18 1189.1 199.4V320.93C1189.23 334.02 1187.78 347.077 1184.78 359.82C1182.28 370.689 1177.68 380.965 1171.24 390.07C1165.3 398.319 1157.39 404.953 1148.24 409.37C1139.02 413.983 1127.88 416.287 1114.82 416.28C1102.92 416.28 1092.92 414.553 1084.82 411.1C1077.17 407.632 1070.6 402.154 1065.82 395.25C1061.21 388.337 1057.85 379.887 1055.74 369.9C1053.7 358.589 1052.74 347.112 1052.86 335.62V131.94H947.15V156.72H948.88C955.053 156.692 961.217 157.173 967.31 158.16C972.845 158.962 978.147 160.925 982.87 163.92C987.44 166.974 991.038 171.274 993.24 176.31C995.907 181.49 997.24 188.403 997.24 197.05V338.5C997.24 358.667 999.35 376.05 1003.57 390.65C1007.99 405.243 1014.32 417.243 1022.57 426.65C1030.81 436.05 1041.32 443.189 1053.1 447.39C1065.2 451.81 1079.03 454.017 1094.59 454.01C1103.86 454.042 1113.11 453.272 1122.24 451.71C1131.03 450.381 1139.58 447.76 1147.6 443.93C1155.99 439.665 1163.66 434.126 1170.35 427.51C1177.68 420.603 1184.31 411.577 1190.23 400.43H1193.11L1200.89 448.25H1294.52V423.49H1292.79C1286.55 423.503 1280.32 423.115 1274.13 422.33V422.33ZM1441 165.65V131.94H1372.41V59.35H1345.33C1342.26 74.5167 1338.61 87.1833 1334.38 97.35C1330.62 106.901 1325.16 115.687 1318.25 123.28C1311.94 129.856 1304.13 134.801 1295.49 137.69C1288 140.396 1280.12 141.855 1272.16 142.01V165.63H1317.1V362.63C1317.1 379.53 1318.73 393.837 1321.99 405.55C1325.45 417.27 1330.64 426.683 1337.55 433.79C1344.46 440.897 1353.3 445.987 1364.05 449.06C1374.81 452.32 1387.68 453.95 1402.66 453.95C1407.57 453.936 1412.47 453.649 1417.35 453.09C1422.29 452.748 1427.19 452.08 1432.04 451.09C1435.2 450.59 1438.17 449.99 1441.04 449.32V421.2C1439.68 421.4 1438.33 421.58 1436.98 421.76C1430.48 422.561 1423.94 422.945 1417.39 422.91C1403.75 422.91 1392.8 418.203 1384.55 408.79C1376.48 399.377 1372.45 384.59 1372.45 364.43V165.65H1441Z" fill="#6F5912"/>
</g>
<defs>
<clipPath id="clip0_1934_97">
<rect width="1441" height="454.02" fill="white"/>
</clipPath>
</defs>
</svg>
