<svg id="authors" xmlns="http://www.w3.org/2000/svg" viewBox="0 0 1441 361.68"><defs><style>.cls-1{fill:none;}.cls-2{fill:#ffce29;}</style></defs><path class="cls-1" d="M1045,151.92a50.11,50.11,0,0,0-20-20q-12.15-6.66-29.83-6.66T965.33,132a50.61,50.61,0,0,0-19.74,20q-7.58,13.1-11,32.82t-3.44,45.9a274.67,274.67,0,0,0,3.44,46.13q3.45,20,11,33.5a53.8,53.8,0,0,0,20,20.2q12.39,6.88,30.06,6.88t29.83-6.88a52.21,52.21,0,0,0,19.74-20.2q7.57-13.53,10.79-33.5a274.67,274.67,0,0,0,3.44-46.13q0-26.16-3.44-45.9T1045,151.92Z"/><path class="cls-1" d="M93.34,100.06q-6-18.36-9.87-35.34-1.6,8.49-3.9,16.52Q77.5,89,75,97.3t-5.74,17.45q-3.21,8.94-7.34,20L30,221.23H136l-29.15-82.16Q99.53,118.19,93.34,100.06Z"/><path class="cls-2" d="M239.3,336.21a25.06,25.06,0,0,1-9-3.9,28.48,28.48,0,0,1-6.89-7.81A84.67,84.67,0,0,1,218,312.34L111.7,21.57H75L0,222.4V305a75.12,75.12,0,0,1,3.15-10.74l17.9-49.34H144.52l18.81,52.55a84.41,84.41,0,0,1,2.76,9.41,30.18,30.18,0,0,1,1.15,8q0,22.5-28.23,22.49H128.22v19.74H257.43V337.35h-6.2A54.69,54.69,0,0,1,239.3,336.21ZM30,221.23l31.9-86.52q4.13-11,7.34-20Q72.45,105.57,75,97.3t4.59-16.06q2.3-8,3.9-16.52,3.9,17,9.87,35.34,6.19,18.14,13.54,39L136,221.23Z"/><path class="cls-2" d="M6.36,331.85a17.36,17.36,0,0,1-6.36-9v34.19H40.79V337.35H30Q14.16,337.35,6.36,331.85Z"/><path class="cls-2" d="M868.44,336.21A27.61,27.61,0,0,1,857,331.62a24.26,24.26,0,0,1-7.57-10.33q-2.76-6.66-2.76-17.67V192.54q0-24.09-5.51-41.53t-16.06-28.46A62.7,62.7,0,0,0,798.91,106q-15.37-5.52-35.34-5.51-48,0-69.08,42.68H692.2q.45-6.64.91-13.54.46-6,.69-12.85.23-7.11.23-13.54V0H607.51V19.74h3.67a89.9,89.9,0,0,1,14.69,1.14,29.38,29.38,0,0,1,12.39,4.36,23,23,0,0,1,8.27,9.87q3.21,6.2,3.21,16.53v252q0,11-3.21,17.67a24.37,24.37,0,0,1-8.27,10.33,29.79,29.79,0,0,1-12.16,4.59l-.5.07v-2.6q-7.33,1.38-14.45,2.3a122.94,122.94,0,0,1-15.61.92q-16.29,0-26.16-11.25-9.64-11.25-9.64-35.34V132h61.5V105.11h-61.5V47.28H538.17a167,167,0,0,1-8.72,30.29A67.61,67.61,0,0,1,516.6,98.22a44.77,44.77,0,0,1-18.13,11.48,58.16,58.16,0,0,1-18.59,3.44V132h35.8v157q0,20.19,3.9,34.19,4.13,14,12.39,22.5a46.71,46.71,0,0,0,21.12,12.16q12.84,3.9,30.75,3.9a105.94,105.94,0,0,0,11.7-.69,143.44,143.44,0,0,0,22.26-3.9H734V337.35h-1.37a116.9,116.9,0,0,1-14.92-.91,33.9,33.9,0,0,1-12.16-4.36,23.28,23.28,0,0,1-8.5-9.41q-3-6.44-3-16.76V206.77a131.1,131.1,0,0,1,3.44-31.21q3.45-14.22,10.33-24.09a47.17,47.17,0,0,1,17.67-15.38q10.78-5.51,25.48-5.51,14.22,0,24.09,4.36a36.55,36.55,0,0,1,15.84,12.39,53.2,53.2,0,0,1,9,20.2,122.41,122.41,0,0,1,2.75,27.31V357.09h81.7V337.35H882.9A85.84,85.84,0,0,1,868.44,336.21Z"/><path class="cls-2" d="M481.45,336.44a34,34,0,0,1-12.17-4.36,23.26,23.26,0,0,1-8.49-9.41q-3-6.44-3-16.76V105.11h-84v19.73h1.37A91.41,91.41,0,0,1,390.11,126a27.9,27.9,0,0,1,12.16,4.82,22.66,22.66,0,0,1,8.26,10.33q3.23,6.66,3.22,17.67v96.84a129.57,129.57,0,0,1-3.45,31,68.14,68.14,0,0,1-10.78,24.09,48.51,48.51,0,0,1-18.36,15.38q-11,5.5-26.62,5.51-14.24,0-23.87-4.13a37.1,37.1,0,0,1-15.15-12.63,57.49,57.49,0,0,1-8-20.19,145.71,145.71,0,0,1-2.29-27.31V105.11H221v19.73h1.38A90,90,0,0,1,237,126a31.78,31.78,0,0,1,12.39,4.59,23,23,0,0,1,8.26,9.87q3.21,6.2,3.22,16.52V269.65q0,24.11,5,41.54,5.28,17.44,15.15,28.69a58.46,58.46,0,0,0,24.33,16.52q14.46,5.28,33,5.28a127.93,127.93,0,0,0,22-1.84,71.91,71.91,0,0,0,20.19-6.19,72.84,72.84,0,0,0,18.13-13.08A83.85,83.85,0,0,0,414.66,319H417l6.2,38.1h74.58V337.35h-1.38A116.85,116.85,0,0,1,481.45,336.44Z"/><path class="cls-2" d="M1350.26,133.11a37.51,37.51,0,0,1,14-7.81,66.81,66.81,0,0,1,20.42-2.75q20.89,0,30.53,13.08,9.86,13.08,9.86,36.72A48,48,0,0,0,1441,170V113.44a71,71,0,0,0-21-9,114.56,114.56,0,0,0-29.6-3.44,140.08,140.08,0,0,0-36.26,4.36,84.17,84.17,0,0,0-28,12.85A57.37,57.37,0,0,0,1308,138.84c-.23.46-.43.94-.65,1.41a38.44,38.44,0,0,0,.39-5.54q0-16.29-12.63-25.24-12.39-9-38.09-9-15.61,0-25.93,4.13a48.6,48.6,0,0,0-17.45,11A64.07,64.07,0,0,0,1202,132q-4.82,9.18-9.41,19.73h-2.29l-9-46.58H1109v19.73h1.37a90,90,0,0,1,14.69,1.15,31.78,31.78,0,0,1,12.39,4.59,23,23,0,0,1,8.26,9.87q3.23,6.2,3.22,16.52V303.62q0,11-3.22,17.67a24.28,24.28,0,0,1-8.26,10.33,29.79,29.79,0,0,1-12.16,4.59,91.45,91.45,0,0,1-14.92,1.14H1109v19.74h135.63V337.35h-13.09a116.85,116.85,0,0,1-14.91-.91,34,34,0,0,1-12.17-4.36,23.33,23.33,0,0,1-8.49-9.41q-3-6.44-3-16.76V232q0-9,.92-20a216,216,0,0,1,3-22,196.72,196.72,0,0,1,5.74-21.8,90.77,90.77,0,0,1,8.72-18.59,45.62,45.62,0,0,1,12.16-13.08,25.7,25.7,0,0,1,15.61-5.05q13.77,0,19.28,8.72,5.5,8.49,5.5,28a76.46,76.46,0,0,0,20.2-2.3,38.72,38.72,0,0,0,13.54-6.88,27.14,27.14,0,0,0,5.71-6.86,71,71,0,0,0-1.54,15.12q0,15.38,4.36,26.62a57.61,57.61,0,0,0,13.08,19.74,102.85,102.85,0,0,0,22,16.29q13.55,7.35,31.67,15.38,17,7.33,28.23,13.08a91.28,91.28,0,0,1,17.67,11.24,30.1,30.1,0,0,1,9.18,11.94,36.65,36.65,0,0,1,2.75,14.91,43.93,43.93,0,0,1-3.44,17.45,38,38,0,0,1-10.1,13.54,47.57,47.57,0,0,1-16.06,8.72,75.4,75.4,0,0,1-22.26,3q-14.23,0-24.1-4.59a43,43,0,0,1-15.61-12.85,52.74,52.74,0,0,1-8.49-19.05,101.73,101.73,0,0,1-2.52-23.18,32.79,32.79,0,0,0-9.41,1.61,26.59,26.59,0,0,0-9.64,5.05,31,31,0,0,0-7.57,10.1q-3,6.2-3,15.6a42.37,42.37,0,0,0,5.51,21.8,47.49,47.49,0,0,0,15.61,15.61,76.11,76.11,0,0,0,24.32,9.18,148.54,148.54,0,0,0,32.13,3.21,145.13,145.13,0,0,0,37.87-4.59,86,86,0,0,0,26.94-12V232.38a112.19,112.19,0,0,0-10.88-7,298,298,0,0,0-31.9-15.37q-15.6-6.44-26.85-11.48a101.77,101.77,0,0,1-18.13-10.78,36.45,36.45,0,0,1-10.1-11.94,35.56,35.56,0,0,1-3.21-15.6,43.55,43.55,0,0,1,2.53-15.15A31,31,0,0,1,1350.26,133.11Z"/><path class="cls-2" d="M1075.94,132.65a84.47,84.47,0,0,0-34.19-24.1q-20.21-8-45.67-8-54.62,0-82.62,32.13-27.76,32.13-27.77,98,0,33,7.35,57.83,7.58,24.55,21.57,40.85A88.51,88.51,0,0,0,949,353.65q20.21,8,45.67,8,54.16,0,82.16-32.36,28.23-32.35,28.23-98.68,0-33-7.58-57.37Q1090.17,148.72,1075.94,132.65Zm-20,144.12q-3.23,20-10.79,33.5a52.21,52.21,0,0,1-19.74,20.2q-12.15,6.88-29.83,6.88t-30.06-6.88a53.8,53.8,0,0,1-20-20.2q-7.58-13.53-11-33.5a274.67,274.67,0,0,1-3.44-46.13q0-26.16,3.44-45.9t11-32.82a50.61,50.61,0,0,1,19.74-20q12.17-6.66,29.83-6.66T1025,132a50.11,50.11,0,0,1,20,20q7.57,13.1,11,32.82t3.44,45.9A274.67,274.67,0,0,1,1056,276.77Z"/></svg>
