<svg width="1441" height="362" viewBox="0 0 1441 362" fill="none" xmlns="http://www.w3.org/2000/svg">
<g clip-path="url(#clip0_1934_100)">
<path d="M239.3 336.21C236.072 335.516 233.014 334.19 230.3 332.31C227.543 330.152 225.207 327.505 223.41 324.5C221.29 320.595 219.481 316.529 218 312.34L111.7 21.5701H75L0 222.4V305C0.781469 301.347 1.83439 297.757 3.15 294.26L21.05 244.92H144.52L163.33 297.47C164.432 300.551 165.353 303.693 166.09 306.88C166.83 309.483 167.217 312.174 167.24 314.88C167.24 329.88 157.83 337.377 139.01 337.37H128.22V357.11H257.43V337.35H251.23C247.224 337.408 243.223 337.026 239.3 336.21V336.21ZM30 221.23L61.9 134.71C64.6533 127.377 67.1 120.71 69.24 114.71C71.38 108.617 73.3 102.813 75 97.3001C76.7 91.7867 78.23 86.4334 79.59 81.2401C81.1233 75.9067 82.4233 70.4001 83.49 64.7201C86.09 76.0534 89.38 87.8334 93.36 100.06C97.4867 112.153 102 125.153 106.9 139.06L136 221.23H30Z" fill="#6F5912"/>
<path d="M6.36 331.85C3.31877 329.62 1.08623 326.461 0 322.85L0 357.04H40.79V337.35H30C19.44 337.35 11.56 335.517 6.36 331.85Z" fill="#6F5912"/>
<path d="M868.44 336.21C864.329 335.562 860.419 333.993 857 331.62C853.597 328.917 850.983 325.349 849.43 321.29C847.59 316.85 846.67 310.96 846.67 303.62V192.54C846.67 176.48 844.833 162.637 841.16 151.01C837.487 139.383 832.133 129.897 825.1 122.55C817.892 114.929 808.887 109.239 798.91 106C788.663 102.32 776.883 100.483 763.57 100.49C731.57 100.49 708.543 114.717 694.49 143.17H692.2C692.5 138.743 692.803 134.23 693.11 129.63C693.417 125.63 693.647 121.347 693.8 116.78C693.953 112.04 694.03 107.527 694.03 103.24V0H607.51V19.74H611.18C616.1 19.7174 621.013 20.0987 625.87 20.88C630.276 21.3797 634.512 22.8703 638.26 25.24C641.9 27.6755 644.769 31.0997 646.53 35.11C648.67 39.2433 649.74 44.7533 649.74 51.64V303.64C649.74 310.973 648.67 316.863 646.53 321.31C644.779 325.45 641.917 329.025 638.26 331.64C634.594 334.046 630.442 335.614 626.1 336.23L625.6 336.3V333.7C620.713 334.62 615.897 335.387 611.15 336C605.971 336.638 600.758 336.945 595.54 336.92C584.68 336.92 575.96 333.17 569.38 325.67C562.953 318.17 559.74 306.39 559.74 290.33V132H621.24V105.11H559.74V47.28H538.17C536.225 57.629 533.305 67.7708 529.45 77.57C526.45 85.1735 522.096 92.17 516.6 98.22C511.577 103.46 505.355 107.4 498.47 109.7C492.502 111.853 486.223 113.015 479.88 113.14V132H515.68V289C515.68 302.46 516.98 313.857 519.58 323.19C522.333 332.523 526.463 340.023 531.97 345.69C537.81 351.541 545.098 355.737 553.09 357.85C561.65 360.45 571.9 361.75 583.84 361.75C587.75 361.736 591.656 361.506 595.54 361.06C603.051 360.347 610.494 359.043 617.8 357.16H734V337.35H732.63C727.642 337.365 722.659 337.061 717.71 336.44C713.415 335.78 709.286 334.299 705.55 332.08C701.901 329.79 698.958 326.533 697.05 322.67C695.05 318.377 694.05 312.79 694.05 305.91V206.77C693.942 196.266 695.097 185.788 697.49 175.56C699.79 166.08 703.233 158.05 707.82 151.47C712.323 144.939 718.4 139.649 725.49 136.09C732.677 132.417 741.17 130.58 750.97 130.58C760.45 130.58 768.48 132.033 775.06 134.94C781.395 137.508 786.882 141.8 790.9 147.33C795.282 153.359 798.348 160.241 799.9 167.53C801.838 176.501 802.76 185.662 802.65 194.84V357.09H884.35V337.35H882.9C878.056 337.379 873.219 336.997 868.44 336.21V336.21Z" fill="#6F5912"/>
<path d="M481.45 336.44C477.152 335.778 473.02 334.298 469.28 332.08C465.634 329.79 462.694 326.532 460.79 322.67C458.79 318.377 457.79 312.79 457.79 305.91V105.11H373.79V124.84H375.16C380.167 124.817 385.167 125.205 390.11 126C394.488 126.62 398.656 128.273 402.27 130.82C405.989 133.365 408.865 136.962 410.53 141.15C412.683 145.59 413.757 151.48 413.75 158.82V255.66C413.853 266.095 412.694 276.503 410.3 286.66C408.311 295.316 404.649 303.499 399.52 310.75C394.782 317.331 388.469 322.619 381.16 326.13C373.827 329.797 364.953 331.633 354.54 331.64C345.047 331.64 337.09 330.263 330.67 327.51C324.573 324.744 319.338 320.38 315.52 314.88C311.595 308.719 308.88 301.867 307.52 294.69C305.9 285.679 305.134 276.535 305.23 267.38V105.11H221V124.84H222.38C227.277 124.828 232.166 125.216 237 126C241.406 126.645 245.627 128.209 249.39 130.59C253.026 133.027 255.892 136.451 257.65 140.46C259.79 144.593 260.863 150.1 260.87 156.98V269.65C260.87 285.723 262.537 299.57 265.87 311.19C269.39 322.817 274.44 332.38 281.02 339.88C287.59 347.37 295.965 353.057 305.35 356.4C314.99 359.92 325.99 361.68 338.35 361.68C345.723 361.702 353.083 361.086 360.35 359.84C367.348 358.782 374.151 356.696 380.54 353.65C387.22 350.249 393.336 345.837 398.67 340.57C405.124 334.286 410.523 327.002 414.66 319H417L423.2 357.1H497.78V337.35H496.4C491.402 337.367 486.409 337.063 481.45 336.44Z" fill="#6F5912"/>
<path d="M1350.26 133.11C1354.31 129.528 1359.09 126.864 1364.26 125.3C1370.88 123.333 1377.77 122.405 1384.68 122.55C1398.61 122.55 1408.78 126.91 1415.21 135.63C1421.78 144.35 1425.07 156.59 1425.07 172.35C1430.47 172.469 1435.86 171.675 1441 170V113.44C1434.53 109.326 1427.44 106.287 1420 104.44C1410.33 102.009 1400.37 100.853 1390.4 101C1378.17 100.865 1365.98 102.331 1354.14 105.36C1344.1 107.884 1334.6 112.24 1326.14 118.21C1318.51 123.516 1312.29 130.596 1308 138.84C1307.77 139.3 1307.57 139.78 1307.35 140.25C1307.61 138.415 1307.74 136.564 1307.74 134.71C1307.74 123.85 1303.53 115.437 1295.11 109.47C1286.85 103.47 1274.15 100.47 1257.02 100.47C1246.61 100.47 1237.97 101.847 1231.09 104.6C1224.55 106.976 1218.6 110.727 1213.64 115.6C1208.92 120.42 1204.99 125.955 1202 132C1198.79 138.12 1195.65 144.697 1192.59 151.73H1190.3L1181.3 105.15H1109V124.88H1110.37C1115.29 124.861 1120.2 125.246 1125.06 126.03C1129.47 126.675 1133.69 128.239 1137.45 130.62C1141.09 133.057 1143.95 136.481 1145.71 140.49C1147.86 144.623 1148.94 150.13 1148.93 157.01V303.62C1148.93 310.953 1147.86 316.843 1145.71 321.29C1143.97 325.431 1141.11 329.007 1137.45 331.62C1133.78 334.026 1129.63 335.594 1125.29 336.21C1120.36 336.997 1115.37 337.378 1110.37 337.35H1109V357.09H1244.63V337.35H1231.54C1226.56 337.365 1221.58 337.061 1216.63 336.44C1212.33 335.778 1208.2 334.298 1204.46 332.08C1200.82 329.787 1197.88 326.53 1195.97 322.67C1193.97 318.377 1192.97 312.79 1192.97 305.91V232C1192.97 226 1193.28 219.333 1193.89 212C1194.51 204.62 1195.51 197.277 1196.89 190C1198.39 182.63 1200.3 175.351 1202.63 168.2C1204.82 161.693 1207.75 155.457 1211.35 149.61C1214.5 144.491 1218.63 140.046 1223.51 136.53C1228.02 133.186 1233.5 131.413 1239.12 131.48C1248.3 131.48 1254.73 134.387 1258.4 140.2C1262.07 145.86 1263.9 155.193 1263.9 168.2C1270.71 168.336 1277.5 167.562 1284.1 165.9C1289.02 164.523 1293.63 162.185 1297.64 159.02C1299.91 157.064 1301.84 154.746 1303.35 152.16C1302.3 157.13 1301.78 162.199 1301.81 167.28C1301.81 177.533 1303.26 186.407 1306.17 193.9C1309.12 201.315 1313.57 208.037 1319.25 213.64C1325.82 220.026 1333.22 225.504 1341.25 229.93C1350.28 234.83 1360.84 239.957 1372.92 245.31C1384.25 250.197 1393.66 254.557 1401.15 258.39C1407.45 261.446 1413.38 265.218 1418.82 269.63C1422.84 272.768 1426 276.876 1428 281.57C1429.95 286.294 1430.88 291.373 1430.75 296.48C1430.81 302.47 1429.63 308.409 1427.31 313.93C1425 319.144 1421.55 323.772 1417.21 327.47C1412.47 331.387 1407.02 334.349 1401.15 336.19C1393.92 338.296 1386.42 339.307 1378.89 339.19C1369.4 339.19 1361.37 337.66 1354.79 334.6C1348.64 331.618 1343.29 327.213 1339.18 321.75C1335.11 316.028 1332.22 309.552 1330.69 302.7C1328.96 295.095 1328.12 287.318 1328.17 279.52C1324.97 279.595 1321.8 280.137 1318.76 281.13C1315.23 282.131 1311.95 283.85 1309.12 286.18C1305.93 288.992 1303.35 292.43 1301.55 296.28C1299.55 300.413 1298.55 305.613 1298.55 311.88C1298.39 319.51 1300.29 327.042 1304.06 333.68C1307.96 340.037 1313.31 345.385 1319.67 349.29C1327.19 353.722 1335.42 356.827 1343.99 358.47C1354.55 360.704 1365.33 361.781 1376.12 361.68C1388.89 361.823 1401.62 360.28 1413.99 357.09C1423.59 354.671 1432.71 350.611 1440.93 345.09V232.38C1437.44 229.839 1433.81 227.502 1430.05 225.38C1419.73 219.629 1409.08 214.496 1398.15 210.01C1387.75 205.717 1378.8 201.89 1371.3 198.53C1364.9 195.574 1358.82 191.962 1353.17 187.75C1348.98 184.548 1345.53 180.474 1343.07 175.81C1340.83 170.92 1339.74 165.586 1339.86 160.21C1339.8 155.05 1340.66 149.92 1342.39 145.06C1344.05 140.517 1346.74 136.425 1350.26 133.11V133.11Z" fill="#6F5912"/>
<path d="M1075.94 132.65C1066.74 121.877 1054.99 113.59 1041.75 108.55C1028.28 103.217 1013.05 100.55 996.08 100.55C959.667 100.55 932.127 111.26 913.46 132.68C894.953 154.1 885.697 186.767 885.69 230.68C885.69 252.68 888.14 271.957 893.04 288.51C898.093 304.877 905.283 318.493 914.61 329.36C923.953 340.105 935.75 348.437 949 353.65C962.473 358.983 977.697 361.65 994.67 361.65C1030.78 361.65 1058.16 350.863 1076.83 329.29C1095.65 307.723 1105.06 274.83 1105.06 230.61C1105.06 208.61 1102.53 189.487 1097.48 173.24C1092.61 156.893 1085.43 143.363 1075.94 132.65ZM1055.94 276.77C1053.79 290.103 1050.19 301.27 1045.15 310.27C1040.55 318.689 1033.72 325.678 1025.41 330.47C1017.31 335.057 1007.37 337.35 995.58 337.35C983.793 337.35 973.773 335.057 965.52 330.47C957.163 325.652 950.255 318.675 945.52 310.27C940.467 301.25 936.8 290.083 934.52 276.77C932.078 261.517 930.928 246.086 931.08 230.64C931.08 213.2 932.227 197.9 934.52 184.74C936.813 171.58 940.48 160.64 945.52 151.92C950.08 143.524 956.924 136.59 965.26 131.92C973.373 127.48 983.317 125.26 995.09 125.26C1006.86 125.26 1016.83 127.507 1025 132C1033.45 136.608 1040.39 143.551 1045 152C1050.05 160.733 1053.71 171.673 1056 184.82C1058.29 197.967 1059.43 213.267 1059.44 230.72C1059.59 246.139 1058.44 261.544 1056 276.77H1055.94Z" fill="#6F5912"/>
</g>
<defs>
<clipPath id="clip0_1934_100">
<rect width="1441" height="361.68" fill="white"/>
</clipPath>
</defs>
</svg>
