<svg width="1441" height="316" viewBox="0 0 1441 316" fill="none" xmlns="http://www.w3.org/2000/svg">
<g clip-path="url(#clip0_1934_109)">
<path d="M410 293.29C406.407 292.731 402.987 291.364 400 289.29C397.028 286.938 394.745 283.829 393.39 280.29C391.79 276.417 390.99 271.28 390.99 264.88V168C390.99 154 389.387 141.923 386.18 131.77C382.973 121.617 378.307 113.34 372.18 106.94C365.893 100.309 358.049 95.3558 349.36 92.53C340.413 89.33 330.137 87.73 318.53 87.73C290.63 87.73 270.543 100.14 258.27 124.96H256.27C256.53 121.087 256.797 117.15 257.07 113.15C257.33 109.683 257.53 105.947 257.67 101.94C257.797 97.8 257.863 93.8633 257.87 90.13V-1.09514e-05H182.39V17.22H185.6C189.89 17.1985 194.175 17.533 198.41 18.22C202.254 18.6417 205.951 19.9345 209.22 22C212.394 24.1246 214.896 27.1118 216.43 30.61C218.303 34.21 219.237 39.0133 219.23 45.02V264.86C219.23 271.267 218.297 276.403 216.43 280.27C214.902 283.877 212.406 286.992 209.22 289.27C206.021 291.368 202.398 292.733 198.61 293.27C194.311 293.956 189.963 294.291 185.61 294.27H182.4V311.5H292.7V294.29H291.5C287.154 294.3 282.812 294.033 278.5 293.49C274.751 292.913 271.149 291.62 267.89 289.68C264.706 287.688 262.14 284.848 260.48 281.48C258.74 277.74 257.873 272.867 257.88 266.86V180.38C257.784 171.216 258.792 162.074 260.88 153.15C262.55 145.652 265.602 138.531 269.88 132.15C273.813 126.461 279.112 121.85 285.29 118.74C291.57 115.533 298.98 113.93 307.52 113.93C315.793 113.93 322.793 115.2 328.52 117.74C334.048 119.973 338.834 123.72 342.33 128.55C346.139 133.807 348.8 139.807 350.14 146.16C351.832 153.988 352.638 161.982 352.54 169.99V311.5H423.81V294.29H422.61C418.386 294.312 414.168 293.978 410 293.29V293.29ZM578.41 112.51C571.088 104.247 561.891 97.8617 551.59 93.89C541.037 89.75 529.157 87.6833 515.95 87.69C486.857 87.69 464.437 97.3567 448.69 116.69C432.943 136.023 425.067 164.86 425.06 203.2C425.06 220.953 427.197 236.837 431.47 250.85C435.87 264.73 442.143 276.473 450.29 286.08C458.377 295.644 468.594 303.178 480.12 308.08C491.993 313.02 505.327 315.49 520.12 315.49C532.26 315.49 542.803 314.157 551.75 311.49C560.823 308.823 568.363 305.49 574.37 301.49C580.377 297.49 584.847 293.157 587.78 288.49C590.72 283.69 592.19 279.22 592.19 275.08C592.267 271.883 591.355 268.74 589.58 266.08C588.387 263.93 586.575 262.188 584.38 261.08C581.753 265.079 578.598 268.705 575 271.86C571.033 275.358 566.67 278.378 562 280.86C556.738 283.657 551.157 285.809 545.38 287.27C538.972 288.92 532.376 289.726 525.76 289.67C516.02 289.67 507.413 288.07 499.94 284.87C492.381 281.458 485.835 276.145 480.94 269.45C475.847 262.483 471.9 253.667 469.1 243C466.433 232.187 464.967 219.307 464.7 204.36H601.23V185.58C601.23 169.433 599.23 155.287 595.23 143.14C591.357 130.86 585.75 120.65 578.41 112.51V112.51ZM465.5 182.38C466.973 158.62 471.78 140.62 479.92 128.38C488.187 115.96 499.93 109.753 515.15 109.76C523.417 109.76 530.357 111.493 535.97 114.96C541.829 118.559 546.602 123.681 549.78 129.78C553.524 136.993 556.093 144.757 557.39 152.78C559.06 162.567 559.863 172.482 559.79 182.41L465.5 182.38ZM1109.06 45C1111.17 46.9945 1113.7 48.5 1116.46 49.41C1119.46 50.2352 1122.56 50.6391 1125.67 50.61C1128.71 50.6311 1131.74 50.2272 1134.67 49.41C1137.39 48.5303 1139.86 47.019 1141.88 45C1144.13 42.8244 1145.84 40.1536 1146.88 37.2C1148.33 33.3694 1149 29.2923 1148.88 25.2C1149 21.1077 1148.32 17.0308 1146.88 13.2C1145.84 10.2464 1144.13 7.57562 1141.88 5.39999C1139.88 3.39303 1137.4 1.94186 1134.67 1.18999C1131.74 0.37277 1128.71 -0.0311345 1125.67 -0.010011C1122.56 -0.0390736 1119.46 0.364798 1116.46 1.18999C1113.69 1.97147 1111.15 3.41646 1109.06 5.39999C1106.81 7.57609 1105.1 10.2468 1104.06 13.2C1102.76 17.0627 1102.15 21.1252 1102.26 25.2C1102.15 29.2748 1102.76 33.3373 1104.06 37.2C1105.1 40.1532 1106.81 42.8239 1109.06 45V45Z" fill="#161C46"/>
<path d="M192.17 269.66C192.17 265.527 191.437 262.193 189.97 259.66C188.605 257.242 186.681 255.185 184.36 253.66C180.724 258.381 176.711 262.799 172.36 266.87C167.715 271.181 162.536 274.877 156.95 277.87C150.488 281.299 143.631 283.922 136.53 285.68C127.863 287.664 118.99 288.604 110.1 288.48C95.02 288.48 82.0733 285.48 71.26 279.48C60.4988 273.393 51.4198 264.727 44.84 254.26C37.8933 243.307 32.8167 230.22 29.61 215C26.2811 198.46 24.6725 181.621 24.81 164.75C24.81 144.203 26.3433 125.987 29.41 110.1C32.4767 94.1 37.4167 80.6867 44.23 69.86C50.5931 59.3096 59.7323 50.71 70.65 45C81.4567 39.26 94.6033 36.3933 110.09 36.4C119.03 36.4 126.503 38 132.51 41.2C138.355 44.0261 143.438 48.2133 147.33 53.41C151.211 58.3817 154.008 64.1114 155.54 70.23C157.259 76.4171 158.134 82.8084 158.14 89.23C162.881 89.2745 167.601 88.6002 172.14 87.23C176.242 86.0416 180.104 84.1428 183.55 81.62C186.655 79.2048 189.186 76.131 190.96 72.62C192.853 68.9065 193.814 64.788 193.76 60.62C193.788 54.1766 191.985 47.8579 188.56 42.4C185.227 36.8 180.087 31.93 173.14 27.79C166.34 23.65 157.733 20.4467 147.32 18.18C137.04 15.78 124.893 14.5767 110.88 14.57C89.26 14.57 70.26 18.2367 53.88 25.57C37.9287 32.5571 23.803 43.1275 12.6 56.46C7.85112 62.206 3.63381 68.3713 0 74.88L0 257.43C3.20605 263.268 6.88502 268.833 11 274.07C21.4265 287.189 34.7841 297.68 50 304.7C65.48 311.9 83.4333 315.503 103.86 315.51C119.067 315.51 132.21 314.107 143.29 311.3C154.37 308.367 163.513 304.7 170.72 300.3C177.927 295.9 183.26 291.03 186.72 285.69C190.353 280.21 192.17 274.867 192.17 269.66V269.66ZM1310.29 211C1304.7 205.29 1298.29 200.432 1291.29 196.58C1282.28 191.568 1272.99 187.09 1263.46 183.17C1254.38 179.43 1246.57 176.097 1240.04 173.17C1234.45 170.592 1229.15 167.438 1224.22 163.76C1220.56 160.971 1217.56 157.418 1215.41 153.35C1213.46 149.082 1212.51 144.43 1212.61 139.74C1212.56 135.238 1213.3 130.762 1214.81 126.52C1216.25 122.571 1218.58 119.008 1221.62 116.11C1225.15 112.99 1229.32 110.671 1233.83 109.31C1239.61 107.588 1245.62 106.775 1251.65 106.9C1263.79 106.9 1272.66 110.707 1278.27 118.32C1284.01 125.92 1286.88 136.587 1286.88 150.32C1296.36 150.32 1303.63 148.117 1308.7 143.71C1313.91 139.17 1316.52 133.17 1316.51 125.71C1316.51 120.659 1315.2 115.693 1312.71 111.3C1309.97 106.412 1306.04 102.288 1301.3 99.3C1295.53 95.522 1289.17 92.7462 1282.48 91.09C1274.04 88.9731 1265.35 87.9646 1256.65 88.09C1245.99 87.9707 1235.35 89.2482 1225.02 91.89C1216.26 94.0974 1207.98 97.8973 1200.6 103.1C1193.95 107.729 1188.52 113.906 1184.78 121.1C1181.06 128.837 1179.21 137.338 1179.38 145.92C1179.38 154.867 1180.65 162.61 1183.18 169.15C1185.76 175.611 1189.64 181.47 1194.59 186.36C1200.34 191.933 1206.8 196.715 1213.81 200.58C1221.69 204.853 1230.9 209.323 1241.44 213.99C1251.32 218.263 1259.53 222.067 1266.06 225.4C1271.56 228.069 1276.73 231.361 1281.48 235.21C1284.99 237.942 1287.74 241.525 1289.48 245.62C1291.18 249.738 1292 254.167 1291.88 258.62C1291.93 263.845 1290.91 269.025 1288.88 273.84C1286.87 278.387 1283.85 282.423 1280.07 285.65C1275.94 289.068 1271.18 291.653 1266.07 293.26C1259.76 295.089 1253.22 295.966 1246.65 295.86C1238.38 295.86 1231.38 294.527 1225.65 291.86C1220.28 289.267 1215.6 285.431 1212 280.67C1208.45 275.683 1205.93 270.036 1204.59 264.06C1203.08 257.427 1202.34 250.642 1202.39 243.84C1199.6 243.901 1196.83 244.372 1194.18 245.24C1191.1 246.115 1188.24 247.613 1185.77 249.64C1183 252.101 1180.75 255.098 1179.17 258.45C1177.43 262.06 1176.57 266.59 1176.57 272.07C1176.43 278.72 1178.09 285.283 1181.37 291.07C1182.04 292.176 1182.76 293.247 1183.54 294.28H1180.14C1175.79 294.29 1171.44 293.955 1167.14 293.28C1163.3 292.719 1159.61 291.357 1156.33 289.28C1153.22 286.925 1150.74 283.832 1149.13 280.28C1147.39 276.407 1146.52 271.27 1146.52 264.87V91.69H1073.25V108.91H1074.45C1078.74 108.889 1083.03 109.223 1087.27 109.91C1091.11 110.47 1094.8 111.833 1098.08 113.91C1101.25 116.034 1103.75 119.022 1105.28 122.52C1107.15 126.12 1108.08 130.923 1108.09 136.93V266.86C1108.09 272.86 1107.15 277.733 1105.28 281.48C1103.74 284.863 1101.24 287.716 1098.08 289.68C1094.76 291.639 1091.09 292.933 1087.27 293.49C1084.36 293.87 1081.27 294.12 1078.13 294.22C1074.88 294.108 1071.63 293.798 1068.42 293.29C1064.64 292.709 1061.03 291.346 1057.81 289.29C1054.62 287.015 1052.12 283.899 1050.6 280.29C1048.86 276.417 1047.99 271.28 1048 264.88V0H970.49V17.22H975.7C979.99 17.1994 984.275 17.5338 988.51 18.22C992.354 18.6417 996.051 19.9345 999.32 22C1002.49 24.1246 1005 27.1118 1006.53 30.61C1008.39 34.21 1009.32 39.0133 1009.33 45.02V264.86C1009.33 271.267 1008.4 276.403 1006.53 280.27C1005 283.877 1002.51 286.992 999.32 289.27C996.121 291.368 992.498 292.733 988.71 293.27H988.32C982.572 291.978 977.208 289.355 972.66 285.61C965.72 279.87 958.72 271.537 951.66 260.61L897 179.58L925.83 147.14C936.497 135 946.37 125.593 955.45 118.92C964.657 112.253 973.99 108.92 983.45 108.92V91.69H893V108.91C899.807 108.91 904.807 109.443 908 110.51C909.496 110.809 910.831 111.645 911.752 112.861C912.674 114.077 913.118 115.589 913 117.11C912.976 119.284 912.639 121.442 912 123.52C911.105 126.127 909.896 128.615 908.4 130.93C906.245 134.323 903.908 137.598 901.4 140.74C898.6 144.467 894.997 148.8 890.59 153.74L839.33 209.8C839.597 202.727 839.863 195.99 840.13 189.59C840.397 183.977 840.597 178.31 840.73 172.59C840.87 166.717 840.937 161.91 840.93 158.17V0H765.46V17.22H768.66C772.95 17.1985 777.235 17.533 781.47 18.22C785.314 18.64 789.012 19.9329 792.28 22C795.456 24.1225 797.958 27.1103 799.49 30.61C801.363 34.2033 802.297 39 802.29 45V264.86C802.29 271.267 801.357 276.403 799.49 280.27C797.965 283.879 795.47 286.995 792.28 289.27C789.082 291.37 785.459 292.736 781.67 293.27C777.371 293.956 773.023 294.291 768.67 294.27H767.45C768.551 293.015 769.554 291.678 770.45 290.27C773.228 286.121 774.758 281.262 774.86 276.27C774.954 272.954 774.269 269.663 772.86 266.66C771.679 264.185 769.973 261.998 767.86 260.25C763.193 268.663 756.12 275.537 746.64 280.87C737.16 286.203 726.083 288.87 713.41 288.87C691.41 288.87 675.527 281.73 665.76 267.45C656.133 253.15 651.32 231.467 651.32 202.4C651.32 184.113 652.52 168.897 654.92 156.75C657.32 144.603 660.79 134.937 665.33 127.75C669.87 120.537 675.273 115.463 681.54 112.53C688.279 109.524 695.592 108.023 702.97 108.13C709.91 108.13 715.577 109.397 719.97 111.93C724.417 114.24 728.101 117.785 730.58 122.14C733.375 126.744 735.278 131.832 736.19 137.14C737.282 143.151 737.818 149.25 737.79 155.36C749.943 155.36 759.087 153.427 765.22 149.56C771.353 145.693 774.42 139.027 774.42 129.56C774.552 122.853 772.282 116.32 768.02 111.14C763.498 105.585 757.833 101.07 751.41 97.9C744.147 94.2749 736.402 91.712 728.41 90.29C720.051 88.5587 711.537 87.6875 703 87.69C690.697 87.5857 678.458 89.4769 666.76 93.29C655.64 97.0651 645.662 103.603 637.76 112.29C629.62 121.23 623.213 133.107 618.54 147.92C614.013 162.587 611.747 180.873 611.74 202.78C611.74 222.927 614.007 240.143 618.54 254.43C623.207 268.583 629.68 280.193 637.96 289.26C646.077 298.221 656.243 305.084 667.59 309.26C679.68 313.503 692.418 315.605 705.23 315.47C716.843 315.47 726.987 314.267 735.66 311.86C744.327 309.6 751.533 306.6 757.28 302.86C760.25 300.992 763.012 298.813 765.52 296.36V311.46H875.77V294.29H874.57C870.224 294.299 865.882 294.032 861.57 293.49C857.822 292.912 854.22 291.618 850.96 289.68C847.776 287.688 845.211 284.848 843.55 281.48C841.817 277.74 840.95 272.867 840.95 266.86V229.86L871.18 207.44L912.18 271.71C916.84 279.296 922.061 286.523 927.8 293.33C932.133 298.267 937.362 302.339 943.21 305.33C949.474 308.174 956.176 309.933 963.03 310.53C965.32 310.73 967.82 310.9 970.47 311.03V311.53H1185.47V296.76C1188.23 299.832 1191.41 302.504 1194.91 304.7C1201.47 308.559 1208.65 311.265 1216.13 312.7C1225.33 314.644 1234.72 315.583 1244.13 315.5C1255.26 315.625 1266.35 314.28 1277.13 311.5C1286.37 309.204 1295.08 305.128 1302.76 299.5C1309.74 294.14 1315.36 287.214 1319.17 279.28C1323.05 271.28 1324.99 261.947 1324.98 251.28C1325.12 243.587 1323.9 235.93 1321.38 228.66C1318.98 222.054 1315.2 216.034 1310.29 211V211ZM1441 115.11V91.69H1387.79V41.24H1369C1367.3 50.2696 1364.75 59.1188 1361.39 67.67C1358.78 74.3008 1354.98 80.4003 1350.18 85.67C1345.8 90.2424 1340.37 93.6753 1334.36 95.67C1329.16 97.5532 1323.68 98.5668 1318.15 98.67V115.08H1349.38V252.05C1349.38 263.79 1350.51 273.733 1352.78 281.88C1355.18 290.02 1358.78 296.557 1363.59 301.49C1368.68 306.598 1375.03 310.263 1382 312.11C1389.47 314.37 1398.41 315.503 1408.82 315.51C1412.23 315.498 1415.64 315.298 1419.03 314.91C1422.46 314.663 1425.87 314.195 1429.24 313.51C1432.35 313.029 1435.42 312.361 1438.45 311.51C1439.37 311.25 1440.21 310.99 1441.01 310.73V291.83C1438.2 292.3 1435.4 292.74 1432.65 293.1C1428.13 293.654 1423.58 293.922 1419.03 293.9C1409.56 293.9 1401.96 290.63 1396.21 284.09C1390.61 277.55 1387.81 267.273 1387.8 253.26V115.11H1441Z" fill="#161C46"/>
</g>
<defs>
<clipPath id="clip0_1934_109">
<rect width="1441" height="315.51" fill="white"/>
</clipPath>
</defs>
</svg>
