<svg width="1318" height="231" viewBox="0 0 1318 231" fill="none" xmlns="http://www.w3.org/2000/svg">
<g clip-path="url(#clip0_2_44)">
<path d="M78.3 231C58.5 231 41.8 226.4 28.2 217.2C14.6 208 4.30001 195.2 -2.69999 178.8C-9.49999 162.2 -12.9 142.8 -12.9 120.6C-12.9 99 -9.29999 80 -2.09999 63.6C5.30001 47 16.1 34.1 30.3 24.9C44.7 15.5 62.4 10.8 83.4 10.8C97 10.8 108.3 12.3 117.3 15.3C126.3 18.1 133 22.1 137.4 27.3C141.8 32.3 144 38 144 44.4C144 50.8 141.5 55.9 136.5 59.7C131.5 63.5 125.3 65.4 117.9 65.4C117.9 59.2 116.8 53.2 114.6 47.4C112.4 41.4 108.7 36.5 103.5 32.7C98.5 28.7 91.6 26.7 82.8 26.7C67.8 26.7 55.7 30.4 46.5 37.8C37.3 45 30.6 55.6 26.4 69.6C22.4 83.6 20.4 100.6 20.4 120.6C20.4 138.4 22.5 154.2 26.7 168C31.1 181.6 37.9 192.2 47.1 199.8C56.3 207.4 68.2 211.2 82.8 211.2C92.6 211.2 100.9 210 107.7 207.6C114.5 205.2 120.2 202.1 124.8 198.3C129.6 194.3 133.7 190.1 137.1 185.7C138.7 186.7 140 188.2 141 190.2C142.2 192 142.8 194.4 142.8 197.4C142.8 201.2 141.5 205.1 138.9 209.1C136.3 212.9 132.4 216.5 127.2 219.9C122 223.1 115.3 225.8 107.1 228C99.1 230 89.5 231 78.3 231Z" fill="#E2FED2"/>
<path d="M222.377 231C200.777 231 183.777 224.1 171.377 210.3C158.977 196.5 152.777 175.5 152.777 147.3C152.777 119.3 158.677 98.5 170.477 84.9C182.477 71.1 200.077 64.2 223.277 64.2C244.877 64.2 261.877 71.1 274.277 84.9C286.677 98.5 292.877 119.3 292.877 147.3C292.877 175.5 286.877 196.5 274.877 210.3C263.077 224.1 245.577 231 222.377 231ZM222.977 215.4C232.977 215.4 240.977 212.9 246.977 207.9C252.977 202.7 257.277 195 259.877 184.8C262.477 174.6 263.777 162.1 263.777 147.3C263.777 132.3 262.377 119.9 259.577 110.1C256.977 100.1 252.677 92.6 246.677 87.6C240.677 82.6 232.677 80.1 222.677 80.1C212.677 80.1 204.677 82.6 198.677 87.6C192.677 92.6 188.377 100.1 185.777 110.1C183.177 119.9 181.877 132.3 181.877 147.3C181.877 162.1 183.177 174.6 185.777 184.8C188.577 195 192.977 202.7 198.977 207.9C204.977 212.9 212.977 215.4 222.977 215.4Z" fill="#E2FED2"/>
<path d="M295.322 228V215.4H299.222C303.822 215.4 307.922 214.9 311.522 213.9C315.322 212.9 318.322 210.9 320.522 207.9C322.722 204.7 323.822 200 323.822 193.8V33C323.822 27 322.622 22.6 320.222 19.8C318.022 16.8 315.022 14.9 311.222 14.1C307.622 13.1 303.622 12.6 299.222 12.6H295.322V-1.52588e-05H352.022V193.8C352.022 200 353.122 204.7 355.322 207.9C357.522 210.9 360.522 212.9 364.322 213.9C368.122 214.9 372.222 215.4 376.622 215.4H380.522V228H295.322Z" fill="#E2FED2"/>
<path d="M370.193 228V215.4H374.093C378.693 215.4 382.793 214.9 386.393 213.9C390.193 212.9 393.193 210.9 395.393 207.9C397.593 204.7 398.693 200 398.693 193.8V33C398.693 27 397.493 22.6 395.093 19.8C392.893 16.8 389.893 14.9 386.093 14.1C382.493 13.1 378.493 12.6 374.093 12.6H370.193V-1.52588e-05H426.893V193.8C426.893 200 427.993 204.7 430.193 207.9C432.393 210.9 435.393 212.9 439.193 213.9C442.993 214.9 447.093 215.4 451.493 215.4H455.393V228H370.193Z" fill="#E2FED2"/>
<path d="M527.264 231C505.464 231 488.364 223.8 475.964 209.4C463.764 195 457.664 174.8 457.664 148.8C457.664 120.8 463.464 99.7 475.064 85.5C486.664 71.3 503.064 64.2 524.264 64.2C543.664 64.2 558.864 70.2 569.864 82.2C581.064 94.2 586.664 112.1 586.664 135.9V149.7H486.764C487.164 164.3 489.064 176.2 492.464 185.4C495.864 194.6 500.764 201.4 507.164 205.8C513.764 210 521.864 212.1 531.464 212.1C538.464 212.1 544.664 211.1 550.064 209.1C555.664 207.1 560.464 204.5 564.464 201.3C568.664 198.1 571.964 194.7 574.364 191.1C575.764 191.7 577.064 192.9 578.264 194.7C579.464 196.5 580.064 198.7 580.064 201.3C580.064 205.3 578.164 209.6 574.364 214.2C570.564 218.8 564.764 222.8 556.964 226.2C549.164 229.4 539.264 231 527.264 231ZM556.364 133.5C556.364 122.9 555.264 113.6 553.064 105.6C551.064 97.6 547.664 91.4 542.864 87C538.064 82.6 531.664 80.4 523.664 80.4C516.264 80.4 509.964 82.5 504.764 86.7C499.764 90.7 495.764 96.6 492.764 104.4C489.964 112.2 488.164 121.9 487.364 133.5H556.364Z" fill="#E2FED2"/>
<path d="M668.611 231C655.411 231 643.611 228.2 633.211 222.6C623.011 217 614.911 208.2 608.911 196.2C603.111 184 600.211 168.1 600.211 148.5C600.211 127.1 603.111 110.3 608.911 98.1C614.911 85.7 622.911 77 632.911 72C643.111 66.8 654.511 64.2 667.111 64.2C675.511 64.2 683.711 65.3 691.711 67.5C699.711 69.7 706.311 73.1 711.511 77.7C716.711 82.1 719.311 87.8 719.311 94.8C719.311 99.4 718.311 103.1 716.311 105.9C714.311 108.7 711.311 110.7 707.311 111.9C703.511 113.1 698.611 113.7 692.611 113.7C692.611 107.3 691.811 101.5 690.211 96.3C688.811 91.1 686.311 87 682.711 84C679.111 80.8 673.911 79.2 667.111 79.2C659.511 79.2 652.811 81.2 647.011 85.2C641.411 89.2 637.011 96.2 633.811 106.2C630.811 116.2 629.311 130.2 629.311 148.2C629.311 162.4 630.811 174.2 633.811 183.6C637.011 193 641.911 200 648.511 204.6C655.111 209.2 663.811 211.5 674.611 211.5C680.811 211.5 686.511 210.6 691.711 208.8C696.911 207 701.411 204.5 705.211 201.3C709.211 198.1 712.311 194.5 714.511 190.5C716.111 191.7 717.311 193.3 718.111 195.3C719.111 197.1 719.611 199.4 719.611 202.2C719.611 206.8 717.711 211.3 713.911 215.7C710.111 220.1 704.411 223.8 696.811 226.8C689.411 229.6 680.011 231 668.611 231Z" fill="#E2FED2"/>
<path d="M785.367 231C770.167 231 759.067 227.6 752.067 220.8C745.267 213.8 741.867 201.7 741.867 184.5V84.3H719.067V72.3C722.667 72.3 726.667 71.6 731.067 70.2C735.467 68.6 739.267 66.1 742.467 62.7C745.867 59.1 748.667 54.7 750.867 49.5C753.067 44.3 754.867 37.9 756.267 30.3H770.067V67.2H809.367V84.3H770.067V185.4C770.067 195.6 772.167 203.1 776.367 207.9C780.567 212.7 786.067 215.1 792.867 215.1C796.467 215.1 799.767 214.9 802.767 214.5C805.767 214.1 808.867 213.6 812.067 213V226.2C809.467 227.4 805.567 228.5 800.367 229.5C795.167 230.5 790.167 231 785.367 231Z" fill="#E2FED2"/>
<path d="M807.736 228V215.4H811.636C816.036 215.4 820.036 215 823.636 214.2C827.436 213.2 830.436 211.3 832.636 208.5C835.036 205.5 836.236 201.1 836.236 195.3V100.2C836.236 94.2 835.036 89.8 832.636 87C830.436 84 827.436 82.1 823.636 81.3C820.036 80.3 816.036 79.8 811.636 79.8H810.736V67.2H864.436V193.8C864.436 200 865.536 204.7 867.736 207.9C869.936 210.9 872.936 212.9 876.736 213.9C880.536 214.9 884.636 215.4 889.036 215.4H892.936V228H807.736ZM849.136 37.2C844.336 37.2 840.236 35.8 836.836 33C833.636 30.2 832.036 25.4 832.036 18.6C832.036 11.6 833.636 6.79999 836.836 4.19998C840.236 1.39998 844.336 -1.52588e-05 849.136 -1.52588e-05C853.736 -1.52588e-05 857.736 1.39998 861.136 4.19998C864.536 6.79999 866.236 11.6 866.236 18.6C866.236 25.4 864.536 30.2 861.136 33C857.736 35.8 853.736 37.2 849.136 37.2Z" fill="#E2FED2"/>
<path d="M965.03 231C943.43 231 926.43 224.1 914.03 210.3C901.63 196.5 895.43 175.5 895.43 147.3C895.43 119.3 901.33 98.5 913.13 84.9C925.13 71.1 942.73 64.2 965.93 64.2C987.53 64.2 1004.53 71.1 1016.93 84.9C1029.33 98.5 1035.53 119.3 1035.53 147.3C1035.53 175.5 1029.53 196.5 1017.53 210.3C1005.73 224.1 988.23 231 965.03 231ZM965.63 215.4C975.63 215.4 983.63 212.9 989.63 207.9C995.63 202.7 999.93 195 1002.53 184.8C1005.13 174.6 1006.43 162.1 1006.43 147.3C1006.43 132.3 1005.03 119.9 1002.23 110.1C999.63 100.1 995.33 92.6 989.33 87.6C983.33 82.6 975.33 80.1 965.33 80.1C955.33 80.1 947.33 82.6 941.33 87.6C935.33 92.6 931.03 100.1 928.43 110.1C925.83 119.9 924.53 132.3 924.53 147.3C924.53 162.1 925.83 174.6 928.43 184.8C931.23 195 935.63 202.7 941.63 207.9C947.63 212.9 955.63 215.4 965.63 215.4Z" fill="#E2FED2"/>
<path d="M1042.47 228V215.4H1044.87C1049.47 215.4 1053.57 214.9 1057.17 213.9C1060.97 212.9 1063.97 210.9 1066.17 207.9C1068.37 204.7 1069.47 200 1069.47 193.8V100.2C1069.47 94.2 1068.37 89.8 1066.17 87C1063.97 84 1061.07 82.1 1057.47 81.3C1053.87 80.3 1049.87 79.8 1045.47 79.8H1043.97V67.2H1092.57L1096.47 91.5H1097.97C1102.17 83.9 1106.57 78.2 1111.17 74.4C1115.97 70.4 1121.17 67.7 1126.77 66.3C1132.37 64.9 1138.37 64.2 1144.77 64.2C1160.57 64.2 1172.87 68.9 1181.67 78.3C1190.67 87.5 1195.17 102.4 1195.17 123V193.8C1195.17 200 1196.07 204.7 1197.87 207.9C1199.87 210.9 1202.57 212.9 1205.97 213.9C1209.37 214.9 1213.27 215.4 1217.67 215.4H1219.17V228H1166.97V124.5C1166.97 111.5 1164.47 101.4 1159.47 94.2C1154.67 87 1146.17 83.4 1133.97 83.4C1124.97 83.4 1117.77 85.7 1112.37 90.3C1107.17 94.7 1103.37 100.6 1100.97 108C1098.77 115.4 1097.67 123.4 1097.67 132V195.3C1097.67 201.1 1098.77 205.5 1100.97 208.5C1103.17 211.3 1106.07 213.2 1109.67 214.2C1113.27 215 1117.27 215.4 1121.67 215.4H1123.17V228H1042.47Z" fill="#E2FED2"/>
<path d="M1272.43 231C1262.43 231 1253.73 229.8 1246.33 227.4C1238.93 225 1233.13 221.5 1228.93 216.9C1224.93 212.1 1222.93 206.2 1222.93 199.2C1222.93 193.8 1224.03 189.6 1226.23 186.6C1228.43 183.6 1230.93 181.5 1233.73 180.3C1236.73 179.1 1239.43 178.5 1241.83 178.5C1241.83 185.5 1242.83 191.9 1244.83 197.7C1246.83 203.5 1250.23 208.1 1255.03 211.5C1259.83 214.9 1266.23 216.6 1274.23 216.6C1284.83 216.6 1292.93 214.1 1298.53 209.1C1304.33 203.9 1307.23 197.3 1307.23 189.3C1307.23 184.3 1306.13 180.2 1303.93 177C1301.93 173.8 1298.23 170.7 1292.83 167.7C1287.63 164.5 1280.13 160.8 1270.33 156.6C1260.13 152 1251.63 147.6 1244.83 143.4C1238.23 139 1233.23 134 1229.83 128.4C1226.63 122.6 1225.03 115.4 1225.03 106.8C1225.03 93.2 1230.13 82.8 1240.33 75.6C1250.73 68.2 1264.43 64.5 1281.43 64.5C1291.03 64.5 1299.03 65.8 1305.43 68.4C1312.03 70.8 1316.93 74.1 1320.13 78.3C1323.53 82.5 1325.23 87.1 1325.23 92.1C1325.23 97.5 1323.33 101.9 1319.53 105.3C1315.93 108.5 1310.63 110.1 1303.63 110.1C1303.63 100.1 1301.53 92.3 1297.33 86.7C1293.13 81.1 1286.63 78.3 1277.83 78.3C1271.03 78.3 1265.53 79.3 1261.33 81.3C1257.13 83.3 1254.03 86.1 1252.03 89.7C1250.23 93.3 1249.33 97.5 1249.33 102.3C1249.33 107.3 1250.53 111.5 1252.93 114.9C1255.53 118.3 1259.53 121.5 1264.93 124.5C1270.53 127.3 1277.73 130.5 1286.53 134.1C1297.13 138.5 1305.73 142.9 1312.33 147.3C1318.93 151.7 1323.73 156.8 1326.73 162.6C1329.93 168.4 1331.53 175.5 1331.53 183.9C1331.53 199.5 1326.13 211.3 1315.33 219.3C1304.53 227.1 1290.23 231 1272.43 231Z" fill="#E2FED2"/>
</g>
<defs>
<clipPath id="clip0_2_44">
<rect width="1318" height="231" fill="white"/>
</clipPath>
</defs>
</svg>
