<svg width="1440" height="270" viewBox="0 0 1440 270" fill="none" xmlns="http://www.w3.org/2000/svg">
<g clip-path="url(#clip0_1934_126)">
<path d="M44.64 260.11C57.86 266.257 73.1933 269.333 90.64 269.34C103.633 269.34 114.857 268.143 124.31 265.75C133.77 263.243 141.577 260.11 147.73 256.35C153.883 252.59 158.44 248.43 161.4 243.87C164.467 239.203 166.003 234.647 166.01 230.2C166.139 227.238 165.491 224.294 164.13 221.66C162.971 219.591 161.332 217.832 159.35 216.53C156.24 220.56 152.808 224.333 149.09 227.81C145.121 231.49 140.699 234.649 135.93 237.21C130.414 240.135 124.561 242.372 118.5 243.87C111.103 245.57 103.529 246.376 95.94 246.27C83.0733 246.27 72.0233 243.703 62.79 238.57C53.5818 233.373 45.817 225.958 40.2 217C34.28 207.667 29.9467 196.503 27.2 183.51C24.3578 169.39 22.9838 155.013 23.1 140.61C23.1067 123.083 24.4067 107.547 27 94C29.6667 80.32 33.8967 68.8666 39.69 59.64C45.1315 50.6471 52.9343 43.3181 62.25 38.45C71.47 33.55 82.69 31.1 95.91 31.1C103.55 31.1 109.93 32.47 115.05 35.21C120.04 37.6205 124.378 41.194 127.7 45.63C131.009 49.8722 133.394 54.7605 134.7 59.98C136.17 65.2681 136.917 70.7312 136.92 76.22C140.984 76.2649 145.031 75.6882 148.92 74.51C152.422 73.5 155.719 71.8821 158.66 69.73C161.322 67.6567 163.488 65.016 165 62C166.616 58.824 167.436 55.3031 167.39 51.74C167.414 46.2405 165.875 40.8475 162.95 36.19C160.097 31.41 155.71 27.2533 149.79 23.72C143.977 20.18 136.643 17.4433 127.79 15.51C119.023 13.4566 108.657 12.4333 96.69 12.44C78.23 12.44 61.9933 15.5733 47.98 21.84C34.3813 27.7895 22.3364 36.7924 12.78 48.15C7.82566 54.1315 3.54019 60.6368 0 67.55L0 216.07C3.16496 222.41 6.95724 228.416 11.32 234C20.2299 245.191 31.6428 254.135 44.64 260.11V260.11Z" fill="#161C46"/>
<path d="M312.3 98.7801C305.448 90.7592 296.69 84.5901 286.83 80.8401C276.83 76.8401 265.497 74.8401 252.83 74.8401C225.71 74.8401 205.2 82.8168 191.3 98.7701C177.52 114.723 170.627 139.057 170.62 171.77C170.62 188.183 172.443 202.54 176.09 214.84C179.85 227.027 185.207 237.167 192.16 245.26C199.119 253.276 207.912 259.493 217.79 263.38C227.79 267.38 239.123 269.38 251.79 269.38C278.677 269.38 299.07 261.347 312.97 245.28C326.97 229.22 333.97 204.723 333.97 171.79C333.97 155.39 332.09 141.15 328.33 129.07C324.71 116.857 319.367 106.76 312.3 98.7801ZM297.43 206.1C295.837 216.02 293.17 224.353 289.43 231.1C285.999 237.354 280.914 242.544 274.73 246.1C268.69 249.52 261.283 251.23 252.51 251.23C243.737 251.23 236.277 249.52 230.13 246.1C223.919 242.523 218.783 237.342 215.26 231.1C211.5 224.373 208.763 216.04 207.05 206.1C205.235 194.742 204.379 183.252 204.49 171.75C204.357 160.306 205.197 148.872 207 137.57C208.707 127.783 211.443 119.64 215.21 113.14C218.606 106.897 223.699 101.742 229.9 98.2701C235.94 94.9368 243.347 93.2701 252.12 93.2701C260.893 93.2701 268.3 94.9368 274.34 98.2701C280.62 101.698 285.782 106.86 289.21 113.14C292.97 119.633 295.703 127.777 297.41 137.57C299.245 148.869 300.112 160.304 300 171.75C300.113 183.252 299.254 194.743 297.43 206.1Z" fill="#161C46"/>
<path d="M529.37 250.37C526.297 249.896 523.373 248.726 520.82 246.95C518.29 244.934 516.343 242.279 515.18 239.26C513.933 235.927 513.307 231.54 513.3 226.1V143.38C513.3 131.42 511.933 121.11 509.2 112.45C506.58 103.783 502.707 96.72 497.58 91.26C492.553 85.6887 486.205 81.4725 479.12 79C471.236 76.1389 462.896 74.7459 454.51 74.89C449.127 74.8749 443.753 75.3333 438.45 76.26C433.436 77.0411 428.584 78.6426 424.09 81C419.318 83.5273 414.991 86.8173 411.28 90.74C406.794 95.5207 402.945 100.862 399.83 106.63H398.12L393.5 78.27H336.93V93H337.93C341.594 92.982 345.253 93.2663 348.87 93.85C352.153 94.3271 355.299 95.4926 358.1 97.27C360.808 99.0842 362.942 101.634 364.25 104.62C365.843 107.7 366.64 111.803 366.64 116.93V226.1C366.64 231.573 365.843 235.96 364.25 239.26C362.946 242.34 360.818 245.001 358.1 246.95C355.369 248.745 352.275 249.913 349.04 250.37C345.366 250.958 341.65 251.243 337.93 251.22H335.02V265.92H429.19V251.22H428.19C424.479 251.228 420.772 251.001 417.09 250.54C413.889 250.051 410.812 248.947 408.03 247.29C405.311 245.593 403.122 243.168 401.71 240.29C400.223 237.103 399.48 232.947 399.48 227.82V154C399.439 146.775 400.108 139.564 401.48 132.47C402.798 126.057 405.228 119.925 408.66 114.35C411.895 109.182 416.362 104.897 421.66 101.88C427.133 98.8 433.857 97.26 441.83 97.26C448.89 97.26 454.87 98.3434 459.77 100.51C464.492 102.414 468.579 105.613 471.56 109.74C474.809 114.218 477.082 119.328 478.23 124.74C479.677 131.418 480.365 138.238 480.28 145.07V265.92H541.28V251.22H540.08C536.492 251.24 532.91 250.956 529.37 250.37V250.37Z" fill="#161C46"/>
<path d="M797.93 38.4499C799.737 40.1494 801.894 41.4327 804.25 42.2099C806.81 42.9094 809.456 43.246 812.11 43.2099C814.708 43.2403 817.296 42.9036 819.8 42.2099C822.135 41.4648 824.26 40.1761 826 38.4499C827.917 36.5882 829.378 34.309 830.27 31.7899C831.505 28.5145 832.086 25.0288 831.98 21.5299C832.086 18.0343 831.505 14.5518 830.27 11.2799C829.378 8.75794 827.917 6.47549 826 4.60994C824.282 2.8885 822.145 1.64432 819.8 0.999939C817.296 0.306232 814.708 -0.0304259 812.11 -6.11683e-05C809.456 -0.0361675 806.81 0.30045 804.25 0.999939C801.886 1.66757 799.718 2.89564 797.93 4.57994C796.01 6.44296 794.548 8.72618 793.66 11.2499C792.542 14.548 792.02 18.0189 792.12 21.4999C792.02 24.9842 792.542 28.4584 793.66 31.7599C794.544 34.2915 796.006 36.5821 797.93 38.4499V38.4499Z" fill="#161C46"/>
<path d="M1017.05 98.27C1011.29 90.5087 1003.56 84.4287 994.66 80.66C985.773 76.7933 975.577 74.8567 964.07 74.85C957.822 74.7676 951.598 75.6341 945.61 77.42C940.355 78.9121 935.389 81.2785 930.92 84.42C926.543 87.4304 922.677 91.1241 919.47 95.36C916.034 99.8974 913.056 104.765 910.58 109.89H909.21C909.444 104.077 909.674 98.4367 909.9 92.97C910.12 88.1833 910.29 83.2267 910.41 78.1C910.523 72.86 910.58 68.2467 910.58 64.26V0H846.15V14.7H848.89C852.551 14.6819 856.206 14.9662 859.82 15.55C863.103 15.9199 866.26 17.0312 869.05 18.8C871.758 20.6141 873.892 23.1642 875.2 26.15C876.8 29.22 877.6 33.33 877.6 38.45V226.1C877.6 231.573 876.8 235.96 875.2 239.26C873.896 242.34 871.768 245.001 869.05 246.95C866.32 248.746 863.226 249.914 859.99 250.37C857.99 250.69 855.99 250.92 853.78 251.06C851.634 250.92 849.537 250.69 847.49 250.37C844.207 249.893 841.062 248.727 838.26 246.95C835.605 244.936 833.491 242.293 832.11 239.26C830.63 235.927 829.89 231.54 829.89 226.1V78.27H767.34V80.52C761.187 76.7533 752.233 74.8633 740.48 74.85C732.733 74.85 726.297 75.8767 721.17 77.93C716.299 79.7004 711.866 82.4969 708.17 86.13C704.649 89.6952 701.709 93.7919 699.46 98.27C697.06 102.823 694.727 107.72 692.46 112.96H690.75L684.08 78.27H589.38V35.21H573.31C571.87 42.9163 569.697 50.4673 566.82 57.76C564.593 63.4294 561.35 68.6448 557.25 73.15C553.51 77.0498 548.876 79.9808 543.75 81.69C539.308 83.2954 534.633 84.1602 529.91 84.25V98.25H556.57V215.16C556.57 225.16 557.537 233.647 559.47 240.62C561.517 247.58 564.594 253.163 568.7 257.37C573.043 261.732 578.469 264.859 584.42 266.43C591.871 268.512 599.586 269.492 607.32 269.34C610.234 269.331 613.146 269.158 616.04 268.82C618.97 268.618 621.883 268.22 624.76 267.63C627.411 267.211 630.035 266.64 632.62 265.92H731.25V251.22H721.51C717.796 251.228 714.085 251.001 710.4 250.54C707.199 250.049 704.123 248.946 701.34 247.29C698.624 245.59 696.435 243.166 695.02 240.29C693.54 237.103 692.8 232.947 692.8 227.82V172.82C692.8 168.38 693.027 163.423 693.48 157.95C693.943 152.446 694.688 146.968 695.71 141.54C696.824 136.038 698.257 130.606 700 125.27C701.635 120.427 703.812 115.784 706.49 111.43C708.838 107.615 711.917 104.301 715.55 101.68C718.911 99.1953 722.991 97.8752 727.17 97.92C734.01 97.92 738.797 100.087 741.53 104.42C744.264 108.627 745.63 115.577 745.63 125.27C750.684 125.368 755.728 124.793 760.63 123.56C764.297 122.534 767.723 120.79 770.71 118.43C773.239 116.286 775.18 113.532 776.35 110.43C777.626 107.224 778.264 103.8 778.23 100.35C778.244 98.0659 777.959 95.7898 777.38 93.58C778.02 93.67 778.66 93.75 779.28 93.85C782.563 94.3271 785.709 95.4926 788.51 97.27C791.218 99.0841 793.352 101.634 794.66 104.62C796.26 107.7 797.06 111.803 797.06 116.93V227.81C797.06 232.937 796.26 237.093 794.66 240.28C793.345 243.169 791.206 245.604 788.51 247.28C785.675 248.955 782.539 250.059 779.28 250.53C775.652 250.995 771.998 251.222 768.34 251.21H763.73V265.91H902.21L908.36 238.56H910.58C913.021 243.024 915.942 247.209 919.29 251.04C926.334 258.9 935.554 264.49 945.78 267.1C951.751 268.651 957.902 269.401 964.07 269.33C975.577 269.33 985.773 267.45 994.66 263.69C1003.55 259.816 1011.26 253.687 1017.05 245.91C1023.09 237.91 1027.65 227.77 1030.72 215.49C1033.91 203.19 1035.51 188.607 1035.51 171.74C1035.51 155 1033.91 140.533 1030.72 128.34C1027.64 116.147 1023.08 106.123 1017.05 98.27ZM660 226.1C660 231.573 659.2 235.96 657.6 239.26C656.296 242.34 654.168 245.001 651.45 246.95C648.725 248.747 645.633 249.916 642.4 250.37C641.12 250.58 639.79 250.74 638.4 250.87V248.49C634.747 249.157 631.157 249.727 627.63 250.2C623.775 250.671 619.894 250.898 616.01 250.88C607.924 250.88 601.43 248.09 596.53 242.51C591.744 236.923 589.35 228.15 589.35 216.19V98.27H635.15V93.08C637.495 93.1984 639.832 93.4455 642.15 93.82C645.434 94.2953 648.58 95.4609 651.38 97.24C654.088 99.0541 656.222 101.604 657.53 104.59C659.13 107.67 659.93 111.773 659.93 116.9L660 226.1ZM999.11 204.1C997.517 213.433 994.953 221.297 991.42 227.69C988.388 233.658 983.777 238.68 978.09 242.21C972.757 245.397 966.207 246.993 958.44 247C949.214 247 941.524 245.403 935.37 242.21C929.23 238.812 924.144 233.788 920.67 227.69C917.03 221.31 914.41 213.447 912.81 204.1C911.234 193.407 910.492 182.608 910.59 171.8C910.476 160.759 911.219 149.726 912.81 138.8C914.41 129.467 917.03 121.72 920.67 115.56C924.049 109.662 929.107 104.903 935.2 101.89C941.347 98.81 948.98 97.27 958.1 97.27C965.853 97.27 972.46 98.81 977.92 101.89C983.656 105.111 988.343 109.916 991.42 115.73C994.96 121.877 997.524 129.623 999.11 138.97C1000.83 149.706 1001.63 160.568 1001.51 171.44C1001.61 182.358 1000.8 193.265 999.1 204.05L999.11 204.1Z" fill="#161C46"/>
<path d="M1228.82 250.54C1225.62 250.051 1222.54 248.947 1219.76 247.29C1217.04 245.593 1214.85 243.168 1213.44 240.29C1211.96 237.103 1211.22 232.947 1211.22 227.82V78.27H1148.67V93H1149.67C1153.39 92.9775 1157.11 93.2618 1160.78 93.85C1164.04 94.3142 1167.15 95.5445 1169.84 97.44C1172.61 99.3334 1174.75 102.011 1175.99 105.13C1177.59 108.463 1178.39 112.85 1178.38 118.29V190.41C1178.46 198.175 1177.6 205.921 1175.82 213.48C1174.35 219.943 1171.63 226.057 1167.82 231.48C1164.29 236.376 1159.59 240.312 1154.15 242.93C1148.68 245.663 1142.07 247.03 1134.32 247.03C1127.26 247.03 1121.34 246.003 1116.55 243.95C1112.01 241.894 1108.11 238.646 1105.27 234.55C1102.34 229.976 1100.3 224.885 1099.27 219.55C1098.06 212.842 1097.49 206.035 1097.56 199.22V78.27H1034.84V93H1035.84C1039.5 92.982 1043.16 93.2663 1046.77 93.85C1050.05 94.3271 1053.2 95.4926 1056 97.27C1058.71 99.0842 1060.84 101.634 1062.15 104.62C1063.75 107.7 1064.55 111.803 1064.55 116.93V200.84C1064.55 212.8 1065.8 223.11 1068.31 231.77C1070.93 240.437 1074.69 247.557 1079.58 253.13C1084.47 258.709 1090.71 262.946 1097.7 265.44C1105.61 268.18 1113.94 269.511 1122.31 269.37C1127.81 269.385 1133.3 268.926 1138.72 268C1149.56 266.488 1159.59 261.44 1167.26 253.64C1172.03 248.954 1176.01 243.531 1179.05 237.58H1180.76L1185.37 265.95H1241V251.25H1240C1236.26 251.252 1232.53 251.014 1228.82 250.54V250.54Z" fill="#161C46"/>
<path d="M1313.78 250.88C1305.69 250.88 1299.2 248.09 1294.3 242.51C1289.52 236.923 1287.13 228.15 1287.12 216.19V98.27H1332.92V78.27H1287.12V35.21H1271.06C1269.62 42.9166 1267.44 50.4676 1264.56 57.76C1262.34 63.4286 1259.1 68.644 1255 73.15C1251.26 77.0498 1246.63 79.9808 1241.5 81.69C1237.06 83.2961 1232.38 84.1609 1227.66 84.25V98.25H1254.32V215.16C1254.32 225.16 1255.29 233.647 1257.23 240.62C1259.28 247.58 1262.36 253.163 1266.45 257.37C1270.8 261.73 1276.23 264.857 1282.18 266.43C1289.63 268.512 1297.35 269.493 1305.08 269.34C1307.99 269.331 1310.9 269.158 1313.79 268.82C1316.72 268.618 1319.63 268.221 1322.51 267.63C1325.16 267.213 1327.79 266.643 1330.37 265.92C1332.35 265.377 1334.3 264.692 1336.18 263.87V248.49C1332.54 249.157 1328.95 249.727 1325.41 250.2C1321.55 250.672 1317.67 250.899 1313.78 250.88V250.88Z" fill="#161C46"/>
<path d="M1421.65 247.29C1414.1 247.434 1406.6 246.039 1399.6 243.19C1393.14 240.27 1387.55 235.726 1383.37 230C1379.04 224.08 1375.68 216.56 1373.28 207.44C1371 198.213 1369.75 187.213 1369.52 174.44H1440V155.64H1370.21C1371.46 135.36 1375.56 119.98 1382.51 109.5C1389.58 98.8999 1399.6 93.5999 1412.59 93.5999C1419.65 93.5999 1425.57 95.0833 1430.36 98.0499C1434.19 100.378 1437.48 103.498 1440 107.2V78.8299C1431.36 76.0823 1422.34 74.732 1413.27 74.8299C1388.44 74.8299 1369.3 83.0899 1355.85 99.6099C1342.4 116.13 1335.68 140.74 1335.69 173.44C1335.69 188.587 1337.51 202.147 1341.15 214.12C1344.91 225.973 1350.27 235.997 1357.22 244.19C1364.12 252.359 1372.84 258.798 1382.68 262.99C1392.82 267.21 1404.21 269.32 1416.86 269.32C1424.64 269.412 1432.41 268.604 1440 266.91V244.78C1439.46 244.93 1439 245.1 1438.4 245.24C1432.93 246.651 1427.3 247.34 1421.65 247.29V247.29Z" fill="#161C46"/>
</g>
<defs>
<clipPath id="clip0_1934_126">
<rect width="1440" height="269.34" fill="white"/>
</clipPath>
</defs>
</svg>
