<svg id="contribute" xmlns="http://www.w3.org/2000/svg" viewBox="0 0 1440 269.34"><defs><style>.cls-1{fill:#232D71;}</style></defs><path class="cls-1" d="M44.64,260.11q19.83,9.22,46,9.23,19.49,0,33.67-3.59,14.19-3.76,23.42-9.4t13.67-12.48q4.6-7,4.61-13.67a17,17,0,0,0-1.88-8.54,14.78,14.78,0,0,0-4.78-5.13,94.48,94.48,0,0,1-10.26,11.28,63.61,63.61,0,0,1-13.16,9.4,76.29,76.29,0,0,1-17.43,6.66,94.82,94.82,0,0,1-22.56,2.4q-19.3,0-33.15-7.7A63.51,63.51,0,0,1,40.2,217q-8.88-14-13-33.49a208.87,208.87,0,0,1-4.1-42.9Q23.11,114.32,27,94,31,73.48,39.69,59.64A57.49,57.49,0,0,1,62.25,38.45Q76.08,31.1,95.91,31.1q11.46,0,19.14,4.11A34.61,34.61,0,0,1,127.7,45.63a38.54,38.54,0,0,1,7,14.35,60.74,60.74,0,0,1,2.22,16.24,39.87,39.87,0,0,0,12-1.71,31.08,31.08,0,0,0,9.74-4.78A22.69,22.69,0,0,0,165,62a22,22,0,0,0,2.39-10.26,29,29,0,0,0-4.44-15.55q-4.28-7.17-13.16-12.47-8.72-5.31-22-8.21-13.15-3.08-31.1-3.07-27.69,0-48.71,9.4a96.61,96.61,0,0,0-35.2,26.31A106.55,106.55,0,0,0,0,67.55V216.07A106.07,106.07,0,0,0,11.32,234,91.38,91.38,0,0,0,44.64,260.11Z"/><path class="cls-1" d="M312.3,98.78a62.91,62.91,0,0,0-25.47-17.94q-15-6-34-6-40.68,0-61.53,23.93-20.67,23.93-20.68,73,0,24.62,5.47,43.07,5.64,18.28,16.07,30.42a65.9,65.9,0,0,0,25.63,18.12q15,6,34,6,40.33,0,61.18-24.1,21-24.09,21-73.49,0-24.6-5.64-42.72Q322.9,110.75,312.3,98.78ZM297.43,206.1q-2.39,14.88-8,25a38.87,38.87,0,0,1-14.7,15q-9.06,5.13-22.22,5.13t-22.38-5.13a40,40,0,0,1-14.87-15q-5.64-10.09-8.21-25a205.05,205.05,0,0,1-2.56-34.35A202.08,202.08,0,0,1,207,137.57q2.56-14.68,8.21-24.43a37.67,37.67,0,0,1,14.69-14.87q9.06-5,22.22-5t22.22,5a37.31,37.31,0,0,1,14.87,14.87q5.64,9.74,8.2,24.43A201,201,0,0,1,300,171.75,204,204,0,0,1,297.43,206.1Z"/><path class="cls-1" d="M529.37,250.37a20.43,20.43,0,0,1-8.55-3.42,18.2,18.2,0,0,1-5.64-7.69q-1.87-5-1.88-13.16V143.38q0-17.94-4.1-30.93-3.93-13-11.62-21.19A44.7,44.7,0,0,0,479.12,79a68.68,68.68,0,0,0-24.61-4.11,91.79,91.79,0,0,0-16.06,1.37A46.23,46.23,0,0,0,424.09,81a49.57,49.57,0,0,0-12.81,9.74,76,76,0,0,0-11.45,15.89h-1.71L393.5,78.27H336.93V93h1a66.61,66.61,0,0,1,10.94.85,23.55,23.55,0,0,1,9.23,3.42,17.11,17.11,0,0,1,6.15,7.35q2.39,4.62,2.39,12.31V226.1q0,8.21-2.39,13.16a18.19,18.19,0,0,1-6.15,7.69,22.14,22.14,0,0,1-9.06,3.42,67.67,67.67,0,0,1-11.11.85h-2.91v14.7h94.17v-14.7h-1a87.77,87.77,0,0,1-11.1-.68,25.12,25.12,0,0,1-9.06-3.25,17.16,17.16,0,0,1-6.32-7q-2.23-4.78-2.23-12.47V154a110.08,110.08,0,0,1,2-21.53,56.1,56.1,0,0,1,7.18-18.12,36.85,36.85,0,0,1,13-12.47q8.21-4.62,20.17-4.62,10.59,0,17.94,3.25a27,27,0,0,1,11.79,9.23,39.5,39.5,0,0,1,6.67,15,90.68,90.68,0,0,1,2.05,20.33V265.92h61v-14.7h-1.2A63.37,63.37,0,0,1,529.37,250.37Z"/><path class="cls-1" d="M797.93,38.45a17,17,0,0,0,6.32,3.76,28.36,28.36,0,0,0,7.86,1,27.59,27.59,0,0,0,7.69-1A15.49,15.49,0,0,0,826,38.45a17.36,17.36,0,0,0,4.27-6.66,26.79,26.79,0,0,0,1.71-10.26,26.73,26.73,0,0,0-1.71-10.25A17.4,17.4,0,0,0,826,4.61,14,14,0,0,0,819.8,1a27.59,27.59,0,0,0-7.69-1,28.36,28.36,0,0,0-7.86,1,15.27,15.27,0,0,0-6.32,3.58,17.29,17.29,0,0,0-4.27,6.67,29.31,29.31,0,0,0-1.54,10.25,29.37,29.37,0,0,0,1.54,10.26A17.25,17.25,0,0,0,797.93,38.45Z"/><path class="cls-1" d="M1017.05,98.27a54.2,54.2,0,0,0-22.39-17.61q-13.33-5.8-30.59-5.81a61.74,61.74,0,0,0-18.46,2.57,48.65,48.65,0,0,0-14.69,7,49.64,49.64,0,0,0-11.45,10.94,86.05,86.05,0,0,0-8.89,14.53h-1.37q.35-8.72.69-16.92.33-7.18.51-14.87.17-7.86.17-13.84V0H846.15V14.7h2.74a66.48,66.48,0,0,1,10.93.85,21.8,21.8,0,0,1,9.23,3.25,17.11,17.11,0,0,1,6.15,7.35c1.6,3.07,2.4,7.18,2.4,12.3V226.1q0,8.21-2.4,13.16a18.19,18.19,0,0,1-6.15,7.69,22.08,22.08,0,0,1-9.06,3.42c-2,.32-4,.55-6.21.69q-3.22-.21-6.29-.69a23.55,23.55,0,0,1-9.23-3.42,20.11,20.11,0,0,1-6.15-7.69q-2.22-5-2.22-13.16V78.27H767.34v2.25q-9.23-5.65-26.86-5.67-11.62,0-19.31,3.08a36.17,36.17,0,0,0-13,8.2,47.81,47.81,0,0,0-8.71,12.14q-3.6,6.83-7,14.69h-1.71l-6.67-34.69h-94.7V35.21H573.31a123,123,0,0,1-6.49,22.55,50.07,50.07,0,0,1-9.57,15.39,33.3,33.3,0,0,1-13.5,8.54,43.13,43.13,0,0,1-13.84,2.56v14h26.66V215.16q0,15,2.9,25.46,3.07,10.44,9.23,16.75a34.67,34.67,0,0,0,15.72,9.06,79.31,79.31,0,0,0,22.9,2.91,77.27,77.27,0,0,0,8.72-.52,66,66,0,0,0,8.72-1.19,69.88,69.88,0,0,0,7.86-1.71h98.63v-14.7h-9.74a87.93,87.93,0,0,1-11.11-.68,25.19,25.19,0,0,1-9.06-3.25,17.23,17.23,0,0,1-6.32-7q-2.22-4.78-2.22-12.47v-55q0-6.66.68-14.87a162,162,0,0,1,2.23-16.41A145.12,145.12,0,0,1,700,125.27a67.79,67.79,0,0,1,6.49-13.84,34,34,0,0,1,9.06-9.75,19.2,19.2,0,0,1,11.62-3.76q10.26,0,14.36,6.5,4.1,6.31,4.1,20.85a57,57,0,0,0,15-1.71,28.77,28.77,0,0,0,10.08-5.13,19.52,19.52,0,0,0,5.64-8,26.56,26.56,0,0,0,1.88-10.08,26.1,26.1,0,0,0-.85-6.77c.64.09,1.28.17,1.9.27a23.55,23.55,0,0,1,9.23,3.42,17.11,17.11,0,0,1,6.15,7.35q2.4,4.62,2.4,12.31V227.81q0,7.69-2.4,12.47a16.09,16.09,0,0,1-6.15,7,25.26,25.26,0,0,1-9.23,3.25,83.86,83.86,0,0,1-10.94.68h-4.61v14.7H902.21l6.15-27.35h2.22a70,70,0,0,0,8.71,12.48,53.26,53.26,0,0,0,26.49,16.06,69.59,69.59,0,0,0,18.29,2.23q17.26,0,30.59-5.64a55.61,55.61,0,0,0,22.39-17.78q9.06-12,13.67-30.42,4.79-18.45,4.79-43.75,0-25.11-4.79-43.4Q1026.1,110.05,1017.05,98.27ZM660,226.1q0,8.21-2.4,13.16a18.19,18.19,0,0,1-6.15,7.69,22,22,0,0,1-9.05,3.42c-1.28.21-2.61.37-4,.5v-2.38q-5.48,1-10.77,1.71a92.18,92.18,0,0,1-11.62.68q-12.13,0-19.48-8.37-7.18-8.38-7.18-26.32V98.27h45.8V93.08a64.18,64.18,0,0,1,7,.74,23.49,23.49,0,0,1,9.23,3.42,17.11,17.11,0,0,1,6.15,7.35q2.4,4.62,2.4,12.31Zm339.11-22q-2.39,14-7.69,23.59a36.61,36.61,0,0,1-13.33,14.52q-8,4.78-19.65,4.79-13.84,0-23.07-4.79a38.21,38.21,0,0,1-14.7-14.52q-5.46-9.57-7.86-23.59a208.46,208.46,0,0,1-2.22-32.3,213.65,213.65,0,0,1,2.22-33q2.4-14,7.86-23.24a34.23,34.23,0,0,1,14.53-13.67q9.22-4.62,22.9-4.62,11.63,0,19.82,4.62a34.25,34.25,0,0,1,13.5,13.84q5.31,9.22,7.69,23.24a192.39,192.39,0,0,1,2.4,32.47A197.33,197.33,0,0,1,999.1,204.05Z"/><path class="cls-1" d="M1228.82,250.54a25.12,25.12,0,0,1-9.06-3.25,17.16,17.16,0,0,1-6.32-7q-2.22-4.78-2.22-12.47V78.27h-62.55V93h1a67.67,67.67,0,0,1,11.11.85,20.85,20.85,0,0,1,9.06,3.59,16.84,16.84,0,0,1,6.15,7.69q2.4,5,2.39,13.16v72.12a96.6,96.6,0,0,1-2.56,23.07,51,51,0,0,1-8,18,36.22,36.22,0,0,1-13.67,11.45q-8.21,4.1-19.83,4.1-10.59,0-17.77-3.08a27.56,27.56,0,0,1-11.28-9.4,42.83,42.83,0,0,1-6-15,108.31,108.31,0,0,1-1.71-20.33V78.27h-62.72V93h1a66.48,66.48,0,0,1,10.93.85,23.55,23.55,0,0,1,9.23,3.42,17.11,17.11,0,0,1,6.15,7.35q2.4,4.62,2.4,12.31v83.91q0,17.94,3.76,30.93,3.93,13,11.27,21.36a43.58,43.58,0,0,0,18.12,12.31,71.51,71.51,0,0,0,24.61,3.93,95.87,95.87,0,0,0,16.41-1.37,49.66,49.66,0,0,0,28.54-14.36,62.3,62.3,0,0,0,11.79-16.06h1.71l4.61,28.37H1241v-14.7h-1A87.81,87.81,0,0,1,1228.82,250.54Z"/><path class="cls-1" d="M1313.78,250.88q-12.13,0-19.48-8.37-7.17-8.38-7.18-26.32V98.27h45.8v-20h-45.8V35.21h-16.06a123,123,0,0,1-6.5,22.55A50.07,50.07,0,0,1,1255,73.15a33.3,33.3,0,0,1-13.5,8.54,43.09,43.09,0,0,1-13.84,2.56v14h26.66V215.16q0,15,2.91,25.46,3.08,10.44,9.22,16.75a34.76,34.76,0,0,0,15.73,9.06,79.27,79.27,0,0,0,22.9,2.91,77.1,77.1,0,0,0,8.71-.52,65.77,65.77,0,0,0,8.72-1.19,68.92,68.92,0,0,0,7.86-1.71,42.71,42.71,0,0,0,5.81-2.05V248.49q-5.46,1-10.77,1.71A92.18,92.18,0,0,1,1313.78,250.88Z"/><path class="cls-1" d="M1421.65,247.29a55.63,55.63,0,0,1-22.05-4.1A41,41,0,0,1,1383.37,230q-6.49-8.88-10.09-22.56-3.42-13.84-3.76-33H1440v-18.8h-69.79q1.88-30.42,12.3-46.14,10.6-15.9,30.08-15.9,10.59,0,17.77,4.45a31.44,31.44,0,0,1,9.64,9.15V78.83a85.17,85.17,0,0,0-26.73-4q-37.24,0-57.42,24.78t-20.16,73.83q0,22.72,5.46,40.68,5.64,17.78,16.07,30.07a68.45,68.45,0,0,0,25.46,18.8q15.21,6.33,34.18,6.33a100.8,100.8,0,0,0,23.14-2.41V244.78c-.54.15-1,.32-1.6.46A64.76,64.76,0,0,1,1421.65,247.29Z"/></svg>
