<svg width="1441" height="550" viewBox="0 0 1441 550" fill="none" xmlns="http://www.w3.org/2000/svg">
<g clip-path="url(#clip0_1934_155)">
<path d="M955.6 356.25C946.447 346.603 934.697 337.697 920.35 329.53C903.658 320.235 886.431 311.934 868.76 304.67C851.94 297.737 837.467 291.55 825.34 286.11C813.473 280.423 803.703 274.61 796.03 268.67C788.61 262.73 783.167 256.3 779.7 249.38C776.24 242.2 774.51 233.787 774.51 224.14C774.414 215.8 775.795 207.509 778.59 199.65C781.246 192.327 785.566 185.72 791.21 180.35C797.137 174.91 804.68 170.703 813.84 167.73C823 164.757 834 163.273 846.84 163.28C869.347 163.28 885.797 170.33 896.19 184.43C906.857 198.53 912.19 218.323 912.19 243.81C929.763 243.81 943.247 239.727 952.64 231.56C962.293 223.147 967.117 212.013 967.11 198.16C967.119 188.796 964.689 179.59 960.06 171.45C955.393 162.783 948.343 155.36 938.91 149.18C929.503 142.753 917.867 137.693 904 134C890.133 130.307 874.177 128.453 856.13 128.44C834.603 128.44 815.057 130.773 797.49 135.44C779.923 140.107 764.833 147.033 752.22 156.22C739.881 164.809 729.818 176.273 722.9 189.62C716.233 202.953 712.9 218.287 712.9 235.62C712.9 252.2 715.253 266.55 719.96 278.67C724.73 290.653 731.932 301.518 741.11 310.58C750.51 319.987 762.383 328.77 776.73 336.93C791.33 344.85 808.4 353.14 827.94 361.8C846.247 369.713 861.463 376.763 873.59 382.95C885.717 389.137 895.24 395.197 902.16 401.13C909.34 407.07 914.29 413.503 917.01 420.43C919.97 427.097 921.453 435.137 921.46 444.55C921.549 454.232 919.654 463.829 915.89 472.75C912.163 481.185 906.581 488.671 899.56 494.65C892.64 500.583 883.973 505.283 873.56 508.75C863.173 511.97 851.173 513.577 837.56 513.57C822.227 513.57 809.227 511.097 798.56 506.15C788.614 501.328 779.962 494.205 773.32 485.37C766.735 476.122 762.067 465.65 759.59 454.57C756.796 442.275 755.427 429.699 755.51 417.09C750.337 417.206 745.208 418.082 740.29 419.69C734.59 421.308 729.286 424.086 724.71 427.85C720.043 431.81 715.96 437.253 712.46 444.18C709.253 450.847 707.647 459.257 707.64 469.41C707.64 482.743 710.607 494.497 716.54 504.67C722.48 514.563 730.893 522.973 741.78 529.9C752.66 536.567 765.77 541.517 781.11 544.75C796.703 548.21 814.037 549.94 833.11 549.94C855.617 549.94 876.027 547.467 894.34 542.52C912.887 537.573 928.72 530.15 941.84 520.25C954.783 510.317 965.207 497.477 972.27 482.77C979.443 467.93 983.03 450.597 983.03 430.77C983.03 414.943 980.803 400.967 976.35 388.84C971.826 376.626 964.752 365.517 955.6 356.25V356.25ZM1272.82 180.35C1278.76 174.91 1286.31 170.703 1295.46 167.73C1304.61 164.757 1315.61 163.273 1328.46 163.28C1350.97 163.28 1367.42 170.33 1377.81 184.43C1388.48 198.53 1393.81 218.323 1393.81 243.81C1411.38 243.81 1424.86 239.727 1434.26 231.56C1436.8 229.363 1439.06 226.872 1441.01 224.14V170.3C1435.95 161.74 1428.93 154.502 1420.53 149.18C1411.13 142.747 1399.5 137.673 1385.65 133.96C1371.8 130.247 1355.84 128.393 1337.78 128.4C1316.25 128.4 1296.7 130.733 1279.14 135.4C1261.58 140.067 1246.49 146.993 1233.87 156.18C1221.53 164.769 1211.47 176.233 1204.55 189.58C1197.88 202.913 1194.55 218.247 1194.55 235.58C1194.55 252.16 1196.88 266.51 1201.55 278.63C1206.33 290.612 1213.53 301.476 1222.71 310.54C1232.11 319.947 1243.98 328.73 1258.33 336.89C1272.93 344.81 1290 353.1 1309.54 361.76C1327.85 369.713 1343.07 376.793 1355.21 383C1367.35 389.207 1376.87 395.267 1383.78 401.18C1390.96 407.12 1395.91 413.553 1398.63 420.48C1401.59 427.147 1403.07 435.187 1403.08 444.6C1403.17 454.282 1401.27 463.879 1397.51 472.8C1393.78 481.235 1388.2 488.721 1381.18 494.7C1374.26 500.633 1365.59 505.333 1355.18 508.8C1344.79 512.02 1332.79 513.627 1319.18 513.62C1303.85 513.62 1290.85 511.147 1280.18 506.2C1270.25 501.362 1261.62 494.228 1255 485.39C1248.41 476.142 1243.75 465.67 1241.27 454.59C1238.48 442.295 1237.11 429.718 1237.19 417.11C1232.02 417.226 1226.89 418.102 1221.98 419.71C1216.28 421.324 1210.97 424.102 1206.39 427.87C1201.69 431.83 1197.61 437.273 1194.14 444.2C1190.93 450.867 1189.32 459.277 1189.32 469.43C1189.32 482.763 1192.29 494.517 1198.23 504.69C1198.47 505.09 1198.73 505.5 1198.98 505.9C1193.39 506.86 1187.86 507.693 1182.39 508.4C1174.02 509.431 1165.59 509.925 1157.15 509.88C1139.59 509.88 1125.49 503.82 1114.85 491.7C1104.46 479.58 1099.27 460.53 1099.26 434.55V178.55H1198.71V135.08H1099.26V41.56H1064.38C1060.42 61.1067 1055.72 77.44 1050.28 90.56C1045.43 102.859 1038.39 114.176 1029.5 123.96C1021.37 132.428 1011.31 138.794 1000.18 142.51C989.287 146.217 979.267 148.073 970.12 148.08V178.5H1028V432.32C1028 454.1 1030.1 472.533 1034.31 487.62C1038.76 502.707 1045.43 514.827 1054.31 523.98C1063.19 533.133 1074.57 539.69 1088.45 543.65C1102.3 547.863 1118.87 549.967 1138.18 549.96C1144.5 549.937 1150.82 549.567 1157.1 548.85C1163.46 548.398 1169.78 547.529 1176.03 546.25C1181.79 545.351 1187.49 544.112 1193.1 542.54C1197.41 541.366 1201.63 539.879 1205.72 538.09V515C1210.88 520.79 1216.84 525.817 1223.41 529.93C1234.29 536.597 1247.4 541.547 1262.75 544.78C1278.33 548.24 1295.66 549.97 1314.75 549.97C1337.26 549.97 1357.67 547.497 1375.98 542.55C1394.53 537.603 1410.37 530.18 1423.48 520.28C1429.96 515.29 1435.84 509.562 1441 503.21V360.36C1439.78 358.954 1438.52 357.583 1437.22 356.25C1428.07 346.603 1416.32 337.697 1401.97 329.53C1385.28 320.235 1368.05 311.934 1350.38 304.67C1333.56 297.737 1319.09 291.55 1306.97 286.11C1295.09 280.423 1285.32 274.61 1277.65 268.67C1270.23 262.73 1264.79 256.3 1261.32 249.38C1257.86 242.2 1256.13 233.787 1256.13 224.14C1256.03 215.8 1257.42 207.509 1260.21 199.65C1262.86 192.327 1267.18 185.721 1272.82 180.35V180.35ZM645.3 179.61C630.427 162.185 611.415 148.774 590.01 140.61C568.243 131.943 543.627 127.61 516.16 127.61C457.28 127.61 412.75 144.943 382.57 179.61C377.074 186.004 372.149 192.867 367.85 200.12C370.686 186.54 372.103 172.703 372.08 158.83C372.08 134.09 368.243 111.947 360.57 92.4C353.439 73.2779 341.715 56.2031 326.43 42.68C311.097 28.82 291.677 18.3033 268.17 11.13C244.67 3.71 216.963 0 185.05 0H0V33C1.71 33.21 3.4 33.45 5.07 33.73C12.1808 34.5184 19.0196 36.912 25.07 40.73C30.9609 44.677 35.5972 50.2295 38.43 56.73C41.8967 63.3967 43.63 72.3033 43.63 83.45V456.07C43.63 467.95 42.02 477.477 38.8 484.65C35.9729 491.34 31.3531 497.119 25.45 501.35C19.3777 505.199 12.5634 507.727 5.45 508.77C3.67 509.063 1.85667 509.323 0.01 509.55V542.55H208.05V510.62H182.82C174.757 510.643 166.7 510.149 158.7 509.14C151.742 508.075 145.054 505.682 139 502.09C133.098 498.395 128.344 493.128 125.27 486.88C122.05 479.953 120.443 470.92 120.45 459.78V331.39H168.32C205.92 331.39 237.71 326.687 263.69 317.28C289.69 307.64 310.717 294.9 326.77 279.06C334.13 271.739 340.687 263.653 346.33 254.94C340.537 279.133 337.64 306.843 337.64 338.07C337.64 373.69 341.597 404.86 349.51 431.58C357.677 458.053 369.307 480.073 384.4 497.64C399.52 515.057 418.626 528.56 440.09 537C461.863 545.667 486.48 550 513.94 550C572.32 550 616.603 532.56 646.79 497.68C677.223 462.793 692.437 409.603 692.43 338.11C692.43 302.483 688.35 271.557 680.19 245.33C672.27 218.83 660.64 196.923 645.3 179.61ZM282.64 223.4C277.973 240.22 270.43 254.073 260.01 264.96C249.623 275.627 236.263 283.42 219.93 288.34C203.597 293.04 183.93 295.39 160.93 295.39H120.48V36.39H172.06C193.58 36.39 211.763 38.9867 226.61 44.18C241.697 49.1333 253.943 56.8 263.35 67.18C272.757 77.56 279.56 90.67 283.76 106.51C287.96 122.097 290.063 140.53 290.07 161.81C290.07 185.79 287.593 206.32 282.64 223.4V223.4ZM613 412.66C609.54 434.18 603.727 452.24 595.56 466.84C587.387 481.18 576.747 492.063 563.64 499.49C550.533 506.917 534.453 510.627 515.4 510.62C496.353 510.62 480.15 506.91 466.79 499.49C453.677 492.07 442.913 481.187 434.5 466.84C426.34 452.24 420.403 434.18 416.69 412.66C412.977 391.14 411.123 366.277 411.13 338.07C411.13 309.863 412.983 285.123 416.69 263.85C420.397 242.577 426.333 224.887 434.5 210.78C442.667 196.427 453.307 185.667 466.42 178.5C479.533 171.333 495.613 167.743 514.66 167.73C533.713 167.73 549.793 171.32 562.9 178.5C576.233 185.667 586.997 196.427 595.19 210.78C603.35 224.88 609.287 242.57 613 263.85C616.713 285.13 618.57 309.87 618.57 338.07C618.583 366.27 616.727 391.133 613 412.66V412.66Z" fill="#161C46"/>
</g>
<defs>
<clipPath id="clip0_1934_155">
<rect width="1441" height="549.96" fill="white"/>
</clipPath>
</defs>
</svg>
