<svg width="1441" height="268" viewBox="0 0 1441 268" fill="none" xmlns="http://www.w3.org/2000/svg">
<g clip-path="url(#clip0_1934_137)">
<path d="M452.26 173.44C447.206 168.287 441.421 163.907 435.09 160.44C426.974 155.91 418.596 151.867 410 148.33C401.813 144.95 394.767 141.95 388.86 139.33C383.821 137.003 379.039 134.158 374.59 130.84C371.292 128.322 368.579 125.118 366.64 121.45C364.881 117.597 364.016 113.395 364.11 109.16C364.07 105.1 364.747 101.065 366.11 97.24C367.402 93.6741 369.504 90.4565 372.25 87.84C375.434 85.0283 379.185 82.9342 383.25 81.7C388.466 80.1501 393.89 79.4181 399.33 79.53C410.29 79.53 418.29 82.9633 423.33 89.83C428.51 96.6967 431.1 106.333 431.1 118.74C439.653 118.74 446.217 116.74 450.79 112.74C455.49 108.64 457.84 103.22 457.84 96.48C457.84 91.9229 456.659 87.4437 454.41 83.48C451.935 79.0634 448.394 75.3368 444.11 72.64C438.9 69.2319 433.153 66.7267 427.11 65.23C419.491 63.3172 411.655 62.4061 403.8 62.52C394.174 62.4138 384.576 63.5669 375.25 65.95C367.358 67.9461 359.901 71.3765 353.25 76.07C347.254 80.2528 342.364 85.8293 339 92.32C335.641 99.3013 333.97 106.974 334.12 114.72C333.958 121.872 335.125 128.993 337.56 135.72C339.885 141.553 343.388 146.843 347.85 151.26C353.036 156.257 358.864 160.541 365.18 164C372.28 167.86 380.59 171.897 390.11 176.11C399.017 179.963 406.423 183.397 412.33 186.41C417.292 188.815 421.96 191.784 426.24 195.26C429.408 197.726 431.896 200.957 433.47 204.65C435.004 208.373 435.743 212.375 435.64 216.4C435.68 221.113 434.758 225.785 432.93 230.13C431.122 234.246 428.412 237.903 425 240.83C421.266 243.913 416.97 246.242 412.35 247.69C406.652 249.334 400.739 250.113 394.81 250C387.337 250 381.003 248.797 375.81 246.39C370.969 244.039 366.756 240.57 363.52 236.27C360.315 231.766 358.043 226.666 356.84 221.27C355.473 215.287 354.801 209.167 354.84 203.03C352.322 203.087 349.826 203.512 347.43 204.29C344.653 205.082 342.071 206.444 339.85 208.29C337.326 210.5 335.284 213.207 333.85 216.24C332.162 220.107 331.359 224.303 331.5 228.52C331.374 234.527 332.873 240.456 335.84 245.68C338.93 250.705 343.165 254.926 348.2 258C354.121 261.491 360.599 263.936 367.35 265.23C375.664 266.985 384.144 267.83 392.64 267.75C402.692 267.864 412.715 266.65 422.45 264.14C430.787 262.06 438.639 258.379 445.57 253.3C451.881 248.451 456.959 242.181 460.39 235C463.883 227.78 465.63 219.35 465.63 209.71C465.752 202.769 464.652 195.86 462.38 189.3C460.172 183.354 456.722 177.948 452.26 173.44V173.44ZM55.1 248.59H50.22C46.2953 248.6 42.374 248.36 38.48 247.87C35.0956 247.354 31.8426 246.19 28.9 244.44C26.0255 242.629 23.7124 240.052 22.22 237C20.6467 233.627 19.8633 229.23 19.87 223.81V147.6H50.58L100.63 230.89C104.117 236.84 108.041 242.522 112.37 247.89C116.049 252.181 120.609 255.629 125.74 258C131.704 260.615 138.047 262.263 144.53 262.88C154.014 263.815 163.541 264.235 173.07 264.14H178.31V248.59H177.23C169.694 248.697 162.375 246.068 156.63 241.19C150.73 236.25 144.65 228.843 138.39 218.97L87.62 138.75C94.3767 136.468 100.908 133.565 107.13 130.08C113.626 126.478 119.537 121.909 124.66 116.53C129.94 110.955 134.163 104.466 137.12 97.38C140.373 89.9133 142 81.2467 142 71.38C142 47.54 134.17 29.7167 118.51 17.91C102.837 5.97 79 0 47 0H0V264.13H55.1V248.59ZM19.87 17.71H45C55.48 17.71 64.3333 18.7333 71.56 20.78C78.8933 22.7 84.8567 25.89 89.45 30.35C94.2235 35.0245 97.6531 40.8959 99.38 47.35C101.433 54.2233 102.457 62.5967 102.45 72.47C102.583 80.9894 101.612 89.4902 99.56 97.76C98.0349 104.454 94.87 110.663 90.35 115.83C85.6097 120.889 79.6283 124.619 73 126.65C65.7733 129.057 56.74 130.26 45.9 130.26H19.9L19.87 17.71Z" fill="#1E4D34"/>
<path d="M305.35 84.55C298.744 77.0895 290.441 71.3275 281.14 67.75C270.873 63.8854 259.97 61.9857 249 62.15C222.754 62.15 202.52 70.8833 188.3 88.35C174.08 105.817 166.974 131.817 166.98 166.35C166.98 182.35 168.907 196.683 172.76 209.35C176.76 221.883 182.427 232.483 189.76 241.15C197.061 249.783 206.28 256.587 216.68 261.02C227.4 265.48 239.447 267.707 252.82 267.7C263.78 267.7 273.294 266.497 281.36 264.09C288.578 262.125 295.461 259.091 301.78 255.09C306.594 252.071 310.717 248.071 313.88 243.35C316.547 239.01 317.88 234.973 317.88 231.24C317.949 228.353 317.128 225.515 315.53 223.11C314.451 221.167 312.814 219.593 310.83 218.59C308.452 222.21 305.596 225.493 302.34 228.35C298.756 231.507 294.816 234.235 290.6 236.48C285.852 239.004 280.815 240.944 275.6 242.26C269.817 243.754 263.863 244.483 257.89 244.43C249.91 244.583 241.981 243.106 234.59 240.09C227.761 237.02 221.848 232.226 217.43 226.18C212.85 219.92 209.297 211.97 206.77 202.33C204.364 192.583 203.03 180.963 202.77 167.47H326V150.47C326 135.897 324.194 123.13 320.58 112.17C317.047 101.103 311.97 91.8967 305.35 84.55V84.55ZM203.45 147.6C204.784 126.16 209.117 109.9 216.45 98.82C223.93 87.6067 234.534 82 248.26 82C255.727 82 261.99 83.5667 267.05 86.7C272.337 89.947 276.644 94.5679 279.51 100.07C282.89 106.584 285.21 113.595 286.38 120.84C287.892 129.672 288.618 138.62 288.55 147.58L203.45 147.6ZM1147.75 217.88C1143.53 225.467 1137.15 231.67 1128.6 236.49C1120.05 241.31 1110.05 243.72 1098.6 243.72C1078.73 243.72 1064.4 237.277 1055.6 224.39C1046.93 211.503 1042.6 191.93 1042.6 165.67C1042.6 149.17 1043.68 135.44 1045.85 124.48C1048.02 113.52 1051.15 104.787 1055.25 98.28C1059.34 91.78 1064.21 87.2033 1069.88 84.55C1075.96 81.8293 1082.55 80.4644 1089.21 80.55C1095.48 80.55 1100.6 81.6933 1104.57 83.98C1108.58 86.0667 1111.91 89.264 1114.15 93.19C1116.65 97.3538 1118.35 101.95 1119.15 106.74C1120.14 112.163 1120.63 117.667 1120.6 123.18C1131.56 123.18 1139.81 121.433 1145.35 117.94C1150.89 114.447 1153.66 108.427 1153.66 99.88C1153.78 93.8281 1151.73 87.9339 1147.88 83.26C1143.8 78.2523 1138.68 74.1834 1132.88 71.33C1126.32 68.06 1119.32 65.7497 1112.1 64.47C1104.53 62.9024 1096.83 62.1149 1089.1 62.12C1078 62.0312 1066.96 63.74 1056.4 67.18C1046.36 70.5851 1037.34 76.4905 1030.21 84.34C1022.88 92.4066 1017.09 103.127 1012.86 116.5C1008.77 129.753 1006.73 146.253 1006.72 166C1006.72 184.187 1008.77 199.723 1012.86 212.61C1017.08 225.383 1022.92 235.863 1030.39 244.05C1037.71 252.142 1046.89 258.339 1057.13 262.11C1068.05 265.944 1079.56 267.839 1091.13 267.71C1100.39 267.861 1109.62 266.768 1118.59 264.46C1125.49 262.816 1132.08 260.07 1138.1 256.33C1142.89 253.494 1146.99 249.623 1150.1 245C1152.62 241.253 1154.01 236.863 1154.1 232.35C1154.18 229.359 1153.57 226.391 1152.3 223.68C1151.23 221.437 1149.67 219.457 1147.75 217.88V217.88ZM622.47 87.44C615.229 78.9534 605.973 72.4205 595.55 68.44C584.95 64.2333 572.967 62.1267 559.6 62.12C530.934 62.12 509.267 70.55 494.6 87.41C480.034 104.27 472.747 129.987 472.74 164.56C472.74 181.893 474.667 197.067 478.52 210.08C482.52 222.967 488.187 233.687 495.52 242.24C502.876 250.717 512.174 257.287 522.62 261.39C533.207 265.61 545.19 267.717 558.57 267.71C586.99 267.71 608.55 259.22 623.25 242.24C638.057 225.26 645.464 199.367 645.47 164.56C645.47 147.227 643.47 132.17 639.47 119.39C635.604 106.523 629.937 95.8733 622.47 87.44V87.44ZM606.76 200.9C605.074 211.38 602.24 220.173 598.26 227.28C594.642 233.903 589.268 239.4 582.73 243.17C576.337 246.79 568.507 248.597 559.24 248.59C549.974 248.583 542.084 246.777 535.57 243.17C529.005 239.373 523.577 233.886 519.85 227.28C515.85 220.167 512.96 211.373 511.18 200.9C509.259 188.894 508.352 176.748 508.47 164.59C508.347 152.488 509.254 140.398 511.18 128.45C512.987 118.09 515.877 109.48 519.85 102.62C523.444 96.0191 528.831 90.5693 535.391 86.9C541.777 83.4067 549.607 81.66 558.88 81.66C568.154 81.66 575.98 83.4067 582.36 86.9C589.002 90.5205 594.46 95.9783 598.081 102.62C602.081 109.48 604.974 118.09 606.76 128.45C608.684 140.398 609.587 152.489 609.461 164.59C609.582 176.748 608.678 188.894 606.76 200.9V200.9ZM1427.48 160.43C1419.35 155.905 1410.96 151.865 1402.36 148.33C1394.17 144.95 1387.13 141.95 1381.23 139.33C1376.2 136.99 1371.43 134.131 1367 130.8C1363.68 128.288 1360.95 125.083 1359 121.41C1357.24 117.556 1356.38 113.355 1356.47 109.12C1356.43 105.06 1357.11 101.025 1358.47 97.2C1359.76 93.6341 1361.86 90.4165 1364.61 87.8C1367.79 84.9882 1371.55 82.8942 1375.61 81.66C1380.83 80.1101 1386.25 79.3781 1391.69 79.49C1402.65 79.49 1410.65 82.9233 1415.69 89.79C1420.87 96.6567 1423.46 106.293 1423.46 118.7C1430.74 118.7 1436.56 117.24 1440.96 114.36V76.11C1439.56 74.8293 1438.06 73.6654 1436.47 72.63C1431.26 69.2218 1425.51 66.7167 1419.47 65.22C1411.85 63.3071 1404.02 62.3961 1396.16 62.51C1386.54 62.4031 1376.94 63.5563 1367.62 65.94C1359.73 67.9352 1352.27 71.3656 1345.62 76.06C1339.62 80.2432 1334.72 85.8234 1331.35 92.32C1327.99 99.3013 1326.32 106.974 1326.47 114.72C1326.31 121.872 1327.48 128.993 1329.91 135.72C1332.23 141.555 1335.73 146.846 1340.2 151.26C1345.4 156.259 1351.23 160.544 1357.56 164C1364.66 167.86 1372.97 171.897 1382.49 176.11C1391.4 179.963 1398.81 183.397 1404.71 186.41C1409.67 188.815 1414.34 191.784 1418.62 195.26C1421.79 197.723 1424.28 200.955 1425.85 204.65C1427.38 208.373 1428.12 212.375 1428.02 216.4C1428.06 221.113 1427.14 225.785 1425.31 230.13C1423.48 234.238 1420.74 237.881 1417.31 240.79C1413.58 243.875 1409.28 246.204 1404.66 247.65C1398.97 249.306 1393.07 250.098 1387.14 250C1379.67 250 1373.34 248.797 1368.14 246.39C1363.3 244.039 1359.09 240.57 1355.85 236.27C1352.65 231.766 1350.37 226.666 1349.17 221.27C1347.8 215.287 1347.13 209.167 1347.17 203.03C1344.65 203.087 1342.16 203.512 1339.76 204.29C1336.98 205.082 1334.4 206.444 1332.18 208.29C1329.66 210.5 1327.61 213.207 1326.18 216.24C1324.49 220.107 1323.69 224.303 1323.83 228.52C1323.7 234.527 1325.2 240.456 1328.17 245.68C1331.27 250.71 1335.53 254.933 1340.58 258C1346.5 261.489 1352.98 263.935 1359.73 265.23C1368.04 266.985 1376.52 267.83 1385.02 267.75C1395.07 267.864 1405.1 266.651 1414.83 264.14C1423.19 262.063 1431.06 258.378 1438 253.29C1439.06 252.47 1440.07 251.61 1441 250.72V169.93C1436.83 166.308 1432.3 163.124 1427.48 160.43V160.43ZM1297.73 84.55C1291.12 77.0895 1282.82 71.3275 1273.52 67.75C1264.01 64.0167 1253.29 62.15 1241.36 62.15C1215.11 62.15 1194.88 70.8833 1180.66 88.35C1166.44 105.817 1159.33 131.817 1159.34 166.35C1159.34 182.35 1161.27 196.683 1165.12 209.35C1169.12 221.883 1174.79 232.483 1182.12 241.15C1189.41 249.792 1198.61 256.611 1209 261.06C1219.72 265.52 1231.77 267.747 1245.14 267.74C1256.1 267.74 1265.61 266.537 1273.68 264.13C1280.9 262.165 1287.78 259.131 1294.1 255.13C1298.91 252.111 1303.04 248.111 1306.2 243.39C1308.87 239.05 1310.2 235.013 1310.2 231.28C1310.27 228.393 1309.45 225.555 1307.85 223.15C1306.77 221.207 1305.13 219.633 1303.15 218.63C1300.77 222.25 1297.92 225.533 1294.66 228.39C1291.08 231.547 1287.14 234.275 1282.92 236.52C1278.17 239.044 1273.14 240.984 1267.92 242.3C1262.14 243.794 1256.18 244.523 1250.21 244.47C1242.23 244.623 1234.3 243.146 1226.91 240.13C1220.08 237.06 1214.17 232.266 1209.75 226.22C1205.17 219.96 1201.62 212.01 1199.09 202.37C1196.68 192.623 1195.35 181.003 1195.09 167.51H1318.31V150.51C1318.31 135.937 1316.5 123.17 1312.89 112.21C1309.4 101.117 1304.35 91.8967 1297.73 84.55V84.55ZM1195.83 147.6C1197.16 126.16 1201.5 109.9 1208.83 98.82C1216.28 87.6067 1226.88 82 1240.64 82C1248.11 82 1254.37 83.5667 1259.43 86.7C1264.72 89.947 1269.02 94.5679 1271.89 100.07C1275.27 106.584 1277.59 113.595 1278.76 120.84C1280.27 129.672 1281 138.62 1280.93 147.58L1195.83 147.6ZM1010.24 89.07C1010.24 80.5233 1006.93 73.8967 1000.3 69.19C993.794 64.5233 983.794 62.19 970.3 62.19C962.114 62.19 955.307 63.2733 949.88 65.44C944.737 67.3165 940.056 70.2728 936.151 74.11C932.455 77.8722 929.368 82.1873 927 86.9C924.467 91.72 921.997 96.9 919.591 102.44H917.79L910.79 65.76H853.781V81.3H854.86C858.735 81.2825 862.605 81.5835 866.43 82.2C869.898 82.7098 873.22 83.9432 876.18 85.82C879.046 87.7335 881.304 90.4259 882.69 93.58C884.37 96.84 885.214 101.173 885.22 106.58V222C885.22 227.78 884.377 232.417 882.69 235.91C881.309 239.167 879.056 241.98 876.18 244.04C873.295 245.933 870.027 247.166 866.61 247.65C863.792 248.114 860.946 248.394 858.091 248.49C859.221 248.49 860.361 248.55 861.521 248.55H862.6V264.09H960.55V248.59H950.25C946.326 248.6 942.405 248.36 938.51 247.87C935.129 247.354 931.88 246.19 928.94 244.44C926.067 242.637 923.751 240.072 922.25 237.03C920.69 233.657 919.907 229.26 919.901 223.84V165.67C919.901 161.003 920.144 155.763 920.63 149.95C921.125 144.133 921.916 138.346 923 132.61C924.182 126.806 925.691 121.074 927.521 115.44C929.253 110.321 931.558 105.413 934.391 100.81C936.874 96.7825 940.126 93.2827 943.961 90.51C947.51 87.87 951.827 86.4651 956.25 86.51C963.47 86.51 968.527 88.7967 971.42 93.37C974.307 97.83 975.754 105.163 975.76 115.37C981.117 115.477 986.464 114.872 991.66 113.57C995.535 112.48 999.157 110.638 1002.32 108.15C1005.01 105.876 1007.07 102.954 1008.32 99.66C1009.64 96.2867 1010.29 92.6907 1010.24 89.07V89.07ZM854.86 248.59C855.96 248.59 857.031 248.59 858.091 248.53C855.221 248.43 852.451 248.22 849.781 247.87C846.396 247.356 843.142 246.191 840.201 244.44C837.328 242.64 835.014 240.073 833.521 237.03C831.954 233.657 831.17 229.26 831.17 223.84V65.76H765V81.3H766.091C770.022 81.278 773.948 81.579 777.831 82.2C781.28 82.6903 784.563 83.9927 787.41 86C790.343 87.9972 792.608 90.8298 793.91 94.13C795.597 97.6233 796.44 102.26 796.44 108.04V184.28C796.522 192.489 795.612 200.679 793.73 208.67C792.163 215.495 789.279 221.949 785.24 227.67C781.51 232.847 776.542 237.007 770.79 239.77C764.997 242.657 757.997 244.103 749.79 244.11C742.317 244.11 736.054 243.027 731 240.86C726.201 238.687 722.081 235.251 719.081 230.92C715.984 226.068 713.836 220.673 712.75 215.02C711.478 207.926 710.876 200.727 710.951 193.52V65.76H644.72V81.3H645.81C649.682 81.2825 653.548 81.5835 657.37 82.2C660.838 82.7098 664.16 83.9432 667.12 85.82C669.989 87.7302 672.248 90.4235 673.63 93.58C675.324 96.84 676.167 101.173 676.16 106.58V195.3C676.16 207.967 677.494 218.867 680.16 228C682.927 237.153 686.904 244.68 692.091 250.58C697.261 256.475 703.853 260.95 711.24 263.58C719.597 266.474 728.398 267.879 737.24 267.73C743.054 267.748 748.859 267.266 754.591 266.29C760.102 265.457 765.46 263.813 770.49 261.41C775.75 258.733 780.563 255.258 784.76 251.11C789.799 246.149 794.006 240.409 797.22 234.11H799L803.88 264.11H853.771V248.59H854.86Z" fill="#1E4D34"/>
<path d="M861.52 248.59C860.36 248.59 859.22 248.59 858.09 248.53C856.96 248.47 855.96 248.59 854.86 248.59H853.78V264.13H862.6V248.59H861.52Z" fill="#1E4D34"/>
</g>
<defs>
<clipPath id="clip0_1934_137">
<rect width="1441" height="267.74" fill="white"/>
</clipPath>
</defs>
</svg>
