<svg width="1441" height="423" viewBox="0 0 1441 423" fill="none" xmlns="http://www.w3.org/2000/svg">
<g clip-path="url(#clip0_1934_141)">
<path d="M146.88 211.5C143.278 202.79 138.017 194.862 131.39 188.16C124.067 180.691 115.724 174.294 106.61 169.16C95.998 163.029 84.9712 157.646 73.61 153.05C63.0261 148.865 52.6774 144.108 42.61 138.8C35.1837 134.821 28.3089 129.89 22.16 124.13C17.2737 119.226 13.5342 113.301 11.21 106.78C8.89779 99.5772 7.78299 92.0438 7.91 84.48C7.81491 77.7075 9.00598 70.9785 11.42 64.65C13.6149 58.9329 17.0627 53.7801 21.51 49.57C26.1036 45.192 31.6034 41.8771 37.62 39.86C44.6605 37.4262 52.0715 36.2384 59.52 36.35C68.4667 36.35 75.97 37.9334 82.03 41.1C87.8134 44.0342 92.833 48.2765 96.69 53.49C100.478 58.5946 103.152 64.4372 104.54 70.64C106.186 76.9784 107.013 83.5015 107 90.05C117.187 90.05 125.243 87.78 131.17 83.24C137.223 78.5734 140.25 71.6867 140.25 62.58C140.215 56.2654 138.349 50.0964 134.88 44.82C131.03 38.6193 125.801 33.3904 119.6 29.54C111.951 24.7428 103.591 21.1855 94.83 19C83.8273 16.24 72.5125 14.9223 61.17 15.08C48.6491 14.9569 36.1795 16.6959 24.17 20.24C15.5931 22.794 7.44632 26.6163 0 31.58L0 159.76C3.89463 162.928 7.97525 165.86 12.22 168.54C23.157 175.184 34.6224 180.917 46.5 185.68C57.1257 189.927 67.4788 194.826 77.5 200.35C85.9 204.89 92.65 209.707 97.75 214.8C102.571 219.354 106.309 224.931 108.69 231.12C111.006 237.684 112.127 244.61 112 251.57C112 268.783 106.63 282.003 95.89 291.23C85.2967 300.31 70.4867 304.853 51.46 304.86C41.5467 304.86 33.08 303 26.06 299.28C19.2131 295.719 13.2768 290.631 8.71 284.41C5.03178 279.344 2.09862 273.778 0 267.88L0 317.23C3.78283 318.778 7.65672 320.094 11.6 321.17C22.2 324.07 34.3867 325.517 48.16 325.51C63.9933 325.51 78.3267 323.65 91.16 319.93C103.96 316.077 114.907 310.5 124 303.2C132.949 296.082 140.095 286.955 144.86 276.56C149.813 265.96 152.29 253.98 152.29 240.62C152.263 229.74 150.46 220.033 146.88 211.5V211.5Z" fill="#6F5912"/>
<path d="M354.08 118.76C347.111 109.382 337.762 102.038 327 97.4901C316.26 92.8234 303.926 90.4901 290 90.4901C282.45 90.3892 274.928 91.431 267.69 93.5801C261.364 95.3777 255.384 98.2239 250 102C244.71 105.64 240.038 110.103 236.16 115.22C232.014 120.708 228.416 126.589 225.42 132.78H223.77L219.41 94.6001H145.47V112.36H150.84C155.266 112.328 159.688 112.663 164.06 113.36C168.025 113.939 171.824 115.346 175.21 117.49C178.484 119.682 181.064 122.763 182.65 126.37C184.583 130.09 185.546 135.05 185.54 141.25V374.67C185.54 381.277 184.576 386.577 182.65 390.57C181.15 394.341 178.56 397.579 175.21 399.87C171.959 402.163 168.209 403.648 164.27 404.2C159.828 404.903 155.336 405.237 150.84 405.2H147.54V423H261.34V405.24H260.1C255.607 405.266 251.119 404.932 246.68 404.24C242.763 403.784 239.002 402.444 235.68 400.32C232.359 398.217 229.708 395.209 228.04 391.65C226.253 387.93 225.356 382.97 225.35 376.77V336.25C225.35 335.15 225.28 333.57 225.15 331.5C225.02 329.43 225.08 327.37 224.94 324.89C224.8 322.41 224.87 319.8 224.73 317.04C224.59 314.28 224.66 311.4 224.53 308.78C224.25 302.447 223.973 295.63 223.7 288.33H225.35C228.299 293.728 231.833 298.786 235.89 303.41C244.396 312.911 255.534 319.671 267.89 322.83C275.106 324.694 282.537 325.595 289.99 325.51C303.896 325.51 316.23 323.24 326.99 318.7C337.727 314.014 347.054 306.607 354.05 297.21C361.35 287.583 366.866 275.33 370.6 260.45C374.46 245.583 376.39 227.96 376.39 207.58C376.39 187.333 374.46 169.843 370.6 155.11C366.866 140.37 361.36 128.253 354.08 118.76V118.76ZM332.39 246.61C330.463 257.897 327.366 267.397 323.1 275.11C319.438 282.324 313.869 288.397 307 292.67C300.526 296.53 292.606 298.457 283.24 298.45C272.086 298.45 262.793 296.523 255.36 292.67C247.937 288.562 241.792 282.486 237.6 275.11C233.193 267.397 230.026 257.897 228.1 246.61C226.193 233.699 225.294 220.66 225.41 207.61C225.274 194.271 226.174 180.941 228.1 167.74C230.033 156.447 233.2 147.083 237.6 139.65C241.68 132.523 247.789 126.772 255.15 123.13C262.59 119.41 271.816 117.55 282.83 117.55C292.163 117.55 300.163 119.41 306.83 123.13C313.759 127.029 319.424 132.836 323.15 139.86C327.416 147.287 330.513 156.65 332.44 167.95C334.508 180.925 335.475 194.052 335.33 207.19C335.439 220.389 334.456 233.574 332.39 246.61V246.61ZM560.45 119.38C552.164 109.691 541.582 102.233 529.67 97.6901C517.556 92.8767 503.856 90.4701 488.57 90.4701C455.803 90.4701 431.02 100.107 414.22 119.38C397.553 138.66 389.22 168.06 389.22 207.58C389.22 227.4 391.423 244.733 395.83 259.58C400.376 274.32 406.85 286.577 415.25 296.35C423.666 306.04 434.302 313.551 446.25 318.24C458.37 323.06 472.07 325.47 487.35 325.47C519.85 325.47 544.496 315.763 561.29 296.35C578.23 276.93 586.7 247.327 586.7 207.54C586.7 187.707 584.426 170.493 579.88 155.9C575.466 141.2 568.99 129.027 560.45 119.38V119.38ZM542.45 249.09C540.516 261.09 537.28 271.143 532.74 279.25C528.606 286.82 522.468 293.106 515 297.42C507.666 301.547 498.716 303.613 488.15 303.62C477.583 303.627 468.563 301.56 461.09 297.42C453.571 293.085 447.354 286.809 443.09 279.25C438.55 271.123 435.246 261.07 433.18 249.09C430.976 235.366 429.939 221.479 430.08 207.58C429.933 193.747 430.97 179.926 433.18 166.27C435.24 154.417 438.543 144.57 443.09 136.73C447.193 129.174 453.35 122.934 460.85 118.73C468.183 114.73 477.133 112.73 487.7 112.73C498.266 112.73 507.216 114.73 514.55 118.73C522.152 122.88 528.4 129.128 532.55 136.73C537.09 144.583 540.393 154.43 542.46 166.27C544.665 179.927 545.702 193.747 545.56 207.58C545.702 221.479 544.671 235.365 542.48 249.09H542.45ZM918.9 303.62H913.32C908.827 303.641 904.34 303.307 899.9 302.62C895.929 302.042 892.126 300.632 888.74 298.48C885.531 296.048 882.977 292.855 881.31 289.19C879.523 285.19 878.626 279.89 878.62 273.29V94.6001H803V112.36H804.24C808.666 112.328 813.088 112.663 817.46 113.36C821.425 113.939 825.224 115.346 828.61 117.49C831.881 119.685 834.461 122.765 836.05 126.37C838.016 130.123 839 135.093 839 141.28V275.28C839 281.48 838.036 286.507 836.11 290.36C834.515 293.852 831.927 296.798 828.67 298.83C825.243 300.849 821.456 302.181 817.52 302.75C814.52 303.15 811.376 303.403 808.09 303.51C804.739 303.379 801.4 303.045 798.09 302.51C794.191 301.908 790.461 300.498 787.14 298.37C783.852 296.019 781.28 292.804 779.71 289.08C777.923 285.08 777.026 279.78 777.02 273.18V6.33727e-05H697V17.7601H702.37C706.796 17.7282 711.218 18.0627 715.59 18.7601C719.557 19.2001 723.37 20.5409 726.74 22.6801C730.016 24.8699 732.597 27.9511 734.18 31.5601C736.1 35.2801 737.063 40.2367 737.07 46.4301V273.26C737.07 279.873 736.106 285.173 734.18 289.16C732.605 292.884 730.03 296.1 726.74 298.45C723.441 300.623 719.701 302.037 715.79 302.59L715.35 302.65V300.31C710.943 301.137 706.61 301.827 702.35 302.38C697.705 302.95 693.029 303.224 688.35 303.2C678.57 303.2 670.72 299.827 664.8 293.08C659.02 286.34 656.13 275.74 656.13 261.28V118.76H711.48V94.6001H656.11V42.6001H636.7C634.95 51.9142 632.321 61.0417 628.85 69.8601C626.149 76.6903 622.228 82.9724 617.28 88.4001C612.771 93.1121 607.183 96.6573 601 98.7301C595.63 100.67 589.978 101.717 584.27 101.83V118.76H616.49V260C616.49 272.107 617.663 282.363 620.01 290.77C622.483 299.17 626.2 305.917 631.16 311.01C636.41 316.281 642.967 320.06 650.16 321.96C657.873 324.3 667.1 325.47 677.84 325.47C681.358 325.456 684.874 325.249 688.37 324.85C691.908 324.605 695.426 324.124 698.9 323.41C702.108 322.912 705.284 322.22 708.41 321.34H918.9V303.62ZM840 46.4701C842.186 48.5189 844.793 50.0651 847.64 51.0001C850.734 51.8504 853.931 52.2677 857.14 52.2401C860.282 52.2593 863.412 51.8419 866.44 51.0001C869.24 50.0895 871.786 48.5306 873.87 46.4501C876.19 44.2199 877.959 41.4812 879.04 38.4501C880.532 34.4742 881.232 30.2447 881.1 26.0001C881.209 21.7795 880.496 17.5781 879 13.6301C877.919 10.5989 876.15 7.86023 873.83 5.63006C871.77 3.56475 869.21 2.06932 866.4 1.29006C863.388 0.430109 860.272 -0.00410355 857.14 6.33727e-05C853.931 -0.0325413 850.733 0.384853 847.64 1.24006C844.78 2.04852 842.159 3.53764 840 5.58006C837.68 7.82791 835.914 10.5836 834.84 13.6301C833.502 17.6126 832.879 21.8005 833 26.0001C832.882 30.2108 833.512 34.4091 834.86 38.4001C835.925 41.4518 837.685 44.2144 840 46.4701V46.4701Z" fill="#6F5912"/>
<path d="M1326.89 302.59C1323.18 302.015 1319.64 300.599 1316.56 298.45C1313.5 296.017 1311.14 292.809 1309.74 289.16C1308.09 285.16 1307.26 279.86 1307.27 273.26V173.26C1307.27 158.8 1305.6 146.337 1302.27 135.87C1298.94 125.403 1294.12 116.867 1287.81 110.26C1281.32 103.42 1273.23 98.3088 1264.27 95.39C1255.04 92.0567 1244.43 90.39 1232.46 90.39C1203.68 90.39 1182.96 103.193 1170.29 128.8H1168.22C1168.5 124.8 1168.78 120.74 1169.05 116.62C1169.32 113.04 1169.52 109.183 1169.67 105.05C1169.81 100.777 1169.88 96.7133 1169.87 92.86V0H1092.01V17.76H1095.31C1099.74 17.7282 1104.16 18.0627 1108.53 18.76C1112.5 19.1986 1116.31 20.5395 1119.68 22.68C1122.96 24.8699 1125.54 27.951 1127.12 31.56C1129.05 35.28 1130.01 40.2367 1130.01 46.43V273.26C1130.01 279.873 1129.05 285.173 1127.12 289.16C1125.55 292.884 1122.97 296.1 1119.68 298.45C1116.39 300.625 1112.65 302.039 1108.74 302.59C1104.3 303.287 1099.81 303.622 1095.31 303.59H1092.01V308.47C1089.91 304.858 1087.32 301.547 1084.33 298.63C1078.83 292.99 1071.67 288.583 1062.85 285.41C1054.03 282.237 1043.29 280.653 1030.63 280.66H982.75C979.04 280.66 975.52 280.52 972.22 280.25C969.381 279.928 966.608 279.169 964 278C961.75 276.829 959.83 275.109 958.42 273C957.07 270.464 956.427 267.61 956.56 264.74C956.523 261.765 957.084 258.813 958.21 256.06C959.283 253.515 960.748 251.153 962.55 249.06C964.533 246.954 966.751 245.081 969.16 243.48C971.68 241.829 974.299 240.333 977 239C978.1 239.14 979.55 239.34 981.34 239.62C983.13 239.9 985.06 239.89 987.12 240.03C989.18 240.17 991.25 240.1 993.32 240.24H998.89C1011.7 240.24 1022.85 238.45 1032.35 234.87C1041.99 231.15 1049.91 226.053 1056.11 219.58C1062.47 213.065 1067.33 205.244 1070.36 196.66C1073.6 187.296 1075.2 177.447 1075.11 167.54C1075.11 155.42 1073.53 145.367 1070.36 137.38C1067.61 129.762 1063.64 122.645 1058.59 116.31C1061.2 114.589 1064.05 113.267 1067.05 112.39C1070.21 111.527 1073.48 111.109 1076.76 111.15C1079.18 111.05 1081.58 111.548 1083.76 112.6C1085.45 113.336 1086.89 114.557 1087.89 116.11C1088.97 117.439 1089.75 118.988 1090.17 120.65C1090.58 122.285 1090.79 123.964 1090.79 125.65C1094.17 125.732 1097.53 125.172 1100.7 124C1103.34 122.921 1105.73 121.3 1107.7 119.24C1109.48 117.202 1110.82 114.819 1111.63 112.24C1112.6 109.452 1113.08 106.521 1113.07 103.57C1113.08 100.734 1112.52 97.9243 1111.42 95.31C1110.5 92.6401 1108.94 90.2364 1106.88 88.31C1104.66 86.1536 1101.97 84.5296 1099.03 83.56C1095.52 82.2312 1091.78 81.5994 1088.03 81.7C1083.52 81.67 1079.05 82.442 1074.81 83.98C1070.88 85.4604 1067.14 87.4006 1063.66 89.76C1060.3 91.8958 1057.18 94.3868 1054.36 97.19C1051.61 99.81 1049.21 102.22 1047.14 104.42C1044.62 102.345 1041.84 100.61 1038.87 99.26C1035.22 97.4749 1031.42 96.0224 1027.51 94.92C1023.07 93.4752 1018.51 92.4376 1013.88 91.82C1008.9 90.9977 1003.85 90.5863 998.8 90.59C985.467 90.59 973.834 92.38 963.9 95.96C954.637 99.0579 946.229 104.285 939.351 111.221C932.474 118.158 927.319 126.61 924.3 135.9C921 145.54 919.334 156.49 919.3 168.75C919.286 175.639 920.119 182.504 921.78 189.19C923.491 195.604 925.99 201.781 929.22 207.58C932.516 213.066 936.554 218.07 941.22 222.45C946.051 226.72 951.568 230.141 957.54 232.57C947.9 238.35 940.877 244.35 936.47 250.57C932.057 256.617 929.854 263.843 929.86 272.25C929.807 276.473 930.504 280.671 931.92 284.65C934.423 291.555 938.881 297.584 944.75 302C947.367 303.98 950.21 305.642 953.22 306.95C946.342 308.16 939.629 310.173 933.22 312.95C927.044 315.61 921.329 319.236 916.29 323.69C911.415 328.172 907.482 333.581 904.72 339.6C901.699 346.42 900.217 353.822 900.38 361.28C900.38 380.7 907.68 395.847 922.28 406.72C936.88 417.593 958.897 423.02 988.33 423C1007.47 423 1024.06 421.14 1038.11 417.42C1052.29 413.707 1063.99 408.407 1073.22 401.52C1082.1 395.198 1089.15 386.647 1093.67 376.73C1098.33 366.417 1100.65 355.204 1100.48 343.89C1100.54 336.278 1099.51 328.697 1097.41 321.38H1205.85V303.62H1204.61C1200.12 303.63 1195.64 303.353 1191.19 302.79C1187.31 302.204 1183.57 300.873 1180.19 298.87C1176.91 296.809 1174.26 293.877 1172.55 290.4C1170.76 286.54 1169.87 281.513 1169.86 275.32V186.09C1169.78 176.635 1170.83 167.204 1173 158C1174.73 150.255 1177.88 142.899 1182.3 136.31C1186.36 130.437 1191.82 125.678 1198.2 122.47C1204.67 119.137 1212.31 117.47 1221.13 117.47C1229.66 117.47 1236.88 118.78 1242.81 121.4C1248.52 123.703 1253.46 127.567 1257.07 132.55C1260.99 137.981 1263.74 144.174 1265.12 150.73C1266.87 158.801 1267.7 167.043 1267.6 175.3V321.3H1341.13V303.62H1339.89C1335.54 303.642 1331.19 303.298 1326.89 302.59V302.59ZM967.89 125.16C973.81 115.827 983.587 111.16 997.22 111.16C1010.99 111.16 1020.76 115.703 1026.55 124.79C1032.34 133.877 1035.23 147.923 1035.23 166.93C1035.34 174.979 1034.65 183.019 1033.16 190.93C1031.92 197.53 1029.79 202.967 1026.76 207.24C1023.8 211.451 1019.72 214.743 1014.98 216.74C1010.31 218.807 1004.53 219.84 997.63 219.84C983.997 219.84 974.154 215.64 968.1 207.24C962.18 198.84 959.22 185.623 959.22 167.59C959.214 148.53 962.1 134.387 967.88 125.16H967.89ZM1062.28 371.36C1059.84 377.838 1055.62 383.496 1050.1 387.68C1044.31 392.22 1036.46 395.73 1026.55 398.21C1016.77 400.83 1004.31 402.14 989.17 402.14C978.43 402.14 969.547 401.037 962.52 398.83C955.494 396.623 949.917 393.597 945.79 389.75C941.722 385.989 938.729 381.212 937.12 375.91C935.431 370.283 934.595 364.435 934.64 358.56C934.64 350.16 935.947 343.343 938.56 338.11C940.89 333.22 944.449 329.02 948.89 325.92C953.398 322.994 958.46 321.026 963.76 320.14C969.477 319.033 975.287 318.481 981.11 318.49H1022.63C1028.86 318.426 1035.08 318.908 1041.22 319.93C1045.98 320.681 1050.55 322.381 1054.64 324.93C1058.31 327.35 1061.19 330.801 1062.9 334.85C1064.83 339.11 1065.79 344.48 1065.79 350.96C1065.86 357.917 1064.67 364.83 1062.27 371.36H1062.28ZM1441 118.76V94.6H1399V42.6H1379.59C1377.85 51.9153 1375.22 61.0432 1371.74 69.86C1369.04 76.7079 1365.12 83.0074 1360.17 88.45C1355.65 93.1652 1350.05 96.7105 1343.86 98.78C1338.49 100.718 1332.84 101.766 1327.13 101.88V118.81H1359.35V260C1359.35 272.107 1360.52 282.363 1362.86 290.77C1365.34 299.17 1369.06 305.917 1374.01 311.01C1379.25 316.294 1385.81 320.087 1393 322C1400.72 324.34 1409.95 325.51 1420.68 325.51C1424.2 325.496 1427.71 325.289 1431.21 324.89C1434.49 324.657 1437.76 324.223 1440.99 323.59V302.81C1437.92 303.07 1434.67 303.2 1431.21 303.2C1421.44 303.2 1413.6 299.827 1407.67 293.08C1401.89 286.36 1399 275.76 1399 261.28V118.76H1441Z" fill="#6F5912"/>
</g>
<defs>
<clipPath id="clip0_1934_141">
<rect width="1441" height="423" fill="white"/>
</clipPath>
</defs>
</svg>
