<svg id="team" xmlns="http://www.w3.org/2000/svg" viewBox="0 0 1441 455.89"><defs><style>.cls-1{fill:none;}.cls-2{fill:#ffce29;}</style></defs><path class="cls-1" d="M708.07,287q-17.84,5.22-28.91,15.07a54.06,54.06,0,0,0-16,23.69q-4.62,14.14-4.61,32.6,0,29.53,12.3,44.3,12.61,14.46,38.76,14.46,19.08,0,34.45-6.15a72,72,0,0,0,26.46-17.54,75.8,75.8,0,0,0,16.92-27.68,107.14,107.14,0,0,0,5.84-36.3V278.39L753,280.24Q726.22,281.47,708.07,287Z"/><path class="cls-1" d="M505.61,170.42a58.45,58.45,0,0,0-21.22-22.76q-12.93-8-32-8-35.07,0-54.14,28.61-18.76,28.29-22.15,83H521a259.05,259.05,0,0,0-3.69-45.52Q513.61,185.18,505.61,170.42Z"/><path class="cls-2" d="M332.68,0H0V110.13H7.53l3.38-27.07a115.68,115.68,0,0,1,4-19.69,49.76,49.76,0,0,1,8.92-16.61A42.38,42.38,0,0,1,39.21,35.68q9.54-4.3,23.38-4.3h60.3V381.14q0,13.85-4.31,22.45a29.11,29.11,0,0,1-11.07,12.62,45.55,45.55,0,0,1-16.62,5.84,149.08,149.08,0,0,1-19.68,1.23H56.75v26.46h196V423.28H238.24a124.84,124.84,0,0,1-20-1.54,42.17,42.17,0,0,1-16.61-6.15,35.92,35.92,0,0,1-11.08-13.84q-4-8.92-4-23.69V31.38h61.22q14.14,0,23.69,4.3a39.24,39.24,0,0,1,15.38,11.08,49.76,49.76,0,0,1,8.92,16.61,98.42,98.42,0,0,1,4.3,19.69l3.08,27.07h32.61Z"/><path class="cls-2" d="M549.6,144a105.9,105.9,0,0,0-41.22-28.61q-24.3-9.54-54.76-9.54-67,0-103.36,44.6T314,283.32q0,40.9,9.84,73.21,10.15,32,28.92,54.14a123.28,123.28,0,0,0,45.83,33.84q27.38,11.37,61.52,11.38,28,0,48.61-6.15,20.91-6.17,34.76-15.38t20.61-20q6.77-11.07,6.77-20.61a23.94,23.94,0,0,0-4-13.84q-3.69-5.85-8-7.69a82.14,82.14,0,0,1-14.46,16.61,104.3,104.3,0,0,1-20,13.84,114,114,0,0,1-25.54,9.84,116.3,116.3,0,0,1-30.14,3.7q-22.45,0-39.69-7.39a73.8,73.8,0,0,1-29.22-23.68q-11.69-16-18.15-40.61-6.15-24.91-6.77-59.37h209.8V256.24q0-37.22-9.23-65.21Q566.52,162.73,549.6,144ZM376.1,251.32q3.39-54.75,22.15-83,19.08-28.62,54.14-28.61,19.08,0,32,8a58.45,58.45,0,0,1,21.22,22.76q8,14.76,11.69,35.38A259.05,259.05,0,0,1,521,251.32Z"/><path class="cls-2" d="M1427,421.74a36.75,36.75,0,0,1-15.38-6.15,32.57,32.57,0,0,1-10.15-13.84q-3.69-8.92-3.69-23.69V229.17q0-32.29-7.08-55.67t-20.3-38.15a78.69,78.69,0,0,0-32.3-22.15q-19.06-7.38-43.07-7.38a163.18,163.18,0,0,0-28.6,2.46,87.56,87.56,0,0,0-49.53,26.15q-11.07,11.07-20.61,28.61h-5.23a83.29,83.29,0,0,0-15.38-26.46,76.3,76.3,0,0,0-21.23-17.84,89.21,89.21,0,0,0-25.53-9.84,134.46,134.46,0,0,0-29.22-3.08,153,153,0,0,0-28,2.46,80.31,80.31,0,0,0-24.91,8.61,82.52,82.52,0,0,0-22.15,17.54q-10.46,11.07-20,28.61h-3.07L993.28,112H894.54v26.46h1.84A113.64,113.64,0,0,1,915.76,140a36.65,36.65,0,0,1,15.38,6.15,30.43,30.43,0,0,1,10.15,13.23q3.71,8.29,3.7,22.14V378.06q0,14.78-3.7,23.69a30.35,30.35,0,0,1-9.84,13.84,36.65,36.65,0,0,1-15.38,6.15,115.8,115.8,0,0,1-19.69,1.54h-4.66a68,68,0,0,1-18.15-2.15,24.92,24.92,0,0,1-12-7.39,32.53,32.53,0,0,1-6.77-13.84q-2.14-8.61-2.15-21.84V214.72q0-30.15-7.38-50.76-7.08-20.93-21.53-33.84t-36-18.45q-21.53-5.85-50.44-5.85a272.27,272.27,0,0,0-44,3.38A137.55,137.55,0,0,0,657,120q-15.39,7.08-24.3,18.46t-8.93,27.68q0,21.84,13.54,30.77,13.84,8.91,40,8.92a163.52,163.52,0,0,1,2.15-27.38,55.87,55.87,0,0,1,8.31-21.84,41.34,41.34,0,0,1,17.53-14.15q11.38-5.24,29.54-5.23,19.38,0,30.76,5.84a39.93,39.93,0,0,1,17.84,16q6.15,10.14,8,24.61a241.29,241.29,0,0,1,1.84,31.07v37.83L741,254.4q-72.3,2.16-108,26.45T597.33,355.3q0,25.83,7.38,44.91Q612.11,419,625,431.59a82.85,82.85,0,0,0,31.07,18.15,120.9,120.9,0,0,0,39.06,6.15q19.7,0,33.53-4.62A85,85,0,0,0,753.91,439a111.1,111.1,0,0,0,20.3-19.07q9.22-11.08,19.07-24.3h5.23l9.84,54.14h249.22V423.28h-1.84a156.46,156.46,0,0,1-20-1.23,45.31,45.31,0,0,1-16.3-5.84,31,31,0,0,1-11.38-12.62q-4-8.61-4-22.45V248.25a197.3,197.3,0,0,1,3.69-38.76,99.56,99.56,0,0,1,12.31-32.61,65.39,65.39,0,0,1,22.45-22.46q14.14-8.29,34.76-8.3,18.15,0,30.76,5.84a47.44,47.44,0,0,1,20.31,16.61q8,11.09,11.38,27.07a163.77,163.77,0,0,1,3.69,36.61V449.74h109.51V423.28h-1.84a113.64,113.64,0,0,1-19.38-1.54,36.74,36.74,0,0,1-15.39-6.15,32.57,32.57,0,0,1-10.15-13.84q-3.69-8.92-3.69-23.69V239.94a183,183,0,0,1,3.39-36,90.31,90.31,0,0,1,12-29.84,60.1,60.1,0,0,1,21.54-20.3q13.53-7.69,33.22-7.69,18.15,0,30.76,5.84a47.35,47.35,0,0,1,20.3,16.61q8,11.09,11.39,27.07a163.77,163.77,0,0,1,3.69,36.61V449.74H1441V423.17A107.24,107.24,0,0,1,1427,421.74ZM793.28,329.46a107.14,107.14,0,0,1-5.84,36.3,75.8,75.8,0,0,1-16.92,27.68A72,72,0,0,1,744.06,411q-15.37,6.15-34.45,6.15-26.15,0-38.76-14.46-12.3-14.76-12.3-44.3,0-18.45,4.61-32.6a54.06,54.06,0,0,1,16-23.69q11.07-9.84,28.91-15.07,18.15-5.53,44.91-6.77l40.3-1.85Z"/></svg>
