<svg width="1441" height="456" viewBox="0 0 1441 456" fill="none" xmlns="http://www.w3.org/2000/svg">
<g clip-path="url(#clip0_1935_158)">
<path d="M332.68 0H0V110.13H7.53L10.91 83.06C11.6697 76.3931 13.0081 69.8049 14.91 63.37C16.7977 57.3155 19.8254 51.6776 23.83 46.76C28.0543 41.9528 33.3125 38.1647 39.21 35.68C45.57 32.8133 53.3633 31.38 62.59 31.38H122.89V381.14C122.89 390.373 121.453 397.857 118.58 403.59C116.209 408.792 112.359 413.182 107.51 416.21C102.403 419.22 96.7572 421.203 90.89 422.05C84.3643 422.894 77.79 423.305 71.21 423.28H56.75V449.74H252.75V423.28H238.24C231.543 423.304 224.855 422.789 218.24 421.74C212.33 420.889 206.669 418.793 201.63 415.59C196.838 411.975 193.029 407.217 190.55 401.75C187.883 395.803 186.55 387.907 186.55 378.06V31.38H247.77C257.197 31.38 265.093 32.8133 271.46 35.68C277.415 38.061 282.696 41.8653 286.84 46.76C290.845 51.6776 293.872 57.3155 295.76 63.37C297.863 69.7689 299.304 76.3668 300.06 83.06L303.14 110.13H335.75L332.68 0Z" fill="#6F5912"/>
<path d="M549.6 144C538.351 131.299 524.214 121.487 508.38 115.39C492.18 109.03 473.927 105.85 453.62 105.85C408.954 105.85 374.5 120.717 350.26 150.45C326.02 180.183 313.934 224.473 314 283.32C314 310.587 317.28 334.99 323.84 356.53C330.607 377.863 340.247 395.91 352.76 410.67C365.185 425.374 380.881 436.963 398.59 444.51C416.844 452.09 437.35 455.883 460.11 455.89C478.777 455.89 494.98 453.84 508.72 449.74C522.66 445.627 534.247 440.5 543.48 434.36C552.714 428.22 559.584 421.553 564.09 414.36C568.604 406.98 570.86 400.11 570.86 393.75C570.98 388.835 569.583 384.003 566.86 379.91C564.4 376.01 561.734 373.447 558.86 372.22C554.808 378.381 549.944 383.968 544.4 388.83C538.296 394.208 531.584 398.853 524.4 402.67C516.313 406.964 507.738 410.268 498.86 412.51C489.018 415.055 478.885 416.299 468.72 416.21C453.754 416.21 440.524 413.747 429.03 408.82C417.409 403.583 407.342 395.425 399.81 385.14C392.017 374.473 385.967 360.937 381.66 344.53C377.56 327.923 375.304 308.133 374.89 285.16H584.69V256.24C584.69 231.427 581.614 209.69 575.46 191.03C569.5 172.163 560.88 156.487 549.6 144ZM376.1 251.32C378.36 214.82 385.744 187.153 398.25 168.32C410.97 149.24 429.017 139.703 452.39 139.71C465.11 139.71 475.777 142.377 484.39 147.71C493.39 153.24 500.723 161.105 505.61 170.47C510.944 180.31 514.84 192.103 517.3 205.85C519.868 220.868 521.107 236.084 521 251.32H376.1Z" fill="#6F5912"/>
<path d="M1427 421.74C1421.47 420.887 1416.21 418.784 1411.62 415.59C1407.06 411.967 1403.56 407.188 1401.47 401.75C1399.01 395.803 1397.78 387.907 1397.78 378.06V229.17C1397.78 207.643 1395.42 189.087 1390.7 173.5C1385.98 157.913 1379.21 145.197 1370.4 135.35C1361.67 125.363 1350.56 117.743 1338.1 113.2C1325.39 108.28 1311.04 105.82 1295.03 105.82C1285.44 105.798 1275.87 106.622 1266.43 108.28C1247.5 111.339 1230.1 120.526 1216.9 134.43C1209.52 141.81 1202.65 151.347 1196.29 163.04H1191.06C1187.61 153.346 1182.4 144.374 1175.68 136.58C1169.75 129.387 1162.56 123.34 1154.45 118.74C1146.5 114.167 1137.89 110.848 1128.92 108.9C1119.32 106.809 1109.52 105.776 1099.7 105.82C1090.31 105.779 1080.94 106.603 1071.7 108.28C1062.98 109.759 1054.56 112.668 1046.79 116.89C1038.45 121.42 1030.96 127.354 1024.64 134.43C1017.67 141.81 1011 151.347 1004.64 163.04H1001.57L993.28 112H894.54V138.46H896.38C902.872 138.419 909.356 138.934 915.76 140C921.289 140.85 926.55 142.953 931.14 146.15C935.689 149.529 939.205 154.111 941.29 159.38C943.763 164.907 944.997 172.287 944.99 181.52V378.06C944.99 387.913 943.757 395.81 941.29 401.75C939.394 407.206 935.98 412.007 931.45 415.59C926.86 418.787 921.599 420.891 916.07 421.74C909.563 422.813 902.975 423.328 896.38 423.28H891.72C885.601 423.383 879.496 422.66 873.57 421.13C868.942 419.873 864.776 417.307 861.57 413.74C858.238 409.735 855.916 404.989 854.8 399.9C853.373 394.16 852.657 386.88 852.65 378.06V214.72C852.65 194.62 850.19 177.7 845.27 163.96C840.55 150.007 833.373 138.727 823.74 130.12C814.107 121.513 802.107 115.363 787.74 111.67C773.387 107.77 756.573 105.82 737.3 105.82C722.566 105.754 707.851 106.885 693.3 109.2C680.76 111.109 668.544 114.744 657 120C646.74 124.72 638.64 130.873 632.7 138.46C626.76 146.047 623.783 155.273 623.77 166.14C623.77 180.7 628.283 190.957 637.31 196.91C646.537 202.85 659.87 205.823 677.31 205.83C677.258 196.659 677.977 187.5 679.46 178.45C680.66 170.666 683.492 163.223 687.77 156.61C692.191 150.362 698.259 145.463 705.3 142.46C712.887 138.967 722.733 137.223 734.84 137.23C747.76 137.23 758.013 139.177 765.6 143.07C773.045 146.451 779.272 152.036 783.44 159.07C787.54 165.83 790.207 174.033 791.44 183.68C792.721 193.986 793.336 204.365 793.28 214.75V252.58L741 254.4C692.8 255.84 656.8 264.657 633 280.85C609.2 297.043 597.31 321.86 597.33 355.3C597.33 372.52 599.79 387.49 604.71 400.21C609.643 412.737 616.407 423.197 625 431.59C633.902 439.843 644.509 446.039 656.07 449.74C668.664 453.92 681.861 455.998 695.13 455.89C708.263 455.89 719.44 454.35 728.66 451.27C737.699 448.608 746.232 444.461 753.91 439C761.45 433.52 768.27 427.113 774.21 419.93C780.357 412.543 786.713 404.443 793.28 395.63H798.51L808.35 449.77H1057.57V423.28H1055.73C1049.04 423.298 1042.36 422.887 1035.73 422.05C1029.97 421.169 1024.44 419.186 1019.43 416.21C1014.54 413.146 1010.59 408.775 1008.05 403.59C1005.38 397.85 1004.05 390.367 1004.05 381.14V248.25C1004 235.24 1005.24 222.257 1007.74 209.49C1009.89 197.981 1014.06 186.942 1020.05 176.88C1025.57 167.662 1033.28 159.948 1042.5 154.42C1051.93 148.893 1063.51 146.127 1077.26 146.12C1089.36 146.12 1099.61 148.067 1108.02 151.96C1116.22 155.477 1123.26 161.234 1128.33 168.57C1133.66 175.963 1137.46 184.987 1139.71 195.64C1142.31 207.666 1143.55 219.947 1143.4 232.25V449.74H1252.91V423.28H1251.07C1244.58 423.321 1238.09 422.806 1231.69 421.74C1226.16 420.889 1220.89 418.785 1216.3 415.59C1211.74 411.967 1208.24 407.188 1206.15 401.75C1203.69 395.803 1202.46 387.907 1202.46 378.06V239.94C1202.4 227.858 1203.53 215.799 1205.85 203.94C1208.03 193.356 1212.1 183.249 1217.85 174.1C1223.23 165.644 1230.63 158.665 1239.39 153.8C1248.41 148.673 1259.48 146.11 1272.61 146.11C1284.71 146.11 1294.96 148.057 1303.37 151.95C1311.57 155.465 1318.6 161.222 1323.67 168.56C1329 175.953 1332.8 184.977 1335.06 195.63C1337.66 207.656 1338.9 219.937 1338.75 232.24V449.74H1441V423.17C1436.31 423 1431.63 422.523 1427 421.74ZM793.28 329.46C793.44 341.806 791.464 354.087 787.44 365.76C783.864 376.1 778.092 385.543 770.52 393.44C763.117 401.19 754.077 407.189 744.06 411C733.813 415.1 722.33 417.15 709.61 417.15C692.177 417.15 679.257 412.33 670.85 402.69C662.65 392.85 658.55 378.083 658.55 358.39C658.55 346.09 660.087 335.223 663.16 325.79C666.271 316.601 671.798 308.418 679.16 302.1C686.54 295.54 696.177 290.517 708.07 287.03C720.17 283.343 735.14 281.087 752.98 280.26L793.28 278.41V329.46Z" fill="#6F5912"/>
</g>
<defs>
<clipPath id="clip0_1935_158">
<rect width="1441" height="455.89" fill="white"/>
</clipPath>
</defs>
</svg>
